<?xml version="1.0" encoding="UTF-8" standalone="no"?>
<!-- Created with Inkscape (http://www.inkscape.org/) -->

<svg
   xmlns:dc="http://purl.org/dc/elements/1.1/"
   xmlns:cc="http://creativecommons.org/ns#"
   xmlns:rdf="http://www.w3.org/1999/02/22-rdf-syntax-ns#"
   xmlns:svg="http://www.w3.org/2000/svg"
   xmlns="http://www.w3.org/2000/svg"
   xmlns:xlink="http://www.w3.org/1999/xlink"
   xmlns:sodipodi="http://sodipodi.sourceforge.net/DTD/sodipodi-0.dtd"
   xmlns:inkscape="http://www.inkscape.org/namespaces/inkscape"
   width="48px"
   height="48px"
   id="svg3039"
   version="1.1"
   inkscape:version="0.48.5 r10040"
   sodipodi:docname="camera-photo.svg">
  <defs
     id="defs3041">
    <linearGradient
       id="linearGradient4044">
      <stop
         id="stop4046"
         offset="0"
         style="stop-color:#7a7a7a;stop-opacity:1" />
      <stop
         id="stop4048"
         offset="1"
         style="stop-color:#646464;stop-opacity:1" />
    </linearGradient>
    <linearGradient
       id="linearGradient3840">
      <stop
         style="stop-color:#f9f9f9;stop-opacity:1;"
         offset="0"
         id="stop3844" />
      <stop
         id="stop3846"
         offset="1"
         style="stop-color:#a1a1a1;stop-opacity:1;" />
    </linearGradient>
    <linearGradient
       id="linearGradient3935">
      <stop
         style="stop-color:#969696;stop-opacity:1;"
         offset="0"
         id="stop3937" />
      <stop
         style="stop-color:#2b2b2b;stop-opacity:1;"
         offset="1"
         id="stop3941" />
    </linearGradient>
    <linearGradient
       id="linearGradient4279">
      <stop
         id="stop4283"
         offset="0"
         style="stop-color:#c4c4c4;stop-opacity:1;" />
      <stop
         style="stop-color:#8d8d8d;stop-opacity:1;"
         offset="1"
         id="stop3850" />
    </linearGradient>
    <linearGradient
       id="linearGradient4239">
      <stop
         style="stop-color:#505050;stop-opacity:1;"
         offset="0"
         id="stop4241" />
      <stop
         style="stop-color:#ffffff;stop-opacity:0.15422885;"
         offset="1"
         id="stop4243" />
    </linearGradient>
    <linearGradient
       id="linearGradient4223">
      <stop
         id="stop4227"
         offset="0"
         style="stop-color:#e9e9e9;stop-opacity:0;" />
      <stop
         style="stop-color:#929292;stop-opacity:1"
         offset="1"
         id="stop4229" />
    </linearGradient>
    <linearGradient
       id="linearGradient4169">
      <stop
         id="stop4171"
         offset="0"
         style="stop-color:#ffe170;stop-opacity:1;" />
      <stop
         style="stop-color:#ffb36b;stop-opacity:1;"
         offset="1"
         id="stop4175" />
    </linearGradient>
    <linearGradient
       id="linearGradient4153">
      <stop
         style="stop-color:#ffffff;stop-opacity:1;"
         offset="0"
         id="stop4155" />
      <stop
         style="stop-color:#000000;stop-opacity:1;"
         offset="1"
         id="stop4157" />
    </linearGradient>
    <linearGradient
       id="linearGradient4145">
      <stop
         id="stop4147"
         offset="0"
         style="stop-color:#9d9d9d;stop-opacity:1;" />
      <stop
         id="stop4149"
         offset="1"
         style="stop-color:#828282;stop-opacity:1;" />
    </linearGradient>
    <linearGradient
       id="linearGradient4048">
      <stop
         style="stop-color:#e0e0e0;stop-opacity:1;"
         offset="0"
         id="stop4299" />
      <stop
         style="stop-color:#818181;stop-opacity:1;"
         offset="0.86432886"
         id="stop4056" />
      <stop
         id="stop4305"
         offset="0.89051455"
         style="stop-color:#606060;stop-opacity:1" />
      <stop
         style="stop-color:#575757;stop-opacity:1"
         offset="0.95148641"
         id="stop4307" />
      <stop
         id="stop4309"
         offset="0.96247357"
         style="stop-color:#565656;stop-opacity:1;" />
      <stop
         id="stop4054"
         offset="1"
         style="stop-color:#aaaaaa;stop-opacity:1" />
    </linearGradient>
    <linearGradient
       id="linearGradient3886">
      <stop
         style="stop-color:#f9f9f9;stop-opacity:1;"
         offset="0"
         id="stop3888" />
      <stop
         style="stop-color:#afafaf;stop-opacity:1;"
         offset="1"
         id="stop3890" />
    </linearGradient>
    <linearGradient
       id="linearGradient3839">
      <stop
         style="stop-color:#4d7ebe;stop-opacity:1;"
         offset="0"
         id="stop3842" />
      <stop
         style="stop-color:#3b67c0;stop-opacity:1;"
         offset="1"
         id="stop3843" />
    </linearGradient>
    <linearGradient
       y2="17"
       x2="40"
       y1="31"
       x1="54"
       gradientTransform="matrix(0,-1,-1,0,71,73)"
       gradientUnits="userSpaceOnUse"
       id="linearGradient3029"
       xlink:href="#linearGradient4410"
       inkscape:collect="always" />
    <linearGradient
       inkscape:collect="always"
       id="linearGradient4410">
      <stop
         style="stop-color:#383e51;stop-opacity:1"
         offset="0"
         id="stop4412" />
      <stop
         style="stop-color:#655c6f;stop-opacity:0"
         offset="1"
         id="stop4414" />
    </linearGradient>
    <linearGradient
       y2="17"
       x2="40"
       y1="31"
       x1="54"
       gradientTransform="matrix(0,-1,1,0,4,78)"
       gradientUnits="userSpaceOnUse"
       id="linearGradient3028-7"
       xlink:href="#linearGradient4410-0"
       inkscape:collect="always" />
    <linearGradient
       inkscape:collect="always"
       id="linearGradient4410-0">
      <stop
         style="stop-color:#383e51;stop-opacity:1"
         offset="0"
         id="stop4412-9" />
      <stop
         style="stop-color:#655c6f;stop-opacity:0"
         offset="1"
         id="stop4414-1" />
    </linearGradient>
    <radialGradient
       inkscape:collect="always"
       xlink:href="#linearGradient3886-5"
       id="radialGradient3892-5"
       cx="24.061937"
       cy="23.872463"
       fx="24.061937"
       fy="23.872463"
       r="17.025761"
       gradientTransform="matrix(1,0,0,0.99900396,0,0.02377793)"
       gradientUnits="userSpaceOnUse" />
    <linearGradient
       id="linearGradient3886-5">
      <stop
         style="stop-color:#dad7d7;stop-opacity:1;"
         offset="0"
         id="stop3888-9" />
      <stop
         style="stop-color:#b5b5b5;stop-opacity:1;"
         offset="1"
         id="stop3890-3" />
    </linearGradient>
    <radialGradient
       inkscape:collect="always"
       xlink:href="#linearGradient4169-1"
       id="radialGradient4099-4"
       cx="26.5"
       cy="23.5"
       fx="26.5"
       fy="23.5"
       r="19.5"
       gradientTransform="matrix(0.9473684,0,0,0.79892039,1.3947374,4.725371)"
       gradientUnits="userSpaceOnUse" />
    <linearGradient
       id="linearGradient4169-1">
      <stop
         id="stop4171-2"
         offset="0"
         style="stop-color:#f9f9f9;stop-opacity:1;" />
      <stop
         style="stop-color:#c4c4c4;stop-opacity:1;"
         offset="0.76923078"
         id="stop4175-4" />
      <stop
         id="stop4173-4"
         offset="1"
         style="stop-color:#565656;stop-opacity:1;" />
    </linearGradient>
    <linearGradient
       inkscape:collect="always"
       xlink:href="#linearGradient4239"
       id="linearGradient4245"
       x1="44"
       y1="28.00672"
       x2="57.993282"
       y2="13"
       gradientUnits="userSpaceOnUse" />
    <linearGradient
       inkscape:collect="always"
       xlink:href="#linearGradient4223"
       id="linearGradient4249"
       x1="24.643452"
       y1="23.494081"
       x2="39.495842"
       y2="9.4033527"
       gradientUnits="userSpaceOnUse" />
    <radialGradient
       inkscape:collect="always"
       xlink:href="#linearGradient4169"
       id="radialGradient4295"
       cx="60.986568"
       cy="23.99328"
       fx="60.986568"
       fy="23.99328"
       r="21.006716"
       gradientTransform="translate(0,-4.7400131e-6)"
       gradientUnits="userSpaceOnUse" />
    <linearGradient
       inkscape:collect="always"
       xlink:href="#linearGradient3935"
       id="linearGradient3933"
       x1="25"
       y1="3"
       x2="25"
       y2="42"
       gradientUnits="userSpaceOnUse" />
    <linearGradient
       inkscape:collect="always"
       xlink:href="#linearGradient4410"
       id="linearGradient4040"
       gradientUnits="userSpaceOnUse"
       gradientTransform="matrix(0,-0.91040707,0.89132666,0,5.5948245,77.65501)"
       x1="61.132004"
       y1="25.136885"
       x2="36.251213"
       y2="11.920761" />
    <linearGradient
       inkscape:collect="always"
       xlink:href="#linearGradient3935"
       id="linearGradient4171"
       gradientUnits="userSpaceOnUse"
       x1="25"
       y1="3"
       x2="25"
       y2="42" />
    <linearGradient
       inkscape:collect="always"
       xlink:href="#linearGradient3935"
       id="linearGradient4174"
       gradientUnits="userSpaceOnUse"
       x1="25"
       y1="3"
       x2="25"
       y2="42" />
    <linearGradient
       inkscape:collect="always"
       xlink:href="#linearGradient3935"
       id="linearGradient4177"
       gradientUnits="userSpaceOnUse"
       x1="25"
       y1="3"
       x2="25"
       y2="42" />
    <linearGradient
       inkscape:collect="always"
       xlink:href="#linearGradient3935"
       id="linearGradient4180"
       gradientUnits="userSpaceOnUse"
       x1="25"
       y1="3"
       x2="25"
       y2="42" />
    <linearGradient
       y2="42"
       x2="25"
       y1="0"
       x1="25"
       gradientUnits="userSpaceOnUse"
       id="linearGradient3945"
       xlink:href="#linearGradient3935-2"
       inkscape:collect="always" />
    <linearGradient
       id="linearGradient3935-2">
      <stop
         style="stop-color:#676767;stop-opacity:1;"
         offset="0"
         id="stop3937-1" />
      <stop
         style="stop-color:#696969;stop-opacity:1;"
         offset="1"
         id="stop3941-6" />
    </linearGradient>
    <linearGradient
       inkscape:collect="always"
       xlink:href="#linearGradient3886"
       id="linearGradient4009"
       x1="28"
       y1="28"
       x2="19"
       y2="33"
       gradientUnits="userSpaceOnUse" />
    <linearGradient
       inkscape:collect="always"
       xlink:href="#linearGradient4290"
       id="linearGradient4465"
       x1="403.57144"
       y1="541.79797"
       x2="403.57144"
       y2="531.79797"
       gradientUnits="userSpaceOnUse"
       gradientTransform="translate(-2.5000117,0)" />
    <linearGradient
       id="linearGradient4290"
       inkscape:collect="always">
      <stop
         id="stop4292"
         offset="0"
         style="stop-color:#7cbaf8;stop-opacity:1" />
      <stop
         id="stop4294"
         offset="1"
         style="stop-color:#f4fcff;stop-opacity:1" />
    </linearGradient>
  </defs>
  <sodipodi:namedview
     id="base"
     pagecolor="#ffffff"
     bordercolor="#666666"
     borderopacity="1.0"
     inkscape:pageopacity="0.0"
     inkscape:pageshadow="2"
     inkscape:zoom="8.0000004"
     inkscape:cx="4.0408375"
     inkscape:cy="31.056076"
     inkscape:current-layer="layer1"
     showgrid="true"
     inkscape:grid-bbox="true"
     inkscape:document-units="px"
     showguides="true"
     inkscape:guide-bbox="true"
     inkscape:window-width="1366"
     inkscape:window-height="698"
     inkscape:window-x="-4"
     inkscape:window-y="-5"
     inkscape:window-maximized="1"
     inkscape:snap-global="true">
    <inkscape:grid
       type="xygrid"
       id="grid3047" />
    <sodipodi:guide
       orientation="1,0"
       position="3,4"
       id="guide3051" />
    <sodipodi:guide
       orientation="1,0"
       position="45,4"
       id="guide3053" />
    <sodipodi:guide
       orientation="0,1"
       position="-2,45"
       id="guide3055" />
    <sodipodi:guide
       orientation="0,1"
       position="2,3"
       id="guide3057" />
    <sodipodi:guide
       orientation="1,0"
       position="24,31"
       id="guide3059" />
    <sodipodi:guide
       orientation="0,1"
       position="10,24"
       id="guide3061" />
    <sodipodi:guide
       orientation="0,1"
       position="51,42"
       id="guide3058" />
    <sodipodi:guide
       orientation="0,1"
       position="52,6"
       id="guide3060" />
  </sodipodi:namedview>
  <metadata
     id="metadata3044">
    <rdf:RDF>
      <cc:Work
         rdf:about="">
        <dc:format>image/svg+xml</dc:format>
        <dc:type
           rdf:resource="http://purl.org/dc/dcmitype/StillImage" />
        <dc:title></dc:title>
      </cc:Work>
    </rdf:RDF>
  </metadata>
  <g
     id="layer1"
     inkscape:label="Layer 1"
     inkscape:groupmode="layer">
    <rect
       style="fill:#333333;fill-opacity:1;stroke:none"
       id="rect3110"
       width="7"
       height="2"
       x="6"
       y="9"
       rx="0"
       ry="0.93370873" />
    <rect
       style="fill:#333333;fill-opacity:1;stroke:none"
       id="rect3112"
       width="11"
       height="3"
       x="14"
       y="8"
       rx="0"
       ry="0.93370873" />
    <rect
       ry="0.93370873"
       rx="0"
       y="9"
       x="23"
       height="2"
       width="6"
       id="rect3114"
       style="fill:#333333;fill-opacity:1;stroke:none" />
    <path
       style="fill:#1a1a1a;fill-opacity:1;stroke:none"
       d="M 4.9090909,10 43.090909,10 C 43.090909,10 45,10 45,10.9375 L 45,30 l 0,1 0,1 0,1 0,5.0625 C 45,39 43.090909,39 43.090909,39 L 4.9090909,39 C 4.9090909,39 3,39 3,38 L 3,33 3,32 3,31 3,30 3,11 c 0,-1 1.9090909,-1 1.9090909,-1 z"
       id="rect3056"
       inkscape:connector-curvature="0"
       sodipodi:nodetypes="ccsccccsccsccccsc" />
    <g
       id="g4214"
       transform="translate(-92.993284,0)"
       style="fill:url(#linearGradient4245);fill-opacity:1" />
    <rect
       style="fill:#b3b3b3;fill-opacity:1;stroke:none"
       id="rect3079"
       width="25"
       height="25"
       x="17"
       y="12"
       ry="12.5"
       rx="12.5" />
    <rect
       rx="11"
       ry="11.5"
       y="13"
       x="18"
       height="23"
       width="23"
       id="rect3081"
       style="fill:#666666;fill-opacity:1;stroke:none" />
    <rect
       style="fill:#808080;fill-opacity:1;stroke:none"
       id="rect3083"
       width="21"
       height="21"
       x="19"
       y="14"
       ry="11.5"
       rx="11" />
    <rect
       rx="11"
       ry="11.5"
       y="16"
       x="21"
       height="17"
       width="17"
       id="rect3085"
       style="fill:#4d4d4d;fill-opacity:1;stroke:none" />
    <rect
       style="fill:#333333;fill-opacity:1;stroke:none"
       id="rect3087"
       width="9"
       height="9"
       x="25"
       y="20"
       ry="11.5"
       rx="11" />
    <rect
       rx="11"
       ry="11.5"
       y="23"
       x="28"
       height="3"
       width="3"
       id="rect3089"
       style="fill:#1a1a1a;fill-opacity:1;stroke:none" />
    <path
       sodipodi:type="arc"
       style="fill:#b3b3b3;fill-opacity:1;stroke:none"
       id="path3116"
       sodipodi:cx="9.5"
       sodipodi:cy="25.5"
       sodipodi:rx="0.5"
       sodipodi:ry="0.5"
       d="m 10,25.5 a 0.5,0.5 0 1 1 -1,0 0.5,0.5 0 1 1 1,0 z" />
    <path
       sodipodi:type="arc"
       style="fill:#b3b3b3;fill-opacity:1;stroke:none"
       id="path3118"
       sodipodi:cx="9.5"
       sodipodi:cy="27.5"
       sodipodi:rx="0.5"
       sodipodi:ry="0.5"
       d="m 10,27.5 a 0.5,0.5 0 1 1 -1,0 0.5,0.5 0 1 1 1,0 z" />
    <path
       sodipodi:type="arc"
       style="fill:#b3b3b3;fill-opacity:1;stroke:none"
       id="path3120"
       sodipodi:cx="9.5"
       sodipodi:cy="29.5"
       sodipodi:rx="0.5"
       sodipodi:ry="0.5"
       d="m 10,29.5 a 0.5,0.5 0 1 1 -1,0 0.5,0.5 0 1 1 1,0 z" />
    <path
       sodipodi:type="arc"
       style="fill:#b3b3b3;fill-opacity:1;stroke:none"
       id="path3122"
       sodipodi:cx="9.5"
       sodipodi:cy="31.5"
       sodipodi:rx="0.5"
       sodipodi:ry="0.5"
       d="m 10,31.5 a 0.5,0.5 0 1 1 -1,0 0.5,0.5 0 1 1 1,0 z" />
    <path
       sodipodi:type="arc"
       style="fill:#b3b3b3;fill-opacity:1;stroke:none"
       id="path3124"
       sodipodi:cx="12.5"
       sodipodi:cy="25.5"
       sodipodi:rx="0.5"
       sodipodi:ry="0.5"
       d="m 13,25.5 a 0.5,0.5 0 1 1 -1,0 0.5,0.5 0 1 1 1,0 z" />
    <path
       sodipodi:type="arc"
       style="fill:#b3b3b3;fill-opacity:1;stroke:none"
       id="path3126"
       sodipodi:cx="12.5"
       sodipodi:cy="27.5"
       sodipodi:rx="0.5"
       sodipodi:ry="0.5"
       d="m 13,27.5 a 0.5,0.5 0 1 1 -1,0 0.5,0.5 0 1 1 1,0 z" />
    <path
       sodipodi:type="arc"
       style="fill:#b3b3b3;fill-opacity:1;stroke:none"
       id="path3128"
       sodipodi:cx="12.5"
       sodipodi:cy="29.5"
       sodipodi:rx="0.5"
       sodipodi:ry="0.5"
       d="m 13,29.5 a 0.5,0.5 0 1 1 -1,0 0.5,0.5 0 1 1 1,0 z" />
    <path
       sodipodi:type="arc"
       style="fill:#b3b3b3;fill-opacity:1;stroke:none"
       id="path3130"
       sodipodi:cx="12.5"
       sodipodi:cy="31.5"
       sodipodi:rx="0.5"
       sodipodi:ry="0.5"
       d="m 13,31.5 a 0.5,0.5 0 1 1 -1,0 0.5,0.5 0 1 1 1,0 z" />
    <path
       inkscape:connector-curvature="0"
       id="path3097"
       style="fill:#266eda;fill-opacity:1;stroke:none;stroke-width:0.09366140000000001;stroke-miterlimit:4;stroke-opacity:1;stroke-dasharray:none"
       d="m 10.429528,12.020869 -1.0412287,0.100123 0,4.289502 1.0301027,-0.155738 0,-1.828823 1.386077,2.029057 1.085726,-0.34485 -1.419452,-1.951195 1.430576,-1.839946 -1.107974,-0.253634 -1.374953,1.839948 0.01115,-1.884444 z m -2.3605623,1.045676 c -0.011772,0.0012 -0.024511,0.0044 -0.033371,0.01336 l -0.4093724,0.409372 c -0.017196,0.01725 -0.019295,0.04364 -0.00665,0.06453 l 0.4783411,0.789822 c -0.08493,0.142774 -0.1539038,0.295934 -0.2024589,0.458314 L 7.016641,14.984377 c -0.024455,0.005 -0.042269,0.02834 -0.042269,0.05339 l 0,0.578459 c 0,0.02446 0.018601,0.04541 0.042269,0.05118 l 0.8521163,0.206909 c 0.045566,0.187991 0.1159601,0.367885 0.2091347,0.531738 l -0.493914,0.751995 c -0.013787,0.021 -0.011088,0.04902 0.00665,0.06674 L 8,17.634167 c 0.017243,0.01719 0.043693,0.01935 0.064523,0.0066 l 0.7742463,-0.46944 c 0.1518579,0.08767 0.316268,0.157908 0.4894662,0.204685 l 0.1802122,0.867692 c 0.00507,0.02452 0.02613,0.04228 0.051184,0.04228 l 0.5784583,0 c 0.02428,0 0.04541,-0.0163 0.05117,-0.04004 L 10.402845,17.3738 c 0.178628,-0.04816 0.34704,-0.119665 0.502815,-0.21136 l 0.763122,0.500593 c 0.02103,0.0137 0.04891,0.01102 0.06675,-0.0066 l 0.407139,-0.409369 c 0.0173,-0.01727 0.02157,-0.04369 0.0088,-0.06453 l -0.278106,-0.458315 -0.09121,0.02892 c -0.01316,0.004 -0.02776,-0.002 -0.03559,-0.01336 0,0 -0.175676,-0.258424 -0.404923,-0.594034 -0.274169,0.536487 -0.833304,0.903285 -1.4772957,0.903285 -0.9151011,0 -1.6575102,-0.742406 -1.6575102,-1.657509 0,-0.673124 0.4025221,-1.25127 0.9789321,-1.510668 l 0,-0.42717 c -0.1049063,0.03671 -0.2062517,0.08101 -0.3025796,0.133492 -2.492e-4,-4.1e-5 2.49e-4,-0.0022 0,-0.0022 L 8.1023401,13.073274 c -0.010502,-0.0068 -0.021598,-0.0079 -0.033371,-0.0066 z" />
    <path
       style="fill:#b3b3b3;fill-opacity:1;stroke:none"
       d="M 3 38 C 3 39 4.90625 39 4.90625 39 L 43.09375 39 C 43.09375 39 45 39 45 38.0625 L 45 38 L 3 38 z "
       id="path3149" />
  </g>
</svg>
