<?xml version="1.0" encoding="UTF-8" standalone="no"?>
<!-- Created with Inkscape (http://www.inkscape.org/) -->

<svg
   xmlns:dc="http://purl.org/dc/elements/1.1/"
   xmlns:cc="http://creativecommons.org/ns#"
   xmlns:rdf="http://www.w3.org/1999/02/22-rdf-syntax-ns#"
   xmlns:svg="http://www.w3.org/2000/svg"
   xmlns="http://www.w3.org/2000/svg"
   xmlns:xlink="http://www.w3.org/1999/xlink"
   xmlns:sodipodi="http://sodipodi.sourceforge.net/DTD/sodipodi-0.dtd"
   xmlns:inkscape="http://www.inkscape.org/namespaces/inkscape"
   width="48"
   height="48"
   id="svg5453"
   version="1.1"
   inkscape:version="0.48.5 r10040"
   sodipodi:docname="steam.svg">
  <defs
     id="defs5455">
    <linearGradient
       id="linearGradient4401">
      <stop
         style="stop-color:#4a75bd;stop-opacity:1;"
         offset="0"
         id="stop4403" />
      <stop
         style="stop-color:#5681c9;stop-opacity:1;"
         offset="1"
         id="stop4405" />
    </linearGradient>
    <linearGradient
       inkscape:collect="always"
       xlink:href="#linearGradient3886-5"
       id="linearGradient3940"
       x1="28.611565"
       y1="-6.3817163"
       x2="22.993282"
       y2="45.176777"
       gradientUnits="userSpaceOnUse"
       gradientTransform="translate(0.006717,3.1e-7)" />
    <linearGradient
       id="linearGradient3886-5">
      <stop
         style="stop-color:#e7e7e7;stop-opacity:1;"
         offset="0"
         id="stop3888-9" />
      <stop
         style="stop-color:#939393;stop-opacity:1;"
         offset="1"
         id="stop3890-3" />
    </linearGradient>
    <linearGradient
       inkscape:collect="always"
       xlink:href="#linearGradient4159"
       id="linearGradient4388"
       x1="25"
       y1="34"
       x2="25"
       y2="13.999974"
       gradientUnits="userSpaceOnUse"
       gradientTransform="matrix(2,0,0,2,360.57143,475.798)" />
    <linearGradient
       inkscape:collect="always"
       id="linearGradient4159">
      <stop
         style="stop-color:#2a2c2f;stop-opacity:1"
         offset="0"
         id="stop4161" />
      <stop
         style="stop-color:#424649;stop-opacity:1"
         offset="1"
         id="stop4163" />
    </linearGradient>
    <linearGradient
       inkscape:collect="always"
       xlink:href="#linearGradient4145"
       id="linearGradient4035"
       x1="25"
       y1="-7"
       x2="25"
       y2="48"
       gradientUnits="userSpaceOnUse" />
    <linearGradient
       id="linearGradient4145">
      <stop
         id="stop4147"
         offset="0"
         style="stop-color:#a0a0a0;stop-opacity:1;" />
      <stop
         id="stop4149"
         offset="1"
         style="stop-color:#202020;stop-opacity:1;" />
    </linearGradient>
    <radialGradient
       inkscape:collect="always"
       xlink:href="#linearGradient4169"
       id="radialGradient4295"
       cx="44.192783"
       cy="25.761047"
       fx="44.192783"
       fy="25.761047"
       r="21.006716"
       gradientTransform="translate(0,-4.7400131e-6)"
       gradientUnits="userSpaceOnUse" />
    <linearGradient
       id="linearGradient4169">
      <stop
         id="stop4171"
         offset="0"
         style="stop-color:#f9f9f9;stop-opacity:1;" />
      <stop
         style="stop-color:#c4c4c4;stop-opacity:1;"
         offset="0.71567649"
         id="stop4175" />
      <stop
         id="stop4173"
         offset="1"
         style="stop-color:#565656;stop-opacity:1;" />
    </linearGradient>
    <radialGradient
       inkscape:collect="always"
       xlink:href="#linearGradient3824"
       id="radialGradient4297"
       gradientUnits="userSpaceOnUse"
       gradientTransform="matrix(1.3256825,0,0,1.2576986,-8.7914242,-6.1980217)"
       cx="27.388144"
       cy="23.039351"
       fx="27.388144"
       fy="23.039351"
       r="21.006716" />
    <linearGradient
       id="linearGradient3824">
      <stop
         style="stop-color:#ebebeb;stop-opacity:1;"
         offset="0"
         id="stop3826" />
      <stop
         style="stop-color:#bebebe;stop-opacity:1;"
         offset="1"
         id="stop3830" />
    </linearGradient>
    <radialGradient
       r="21.006716"
       fy="23.039351"
       fx="27.388144"
       cy="23.039351"
       cx="27.388144"
       gradientTransform="matrix(1.3256825,0,0,1.2576986,-8.7914242,-6.1980217)"
       gradientUnits="userSpaceOnUse"
       id="radialGradient3129"
       xlink:href="#linearGradient3824"
       inkscape:collect="always" />
  </defs>
  <sodipodi:namedview
     id="base"
     pagecolor="#ffffff"
     bordercolor="#666666"
     borderopacity="1.0"
     inkscape:pageopacity="0"
     inkscape:pageshadow="2"
     inkscape:zoom="8.0000001"
     inkscape:cx="9.6249492"
     inkscape:cy="35.917932"
     inkscape:document-units="px"
     inkscape:current-layer="layer1"
     showgrid="true"
     fit-margin-top="0"
     fit-margin-left="0"
     fit-margin-right="0"
     fit-margin-bottom="0"
     inkscape:window-width="1366"
     inkscape:window-height="698"
     inkscape:window-x="-4"
     inkscape:window-y="-5"
     inkscape:window-maximized="1"
     inkscape:showpageshadow="false"
     borderlayer="true"
     showguides="true">
    <inkscape:grid
       type="xygrid"
       id="grid4063" />
    <sodipodi:guide
       position="1.1650391e-05,47.999996"
       orientation="4,0"
       id="guide4146" />
    <sodipodi:guide
       position="1.1650391e-05,43.999996"
       orientation="0,48"
       id="guide4148" />
    <sodipodi:guide
       position="48.000012,43.999996"
       orientation="-4,0"
       id="guide4150" />
    <sodipodi:guide
       position="48.000012,47.999996"
       orientation="0,-48"
       id="guide4152" />
    <sodipodi:guide
       position="1.1650391e-05,4.0000264"
       orientation="4,0"
       id="guide4154" />
    <sodipodi:guide
       position="1.1650391e-05,2.6367188e-05"
       orientation="0,48"
       id="guide4156" />
    <sodipodi:guide
       position="48.000012,2.6367188e-05"
       orientation="-4,0"
       id="guide4158" />
    <sodipodi:guide
       position="48.000012,4.0000264"
       orientation="0,-48"
       id="guide4160" />
    <sodipodi:guide
       position="48.000012,48.000026"
       orientation="0,-4"
       id="guide4162" />
    <sodipodi:guide
       position="44.000012,48.000026"
       orientation="48,0"
       id="guide4164" />
    <sodipodi:guide
       position="44.000012,2.6367188e-05"
       orientation="0,4"
       id="guide4166" />
    <sodipodi:guide
       position="48.000012,2.6367188e-05"
       orientation="-48,0"
       id="guide4168" />
    <sodipodi:guide
       position="4.0000422,48.000026"
       orientation="0,-4"
       id="guide4170" />
    <sodipodi:guide
       position="4.2167969e-05,48.000026"
       orientation="48,0"
       id="guide4172" />
    <sodipodi:guide
       position="4.2167969e-05,2.6367188e-05"
       orientation="0,4"
       id="guide4174" />
    <sodipodi:guide
       position="4.0000422,2.6367188e-05"
       orientation="-48,0"
       id="guide4176" />
  </sodipodi:namedview>
  <metadata
     id="metadata5458">
    <rdf:RDF>
      <cc:Work
         rdf:about="">
        <dc:format>image/svg+xml</dc:format>
        <dc:type
           rdf:resource="http://purl.org/dc/dcmitype/StillImage" />
        <dc:title />
      </cc:Work>
    </rdf:RDF>
  </metadata>
  <g
     inkscape:label="Capa 1"
     inkscape:groupmode="layer"
     id="layer1"
     transform="translate(-384.57143,-499.798)">
    <g
       id="g3033">
      <g
         id="g3842">
        <path
           style="fill:#666666;fill-opacity:1;stroke:none"
           d="m 408.57143,502.78457 c -11.60169,0 -21.00672,9.40503 -21.00672,21.00672 0,11.60168 9.40503,21.00671 21.00672,21.00671 11.60169,0 21.00672,-9.40503 21.00672,-21.00671 0,-11.60169 -9.40503,-21.00672 -21.00672,-21.00672 z m 0,3.31685 c 9.76984,0 17.68986,7.92002 17.68986,17.68987 0,9.76984 -7.92002,17.68985 -17.68986,17.68985 -9.76985,0 -17.68987,-7.92002 -17.68987,-17.68985 0,-9.76986 7.92002,-17.68987 17.68987,-17.68987 z"
           id="path4080-7-8"
           inkscape:connector-curvature="0" />
        <path
           style="fill:#e6e6e6;fill-opacity:1;stroke:none"
           d="m 408.57143,503.79801 c -11.04569,0 -20,8.9543 -20,19.99999 0,11.04568 8.95431,19.99997 20,19.99997 11.04569,0 20,-8.95429 20,-19.99997 0,-11.04569 -8.95431,-19.99999 -20,-19.99999 z"
           id="path4080-7"
           inkscape:connector-curvature="0"
           sodipodi:nodetypes="sssss" />
      </g>
      <path
         sodipodi:nodetypes="sccsccccsccssssssssssssssscccccs"
         inkscape:connector-curvature="0"
         id="rect4281"
         d="m 416.38393,511.57925 c -3.907,0 -7.0583,3.16366 -7.09375,7.0625 l -4.4375,6.34375 c -0.18057,-0.0181 -0.37709,-0.0312 -0.5625,-0.0312 -0.99059,0 -1.92356,0.2748 -2.71875,0.75 l -9.0625,-3.65625 0,6.71875 6.59375,2.625 c 0.51952,2.38783 2.64771,4.1875 5.1875,4.1875 2.751,0 5.01833,-2.09742 5.28125,-4.78125 l 6.8125,-5 c 3.92821,0 7.125,-3.16659 7.125,-7.09375 0,-3.92935 -3.19645,-7.125 -7.125,-7.125 z m 0,2.34375 c 2.63201,0 4.78125,2.14921 4.78125,4.78125 -1e-5,2.63216 -2.14924,4.75 -4.78125,4.75 -2.63203,0 -4.75,-2.11784 -4.75,-4.75 0,-2.63204 2.11797,-4.78125 4.75,-4.78125 z m 0.0312,0.9375 c -2.10345,0 -3.8125,1.70896 -3.8125,3.8125 0,2.10346 1.70905,3.8125 3.8125,3.8125 2.10353,0 3.8125,-1.70904 3.8125,-3.8125 0,-2.10354 -1.70897,-3.8125 -3.8125,-3.8125 z m -12.125,11.5 c 2.16528,0 3.90625,1.7409 3.90625,3.90625 -2e-5,2.16523 -1.74097,3.90625 -3.90625,3.90625 -1.50614,0 -2.78515,-0.8523 -3.4375,-2.09375 0.64235,0.25922 1.26468,0.52024 1.90625,0.78125 1.59205,0.63978 3.42254,-0.12637 4.0625,-1.71875 0.63993,-1.59202 -0.15765,-3.39157 -1.75,-4.03125 l -1.625,-0.65625 c 0.27109,-0.0585 0.55435,-0.0937 0.84375,-0.0937 z"
         style="fill:#4d4d4d;fill-opacity:1;stroke:none" />
    </g>
    <g
       transform="matrix(0.90447265,0,0,0.90447246,421.23983,506.26633)"
       id="g4231"
       style="fill:url(#radialGradient4295);fill-opacity:1" />
    <g
       id="g3039">
      <g
         id="g3041">
        <path
           inkscape:connector-curvature="0"
           id="path3043"
           d="m 408.57143,502.78457 c -11.60169,0 -21.00672,9.40503 -21.00672,21.00672 0,11.60168 9.40503,21.00671 21.00672,21.00671 11.60169,0 21.00672,-9.40503 21.00672,-21.00671 0,-11.60169 -9.40503,-21.00672 -21.00672,-21.00672 z m 0,3.31685 c 9.76984,0 17.68986,7.92002 17.68986,17.68987 0,9.76984 -7.92002,17.68985 -17.68986,17.68985 -9.76985,0 -17.68987,-7.92002 -17.68987,-17.68985 0,-9.76986 7.92002,-17.68987 17.68987,-17.68987 z"
           style="fill:#b3b3b3;fill-opacity:1;stroke:none" />
        <path
           sodipodi:nodetypes="sssss"
           inkscape:connector-curvature="0"
           id="path3045"
           d="m 408.57143,503.79801 c -11.04569,0 -20,8.9543 -20,19.99999 0,11.04568 8.95431,19.99997 20,19.99997 11.04569,0 20,-8.95429 20,-19.99997 0,-11.04569 -8.95431,-19.99999 -20,-19.99999 z"
           style="fill:#b3b3b3;fill-opacity:1;stroke:none" />
      </g>
      <path
         style="fill:#1a1a1a;fill-opacity:1;stroke:none"
         d="m 416.38393,511.57925 c -3.907,0 -7.0583,3.16366 -7.09375,7.0625 l -4.4375,6.34375 c -0.18057,-0.0181 -0.37709,-0.0312 -0.5625,-0.0312 -0.99059,0 -1.92356,0.2748 -2.71875,0.75 l -9.0625,-3.65625 0,6.71875 6.59375,2.625 c 0.51952,2.38783 2.64771,4.1875 5.1875,4.1875 2.751,0 5.01833,-2.09742 5.28125,-4.78125 l 6.8125,-5 c 3.92821,0 7.125,-3.16659 7.125,-7.09375 0,-3.92935 -3.19645,-7.125 -7.125,-7.125 z m 0,2.34375 c 2.63201,0 4.78125,2.14921 4.78125,4.78125 -1e-5,2.63216 -2.14924,4.75 -4.78125,4.75 -2.63203,0 -4.75,-2.11784 -4.75,-4.75 0,-2.63204 2.11797,-4.78125 4.75,-4.78125 z m 0.0312,0.9375 c -2.10345,0 -3.8125,1.70896 -3.8125,3.8125 0,2.10346 1.70905,3.8125 3.8125,3.8125 2.10353,0 3.8125,-1.70904 3.8125,-3.8125 0,-2.10354 -1.70897,-3.8125 -3.8125,-3.8125 z m -12.125,11.5 c 2.16528,0 3.90625,1.7409 3.90625,3.90625 -2e-5,2.16523 -1.74097,3.90625 -3.90625,3.90625 -1.50614,0 -2.78515,-0.8523 -3.4375,-2.09375 0.64235,0.25922 1.26468,0.52024 1.90625,0.78125 1.59205,0.63978 3.42254,-0.12637 4.0625,-1.71875 0.63993,-1.59202 -0.15765,-3.39157 -1.75,-4.03125 l -1.625,-0.65625 c 0.27109,-0.0585 0.55435,-0.0937 0.84375,-0.0937 z"
         id="path3047"
         inkscape:connector-curvature="0"
         sodipodi:nodetypes="sccsccccsccssssssssssssssscccccs" />
    </g>
  </g>
</svg>
