<?xml version="1.0" encoding="UTF-8" standalone="no"?>
<!-- Created with Inkscape (http://www.inkscape.org/) -->

<svg
   xmlns:dc="http://purl.org/dc/elements/1.1/"
   xmlns:cc="http://creativecommons.org/ns#"
   xmlns:rdf="http://www.w3.org/1999/02/22-rdf-syntax-ns#"
   xmlns:svg="http://www.w3.org/2000/svg"
   xmlns="http://www.w3.org/2000/svg"
   xmlns:xlink="http://www.w3.org/1999/xlink"
   xmlns:sodipodi="http://sodipodi.sourceforge.net/DTD/sodipodi-0.dtd"
   xmlns:inkscape="http://www.inkscape.org/namespaces/inkscape"
   width="48px"
   height="48px"
   id="svg3039"
   version="1.1"
   inkscape:version="0.48.5 r10040"
   sodipodi:docname="usb-creator-kde.svg">
  <defs
     id="defs3041">
    <linearGradient
       id="linearGradient4044">
      <stop
         id="stop4046"
         offset="0"
         style="stop-color:#7a7a7a;stop-opacity:1" />
      <stop
         id="stop4048"
         offset="1"
         style="stop-color:#646464;stop-opacity:1" />
    </linearGradient>
    <linearGradient
       id="linearGradient3840">
      <stop
         style="stop-color:#f9f9f9;stop-opacity:1;"
         offset="0"
         id="stop3844" />
      <stop
         id="stop3846"
         offset="1"
         style="stop-color:#a1a1a1;stop-opacity:1;" />
    </linearGradient>
    <linearGradient
       id="linearGradient3935">
      <stop
         style="stop-color:#969696;stop-opacity:1;"
         offset="0"
         id="stop3937" />
      <stop
         style="stop-color:#2b2b2b;stop-opacity:1;"
         offset="1"
         id="stop3941" />
    </linearGradient>
    <linearGradient
       id="linearGradient4279">
      <stop
         id="stop4283"
         offset="0"
         style="stop-color:#c4c4c4;stop-opacity:1;" />
      <stop
         style="stop-color:#8d8d8d;stop-opacity:1;"
         offset="1"
         id="stop3850" />
    </linearGradient>
    <linearGradient
       id="linearGradient4239">
      <stop
         style="stop-color:#505050;stop-opacity:1;"
         offset="0"
         id="stop4241" />
      <stop
         style="stop-color:#ffffff;stop-opacity:0.15422885;"
         offset="1"
         id="stop4243" />
    </linearGradient>
    <linearGradient
       id="linearGradient4223">
      <stop
         id="stop4227"
         offset="0"
         style="stop-color:#e9e9e9;stop-opacity:0;" />
      <stop
         style="stop-color:#929292;stop-opacity:1"
         offset="1"
         id="stop4229" />
    </linearGradient>
    <linearGradient
       id="linearGradient4169">
      <stop
         id="stop4171"
         offset="0"
         style="stop-color:#ffe170;stop-opacity:1;" />
      <stop
         style="stop-color:#ffb36b;stop-opacity:1;"
         offset="1"
         id="stop4175" />
    </linearGradient>
    <linearGradient
       id="linearGradient4153">
      <stop
         style="stop-color:#ffffff;stop-opacity:1;"
         offset="0"
         id="stop4155" />
      <stop
         style="stop-color:#000000;stop-opacity:1;"
         offset="1"
         id="stop4157" />
    </linearGradient>
    <linearGradient
       id="linearGradient4145">
      <stop
         id="stop4147"
         offset="0"
         style="stop-color:#9d9d9d;stop-opacity:1;" />
      <stop
         id="stop4149"
         offset="1"
         style="stop-color:#828282;stop-opacity:1;" />
    </linearGradient>
    <linearGradient
       id="linearGradient4048">
      <stop
         style="stop-color:#e0e0e0;stop-opacity:1;"
         offset="0"
         id="stop4299" />
      <stop
         style="stop-color:#818181;stop-opacity:1;"
         offset="0.86432886"
         id="stop4056" />
      <stop
         id="stop4305"
         offset="0.89051455"
         style="stop-color:#606060;stop-opacity:1" />
      <stop
         style="stop-color:#575757;stop-opacity:1"
         offset="0.95148641"
         id="stop4307" />
      <stop
         id="stop4309"
         offset="0.96247357"
         style="stop-color:#565656;stop-opacity:1;" />
      <stop
         id="stop4054"
         offset="1"
         style="stop-color:#aaaaaa;stop-opacity:1" />
    </linearGradient>
    <linearGradient
       id="linearGradient3886">
      <stop
         style="stop-color:#f9f9f9;stop-opacity:1;"
         offset="0"
         id="stop3888" />
      <stop
         style="stop-color:#afafaf;stop-opacity:1;"
         offset="1"
         id="stop3890" />
    </linearGradient>
    <linearGradient
       id="linearGradient3839">
      <stop
         style="stop-color:#4d7ebe;stop-opacity:1;"
         offset="0"
         id="stop3842" />
      <stop
         style="stop-color:#3b67c0;stop-opacity:1;"
         offset="1"
         id="stop3843" />
    </linearGradient>
    <linearGradient
       y2="17"
       x2="40"
       y1="31"
       x1="54"
       gradientTransform="matrix(0,-1,-1,0,71,73)"
       gradientUnits="userSpaceOnUse"
       id="linearGradient3029"
       xlink:href="#linearGradient4410"
       inkscape:collect="always" />
    <linearGradient
       inkscape:collect="always"
       id="linearGradient4410">
      <stop
         style="stop-color:#383e51;stop-opacity:1"
         offset="0"
         id="stop4412" />
      <stop
         style="stop-color:#655c6f;stop-opacity:0"
         offset="1"
         id="stop4414" />
    </linearGradient>
    <linearGradient
       y2="17"
       x2="40"
       y1="31"
       x1="54"
       gradientTransform="matrix(0,-1,1,0,4,78)"
       gradientUnits="userSpaceOnUse"
       id="linearGradient3028-7"
       xlink:href="#linearGradient4410-0"
       inkscape:collect="always" />
    <linearGradient
       inkscape:collect="always"
       id="linearGradient4410-0">
      <stop
         style="stop-color:#383e51;stop-opacity:1"
         offset="0"
         id="stop4412-9" />
      <stop
         style="stop-color:#655c6f;stop-opacity:0"
         offset="1"
         id="stop4414-1" />
    </linearGradient>
    <radialGradient
       inkscape:collect="always"
       xlink:href="#linearGradient3886-5"
       id="radialGradient3892-5"
       cx="24.061937"
       cy="23.872463"
       fx="24.061937"
       fy="23.872463"
       r="17.025761"
       gradientTransform="matrix(1,0,0,0.99900396,0,0.02377793)"
       gradientUnits="userSpaceOnUse" />
    <linearGradient
       id="linearGradient3886-5">
      <stop
         style="stop-color:#dad7d7;stop-opacity:1;"
         offset="0"
         id="stop3888-9" />
      <stop
         style="stop-color:#b5b5b5;stop-opacity:1;"
         offset="1"
         id="stop3890-3" />
    </linearGradient>
    <radialGradient
       inkscape:collect="always"
       xlink:href="#linearGradient4169-1"
       id="radialGradient4099-4"
       cx="26.5"
       cy="23.5"
       fx="26.5"
       fy="23.5"
       r="19.5"
       gradientTransform="matrix(0.9473684,0,0,0.79892039,1.3947374,4.725371)"
       gradientUnits="userSpaceOnUse" />
    <linearGradient
       id="linearGradient4169-1">
      <stop
         id="stop4171-2"
         offset="0"
         style="stop-color:#f9f9f9;stop-opacity:1;" />
      <stop
         style="stop-color:#c4c4c4;stop-opacity:1;"
         offset="0.76923078"
         id="stop4175-4" />
      <stop
         id="stop4173-4"
         offset="1"
         style="stop-color:#565656;stop-opacity:1;" />
    </linearGradient>
    <linearGradient
       inkscape:collect="always"
       xlink:href="#linearGradient4239"
       id="linearGradient4245"
       x1="44"
       y1="28.00672"
       x2="57.993282"
       y2="13"
       gradientUnits="userSpaceOnUse" />
    <linearGradient
       inkscape:collect="always"
       xlink:href="#linearGradient4223"
       id="linearGradient4249"
       x1="24.643452"
       y1="23.494081"
       x2="39.495842"
       y2="9.4033527"
       gradientUnits="userSpaceOnUse" />
    <radialGradient
       inkscape:collect="always"
       xlink:href="#linearGradient4169"
       id="radialGradient4295"
       cx="60.986568"
       cy="23.99328"
       fx="60.986568"
       fy="23.99328"
       r="21.006716"
       gradientTransform="translate(0,-4.7400131e-6)"
       gradientUnits="userSpaceOnUse" />
    <linearGradient
       inkscape:collect="always"
       xlink:href="#linearGradient3935"
       id="linearGradient3933"
       x1="25"
       y1="3"
       x2="25"
       y2="42"
       gradientUnits="userSpaceOnUse" />
    <linearGradient
       inkscape:collect="always"
       xlink:href="#linearGradient4410"
       id="linearGradient4040"
       gradientUnits="userSpaceOnUse"
       gradientTransform="matrix(0,-0.91040707,0.89132666,0,5.5948245,77.65501)"
       x1="61.132004"
       y1="25.136885"
       x2="36.251213"
       y2="11.920761" />
    <linearGradient
       inkscape:collect="always"
       xlink:href="#linearGradient3935"
       id="linearGradient4171"
       gradientUnits="userSpaceOnUse"
       x1="25"
       y1="3"
       x2="25"
       y2="42" />
    <linearGradient
       inkscape:collect="always"
       xlink:href="#linearGradient3935"
       id="linearGradient4174"
       gradientUnits="userSpaceOnUse"
       x1="25"
       y1="3"
       x2="25"
       y2="42" />
    <linearGradient
       inkscape:collect="always"
       xlink:href="#linearGradient3935"
       id="linearGradient4177"
       gradientUnits="userSpaceOnUse"
       x1="25"
       y1="3"
       x2="25"
       y2="42" />
    <linearGradient
       inkscape:collect="always"
       xlink:href="#linearGradient3935"
       id="linearGradient4180"
       gradientUnits="userSpaceOnUse"
       x1="25"
       y1="3"
       x2="25"
       y2="42" />
    <linearGradient
       y2="42"
       x2="25"
       y1="0"
       x1="25"
       gradientUnits="userSpaceOnUse"
       id="linearGradient3945"
       xlink:href="#linearGradient3935-2"
       inkscape:collect="always" />
    <linearGradient
       id="linearGradient3935-2">
      <stop
         style="stop-color:#676767;stop-opacity:1;"
         offset="0"
         id="stop3937-1" />
      <stop
         style="stop-color:#696969;stop-opacity:1;"
         offset="1"
         id="stop3941-6" />
    </linearGradient>
    <linearGradient
       inkscape:collect="always"
       xlink:href="#linearGradient3886"
       id="linearGradient4009"
       x1="28"
       y1="28"
       x2="19"
       y2="33"
       gradientUnits="userSpaceOnUse" />
  </defs>
  <sodipodi:namedview
     id="base"
     pagecolor="#ffffff"
     bordercolor="#666666"
     borderopacity="1.0"
     inkscape:pageopacity="0.0"
     inkscape:pageshadow="2"
     inkscape:zoom="5.6568545"
     inkscape:cx="15.451176"
     inkscape:cy="15.69489"
     inkscape:current-layer="layer1"
     showgrid="true"
     inkscape:grid-bbox="true"
     inkscape:document-units="px"
     showguides="true"
     inkscape:guide-bbox="true"
     inkscape:window-width="1366"
     inkscape:window-height="698"
     inkscape:window-x="-4"
     inkscape:window-y="-5"
     inkscape:window-maximized="1"
     inkscape:snap-global="true">
    <inkscape:grid
       type="xygrid"
       id="grid3047" />
    <sodipodi:guide
       orientation="1,0"
       position="3,4"
       id="guide3051" />
    <sodipodi:guide
       orientation="1,0"
       position="45,4"
       id="guide3053" />
    <sodipodi:guide
       orientation="0,1"
       position="-2,45"
       id="guide3055" />
    <sodipodi:guide
       orientation="0,1"
       position="2,3"
       id="guide3057" />
    <sodipodi:guide
       orientation="1,0"
       position="24,31"
       id="guide3059" />
    <sodipodi:guide
       orientation="0,1"
       position="10,24"
       id="guide3061" />
    <sodipodi:guide
       orientation="0,1"
       position="51,42"
       id="guide3058" />
    <sodipodi:guide
       orientation="0,1"
       position="52,6"
       id="guide3060" />
  </sodipodi:namedview>
  <metadata
     id="metadata3044">
    <rdf:RDF>
      <cc:Work
         rdf:about="">
        <dc:format>image/svg+xml</dc:format>
        <dc:type
           rdf:resource="http://purl.org/dc/dcmitype/StillImage" />
        <dc:title />
      </cc:Work>
    </rdf:RDF>
  </metadata>
  <g
     id="layer1"
     inkscape:label="Layer 1"
     inkscape:groupmode="layer">
    <rect
       ry="1"
       rx="1"
       y="6"
       x="17"
       height="8"
       width="14"
       id="rect3854"
       style="fill:#666666;fill-opacity:1;stroke:none" />
    <rect
       style="fill:#ffdd55;fill-opacity:1;stroke:none"
       id="rect3862"
       width="1"
       height="5"
       x="19"
       y="8"
       rx="0"
       ry="0" />
    <rect
       ry="0"
       rx="0"
       y="8"
       x="21"
       height="5"
       width="1"
       id="rect3880"
       style="fill:#ffdd55;fill-opacity:1;stroke:none" />
    <rect
       style="fill:#ffdd55;fill-opacity:1;stroke:none"
       id="rect3876"
       width="1"
       height="5"
       x="27"
       y="8"
       rx="0"
       ry="0" />
    <rect
       ry="0"
       rx="0"
       y="8"
       x="29"
       height="5"
       width="1"
       id="rect3872"
       style="fill:#ffdd55;fill-opacity:1;stroke:none" />
    <path
       style="fill:#b3b3b3;fill-opacity:1;stroke:#999999;stroke-width:0;stroke-linecap:square;stroke-miterlimit:4;stroke-opacity:1;stroke-dasharray:none"
       d="M 16 3 L 16 18 L 32 18 L 32 3 L 16 3 z M 19 9 L 21 9 C 21.554 9 22 9.446 22 10 L 22 11 C 22 11.554 21.554 12 21 12 L 19 12 C 18.446 12 18 11.554 18 11 L 18 10 C 18 9.446 18.446 9 19 9 z M 27 9 L 29 9 C 29.554 9 30 9.446 30 10 L 30 11 C 30 11.554 29.554 12 29 12 L 27 12 C 26.446 12 26 11.554 26 11 L 26 10 C 26 9.446 26.446 9 27 9 z "
       id="rect4160" />
    <path
       style="fill:#1a1a1a;fill-opacity:1;stroke:none"
       d="m 14.09375,16 19.8125,0 C 34.512188,16 35,16.418125 35,16.9375 L 35,36 l -1,0 0,1 1,0 0,7.0625 C 35,44.581875 34.512188,45 33.90625,45 l -19.8125,0 C 13.487813,45 13,44.581875 13,44.0625 L 13,37 l 1,0 0,-1 -1,0 0,-19.0625 C 13,16.418125 13.487813,16 14.09375,16 z"
       id="rect3056"
       inkscape:connector-curvature="0"
       sodipodi:nodetypes="sssccccssssccccss" />
    <g
       id="g4214"
       transform="translate(-92.993284,0)"
       style="fill:url(#linearGradient4245);fill-opacity:1" />
    <path
       style="opacity:0.65966384;fill:#ffffff;fill-opacity:0.67942583;stroke:none"
       d="m 15.002293,2.9870773 16.995828,0 L 32,3.4455279 15,3.4448802 z"
       id="path3141"
       inkscape:connector-curvature="0"
       sodipodi:nodetypes="ccccc" />
    <g
       id="g4023"
       transform="translate(0.25297086,-2)"
       style="fill:#cccccc">
      <g
         transform="translate(-0.25111186,0.38786411)"
         style="font-size:6px;font-style:normal;font-variant:normal;font-weight:600;font-stretch:normal;text-align:center;line-height:125%;letter-spacing:0px;word-spacing:0px;text-anchor:middle;fill:#cccccc;fill-opacity:0.18039216000000000;stroke:none;font-family:FreeSans;-inkscape-font-specification:FreeSans Semi-Bold"
         id="g4011" />
      <g
         id="text3967"
         style="font-size:6px;font-style:normal;font-variant:normal;font-weight:600;font-stretch:normal;text-align:center;line-height:125%;letter-spacing:0px;word-spacing:0px;text-anchor:middle;fill:#cccccc;fill-opacity:1;stroke:none;font-family:FreeSans;-inkscape-font-specification:FreeSans Semi-Bold">
        <path
           id="path3997"
           style="fill:#cccccc;fill-opacity:1"
           d="m 22.152141,30.012 c -0.160004,-0.467997 -0.508003,-0.701996 -1.044,-0.702 -0.380002,4e-6 -0.680002,0.134004 -0.9,0.402 -0.216002,0.268003 -0.324002,0.638003 -0.324,1.11 -2e-6,0.448002 0.115998,0.816001 0.348,1.104 0.235998,0.288001 0.535998,0.432001 0.9,0.432 0.056,1e-6 0.119997,-0.006 0.192,-0.018 0.076,-0.016 0.165997,-0.044 0.27,-0.084 0.103997,-0.044 0.199997,-0.1 0.288,-0.168 0.088,-0.068 0.165996,-0.161999 0.234,-0.282 0.068,-0.123999 0.109996,-0.263999 0.126,-0.42 l -0.996,0 0,-0.75 1.752,0 0,2.364 -0.54,0 -0.108,-0.576 c -0.168004,0.244 -0.356004,0.422 -0.564,0.534 -0.208003,0.112 -0.460003,0.168 -0.756,0.168 -0.592002,0 -1.082002,-0.216 -1.47,-0.648 -0.384001,-0.431999 -0.576001,-0.979998 -0.576,-1.644 -1e-6,-0.679997 0.195999,-1.231997 0.588,-1.656 0.391998,-0.423996 0.901998,-0.635996 1.53,-0.636 0.527997,4e-6 0.961996,0.132004 1.302,0.396 0.339996,0.264004 0.537995,0.622003 0.594,1.074 l -0.846,0"
           inkscape:connector-curvature="0" />
        <path
           id="path3999"
           style="fill:#cccccc;fill-opacity:1"
           d="m 24.621328,29.76 0,3.24 -0.84,0 0,-3.24 0.84,0 m 0,-1.134 0,0.75 -0.84,0 0,-0.75 0.84,0"
           inkscape:connector-curvature="0" />
        <path
           id="path4001"
           style="fill:#cccccc;fill-opacity:1"
           d="m 29.021109,31.74 c -4e-6,0.144001 -0.024,0.284001 -0.072,0.42 -0.048,0.136001 -0.126003,0.270001 -0.234,0.402 -0.104003,0.132 -0.262003,0.238 -0.474,0.318 -0.212003,0.08 -0.464002,0.12 -0.756,0.12 l -1.968,0 0,-4.374 1.95,0 c 0.271998,4e-6 0.505997,0.04 0.702,0.12 0.199997,0.08 0.347997,0.184004 0.444,0.312 0.1,0.124004 0.171997,0.246004 0.216,0.366 0.044,0.120003 0.066,0.238003 0.066,0.354 -3e-6,0.188003 -0.046,0.350003 -0.138,0.486 -0.092,0.136003 -0.246003,0.274002 -0.462,0.414 0.483997,0.284002 0.725996,0.638002 0.726,1.062 m -2.604,-2.364 0,0.99 0.978,0 c 0.423998,3e-6 0.635997,-0.163997 0.636,-0.492 -3e-6,-0.331997 -0.212002,-0.497996 -0.636,-0.498 l -0.978,0 m 0,1.74 0,1.134 1.074,0 c 0.443997,10e-7 0.665997,-0.187999 0.666,-0.564 -3e-6,-0.379998 -0.222003,-0.569998 -0.666,-0.57 l -1.074,0"
           inkscape:connector-curvature="0" />
      </g>
    </g>
    <rect
       style="fill:#000000;fill-opacity:0.18039216;stroke:none"
       id="rect4019"
       width="20"
       height="1"
       x="14"
       y="36"
       rx="0"
       ry="0.0625" />
  </g>
</svg>
