<?xml version="1.0" encoding="UTF-8" standalone="no"?>
<!-- Created with Inkscape (http://www.inkscape.org/) -->

<svg
   xmlns:dc="http://purl.org/dc/elements/1.1/"
   xmlns:cc="http://creativecommons.org/ns#"
   xmlns:rdf="http://www.w3.org/1999/02/22-rdf-syntax-ns#"
   xmlns:svg="http://www.w3.org/2000/svg"
   xmlns="http://www.w3.org/2000/svg"
   xmlns:xlink="http://www.w3.org/1999/xlink"
   xmlns:sodipodi="http://sodipodi.sourceforge.net/DTD/sodipodi-0.dtd"
   xmlns:inkscape="http://www.inkscape.org/namespaces/inkscape"
   width="48px"
   height="48px"
   id="svg3039"
   version="1.1"
   inkscape:version="0.48.5 r10040"
   sodipodi:docname="xcom.svg">
  <defs
     id="defs3041">
    <linearGradient
       id="linearGradient3985">
      <stop
         id="stop3987"
         offset="0"
         style="stop-color:#3962a5;stop-opacity:1;" />
      <stop
         id="stop3989"
         offset="1"
         style="stop-color:#2a6aff;stop-opacity:1;" />
    </linearGradient>
    <linearGradient
       id="linearGradient3971">
      <stop
         style="stop-color:#309d1b;stop-opacity:1;"
         offset="0"
         id="stop3973" />
      <stop
         style="stop-color:#3cd04a;stop-opacity:1;"
         offset="1"
         id="stop3975" />
    </linearGradient>
    <linearGradient
       id="linearGradient3957">
      <stop
         id="stop3959"
         offset="0"
         style="stop-color:#a58b39;stop-opacity:1;" />
      <stop
         id="stop3961"
         offset="1"
         style="stop-color:#ffad2a;stop-opacity:1;" />
    </linearGradient>
    <linearGradient
       id="linearGradient3941">
      <stop
         style="stop-color:#a53939;stop-opacity:1;"
         offset="0"
         id="stop3943" />
      <stop
         style="stop-color:#ff2a2a;stop-opacity:1;"
         offset="1"
         id="stop3945" />
    </linearGradient>
    <linearGradient
       id="linearGradient4028">
      <stop
         style="stop-color:#bc5fd3;stop-opacity:1;"
         offset="0"
         id="stop4030" />
      <stop
         style="stop-color:#9e33b8;stop-opacity:1;"
         offset="1"
         id="stop4032" />
    </linearGradient>
    <linearGradient
       id="linearGradient4020">
      <stop
         style="stop-color:#ffcc00;stop-opacity:1;"
         offset="0"
         id="stop4022" />
      <stop
         style="stop-color:#ebbc00;stop-opacity:1;"
         offset="1"
         id="stop4024" />
    </linearGradient>
    <linearGradient
       id="linearGradient3927">
      <stop
         style="stop-color:#3771c8;stop-opacity:1;"
         offset="0"
         id="stop3929" />
      <stop
         style="stop-color:#5f8dd3;stop-opacity:1;"
         offset="1"
         id="stop3931" />
    </linearGradient>
    <linearGradient
       id="linearGradient3919">
      <stop
         style="stop-color:#299554;stop-opacity:1;"
         offset="0"
         id="stop3921" />
      <stop
         style="stop-color:#2ca05a;stop-opacity:1;"
         offset="1"
         id="stop3923" />
    </linearGradient>
    <linearGradient
       id="linearGradient3911">
      <stop
         style="stop-color:#e00000;stop-opacity:1;"
         offset="0"
         id="stop3913" />
      <stop
         style="stop-color:#ff5555;stop-opacity:1;"
         offset="1"
         id="stop3915" />
    </linearGradient>
    <linearGradient
       id="linearGradient3903">
      <stop
         style="stop-color:#cca300;stop-opacity:1;"
         offset="0"
         id="stop3905" />
      <stop
         style="stop-color:#ffcc00;stop-opacity:1;"
         offset="1"
         id="stop3907" />
    </linearGradient>
    <linearGradient
       id="linearGradient3896">
      <stop
         id="stop3898"
         offset="0"
         style="stop-color:#3b3b3b;stop-opacity:1;" />
      <stop
         style="stop-color:#959595;stop-opacity:1"
         offset="0.05888502"
         id="stop3900" />
      <stop
         id="stop3902"
         offset="1"
         style="stop-color:#565656;stop-opacity:1;" />
    </linearGradient>
    <linearGradient
       id="linearGradient3866">
      <stop
         style="stop-color:#f9f9f9;stop-opacity:1;"
         offset="0"
         id="stop3868" />
      <stop
         id="stop3870"
         offset="0.25"
         style="stop-color:#c4c4c4;stop-opacity:1;" />
      <stop
         style="stop-color:#565656;stop-opacity:1;"
         offset="1"
         id="stop3872" />
    </linearGradient>
    <linearGradient
       id="linearGradient3848">
      <stop
         style="stop-color:#f9f9f9;stop-opacity:1;"
         offset="0"
         id="stop3850" />
      <stop
         id="stop3852"
         offset="0.18623945"
         style="stop-color:#c4c4c4;stop-opacity:1;" />
      <stop
         style="stop-color:#565656;stop-opacity:1;"
         offset="1"
         id="stop3854" />
    </linearGradient>
    <linearGradient
       id="linearGradient3824">
      <stop
         style="stop-color:#ebebeb;stop-opacity:1;"
         offset="0"
         id="stop3826" />
      <stop
         style="stop-color:#bebebe;stop-opacity:1;"
         offset="1"
         id="stop3830" />
    </linearGradient>
    <linearGradient
       id="linearGradient4279">
      <stop
         style="stop-color:#f9f9f9;stop-opacity:1;"
         offset="0"
         id="stop4281" />
      <stop
         id="stop4283"
         offset="0.81130701"
         style="stop-color:#c4c4c4;stop-opacity:1;" />
      <stop
         style="stop-color:#565656;stop-opacity:1;"
         offset="1"
         id="stop4285" />
    </linearGradient>
    <linearGradient
       id="linearGradient4239">
      <stop
         style="stop-color:#505050;stop-opacity:1;"
         offset="0"
         id="stop4241" />
      <stop
         style="stop-color:#ffffff;stop-opacity:0.15422885;"
         offset="1"
         id="stop4243" />
    </linearGradient>
    <linearGradient
       id="linearGradient4223">
      <stop
         id="stop4227"
         offset="0"
         style="stop-color:#e9e9e9;stop-opacity:0;" />
      <stop
         style="stop-color:#929292;stop-opacity:1"
         offset="1"
         id="stop4229" />
    </linearGradient>
    <linearGradient
       id="linearGradient4169">
      <stop
         id="stop4171"
         offset="0"
         style="stop-color:#f9f9f9;stop-opacity:1;" />
      <stop
         style="stop-color:#c4c4c4;stop-opacity:1;"
         offset="0.71567649"
         id="stop4175" />
      <stop
         id="stop4173"
         offset="1"
         style="stop-color:#565656;stop-opacity:1;" />
    </linearGradient>
    <linearGradient
       id="linearGradient4153">
      <stop
         style="stop-color:#ffffff;stop-opacity:1;"
         offset="0"
         id="stop4155" />
      <stop
         style="stop-color:#000000;stop-opacity:1;"
         offset="1"
         id="stop4157" />
    </linearGradient>
    <linearGradient
       id="linearGradient4145">
      <stop
         id="stop4147"
         offset="0"
         style="stop-color:#a0a0a0;stop-opacity:1;" />
      <stop
         id="stop4149"
         offset="1"
         style="stop-color:#202020;stop-opacity:1;" />
    </linearGradient>
    <linearGradient
       id="linearGradient4048">
      <stop
         id="stop4309"
         offset="0"
         style="stop-color:#131313;stop-opacity:1;" />
      <stop
         id="stop4054"
         offset="1"
         style="stop-color:#686868;stop-opacity:1;" />
    </linearGradient>
    <linearGradient
       id="linearGradient3886">
      <stop
         style="stop-color:#f9f9f9;stop-opacity:1;"
         offset="0"
         id="stop3888" />
      <stop
         style="stop-color:#afafaf;stop-opacity:1;"
         offset="1"
         id="stop3890" />
    </linearGradient>
    <linearGradient
       id="linearGradient3839">
      <stop
         style="stop-color:#e38565;stop-opacity:1"
         offset="0"
         id="stop3841" />
      <stop
         style="stop-color:#e77a14;stop-opacity:1"
         offset="1"
         id="stop3843" />
    </linearGradient>
    <linearGradient
       y2="17"
       x2="40"
       y1="31"
       x1="54"
       gradientTransform="matrix(0,-1,-1,0,71,73)"
       gradientUnits="userSpaceOnUse"
       id="linearGradient3029"
       xlink:href="#linearGradient4410"
       inkscape:collect="always" />
    <linearGradient
       inkscape:collect="always"
       id="linearGradient4410">
      <stop
         style="stop-color:#383e51;stop-opacity:1"
         offset="0"
         id="stop4412" />
      <stop
         style="stop-color:#655c6f;stop-opacity:0"
         offset="1"
         id="stop4414" />
    </linearGradient>
    <linearGradient
       y2="17"
       x2="40"
       y1="31"
       x1="54"
       gradientTransform="matrix(0,-1,1,0,4,78)"
       gradientUnits="userSpaceOnUse"
       id="linearGradient3028-7"
       xlink:href="#linearGradient4410-0"
       inkscape:collect="always" />
    <linearGradient
       inkscape:collect="always"
       id="linearGradient4410-0">
      <stop
         style="stop-color:#383e51;stop-opacity:1"
         offset="0"
         id="stop4412-9" />
      <stop
         style="stop-color:#655c6f;stop-opacity:0"
         offset="1"
         id="stop4414-1" />
    </linearGradient>
    <linearGradient
       y2="17"
       x2="40"
       y1="31"
       x1="54"
       gradientTransform="matrix(0.92361896,-0.60771399,-0.60771399,-0.92361896,-13.529375,73.514474)"
       gradientUnits="userSpaceOnUse"
       id="linearGradient3943"
       xlink:href="#linearGradient4410-0"
       inkscape:collect="always" />
    <radialGradient
       inkscape:collect="always"
       xlink:href="#linearGradient3886-5"
       id="radialGradient3892-5"
       cx="24.061937"
       cy="23.872463"
       fx="24.061937"
       fy="23.872463"
       r="17.025761"
       gradientTransform="matrix(1,0,0,0.99900396,0,0.02377793)"
       gradientUnits="userSpaceOnUse" />
    <linearGradient
       id="linearGradient3886-5">
      <stop
         style="stop-color:#a1a1a1;stop-opacity:1;"
         offset="0"
         id="stop3888-9" />
      <stop
         style="stop-color:#b0b0b0;stop-opacity:1;"
         offset="1"
         id="stop3890-3" />
    </linearGradient>
    <radialGradient
       inkscape:collect="always"
       xlink:href="#linearGradient4169-1"
       id="radialGradient4099-4"
       cx="26.5"
       cy="23.5"
       fx="26.5"
       fy="23.5"
       r="19.5"
       gradientTransform="matrix(0.9473684,0,0,0.79892039,1.3947374,4.725371)"
       gradientUnits="userSpaceOnUse" />
    <linearGradient
       id="linearGradient4169-1">
      <stop
         id="stop4171-2"
         offset="0"
         style="stop-color:#f9f9f9;stop-opacity:1;" />
      <stop
         style="stop-color:#c4c4c4;stop-opacity:1;"
         offset="0.76923078"
         id="stop4175-4" />
      <stop
         id="stop4173-4"
         offset="1"
         style="stop-color:#565656;stop-opacity:1;" />
    </linearGradient>
    <linearGradient
       inkscape:collect="always"
       xlink:href="#linearGradient4239"
       id="linearGradient4245"
       x1="44"
       y1="28.00672"
       x2="57.993282"
       y2="13"
       gradientUnits="userSpaceOnUse" />
    <linearGradient
       inkscape:collect="always"
       xlink:href="#linearGradient4223"
       id="linearGradient4249"
       x1="24.643452"
       y1="23.494081"
       x2="39.495842"
       y2="9.4033527"
       gradientUnits="userSpaceOnUse" />
    <linearGradient
       inkscape:collect="always"
       xlink:href="#linearGradient4239-0"
       id="linearGradient4245-2"
       x1="44"
       y1="28.00672"
       x2="57.993282"
       y2="13"
       gradientUnits="userSpaceOnUse" />
    <linearGradient
       id="linearGradient4239-0">
      <stop
         style="stop-color:#505050;stop-opacity:1;"
         offset="0"
         id="stop4241-0" />
      <stop
         style="stop-color:#ffffff;stop-opacity:0.15422885;"
         offset="1"
         id="stop4243-4" />
    </linearGradient>
    <linearGradient
       id="linearGradient3839-2">
      <stop
         style="stop-color:#85b5c3;stop-opacity:1;"
         offset="0"
         id="stop3841-2" />
      <stop
         style="stop-color:#3b67c0;stop-opacity:1;"
         offset="1"
         id="stop3843-1" />
    </linearGradient>
    <linearGradient
       inkscape:collect="always"
       id="linearGradient3986">
      <stop
         style="stop-color:#ffffff;stop-opacity:1;"
         offset="0"
         id="stop3988" />
      <stop
         style="stop-color:#ffffff;stop-opacity:0;"
         offset="1"
         id="stop3990" />
    </linearGradient>
    <linearGradient
       inkscape:collect="always"
       id="linearGradient3978">
      <stop
         style="stop-color:#ffffff;stop-opacity:1;"
         offset="0"
         id="stop3980" />
      <stop
         style="stop-color:#ffffff;stop-opacity:0;"
         offset="1"
         id="stop3982" />
    </linearGradient>
    <linearGradient
       y2="13"
       x2="57.993282"
       y1="28.00672"
       x1="44"
       gradientUnits="userSpaceOnUse"
       id="linearGradient3117"
       xlink:href="#linearGradient4239-0"
       inkscape:collect="always" />
    <linearGradient
       inkscape:collect="always"
       xlink:href="#linearGradient3978"
       id="linearGradient3251"
       gradientUnits="userSpaceOnUse"
       gradientTransform="matrix(0.71344016,0,0,0.71344016,6.8774373,7.4327989)"
       x1="40"
       y1="26.9375"
       x2="31"
       y2="31" />
    <linearGradient
       inkscape:collect="always"
       xlink:href="#linearGradient4239-0"
       id="linearGradient3253"
       gradientUnits="userSpaceOnUse"
       x1="44"
       y1="28.00672"
       x2="57.993282"
       y2="13" />
    <linearGradient
       inkscape:collect="always"
       xlink:href="#linearGradient3986"
       id="linearGradient3259"
       gradientUnits="userSpaceOnUse"
       x1="18.625"
       y1="46.589149"
       x2="20.8125"
       y2="36.964149" />
    <linearGradient
       inkscape:collect="always"
       xlink:href="#linearGradient3986"
       id="linearGradient3922"
       gradientUnits="userSpaceOnUse"
       x1="18.625"
       y1="46.589149"
       x2="20.8125"
       y2="36.964149"
       gradientTransform="translate(-22.426548,-16.819911)" />
    <linearGradient
       inkscape:collect="always"
       xlink:href="#linearGradient3886-5"
       id="linearGradient3901"
       x1="44.536011"
       y1="1.7487231"
       x2="44.536011"
       y2="54.265526"
       gradientUnits="userSpaceOnUse" />
    <linearGradient
       inkscape:collect="always"
       xlink:href="#linearGradient3971"
       id="linearGradient3969"
       x1="4"
       y1="10"
       x2="16"
       y2="10"
       gradientUnits="userSpaceOnUse" />
    <linearGradient
       inkscape:collect="always"
       xlink:href="#linearGradient3886-5"
       id="linearGradient3999"
       x1="3"
       y1="10"
       x2="17"
       y2="10"
       gradientUnits="userSpaceOnUse" />
  </defs>
  <sodipodi:namedview
     id="base"
     pagecolor="#ffffff"
     bordercolor="#666666"
     borderopacity="1.0"
     inkscape:pageopacity="0.0"
     inkscape:pageshadow="2"
     inkscape:zoom="5.6568545"
     inkscape:cx="-27.112412"
     inkscape:cy="5.5836091"
     inkscape:current-layer="layer1"
     showgrid="true"
     inkscape:grid-bbox="true"
     inkscape:document-units="px"
     showguides="true"
     inkscape:guide-bbox="true"
     inkscape:window-width="1366"
     inkscape:window-height="698"
     inkscape:window-x="-4"
     inkscape:window-y="-5"
     inkscape:window-maximized="1"
     inkscape:snap-global="true">
    <inkscape:grid
       type="xygrid"
       id="grid3047" />
    <sodipodi:guide
       orientation="1,0"
       position="3,4"
       id="guide3051" />
    <sodipodi:guide
       orientation="1,0"
       position="45,3"
       id="guide3053" />
    <sodipodi:guide
       orientation="0,1"
       position="-2,45"
       id="guide3055" />
    <sodipodi:guide
       orientation="0,1"
       position="21,3"
       id="guide3057" />
    <sodipodi:guide
       orientation="1,0"
       position="24,31"
       id="guide3059" />
    <sodipodi:guide
       orientation="0,1"
       position="27,24"
       id="guide3061" />
    <sodipodi:guide
       orientation="1,0"
       position="19,37"
       id="guide3122" />
    <sodipodi:guide
       orientation="1,0"
       position="29,36"
       id="guide3124" />
  </sodipodi:namedview>
  <metadata
     id="metadata3044">
    <rdf:RDF>
      <cc:Work
         rdf:about="">
        <dc:format>image/svg+xml</dc:format>
        <dc:type
           rdf:resource="http://purl.org/dc/dcmitype/StillImage" />
        <dc:title />
      </cc:Work>
    </rdf:RDF>
  </metadata>
  <g
     id="layer1"
     inkscape:label="Layer 1"
     inkscape:groupmode="layer">
    <path
       sodipodi:nodetypes="cccccc"
       inkscape:connector-curvature="0"
       id="path3908"
       d="M 14,3 34,3 42,26 24,45 6,26 z"
       style="fill:#26c7d9;fill-opacity:1;stroke:none;stroke-opacity:1" />
    <g
       id="g3956"
       transform="translate(0.0167,0.75)"
       style="fill:#333333;fill-opacity:1">
      <path
         style="font-size:medium;font-style:normal;font-variant:normal;font-weight:normal;font-stretch:normal;text-indent:0;text-align:start;text-decoration:none;line-height:normal;letter-spacing:normal;word-spacing:normal;text-transform:none;direction:ltr;block-progression:tb;writing-mode:lr-tb;text-anchor:start;baseline-shift:baseline;color:#000000;fill:#1a1a1a;fill-opacity:1;stroke:none;stroke-width:1.14833856000000001;marker:none;visibility:visible;display:inline;overflow:visible;enable-background:accumulate;font-family:Sans;-inkscape-font-specification:Sans"
         d="m -22.96875,22.46875 c -0.396853,0 -0.797622,0.01686 -1.1875,0.03125 -3.831064,0.141439 -7.305558,0.955156 -9.96875,2.25 l -1.09375,0.59375 c -1.179964,0.698039 -2.155955,1.485762 -2.875,2.375 -0.203433,0.251584 -0.367898,0.513154 -0.53125,0.78125 l 0.3125,0.34375 c 0.140817,-0.232516 0.316553,-0.460633 0.5,-0.6875 0.793406,-0.981201 1.953715,-1.896463 3.40625,-2.65625 0.165802,-0.08673 0.358186,-0.167131 0.53125,-0.25 0.248658,-0.0097 0.494821,-0.03358 0.75,-0.03125 0.160515,0.0015 0.336133,0.02555 0.5,0.03125 -0.374344,0.304859 -0.723526,0.592713 -1,0.9375 -0.604374,0.753706 -0.9375,1.637103 -0.9375,2.5625 0,0.89746 0.303544,1.762418 0.875,2.5 -0.494299,0.31123 -0.947849,0.643983 -1.40625,0.96875 L -34.75,32.625 c 0.472518,-0.325228 0.959517,-0.652925 1.46875,-0.96875 0.570513,0.602516 1.283622,1.133462 2.15625,1.59375 2.093924,1.104488 4.991599,1.78125 8.15625,1.78125 3.164651,0 6.031077,-0.676762 8.125,-1.78125 0.872628,-0.460288 1.585737,-0.991234 2.15625,-1.59375 0.496277,0.30779 0.976052,0.620753 1.4375,0.9375 l 0.375,-0.375 c -0.458401,-0.324767 -0.911951,-0.65752 -1.40625,-0.96875 0.571456,-0.737582 0.875,-1.60254 0.875,-2.5 0,-0.925397 -0.333126,-1.808794 -0.9375,-2.5625 -0.271821,-0.338984 -0.602253,-0.63708 -0.96875,-0.9375 0.03039,-8.36e-4 0.06349,7.44e-4 0.09375,0 0.397619,-0.0098 0.777114,-0.0061 1.15625,0 0.164455,0.07908 0.342134,0.167424 0.5,0.25 1.452534,0.759787 2.612844,1.675049 3.40625,2.65625 0.1795482,0.222046 0.3300404,0.460039 0.46875,0.6875 l 0.34375,-0.375 c -0.1600387,-0.260401 -0.33335,-0.505258 -0.53125,-0.75 -0.7190448,-0.889238 -1.6950364,-1.676961 -2.875,-2.375 L -11.84375,24.75 c -2.665343,-1.29589 -6.134012,-2.109553 -9.96875,-2.25 -0.385336,-0.02066 -0.760669,-0.03125 -1.15625,-0.03125 z m 0,0.5625 c 2.047666,0 3.896776,0.451197 5.21875,1.15625 0.467057,0.249097 0.869046,0.542053 1.1875,0.84375 -2.025549,0.281607 -4.186043,0.758504 -6.40625,1.4375 -2.233855,-0.683827 -4.395657,-1.156898 -6.4375,-1.4375 0.318454,-0.301697 0.720444,-0.594653 1.1875,-0.84375 1.321975,-0.705053 3.202334,-1.15625 5.25,-1.15625 z m 5.6875,0.84375 c 0.8269,0.258266 1.58005,0.55287 2.25,0.90625 0.06413,0.03382 0.125,0.05917 0.1875,0.09375 -0.356389,0.03255 -0.695684,0.05001 -1.0625,0.09375 -0.338059,-0.426272 -0.831977,-0.769667 -1.375,-1.09375 z M -28.875,23.9375 c -0.468074,0.300743 -0.850152,0.645279 -1.15625,1.03125 -0.362976,-0.04305 -0.708036,-0.0615 -1.0625,-0.09375 0.05456,-0.03 0.100458,-0.06432 0.15625,-0.09375 0.617815,-0.325881 1.310002,-0.598038 2.0625,-0.84375 z m -1.96875,0.1875 c -0.09143,0.04518 -0.192661,0.07827 -0.28125,0.125 -0.336726,0.177613 -0.61206,0.362668 -0.90625,0.5625 -0.26757,-0.01656 -0.520482,-0.01863 -0.78125,-0.03125 0.624868,-0.251167 1.274599,-0.45453 1.96875,-0.65625 z m 15.71875,0 c 0.694151,0.20172 1.343882,0.405083 1.96875,0.65625 -0.247078,0.01231 -0.498786,0.0158 -0.75,0.03125 -0.29595,-0.201393 -0.598401,-0.383635 -0.9375,-0.5625 -0.08859,-0.04673 -0.189931,-0.07982 -0.28125,-0.125 z m -16.65625,1.15625 c 0.01053,7.33e-4 0.02071,-7.46e-4 0.03125,0 0.464519,0.03288 0.92415,0.07303 1.40625,0.125 -0.229337,0.408647 -0.34375,0.87033 -0.34375,1.34375 0,0.649792 0.24812,1.266622 0.65625,1.78125 0.131939,0.166366 0.27218,0.318211 0.4375,0.46875 -1.288497,0.618685 -2.490767,1.277076 -3.625,1.96875 -0.02766,-0.03271 -0.06732,-0.06079 -0.09375,-0.09375 -0.546839,-0.681955 -0.84375,-1.393543 -0.84375,-2.125 0,-0.731457 0.296911,-1.443046 0.84375,-2.125 0.383649,-0.478444 0.909405,-0.932333 1.53125,-1.34375 z m 17.375,0.03125 c 0.08441,-0.0054 0.166268,0.0046 0.25,0 0.60578,0.405021 1.12374,0.843272 1.5,1.3125 0.546838,0.681954 0.84375,1.393543 0.84375,2.125 0,0.731457 -0.296912,1.443045 -0.84375,2.125 -0.02643,0.03296 -0.06609,0.06104 -0.09375,0.09375 -1.134233,-0.691674 -2.336503,-1.350065 -3.625,-1.96875 0.16532,-0.150539 0.336811,-0.302384 0.46875,-0.46875 0.40813,-0.514628 0.65625,-1.131458 0.65625,-1.78125 0,-0.47342 -0.145663,-0.935103 -0.375,-1.34375 0.413728,-0.04448 0.816706,-0.06817 1.21875,-0.09375 z m -15.375,0.15625 c 1.882982,0.236471 3.890478,0.650152 5.96875,1.25 -0.752878,0.245819 -1.487809,0.489155 -2.25,0.78125 -1.038763,0.398086 -2.031272,0.830968 -3,1.28125 -0.272343,-0.212851 -0.50476,-0.457075 -0.6875,-0.6875 -0.350912,-0.442479 -0.5,-0.888972 -0.5,-1.34375 0,-0.435382 0.14797,-0.857306 0.46875,-1.28125 z m 13.625,0.03125 c 0.302793,0.412432 0.46875,0.826656 0.46875,1.25 0,0.454778 -0.180338,0.901271 -0.53125,1.34375 -0.18274,0.230425 -0.415157,0.474649 -0.6875,0.6875 -0.968728,-0.450282 -1.961237,-0.883164 -3,-1.28125 -0.75403,-0.288967 -1.473805,-0.537574 -2.21875,-0.78125 2.08261,-0.599599 4.084009,-0.985136 5.96875,-1.21875 z M -23,27 c 0.962806,0.297899 1.95761,0.624476 2.9375,1 0.910452,0.348913 1.771267,0.735875 2.625,1.125 -0.1073,0.06581 -0.196767,0.125776 -0.3125,0.1875 -1.321974,0.705053 -3.171084,1.15625 -5.21875,1.15625 -2.047666,0 -3.928025,-0.451197 -5.25,-1.15625 -0.115732,-0.06172 -0.205201,-0.121691 -0.3125,-0.1875 0.853733,-0.389125 1.714548,-0.776087 2.625,-1.125 0.970161,-0.371796 1.952773,-0.704298 2.90625,-1 z m -6.09375,2.375 c 0.230346,0.163869 0.449583,0.325194 0.71875,0.46875 1.392492,0.742662 3.31178,1.1875 5.40625,1.1875 2.09447,0 3.982509,-0.444838 5.375,-1.1875 0.269167,-0.143556 0.488404,-0.304881 0.71875,-0.46875 1.322599,0.62486 2.558661,1.303223 3.71875,2 -0.503793,0.483223 -1.124733,0.948004 -1.875,1.34375 -2.023017,1.067086 -4.819912,1.75 -7.9375,1.75 -3.117588,0 -5.945734,-0.682914 -7.96875,-1.75 -0.750268,-0.395746 -1.371207,-0.860527 -1.875,-1.34375 1.160089,-0.696777 2.396151,-1.37514 3.71875,-2 z m 0.3125,9.53125 0.65625,0.6875 c 1.623534,0.278818 3.358256,0.4375 5.15625,0.4375 1.773169,0 3.46425,-0.134797 5.0625,-0.40625 L -17.25,38.90625 c -1.779355,0.353378 -3.699615,0.5625 -5.71875,0.5625 -2.045855,0 -4.006589,-0.200184 -5.8125,-0.5625 z M -23.125,44.875 -23,45 l 0.125,-0.125 c -0.04045,0.01228 -0.0846,0.01902 -0.125,0.03125 -0.04076,-0.01237 -0.0842,-0.01881 -0.125,-0.03125 z"
         transform="translate(46.9833,-0.75)"
         id="path3930"
         inkscape:connector-curvature="0"
         sodipodi:nodetypes="ssccsccsccccssccccsssccccsscccssccscccssscccsscccccccccccccccccccccscssccssscccsssccssccccscssccsscscccscssccsccsssccsssccccsccscccccc" />
    </g>
    <path
       style="fill:#1a1a1a;fill-opacity:1;stroke:none"
       d="m 11.59375,11.15625 -0.65625,0.65625 -1.09375,3.15625 12.6875,11.46875 -8.75,7.78125 2.375,2.5 L 24,27.875 31.84375,36.71875 34.25,34.1875 l -8.75,-7.75 12.65625,-11.46875 -1.125,-3.25 -0.5625,-0.5625 -12.4375,13.75 -12.4375,-13.75 z"
       id="path3995"
       inkscape:connector-curvature="0" />
    <path
       style="fill:#1a1a1a;fill-opacity:1;stroke:none"
       d="M 14,3 10,15 38,15 34,3 z"
       id="path3912"
       inkscape:connector-curvature="0"
       sodipodi:nodetypes="ccccc" />
    <path
       style="font-size:medium;font-style:normal;font-variant:normal;font-weight:normal;font-stretch:normal;text-indent:0;text-align:start;text-decoration:none;line-height:normal;letter-spacing:normal;word-spacing:normal;text-transform:none;direction:ltr;block-progression:tb;writing-mode:lr-tb;text-anchor:start;baseline-shift:baseline;color:#000000;fill:#1a1a1a;fill-opacity:1;fill-rule:nonzero;stroke:none;stroke-width:0.29999999999999999;marker:none;visibility:visible;display:inline;overflow:visible;enable-background:accumulate;font-family:Sans;-inkscape-font-specification:Sans;stroke-miterlimit:4;stroke-dasharray:none;stroke-opacity:1"
       d="m 13.65625,2.5 -0.125,0.34375 -8,23 -0.09375,0.28125 0.1875,0.21875 18,19 0.375,0.375 0.375,-0.375 18,-19 0.1875,-0.21875 -0.09375,-0.28125 -8,-23 L 34.34375,2.5 34,2.5 l -20,0 -0.34375,0 z m 0.6875,1 19.3125,0 L 41.4375,25.875 24,44.25 6.5625,25.875 14.34375,3.5 z"
       id="rect3132"
       inkscape:connector-curvature="0" />
    <path
       transform="matrix(0.45178226,0.15092317,-0.15092317,0.45178226,28.126403,11.608816)"
       d="M 24,17 22.462599,15.074802 20,15 21.925198,13.462599 22,11 23.537401,12.925198 26,13 24.074802,14.537401 z"
       inkscape:randomized="0"
       inkscape:rounded="0"
       inkscape:flatsided="false"
       sodipodi:arg2="2.034444"
       sodipodi:arg1="1.2490458"
       sodipodi:r2="1.2016655"
       sodipodi:r1="3.1622777"
       sodipodi:cy="14"
       sodipodi:cx="23"
       sodipodi:sides="4"
       id="path3924"
       style="fill:#1a1a1a;fill-opacity:1;stroke:none"
       sodipodi:type="star"
       inkscape:transform-center-x="2.3097677"
       inkscape:transform-center-y="-1.8339745" />
    <path
       inkscape:transform-center-y="-1.8339745"
       inkscape:transform-center-x="2.3097677"
       sodipodi:type="star"
       style="fill:#1a1a1a;fill-opacity:1;stroke:none"
       id="path3934"
       sodipodi:sides="4"
       sodipodi:cx="23"
       sodipodi:cy="14"
       sodipodi:r1="3.1622777"
       sodipodi:r2="1.2016655"
       sodipodi:arg1="1.2490458"
       sodipodi:arg2="2.034444"
       inkscape:flatsided="false"
       inkscape:rounded="0"
       inkscape:randomized="0"
       d="M 24,17 22.462599,15.074802 20,15 21.925198,13.462599 22,11 23.537401,12.925198 26,13 24.074802,14.537401 z"
       transform="matrix(0.45178226,0.15092317,-0.15092317,0.45178226,2.7209451,11.710085)" />
    <path
       transform="matrix(0.45178226,0.15092317,-0.15092317,0.45178226,15.72292,7.6975455)"
       d="M 24,17 22.462599,15.074802 20,15 21.925198,13.462599 22,11 23.537401,12.925198 26,13 24.074802,14.537401 z"
       inkscape:randomized="0"
       inkscape:rounded="0"
       inkscape:flatsided="false"
       sodipodi:arg2="2.034444"
       sodipodi:arg1="1.2490458"
       sodipodi:r2="1.2016655"
       sodipodi:r1="3.1622777"
       sodipodi:cy="14"
       sodipodi:cx="23"
       sodipodi:sides="4"
       id="path3936"
       style="fill:#1a1a1a;fill-opacity:1;stroke:none"
       sodipodi:type="star"
       inkscape:transform-center-x="2.3097677"
       inkscape:transform-center-y="-1.8339745" />
    <g
       style="font-size:3px;font-style:normal;font-variant:normal;font-weight:600;font-stretch:normal;text-align:center;line-height:125%;letter-spacing:0px;word-spacing:0px;text-anchor:middle;fill:#41bebe;fill-opacity:1;stroke:none;font-family:FreeSans;-inkscape-font-specification:FreeSans Semi-Bold"
       id="text3998">
      <path
         d="m 17.919234,8 -0.381,0 -0.738,-2.187 0.453,0 0.486,1.647 0.477,-1.647 0.453,0 -0.75,2.187"
         style="fill:#41bebe;fill-opacity:1"
         id="path4005" />
      <path
         d="m 20.248594,5.813 0,2.187 -0.45,0 0,-2.187 0.45,0"
         style="fill:#41bebe;fill-opacity:1"
         id="path4007" />
      <path
         d="m 23.026266,6.506 c -0.08,-0.2339983 -0.254002,-0.3509982 -0.522,-0.351 -0.190001,1.8e-6 -0.340001,0.067002 -0.45,0.201 -0.108001,0.1340015 -0.162001,0.3190013 -0.162,0.555 -1e-6,0.2240009 0.058,0.4080007 0.174,0.552 0.117999,0.1440004 0.267999,0.2160003 0.45,0.216 0.028,3e-7 0.06,-0.003 0.096,-0.009 0.038,-0.008 0.083,-0.022 0.135,-0.042 0.052,-0.022 0.1,-0.05 0.144,-0.084 0.044,-0.033999 0.083,-0.080999 0.117,-0.141 0.034,-0.061999 0.055,-0.1319993 0.063,-0.21 l -0.498,0 0,-0.375 0.876,0 0,1.182 -0.27,0 -0.054,-0.288 c -0.084,0.1220002 -0.178002,0.2110001 -0.282,0.267 -0.104002,0.056 -0.230002,0.084 -0.378,0.084 -0.296001,-1e-7 -0.541001,-0.108 -0.735,-0.324 -0.192001,-0.2159995 -0.288,-0.4899992 -0.288,-0.822 0,-0.3399986 0.098,-0.6159983 0.294,-0.828 0.195999,-0.2119979 0.450999,-0.3179978 0.765,-0.318 0.263998,2.2e-6 0.480998,0.066002 0.651,0.198 0.169998,0.1320019 0.268998,0.3110017 0.297,0.537 l -0.423,0"
         style="fill:#41bebe;fill-opacity:1"
         id="path4009" />
      <path
         d="m 25.152891,5.813 0,2.187 -0.45,0 0,-2.187 0.45,0"
         style="fill:#41bebe;fill-opacity:1"
         id="path4011" />
      <path
         d="m 26.916563,5.813 0,1.812 1.046999,0 0,0.375 -1.497,0 0,-2.187 0.450001,0"
         style="fill:#41bebe;fill-opacity:1"
         id="path4013" />
      <path
         d="m 29.324016,7.748 c -0.192001,-0.2139995 -0.288,-0.4889993 -0.288,-0.825 0,-0.3359986 0.096,-0.6109983 0.288,-0.825 0.193999,-0.2139979 0.447999,-0.3209978 0.762,-0.321 0.315998,2.2e-6 0.570998,0.1070021 0.765,0.321 0.193997,0.2120017 0.290997,0.4920014 0.291,0.84 -3e-6,0.3240007 -0.096,0.5940005 -0.288,0.81 -0.190002,0.214 -0.445002,0.3209999 -0.765,0.321 -0.318001,-1e-7 -0.573001,-0.107 -0.765,-0.321 m 0.765,-1.587 c -0.182001,1.8e-6 -0.328001,0.070002 -0.438,0.21 -0.110001,0.1380015 -0.165001,0.3220013 -0.165,0.552 -1e-6,0.2300008 0.055,0.4150007 0.165,0.555 0.109999,0.1380004 0.255999,0.2070003 0.438,0.207 0.179998,3e-7 0.324998,-0.069 0.435,-0.207 0.111998,-0.1379993 0.167998,-0.3189992 0.168,-0.543 -2e-6,-0.2359987 -0.055,-0.4239985 -0.165,-0.564 -0.108002,-0.1399982 -0.254002,-0.2099982 -0.438,-0.21"
         style="fill:#41bebe;fill-opacity:1"
         id="path4015" />
      <path
         d="m 16.051289,10.304 c -0.056,-0.261998 -0.212001,-0.3929982 -0.468,-0.393 -0.178001,1.8e-6 -0.317001,0.068002 -0.417,0.204 -0.100001,0.136001 -0.150001,0.325001 -0.15,0.567 -1e-6,0.238001 0.048,0.424001 0.144,0.558 0.098,0.134 0.233999,0.201 0.408,0.201 0.139999,0 0.251999,-0.038 0.336,-0.114 0.084,-0.076 0.132998,-0.183999 0.147,-0.324 l 0.438,0 c -0.014,0.25 -0.105002,0.449 -0.273,0.597 -0.168002,0.146 -0.388001,0.219 -0.66,0.219 -0.304001,0 -0.545001,-0.102 -0.723,-0.306 -0.178,-0.206 -0.267,-0.484999 -0.267,-0.837 0,-0.353999 0.09,-0.633998 0.27,-0.84 0.179999,-0.2059979 0.423999,-0.3089978 0.732,-0.309 0.257999,2.2e-6 0.468998,0.069002 0.633,0.207 0.165998,0.1380019 0.258998,0.328002 0.279,0.57 l -0.429,0"
         style="fill:#41bebe;fill-opacity:1"
         id="path4017" />
      <path
         d="m 17.84843,11.498 c -0.192001,-0.214 -0.288,-0.488999 -0.288,-0.825 0,-0.335999 0.096,-0.610998 0.288,-0.825 0.193999,-0.2139979 0.447999,-0.3209978 0.762,-0.321 0.315998,2.2e-6 0.570998,0.1070021 0.765,0.321 0.193998,0.212002 0.290997,0.492001 0.291,0.84 -3e-6,0.324001 -0.096,0.594 -0.288,0.81 -0.190002,0.214 -0.445002,0.321 -0.765,0.321 -0.318001,0 -0.573001,-0.107 -0.765,-0.321 m 0.765,-1.587 c -0.182001,1.8e-6 -0.328001,0.070002 -0.438,0.21 -0.110001,0.138001 -0.165001,0.322001 -0.165,0.552 -1e-6,0.230001 0.055,0.415001 0.165,0.555 0.109999,0.138 0.255999,0.207 0.438,0.207 0.179998,0 0.324998,-0.069 0.435,-0.207 0.111998,-0.137999 0.167998,-0.318999 0.168,-0.543 -2e-6,-0.235999 -0.055,-0.423999 -0.165,-0.564 -0.108002,-0.1399982 -0.254002,-0.2099982 -0.438,-0.21"
         style="fill:#41bebe;fill-opacity:1"
         id="path4019" />
      <path
         d="m 22.185211,11.75 -0.879,-1.512 0,1.512 -0.45,0 0,-2.187 0.462,0 0.867,1.488 0,-1.488 0.45,0 0,2.187 -0.45,0"
         style="fill:#41bebe;fill-opacity:1"
         id="path4021" />
      <path
         d="m 24.399961,10.808 0,0.942 -0.45,0 0,-2.187 1.536,0 0,0.375 -1.086,0 0,0.495 0.957,0 0,0.375 -0.957,0"
         style="fill:#41bebe;fill-opacity:1"
         id="path4023" />
      <path
         d="m 27.13043,9.563 0,2.187 -0.45,0 0,-2.187 0.45,0"
         style="fill:#41bebe;fill-opacity:1"
         id="path4025" />
      <path
         d="m 28.444102,11.75 0,-2.187 0.855,0 c 0.167998,2.2e-6 0.305998,0.020002 0.414,0.06 0.109998,0.040002 0.201998,0.104002 0.276,0.192 0.177998,0.212002 0.266998,0.492001 0.267,0.84 -2e-6,0.352001 -0.089,0.632 -0.267,0.84 -0.142002,0.17 -0.372002,0.255 -0.69,0.255 l -0.855,0 m 0.45,-0.375 0.405,0 c 0.337998,0 0.506998,-0.238999 0.507,-0.717 -2e-6,-0.479998 -0.169002,-0.7199982 -0.507,-0.72 l -0.405,0 0,1.437"
         style="fill:#41bebe;fill-opacity:1"
         id="path4027" />
      <path
         d="m 31.617961,11.498 c -0.192,-0.214 -0.288,-0.488999 -0.288,-0.825 0,-0.335999 0.096,-0.610998 0.288,-0.825 0.193999,-0.2139979 0.447999,-0.3209978 0.762,-0.321 0.315998,2.2e-6 0.570998,0.1070021 0.765,0.321 0.193998,0.212002 0.290998,0.492001 0.291,0.84 -2e-6,0.324001 -0.096,0.594 -0.288,0.81 -0.190002,0.214 -0.445002,0.321 -0.765,0.321 -0.318001,0 -0.573001,-0.107 -0.765,-0.321 m 0.765,-1.587 c -0.182001,1.8e-6 -0.328001,0.070002 -0.438,0.21 -0.110001,0.138001 -0.165001,0.322001 -0.165,0.552 -1e-6,0.230001 0.055,0.415001 0.165,0.555 0.109999,0.138 0.255999,0.207 0.438,0.207 0.179999,0 0.324998,-0.069 0.435,-0.207 0.111998,-0.137999 0.167998,-0.318999 0.168,-0.543 -2e-6,-0.235999 -0.055,-0.423999 -0.165,-0.564 -0.108002,-0.1399982 -0.254001,-0.2099982 -0.438,-0.21"
         style="fill:#41bebe;fill-opacity:1"
         id="path4029" />
    </g>
    <path
       style="fill:#41bebe;fill-opacity:1;stroke:none"
       d="M 15.5,6.5 C 15.777,6.5 16,6.723 16,7 16,7.277 15.777,7.5 15.5,7.5 15.223,7.5 15,7.277 15,7 15,6.723 15.223,6.5 15.5,6.5 z"
       id="rect4034"
       inkscape:connector-curvature="0" />
    <path
       inkscape:connector-curvature="0"
       id="path4037"
       d="M 32.5,6.5 C 32.777,6.5 33,6.723 33,7 33,7.277 32.777,7.5 32.5,7.5 32.223,7.5 32,7.277 32,7 32,6.723 32.223,6.5 32.5,6.5 z"
       style="fill:#41bebe;fill-opacity:1;stroke:none" />
  </g>
</svg>
