/* XPM */
static char * menu_prelight_xpm[] = {
"24 24 4 1",
" 	c None",
".	c #839eab",
"+	c #FFFFFF",
"@	c #FDFDFD",
"........................",
"........................",
"........................",
"........................",
"........................",
"........................",
"........................",
".....+@@@@@@@@@@@@+.....",
".....+@@@@@@@@@@@@+.....",
"........................",
"........................",
".....+@@@@@@@@@@@@+.....",
".....+@@@@@@@@@@@@+.....",
"........................",
"........................",
".....+@@@@@@@@@@@@+.....",
".....+@@@@@@@@@@@@+.....",
"........................",
"........................",
"........................",
"........................",
"........................",
"........................",
"........................"};
