<?xml version="1.0" encoding="UTF-8" standalone="no"?>
<svg
   xmlns:dc="http://purl.org/dc/elements/1.1/"
   xmlns:cc="http://creativecommons.org/ns#"
   xmlns:rdf="http://www.w3.org/1999/02/22-rdf-syntax-ns#"
   xmlns:svg="http://www.w3.org/2000/svg"
   xmlns="http://www.w3.org/2000/svg"
   xmlns:sodipodi="http://sodipodi.sourceforge.net/DTD/sodipodi-0.dtd"
   xmlns:inkscape="http://www.inkscape.org/namespaces/inkscape"
   width="48"
   version="1.1"
   height="48"
   id="svg5259"
   inkscape:version="0.91 r13725"
   sodipodi:docname="folder-theme.svg">
  <metadata
     id="metadata5279">
    <rdf:RDF>
      <cc:Work
         rdf:about="">
        <dc:format>image/svg+xml</dc:format>
        <dc:type
           rdf:resource="http://purl.org/dc/dcmitype/StillImage" />
      </cc:Work>
    </rdf:RDF>
  </metadata>
  <sodipodi:namedview
     pagecolor="#ffffff"
     bordercolor="#666666"
     borderopacity="1"
     objecttolerance="10"
     gridtolerance="10"
     guidetolerance="10"
     inkscape:pageopacity="0"
     inkscape:pageshadow="2"
     inkscape:window-width="640"
     inkscape:window-height="480"
     id="namedview5277"
     showgrid="false"
     inkscape:zoom="14.9375"
     inkscape:cx="23.062761"
     inkscape:cy="25.807531"
     inkscape:current-layer="svg5259" />
  <path
     style="opacity:.65;fill:#fff;stroke:none"
     id="rect4154"
     d="m 3,1.959 0,9.342 42,0 0,-6.9866 -22,0 0,-2.3555 z" />
  <defs
     id="defs867">
    <clipPath
       id="clipPath3613">
      <rect
         width="84"
         x="6"
         y="6"
         rx="6"
         ry="6"
         height="84"
         style="fill:#fff;stroke:none"
         id="rect3615" />
    </clipPath>
  </defs>
  <rect
     style="stroke:none;fill:#444444;fill-opacity:1"
     width="18"
     x="4"
     y="2.9586298"
     height="11.773318"
     id="folderTab" />
  <rect
     style="stroke:none;fill:#444444;fill-opacity:1"
     width="40"
     x="4"
     y="5.313652"
     height="35.319954"
     id="folderBackground" />
  <rect
     width="35.999992"
     x="6"
     y="7.6680799"
     height="32.965004"
     style="fill:#ffffff;stroke:none"
     id="folderPaper" />
  <rect
     width="43.999996"
     x="2"
     y="10.022959"
     height="32.965298"
     style="fill:#3498db;stroke:none"
     id="folderFront" />
  <rect
     id="rect3849"
     style="fill:#ffffff;stroke:none"
     height="32.965004"
     y="7.6680799"
     x="6"
     width="35.999992" />
  <rect
     id="rect3851"
     style="fill:#f0544c;stroke:none;fill-opacity:1"
     height="32.965298"
     y="10.022959"
     x="2"
     width="43.999996" />
  <rect
     id="rect3265"
     style="fill:none;stroke:none"
     height="30"
     y="11.101083"
     x="9.380971"
     width="30" />
  <g
     style="fill:#fff;fill-rule:evenodd;stroke:none"
     id="g23"
     transform="matrix(0.93664463,0,0,0.93664463,1.5737195,1.4818499)">
    <path
       id="path3163"
       d="m 23.7545,28.3853 c -5.95348,-5.94907 -7.95285,9.79864 -15.8259,5.23647 10.2677,12.0514 22.8201,1.75262 15.8259,-5.23647 z" />
    <path
       style="stroke-miterlimit:2"
       id="path3159"
       d="m 38.0792,12.8961 c -0.352651,0.04771 -4.07111,3.28644 -7.63518,6.76687 -3.58308,3.499 -7.00848,7.50909 -7.00848,7.50909 0.850953,0.569619 1.60493,1.54964 2.30514,2.48376 0,0 3.94218,-3.48767 7.47534,-7.03285 3.53316,-3.54519 6.78738,-7.50569 6.74132,-8.00212 -0.04606,-0.496436 -1.5255,-1.77246 -1.87815,-1.72475 z" />
  </g>
</svg>
