<?xml version="1.0" encoding="UTF-8" standalone="no"?>
<svg
   xmlns:dc="http://purl.org/dc/elements/1.1/"
   xmlns:cc="http://creativecommons.org/ns#"
   xmlns:rdf="http://www.w3.org/1999/02/22-rdf-syntax-ns#"
   xmlns:svg="http://www.w3.org/2000/svg"
   xmlns="http://www.w3.org/2000/svg"
   xmlns:xlink="http://www.w3.org/1999/xlink"
   xmlns:sodipodi="http://sodipodi.sourceforge.net/DTD/sodipodi-0.dtd"
   xmlns:inkscape="http://www.inkscape.org/namespaces/inkscape"
   width="48"
   version="1.1"
   height="48"
   id="svg5266"
   inkscape:version="0.91 r13725"
   sodipodi:docname="folder-archive.svg">
  <metadata
     id="metadata5291">
    <rdf:RDF>
      <cc:Work
         rdf:about="">
        <dc:format>image/svg+xml</dc:format>
        <dc:type
           rdf:resource="http://purl.org/dc/dcmitype/StillImage" />
      </cc:Work>
    </rdf:RDF>
  </metadata>
  <defs
     id="defs5289" />
  <sodipodi:namedview
     pagecolor="#ffffff"
     bordercolor="#666666"
     borderopacity="1"
     objecttolerance="10"
     gridtolerance="10"
     guidetolerance="10"
     inkscape:pageopacity="0"
     inkscape:pageshadow="2"
     inkscape:window-width="640"
     inkscape:window-height="480"
     id="namedview5287"
     showgrid="false"
     inkscape:zoom="14.9375"
     inkscape:cx="24"
     inkscape:cy="23.464435"
     inkscape:current-layer="svg5266" />
  <path
     style="opacity:.65;fill:#fff;stroke:none"
     id="rect4154"
     d="m 3,1.959 0,9.342 42,0 0,-6.9866 -22,0 0,-2.3555 z" />
  <rect
     style="stroke:none;fill:#444444;fill-opacity:1"
     id="folderTab"
     height="11.773318"
     y="2.9586298"
     x="4"
     width="18" />
  <rect
     style="stroke:none;fill:#444444;fill-opacity:1"
     id="folderBackground"
     height="35.319954"
     y="5.313652"
     x="4"
     width="40" />
  <rect
     id="folderPaper"
     style="fill:#ffffff;stroke:none"
     height="32.965004"
     y="7.6680799"
     x="6"
     width="35.999992" />
  <rect
     id="folderFront"
     style="fill:#3498db;stroke:none"
     height="32.965298"
     y="10.022959"
     x="2"
     width="43.999996" />
  <rect
     width="35.999992"
     x="6"
     y="7.6680799"
     height="32.965004"
     style="fill:#ffffff;stroke:none"
     id="rect3849" />
  <rect
     width="43.999996"
     x="2"
     y="10.022959"
     height="32.965298"
     style="fill:#f0544c;stroke:none;fill-opacity:1"
     id="rect3851" />
  <rect
     width="30"
     x="9.380971"
     y="11.101083"
     height="30"
     style="fill:none;stroke:none"
     id="rect3265" />
  <rect
     width="5.6843896"
     x="21.157804"
     y="37.91153"
     rx="0.9473983"
     ry="0.93294132"
     height="3.7317653"
     style="fill:#ffffff;stroke:none"
     id="rect3211" />
  <path
     inkscape:connector-curvature="0"
     d="m 22.144,34.6345 c -0.200277,0 -0.371194,0.159346 -0.371194,0.365532 l 0,2.19318 c 0,0.206185 0.170919,0.36553 0.371194,0.36553 l 0.74239,0 c 0.200277,0 0.371194,-0.159345 0.371194,-0.36553 l 0,-0.365529 1.11359,0 c 0.205642,0 0.371194,-0.163027 0.371194,-0.365532 l 0,-0.731056 c 0,-0.202504 -0.165552,-0.36553 -0.371194,-0.36553 l -1.11359,0 0,-0.365531 c 0,-0.206186 -0.170919,-0.365531 -0.371194,-0.365531 l -0.74239,0 z"
     id="use3310"
     style="fill:#ffffff;stroke:none" />
  <use
     transform="translate(1.4189972e-6,-4.3863615)"
     id="use3312"
     xlink:href="#use3310"
     style="fill:#ffffff;stroke:none"
     height="96"
     y="0"
     x="0"
     width="96" />
  <use
     transform="translate(1.4189972e-6,-4.3863615)"
     id="use3314"
     xlink:href="#use3312"
     style="fill:#ffffff;stroke:none"
     height="96"
     y="0"
     x="0"
     width="96" />
  <path
     inkscape:connector-curvature="0"
     d="m 25.856,32.4413 c 0.200277,0 0.371194,0.159344 0.371194,0.365531 l 0,2.19318 c 0,0.206186 -0.170919,0.365531 -0.371194,0.365531 l -0.74239,0 c -0.200277,0 -0.371194,-0.159345 -0.371194,-0.365531 l 0,-0.36553 -1.11359,0 c -0.205641,0 -0.371194,-0.163027 -0.371194,-0.36553 l 0,-0.731064 c 0,-0.202503 0.165553,-0.36553 0.371194,-0.36553 l 1.11359,0 0,-0.36553 c 0,-0.206185 0.170919,-0.36553 0.371194,-0.36553 l 0.74239,0 z"
     id="use3342"
     style="fill:#ffffff;stroke:none" />
  <use
     transform="translate(1.4189972e-6,-4.3863615)"
     id="use3344"
     xlink:href="#use3342"
     style="fill:#ffffff;stroke:none"
     height="96"
     y="0"
     x="0"
     width="96" />
  <path
     inkscape:connector-curvature="0"
     d="m 20.903,11.255 c -0.763004,0 -1.36496,0.527452 -1.36496,1.18263 l -0.0057,11.8263 c 2.4e-5,0.655178 0.601987,1.18263 1.36499,1.18263 l 6.19963,0 c 0.763002,0 1.36496,-0.527451 1.36496,-1.18263 l 0.0057,-11.8263 c 0,-0.655176 -0.601964,-1.18263 -1.36496,-1.18263 l -6.19963,0 z m 0.7821,8.6926 4.5542,0 0,3.4098 -4.5542,0 0,-3.4098 z"
     id="path3878"
     style="fill:#ffffff;stroke:none" />
</svg>
