<?xml version="1.0" encoding="UTF-8" standalone="no"?>
<svg
   xmlns:dc="http://purl.org/dc/elements/1.1/"
   xmlns:cc="http://creativecommons.org/ns#"
   xmlns:rdf="http://www.w3.org/1999/02/22-rdf-syntax-ns#"
   xmlns:svg="http://www.w3.org/2000/svg"
   xmlns="http://www.w3.org/2000/svg"
   xmlns:sodipodi="http://sodipodi.sourceforge.net/DTD/sodipodi-0.dtd"
   xmlns:inkscape="http://www.inkscape.org/namespaces/inkscape"
   width="48"
   version="1.1"
   height="48"
   id="svg8079"
   inkscape:version="0.91 r13725"
   sodipodi:docname="folder-lyx.svg">
  <metadata
     id="metadata8096">
    <rdf:RDF>
      <cc:Work
         rdf:about="">
        <dc:format>image/svg+xml</dc:format>
        <dc:type
           rdf:resource="http://purl.org/dc/dcmitype/StillImage" />
      </cc:Work>
    </rdf:RDF>
  </metadata>
  <defs
     id="defs8094" />
  <sodipodi:namedview
     pagecolor="#ffffff"
     bordercolor="#666666"
     borderopacity="1"
     objecttolerance="10"
     gridtolerance="10"
     guidetolerance="10"
     inkscape:pageopacity="0"
     inkscape:pageshadow="2"
     inkscape:window-width="640"
     inkscape:window-height="480"
     id="namedview8092"
     showgrid="false"
     inkscape:zoom="14.9375"
     inkscape:cx="18.443514"
     inkscape:cy="24.937238"
     inkscape:current-layer="svg8079" />
  <path
     style="opacity:.65;fill:#fff;stroke:none"
     id="rect4154"
     d="m 3,1.959 0,9.342 42,0 0,-6.9866 -22,0 0,-2.3555 z" />
  <rect
     style="stroke:none;fill:#444444;fill-opacity:1"
     width="18"
     x="4"
     y="2.9586298"
     height="11.773318"
     id="folderTab" />
  <rect
     style="stroke:none;fill:#444444;fill-opacity:1"
     width="40"
     x="4"
     y="5.313652"
     height="35.319954"
     id="folderBackground" />
  <rect
     width="35.999992"
     x="6"
     y="7.6680799"
     height="32.965004"
     style="fill:#ffffff;stroke:none"
     id="folderPaper" />
  <rect
     width="43.999996"
     x="2"
     y="10.022959"
     height="32.965298"
     style="fill:#f0544c;stroke:none;fill-opacity:1"
     id="folderFront" />
  <path
     style="fill:#ffffff;fill-rule:evenodd;stroke:none"
     id="path3012"
     d="m 30.000436,17.19406 2.743031,7.200457 -4.045971,5.623214 3.463022,1.097212 2.36581,-3.428789 1.062979,4.045972 4.731729,0.377221 -2.537304,-7.303266 4.251698,-5.245992 -4.354617,-0.960061 -1.78297,2.743031 -1.268597,-3.360213 -4.62892,-0.788676 z"
     inkscape:connector-curvature="0" />
  <path
     style="fill:#ffffff;fill-rule:evenodd;stroke:none"
     id="path3010"
     d="m 10.044883,19.354252 -0.1029182,0.137151 -3.9773953,1.885889 5.2459925,12.103571 8.400478,-4.14878 -1.714394,-3.531708 -4.080314,2.057274 -3.771668,-8.503397 z"
     inkscape:connector-curvature="0" />
  <path
     style="fill:#ffffff;fill-rule:evenodd;stroke:none"
     id="path3001"
     d="m 17.073846,20.52004 3.977395,8.674782 -0.857142,5.966093 4.937456,0.788676 1.200131,-6.651851 4.868881,-6.926154 -4.080314,-0.582839 -2.640113,3.634516 -2.160192,-4.183122 -5.245992,-0.719991 z"
     inkscape:connector-curvature="0" />
</svg>
