<?xml version="1.0" encoding="UTF-8" standalone="no"?>
<svg
   xmlns:dc="http://purl.org/dc/elements/1.1/"
   xmlns:cc="http://creativecommons.org/ns#"
   xmlns:rdf="http://www.w3.org/1999/02/22-rdf-syntax-ns#"
   xmlns:svg="http://www.w3.org/2000/svg"
   xmlns="http://www.w3.org/2000/svg"
   xmlns:sodipodi="http://sodipodi.sourceforge.net/DTD/sodipodi-0.dtd"
   xmlns:inkscape="http://www.inkscape.org/namespaces/inkscape"
   width="48"
   version="1.1"
   height="48"
   id="svg8626"
   inkscape:version="0.91 r13725"
   sodipodi:docname="folder-remote.svg">
  <metadata
     id="metadata8640">
    <rdf:RDF>
      <cc:Work
         rdf:about="">
        <dc:format>image/svg+xml</dc:format>
        <dc:type
           rdf:resource="http://purl.org/dc/dcmitype/StillImage" />
      </cc:Work>
    </rdf:RDF>
  </metadata>
  <defs
     id="defs8638" />
  <sodipodi:namedview
     pagecolor="#ffffff"
     bordercolor="#666666"
     borderopacity="1"
     objecttolerance="10"
     gridtolerance="10"
     guidetolerance="10"
     inkscape:pageopacity="0"
     inkscape:pageshadow="2"
     inkscape:window-width="640"
     inkscape:window-height="480"
     id="namedview8636"
     showgrid="false"
     inkscape:zoom="14.9375"
     inkscape:cx="25.271966"
     inkscape:cy="27.548117"
     inkscape:current-layer="svg8626" />
  <path
     style="opacity:.65;fill:#fff;stroke:none"
     id="rect4154"
     d="m 3,1.959 0,9.342 42,0 0,-6.9866 -22,0 0,-2.3555 z" />
  <rect
     style="stroke:none;fill:#444444;fill-opacity:1"
     width="18"
     x="4"
     y="2.9586298"
     height="11.773318"
     id="folderTab" />
  <rect
     style="stroke:none;fill:#444444;fill-opacity:1"
     width="40"
     x="4"
     y="5.313652"
     height="35.319954"
     id="folderBackground" />
  <rect
     width="35.999992"
     x="6"
     y="7.6680799"
     height="32.965004"
     style="fill:#ffffff;stroke:none"
     id="folderPaper" />
  <rect
     width="43.999996"
     x="2"
     y="10.022959"
     height="32.965298"
     style="fill:#f0544c;stroke:none;fill-opacity:1"
     id="folderFront" />
  <path
     inkscape:connector-curvature="0"
     d="m 14.1489,17.009 0,5 9.0156,0 0,10 -3.5,0 0,1.5 -5.5156,0 0,2 5.5156,0 0,1.5 9,0 0,-1.5 5.4844,0 0,-2 -5.4844,0 0,-1.5 -3.5,0 0,-10 8.9844,0 0,-5 z m 18,1 c 0.523635,-3.1e-5 1,0.476385 1,1 0,0.523615 -0.476365,1.00003 -1,1 -0.523635,-3.1e-5 -1,-0.476444 -1,-1 0,-0.523556 0.476365,-0.999969 1,-1 z m -7.9844,15.5 c 0.523635,-3.1e-5 1,0.476385 1,1 0,0.523615 -0.476365,1.00003 -1,1 -0.523635,-3.1e-5 -1,-0.476444 -1,-1 0,-0.523556 0.476365,-0.999969 1,-1 z"
     id="folderGlyph"
     style="fill:#ffffff;fill-rule:evenodd;stroke:none" />
</svg>
