<?xml version="1.0" encoding="UTF-8" standalone="no"?>
<svg
   xmlns:dc="http://purl.org/dc/elements/1.1/"
   xmlns:cc="http://creativecommons.org/ns#"
   xmlns:rdf="http://www.w3.org/1999/02/22-rdf-syntax-ns#"
   xmlns:svg="http://www.w3.org/2000/svg"
   xmlns="http://www.w3.org/2000/svg"
   xmlns:sodipodi="http://sodipodi.sourceforge.net/DTD/sodipodi-0.dtd"
   xmlns:inkscape="http://www.inkscape.org/namespaces/inkscape"
   width="48"
   version="1.1"
   height="48"
   id="svg10326"
   inkscape:version="0.91 r13725"
   sodipodi:docname="folder-music.svg">
  <metadata
     id="metadata10340">
    <rdf:RDF>
      <cc:Work
         rdf:about="">
        <dc:format>image/svg+xml</dc:format>
        <dc:type
           rdf:resource="http://purl.org/dc/dcmitype/StillImage" />
      </cc:Work>
    </rdf:RDF>
  </metadata>
  <defs
     id="defs10338" />
  <sodipodi:namedview
     pagecolor="#ffffff"
     bordercolor="#666666"
     borderopacity="1"
     objecttolerance="10"
     gridtolerance="10"
     guidetolerance="10"
     inkscape:pageopacity="0"
     inkscape:pageshadow="2"
     inkscape:window-width="640"
     inkscape:window-height="480"
     id="namedview10336"
     showgrid="false"
     inkscape:zoom="2.6406019"
     inkscape:cx="81.111391"
     inkscape:cy="12.812529"
     inkscape:current-layer="svg10326" />
  <path
     style="opacity:.65;fill:#fff;stroke:none"
     id="rect4154"
     d="m 3,1.959 0,9.342 42,0 0,-6.9866 -22,0 0,-2.3555 z" />
  <rect
     style="stroke:none;fill:#444444;fill-opacity:1"
     width="18"
     x="4"
     y="2.9586298"
     height="11.773318"
     id="folderTab" />
  <rect
     style="stroke:none;fill:#444444;fill-opacity:1"
     width="40"
     x="4"
     y="5.313652"
     height="35.319954"
     id="folderBackground" />
  <rect
     width="35.999992"
     x="6"
     y="7.6680799"
     height="32.965004"
     style="fill:#ffffff;stroke:none"
     id="folderPaper" />
  <rect
     width="43.999996"
     x="2"
     y="10.022959"
     height="32.965298"
     style="fill:#f0544c;stroke:none;fill-opacity:1"
     id="folderFront" />
  <path
     inkscape:connector-curvature="0"
     d="m 16.89868,17.071 0,3.9628 0,9.3053 c -0.463641,-0.23894 -0.970553,-0.388962 -1.4973,-0.388932 -1.82705,10e-5 -3.48722,1.65201 -3.48722,3.46749 0,1.81538 1.66017,3.46739 3.48722,3.46749 1.82705,9.9e-5 3.49111,-1.65191 3.49111,-3.46749 l 0,-12.3839 10.9659,0 0,9.30534 c -0.463638,-0.23894 -0.970552,-0.388962 -1.4973,-0.388932 -1.82705,10e-5 -3.48722,1.65201 -3.48722,3.46749 0,1.81538 1.66017,3.46739 3.48722,3.46749 1.82705,9.9e-5 3.49111,-1.65191 3.49111,-3.46749 l 0,-12.3839 0,-3.96285 -14.9536,0 z"
     id="folderGlyph"
     style="fill:#ffffff;fill-rule:evenodd;stroke:none" />
</svg>
