<?xml version="1.0" encoding="UTF-8" standalone="no"?>
<svg
   xmlns:dc="http://purl.org/dc/elements/1.1/"
   xmlns:cc="http://creativecommons.org/ns#"
   xmlns:rdf="http://www.w3.org/1999/02/22-rdf-syntax-ns#"
   xmlns:svg="http://www.w3.org/2000/svg"
   xmlns="http://www.w3.org/2000/svg"
   xmlns:sodipodi="http://sodipodi.sourceforge.net/DTD/sodipodi-0.dtd"
   xmlns:inkscape="http://www.inkscape.org/namespaces/inkscape"
   width="48"
   version="1.1"
   height="48"
   id="svg10338"
   inkscape:version="0.91 r13725"
   sodipodi:docname="folder-googleearth.svg">
  <metadata
     id="metadata10351">
    <rdf:RDF>
      <cc:Work
         rdf:about="">
        <dc:format>image/svg+xml</dc:format>
        <dc:type
           rdf:resource="http://purl.org/dc/dcmitype/StillImage" />
      </cc:Work>
    </rdf:RDF>
  </metadata>
  <sodipodi:namedview
     pagecolor="#ffffff"
     bordercolor="#666666"
     borderopacity="1"
     objecttolerance="10"
     gridtolerance="10"
     guidetolerance="10"
     inkscape:pageopacity="0"
     inkscape:pageshadow="2"
     inkscape:window-width="640"
     inkscape:window-height="480"
     id="namedview10349"
     showgrid="false"
     inkscape:zoom="14.9375"
     inkscape:cx="22.393305"
     inkscape:cy="27.280335"
     inkscape:current-layer="svg10338" />
  <path
     style="opacity:.65;fill:#fff;stroke:none"
     id="rect4154"
     d="m 3,1.959 0,9.342 42,0 0,-6.9866 -22,0 0,-2.3555 z" />
  <defs
     id="defs12" />
  <rect
     style="stroke:none;fill:#444444;fill-opacity:1"
     width="18"
     x="4"
     y="2.9586298"
     height="11.773318"
     id="folderTab" />
  <rect
     style="stroke:none;fill:#444444;fill-opacity:1"
     width="40"
     x="4"
     y="5.313652"
     height="35.319954"
     id="folderBackground" />
  <rect
     width="35.999992"
     x="6"
     y="7.6680799"
     height="32.965004"
     style="fill:#ffffff;stroke:none"
     id="folderPaper" />
  <rect
     width="43.999996"
     x="2"
     y="10.022959"
     height="32.965298"
     style="fill:#f0544c;stroke:none;fill-opacity:1"
     id="folderFront" />
  <path
     style="fill:#fff;stroke:none"
     id="path4206"
     d="m 24,14.4302 c -6.67429,0 -12.0938,5.41946 -12.0938,12.0937 0,6.67429 5.41946,12.0938 12.0938,12.0938 6.67429,0 12.0938,-5.41946 12.0938,-12.0938 0,-6.67429 -5.41946,-12.0938 -12.0938,-12.0938 z  m -.0312,1.5312 c 4.87297,0 8.96566,3.25909 10.25,7.71875 -0.23783,0.45679 -0.521522,0.7792 -0.90625,0.8125 -1.32226,0 -3.09977,-3.41488 -4.125,-4.5625 -1.53623,-1.71957 -3.67886,-3.375 -7.40625,-3.375 -0.653547,0 -1.17015,0.06265 -1.625,0.125 1.18499,-0.453273 2.46822,-0.71875 3.8125,-0.71875 z  m -4.7188,2.5 c 2.77672,0 4.80053,2.11047 6.96875,4.21875 1.38711,1.34863 5.24467,4.92549 8.3125,5.59375 -0.08641,0.567979 -0.202848,1.1212 -0.375,1.65625 -6.74777,-0.776762 -13.1091,-8.40625 -16.7188,-8.40625 -1.34447,0 -2.63643,1.04314 -3.75,2.15625 0.541985,-1.88164 1.6066,-3.51234 3,-4.8125 0.752343,-0.226267 1.61525,-0.40625 2.5625,-0.40625 z  m -3.6562,11.7188 c 1.66509,0 6.33342,3.34375 12.5312,3.34375 1.78997,0 3.50695,-0.454657 4.6875,-0.875 -0.493237,0.731252 -1.06455,1.38134 -1.71875,1.96875 -1.23577,0.385837 -2.92497,0.75 -4.75,0.75 -3.99695,0 -5.0732,-0.90625 -6.15625,-0.90625 -1.2255,0 -1.00868,1.08092 -0.6875,1.90625 -2.27802,-1.0528 -4.14902,-2.88794 -5.21875,-5.15625 0.225989,-0.561783 0.633514,-1.03125 1.3125,-1.03125 z " />
</svg>
