<?xml version="1.0" encoding="UTF-8" standalone="no"?>
<svg
   xmlns:dc="http://purl.org/dc/elements/1.1/"
   xmlns:cc="http://creativecommons.org/ns#"
   xmlns:rdf="http://www.w3.org/1999/02/22-rdf-syntax-ns#"
   xmlns:svg="http://www.w3.org/2000/svg"
   xmlns="http://www.w3.org/2000/svg"
   xmlns:sodipodi="http://sodipodi.sourceforge.net/DTD/sodipodi-0.dtd"
   xmlns:inkscape="http://www.inkscape.org/namespaces/inkscape"
   width="48"
   version="1.1"
   height="48"
   id="svg7498"
   inkscape:version="0.91 r13725"
   sodipodi:docname="folder-qt.svg">
  <metadata
     id="metadata7518">
    <rdf:RDF>
      <cc:Work
         rdf:about="">
        <dc:format>image/svg+xml</dc:format>
        <dc:type
           rdf:resource="http://purl.org/dc/dcmitype/StillImage" />
      </cc:Work>
    </rdf:RDF>
  </metadata>
  <defs
     id="defs7516" />
  <sodipodi:namedview
     pagecolor="#ffffff"
     bordercolor="#666666"
     borderopacity="1"
     objecttolerance="10"
     gridtolerance="10"
     guidetolerance="10"
     inkscape:pageopacity="0"
     inkscape:pageshadow="2"
     inkscape:window-width="640"
     inkscape:window-height="480"
     id="namedview7514"
     showgrid="false"
     inkscape:zoom="14.9375"
     inkscape:cx="27.615062"
     inkscape:cy="26.543933"
     inkscape:current-layer="svg7498" />
  <path
     style="opacity:.65;fill:#fff;stroke:none"
     id="rect4154"
     d="m 3,1.959 0,9.342 42,0 0,-6.9866 -22,0 0,-2.3555 z" />
  <rect
     style="stroke:none;fill:#444444;fill-opacity:1"
     id="folderTab"
     height="11.773318"
     y="2.9586298"
     x="4"
     width="18" />
  <rect
     style="stroke:none;fill:#444444;fill-opacity:1"
     id="folderBackground"
     height="35.319954"
     y="5.313652"
     x="4"
     width="40" />
  <rect
     id="folderPaper"
     style="fill:#ffffff;stroke:none"
     height="32.965004"
     y="7.6680799"
     x="6"
     width="35.999992" />
  <rect
     id="folderFront"
     style="fill:#3498db;stroke:none"
     height="32.965298"
     y="10.022959"
     x="2"
     width="43.999996" />
  <rect
     width="35.999992"
     x="6"
     y="7.6680799"
     height="32.965004"
     style="fill:#ffffff;stroke:none"
     id="rect3849" />
  <rect
     width="43.999996"
     x="2"
     y="10.022959"
     height="32.965298"
     style="fill:#f0544c;stroke:none;fill-opacity:1"
     id="rect3851" />
  <rect
     width="30"
     x="9.380971"
     y="11.101083"
     height="30"
     style="fill:none;stroke:none"
     id="rect3265" />
  <path
     style="fill:#ffffff;stroke:none"
     id="path2995"
     d="m 23.906275,14.69324 c -6.20755,0 -11.3125,5.10495 -11.3125,11.3125 0,6.20755 5.10495,11.2812 11.3125,11.2812 2.40486,0 4.63327,-0.768557 6.46875,-2.0625 l 2.25,2.25 2.7812,-2.75 -2.2812,-2.25 c 1.29394,-1.83547 2.0625,-4.06389 2.0625,-6.46875 0,-6.20755 -5.0737,-11.3125 -11.2812,-11.3125 z m 0,3.9062 c 4.10515,0 7.375,3.3011 7.375,7.40625 0,1.33987 -0.354385,2.57665 -0.96875,3.65625 l -3.6562,-3.6562 2.3438,-2.375 -2.75,-2.75 -7.4688,7.4688 2.75,2.75 2.375,-2.375 3.6562,3.6875 c -1.0796,0.614365 -2.31638,0.96875 -3.65625,0.96875 -4.10515,0 -7.40625,-3.26985 -7.40625,-7.375 0,-4.10515 3.3011,-7.40625 7.40625,-7.40625 z"
     inkscape:connector-curvature="0" />
</svg>
