<?xml version="1.0" encoding="UTF-8" standalone="no"?>
<svg
   xmlns:dc="http://purl.org/dc/elements/1.1/"
   xmlns:cc="http://creativecommons.org/ns#"
   xmlns:rdf="http://www.w3.org/1999/02/22-rdf-syntax-ns#"
   xmlns:svg="http://www.w3.org/2000/svg"
   xmlns="http://www.w3.org/2000/svg"
   xmlns:sodipodi="http://sodipodi.sourceforge.net/DTD/sodipodi-0.dtd"
   xmlns:inkscape="http://www.inkscape.org/namespaces/inkscape"
   width="48"
   version="1.1"
   height="48"
   id="svg2"
   inkscape:version="0.91 r13725"
   sodipodi:docname="folder-pictures.svg">
  <metadata
     id="metadata17">
    <rdf:RDF>
      <cc:Work
         rdf:about="">
        <dc:format>image/svg+xml</dc:format>
        <dc:type
           rdf:resource="http://purl.org/dc/dcmitype/StillImage" />
      </cc:Work>
    </rdf:RDF>
  </metadata>
  <defs
     id="defs15" />
  <sodipodi:namedview
     pagecolor="#ffffff"
     bordercolor="#666666"
     borderopacity="1"
     objecttolerance="10"
     gridtolerance="10"
     guidetolerance="10"
     inkscape:pageopacity="0"
     inkscape:pageshadow="2"
     inkscape:window-width="640"
     inkscape:window-height="480"
     id="namedview13"
     showgrid="false"
     inkscape:zoom="5.2812038"
     inkscape:cx="41.49338"
     inkscape:cy="6.2325641"
     inkscape:current-layer="svg2" />
  <path
     style="opacity:.65;fill:#fff;stroke:none"
     id="rect4154"
     d="m 3,1.959 0,9.342 42,0 0,-6.9866 -22,0 0,-2.3555 z" />
  <rect
     style="stroke:none;fill:#444444;fill-opacity:1"
     width="18"
     x="4"
     y="2.9586298"
     height="11.773318"
     id="folderTab" />
  <rect
     style="stroke:none;fill:#444444;fill-opacity:1"
     width="40"
     x="4"
     y="5.313652"
     height="35.319954"
     id="folderBackground" />
  <rect
     width="35.999992"
     x="6"
     y="7.6680799"
     height="32.965004"
     style="fill:#ffffff;stroke:none"
     id="folderPaper" />
  <rect
     width="43.999996"
     x="2"
     y="10.022959"
     height="32.965298"
     style="fill:#f0544c;stroke:none;fill-opacity:1"
     id="folderFront" />
  <path
     style="fill:#ffffff;stroke:none"
     id="path3026"
     d="m 19.658682,13.651276 0,4.904516 5.81276,0 c -0.0998,-0.202222 -0.17901,-0.402309 -0.254308,-0.617606 -0.373603,-1.133705 -0.29566,-2.695179 1.41686,-2.942709 0.0848,-0.01224 0.140936,-0.02994 0.217979,-0.03633 0.07704,-0.0064 0.178788,-0.01011 0.254308,0 1.057335,0.141784 1.671447,1.290944 2.034466,2.252444 0.16647,0.440919 0.283082,0.889181 0.399627,1.344201 l 0.108989,0 0,0.435957 c 0.104072,0.462646 0.184916,0.945978 0.254309,1.41686 -0.08899,-0.0095 -0.164443,-0.03261 -0.254309,-0.03633 l 0,6.503025 c 0.35286,-0.0091 0.700403,-0.104758 1.017233,-0.217979 0.259902,0.546797 0.802587,1.248779 1.598509,1.816488 0.339305,0.242019 0.909474,0.571104 1.52585,0.653935 0.219883,0.559591 0.196569,1.161682 -0.363298,1.707499 -0.540853,0.527282 -1.342794,0.566874 -2.034466,0.254308 -0.813214,-0.410938 -1.355384,-1.166551 -1.743828,-1.998136 l 0,1.41686 c 0.10942,0.173295 0.201073,0.348536 0.326968,0.508616 -0.0708,0.26753 -0.162099,0.478527 -0.326968,0.617606 l 0,1.671169 9.482065,0 0,-19.654337 -19.472746,0 z m 11.225835,1.12628 c 0.725503,-0.064 1.15819,0.329373 1.525849,0.871914 0.581996,0.858826 0.412357,2.080027 0.181649,3.051699 -0.195083,0.879005 -0.542872,1.709672 -0.871914,2.543083 -0.414166,-0.375782 -0.923757,-0.643332 -1.48952,-0.762925 0.06956,-1.109129 0.09944,-2.348762 -0.326968,-3.451326 -0.08015,-0.217218 -0.364099,-0.580204 -0.472286,-0.799255 0.04864,-0.126509 0.02339,-0.375398 0.181648,-0.617605 0.330348,-0.505589 0.683244,-0.783677 1.271542,-0.835585 z m 3.814565,2.361376 c 0.430199,0.0094 0.888497,0.152519 1.198882,0.472287 0.473926,0.371249 0.489702,0.901835 0.399627,1.525849 -0.144894,1.00378 -1.465024,2.328592 -2.506752,3.160688 -0.342563,0.272065 -0.708798,0.5628 -1.053563,0.835585 -0.09869,-0.634572 -0.35268,-1.215193 -0.762925,-1.671169 0.705087,-0.541811 1.211123,-1.373148 1.307871,-2.325104 0.03959,-0.389487 -0.0738,-0.905466 -0.07266,-1.307871 0.174135,-0.242687 0.362601,-0.344056 0.617605,-0.472287 0.237199,-0.119277 0.613794,-0.223675 0.871914,-0.217978 z m -25.83051,2.543082 0,19.654337 19.472746,0 0,-19.654337 -19.472746,0 z m 11.189563,1.162552 c 0.725503,-0.064 1.194522,0.293044 1.562179,0.835585 0.581996,0.858826 0.412357,2.080026 0.181649,3.051699 -0.195083,0.879004 -0.542872,1.709672 -0.871914,2.543082 -0.414166,-0.375782 -0.923757,-0.643332 -1.48952,-0.762925 0.06956,-1.109129 0.09944,-2.312432 -0.326968,-3.414996 -0.08015,-0.217218 -0.364099,-0.616534 -0.472286,-0.835584 0.04864,-0.126509 -0.01294,-0.339069 0.145319,-0.581276 0.330347,-0.505588 0.683243,-0.783677 1.271541,-0.835585 z m 16.348387,0.03627 c 0.62249,0.01965 0.92637,0.216014 1.198882,0.944574 0.218941,0.585334 -0.06172,1.270308 -0.435957,1.743828 -0.91527,1.080911 -2.259675,1.868976 -3.669305,1.961806 -0.407537,0.05033 -0.787023,-0.05941 -1.162552,-0.217978 0.30551,-0.49438 0.472287,-1.046911 0.472287,-1.671169 0,-0.08697 -0.02959,-0.169082 -0.03633,-0.254308 0.451462,0.08501 1.022851,-0.06231 1.634839,-0.617606 0.56004,-0.508158 1.247302,-1.230608 1.707498,-1.852817 0.08595,-0.01311 0.201715,-0.03912 0.290638,-0.03633 z m -20.34466,0.109047 c 0.07704,-0.0064 0.178789,-0.01011 0.254309,0 1.057335,0.141784 1.671447,1.290945 2.034466,2.252445 0.387471,1.026268 0.60284,2.110683 0.762924,3.197018 -0.114023,-0.01222 -0.209703,-0.03633 -0.326967,-0.03633 -0.692124,0 -1.363511,0.246057 -1.889147,0.617606 -1.126102,-0.722597 -2.022864,-1.771927 -2.470423,-3.051699 -0.373603,-1.133706 -0.295661,-2.695179 1.41686,-2.94271 0.0848,-0.01224 0.140936,-0.02994 0.217978,-0.03633 z m 7.847226,2.179785 c 0.430199,0.0094 0.888497,0.152519 1.198882,0.472287 0.473926,0.37125 0.489702,0.938166 0.399627,1.562179 -0.144894,1.00378 -1.465024,2.328592 -2.506752,3.160689 -0.342563,0.272065 -0.708798,0.526469 -1.053563,0.799254 -0.09869,-0.634572 -0.35268,-1.215192 -0.762925,-1.671168 0.705087,-0.541811 1.211124,-1.373149 1.307871,-2.325104 0.03958,-0.389488 -0.0738,-0.905467 -0.07266,-1.307871 0.174135,-0.242688 0.326271,-0.344056 0.581276,-0.472287 0.237199,-0.119278 0.650123,-0.223675 0.908243,-0.217979 z m -11.334882,1.707557 c 0.101201,-0.01459 0.198378,-0.0014 0.290638,0 0.501763,0.0077 0.95948,0.178136 1.416861,0.399627 0.470639,0.907454 1.533127,1.52814 2.434093,1.889147 -0.585805,0.492098 -1.039764,1.206648 -1.162552,1.998136 -0.82243,-0.04192 -1.584954,-0.214012 -2.325104,-0.581276 -0.857082,-0.452902 -1.506261,-0.888816 -1.780158,-1.852817 -0.140466,-0.494389 -0.09925,-1.069398 0.217979,-1.41686 0.247248,-0.270819 0.60466,-0.392199 0.908243,-0.435957 z m 23.57795,0.435957 c 0.07186,0.03981 0.1479,0.101153 0.217979,0.145319 1.012135,0.583716 1.241407,1.857921 0.217978,2.688401 -1.219982,0.98998 -2.972738,0.300097 -4.177921,-0.399627 -0.578261,-0.317103 -1.062208,-0.736042 -1.562179,-1.162552 0.55063,-0.238234 1.039207,-0.604128 1.38053,-1.089892 0.205546,0.400939 1.089925,0.694787 1.562179,0.653935 0.841132,-0.07275 1.64965,-0.375076 2.361434,-0.835584 z m -10.826265,1.63478 c 0.08595,-0.01311 0.201714,-0.0028 0.290638,0 0.622489,0.01965 0.926369,0.179684 1.198881,0.908244 0.218941,0.585335 -0.06172,1.270309 -0.435957,1.743828 -0.91527,1.080912 -2.259675,1.868977 -3.669304,1.961807 -0.407538,0.05033 -0.787024,-0.02308 -1.162552,-0.181649 0.305509,-0.49438 0.472286,-1.08324 0.472286,-1.707498 0,-0.08697 -0.02959,-0.169082 -0.03633,-0.254309 0.451462,0.08501 1.02285,-0.06231 1.634838,-0.617605 0.56004,-0.508159 1.247302,-1.230608 1.707499,-1.852818 z M 11.811224,28.5102 c 0.250275,0.226657 0.761432,0.510185 1.271541,0.690265 0.774372,0.273374 1.746176,0.425648 2.470423,0.254308 -0.0041,0.06736 0,0.113233 0,0.181649 0,0.373422 0.06528,0.756702 0.181649,1.089893 -0.762583,-0.171495 -1.840413,-0.09998 -2.506753,0.108989 -0.666348,0.208984 -1.559599,0.733081 -1.925477,1.198882 -0.781672,-0.256768 -1.201532,-0.86952 -1.271541,-1.198882 -0.1237713,-0.582313 0.138462,-1.237014 0.690265,-1.707498 0.293969,-0.250649 0.612538,-0.505129 1.089893,-0.617606 z m 3.996272,2.397763 c 0.336827,0.810216 0.962372,1.460956 1.780158,1.780158 -1.020656,1.738132 -3.359148,3.618397 -4.940846,2.94271 -2.143804,-0.915805 -1.437821,-3.370157 0.835584,-4.177921 0.768228,-0.27296 1.53179,-0.474159 2.325104,-0.544947 z m 9.554782,0.435957 c 0.07186,0.03981 0.111571,0.101154 0.181649,0.145319 1.012135,0.583716 1.277738,1.857921 0.254308,2.688402 -1.219982,0.989979 -2.972738,0.300096 -4.177921,-0.399627 -0.57826,-0.317104 -1.062207,-0.699713 -1.562179,-1.126223 0.55063,-0.238233 1.039208,-0.640458 1.38053,-1.126222 0.205547,0.40094 1.089925,0.694788 1.56218,0.653936 0.841132,-0.07275 1.649649,-0.375077 2.361433,-0.835585 z m -5.522122,1.380531 c 0.259902,0.546797 0.838917,1.248778 1.634839,1.816487 0.339305,0.242019 0.909474,0.534774 1.52585,0.617606 0.219882,0.559591 0.196569,1.161681 -0.363298,1.707498 -0.540853,0.527283 -1.342794,0.566875 -2.034466,0.254309 -1.084285,-0.547918 -1.749327,-1.687852 -2.107125,-2.833721 -0.144064,-0.446403 -0.183358,-0.929508 -0.217979,-1.41686 0.171751,0.02831 0.32887,0.03633 0.508617,0.03633 0.380556,0 0.714524,-0.06049 1.053562,-0.181649 z m -1.925418,0.03627 c 0.02488,0.0073 0.08348,0.02738 0.108989,0.03633 0.03842,0.542559 -0.07358,1.312754 0.03633,1.816488 0.210557,0.965181 0.580677,1.776739 1.126222,2.470423 -0.130987,0.494931 -0.382151,0.703382 -0.908244,0.835584 -0.710805,0.178617 -1.502214,0.0034 -1.998136,-0.581276 -0.3866,-0.455709 -0.659667,-1.071699 -0.581276,-1.671169 1.250499,-0.527304 1.877917,-1.790458 2.216115,-2.90638 z"
     inkscape:connector-curvature="0" />
</svg>
