<?xml version="1.0" encoding="UTF-8" standalone="no"?>
<svg
   xmlns:dc="http://purl.org/dc/elements/1.1/"
   xmlns:cc="http://creativecommons.org/ns#"
   xmlns:rdf="http://www.w3.org/1999/02/22-rdf-syntax-ns#"
   xmlns:svg="http://www.w3.org/2000/svg"
   xmlns="http://www.w3.org/2000/svg"
   xmlns:sodipodi="http://sodipodi.sourceforge.net/DTD/sodipodi-0.dtd"
   xmlns:inkscape="http://www.inkscape.org/namespaces/inkscape"
   width="48"
   version="1.1"
   height="48"
   id="svg4701"
   inkscape:version="0.91 r13725"
   sodipodi:docname="folder-important.svg">
  <metadata
     id="metadata4715">
    <rdf:RDF>
      <cc:Work
         rdf:about="">
        <dc:format>image/svg+xml</dc:format>
        <dc:type
           rdf:resource="http://purl.org/dc/dcmitype/StillImage" />
      </cc:Work>
    </rdf:RDF>
  </metadata>
  <defs
     id="defs4713" />
  <sodipodi:namedview
     pagecolor="#ffffff"
     bordercolor="#666666"
     borderopacity="1"
     objecttolerance="10"
     gridtolerance="10"
     guidetolerance="10"
     inkscape:pageopacity="0"
     inkscape:pageshadow="2"
     inkscape:window-width="640"
     inkscape:window-height="480"
     id="namedview4711"
     showgrid="false"
     inkscape:zoom="14.9375"
     inkscape:cx="22.594142"
     inkscape:cy="24.334728"
     inkscape:current-layer="svg4701" />
  <path
     style="opacity:.65;fill:#fff;stroke:none"
     id="rect4154"
     d="m 3,1.959 0,9.342 42,0 0,-6.9866 -22,0 0,-2.3555 z" />
  <rect
     style="stroke:none;fill:#444444;fill-opacity:1"
     width="18"
     x="4"
     y="2.9586298"
     height="11.773318"
     id="folderTab" />
  <rect
     style="stroke:none;fill:#444444;fill-opacity:1"
     width="40"
     x="4"
     y="5.313652"
     height="35.319954"
     id="folderBackground" />
  <rect
     width="35.999992"
     x="6"
     y="7.6680799"
     height="32.965004"
     style="fill:#ffffff;stroke:none"
     id="folderPaper" />
  <rect
     width="43.999996"
     x="2"
     y="10.022959"
     height="32.965298"
     style="fill:#f0544c;stroke:none;fill-opacity:1"
     id="folderFront" />
  <path
     inkscape:connector-curvature="0"
     d="m 23.9702,14.066 c -0.57822,0 -1.09599,0.329209 -1.38728,0.852488 l -9.9122,18.8553 c -0.233226,0.465136 -0.23775,1.08981 0.04942,1.55495 0.287172,0.465136 0.743755,0.702464 1.32198,0.702464 l 19.8914,0 c 0.578219,0 1.10463,-0.286746 1.33786,-0.751884 0.291048,-0.465136 0.29441,-1.04756 0.06531,-1.57084 l -9.9792,-18.8395 C 25.070562,14.3457 24.54843,14.06591 23.97021,14.06591 Z m -0.1165,3.8459 c 1.23118,-0.0072 2.37844,1.10745 2.22388,2.02267 -0.377665,2.71304 -0.896782,5.40604 -1.22137,8.12246 l -1.5373,0 c -0.391312,-2.82865 -0.927589,-5.30485 -1.38728,-8.12246 -0.162768,-0.901693 0.690888,-2.0154 1.92207,-2.02267 z m 0.1006,12.4026 c 0.768647,-0.0031 1.55088,0.424954 1.90442,1.13665 0.631902,1.10157 -0.0026,2.62755 -1.23549,2.94223 -1.27298,0.429588 -2.77441,-0.634127 -2.72514,-1.98914 -0.01553,-0.632875 0.303082,-1.2081 0.785419,-1.60437 0.35783,-0.326814 0.809603,-0.48371 1.27079,-0.485371 z"
     id="path2993"
     style="fill:#ffffff;stroke:none" />
</svg>
