<?xml version="1.0" encoding="UTF-8" standalone="no"?>
<svg
   xmlns:dc="http://purl.org/dc/elements/1.1/"
   xmlns:cc="http://creativecommons.org/ns#"
   xmlns:rdf="http://www.w3.org/1999/02/22-rdf-syntax-ns#"
   xmlns:svg="http://www.w3.org/2000/svg"
   xmlns="http://www.w3.org/2000/svg"
   xmlns:sodipodi="http://sodipodi.sourceforge.net/DTD/sodipodi-0.dtd"
   xmlns:inkscape="http://www.inkscape.org/namespaces/inkscape"
   width="48"
   version="1.1"
   height="48"
   id="svg6416"
   inkscape:version="0.91 r13725"
   sodipodi:docname="folder-enlightenment.svg">
  <metadata
     id="metadata6436">
    <rdf:RDF>
      <cc:Work
         rdf:about="">
        <dc:format>image/svg+xml</dc:format>
        <dc:type
           rdf:resource="http://purl.org/dc/dcmitype/StillImage" />
      </cc:Work>
    </rdf:RDF>
  </metadata>
  <defs
     id="defs6434" />
  <sodipodi:namedview
     pagecolor="#ffffff"
     bordercolor="#666666"
     borderopacity="1"
     objecttolerance="10"
     gridtolerance="10"
     guidetolerance="10"
     inkscape:pageopacity="0"
     inkscape:pageshadow="2"
     inkscape:window-width="640"
     inkscape:window-height="480"
     id="namedview6432"
     showgrid="false"
     inkscape:zoom="14.9375"
     inkscape:cx="23.263598"
     inkscape:cy="25.07113"
     inkscape:current-layer="svg6416" />
  <path
     style="opacity:.65;fill:#fff;stroke:none"
     id="rect4154"
     d="m 3,1.959 0,9.342 42,0 0,-6.9866 -22,0 0,-2.3555 z" />
  <rect
     style="stroke:none;fill:#444444;fill-opacity:1"
     id="folderTab"
     height="11.773318"
     y="2.9586298"
     x="4"
     width="18" />
  <rect
     style="stroke:none;fill:#444444;fill-opacity:1"
     id="folderBackground"
     height="35.319954"
     y="5.313652"
     x="4"
     width="40" />
  <rect
     id="folderPaper"
     style="fill:#ffffff;stroke:none"
     height="32.965004"
     y="7.6680799"
     x="6"
     width="35.999992" />
  <rect
     id="folderFront"
     style="fill:#3498db;stroke:none"
     height="32.965298"
     y="10.022959"
     x="2"
     width="43.999996" />
  <rect
     width="35.999992"
     x="6"
     y="7.6680799"
     height="32.965004"
     style="fill:#ffffff;stroke:none"
     id="rect3849" />
  <rect
     width="43.999996"
     x="2"
     y="10.022959"
     height="32.965298"
     style="fill:#f0544c;stroke:none;fill-opacity:1"
     id="rect3851" />
  <rect
     width="30"
     x="9.380971"
     y="11.101083"
     height="30"
     style="fill:none;stroke:none"
     id="rect3265" />
  <path
     style="fill:#ffffff;stroke:none"
     id="path2995"
     d="m 23.967448,13.288263 c -0.166151,1.680266 -0.384083,2.773098 -1.0075,3.12 -0.6813,-0.208513 -1.151207,-1.250173 -1.6575,-2.86 0.179576,1.665758 0.201619,2.806295 -0.325,3.2825 -0.701453,-0.07887 -1.36551,-1.01139 -2.1775,-2.47 0.514852,1.606541 0.758441,2.711748 0.325,3.2825 -0.70682,0.08581 -1.529653,-0.680959 -2.6325,-1.95 0.830101,1.460504 1.277827,2.503156 0.975,3.1525 -0.673971,0.225723 -1.62396,-0.35534 -2.9575,-1.365 1.16897,1.32416 1.826344,2.278339 1.56,2.99 0.420788,-0.568378 0.446364,-0.617192 0.6825,-0.8775 0.221621,-0.244299 0.308597,-0.317567 0.7475,-0.715 0.437208,-0.387301 0.514764,-0.457966 0.78,-0.65 0.265162,-0.191968 0.341981,-0.259017 0.845,-0.5525 0.523162,-0.296929 0.607745,-0.321026 0.91,-0.455 0.289295,-0.12822 0.403538,-0.190049 0.91,-0.3575 0.588722,-0.188666 0.681177,-0.190268 1.0075,-0.26 0.323992,-0.06923 0.405591,-0.0954 1.0075,-0.1625 0.572519,-0.05689 0.682532,-0.065 1.0075,-0.065 0.339353,0 0.427919,2.34e-4 1.0725,0.065 0.561772,0.06303 0.659112,0.09499 0.975,0.1625 0.311164,0.0665 0.424878,0.09488 0.9425,0.26 0.575738,0.189476 0.671719,0.22308 0.975,0.3575 0.289447,0.128297 0.379319,0.158975 0.845,0.4225 0.565239,0.328973 0.633391,0.384742 0.91,0.585 0.269306,0.194978 0.35692,0.24609 0.8125,0.65 0.420452,0.381064 0.496827,0.474502 0.715,0.715 0.236135,0.260308 0.261712,0.309122 0.6825,0.8775 -0.266346,-0.711661 0.39103,-1.66584 1.56,-2.99 -1.333446,1.009586 -2.283538,1.590587 -2.9575,1.365 -0.302827,-0.649344 0.144899,-1.691996 0.975,-3.1525 -1.102182,1.26827 -1.925966,2.034708 -2.6325,1.95 -0.434193,-0.570536 -0.190074,-1.675273 0.325,-3.2825 -0.81246,1.459453 -1.475573,2.392042 -2.1775,2.47 -0.52534,-0.476867 -0.504431,-1.618083 -0.325,-3.2825 -0.510258,1.622442 -0.967197,2.6629 -1.6575,2.86 -0.633519,-0.338489 -0.872661,-1.427774 -1.04,-3.12 z m -0.03245,3.965 c -2.891845,0.04175 -5.714259,1.500294 -7.3775,3.9975 -2.546627,3.871504 -1.927931,9.565827 2.47,12.577553 3.845847,2.569268 7.44275,1.435168 9.6525,0.195 l -1.105,-1.917552 c -2.381787,1.269912 -5.162154,1.414472 -7.3125,-0.065 -3.306805,-2.21495 -3.95487,-6.57281 -1.9175,-9.62 2.004527,-3.058556 6.14431,-3.97854 9.425,-1.7875 3.453663,2.368039 3.260972,6.478587 2.405,8.32 -0.378123,-0.263056 -0.759375,-0.516944 -1.1375,-0.78 0.98568,-2.58259 -0.0086,-5.131214 -1.9825,-6.4675 -2.322195,-1.572095 -5.719511,-1.313977 -7.605,1.5275 -0.36864,0.56365 -0.348668,0.582911 -0.5525,1.1375 l 11.732448,7.930001 c 0.486363,-0.512151 0.501585,-0.505329 0.8125,-0.975001 2.642775,-3.992216 1.734938,-9.738747 -2.4375,-12.545 -1.570296,-1.069983 -3.334895,-1.552553 -5.07,-1.5275 z m -7.832448,14.82 c 0.266346,0.711661 -0.391032,1.665841 -1.56,2.99 1.33354,-1.009659 2.283528,-1.590721 2.9575,-1.365 0.302829,0.649344 -0.144899,1.691997 -0.975,3.1525 1.102514,-1.268644 1.92583,-2.035238 2.6325,-1.95 0.433765,0.570659 0.189948,1.675669 -0.325,3.282501 0.811994,-1.458611 1.476041,-2.391127 2.1775,-2.470001 0.526618,0.476207 0.504575,1.616743 0.325,3.282501 0.506138,-1.609349 0.976542,-2.651054 1.6575,-2.860001 0.62411,0.346325 0.841266,1.471413 1.0075,3.1525 0.167256,-1.691393 0.407182,-2.813418 1.04,-3.1525 0.690746,0.196542 1.147047,1.236945 1.6575,2.860001 -0.179417,-1.664292 -0.200222,-2.805577 0.325,-3.282501 0.702016,0.07778 1.364948,1.010384 2.1775,2.470001 -0.515074,-1.607227 -0.759194,-2.711967 -0.325,-3.282501 0.706652,-0.08516 1.530038,0.681414 2.6325,1.95 -0.830102,-1.460503 -1.277827,-2.503155 -0.975,-3.1525 0.673962,-0.225587 1.624054,0.355417 2.9575,1.365 -1.16897,-1.324148 -1.826344,-2.278338 -1.56,-2.99 -0.420789,0.568378 -0.446362,0.617194 -0.6825,0.8775 -0.217376,0.239621 -0.298722,0.337639 -0.715,0.715 -0.460079,0.407974 -0.54222,0.454315 -0.8125,0.65 -0.271081,0.196255 -0.343026,0.241087 -0.8775,0.5525 -0.493732,0.279836 -0.581649,0.323866 -0.8775,0.455 -0.298745,0.132411 -0.390017,0.175427 -0.9425,0.3575 -0.540351,0.172661 -0.658815,0.192432 -0.975,0.26 -0.315888,0.06751 -0.413228,0.09947 -0.975,0.1625 -0.64443,0.06476 -0.733175,0.065 -1.0725,0.065 -0.326263,0 -0.428781,-0.0074 -1.0075,-0.065 -0.596748,-0.06658 -0.684526,-0.09347 -1.0075,-0.1625 -0.32397,-0.06923 -0.430303,-0.07514 -1.0075,-0.26 -0.516509,-0.17064 -0.618586,-0.228339 -0.91,-0.3575 -0.307634,-0.136355 -0.393544,-0.175607 -0.9425,-0.4875 -0.479394,-0.28003 -0.551984,-0.331392 -0.8125,-0.52 -0.265235,-0.19203 -0.342792,-0.262698 -0.78,-0.65 -0.438903,-0.397433 -0.525879,-0.4707 -0.7475,-0.715 -0.236136,-0.260307 -0.261712,-0.309122 -0.6825,-0.8775 z"
     inkscape:connector-curvature="0" />
</svg>
