<?xml version="1.0" encoding="UTF-8" standalone="no"?>
<svg
   xmlns:dc="http://purl.org/dc/elements/1.1/"
   xmlns:cc="http://creativecommons.org/ns#"
   xmlns:rdf="http://www.w3.org/1999/02/22-rdf-syntax-ns#"
   xmlns:svg="http://www.w3.org/2000/svg"
   xmlns="http://www.w3.org/2000/svg"
   xmlns:sodipodi="http://sodipodi.sourceforge.net/DTD/sodipodi-0.dtd"
   xmlns:inkscape="http://www.inkscape.org/namespaces/inkscape"
   width="48"
   version="1.1"
   height="48"
   id="svg6948"
   inkscape:version="0.91 r13725"
   sodipodi:docname="folder-locked.svg">
  <metadata
     id="metadata6962">
    <rdf:RDF>
      <cc:Work
         rdf:about="">
        <dc:format>image/svg+xml</dc:format>
        <dc:type
           rdf:resource="http://purl.org/dc/dcmitype/StillImage" />
      </cc:Work>
    </rdf:RDF>
  </metadata>
  <defs
     id="defs6960" />
  <sodipodi:namedview
     pagecolor="#ffffff"
     bordercolor="#666666"
     borderopacity="1"
     objecttolerance="10"
     gridtolerance="10"
     guidetolerance="10"
     inkscape:pageopacity="0"
     inkscape:pageshadow="2"
     inkscape:window-width="640"
     inkscape:window-height="480"
     id="namedview6958"
     showgrid="false"
     inkscape:zoom="14.9375"
     inkscape:cx="27.079498"
     inkscape:cy="27.213389"
     inkscape:current-layer="svg6948" />
  <path
     style="opacity:.65;fill:#fff;stroke:none"
     id="rect4154"
     d="m 3,1.959 0,9.342 42,0 0,-6.9866 -22,0 0,-2.3555 z" />
  <rect
     style="stroke:none;fill:#444444;fill-opacity:1"
     width="18"
     x="4"
     y="2.9586298"
     height="11.773318"
     id="folderTab" />
  <rect
     style="stroke:none;fill:#444444;fill-opacity:1"
     width="40"
     x="4"
     y="5.313652"
     height="35.319954"
     id="folderBackground" />
  <rect
     width="35.999992"
     x="6"
     y="7.6680799"
     height="32.965004"
     style="fill:#ffffff;stroke:none"
     id="folderPaper" />
  <rect
     width="43.999996"
     x="2"
     y="10.022959"
     height="32.965298"
     style="fill:#f0544c;stroke:none;fill-opacity:1"
     id="folderFront" />
  <path
     inkscape:connector-curvature="0"
     d="m 23.6625,15.125 c -3.42788,0 -6.1875,2.62025 -6.1875,5.875 l 0,5.875 -2.475,0 0,11.75 18.15,0 0,-11.75 -2.475,0 0,-5.875 c 0,-3.25475 -2.75962,-5.875 -6.1875,-5.875 l -0.825,0 z m 0.4125,3.1333 c 1.8282,0 3.3,1.39747 3.3,3.13333 0,0.0052 -0.0016,0.01006 -0.0017,0.0153 l 0.0017,0 0,5.46804 -6.6,0 0,-5.46803 0.0017,0 c -6.5e-5,-0.0052 -0.0017,-0.01005 -0.0017,-0.0153 0,-1.73587 1.4718,-3.13333 3.3,-3.13333 z"
     id="rect3272"
     style="fill:#ffffff;fill-rule:evenodd;stroke:none" />
</svg>
