<?xml version="1.0" encoding="UTF-8" standalone="no"?>
<svg
   xmlns:dc="http://purl.org/dc/elements/1.1/"
   xmlns:cc="http://creativecommons.org/ns#"
   xmlns:rdf="http://www.w3.org/1999/02/22-rdf-syntax-ns#"
   xmlns:svg="http://www.w3.org/2000/svg"
   xmlns="http://www.w3.org/2000/svg"
   xmlns:sodipodi="http://sodipodi.sourceforge.net/DTD/sodipodi-0.dtd"
   xmlns:inkscape="http://www.inkscape.org/namespaces/inkscape"
   width="48"
   version="1.1"
   height="48"
   id="svg10304"
   inkscape:version="0.91 r13725"
   sodipodi:docname="folder-saved-search.svg">
  <metadata
     id="metadata10318">
    <rdf:RDF>
      <cc:Work
         rdf:about="">
        <dc:format>image/svg+xml</dc:format>
        <dc:type
           rdf:resource="http://purl.org/dc/dcmitype/StillImage" />
      </cc:Work>
    </rdf:RDF>
  </metadata>
  <defs
     id="defs10316" />
  <sodipodi:namedview
     pagecolor="#ffffff"
     bordercolor="#666666"
     borderopacity="1"
     objecttolerance="10"
     gridtolerance="10"
     guidetolerance="10"
     inkscape:pageopacity="0"
     inkscape:pageshadow="2"
     inkscape:window-width="640"
     inkscape:window-height="480"
     id="namedview10314"
     showgrid="false"
     inkscape:zoom="14.9375"
     inkscape:cx="20.719665"
     inkscape:cy="26.142259"
     inkscape:current-layer="svg10304" />
  <path
     style="opacity:.65;fill:#fff;stroke:none"
     id="rect4154"
     d="m 3,1.959 0,9.342 42,0 0,-6.9866 -22,0 0,-2.3555 z" />
  <rect
     style="stroke:none;fill:#444444;fill-opacity:1"
     width="18"
     x="4"
     y="2.9586298"
     height="11.773318"
     id="folderTab" />
  <rect
     style="stroke:none;fill:#444444;fill-opacity:1"
     width="40"
     x="4"
     y="5.313652"
     height="35.319954"
     id="folderBackground" />
  <rect
     width="35.999992"
     x="6"
     y="7.6680799"
     height="32.965004"
     style="fill:#ffffff;stroke:none"
     id="folderPaper" />
  <rect
     width="43.999996"
     x="2"
     y="10.022959"
     height="32.965298"
     style="fill:#f0544c;stroke:none;fill-opacity:1"
     id="folderFront" />
  <path
     inkscape:connector-curvature="0"
     d="m 19.5231,16.9471 c -2.87999,1.71e-4 -5.49805,2.62044 -5.49805,5.5 0,2.87956 2.61805,5.49983 5.49805,5.5 2.87999,1.71e-4 5.50195,-2.62012 5.50195,-5.5 0,-2.87988 -2.62196,-5.50017 -5.50195,-5.5 z m 0,2 c 1.83272,-1.09e-4 3.50195,1.66735 3.50195,3.5 0,1.83265 -1.66923,3.50011 -3.50195,3.5 -1.83272,-1.09e-4 -3.49805,-1.66755 -3.49805,-3.5 0,-1.83245 1.66532,-3.49989 3.49805,-3.5 z m 6.916,9 -1.4141,1.4141 7.5859,7.5859 1.4141,-1.4141 -7.5859,-7.5859 z"
     id="folderGlyph"
     style="fill:#ffffff;fill-rule:evenodd;stroke:none" />
</svg>
