<?xml version="1.0" encoding="UTF-8" standalone="no"?>
<svg
   xmlns:dc="http://purl.org/dc/elements/1.1/"
   xmlns:cc="http://creativecommons.org/ns#"
   xmlns:rdf="http://www.w3.org/1999/02/22-rdf-syntax-ns#"
   xmlns:svg="http://www.w3.org/2000/svg"
   xmlns="http://www.w3.org/2000/svg"
   xmlns:sodipodi="http://sodipodi.sourceforge.net/DTD/sodipodi-0.dtd"
   xmlns:inkscape="http://www.inkscape.org/namespaces/inkscape"
   width="48"
   version="1.1"
   height="48"
   id="svg6936"
   inkscape:version="0.91 r13725"
   sodipodi:docname="folder-python.svg">
  <metadata
     id="metadata6956">
    <rdf:RDF>
      <cc:Work
         rdf:about="">
        <dc:format>image/svg+xml</dc:format>
        <dc:type
           rdf:resource="http://purl.org/dc/dcmitype/StillImage" />
      </cc:Work>
    </rdf:RDF>
  </metadata>
  <defs
     id="defs6954" />
  <sodipodi:namedview
     pagecolor="#ffffff"
     bordercolor="#666666"
     borderopacity="1"
     objecttolerance="10"
     gridtolerance="10"
     guidetolerance="10"
     inkscape:pageopacity="0"
     inkscape:pageshadow="2"
     inkscape:window-width="640"
     inkscape:window-height="480"
     id="namedview6952"
     showgrid="false"
     inkscape:zoom="14.9375"
     inkscape:cx="25.338912"
     inkscape:cy="26.276151"
     inkscape:current-layer="svg6936" />
  <path
     style="opacity:.65;fill:#fff;stroke:none"
     id="rect4154"
     d="m 3,1.959 0,9.342 42,0 0,-6.9866 -22,0 0,-2.3555 z" />
  <rect
     style="stroke:none;fill:#444444;fill-opacity:1"
     id="folderTab"
     height="11.773318"
     y="2.9586298"
     x="4"
     width="18" />
  <rect
     style="stroke:none;fill:#444444;fill-opacity:1"
     id="folderBackground"
     height="35.319954"
     y="5.313652"
     x="4"
     width="40" />
  <rect
     id="folderPaper"
     style="fill:#ffffff;stroke:none"
     height="32.965004"
     y="7.6680799"
     x="6"
     width="35.999992" />
  <rect
     id="folderFront"
     style="fill:#3498db;stroke:none"
     height="32.965298"
     y="10.022959"
     x="2"
     width="43.999996" />
  <rect
     width="35.999992"
     x="6"
     y="7.6680799"
     height="32.965004"
     style="fill:#ffffff;stroke:none"
     id="rect3849" />
  <rect
     width="43.999996"
     x="2"
     y="10.022959"
     height="32.965298"
     style="fill:#f0544c;stroke:none;fill-opacity:1"
     id="rect3851" />
  <rect
     width="30"
     x="9.380971"
     y="11.101083"
     height="30"
     style="fill:none;stroke:none"
     id="rect3265" />
  <path
     style="fill:#ffffff;stroke:none"
     id="path2997"
     d="m 24.037456,12.637294 c -1.112329,0.0052 -2.152359,0.109015 -3.087029,0.274403 -2.753433,0.486441 -3.258531,1.483772 -3.258531,3.361432 l 0,2.469623 6.517062,0 0,0.857508 -6.517062,0 -2.435323,0 c -1.891029,0 -3.56382,1.130605 -4.081739,3.292832 -0.597419,2.478415 -0.623919,4.032093 0,6.619962 0.462519,1.926307 1.573304,3.292832 3.464333,3.292832 l 2.229521,0 0,-2.984129 c 0,-2.147639 1.875136,-4.047438 4.081739,-4.047438 l 6.482761,0 c 1.809126,0 3.258531,-1.475968 3.258531,-3.292831 l 0,-6.208359 c 0,-1.763355 -1.492772,-3.067141 -3.258531,-3.361432 -1.117751,-0.186067 -2.283403,-0.279561 -3.395732,-0.274403 z m -3.498633,1.989419 c 0.672096,0 1.200511,0.54893 1.200511,1.234812 0,0.68345 -0.528415,1.234812 -1.200511,1.234812 -0.674506,0 -1.234812,-0.551362 -1.234812,-1.234812 -10e-7,-0.685882 0.560306,-1.234812 1.234812,-1.234812 z m 10.976104,4.973493 0,2.881227 c 0,2.240058 -1.916088,4.116039 -4.081739,4.116039 l -6.482761,0 c -1.780215,0 -3.258531,1.510026 -3.258531,3.292831 l 0,6.208359 c 0,1.763355 1.538542,2.821232 3.258531,3.327131 2.059655,0.60562 4.018406,0.715071 6.482761,0 1.638085,-0.474278 3.258531,-1.449471 3.258531,-3.327131 l 0,-2.469624 -6.482761,0 0,-0.823207 6.482761,0 3.258531,0 c 1.891029,0 2.600887,-1.313017 3.258531,-3.292832 0.679324,-2.038185 0.65042,-4.005345 0,-6.619962 -0.467336,-1.882534 -1.365098,-3.292831 -3.258531,-3.292831 l -2.435323,0 z m -3.67019,15.675193 c 0.674507,0 1.234812,0.551362 1.234812,1.234812 0,0.68588 -0.560306,1.234812 -1.234812,1.234812 -0.672097,0 -1.234811,-0.548932 -1.234811,-1.234812 0,-0.68345 0.562714,-1.234812 1.234811,-1.234812 z"
     inkscape:connector-curvature="0" />
</svg>
