<?xml version="1.0" encoding="UTF-8" standalone="no"?>
<svg
   xmlns:dc="http://purl.org/dc/elements/1.1/"
   xmlns:cc="http://creativecommons.org/ns#"
   xmlns:rdf="http://www.w3.org/1999/02/22-rdf-syntax-ns#"
   xmlns:svg="http://www.w3.org/2000/svg"
   xmlns="http://www.w3.org/2000/svg"
   xmlns:sodipodi="http://sodipodi.sourceforge.net/DTD/sodipodi-0.dtd"
   xmlns:inkscape="http://www.inkscape.org/namespaces/inkscape"
   width="48"
   version="1.1"
   height="48"
   id="svg6956"
   inkscape:version="0.91 r13725"
   sodipodi:docname="folder-book.svg">
  <metadata
     id="metadata6975">
    <rdf:RDF>
      <cc:Work
         rdf:about="">
        <dc:format>image/svg+xml</dc:format>
        <dc:type
           rdf:resource="http://purl.org/dc/dcmitype/StillImage" />
      </cc:Work>
    </rdf:RDF>
  </metadata>
  <defs
     id="defs6973" />
  <sodipodi:namedview
     pagecolor="#ffffff"
     bordercolor="#666666"
     borderopacity="1"
     objecttolerance="10"
     gridtolerance="10"
     guidetolerance="10"
     inkscape:pageopacity="0"
     inkscape:pageshadow="2"
     inkscape:window-width="640"
     inkscape:window-height="480"
     id="namedview6971"
     showgrid="false"
     inkscape:zoom="14.9375"
     inkscape:cx="23.129707"
     inkscape:cy="24.669456"
     inkscape:current-layer="svg6956" />
  <path
     style="opacity:.65;fill:#fff;stroke:none"
     id="rect4154"
     d="m 3,1.959 0,9.342 42,0 0,-6.9866 -22,0 0,-2.3555 z" />
  <rect
     style="stroke:none;fill:#444444;fill-opacity:1"
     id="folderTab"
     height="11.773318"
     y="2.9586298"
     x="4"
     width="18" />
  <rect
     style="stroke:none;fill:#444444;fill-opacity:1"
     id="folderBackground"
     height="35.319954"
     y="5.313652"
     x="4"
     width="40" />
  <rect
     id="folderPaper"
     style="fill:#ffffff;stroke:none"
     height="32.965004"
     y="7.6680799"
     x="6"
     width="35.999992" />
  <rect
     id="folderFront"
     style="fill:#3498db;stroke:none"
     height="32.965298"
     y="10.022959"
     x="2"
     width="43.999996" />
  <rect
     width="35.999992"
     x="6"
     y="7.6680799"
     height="32.965004"
     style="fill:#ffffff;stroke:none"
     id="rect3849" />
  <rect
     width="43.999996"
     x="2"
     y="10.022959"
     height="32.965298"
     style="fill:#f0544c;stroke:none;fill-opacity:1"
     id="rect3851" />
  <rect
     width="30"
     x="9.380971"
     y="11.101083"
     height="30"
     style="fill:none;stroke:none"
     id="rect3265" />
  <path
     style="fill:#ffffff;stroke:none"
     id="path3001"
     d="m 33.3379,16.3825 0,20.25 c 0,0.552263 0.385721,1 0.875,1 l 5.375,0 c 0.48928,0 0.90625,-0.447737 0.90625,-1 l 0,-20.25 -7.15625,0 z m -9.3438,2.125 0,18.25 c 0,0.494858 0.416971,0.90625 0.90625,0.90625 l 5.375,0 c 0.489279,0 0.875,-0.411392 0.875,-0.90625 l 0,-18.25 -7.15625,0 z m -6.875,0.125 -11.5312,14.125 c -0.312805,0.383455 -0.285382,0.971971 0.09375,1.28125 l 4.1875,3.4062 c 0.379132,0.309279 0.937196,0.227204 1.25,-0.15625 l 11.5312,-14.1562 -5.5312,-4.5 z m -6.5,11.625 c 0.456632,-0.04238 0.929766,0.06278 1.3125,0.375 0.765469,0.624435 0.874434,1.76578 0.25,2.53125 -0.624434,0.765467 -1.76578,0.874434 -2.53125,0.25 -0.765469,-0.624435 -0.874434,-1.76578 -0.25,-2.53125 0.312217,-0.382734 0.762118,-0.58262 1.21875,-0.625 z M 36.9003,31.07 c 0.987857,0 1.8125,0.795218 1.8125,1.78125 0,0.986033 -0.824643,1.78125 -1.8125,1.78125 -0.987857,0 -1.78125,-0.795217 -1.78125,-1.78125 0,-0.986032 0.793393,-1.78125 1.78125,-1.78125 z m -9.3125,0.0312 c 0.987857,0 1.78125,0.793394 1.78125,1.78125 0,0.987855 -0.793393,1.8125 -1.78125,1.8125 -0.987856,0 -1.8125,-0.824645 -1.8125,-1.8125 0,-0.987856 0.824644,-1.78125 1.8125,-1.78125 z"
     inkscape:connector-curvature="0" />
</svg>
