<?xml version="1.0" encoding="UTF-8" standalone="no"?>
<svg
   xmlns:dc="http://purl.org/dc/elements/1.1/"
   xmlns:cc="http://creativecommons.org/ns#"
   xmlns:rdf="http://www.w3.org/1999/02/22-rdf-syntax-ns#"
   xmlns:svg="http://www.w3.org/2000/svg"
   xmlns="http://www.w3.org/2000/svg"
   xmlns:sodipodi="http://sodipodi.sourceforge.net/DTD/sodipodi-0.dtd"
   xmlns:inkscape="http://www.inkscape.org/namespaces/inkscape"
   width="48"
   version="1.1"
   height="48"
   id="svg5818"
   inkscape:version="0.91 r13725"
   sodipodi:docname="folder-kde.svg">
  <metadata
     id="metadata5838">
    <rdf:RDF>
      <cc:Work
         rdf:about="">
        <dc:format>image/svg+xml</dc:format>
        <dc:type
           rdf:resource="http://purl.org/dc/dcmitype/StillImage" />
      </cc:Work>
    </rdf:RDF>
  </metadata>
  <defs
     id="defs5836" />
  <sodipodi:namedview
     pagecolor="#ffffff"
     bordercolor="#666666"
     borderopacity="1"
     objecttolerance="10"
     gridtolerance="10"
     guidetolerance="10"
     inkscape:pageopacity="0"
     inkscape:pageshadow="2"
     inkscape:window-width="640"
     inkscape:window-height="480"
     id="namedview5834"
     showgrid="false"
     inkscape:zoom="14.9375"
     inkscape:cx="18.175732"
     inkscape:cy="26.945607"
     inkscape:current-layer="svg5818" />
  <path
     style="opacity:.65;fill:#fff;stroke:none"
     id="rect4154"
     d="m 3,1.959 0,9.342 42,0 0,-6.9866 -22,0 0,-2.3555 z" />
  <rect
     style="stroke:none;fill:#444444;fill-opacity:1"
     id="folderTab"
     height="11.773318"
     y="2.9586298"
     x="4"
     width="18" />
  <rect
     style="stroke:none;fill:#444444;fill-opacity:1"
     id="folderBackground"
     height="35.319954"
     y="5.313652"
     x="4"
     width="40" />
  <rect
     id="folderPaper"
     style="fill:#ffffff;stroke:none"
     height="32.965004"
     y="7.6680799"
     x="6"
     width="35.999992" />
  <rect
     id="folderFront"
     style="fill:#3498db;stroke:none"
     height="32.965298"
     y="10.022959"
     x="2"
     width="43.999996" />
  <rect
     width="35.999992"
     x="6"
     y="7.6680799"
     height="32.965004"
     style="fill:#ffffff;stroke:none"
     id="rect3849" />
  <rect
     width="43.999996"
     x="2"
     y="10.022959"
     height="32.965298"
     style="fill:#f0544c;stroke:none;fill-opacity:1"
     id="rect3851" />
  <rect
     width="30"
     x="9.380971"
     y="11.101083"
     height="30"
     style="fill:none;stroke:none"
     id="rect3265" />
  <path
     style="fill:#ffffff;stroke:none"
     id="path2994"
     d="m 25.34093,13.880812 -4.0938,0.4062 0,16.8125 4.0312,-0.625 0,-7.15625 5.4375,7.9375 4.25,-1.3438 -5.5625,-7.625 5.625,-7.2188 -4.3438,-1 -5.4062,7.2188 0.0625,-7.4062 z m -9.25,4.125 c -0.04614,0.0047 -0.12151,-0.0036 -0.15625,0.03125 l -1.5938,1.625 c -0.06738,0.06759 -0.0807,0.16818 -0.03125,0.25 l 1.875,3.0938 c -0.332861,0.559557 -0.590964,1.14489 -0.78125,1.78125 l -3.4375,0.7188 c -0.09584,0.01981 -0.1875,0.12054 -0.1875,0.21875 l 0,2.25 c 0,0.09584 0.09473,0.19615 0.1875,0.21875 l 3.3438,0.8125 c 0.178567,0.73673 0.447343,1.42035 0.8125,2.0625 l -1.9375,2.9688 c -0.05399,0.08231 -0.03837,0.18053 0.03125,0.25 l 1.5938,1.5938 c 0.06759,0.06738 0.16839,0.08093 0.25,0.03125 l 3.0312,-1.8438 c 0.595132,0.343603 1.25874,0.629189 1.9375,0.8125 l 0.6875,3.4062 c 0.01981,0.09612 0.12061,0.15625 0.21875,0.15625 l 2.25,0 c 0.09514,0 0.19615,-0.06321 0.21875,-0.15625 l 0.8125,-3.4062 c 0.700041,-0.188752 1.35827,-0.484384 1.96875,-0.84375 l 3,1.9688 c 0.08245,0.05371 0.18011,0.03821 0.25,-0.03125 l 1.625,-1.5938 c 0.0678,-0.06766 0.08091,-0.16839 0.03125,-0.25 l -1.0938,-1.8125 -0.375,0.125 c -0.05162,0.0159 -0.09431,-0.01758 -0.125,-0.0625 0,0 -0.695332,-0.99724 -1.59375,-2.3125 -1.07447,2.10249 -3.25745,3.53125 -5.78125,3.53125 -3.58627,-10e-7 -6.5,-2.91373 -6.5,-6.5 0,-2.63798 1.5848,-4.88967 3.84375,-5.90625 l 0,-1.6875 c -0.411123,0.1439 -0.809996,0.325618 -1.1875,0.53125 l -3.0625,-2.0312 c -0.04115,-0.02692 -0.07885,-0.0048 -0.125,0 z"
     inkscape:connector-curvature="0" />
</svg>
