<?xml version="1.0" encoding="UTF-8" standalone="no"?>
<svg
   xmlns:dc="http://purl.org/dc/elements/1.1/"
   xmlns:cc="http://creativecommons.org/ns#"
   xmlns:rdf="http://www.w3.org/1999/02/22-rdf-syntax-ns#"
   xmlns:svg="http://www.w3.org/2000/svg"
   xmlns="http://www.w3.org/2000/svg"
   xmlns:sodipodi="http://sodipodi.sourceforge.net/DTD/sodipodi-0.dtd"
   xmlns:inkscape="http://www.inkscape.org/namespaces/inkscape"
   width="48"
   version="1.1"
   height="48"
   id="svg6978"
   inkscape:version="0.91 r13725"
   sodipodi:docname="folder-favorites.svg">
  <metadata
     id="metadata6997">
    <rdf:RDF>
      <cc:Work
         rdf:about="">
        <dc:format>image/svg+xml</dc:format>
        <dc:type
           rdf:resource="http://purl.org/dc/dcmitype/StillImage" />
      </cc:Work>
    </rdf:RDF>
  </metadata>
  <defs
     id="defs6995" />
  <sodipodi:namedview
     pagecolor="#ffffff"
     bordercolor="#666666"
     borderopacity="1"
     objecttolerance="10"
     gridtolerance="10"
     guidetolerance="10"
     inkscape:pageopacity="0"
     inkscape:pageshadow="2"
     inkscape:window-width="640"
     inkscape:window-height="480"
     id="namedview6993"
     showgrid="false"
     inkscape:zoom="14.9375"
     inkscape:cx="20.317991"
     inkscape:cy="25.405858"
     inkscape:current-layer="svg6978" />
  <path
     style="opacity:.65;fill:#fff;stroke:none"
     id="rect4154"
     d="m 3,1.959 0,9.342 42,0 0,-6.9866 -22,0 0,-2.3555 z" />
  <rect
     style="stroke:none;fill:#444444;fill-opacity:1"
     id="folderTab"
     height="11.773318"
     y="2.9586298"
     x="4"
     width="18" />
  <rect
     style="stroke:none;fill:#444444;fill-opacity:1"
     id="folderBackground"
     height="35.319954"
     y="5.313652"
     x="4"
     width="40" />
  <rect
     id="folderPaper"
     style="fill:#ffffff;stroke:none"
     height="32.965004"
     y="7.6680799"
     x="6"
     width="35.999992" />
  <rect
     id="folderFront"
     style="fill:#3498db;stroke:none"
     height="32.965298"
     y="10.022959"
     x="2"
     width="43.999996" />
  <rect
     width="35.999992"
     x="6"
     y="7.6680799"
     height="32.965004"
     style="fill:#ffffff;stroke:none"
     id="rect3849" />
  <rect
     width="43.999996"
     x="2"
     y="10.022959"
     height="32.965298"
     style="fill:#f0544c;stroke:none;fill-opacity:1"
     id="rect3851" />
  <rect
     width="30"
     x="9.380971"
     y="11.101083"
     height="30"
     style="fill:none;stroke:none"
     id="rect3265" />
  <path
     style="fill:#ffffff;stroke:none"
     id="path39063"
     d="m 24.0485,13.9994 c 1.5317,-0.002 3.32243,5.10271 4.56275,6.00145 1.24032,0.898736 6.75946,1.05132 7.23463,2.50746 0.475175,1.45613 -3.88575,4.79074 -4.35722,6.24809 -0.471468,1.45734 1.07361,6.70268 -0.164423,7.60458 -1.23803,0.901891 -5.74403,-2.22167 -7.27573,-2.21972 -1.5317,0.002 -5.99431,3.11845 -7.23463,2.21972 -1.24032,-0.898736 0.310751,-6.10734 -0.164424,-7.56347 -0.475176,-1.45613 -4.8698,-4.79074 -4.39832,-6.24809 0.471468,-1.45734 5.95549,-1.60556 7.19352,-2.50746 1.23803,-0.901889 3.07215,-6.0406 4.60385,-6.04256 z"
     inkscape:connector-curvature="0" />
</svg>
