<?xml version="1.0" encoding="UTF-8" standalone="no"?>
<svg
   xmlns:dc="http://purl.org/dc/elements/1.1/"
   xmlns:cc="http://creativecommons.org/ns#"
   xmlns:rdf="http://www.w3.org/1999/02/22-rdf-syntax-ns#"
   xmlns:svg="http://www.w3.org/2000/svg"
   xmlns="http://www.w3.org/2000/svg"
   xmlns:sodipodi="http://sodipodi.sourceforge.net/DTD/sodipodi-0.dtd"
   xmlns:inkscape="http://www.inkscape.org/namespaces/inkscape"
   width="48"
   version="1.1"
   height="48"
   id="svg5821"
   inkscape:version="0.91 r13725"
   sodipodi:docname="folder-trash.svg">
  <metadata
     id="metadata5851">
    <rdf:RDF>
      <cc:Work
         rdf:about="">
        <dc:format>image/svg+xml</dc:format>
        <dc:type
           rdf:resource="http://purl.org/dc/dcmitype/StillImage" />
      </cc:Work>
    </rdf:RDF>
  </metadata>
  <defs
     id="defs5849" />
  <sodipodi:namedview
     pagecolor="#ffffff"
     bordercolor="#666666"
     borderopacity="1"
     objecttolerance="10"
     gridtolerance="10"
     guidetolerance="10"
     inkscape:pageopacity="0"
     inkscape:pageshadow="2"
     inkscape:window-width="640"
     inkscape:window-height="480"
     id="namedview5847"
     showgrid="false"
     inkscape:zoom="14.9375"
     inkscape:cx="20.050209"
     inkscape:cy="23.799163"
     inkscape:current-layer="svg5821" />
  <path
     style="opacity:.65;fill:#fff;stroke:none"
     id="rect4154"
     d="m 3,1.959 0,9.342 42,0 0,-6.9866 -22,0 0,-2.3555 z" />
  <rect
     style="stroke:none;fill:#444444;fill-opacity:1"
     id="folderTab"
     height="11.773318"
     y="2.9586298"
     x="4"
     width="18" />
  <rect
     style="stroke:none;fill:#444444;fill-opacity:1"
     id="folderBackground"
     height="35.319954"
     y="5.313652"
     x="4"
     width="40" />
  <rect
     id="folderPaper"
     style="fill:#ffffff;stroke:none"
     height="32.965004"
     y="7.6680799"
     x="6"
     width="35.999992" />
  <rect
     id="folderFront"
     style="fill:#3498db;stroke:none"
     height="32.965298"
     y="10.022959"
     x="2"
     width="43.999996" />
  <rect
     width="35.999992"
     x="6"
     y="7.6680799"
     height="32.965004"
     style="fill:#ffffff;stroke:none"
     id="rect3849" />
  <rect
     width="43.999996"
     x="2"
     y="10.022959"
     height="32.965298"
     style="fill:#f0544c;stroke:none;fill-opacity:1"
     id="rect3851" />
  <rect
     width="30"
     x="9.380971"
     y="11.101083"
     height="30"
     style="fill:none;stroke:none"
     id="rect3265" />
  <rect
     id="rect3280"
     style="fill:#ffffff;fill-rule:evenodd;stroke:none"
     height="18.648748"
     y="19.751734"
     x="14.675625"
     width="18.648748" />
  <g
     transform="matrix(0.621625,0,0,0.621625,9.0810004,-611.42266)"
     id="g4176"
     style="fill:#f0544c;fill-rule:evenodd;stroke:none;fill-opacity:1">
    <rect
       id="rect3340"
       height="20"
       y="1019.362"
       x="32.035389"
       width="4"
       style="fill:#f0544c;fill-opacity:1" />
    <rect
       id="rect3330"
       height="20"
       y="1019.362"
       x="22"
       width="4"
       style="fill:#f0544c;fill-opacity:1" />
    <rect
       id="rect3334"
       height="20"
       y="1019.362"
       x="11.965413"
       width="4"
       style="fill:#f0544c;fill-opacity:1" />
  </g>
  <g
     id="g5841"
     style="fill:#ffffff;fill-rule:evenodd;stroke:none"
     transform="matrix(0.84753522,0,0,0.84753522,3.3885167,4.3291577)">
    <g
       transform="matrix(0.73345034,0,0,0.73345034,6.7165158,-726.52063)"
       id="g4181">
      <rect
         id="rect3282"
         height="7"
         y="1015.3622"
         x="5.9999995"
         width="36" />
      <path
         inkscape:connector-curvature="0"
         transform="translate(0,1004.3622)"
         d="m 17,4 -2,5 0,2 2,0 0,-2 0,-5 z m 14,0 0,5 0,2 2,0 0,-2 -2,-5 z"
         id="path3376" />
    </g>
    <path
       inkscape:connector-curvature="0"
       d="m 19.1852,13.063 0,3.6673 10.2683,0 0,-3.6673 -10.2683,0 z"
       id="path3381" />
  </g>
</svg>
