<?xml version="1.0" encoding="UTF-8" standalone="no"?>
<svg
   xmlns:dc="http://purl.org/dc/elements/1.1/"
   xmlns:cc="http://creativecommons.org/ns#"
   xmlns:rdf="http://www.w3.org/1999/02/22-rdf-syntax-ns#"
   xmlns:svg="http://www.w3.org/2000/svg"
   xmlns="http://www.w3.org/2000/svg"
   xmlns:sodipodi="http://sodipodi.sourceforge.net/DTD/sodipodi-0.dtd"
   xmlns:inkscape="http://www.inkscape.org/namespaces/inkscape"
   width="48"
   version="1.1"
   height="48"
   id="svg13121"
   inkscape:version="0.91 r13725"
   sodipodi:docname="folder-pdf.svg">
  <metadata
     id="metadata13141">
    <rdf:RDF>
      <cc:Work
         rdf:about="">
        <dc:format>image/svg+xml</dc:format>
        <dc:type
           rdf:resource="http://purl.org/dc/dcmitype/StillImage" />
      </cc:Work>
    </rdf:RDF>
  </metadata>
  <defs
     id="defs13139" />
  <sodipodi:namedview
     pagecolor="#ffffff"
     bordercolor="#666666"
     borderopacity="1"
     objecttolerance="10"
     gridtolerance="10"
     guidetolerance="10"
     inkscape:pageopacity="0"
     inkscape:pageshadow="2"
     inkscape:window-width="640"
     inkscape:window-height="480"
     id="namedview13137"
     showgrid="false"
     inkscape:zoom="14.9375"
     inkscape:cx="23.330544"
     inkscape:cy="26.811716"
     inkscape:current-layer="svg13121" />
  <path
     style="opacity:.65;fill:#fff;stroke:none"
     id="rect4154"
     d="m 3,1.959 0,9.342 42,0 0,-6.9866 -22,0 0,-2.3555 z" />
  <rect
     style="stroke:none;fill:#444444;fill-opacity:1"
     id="folderTab"
     height="11.773318"
     y="2.9586298"
     x="4"
     width="18" />
  <rect
     style="stroke:none;fill:#444444;fill-opacity:1"
     id="folderBackground"
     height="35.319954"
     y="5.313652"
     x="4"
     width="40" />
  <rect
     id="folderPaper"
     style="fill:#ffffff;stroke:none"
     height="32.965004"
     y="7.6680799"
     x="6"
     width="35.999992" />
  <rect
     id="folderFront"
     style="fill:#3498db;stroke:none"
     height="32.965298"
     y="10.022959"
     x="2"
     width="43.999996" />
  <rect
     width="35.999992"
     x="6"
     y="7.6680799"
     height="32.965004"
     style="fill:#ffffff;stroke:none"
     id="rect3849" />
  <rect
     width="43.999996"
     x="2"
     y="10.022959"
     height="32.965298"
     style="fill:#f0544c;stroke:none;fill-opacity:1"
     id="rect3851" />
  <rect
     width="30"
     x="9.380971"
     y="11.101083"
     height="30"
     style="fill:none;stroke:none"
     id="rect3265" />
  <path
     style="fill:#ffffff;fill-rule:evenodd;stroke:none"
     id="path3006"
     d="m 24.424622,10.805496 c -0.484407,0.0039 -1.028761,0.234519 -1.506844,0.571562 -0.109135,0.05739 -0.215138,0.138833 -0.311761,0.233821 -0.133139,0.114565 -0.249426,0.238001 -0.311761,0.337741 -1.510885,2.095066 0.29809,5.858886 1.273024,8.001864 -0.558701,3.419252 -1.454228,6.805816 -2.598008,10.054331 -0.410015,1.164548 -0.874119,2.469271 -1.428904,3.767111 -2.528448,1.147347 -5.0552,2.459154 -7.144522,4.234753 -0.695714,0.591105 -1.518009,1.40886 -1.480864,2.390167 0.03537,0.949508 1.443096,1.238547 2.156346,1.273024 3.176038,0.154835 5.429446,-3.074287 6.832761,-5.481796 0.299876,-0.514393 0.583073,-1.050884 0.857342,-1.584785 0.732343,-0.31114 1.449631,-0.61689 2.156347,-0.909303 2.407243,-0.996953 4.984417,-2.016436 7.586182,-2.623988 0.123058,0.127409 0.238,0.265663 0.363722,0.389702 0.906717,0.894529 2.028183,1.848916 3.37741,1.818605 1.310002,-0.03031 2.407966,-1.169203 2.753888,-2.364187 0.724244,-2.503208 -3.261651,-1.885913 -4.520534,-1.662725 -0.243301,0.0432 -0.48482,0.106323 -0.727442,0.15588 -0.437604,-0.512866 -0.839776,-1.054849 -1.221063,-1.558804 -1.389348,-1.836912 -2.584399,-3.813651 -3.663191,-5.845518 -0.488177,-0.920584 -0.953091,-1.87646 -1.376944,-2.831828 0.04567,-0.285816 0.08782,-0.573074 0.1299,-0.857343 0.294809,-1.990257 0.699435,-4.356306 0.15588,-6.339139 -0.23552,-0.859612 -0.754769,-1.173892 -1.350964,-1.169103 z M 23.74914,12.49416 c 0.103812,0.200155 0.193032,0.537887 0.233821,0.753422 0.135221,0.709944 0.16096,1.447577 0.1299,2.182327 -0.181932,-0.641731 -0.341773,-1.285711 -0.415681,-1.948506 -0.03061,-0.271629 -0.02823,-0.533456 0,-0.805383 0.0054,-0.05131 0.03148,-0.121241 0.05196,-0.18186 z m 1.091164,10.158252 c 1.27807,2.576791 2.796237,5.119488 4.650433,7.300401 -2.704039,0.751981 -5.351023,1.816187 -7.897943,2.909769 1.455458,-3.234848 2.505868,-6.722779 3.24751,-10.210129 z m 8.937146,7.923882 c 0.601581,-0.02039 1.315548,0.03521 1.402924,0.415681 0.04428,0.193766 -0.06978,0.575408 -0.23382,0.753422 -0.01039,-0.0081 -0.01348,-0.02681 -0.05196,-0.02598 -0.240424,0.006 -0.519709,-0.128319 -0.727443,-0.233821 -0.436316,-0.220342 -0.8401,-0.506061 -1.221063,-0.831362 0.104319,-0.01208 0.207439,-0.04169 0.311761,-0.05196 0.150377,-0.01493 0.319074,-0.01916 0.519601,-0.02598 z M 18.709005,35.53853 c -0.837822,1.601454 -1.862335,3.074561 -3.195549,4.052892 -0.743858,0.545635 -1.789067,0.773684 -2.598008,0.207841 -0.154243,-0.107582 -0.119841,-0.216662 -0.07794,-0.311761 0.09956,-0.225862 0.466886,-0.569072 0.805382,-0.857343 1.47645,-1.254426 3.242239,-2.231967 5.066115,-3.091629 z"
     inkscape:connector-curvature="0" />
</svg>
