<?xml version="1.0" encoding="UTF-8" standalone="no"?>
<svg
   xmlns:dc="http://purl.org/dc/elements/1.1/"
   xmlns:cc="http://creativecommons.org/ns#"
   xmlns:rdf="http://www.w3.org/1999/02/22-rdf-syntax-ns#"
   xmlns:svg="http://www.w3.org/2000/svg"
   xmlns="http://www.w3.org/2000/svg"
   xmlns:sodipodi="http://sodipodi.sourceforge.net/DTD/sodipodi-0.dtd"
   xmlns:inkscape="http://www.inkscape.org/namespaces/inkscape"
   width="48"
   version="1.1"
   height="48"
   id="svg6955"
   inkscape:version="0.91 r13725"
   sodipodi:docname="folder-tv.svg">
  <metadata
     id="metadata6978">
    <rdf:RDF>
      <cc:Work
         rdf:about="">
        <dc:format>image/svg+xml</dc:format>
        <dc:type
           rdf:resource="http://purl.org/dc/dcmitype/StillImage" />
      </cc:Work>
    </rdf:RDF>
  </metadata>
  <defs
     id="defs6976" />
  <sodipodi:namedview
     pagecolor="#ffffff"
     bordercolor="#666666"
     borderopacity="1"
     objecttolerance="10"
     gridtolerance="10"
     guidetolerance="10"
     inkscape:pageopacity="0"
     inkscape:pageshadow="2"
     inkscape:window-width="640"
     inkscape:window-height="480"
     id="namedview6974"
     showgrid="false"
     inkscape:zoom="14.9375"
     inkscape:cx="24.937238"
     inkscape:cy="25.338912"
     inkscape:current-layer="svg6955" />
  <path
     style="opacity:.65;fill:#fff;stroke:none"
     id="rect4154"
     d="m 3,1.959 0,9.342 42,0 0,-6.9866 -22,0 0,-2.3555 z" />
  <rect
     style="stroke:none;fill:#444444;fill-opacity:1"
     id="folderTab"
     height="11.773318"
     y="2.9586298"
     x="4"
     width="18" />
  <rect
     style="stroke:none;fill:#444444;fill-opacity:1"
     id="folderBackground"
     height="35.319954"
     y="5.313652"
     x="4"
     width="40" />
  <rect
     id="folderPaper"
     style="fill:#ffffff;stroke:none"
     height="32.965004"
     y="7.6680799"
     x="6"
     width="35.999992" />
  <rect
     id="folderFront"
     style="fill:#3498db;stroke:none"
     height="32.965298"
     y="10.022959"
     x="2"
     width="43.999996" />
  <rect
     width="35.999992"
     x="6"
     y="7.6680799"
     height="32.965004"
     style="fill:#ffffff;stroke:none"
     id="rect3849" />
  <rect
     width="43.999996"
     x="2"
     y="10.022959"
     height="32.965298"
     style="fill:#f0544c;stroke:none;fill-opacity:1"
     id="rect3851" />
  <rect
     width="30"
     x="9.380971"
     y="11.101083"
     height="30"
     style="fill:none;stroke:none"
     id="rect3265" />
  <g
     style="fill:#ffffff"
     id="layer1"
     transform="translate(-5.71875,2.2722943)">
    <path
       style="fill-rule:evenodd;stroke:none"
       id="path2543"
       d="m 14.8125,10.7188 c -0.774284,0 -1.375,0.65022 -1.375,1.46875 l 0,15.5 c 0,0.81853 0.600716,1.5 1.375,1.5 l 13.2188,0 -0.6875,2.8438 c -0.01851,0.07953 -0.03125,0.167066 -0.03125,0.25 0,0.87941 1.0758,1.59375 2.40625,1.59375 1.33045,0 2.40625,-0.71434 2.40625,-1.59375 0,-0.05818 0.0092,-0.09968 0,-0.15625 l -0.7188,-2.9375 13.1875,0 c 0.774283,0 1.40625,-0.68147 1.40625,-1.5 l 0,-15.5 c 0,-0.81853 -0.631967,-1.46875 -1.40625,-1.46875 l -29.7812,0 z m 0.7812,1.8438 c 0.150236,-0.02706 0.353461,-0.03283 0.59375,0 0.04218,0.0058 0.956475,-4.2e-5 1,0 l 25.9062,0.0312 c 1.2176,0.0012 1.28125,0.03241 1.28125,1.25 l 0,12.0625 c 0,1.2176 0.0015,1.25 -1.28125,1.25 l -26.7812,0 c -1.28274,0 -1.25,-0.03241 -1.25,-1.25 l 0,-12.0625 c 0,-0.831691 0.08054,-1.20008 0.53125,-1.28125 z m 11.2188,19.0312 c -3.97351,0.411715 -6.8718,1.65033 -6.84375,3.125 0.03443,1.81023 4.43273,3.28125 9.8125,3.28125 5.37977,0 9.72193,-1.47102 9.6875,-3.28125 C 39.440999,33.25957 36.55,32.01845 32.625,31.5938 l 0.2812,1.0625 c 0.01229,0.06442 0.03125,0.1525 0.03125,0.21875 0,1.00137 -1.44683,1.8125 -3.21875,1.8125 -1.77192,4e-6 -3.21875,-0.81113 -3.21875,-1.8125 0,-0.09444 0.0066,-0.19069 0.03125,-0.28125 l 0.2812,-1 z"
       inkscape:connector-curvature="0" />
  </g>
  <g
     style="font-weight:bold;font-size:9.77899075px;line-height:125%;font-family:'Arial Black';text-align:start;letter-spacing:0;word-spacing:0;fill:#ffffff;stroke:none"
     id="text3022">
    <path
       id="path4155"
       d="m 15.9443,18.0436 7.6034,0 0,1.9989 -2.551,0 0,6.0959 -2.5013,0 0,-6.0959 -2.551,0 0,-1.9989 z"
       inkscape:connector-curvature="0" />
    <path
       id="path4157"
       d="m 23.8845,18.0436 2.6173,0 1.8222,5.8254 1.7946,-5.8254 2.54,0 -3.0038,8.0948 -2.7111,0 -3.059,-8.0948 z"
       inkscape:connector-curvature="0" />
  </g>
</svg>
