<?xml version="1.0" encoding="UTF-8" standalone="no"?>
<svg
   xmlns:dc="http://purl.org/dc/elements/1.1/"
   xmlns:cc="http://creativecommons.org/ns#"
   xmlns:rdf="http://www.w3.org/1999/02/22-rdf-syntax-ns#"
   xmlns:svg="http://www.w3.org/2000/svg"
   xmlns="http://www.w3.org/2000/svg"
   xmlns:sodipodi="http://sodipodi.sourceforge.net/DTD/sodipodi-0.dtd"
   xmlns:inkscape="http://www.inkscape.org/namespaces/inkscape"
   width="48"
   version="1.1"
   height="48"
   id="svg9195"
   inkscape:version="0.91 r13725"
   sodipodi:docname="folder-vuze.svg">
  <metadata
     id="metadata9219">
    <rdf:RDF>
      <cc:Work
         rdf:about="">
        <dc:format>image/svg+xml</dc:format>
        <dc:type
           rdf:resource="http://purl.org/dc/dcmitype/StillImage" />
      </cc:Work>
    </rdf:RDF>
  </metadata>
  <sodipodi:namedview
     pagecolor="#ffffff"
     bordercolor="#666666"
     borderopacity="1"
     objecttolerance="10"
     gridtolerance="10"
     guidetolerance="10"
     inkscape:pageopacity="0"
     inkscape:pageshadow="2"
     inkscape:window-width="640"
     inkscape:window-height="480"
     id="namedview9217"
     showgrid="false"
     inkscape:zoom="14.9375"
     inkscape:cx="20.853556"
     inkscape:cy="25.004184"
     inkscape:current-layer="svg9195" />
  <path
     style="opacity:.65;fill:#fff;stroke:none"
     id="rect4154"
     d="m 3,1.959 0,9.342 42,0 0,-6.9866 -22,0 0,-2.3555 z" />
  <defs
     id="defs867" />
  <rect
     style="stroke:none;fill:#444444;fill-opacity:1"
     id="folderTab"
     height="11.773318"
     y="2.9586298"
     x="4"
     width="18" />
  <rect
     style="stroke:none;fill:#444444;fill-opacity:1"
     id="folderBackground"
     height="35.319954"
     y="5.313652"
     x="4"
     width="40" />
  <rect
     id="folderPaper"
     style="fill:#ffffff;stroke:none"
     height="32.965004"
     y="7.6680799"
     x="6"
     width="35.999992" />
  <rect
     id="folderFront"
     style="fill:#3498db;stroke:none"
     height="32.965298"
     y="10.022959"
     x="2"
     width="43.999996" />
  <rect
     width="35.999992"
     x="6"
     y="7.6680799"
     height="32.965004"
     style="fill:#ffffff;stroke:none"
     id="rect3849" />
  <rect
     width="43.999996"
     x="2"
     y="10.022959"
     height="32.965298"
     style="fill:#f0544c;stroke:none;fill-opacity:1"
     id="rect3851" />
  <g
     style="fill:#ffffff;stroke:#ffffff;stroke-width:0.57300001"
     id="g3968"
     transform="matrix(0.31391454,0,0,0.35112469,33.299682,10.841503)">
    <g
       style="stroke-width:0.61400002"
       id="g9211">
      <path
         id="path3186"
         d="m -56.3988,57.8317 c 0,0 -5.27622,1.36053 -7.11142,-2.26755 -1.83521,-3.62808 0.458802,-4.76186 0.458802,-4.76186 l 2.9822,-2.0408 c 0,0 2.06461,-10.204 9.86423,-7.25616 l 1.147,2.9478 -0.9176,3.1746 -2.294,5.2154 -1.147,2.9478 c 0,0 -2.29401,2.26755 -2.98221,2.0408 z"
         inkscape:connector-curvature="0" />
      <path
         id="path3188"
         d="m -47.4522,40.8251 -1.8352,-0.907 -0.9176,-2.0408 0,-1.814 2.294,-2.0408 2.7528,-1.3605 2.0646,0.2268 c 0,0 -4.58801,6.80265 -4.35861,7.93643 z"
         inkscape:connector-curvature="0" />
    </g>
    <path
       id="path3190"
       d="m -49.5833,61.7386 -1.7024,-2.3408 -0.8512,-1.064 0.6384,-2.3408 4.6817,-11.0658 0.8512,-3.6177 c 0,0 6.17131,-10.0018 9.15057,-11.7042 2.97925,-1.70243 4.89449,-8.08655 4.89449,-8.08655 0,0 0.212804,-1.48963 1.06402,-1.70243 0.851215,-0.212804 5.3201,-1.48963 5.3201,-1.48963 l 12.1298,0 c 0,0 1.27682,-2.12804 4.25608,4.46888 l 1.4896,2.3408 c 0,0 0.425608,0.638412 -0.425607,2.12804 -0.851216,1.48963 -1.70243,4.25608 -1.70243,4.25608 l -1.7024,3.4049 -2.3408,4.8945 0.6384,3.1921 1.064,2.5536 2.9793,3.4049 1.4896,0.6384 2.3408,0.4256 0.4256,-2.7664 -0.2128,-0.4256 0.6384,-1.4896 c 0,0 1.48963,-0.851216 2.34084,-0.851216 0.851215,0 2.34084,2.55365 1.06402,3.40486 -1.27682,0.851216 -1.48963,0.425608 -1.48963,0.425608 l -0.6384,1.9152 4.04327,0 2.55365,0 -0.2128,-0.6384 1.7024,-0.4256 c 0,0 3.83047,1.70243 0.212804,3.40486 l -2.9793,-0.4256 -4.6817,-0.2128 c 0,0 -0.851216,3.83047 -4.04327,3.61767 -3.19206,-0.212804 -6.38412,0 -6.80972,-1.27682 l -3.4049,-1.2768 -0.8512,-0.4256 c 0,0 -1.48963,1.70243 -2.12804,0.638412 -0.638412,-1.06402 -0.212804,-2.34084 -0.212804,-2.34084 l 1.7024,-0.4256 1.2768,0.6384 2.3408,0.8512 -2.3408,-3.4049 -1.7024,-2.7665 c 0,0 -4.04327,8.29935 -7.66094,10.853 0,0 -11.7042,-2.55365 -23.1956,5.10729 z"
       inkscape:connector-curvature="0" />
  </g>
  <path
     style="fill:#ffffff;stroke:#ffffff;stroke-width:0.20384721"
     id="path3977"
     d="m 17.683614,33.217747 2.952492,2.547831 2.448408,0.875811 1.8003,-0.477705 1.008168,0.398105 1.656276,0.398105 0,0.07964 0.504084,-0.07964 c 0,0 0,-0.955431 -0.288049,-0.955431 -0.288049,0 -0.576099,0.318477 -0.576099,0.318477 l -0.432072,-0.23887 -0.216036,-0.398106 0.216036,-0.23887 2.808467,-0.398105 0.576096,-0.31847 0.504084,-0.63694 -0.144024,-0.477705 -0.36006,-0.159235 -0.504084,0.159235 -0.360059,0.23887 -0.07201,0.23887 -0.648112,0 -0.36006,-0.07964 -0.07201,-0.716575 -0.07201,-0.398106 -2.736455,-1.353515 c 0,0 -4.104684,-1.035052 -7.633303,1.672007 z"
     inkscape:connector-curvature="0" />
</svg>
