<?xml version="1.0" encoding="UTF-8" standalone="no"?>
<svg
   xmlns:dc="http://purl.org/dc/elements/1.1/"
   xmlns:cc="http://creativecommons.org/ns#"
   xmlns:rdf="http://www.w3.org/1999/02/22-rdf-syntax-ns#"
   xmlns:svg="http://www.w3.org/2000/svg"
   xmlns="http://www.w3.org/2000/svg"
   xmlns:sodipodi="http://sodipodi.sourceforge.net/DTD/sodipodi-0.dtd"
   xmlns:inkscape="http://www.inkscape.org/namespaces/inkscape"
   width="48"
   version="1.1"
   height="48"
   id="svg2"
   inkscape:version="0.91 r13725"
   sodipodi:docname="folder-icons.svg">
  <metadata
     id="metadata16">
    <rdf:RDF>
      <cc:Work
         rdf:about="">
        <dc:format>image/svg+xml</dc:format>
        <dc:type
           rdf:resource="http://purl.org/dc/dcmitype/StillImage" />
      </cc:Work>
    </rdf:RDF>
  </metadata>
  <defs
     id="defs14" />
  <sodipodi:namedview
     pagecolor="#ffffff"
     bordercolor="#666666"
     borderopacity="1"
     objecttolerance="10"
     gridtolerance="10"
     guidetolerance="10"
     inkscape:pageopacity="0"
     inkscape:pageshadow="2"
     inkscape:window-width="640"
     inkscape:window-height="480"
     id="namedview12"
     showgrid="false"
     inkscape:zoom="14.9375"
     inkscape:cx="25.071129"
     inkscape:cy="26.945607"
     inkscape:current-layer="svg2" />
  <path
     style="opacity:.65;fill:#fff;stroke:none"
     id="rect4154"
     d="m 3,1.959 0,9.342 42,0 0,-6.9866 -22,0 0,-2.3555 z" />
  <rect
     style="stroke:none;fill:#444444;fill-opacity:1"
     width="18"
     x="4"
     y="2.9586298"
     height="11.773318"
     id="folderTab" />
  <rect
     style="stroke:none;fill:#444444;fill-opacity:1"
     width="40"
     x="4"
     y="5.313652"
     height="35.319954"
     id="folderBackground" />
  <rect
     width="35.999992"
     x="6"
     y="7.6680799"
     height="32.965004"
     style="fill:#ffffff;stroke:none"
     id="folderPaper" />
  <rect
     width="43.999996"
     x="2"
     y="10.022959"
     height="32.965298"
     style="fill:#f0544c;stroke:none;fill-opacity:1"
     id="folderFront" />
  <path
     style="fill:#fff;stroke:none"
     id="path4184"
     d="m 14.4784,18.5004 c -1.77384,0 -3.21048,1.44888 -3.21048,3.23922 0,1.79039 1.43664,3.23922 3.21048,3.23922 1.77385,0 3.21048,-1.44883 3.21048,-3.23922 0,-1.79035 -1.43664,-3.23922 -3.21048,-3.23922 z  m 9.5216,0 c -1.77385,0 -3.21048,1.44888 -3.21048,3.23922 0,1.79039 1.43664,3.23922 3.21048,3.23922 1.77384,0 3.21048,-1.44883 3.21048,-3.23922 0,-1.79035 -1.43664,-3.23922 -3.21048,-3.23922 z  m 9.5216,0 c -1.77385,0 -3.21048,1.44888 -3.21048,3.23922 0,1.79039 1.43663,3.23922 3.21048,3.23922 1.77384,0 3.21048,-1.44883 3.21048,-3.23922 0,-1.79035 -1.43664,-3.23922 -3.21048,-3.23922 z  m -9.5216,9.4945 c -1.77385,0 -3.21048,1.44719 -3.21048,3.23753 0,1.79035 1.43664,3.23922 3.21048,3.23922 1.77384,0 3.21048,-1.44888 3.21048,-3.23922 0,-1.79035 -1.43664,-3.23753 -3.21048,-3.23753 z  m 9.5216,0 c -1.77385,0 -3.21048,1.44719 -3.21048,3.23753 0,1.79035 1.43663,3.23922 3.21048,3.23922 1.77384,0 3.21048,-1.44888 3.21048,-3.23922 0,-1.79035 -1.43664,-3.23753 -3.21048,-3.23753 z  m -19.0431,.027 c -1.77384,0 -3.21048,1.44888 -3.21048,3.23922 0,1.79035 1.43664,3.23922 3.21048,3.23922 1.77385,0 3.21048,-1.44888 3.21048,-3.23922 0,-1.79035 -1.43664,-3.23922 -3.21048,-3.23922 z " />
</svg>
