<?xml version="1.0" encoding="UTF-8" standalone="no"?>
<svg
   xmlns:dc="http://purl.org/dc/elements/1.1/"
   xmlns:cc="http://creativecommons.org/ns#"
   xmlns:rdf="http://www.w3.org/1999/02/22-rdf-syntax-ns#"
   xmlns:svg="http://www.w3.org/2000/svg"
   xmlns="http://www.w3.org/2000/svg"
   xmlns:sodipodi="http://sodipodi.sourceforge.net/DTD/sodipodi-0.dtd"
   xmlns:inkscape="http://www.inkscape.org/namespaces/inkscape"
   width="48"
   version="1.1"
   height="48"
   id="svg12542"
   inkscape:version="0.91 r13725"
   sodipodi:docname="folder-steam.svg">
  <metadata
     id="metadata12562">
    <rdf:RDF>
      <cc:Work
         rdf:about="">
        <dc:format>image/svg+xml</dc:format>
        <dc:type
           rdf:resource="http://purl.org/dc/dcmitype/StillImage" />
      </cc:Work>
    </rdf:RDF>
  </metadata>
  <defs
     id="defs12560" />
  <sodipodi:namedview
     pagecolor="#ffffff"
     bordercolor="#666666"
     borderopacity="1"
     objecttolerance="10"
     gridtolerance="10"
     guidetolerance="10"
     inkscape:pageopacity="0"
     inkscape:pageshadow="2"
     inkscape:window-width="640"
     inkscape:window-height="480"
     id="namedview12558"
     showgrid="false"
     inkscape:zoom="14.9375"
     inkscape:cx="21.389121"
     inkscape:cy="27.481172"
     inkscape:current-layer="svg12542" />
  <path
     style="opacity:.65;fill:#fff;stroke:none"
     id="rect4154"
     d="m 3,1.959 0,9.342 42,0 0,-6.9866 -22,0 0,-2.3555 z" />
  <rect
     style="stroke:none;fill:#444444;fill-opacity:1"
     width="18"
     x="4"
     y="2.9586298"
     height="11.773318"
     id="folderTab" />
  <rect
     style="stroke:none;fill:#444444;fill-opacity:1"
     width="40"
     x="4"
     y="5.313652"
     height="35.319954"
     id="folderBackground" />
  <rect
     width="35.999992"
     x="6"
     y="7.6680799"
     height="32.965004"
     style="fill:#ffffff;stroke:none"
     id="folderPaper" />
  <rect
     width="43.999996"
     x="2"
     y="10.022959"
     height="32.965298"
     style="fill:#f0544c;stroke:none;fill-opacity:1"
     id="folderFront" />
  <path
     style="fill:#ffffff;stroke:none"
     id="path3329"
     d="m 31.804493,22.202814 c 0,1.718083 -1.475015,3.110863 -3.294541,3.110863 -1.819525,0 -3.294541,-1.39278 -3.294541,-3.110863 0,-1.718082 1.475016,-3.110862 3.294541,-3.110862 1.819526,0 3.294541,1.39278 3.294541,3.110862 z"
     inkscape:connector-curvature="0" />
  <path
     style="fill:#ffffff;stroke:none"
     id="path3428"
     d="m 28.552474,16.400999 c -3.299808,0 -5.985203,2.647999 -5.985203,5.925756 0,3.277757 2.685389,5.945186 5.985203,5.945186 3.299803,0 5.965652,-2.667429 5.965652,-5.945186 0,-3.277757 -2.665826,-5.925756 -5.965652,-5.925756 z m 0,2.001126 c 2.189974,0 3.951005,1.749268 3.951005,3.924605 0,2.175338 -1.761037,3.944035 -3.951005,3.944035 -2.189973,0 -3.970567,-1.768697 -3.970567,-3.944035 0,-2.175337 1.780594,-3.924605 3.970567,-3.924605 z"
     inkscape:connector-curvature="0" />
  <path
     style="fill:#ffffff;stroke:none"
     id="path3435"
     d="m 22.589407,22.404501 -3.794511,5.595469 1.251784,1.243437 c 0.616701,0.318303 1.123791,0.807644 1.447398,1.418296 l 1.232232,1.22404 5.672215,-3.76917 -5.809129,-5.712041 z"
     inkscape:connector-curvature="0" />
  <path
     style="fill:#ffffff;stroke:none"
     id="path4205"
     d="m 21.484853,32.346925 c 0,1.508874 -1.114351,2.732059 -2.48897,2.732059 -1.37462,0 -2.488971,-1.223185 -2.488971,-2.732059 0,-1.508874 1.114351,-2.732059 2.488971,-2.732059 1.374619,0 2.48897,1.223185 2.48897,2.732059 z"
     inkscape:connector-curvature="0" />
  <path
     style="fill:#ffffff;stroke:none"
     id="path4207"
     d="m 18.481908,27.99997 c -2.354911,0 -4.263959,1.896267 -4.263959,4.235458 0,2.339167 1.909048,4.23544 4.263959,4.23544 2.354917,0 4.263959,-1.896266 4.263959,-4.23544 0,-2.339191 -1.909042,-4.235458 -4.263959,-4.235458 z m 0,0.854863 c 1.879614,0 3.403346,1.513555 3.403346,3.380608 0,1.867034 -1.523732,3.380589 -3.403346,3.380589 -1.879614,0 -3.403346,-1.513549 -3.403346,-3.380589 0,-1.867059 1.523732,-3.380608 3.403346,-3.380608 z"
     inkscape:connector-curvature="0" />
  <path
     style="fill:#ffffff;stroke:none"
     id="rect3263-1"
     d="m 11.243404,25.743317 0,5.245752 7.036194,3.652597 c 0.03213,0.01542 0.06918,-8.08e-4 0.082,-0.03877 l 1.492354,-4.390888 c 0.01274,-0.03811 -0.01692,-0.08195 -0.04921,-0.09715 l -8.561358,-4.371491 z"
     inkscape:connector-curvature="0" />
</svg>
