<?xml version="1.0" encoding="UTF-8" standalone="no"?>
<svg
   xmlns:dc="http://purl.org/dc/elements/1.1/"
   xmlns:cc="http://creativecommons.org/ns#"
   xmlns:rdf="http://www.w3.org/1999/02/22-rdf-syntax-ns#"
   xmlns:svg="http://www.w3.org/2000/svg"
   xmlns="http://www.w3.org/2000/svg"
   xmlns:sodipodi="http://sodipodi.sourceforge.net/DTD/sodipodi-0.dtd"
   xmlns:inkscape="http://www.inkscape.org/namespaces/inkscape"
   width="48"
   version="1.1"
   height="48"
   id="svg5303"
   inkscape:version="0.91 r13725"
   sodipodi:docname="server-database.svg">
  <metadata
     id="metadata5343">
    <rdf:RDF>
      <cc:Work
         rdf:about="">
        <dc:format>image/svg+xml</dc:format>
        <dc:type
           rdf:resource="http://purl.org/dc/dcmitype/StillImage" />
      </cc:Work>
    </rdf:RDF>
  </metadata>
  <defs
     id="defs5341" />
  <sodipodi:namedview
     pagecolor="#ffffff"
     bordercolor="#666666"
     borderopacity="1"
     objecttolerance="10"
     gridtolerance="10"
     guidetolerance="10"
     inkscape:pageopacity="0"
     inkscape:pageshadow="2"
     inkscape:window-width="640"
     inkscape:window-height="480"
     id="namedview5339"
     showgrid="false"
     inkscape:zoom="10.562408"
     inkscape:cx="2.5215311"
     inkscape:cy="18.08347"
     inkscape:current-layer="svg5303" />
  <path
     style="fill:none;stroke:none"
     id="path3265"
     d="m 27.5,44.344388 a 3.50243,3.6556801 0 1 1 -7.00485,0 3.50243,3.6556801 0 1 1 7.00485,0 z"
     inkscape:connector-curvature="0" />
  <path
     style="fill:none;stroke:none"
     id="path3267"
     d="m 27.5,4.3471402 a 3.50243,4.3472647 0 1 1 -7.00485,0 3.50243,4.3472647 0 1 1 7.00485,0 z"
     inkscape:connector-curvature="0" />
  <g
     style="fill:none;fill-rule:evenodd;stroke:none"
     id="g5310"
     transform="translate(0,-1004.3622)">
    <path
       id="path3269"
       d="m 11,1028.3622 c 0,3.0376 -2.46414,5.5002 -5.50381,5.5002 -3.03967,0 -5.50381,-2.4626 -5.50381,-5.5002 0,-3.0377 2.46414,-5.5002 5.50381,-5.5002 3.03967,0 5.50381,2.4625 5.50381,5.5002 z"
       inkscape:connector-curvature="0" />
    <path
       id="path3271"
       d="m 48,1028.3622 c 0,3.0376 -2.46414,5.5002 -5.50381,5.5002 -3.03967,0 -5.50381,-2.4626 -5.50381,-5.5002 0,-3.0377 2.46414,-5.5002 5.50381,-5.5002 3.03967,0 5.50381,2.4625 5.50381,5.5002 z"
       inkscape:connector-curvature="0" />
  </g>
  <path
     style="fill:none;stroke:none"
     id="path3293"
     d="m 27.5,44.344388 a 3.50243,3.6556801 0 1 1 -7.00485,0 3.50243,3.6556801 0 1 1 7.00485,0 z"
     inkscape:connector-curvature="0" />
  <path
     style="fill:none;stroke:none"
     id="path3295"
     d="m 27.5,4.3471402 a 3.50243,4.3472647 0 1 1 -7.00485,0 3.50243,4.3472647 0 1 1 7.00485,0 z"
     inkscape:connector-curvature="0" />
  <g
     style="fill:none;fill-rule:evenodd;stroke:none"
     id="g5318"
     transform="translate(0,-1004.3622)">
    <path
       id="path3297"
       d="m 11,1028.3622 c 0,3.0376 -2.46414,5.5002 -5.50381,5.5002 -3.03967,0 -5.50381,-2.4626 -5.50381,-5.5002 0,-3.0377 2.46414,-5.5002 5.50381,-5.5002 3.03967,0 5.50381,2.4625 5.50381,5.5002 z"
       inkscape:connector-curvature="0" />
    <path
       id="path3299"
       d="m 48,1028.3622 c 0,3.0376 -2.46414,5.5002 -5.50381,5.5002 -3.03967,0 -5.50381,-2.4626 -5.50381,-5.5002 0,-3.0377 2.46414,-5.5002 5.50381,-5.5002 3.03967,0 5.50381,2.4625 5.50381,5.5002 z"
       inkscape:connector-curvature="0" />
  </g>
  <g
     id="g5324"
     style="fill:#f0544c;fill-rule:evenodd;stroke:#003bc3;stroke-width:0;stroke-linecap:square;stroke-miterlimit:2;fill-opacity:1"
     transform="translate(0,-1004.3622)">
    <rect
       id="shape11"
       height="10.309778"
       y="1011.4157"
       x="23.946743"
       width="13.150457"
       style="fill:#f0544c;fill-opacity:1" />
    <rect
       id="shape21"
       height="10.309778"
       y="1023.014"
       x="23.946743"
       width="13.150457"
       style="fill:#f0544c;fill-opacity:1" />
    <rect
       id="shape3"
       height="10.309778"
       y="1034.6125"
       x="23.946743"
       width="13.150457"
       style="fill:#f0544c;fill-opacity:1" />
  </g>
  <g
     id="g5329"
     style="fill:#ff544c;fill-rule:evenodd;stroke:#003bc3;stroke-width:0;stroke-linecap:square;stroke-miterlimit:2;fill-opacity:1"
     transform="translate(0,-1004.3622)">
    <rect
       id="rect15"
       height="10.309782"
       y="1011.4158"
       x="10.859916"
       width="13.128598"
       style="fill:#ff544c;fill-opacity:1" />
    <rect
       id="rect17"
       height="10.309782"
       y="1023.0146"
       x="10.859916"
       width="13.128598"
       style="fill:#ff544c;fill-opacity:1" />
    <rect
       id="shape31"
       height="10.309782"
       y="1034.6129"
       x="10.859916"
       width="13.128598"
       style="fill:#ff544c;fill-opacity:1" />
  </g>
  <g
     id="g5334"
     style="fill:#ecf0f1;fill-opacity:0.875;fill-rule:evenodd;stroke:#003bc3;stroke-width:0;stroke-linecap:square;stroke-miterlimit:2"
     transform="translate(0,-1004.3622)">
    <rect
       id="shape4"
       height="6.1755695"
       y="1012.9622"
       x="11.766102"
       width="2.0955863" />
    <rect
       id="shape5"
       height="6.1755695"
       y="1024.5607"
       x="11.766102"
       width="2.0955863" />
    <rect
       id="shape6"
       height="6.1755695"
       y="1036.1592"
       x="11.823205"
       width="2.0955863" />
  </g>
</svg>
