<?xml version="1.0" encoding="UTF-8" standalone="no"?>
<svg
   xmlns:dc="http://purl.org/dc/elements/1.1/"
   xmlns:cc="http://creativecommons.org/ns#"
   xmlns:rdf="http://www.w3.org/1999/02/22-rdf-syntax-ns#"
   xmlns:svg="http://www.w3.org/2000/svg"
   xmlns="http://www.w3.org/2000/svg"
   xmlns:sodipodi="http://sodipodi.sourceforge.net/DTD/sodipodi-0.dtd"
   xmlns:inkscape="http://www.inkscape.org/namespaces/inkscape"
   width="96"
   version="1.0"
   height="96"
   id="svg2"
   inkscape:version="0.91 r13725"
   sodipodi:docname="start-here.svg">
  <metadata
     id="metadata10">
    <rdf:RDF>
      <cc:Work
         rdf:about="">
        <dc:format>image/svg+xml</dc:format>
        <dc:type
           rdf:resource="http://purl.org/dc/dcmitype/StillImage" />
        <dc:title />
      </cc:Work>
    </rdf:RDF>
  </metadata>
  <defs
     id="defs8" />
  <sodipodi:namedview
     pagecolor="#ffffff"
     bordercolor="#666666"
     borderopacity="1"
     objecttolerance="10"
     gridtolerance="10"
     guidetolerance="10"
     inkscape:pageopacity="0"
     inkscape:pageshadow="2"
     inkscape:window-width="640"
     inkscape:window-height="480"
     id="namedview6"
     showgrid="false"
     inkscape:zoom="5.0546875"
     inkscape:cx="28.558042"
     inkscape:cy="60.428086"
     inkscape:current-layer="svg2" />
  <rect
     style="opacity:1;fill:#f0544c;fill-opacity:1;fill-rule:evenodd;stroke:none;stroke-width:1;stroke-linecap:butt;stroke-linejoin:miter;stroke-miterlimit:4;stroke-dasharray:none;stroke-opacity:1"
     id="rect4138"
     width="84"
     height="84"
     x="6"
     y="6"
     rx="0"
     ry="0" />
  <path
     style="fill:#ffffff"
     id="path4214"
     d="m 44.780353,11.000003 c -0.308646,0 -0.577933,0.207141 -0.651247,0.508156 l -2.715029,11.056537 c -2.269594,0.610235 -4.410124,1.516835 -6.389542,2.678365 l -4.890736,-3.195655 -4.815594,-3.149819 c -0.267463,-0.173749 -0.620804,-0.140308 -0.847536,0.08438 l -5.176928,5.189805 c -0.219943,0.218875 -0.273013,0.554181 -0.111905,0.818187 l 3.535099,5.811691 0.0037,-0.0037 2.562775,4.219358 c -1.079812,1.810138 -1.958341,3.753107 -2.575633,5.811691 l -11.172083,2.315132 c -0.310909,0.06409 -0.535673,0.359221 -0.535673,0.67693 l 0,7.330658 c 0,0.31004 0.234719,0.576299 0.535673,0.649412 l 10.834569,2.623362 c 0.579276,2.383287 1.473617,4.662644 2.658185,6.739946 l -6.279433,9.533897 c -0.175141,0.266266 -0.141443,0.62096 0.08438,0.845704 l 5.204448,5.191589 c 0.219263,0.217965 0.557106,0.245088 0.821854,0.08438 l 9.84393,-5.952956 c 1.930615,1.111534 4.018838,2.002819 6.220777,2.595814 l 2.293113,10.999618 c 0.06426,0.310943 0.331036,0.537512 0.649411,0.537512 l 7.354493,0 c 0.308645,0 0.576097,-0.207145 0.649411,-0.50816 l 2.71503,-11.056538 c 2.27012,-0.610378 4.41157,-1.516449 6.391383,-2.678365 l 4.854104,3.171892 4.850441,3.171892 c 0.267462,0.173748 0.620804,0.140307 0.847536,-0.08438 l 5.176928,-5.189805 c 0.0588,-0.05852 0.10158,-0.126577 0.135752,-0.198126 0.09364,-0.196079 0.09419,-0.426636 -0.02385,-0.62006 l -3.53322,-5.809813 -0.0037,0.0037 -2.562775,-4.221143 c 1.079813,-1.810139 1.956501,-3.751276 2.573792,-5.809859 l 11.172056,-2.313309 c 0.310905,-0.06409 0.535669,-0.35922 0.535669,-0.67693 l 0,-7.334321 c 0,-0.310039 -0.234712,-0.574464 -0.535669,-0.647577 L 73.62973,41.575696 c -0.579276,-2.383287 -1.473617,-4.664485 -2.658185,-6.741778 l 6.279433,-9.533897 c 0.175141,-0.266265 0.141443,-0.620959 -0.08438,-0.845703 L 71.96215,19.264513 c -0.219264,-0.217965 -0.557106,-0.245088 -0.821854,-0.08438 L 61.298243,25.13121 C 59.367669,24.019674 57.277605,23.13022 55.075676,22.537225 L 52.784347,11.53573 c -0.06426,-0.310943 -0.332871,-0.535673 -0.651245,-0.535673 l -7.352653,0 z m 3.219506,15.668413 A 21.33063,21.330667 0 0 1 69.331335,47.999928 21.33063,21.330667 0 0 1 47.999859,69.33144 21.33063,21.330667 0 0 1 26.668384,47.999928 21.33063,21.330667 0 0 1 47.999859,26.668416 Z"
     inkscape:connector-curvature="0" />
</svg>
