<?xml version="1.0" encoding="UTF-8" standalone="no"?>
<!-- Created with Inkscape (http://www.inkscape.org/) -->

<svg
   xmlns:dc="http://purl.org/dc/elements/1.1/"
   xmlns:cc="http://creativecommons.org/ns#"
   xmlns:rdf="http://www.w3.org/1999/02/22-rdf-syntax-ns#"
   xmlns:svg="http://www.w3.org/2000/svg"
   xmlns="http://www.w3.org/2000/svg"
   xmlns:xlink="http://www.w3.org/1999/xlink"
   xmlns:sodipodi="http://sodipodi.sourceforge.net/DTD/sodipodi-0.dtd"
   xmlns:inkscape="http://www.inkscape.org/namespaces/inkscape"
   width="48px"
   height="48px"
   id="svg3039"
   version="1.1"
   inkscape:version="0.91 r13725"
   sodipodi:docname="audacity.svg">
  <defs
     id="defs3041">
    <linearGradient
       id="linearGradient4239">
      <stop
         style="stop-color:#505050;stop-opacity:1;"
         offset="0"
         id="stop4241" />
      <stop
         style="stop-color:#ffffff;stop-opacity:0.15422885;"
         offset="1"
         id="stop4243" />
    </linearGradient>
    <linearGradient
       inkscape:collect="always"
       xlink:href="#linearGradient4239"
       id="linearGradient4245"
       x1="44"
       y1="28.00672"
       x2="57.993282"
       y2="13"
       gradientUnits="userSpaceOnUse" />
  </defs>
  <sodipodi:namedview
     id="base"
     pagecolor="#ffffff"
     bordercolor="#666666"
     borderopacity="1.0"
     inkscape:pageopacity="0.0"
     inkscape:pageshadow="2"
     inkscape:zoom="11.313709"
     inkscape:cx="27.148458"
     inkscape:cy="23.183354"
     inkscape:current-layer="layer1"
     showgrid="true"
     inkscape:grid-bbox="true"
     inkscape:document-units="px"
     showguides="false"
     inkscape:guide-bbox="true"
     inkscape:window-width="1366"
     inkscape:window-height="698"
     inkscape:window-x="-4"
     inkscape:window-y="-5"
     inkscape:window-maximized="1"
     inkscape:snap-global="false">
    <inkscape:grid
       type="xygrid"
       id="grid3047" />
    <sodipodi:guide
       orientation="1,0"
       position="3,4"
       id="guide3051" />
    <sodipodi:guide
       orientation="1,0"
       position="45,4"
       id="guide3053" />
    <sodipodi:guide
       orientation="0,1"
       position="-2,45"
       id="guide3055" />
    <sodipodi:guide
       orientation="0,1"
       position="2,3"
       id="guide3057" />
    <sodipodi:guide
       orientation="1,0"
       position="24,31"
       id="guide3059" />
    <sodipodi:guide
       orientation="0,1"
       position="10,24"
       id="guide3061" />
    <sodipodi:guide
       orientation="0,1"
       position="51,42"
       id="guide3058" />
    <sodipodi:guide
       orientation="0,1"
       position="52,6"
       id="guide3060" />
  </sodipodi:namedview>
  <metadata
     id="metadata3044">
    <rdf:RDF>
      <cc:Work
         rdf:about="">
        <dc:format>image/svg+xml</dc:format>
        <dc:type
           rdf:resource="http://purl.org/dc/dcmitype/StillImage" />
        <dc:title />
      </cc:Work>
    </rdf:RDF>
  </metadata>
  <g
     id="layer1"
     inkscape:label="Layer 1"
     inkscape:groupmode="layer">
    <g
       id="g4214"
       transform="translate(-92.993284,0)"
       style="fill:url(#linearGradient4245);fill-opacity:1" />
    <g
       id="g4496"
       transform="translate(-13.993283,10)"
       style="fill:#b3b3b3;fill-opacity:1">
      <path
         inkscape:connector-curvature="0"
         id="path4080-7"
         d="m 38.993283,-7.013435 c -11.60169,0 -21.006718,9.4050259 -21.006718,21.006718 C 17.986565,25.594973 27.391593,35 38.993283,35 50.594972,35 60,25.594973 60,13.993283 60,2.3915909 50.594972,-7.013435 38.993283,-7.013435 z m 0,3.3168501 c 9.769844,0 17.689867,7.9200229 17.689867,17.6898679 0,9.769843 -7.920023,17.689866 -17.689867,17.689866 -9.769845,0 -17.689868,-7.920023 -17.689868,-17.689866 0,-9.769845 7.920023,-17.6898679 17.689868,-17.6898679 z"
         style="fill:#b3b3b3;fill-opacity:1;stroke:none" />
      <g
         style="fill:#b3b3b3;fill-opacity:1"
         id="g4231"
         transform="matrix(0.95207646,0,0,0.95207627,-2.4016867,-8.6649179)">
        <path
           transform="matrix(1.0772675,0,0,1.1354984,14.938086,-2.8784328)"
           d="M 46,23.5 A 19.5,18.5 0 0 1 26.5,42 19.5,18.5 0 0 1 7,23.5 19.5,18.5 0 0 1 26.5,5 19.5,18.5 0 0 1 46,23.5 Z"
           sodipodi:ry="18.5"
           sodipodi:rx="19.5"
           sodipodi:cy="23.5"
           sodipodi:cx="26.5"
           id="path4233"
           style="fill:#b3b3b3;fill-opacity:1;stroke:none"
           sodipodi:type="arc" />
      </g>
    </g>
    <g
       id="g3461"
       style="fill:#cccccc" />
    <g
       id="g4336">
      <path
         sodipodi:nodetypes="ccscscscscscscsscc"
         d="m 25,10.014902 c -2.905252,0 -5.554721,0.907031 -7.509101,2.430071 C 15.536328,13.968077 14.933267,15 14.26665,18.571416 L 14,20 c -1.940489,0.983244 -3.019028,3.009713 -3.019028,6.032725 0,3.869252 2.201306,7.009514 5.038056,7.009514 l 0,-14.470823 c 0,-1.815464 0.939658,-3.486341 2.553248,-4.74372 C 20.185738,12.570061 22.464468,11.76709 25,11.76709 c 2.535533,0 4.814071,0.803035 6.427725,2.060414 1.61359,1.25738 2.553247,2.928257 2.553247,4.743721 l 0,14.470823 c 2.836942,0 5.037929,-3.140262 5.037929,-7.009514 C 39.018901,23.009522 37.94036,20.983244 36,20 L 35.733351,18.571225 C 35.066861,15 34.463736,13.967758 32.509229,12.444718 30.554849,10.921742 27.905253,10.014711 25.000128,10.014711 z"
         id="path4141"
         inkscape:connector-curvature="0"
         style="fill:#266ed9;fill-opacity:1" />
      <rect
         ry="0.35188296"
         rx="0.35188296"
         y="20"
         x="17"
         height="13"
         width="1"
         id="rect3514"
         style="fill:#266ed9;fill-opacity:1;stroke:none" />
      <rect
         ry="0.35188296"
         rx="0.35188296"
         y="20"
         x="32"
         height="13"
         width="1"
         id="rect3516"
         style="fill:#266ed9;fill-opacity:1;stroke:none" />
      <path
         inkscape:connector-curvature="0"
         id="path4324"
         d="m 23.074524,19.90625 -1,0.0625 0,0.125 L 20.84375,27.9375 20.5,25.90625 20.4375,25.5 20,25.5 l -1,0 0,1 0.5625,0 0.9375,5.59375 1,-0.0625 0,-0.125 1.129442,-8.179917 L 24.5,35.09375 l 1,-0.03125 1.4375,-9.40625 0.5625,4.40625 1,0.0625 0.90625,-3.625 1.59375,0 0,-1 -2,0 -0.375,0 L 28.5,25.875 28.15625,27.21875 27.5,22.0625 l 0,-0.125 -1,0 -1.5625,10.15625 z"
         style="font-size:medium;font-style:normal;font-variant:normal;font-weight:normal;font-stretch:normal;text-indent:0;text-align:start;text-decoration:none;line-height:normal;letter-spacing:normal;word-spacing:normal;text-transform:none;direction:ltr;block-progression:tb;writing-mode:lr-tb;text-anchor:start;baseline-shift:baseline;color:#000000;fill:#da6e26;fill-opacity:1;stroke:none;stroke-width:1px;marker:none;visibility:visible;display:inline;overflow:visible;enable-background:accumulate;font-family:Sans;-inkscape-font-specification:Sans"
         sodipodi:nodetypes="ccccccccccccccccccccccccccccccc" />
    </g>
  </g>
</svg>
