<?xml version="1.0" encoding="UTF-8" standalone="no"?>
<!-- Created with Inkscape (http://www.inkscape.org/) -->

<svg
   xmlns:dc="http://purl.org/dc/elements/1.1/"
   xmlns:cc="http://creativecommons.org/ns#"
   xmlns:rdf="http://www.w3.org/1999/02/22-rdf-syntax-ns#"
   xmlns:svg="http://www.w3.org/2000/svg"
   xmlns="http://www.w3.org/2000/svg"
   xmlns:xlink="http://www.w3.org/1999/xlink"
   xmlns:sodipodi="http://sodipodi.sourceforge.net/DTD/sodipodi-0.dtd"
   xmlns:inkscape="http://www.inkscape.org/namespaces/inkscape"
   width="48px"
   height="48px"
   id="svg3039"
   version="1.1"
   inkscape:version="0.48.5 r10040"
   sodipodi:docname="easytag.svg">
  <defs
     id="defs3041">
    <linearGradient
       id="linearGradient4022">
      <stop
         id="stop4024"
         offset="0"
         style="stop-color:#f9f9f9;stop-opacity:1;" />
      <stop
         id="stop4026"
         offset="1"
         style="stop-color:#b2b2b2;stop-opacity:1" />
    </linearGradient>
    <linearGradient
       id="linearGradient3864">
      <stop
         style="stop-color:#3771c8;stop-opacity:1;"
         offset="0"
         id="stop3866" />
      <stop
         style="stop-color:#3771c8;stop-opacity:0;"
         offset="1"
         id="stop3868" />
    </linearGradient>
    <linearGradient
       id="linearGradient3824">
      <stop
         style="stop-color:#ebebeb;stop-opacity:1;"
         offset="0"
         id="stop3826" />
      <stop
         style="stop-color:#bebebe;stop-opacity:1;"
         offset="1"
         id="stop3830" />
    </linearGradient>
    <linearGradient
       id="linearGradient4279">
      <stop
         style="stop-color:#f9f9f9;stop-opacity:1;"
         offset="0"
         id="stop4281" />
      <stop
         id="stop4283"
         offset="0.81130701"
         style="stop-color:#c4c4c4;stop-opacity:1;" />
      <stop
         style="stop-color:#565656;stop-opacity:1;"
         offset="1"
         id="stop4285" />
    </linearGradient>
    <linearGradient
       id="linearGradient4239">
      <stop
         style="stop-color:#505050;stop-opacity:1;"
         offset="0"
         id="stop4241" />
      <stop
         style="stop-color:#ffffff;stop-opacity:0.15422885;"
         offset="1"
         id="stop4243" />
    </linearGradient>
    <linearGradient
       id="linearGradient4223">
      <stop
         id="stop4227"
         offset="0"
         style="stop-color:#e9e9e9;stop-opacity:0;" />
      <stop
         style="stop-color:#929292;stop-opacity:1"
         offset="1"
         id="stop4229" />
    </linearGradient>
    <linearGradient
       id="linearGradient4169">
      <stop
         id="stop4171"
         offset="0"
         style="stop-color:#f9f9f9;stop-opacity:1;" />
      <stop
         style="stop-color:#c4c4c4;stop-opacity:1;"
         offset="0.71567649"
         id="stop4175" />
      <stop
         id="stop4173"
         offset="1"
         style="stop-color:#565656;stop-opacity:1;" />
    </linearGradient>
    <linearGradient
       id="linearGradient4153">
      <stop
         style="stop-color:#ffffff;stop-opacity:1;"
         offset="0"
         id="stop4155" />
      <stop
         style="stop-color:#000000;stop-opacity:1;"
         offset="1"
         id="stop4157" />
    </linearGradient>
    <linearGradient
       id="linearGradient4145">
      <stop
         id="stop4147"
         offset="0"
         style="stop-color:#a0a0a0;stop-opacity:1;" />
      <stop
         id="stop4149"
         offset="1"
         style="stop-color:#575757;stop-opacity:1;" />
    </linearGradient>
    <linearGradient
       id="linearGradient4048">
      <stop
         id="stop4309"
         offset="0"
         style="stop-color:#959595;stop-opacity:1;" />
      <stop
         id="stop4054"
         offset="1"
         style="stop-color:#b6b6b6;stop-opacity:1;" />
    </linearGradient>
    <linearGradient
       id="linearGradient3886">
      <stop
         style="stop-color:#f9f9f9;stop-opacity:1;"
         offset="0"
         id="stop3888" />
      <stop
         style="stop-color:#afafaf;stop-opacity:1;"
         offset="1"
         id="stop3890" />
    </linearGradient>
    <linearGradient
       id="linearGradient3839">
      <stop
         style="stop-color:#85bcc3;stop-opacity:1;"
         offset="0"
         id="stop3841" />
      <stop
         style="stop-color:#0153fa;stop-opacity:1;"
         offset="1"
         id="stop3843" />
    </linearGradient>
    <linearGradient
       y2="17"
       x2="40"
       y1="31"
       x1="54"
       gradientTransform="matrix(0,-1,-1,0,71,73)"
       gradientUnits="userSpaceOnUse"
       id="linearGradient3029"
       xlink:href="#linearGradient4410"
       inkscape:collect="always" />
    <linearGradient
       inkscape:collect="always"
       id="linearGradient4410">
      <stop
         style="stop-color:#383e51;stop-opacity:1"
         offset="0"
         id="stop4412" />
      <stop
         style="stop-color:#655c6f;stop-opacity:0"
         offset="1"
         id="stop4414" />
    </linearGradient>
    <linearGradient
       y2="17"
       x2="40"
       y1="31"
       x1="54"
       gradientTransform="matrix(0,-1,1,0,4,78)"
       gradientUnits="userSpaceOnUse"
       id="linearGradient3028-7"
       xlink:href="#linearGradient4410-0"
       inkscape:collect="always" />
    <linearGradient
       inkscape:collect="always"
       id="linearGradient4410-0">
      <stop
         style="stop-color:#383e51;stop-opacity:1"
         offset="0"
         id="stop4412-9" />
      <stop
         style="stop-color:#655c6f;stop-opacity:0"
         offset="1"
         id="stop4414-1" />
    </linearGradient>
    <radialGradient
       inkscape:collect="always"
       xlink:href="#linearGradient3886-5"
       id="radialGradient3892-5"
       cx="24.061937"
       cy="23.872463"
       fx="24.061937"
       fy="23.872463"
       r="17.025761"
       gradientTransform="matrix(1,0,0,0.99900396,0,0.02377793)"
       gradientUnits="userSpaceOnUse" />
    <linearGradient
       id="linearGradient3886-5">
      <stop
         style="stop-color:#f9f9f9;stop-opacity:1;"
         offset="0"
         id="stop3888-9" />
      <stop
         style="stop-color:#afafaf;stop-opacity:1;"
         offset="1"
         id="stop3890-3" />
    </linearGradient>
    <radialGradient
       inkscape:collect="always"
       xlink:href="#linearGradient4169-1"
       id="radialGradient4099-4"
       cx="26.5"
       cy="23.5"
       fx="26.5"
       fy="23.5"
       r="19.5"
       gradientTransform="matrix(0.9473684,0,0,0.79892039,1.3947374,4.725371)"
       gradientUnits="userSpaceOnUse" />
    <linearGradient
       id="linearGradient4169-1">
      <stop
         id="stop4171-2"
         offset="0"
         style="stop-color:#f9f9f9;stop-opacity:1;" />
      <stop
         style="stop-color:#c4c4c4;stop-opacity:1;"
         offset="0.76923078"
         id="stop4175-4" />
      <stop
         id="stop4173-4"
         offset="1"
         style="stop-color:#565656;stop-opacity:1;" />
    </linearGradient>
    <linearGradient
       inkscape:collect="always"
       xlink:href="#linearGradient4239"
       id="linearGradient4245"
       x1="44"
       y1="28.00672"
       x2="57.993282"
       y2="13"
       gradientUnits="userSpaceOnUse" />
    <linearGradient
       inkscape:collect="always"
       xlink:href="#linearGradient4223"
       id="linearGradient4249"
       x1="24.643452"
       y1="23.494081"
       x2="39.495842"
       y2="9.4033527"
       gradientUnits="userSpaceOnUse" />
    <radialGradient
       inkscape:collect="always"
       xlink:href="#linearGradient4169"
       id="radialGradient4295"
       cx="44.192783"
       cy="25.761047"
       fx="44.192783"
       fy="25.761047"
       r="21.006716"
       gradientTransform="translate(0,-4.7400131e-6)"
       gradientUnits="userSpaceOnUse" />
    <linearGradient
       y2="19.773825"
       x2="50.593132"
       y1="29.238647"
       x1="62.956341"
       gradientTransform="matrix(0,-1.1056167,1.1056167,0,-5.326737,93.730581)"
       gradientUnits="userSpaceOnUse"
       id="linearGradient4436"
       xlink:href="#linearGradient4410-7"
       inkscape:collect="always" />
    <linearGradient
       inkscape:collect="always"
       id="linearGradient4410-7">
      <stop
         style="stop-color:#383e51;stop-opacity:1"
         offset="0"
         id="stop4412-7" />
      <stop
         style="stop-color:#655c6f;stop-opacity:0"
         offset="1"
         id="stop4414-3" />
    </linearGradient>
    <linearGradient
       id="linearGradient3839-3">
      <stop
         style="stop-color:#85bcc3;stop-opacity:1;"
         offset="0"
         id="stop3841-6" />
      <stop
         style="stop-color:#0153fa;stop-opacity:1;"
         offset="1"
         id="stop3843-8" />
    </linearGradient>
    <linearGradient
       y2="17"
       x2="40"
       y1="28.286581"
       x1="51.286583"
       gradientTransform="matrix(0,-1.1056167,1.1056167,0,-2.2741174,86.703301)"
       gradientUnits="userSpaceOnUse"
       id="linearGradient3028"
       xlink:href="#linearGradient4410-4"
       inkscape:collect="always" />
    <linearGradient
       inkscape:collect="always"
       id="linearGradient4410-4">
      <stop
         style="stop-color:#383e51;stop-opacity:1"
         offset="0"
         id="stop4412-2" />
      <stop
         style="stop-color:#655c6f;stop-opacity:0"
         offset="1"
         id="stop4414-8" />
    </linearGradient>
    <linearGradient
       y2="13.815021"
       x2="36.815022"
       y1="22.859747"
       x1="46.764217"
       gradientTransform="matrix(0,-1.1056167,1.1056167,0,7.725883,68.703301)"
       gradientUnits="userSpaceOnUse"
       id="linearGradient3889"
       xlink:href="#linearGradient4410-7-0"
       inkscape:collect="always" />
    <linearGradient
       inkscape:collect="always"
       id="linearGradient4410-7-0">
      <stop
         style="stop-color:#383e51;stop-opacity:1"
         offset="0"
         id="stop4412-95" />
      <stop
         style="stop-color:#655c6f;stop-opacity:0"
         offset="1"
         id="stop4414-9" />
    </linearGradient>
    <linearGradient
       inkscape:collect="always"
       xlink:href="#linearGradient3839-8"
       id="linearGradient3872"
       x1="26"
       y1="11"
       x2="26"
       y2="34"
       gradientUnits="userSpaceOnUse" />
    <linearGradient
       id="linearGradient3839-8">
      <stop
         style="stop-color:#dd6c6c;stop-opacity:1;"
         offset="0"
         id="stop3841-5" />
      <stop
         style="stop-color:#902b25;stop-opacity:1;"
         offset="1"
         id="stop3843-4" />
    </linearGradient>
    <linearGradient
       inkscape:collect="always"
       xlink:href="#linearGradient4410-7-0"
       id="linearGradient4193"
       gradientUnits="userSpaceOnUse"
       gradientTransform="matrix(0,-1.1056167,1.1056167,0,6.538383,69.297051)"
       x1="46.764217"
       y1="22.859747"
       x2="36.815022"
       y2="13.815021" />
    <linearGradient
       inkscape:collect="always"
       xlink:href="#linearGradient4410-4"
       id="linearGradient4196"
       gradientUnits="userSpaceOnUse"
       gradientTransform="matrix(0,-1.1056167,1.1056167,0,-3.4616174,87.297051)"
       x1="51.286583"
       y1="28.286581"
       x2="40"
       y2="17" />
    <radialGradient
       inkscape:collect="always"
       xlink:href="#linearGradient4169"
       id="radialGradient4483"
       gradientUnits="userSpaceOnUse"
       gradientTransform="translate(0,-4.7400131e-6)"
       cx="44.192783"
       cy="25.761047"
       fx="44.192783"
       fy="25.761047"
       r="21.006716" />
  </defs>
  <sodipodi:namedview
     id="base"
     pagecolor="#ffffff"
     bordercolor="#666666"
     borderopacity="1.0"
     inkscape:pageopacity="0.0"
     inkscape:pageshadow="2"
     inkscape:zoom="8.0000004"
     inkscape:cx="-13.596087"
     inkscape:cy="12.282428"
     inkscape:current-layer="layer1"
     showgrid="true"
     inkscape:grid-bbox="true"
     inkscape:document-units="px"
     showguides="true"
     inkscape:guide-bbox="true"
     inkscape:window-width="1366"
     inkscape:window-height="698"
     inkscape:window-x="-4"
     inkscape:window-y="-5"
     inkscape:window-maximized="1"
     inkscape:snap-global="true">
    <inkscape:grid
       type="xygrid"
       id="grid3047" />
    <sodipodi:guide
       orientation="1,0"
       position="3,4"
       id="guide3051" />
    <sodipodi:guide
       orientation="1,0"
       position="45,4"
       id="guide3053" />
    <sodipodi:guide
       orientation="0,1"
       position="-55,45"
       id="guide3055" />
    <sodipodi:guide
       orientation="0,1"
       position="2,3"
       id="guide3057" />
    <sodipodi:guide
       orientation="1,0"
       position="24,23"
       id="guide3059" />
    <sodipodi:guide
       orientation="0,1"
       position="10,24"
       id="guide3061" />
  </sodipodi:namedview>
  <metadata
     id="metadata3044">
    <rdf:RDF>
      <cc:Work
         rdf:about="">
        <dc:format>image/svg+xml</dc:format>
        <dc:type
           rdf:resource="http://purl.org/dc/dcmitype/StillImage" />
        <dc:title />
      </cc:Work>
    </rdf:RDF>
  </metadata>
  <g
     id="layer1"
     inkscape:label="Layer 1"
     inkscape:groupmode="layer">
    <g
       id="g4214"
       transform="translate(-92.993284,0)"
       style="fill:url(#linearGradient4245);fill-opacity:1" />
    <path
       style="fill:#a02c5a;fill-opacity:1;stroke:none"
       d="m 45,14 -20,3 0,19.71875 C 23.987717,36.26899 22.797158,36 21.5,36 17.899,36 15,38.007 15,40.5 c 0,2.493 2.899,4.5 6.5,4.5 3.601,0 6.5,-2.007 6.5,-4.5 0,-0.177094 -0.0028,-0.359606 -0.03125,-0.53125 L 28,40 28,20 42,18 42,33.71875 C 40.987717,33.26899 39.797158,33 38.5,33 34.899,33 32,35.007 32,37.5 32,39.993 34.899,42 38.5,42 42.101,42 45,39.993 45,37.5 45,37.333547 44.9939,37.161667 44.96875,37 L 45,37 45,14 z"
       id="rect4395"
       inkscape:connector-curvature="0" />
    <path
       inkscape:connector-curvature="0"
       id="path4495"
       d="m 45,14 -20,3 0,19.71875 C 23.987717,36.26899 22.797158,36 21.5,36 17.899,36 15,38.007 15,40.5 c 0,2.493 2.899,4.5 6.5,4.5 3.601,0 6.5,-2.007 6.5,-4.5 0,-0.177094 -0.0028,-0.359606 -0.03125,-0.53125 L 28,40 28,20 42,18 42,33.71875 C 40.987717,33.26899 39.797158,33 38.5,33 34.899,33 32,35.007 32,37.5 32,39.993 34.899,42 38.5,42 42.101,42 45,39.993 45,37.5 45,37.333547 44.9939,37.161667 44.96875,37 L 45,37 45,14 z"
       style="fill:#da266d;fill-opacity:1;stroke:none" />
    <path
       inkscape:connector-curvature="0"
       id="path4497"
       d="M 14.748631,4.089277 C 14.159185,3.486247 13.199156,3.475368 12.596149,4.064836 L 7.153847,9.384938 c -0.6030291,0.589445 -0.6139095,1.549473 -0.024442,2.15248 l 14.896281,15.238454 c 1.064022,1.088459 2.128036,2.176925 4.28052,2.201363 2.152483,0.02444 5.417866,-3.167619 5.442303,-5.320103 0.02444,-2.152481 -1.03958,-3.24094 -2.103599,-4.329403 L 14.74863,4.089275 z m 9.414154,12.216162 c 0.561821,0.574684 0.913933,1.176636 0.988355,1.827613 0.07435,0.650983 -0.126353,1.268153 -0.558744,1.810045 l -0.897767,-0.918388 c 0.339149,-0.672114 0.255367,-1.303823 -0.31494,-1.88724 -0.404349,-0.413599 -0.880671,-0.599851 -1.406456,-0.554159 -0.521539,0.05006 -1.076525,0.32065 -1.590276,0.822864 -0.487648,0.476666 -0.724875,1.012985 -0.791497,1.571945 -0.06237,0.563313 0.06751,1.02171 0.454807,1.417915 0.05959,0.06095 0.143851,0.105233 0.233517,0.170838 0.09828,0.0657 0.247097,0.135736 0.401299,0.206377 0.158541,0.06639 0.301675,0.116442 0.469327,0.139876 0.167646,0.02344 0.369163,0.02653 0.572135,-0.02714 0.207324,-0.05791 0.388359,-0.147635 0.575191,-0.296199 l -1.064022,-1.088459 0.81635,-0.798012 1.862032,1.904809 -2.55108,2.493796 -0.56525,-0.578256 0.479255,-0.73457 c -0.444341,0.07676 -0.833535,0.06023 -1.176756,-0.047 -0.343227,-0.107232 -0.653138,-0.32791 -0.968086,-0.650091 -0.629905,-0.644369 -0.939869,-1.381712 -0.882497,-2.263687 0.06163,-0.877627 0.481512,-1.668032 1.204254,-2.374545 0.740149,-0.72353 1.522665,-1.125554 2.401274,-1.150023 0.878598,-0.02446 1.641359,0.318142 2.309568,1.001694 z M 13.221803,5.249227 16.945875,9.058838 16.129534,9.856856 14.76626,8.462265 10.820587,12.319335 9.88957,11.366931 13.835243,7.50986 12.405468,6.047237 13.22181,5.249219 z m 5.652605,5.782452 1.064022,1.088459 -3.165986,6.28778 -0.997516,-1.020436 0.653147,-1.237149 -1.729034,-1.768746 -1.284908,0.590879 -0.964266,-0.98642 6.424548,-2.954367 z M 28,22 c 0.884203,0.90451 0.867803,2.344539 -0.03666,3.228723 -0.904508,0.884204 -2.344538,0.867804 -3.228722,-0.03666 -0.884196,-0.904514 -0.867804,-2.344538 0.03666,-3.228721 0.904509,-0.884205 2.344538,-0.867804 3.228723,0.03666 z m -9.749308,-9.360834 -2.469304,1.216526 1.19702,1.224521 1.272282,-2.441045 z"
       style="fill:#dab626;fill-opacity:1;stroke:none" />
    <path
       style="fill:#da266d;fill-opacity:1;stroke:none"
       d="m 25.925476,22 0.149048,0 C 26.587238,22 28,21.892 28,23 l 0,1 0,7 c 0,1.108 -1.412762,2 -1.925476,2 l -0.149048,0 C 25.412762,33 25,32.108 25,31 l 0,-7 c 0,-1.108 0.412762,-2 0.925476,-2 z"
       id="rect4499"
       inkscape:connector-curvature="0"
       sodipodi:nodetypes="ssscssssss" />
  </g>
</svg>
