<?xml version="1.0" encoding="UTF-8" standalone="no"?>
<!-- Created with Inkscape (http://www.inkscape.org/) -->

<svg
   xmlns:dc="http://purl.org/dc/elements/1.1/"
   xmlns:cc="http://creativecommons.org/ns#"
   xmlns:rdf="http://www.w3.org/1999/02/22-rdf-syntax-ns#"
   xmlns:svg="http://www.w3.org/2000/svg"
   xmlns="http://www.w3.org/2000/svg"
   xmlns:xlink="http://www.w3.org/1999/xlink"
   xmlns:sodipodi="http://sodipodi.sourceforge.net/DTD/sodipodi-0.dtd"
   xmlns:inkscape="http://www.inkscape.org/namespaces/inkscape"
   width="48px"
   height="48px"
   id="svg3039"
   version="1.1"
   inkscape:version="0.48.5 r10040"
   sodipodi:docname="jitsi.svg">
  <defs
     id="defs3041">
    <linearGradient
       id="linearGradient3838">
      <stop
         style="stop-color:#892ca0;stop-opacity:1;"
         offset="0"
         id="stop3840" />
      <stop
         style="stop-color:#c370d8;stop-opacity:1;"
         offset="1"
         id="stop3842" />
    </linearGradient>
    <linearGradient
       id="linearGradient3824">
      <stop
         style="stop-color:#ebebeb;stop-opacity:1;"
         offset="0"
         id="stop3826" />
      <stop
         style="stop-color:#dbdbdb;stop-opacity:1"
         offset="1"
         id="stop3830" />
    </linearGradient>
    <linearGradient
       id="linearGradient4279">
      <stop
         style="stop-color:#f9f9f9;stop-opacity:1;"
         offset="0"
         id="stop4281" />
      <stop
         id="stop4283"
         offset="0.81130701"
         style="stop-color:#c4c4c4;stop-opacity:1;" />
      <stop
         style="stop-color:#565656;stop-opacity:1;"
         offset="1"
         id="stop4285" />
    </linearGradient>
    <linearGradient
       id="linearGradient4239">
      <stop
         style="stop-color:#505050;stop-opacity:1;"
         offset="0"
         id="stop4241" />
      <stop
         style="stop-color:#ffffff;stop-opacity:0.15422885;"
         offset="1"
         id="stop4243" />
    </linearGradient>
    <linearGradient
       id="linearGradient4223">
      <stop
         id="stop4227"
         offset="0"
         style="stop-color:#e9e9e9;stop-opacity:0;" />
      <stop
         style="stop-color:#929292;stop-opacity:1"
         offset="1"
         id="stop4229" />
    </linearGradient>
    <linearGradient
       id="linearGradient4169">
      <stop
         id="stop4171"
         offset="0"
         style="stop-color:#f9f9f9;stop-opacity:1;" />
      <stop
         style="stop-color:#c4c4c4;stop-opacity:1;"
         offset="0.71567649"
         id="stop4175" />
      <stop
         id="stop4173"
         offset="1"
         style="stop-color:#565656;stop-opacity:1;" />
    </linearGradient>
    <linearGradient
       id="linearGradient4153">
      <stop
         style="stop-color:#ffffff;stop-opacity:1;"
         offset="0"
         id="stop4155" />
      <stop
         style="stop-color:#000000;stop-opacity:1;"
         offset="1"
         id="stop4157" />
    </linearGradient>
    <linearGradient
       id="linearGradient4145">
      <stop
         id="stop4147"
         offset="0"
         style="stop-color:#a0a0a0;stop-opacity:1;" />
      <stop
         id="stop4149"
         offset="1"
         style="stop-color:#202020;stop-opacity:1;" />
    </linearGradient>
    <linearGradient
       id="linearGradient4048">
      <stop
         id="stop4309"
         offset="0"
         style="stop-color:#131313;stop-opacity:1;" />
      <stop
         id="stop4054"
         offset="1"
         style="stop-color:#686868;stop-opacity:1;" />
    </linearGradient>
    <linearGradient
       id="linearGradient3886">
      <stop
         style="stop-color:#f9f9f9;stop-opacity:1;"
         offset="0"
         id="stop3888" />
      <stop
         style="stop-color:#afafaf;stop-opacity:1;"
         offset="1"
         id="stop3890" />
    </linearGradient>
    <linearGradient
       id="linearGradient3839">
      <stop
         style="stop-color:#85bcc3;stop-opacity:1;"
         offset="0"
         id="stop3841" />
      <stop
         style="stop-color:#3b67c0;stop-opacity:1;"
         offset="1"
         id="stop3843" />
    </linearGradient>
    <linearGradient
       y2="17"
       x2="40"
       y1="31"
       x1="54"
       gradientTransform="matrix(0,-1,-1,0,71,73)"
       gradientUnits="userSpaceOnUse"
       id="linearGradient3029"
       xlink:href="#linearGradient4410"
       inkscape:collect="always" />
    <linearGradient
       inkscape:collect="always"
       id="linearGradient4410">
      <stop
         style="stop-color:#383e51;stop-opacity:1"
         offset="0"
         id="stop4412" />
      <stop
         style="stop-color:#655c6f;stop-opacity:0"
         offset="1"
         id="stop4414" />
    </linearGradient>
    <linearGradient
       y2="12.770295"
       x2="40.426834"
       y1="22.719494"
       x1="59.420761"
       gradientTransform="matrix(0,-1.1056167,1.1056167,0,1.8809486,83.696584)"
       gradientUnits="userSpaceOnUse"
       id="linearGradient3028"
       xlink:href="#linearGradient4410"
       inkscape:collect="always" />
    <linearGradient
       y2="17"
       x2="40"
       y1="31"
       x1="54"
       gradientTransform="matrix(0,-1,1,0,4,78)"
       gradientUnits="userSpaceOnUse"
       id="linearGradient3028-7"
       xlink:href="#linearGradient4410-0"
       inkscape:collect="always" />
    <linearGradient
       inkscape:collect="always"
       id="linearGradient4410-0">
      <stop
         style="stop-color:#383e51;stop-opacity:1"
         offset="0"
         id="stop4412-9" />
      <stop
         style="stop-color:#655c6f;stop-opacity:0"
         offset="1"
         id="stop4414-1" />
    </linearGradient>
    <linearGradient
       y2="17"
       x2="40"
       y1="31"
       x1="54"
       gradientTransform="matrix(0.92361896,-0.60771399,-0.60771399,-0.92361896,-13.529375,73.514474)"
       gradientUnits="userSpaceOnUse"
       id="linearGradient3943"
       xlink:href="#linearGradient4410-0"
       inkscape:collect="always" />
    <radialGradient
       inkscape:collect="always"
       xlink:href="#linearGradient3886-5"
       id="radialGradient3892-5"
       cx="24.061937"
       cy="23.872463"
       fx="24.061937"
       fy="23.872463"
       r="17.025761"
       gradientTransform="matrix(1,0,0,0.99900396,0,0.02377793)"
       gradientUnits="userSpaceOnUse" />
    <linearGradient
       id="linearGradient3886-5">
      <stop
         style="stop-color:#f9f9f9;stop-opacity:1;"
         offset="0"
         id="stop3888-9" />
      <stop
         style="stop-color:#afafaf;stop-opacity:1;"
         offset="1"
         id="stop3890-3" />
    </linearGradient>
    <radialGradient
       inkscape:collect="always"
       xlink:href="#linearGradient4169-1"
       id="radialGradient4099-4"
       cx="26.5"
       cy="23.5"
       fx="26.5"
       fy="23.5"
       r="19.5"
       gradientTransform="matrix(0.9473684,0,0,0.79892039,1.3947374,4.725371)"
       gradientUnits="userSpaceOnUse" />
    <linearGradient
       id="linearGradient4169-1">
      <stop
         id="stop4171-2"
         offset="0"
         style="stop-color:#f9f9f9;stop-opacity:1;" />
      <stop
         style="stop-color:#c4c4c4;stop-opacity:1;"
         offset="0.76923078"
         id="stop4175-4" />
      <stop
         id="stop4173-4"
         offset="1"
         style="stop-color:#565656;stop-opacity:1;" />
    </linearGradient>
    <linearGradient
       inkscape:collect="always"
       xlink:href="#linearGradient4239"
       id="linearGradient4245"
       x1="44"
       y1="28.00672"
       x2="57.993282"
       y2="13"
       gradientUnits="userSpaceOnUse" />
    <linearGradient
       inkscape:collect="always"
       xlink:href="#linearGradient4223"
       id="linearGradient4249"
       x1="24.643452"
       y1="23.494081"
       x2="39.495842"
       y2="9.4033527"
       gradientUnits="userSpaceOnUse" />
    <linearGradient
       inkscape:collect="always"
       xlink:href="#linearGradient3838"
       id="linearGradient3844"
       x1="29.981358"
       y1="44.8125"
       x2="59.990952"
       y2="7.3004994"
       gradientUnits="userSpaceOnUse" />
    <linearGradient
       inkscape:collect="always"
       xlink:href="#linearGradient3886-5"
       id="linearGradient3860"
       x1="27"
       y1="21"
       x2="18"
       y2="33"
       gradientUnits="userSpaceOnUse" />
    <linearGradient
       inkscape:collect="always"
       xlink:href="#linearGradient3591"
       id="linearGradient4250"
       gradientUnits="userSpaceOnUse"
       gradientTransform="matrix(36.548954,0,0,36.548954,-12146.292,-14120.565)"
       x1="528.82031"
       y1="511.71811"
       x2="458.46918"
       y2="527.10736" />
    <linearGradient
       id="linearGradient3591">
      <stop
         style="stop-color:#ffffff;stop-opacity:1;"
         offset="0"
         id="stop3593" />
      <stop
         style="stop-color:#ffffff;stop-opacity:0;"
         offset="1"
         id="stop3595" />
    </linearGradient>
    <linearGradient
       inkscape:collect="always"
       xlink:href="#linearGradient3591"
       id="linearGradient4254"
       gradientUnits="userSpaceOnUse"
       gradientTransform="matrix(37.769902,0,0,37.054496,-12609.707,-14364.587)"
       x1="413.63229"
       y1="484.60083"
       x2="423.52518"
       y2="541.83301" />
    <linearGradient
       id="linearGradient4225">
      <stop
         style="stop-color:#ffffff;stop-opacity:1;"
         offset="0"
         id="stop4227-6" />
      <stop
         style="stop-color:#ffffff;stop-opacity:0;"
         offset="1"
         id="stop4229-8" />
    </linearGradient>
    <linearGradient
       inkscape:collect="always"
       xlink:href="#linearGradient3651"
       id="linearGradient4258"
       gradientUnits="userSpaceOnUse"
       gradientTransform="matrix(8.9811382,0,0,8.9811382,-27.280932,578.70474)"
       x1="522.63641"
       y1="168.68723"
       x2="585.93317"
       y2="161.10866" />
    <linearGradient
       id="linearGradient3651">
      <stop
         style="stop-color:#ff8000;stop-opacity:1;"
         offset="0"
         id="stop3653" />
      <stop
         id="stop16786"
         offset="0.5"
         style="stop-color:#fff4e1;stop-opacity:1;" />
      <stop
         style="stop-color:#fff4e1;stop-opacity:1;"
         offset="0.75"
         id="stop17514" />
      <stop
         style="stop-color:#ff8400;stop-opacity:1.0000000;"
         offset="1.0000000"
         id="stop3655" />
    </linearGradient>
    <linearGradient
       inkscape:collect="always"
       xlink:href="#linearGradient3591"
       id="linearGradient4262"
       gradientUnits="userSpaceOnUse"
       gradientTransform="matrix(36.548954,0,0,36.548954,-12146.292,-14120.565)"
       x1="473.09195"
       y1="499.58444"
       x2="457.68967"
       y2="477.5997" />
    <linearGradient
       id="linearGradient4238">
      <stop
         style="stop-color:#ffffff;stop-opacity:1;"
         offset="0"
         id="stop4240" />
      <stop
         style="stop-color:#ffffff;stop-opacity:0;"
         offset="1"
         id="stop4242" />
    </linearGradient>
    <linearGradient
       inkscape:collect="always"
       xlink:href="#linearGradient3591"
       id="linearGradient4264"
       gradientUnits="userSpaceOnUse"
       gradientTransform="matrix(36.548954,0,0,36.548954,-12146.292,-14120.565)"
       x1="394.34113"
       y1="501.80154"
       x2="446.31302"
       y2="485.37762" />
    <linearGradient
       id="linearGradient4245-6">
      <stop
         style="stop-color:#ffffff;stop-opacity:1;"
         offset="0"
         id="stop4247" />
      <stop
         style="stop-color:#ffffff;stop-opacity:0;"
         offset="1"
         id="stop4249" />
    </linearGradient>
    <linearGradient
       inkscape:collect="always"
       xlink:href="#linearGradient2937"
       id="linearGradient4270"
       gradientUnits="userSpaceOnUse"
       gradientTransform="matrix(3.4019741,0,0,6.8000608,3539.5107,-1510.7399)"
       x1="246.30438"
       y1="690.02673"
       x2="366.87921"
       y2="632.15985" />
    <linearGradient
       id="linearGradient2937">
      <stop
         style="stop-color:#212a3a;stop-opacity:1.0000000;"
         offset="0.0000000"
         id="stop2939" />
      <stop
         style="stop-color:#404e67;stop-opacity:0.0000000;"
         offset="1.0000000"
         id="stop2941" />
    </linearGradient>
    <linearGradient
       y2="702.89276"
       x2="266.215"
       y1="668.3009"
       x1="338.14404"
       gradientTransform="matrix(8.9811382,0,0,8.9811382,-472.55133,-1782.8072)"
       gradientUnits="userSpaceOnUse"
       id="linearGradient3236"
       xlink:href="#linearGradient2937"
       inkscape:collect="always" />
    <linearGradient
       id="linearGradient4256">
      <stop
         style="stop-color:#212a3a;stop-opacity:1.0000000;"
         offset="0.0000000"
         id="stop4258" />
      <stop
         style="stop-color:#404e67;stop-opacity:0.0000000;"
         offset="1.0000000"
         id="stop4260" />
    </linearGradient>
    <linearGradient
       y2="702.89276"
       x2="266.215"
       y1="668.3009"
       x1="338.14404"
       gradientTransform="matrix(8.9811382,0,0,8.9811382,-487.57185,-1780.1783)"
       gradientUnits="userSpaceOnUse"
       id="linearGradient4278"
       xlink:href="#linearGradient2937"
       inkscape:collect="always" />
    <linearGradient
       inkscape:collect="always"
       xlink:href="#linearGradient3591"
       id="linearGradient4379"
       gradientUnits="userSpaceOnUse"
       gradientTransform="matrix(36.548954,0,0,36.548954,-12284.894,-14203.548)"
       x1="528.82031"
       y1="511.71811"
       x2="458.46918"
       y2="527.10736" />
    <linearGradient
       inkscape:collect="always"
       xlink:href="#linearGradient3651"
       id="linearGradient4383"
       gradientUnits="userSpaceOnUse"
       gradientTransform="matrix(8.9811382,0,0,8.9811382,-165.8833,495.72246)"
       x1="522.63641"
       y1="168.68723"
       x2="585.93317"
       y2="161.10866" />
    <linearGradient
       inkscape:collect="always"
       xlink:href="#linearGradient3591"
       id="linearGradient4385"
       gradientUnits="userSpaceOnUse"
       gradientTransform="matrix(36.548954,0,0,36.548954,-12284.894,-14203.548)"
       x1="473.09195"
       y1="499.58444"
       x2="457.68967"
       y2="477.5997" />
    <linearGradient
       inkscape:collect="always"
       xlink:href="#linearGradient2937"
       id="linearGradient4389"
       gradientUnits="userSpaceOnUse"
       gradientTransform="matrix(3.4019741,0,0,6.8000608,3400.9083,-1593.7222)"
       x1="246.30438"
       y1="690.02673"
       x2="366.87921"
       y2="632.15985" />
  </defs>
  <sodipodi:namedview
     id="base"
     pagecolor="#ffffff"
     bordercolor="#666666"
     borderopacity="1.0"
     inkscape:pageopacity="0.0"
     inkscape:pageshadow="2"
     inkscape:zoom="5.6568545"
     inkscape:cx="2.7439197"
     inkscape:cy="11.487354"
     inkscape:current-layer="layer1"
     showgrid="true"
     inkscape:grid-bbox="true"
     inkscape:document-units="px"
     showguides="false"
     inkscape:guide-bbox="true"
     inkscape:window-width="1366"
     inkscape:window-height="698"
     inkscape:window-x="-4"
     inkscape:window-y="-5"
     inkscape:window-maximized="1"
     inkscape:snap-global="true">
    <inkscape:grid
       type="xygrid"
       id="grid3047" />
    <sodipodi:guide
       orientation="1,0"
       position="3,4"
       id="guide3051" />
    <sodipodi:guide
       orientation="1,0"
       position="45,4"
       id="guide3053" />
    <sodipodi:guide
       orientation="0,1"
       position="-2,45"
       id="guide3055" />
    <sodipodi:guide
       orientation="0,1"
       position="2,3"
       id="guide3057" />
    <sodipodi:guide
       orientation="1,0"
       position="24,31"
       id="guide3059" />
    <sodipodi:guide
       orientation="0,1"
       position="10,24"
       id="guide3061" />
  </sodipodi:namedview>
  <metadata
     id="metadata3044">
    <rdf:RDF>
      <cc:Work
         rdf:about="">
        <dc:format>image/svg+xml</dc:format>
        <dc:type
           rdf:resource="http://purl.org/dc/dcmitype/StillImage" />
        <dc:title />
      </cc:Work>
    </rdf:RDF>
  </metadata>
  <g
     id="layer1"
     inkscape:label="Layer 1"
     inkscape:groupmode="layer">
    <path
       style="opacity:1;fill:#da6e26;fill-opacity:1;stroke:none;stroke-width:0.20000000000000001;stroke-miterlimit:4;stroke-dasharray:none"
       d="m 23.993283,2.9865651 c -11.60169,0 -21.0067177,9.4050259 -21.0067177,21.0067179 C 2.9865653,35.594973 12.391593,45 23.993283,45 35.594972,45 45,35.594973 45,23.993283 45,12.391591 35.594972,2.9865651 23.993283,2.9865651 z m 0,3.3168501 c 9.769844,0 17.689867,7.9200228 17.689867,17.6898678 0,9.769843 -7.920023,17.689866 -17.689867,17.689866 -9.769845,0 -17.6898675,-7.920023 -17.6898675,-17.689866 0,-9.769845 7.9200225,-17.6898678 17.6898675,-17.6898678 z"
       id="path4080-7"
       inkscape:connector-curvature="0" />
    <g
       transform="matrix(1.0021857,0,0,1.0021855,-19.580722,0.14219194)"
       id="g4231"
       style="fill:#f2f2f2;fill-opacity:1">
      <path
         sodipodi:type="arc"
         style="fill:#b3b3b3;fill-opacity:1;stroke:none"
         id="path4233"
         sodipodi:cx="26.5"
         sodipodi:cy="23.5"
         sodipodi:rx="19.5"
         sodipodi:ry="18.5"
         d="M 46,23.5 C 46,33.717268 37.269553,42 26.5,42 15.730447,42 7,33.717268 7,23.5 7,13.282732 15.730447,5 26.5,5 37.269553,5 46,13.282732 46,23.5 z"
         transform="matrix(1.0234042,0,0,1.0787235,16.365465,-1.5442224)" />
    </g>
    <g
       id="g4214"
       transform="translate(-92.993284,0)"
       style="fill:url(#linearGradient4245);fill-opacity:1" />
    <g
       style="fill:#5fd35f;fill-opacity:1"
       id="g3845"
       transform="matrix(0.95207646,0,0,0.95207627,38.915163,1.3350822)" />
    <g
       style="fill:#cccccc;fill-opacity:1"
       id="g3095"
       transform="matrix(0.90447263,0,0,0.90447247,-15.331603,2.4683281)">
      <path
         style="fill:#266ed9;fill-opacity:1;stroke:none"
         d="M 24,6 C 14.058874,6 6,14.058875 6,24 6,33.941125 14.058874,42 24,42 33.941126,42 42,33.941125 42,24 42,14.058875 33.941126,6 24,6 z m 0,1 c 9.388841,0 17,7.611159 17,17 0,9.388841 -7.611159,17 -17,17 C 14.611159,41 7,33.388841 7,24 7,14.611159 14.611159,7 24,7 z"
         transform="matrix(1.1670398,0,0,1.16704,15.47672,-4.2031809)"
         id="path3097"
         inkscape:connector-curvature="0" />
    </g>
    <g
       transform="matrix(0.80926498,0,0,0.80926483,-11.191434,4.7348198)"
       id="g3099"
       style="fill:#00000f;fill-opacity:1" />
    <g
       id="g4202"
       transform="matrix(0.11510773,0,0,0.11510773,10.684227,-74.886907)">
      <path
         inkscape:connector-curvature="0"
         inkscape:export-ydpi="19.25"
         inkscape:export-xdpi="19.25"
         inkscape:export-filename="/home/emcho/storage/images/sc_logo/sc_logo136x203.png"
         sodipodi:nodetypes="csssssssssssssssssssssssssssssssssccssssssssssccsssssssssccsssssssssscssssssssssccssssssscssssssssc"
         id="path4204"
         d="m 52.51386,963.95968 c -0.59762,-1.31419 -1.08659,-2.49776 -1.08659,-2.63031 0,-0.13252 -2.08061,-11.07486 -2.31769,-13.88681 -1.03506,-12.27691 -2.66752,-13.45265 -2.21175,-24.39857 0.2761,-6.63061 -0.64392,-8.89235 1.31344,-14.31478 4.03102,-11.16694 6.98662,-15.56085 12.2251,-18.17414 4.24974,-2.12004 8.23695,-1.83207 11.97929,0.86518 0.98634,0.71092 4.29577,2.95048 7.35426,4.97678 3.05851,2.02634 6.69103,4.48296 8.07229,5.45919 1.38125,0.97628 3.68511,2.38497 5.11972,3.13046 2.53058,1.3151 2.62411,1.3351 3.13729,0.67104 1.12761,-1.45907 3.84947,-5.55395 5.32124,-7.50854 7.37209,-9.79052 0.42914,-8.70222 -1.30592,-9.21291 -2.72783,-0.80294 -3.87684,-1.97938 -6.42642,-4.96758 -5.92163,-6.94035 -8.72797,-14.66214 -9.14262,-24.20339 -0.48154,-11.07972 0.63266,-20.01531 5.49789,-25.10088 2.08527,-2.17973 6.49949,-5.34524 10.53505,-7.55495 3.4177,-1.87139 24.37883,-5.78232 26.21837,-4.96975 0.91898,0.40593 -3.63796,-11.63862 -1.01552,-27.29896 0.52096,-3.11103 4.05934,-12.73788 4.43322,-13.39298 0.92313,-1.61744 16.13503,-6.82395 20.46221,-9.36515 4.83486,-2.83935 15.29074,-9.67883 16.07843,-14.76568 1.73099,-11.1786 2.03825,-15.9556 2.75981,-16.37531 1.07388,-0.62465 8.25251,14.17566 3.39352,28.13116 -0.95893,2.75414 -5.53206,9.14865 -7.57975,11.8233 -1.47452,1.92602 1.72775,2.82621 3.56985,5.60679 1.67534,2.52882 2.77675,8.71086 2.9918,11.91416 0.21959,3.27101 -0.81543,9.98235 -1.7425,11.2988 -0.37549,0.53325 -0.52929,1.05709 -0.34387,1.17136 0.18449,0.11368 1.43417,-0.0352 2.77708,-0.33076 1.34289,-0.29559 4.25366,-0.7663 6.46837,-1.046 3.94259,-0.49787 4.08384,-0.49095 6.7595,0.33213 4.01386,1.23476 23.53789,5.95177 11.07947,60.50742 -4.12753,18.07453 -23.38873,41.92489 -25.8106,40.0783 l -5.96407,-4.5474 -6.87325,10.19022 c -3.50798,3.60293 -7.29065,7.08029 -9.52167,8.75312 -3.52051,2.63972 -10.56453,6.79799 -11.51562,6.79799 -0.24492,0 -1.63251,0.56931 -3.08354,1.26516 -4.19508,2.01176 -10.47851,3.66081 -17.13429,4.09795 -25.77135,1.66956 -15.93975,-1.44192 -37.27858,-11.77515 -1.68316,-0.81506 -5.55753,3.29679 -10.22719,7.54571 -4.98524,4.53606 -7.60226,7.98846 -9.57996,12.63792 -0.66947,1.57389 -1.71168,3.98838 -2.31602,5.36552 -1.64444,3.74731 -2.99719,8.93229 -3.19818,12.25814 -0.0983,1.62685 -0.31514,3.04193 -0.48187,3.14469 -0.16673,0.10272 -0.7921,-0.88841 -1.38973,-2.20249 z m 28.33197,-45.90886 c 3.30313,-0.83536 3.66477,-1.01966 7.21765,-3.67825 2.54576,-1.90501 4.12321,-5.3446 4.8004,-5.64508 4.4324,-1.96673 -3.3083,-3.73691 -6.20226,-5.68891 -2.89398,-1.95202 -6.65724,-3.39508 -9.2209,-5.3521 -2.56367,-1.95698 -4.78356,-3.48279 -4.93308,-3.39068 -0.14952,0.0921 -0.27471,1.40551 -0.27821,2.91861 -0.01023,4.41323 -0.6021,8.84164 -1.42935,10.69448 -0.42105,0.94301 -0.84611,2.76087 -0.94461,4.03969 -0.22816,2.96221 0.46109,4.38683 2.91271,6.02036 2.06595,1.3766 2.92385,1.38532 8.07765,0.0819 z m 119.70575,-83.58495 c -1.07558,-7.22468 -0.18498,-17.16053 -5.81444,-20.77728 -12.98767,-8.34415 -14.4135,-0.0696 -15.21021,1.75899 -1.31072,3.0083 -2.11753,5.46892 -1.12273,8.7761 3.05641,10.16086 6.96643,19.15821 8.82255,26.38029 2.13021,8.28856 4.47797,13.53077 4.71288,20.02986 0.16678,4.61378 0.12302,5.09887 -0.55601,6.16474 -0.9655,1.51542 -15.55215,5.22752 -22.89767,7.39176 -2.52211,0.74311 -0.28804,6.12175 -0.57696,7.89239 -0.28892,1.77059 -4.23701,11.66713 -2.96729,13.65682 12.52923,19.63374 40.23506,-40.20634 35.60988,-71.27367 z m -26.98831,48.27201 c 1.95984,-0.47131 3.79219,-1.04626 4.0719,-1.27773 0.27971,-0.23143 0.99066,-0.38419 1.57991,-0.33941 1.05432,0.0801 5.18218,-1.21949 5.4995,-1.73148 0.0894,-0.14415 3.7722,-2.06556 3.0355,-2.55357 -0.73674,-0.48803 -15.13237,-11.07005 -17.19649,-12.14627 -23.77004,-12.39364 -36.26526,-13.24685 -44.11407,-11.66556 -13.44457,2.70866 -25.05657,9.52598 -26.45346,11.20755 -0.42178,0.50774 21.04913,-6.66097 36.28977,0.87085 2.81591,1.39161 8.62965,3.78304 13.00058,8.46269 3.99268,4.27467 7.63329,8.79778 10.49869,9.5617 3.10695,0.82834 9.47337,0.64882 13.78817,-0.38877 z m -28.65731,-51.09687 c 7.52619,-1.317 19.18627,-16.95235 18.27894,-18.41606 -0.12276,-0.19808 2.25527,-4.14459 1.86904,-4.22161 -14.0842,-2.80833 -13.74485,-16.83242 -13.94793,-16.95753 -0.20308,-0.12514 -20.76525,9.71022 -25.50376,11.75869 -4.02092,1.73825 0.57503,12.10208 2.99929,18.53437 1.07855,2.86172 7.01744,6.67785 9.40766,8.23365 2.82773,1.84055 6.25378,1.181 6.89676,1.06849 z m 16.21969,-47.71727 c 4.06405,-3.20289 14.88802,-19.23422 13.73961,-25.73988 -4.67874,-26.5048 -6.69569,-10.0962 -6.99598,-7.73088 -0.12436,0.97963 -0.47868,3.14936 -0.7874,4.82161 -0.30868,1.67227 -0.70224,4.08678 -0.87456,5.36555 -0.1723,1.2788 -0.64865,3.53233 -1.05855,5.00784 -0.4099,1.47554 -1.05724,3.92831 -1.43856,5.45066 -0.38128,1.52232 -1.66486,5.27236 -2.85234,8.33339 -1.18749,3.06104 -2.15908,5.63846 -2.15908,5.72759 0,0.447 0.82393,0.0274 2.42686,-1.23588 z"
         style="fill:#266ed9;fill-opacity:1" />
      <path
         inkscape:connector-curvature="0"
         sodipodi:nodetypes="ccssc"
         id="path4206"
         d="m 53.57922,963.11994 c 6.35309,-26.31992 12.10112,-29.26957 27.22751,-39.0261 -3.32781,-1.89079 -11.51745,-8.1594 -11.49606,-11.49606 0.05726,-9.74197 1.6676,-26.72201 -9.07584,-19.66431 -20.38515,13.39167 -13.0087,55.96766 -6.65561,70.18647 z"
         style="fill:#3771c8;fill-opacity:1;fill-rule:evenodd;stroke:none;display:inline" />
      <path
         inkscape:connector-curvature="0"
         sodipodi:nodetypes="ccccsc"
         id="path4208"
         d="m 75.93257,920.7226 c 8.98173,6.78619 16.91991,12.78559 22.55412,15.96751 54.94138,2.77762 68.66033,-27.59386 69.6583,-52.49321 -4.89006,0.22454 -13.22311,-0.97302 -17.71397,-7.7405 -11.21439,3.68089 -45.16617,14.00314 -45.75692,16.32304 -3.06467,12.03515 -12.17523,21.75574 -28.74153,27.94316 z"
         style="fill:#266ed9;fill-opacity:1;fill-rule:evenodd;stroke:none;display:inline" />
      <path
         inkscape:connector-curvature="0"
         inkscape:export-ydpi="19.25"
         inkscape:export-xdpi="19.25"
         inkscape:export-filename="/home/emcho/storage/images/sc_logo/sc_logo136x203.png"
         sodipodi:nodetypes="cssssss"
         id="path4210"
         d="m 171.27539,910.58112 c 33.18508,-24.69965 28.91369,-74.159 29.44979,-76.69151 1.36299,-6.43866 -6.64955,-28.25155 -16.27383,-24.24947 -16.02424,6.66336 11.2767,44.44456 7.61407,65.1661 -0.76342,4.31907 -13.98948,7.50294 -22.98022,8.89864 -1.03689,0.16096 -0.1163,14.0955 -4.62673,20.50927 -0.64571,0.91818 6.21023,6.81854 6.81692,6.36697 z"
         style="fill:#da6e26;fill-opacity:1;fill-rule:evenodd;stroke:none;display:inline" />
      <path
         inkscape:connector-curvature="0"
         sodipodi:nodetypes="ccc"
         id="path4212"
         d="m 175.90353,907.19115 c 42.49251,-41.74886 20.98218,-116.27813 6.14636,-94.50993 20.37687,-4.1207 23.61854,64.2671 -6.14636,94.50993 z"
         style="fill:url(#linearGradient4379);fill-opacity:1;fill-rule:evenodd;stroke:none" />
      <path
         inkscape:connector-curvature="0"
         inkscape:export-ydpi="19.25"
         inkscape:export-xdpi="19.25"
         inkscape:export-filename="/home/emcho/storage/images/sc_logo/sc_logo136x203.png"
         sodipodi:nodetypes="csszs"
         id="path4214"
         d="m 95.21705,907.77562 c 0.78602,-1.06057 -13.88152,-6.08284 -22.74639,-14.06472 -0.98292,-0.88501 -1.14144,12.91242 -2.0703,18.66551 -0.57712,3.57451 5.4925,7.17351 6.87977,7.62184 1.15081,0.37191 14.71014,-7.86884 17.93692,-12.22263 z"
         style="fill:#ffe680;fill-opacity:1;fill-rule:evenodd;stroke:none;display:inline" />
      <path
         inkscape:connector-curvature="0"
         sodipodi:nodetypes="ccccc"
         id="path4216"
         d="m 83.58536,868.01334 c -5.099007,-25.84347 4.179267,-41.03939 41.3579,-46.37791 0.18024,0.56879 41.31909,-13.25606 55.79189,-13.35001 -3.92283,6.23323 0.0433,21.62385 4.80916,34.27609 0,0 -34.8276,9.08768 -101.95895,25.45183 z"
         style="fill:#b3b3b3;fill-opacity:1;fill-rule:evenodd;stroke:none" />
      <path
         inkscape:connector-curvature="0"
         inkscape:export-ydpi="19.25"
         inkscape:export-xdpi="19.25"
         inkscape:export-filename="/home/emcho/storage/images/sc_logo/sc_logo136x203.png"
         sodipodi:nodetypes="csssss"
         id="path4218"
         d="m 101.65537,863.89391 c 4.41182,-1.58073 17.00722,-5.39035 32.05421,-0.1519 10.3057,3.58781 16.2195,12.63312 20.66816,16.112 10.4789,8.19457 29.82289,-0.90843 33.32172,-0.85341 1.43753,0.0226 -25.96694,-24.60193 -46.62844,-25.8478 -27.77538,-1.67482 -45.11147,12.78188 -39.41565,10.74111 z"
         style="fill:#da6e26;fill-opacity:1;fill-rule:evenodd;stroke:none;display:inline" />
      <path
         inkscape:connector-curvature="0"
         inkscape:export-ydpi="19.25"
         inkscape:export-xdpi="19.25"
         inkscape:export-filename="/home/emcho/storage/images/sc_logo/sc_logo136x203.png"
         sodipodi:nodetypes="csss"
         id="path4220"
         d="m 169.42704,741.43522 c -0.1528,8.40398 -2.79669,28.46338 -11.30718,42.1727 -3.89274,6.27072 14.52008,-8.27661 16.50236,-20.78075 1.09029,-6.8775 -5.06881,-28.08959 -5.19518,-21.39195 z"
         style="fill:url(#linearGradient4383);fill-opacity:1;fill-rule:evenodd;stroke:none" />
      <path
         inkscape:connector-curvature="0"
         inkscape:export-ydpi="19.25"
         inkscape:export-xdpi="19.25"
         inkscape:export-filename="/home/emcho/storage/images/sc_logo/sc_logo136x203.png"
         sodipodi:nodetypes="cssscsc"
         id="path4222"
         d="m 141.79058,833.10697 c 9.23931,-4.71783 17.65654,-10.92192 22.99128,-22.44259 0.9032,-1.9505 -4.39968,-0.0586 -8.47555,-5.84433 -4.0357,-5.72867 -3.08341,-11.54295 -6.54001,-11.07789 -10.80021,1.4531 -25.20082,11.63758 -25.20082,11.63758 0,0 0.82824,11.14408 3.74751,15.67372 6.01898,9.33928 13.47759,12.05351 13.47759,12.05351 z"
         style="fill:#da6e26;fill-opacity:1;fill-rule:evenodd;stroke:none;display:inline" />
      <path
         inkscape:connector-curvature="0"
         sodipodi:nodetypes="ccc"
         id="path4224"
         d="m 156.09152,803.78111 c 2.72579,9.88879 17.87347,8.09668 14.70668,-11.15251 -1.36528,1.99619 -4.77608,12.95694 -14.70668,11.15251 z"
         style="opacity:0.55223843;fill:url(#linearGradient4385);fill-opacity:1;fill-rule:evenodd;stroke:none" />
      <path
         inkscape:connector-curvature="0"
         sodipodi:nodetypes="csccsc"
         id="path4226"
         d="m 140.48504,832.28297 c -5.10096,-3.46887 -9.50419,-7.78444 -12.32504,-12.34966 -2.82085,-4.56521 -4.0593,-27.84724 0.68685,-33.63375 2.60826,-6.3637 11.84132,-12.51424 22.09721,-15.2308 -19.49494,22.60506 -13.17796,56.86685 4.07359,53.53526 0.86206,-0.16648 -12.82587,7.73026 -14.53261,7.67895 z"
         style="fill:#b3b3b3;fill-opacity:1;fill-rule:evenodd;stroke:none" />
      <path
         inkscape:connector-curvature="0"
         inkscape:export-ydpi="19.25"
         inkscape:export-xdpi="19.25"
         inkscape:export-filename="/home/emcho/storage/images/sc_logo/sc_logo136x203.png"
         sodipodi:nodetypes="ccsssccssscccsssscscsccsssssccssssssccsssccssssccsscssssssssssssccsssccssssssccssssssssssssscsssscssscssc"
         id="path4230"
         d="m 140.05745,777.56053 c -3.94728,2.30056 -8.69302,4.87373 -9.63531,7.20019 -3.16217,6.64336 -4.34745,18.56552 -3.38465,17.88089 9.38401,-6.67285 20.24871,-8.52283 24.20205,-12.0967 11.71489,-10.59045 16.26287,-32.48353 13.80119,-29.2383 -7.96915,10.50564 -20.9111,13.88057 -24.98328,16.25392 z m -61.4085,147.01185 c 0,0 -11.08091,-7.66436 -10.87669,-10.1233 1.697,-20.4327 -1.92942,-21.625 -3.75706,-21.40828 -2.20803,0.26184 -13.6822,7.50553 -15.92058,27.95835 -1.62427,14.84147 4.24013,38.0296 5.13347,39.28426 4.62276,-12.42378 2.81919,-22.42331 25.42086,-35.71103 z m 121.05779,-90.52225 c -0.55133,-15.31772 -9.77382,-25.84979 -16.03746,-23.38322 -2.65737,1.04645 -4.4415,8.17887 -3.50846,12.60125 0.82755,3.92256 6.46634,19.10152 6.87179,20.38471 0.95868,3.03418 7.43087,21.62978 6.28035,30.56471 -1.00846,7.8316 -23.7097,10.5413 -23.7097,10.5413 0,0 -0.38149,6.37449 -1.16407,10.68177 -0.96202,5.29492 -2.86934,9.45033 -2.86934,9.45033 0,0 4.94251,4.60429 5.14224,4.59918 0.19973,-0.005 31.10844,-16.7127 28.99465,-75.44003 z m -23.69666,47.44964 c 1.59781,-0.44722 11.03201,-2.94175 10.52638,-3.27341 -3.50095,-2.2964 -7.48504,-5.18714 -14.1578,-10.37693 -37.04552,-28.81248 -70.69468,-4.54502 -70.03165,-4.76554 6.15153,-2.04594 12.64754,-3.20211 21.67232,-2.5993 7.26918,0.48555 18.69619,4.17029 28.70607,16.10244 3.72328,4.43828 7.94798,7.4497 23.28468,4.91274 z M 159.4851,818.95922 c 1.12085,-0.96962 5.01656,-8.31336 4.31505,-8.48395 -9.83076,-2.39074 -10.78824,-6.74031 -11.75043,-11.4727 -0.90123,-4.43254 -0.76219,-5.06465 -2.62452,-4.44953 -15.04703,4.96997 -19.20919,7.70131 -21.51157,9.61214 -3.60666,2.99331 -1.0768,11.03634 0.33349,14.23298 1.96563,4.4554 9.19232,12.51758 12.55437,13.16681 4.90391,0.94697 16.49344,-9.09974 18.68361,-12.60575 z m 10.93597,-27.14087 c -0.81548,-3.33524 -3.43538,-7.63066 -4.13349,-7.63066 -0.65744,0 -7.61876,5.38666 -9.4168,7.26354 -4.08086,4.25969 -2.09206,11.97893 2.43483,14.62671 7.66207,4.48154 13.28874,-5.37111 11.11546,-14.25959 z m -5.77705,-12.75642 c 3.35221,-3.34862 7.80844,-8.84532 8.99344,-17.19839 0.46443,-3.27384 0.73411,-6.15364 -1.30205,-12.62655 -0.47191,-1.50022 -1.90642,-5.8148 -1.96005,-5.24636 -1.05907,11.22382 -2.61083,23.68653 -9.93627,36.93167 -2.29934,4.15745 -1.06286,3.40174 4.20493,-1.86037 z m -78.6191,66.84814 c -3.99349,16.75103 6.58927,38.75062 15.16215,40.00456 8.28707,1.21213 32.04487,-5.96093 44.50484,-9.42568 3.26456,-0.90778 5.02074,-0.43427 -2.20131,-6.48455 -11.3226,-7.69755 -20.46099,-8.68868 -29.5776,-7.65392 -10.05581,1.14135 -17.59102,4.11772 -16.88606,3.52743 4.61053,-3.86056 12.8225,-10.76401 28.68812,-13.89013 6.89585,-1.35875 17.53788,-1.47808 30.38613,3.54005 15.93675,6.2244 24.23739,15.45542 30.97531,18.58381 2.39935,1.11401 3.25644,0.59604 4.20446,-2.18817 1.5883,-4.66452 -8.06663,-33.78938 -11.56456,-42.28236 -5.33802,-12.96073 0.89004,-19.15557 -0.47125,-18.85551 -6.6027,1.45543 -12.42508,5.69932 -17.306,10.06932 -11.93084,10.68198 -19.20273,12.95753 -20.28189,12.86579 -3.40727,-0.28972 -9.78249,-6.32022 -12.09877,-9.38241 -1.47795,-1.95389 -27.92949,3.15177 -35.72972,9.92827 -0.17845,0.15503 -6.19704,4.01498 -7.80385,11.6435 z M 77.5498,918.8389 c 8.72435,-3.6605 17.26585,-11.43939 16.52709,-11.56787 -4.52939,-0.78772 -21.23379,-12.23383 -21.22226,-12.11514 0.57378,5.90697 -0.71357,11.21473 -1.30092,17.06944 -0.24494,2.44161 3.00975,6.22428 5.99609,6.61357 z m 28.15174,-25.60492 c -1.66901,3.72058 -3.41156,18.3512 -27.53028,27.73991 -0.69864,0.27195 20.21205,14.57036 21.35002,14.62032 69.0544,3.03144 68.46916,-49.55437 67.5526,-50.88016 -0.13265,-0.19188 -6.03889,0.0138 -10.61352,-2.15692 -0.34887,-0.1655 -3.45204,-1.76502 -5.30227,-4.17423 -0.62757,-0.81715 -0.72524,-1.26122 -3.05074,-0.58541 -10.76269,3.12776 -42.89539,14.65696 -42.40581,15.43649 z M 84.18935,867.5847 c -12.33127,-43.08647 30.94329,-45.08535 37.80451,-46.74439 5.30593,-1.28297 4.14977,-1.78189 3.03089,-6.80033 -1.57099,-7.04629 -1.0816,-13.18841 0.26513,-19.77217 1.27351,-6.2258 1.93035,-9.37394 4.61998,-12.49571 2.16789,-2.51621 14.38379,-8.27049 17.4121,-9.72295 12.90529,-6.18974 17.83586,-12.99328 19.27422,-18.34465 1.014,-3.77255 2.49779,-13.07094 1.83081,-19.71727 -0.16416,-1.6359 0.89135,0.92745 6.14205,17.24159 2.68293,8.33593 1.36177,18.34502 -7.09994,27.38172 -1.14918,1.22726 -0.59185,1.4703 0.95354,4.02388 3.21078,5.30554 4.98573,11.93993 4.48566,16.76662 -0.40972,3.95432 -2.10008,7.6934 0.31754,7.40286 0.34951,-0.042 11.02834,-1.65875 18.33848,2.98757 4.95048,3.14653 12.00258,9.17808 10.17204,34.37342 -4.00842,55.17187 -30.9649,67.17892 -31.15387,67.18542 -0.4563,0.0156 -5.49956,-5.22074 -5.79806,-4.60407 -15.45677,31.93103 -47.3506,30.78387 -65.13826,31.11951 -3.55635,0.0671 -18.34444,-12.38469 -19.59088,-11.53286 -15.74294,10.75882 -20.11352,13.44589 -26.18374,40.94381 -0.23264,-0.43595 -8.41803,-14.95561 -8.07826,-44.15673 0.27838,-23.92523 13.34923,-35.21616 19.15997,-34.56498 7.05422,0.79055 10.59443,4.47084 20.52923,10.99795 1.77335,1.16509 8.0388,4.95377 9.46457,4.91926 3.5521,-0.0838 5.97534,-6.60969 6.55509,-10.83484 0.58475,-4.26168 1.15009,-3.23167 -2.17605,-4.37633 -4.1934,-1.44311 -11.42652,-9.296 -15.13675,-21.67633 z"
         style="fill:#214478;fill-opacity:1;fill-rule:nonzero;stroke:none" />
      <path
         inkscape:connector-curvature="0"
         inkscape:export-ydpi="19.25"
         inkscape:export-xdpi="19.25"
         inkscape:export-filename="/home/emcho/storage/images/sc_logo/sc_logo136x203.png"
         sodipodi:nodetypes="csss"
         id="path4234"
         d="m 166.00752,784.18642 c -4.02929,2.81265 -9.5846,6.74255 -10.72057,9.77333 -0.66996,1.78745 -1.12247,-4.99153 3.45182,-9.03009 2.57716,-2.27533 8.09315,-1.31871 7.26875,-0.74324 z"
         style="fill:url(#linearGradient4389);fill-opacity:1;fill-rule:evenodd;stroke:none;display:inline" />
      <path
         inkscape:connector-curvature="0"
         inkscape:export-ydpi="19.25"
         inkscape:export-xdpi="19.25"
         inkscape:export-filename="/home/emcho/storage/images/sc_logo/sc_logo136x203.png"
         sodipodi:nodetypes="csccscs"
         id="path4240"
         d="m 110.55877,827.01111 c 3.80202,-0.78266 8.57073,-2.07478 11.72698,-2.39299 2.63172,-0.26532 5.92925,-1.74739 8.46259,0.97744 -1.41052,-1.93357 -4.10815,-5.83882 -4.94871,-8.39667 0.76528,3.00553 -2.65492,3.42931 -3.50504,3.56438 -19.11709,3.02037 -30.61745,8.16849 -36.41981,17.74206 10.99033,-8.50263 23.96641,-11.34651 24.68399,-11.49422 z"
         style="fill:url(#linearGradient4278);fill-opacity:1;fill-rule:evenodd;stroke:none;display:inline" />
    </g>
  </g>
</svg>
