<?xml version="1.0" encoding="UTF-8" standalone="no"?>
<!-- Created with Inkscape (http://www.inkscape.org/) -->

<svg
   xmlns:dc="http://purl.org/dc/elements/1.1/"
   xmlns:cc="http://creativecommons.org/ns#"
   xmlns:rdf="http://www.w3.org/1999/02/22-rdf-syntax-ns#"
   xmlns:svg="http://www.w3.org/2000/svg"
   xmlns="http://www.w3.org/2000/svg"
   xmlns:xlink="http://www.w3.org/1999/xlink"
   xmlns:sodipodi="http://sodipodi.sourceforge.net/DTD/sodipodi-0.dtd"
   xmlns:inkscape="http://www.inkscape.org/namespaces/inkscape"
   width="48px"
   height="48px"
   id="svg3039"
   version="1.1"
   inkscape:version="0.48.5 r10040"
   sodipodi:docname="kiten.svg">
  <defs
     id="defs3041">
    <linearGradient
       id="linearGradient3842">
      <stop
         id="stop3844"
         offset="0"
         style="stop-color:#ff0000;stop-opacity:1" />
      <stop
         id="stop3846"
         offset="1"
         style="stop-color:#b57474;stop-opacity:1" />
    </linearGradient>
    <linearGradient
       id="linearGradient3867">
      <stop
         id="stop3869"
         offset="0"
         style="stop-color:#e36565;stop-opacity:1;" />
      <stop
         id="stop3871"
         offset="1"
         style="stop-color:#c03c3c;stop-opacity:1" />
    </linearGradient>
    <linearGradient
       id="linearGradient3824">
      <stop
         style="stop-color:#ebebeb;stop-opacity:1;"
         offset="0"
         id="stop3826" />
      <stop
         style="stop-color:#bebebe;stop-opacity:1;"
         offset="1"
         id="stop3830" />
    </linearGradient>
    <linearGradient
       id="linearGradient4279">
      <stop
         style="stop-color:#f9f9f9;stop-opacity:1;"
         offset="0"
         id="stop4281" />
      <stop
         id="stop4283"
         offset="0.81130701"
         style="stop-color:#c4c4c4;stop-opacity:1;" />
      <stop
         style="stop-color:#565656;stop-opacity:1;"
         offset="1"
         id="stop4285" />
    </linearGradient>
    <linearGradient
       id="linearGradient4239">
      <stop
         style="stop-color:#505050;stop-opacity:1;"
         offset="0"
         id="stop4241" />
      <stop
         style="stop-color:#ffffff;stop-opacity:0.15422885;"
         offset="1"
         id="stop4243" />
    </linearGradient>
    <linearGradient
       id="linearGradient4223">
      <stop
         id="stop4227"
         offset="0"
         style="stop-color:#e9e9e9;stop-opacity:0;" />
      <stop
         style="stop-color:#929292;stop-opacity:1"
         offset="1"
         id="stop4229" />
    </linearGradient>
    <linearGradient
       id="linearGradient4169">
      <stop
         id="stop4171"
         offset="0"
         style="stop-color:#f9f9f9;stop-opacity:1;" />
      <stop
         style="stop-color:#c4c4c4;stop-opacity:1;"
         offset="0.71567649"
         id="stop4175" />
      <stop
         id="stop4173"
         offset="1"
         style="stop-color:#565656;stop-opacity:1;" />
    </linearGradient>
    <linearGradient
       id="linearGradient4153">
      <stop
         style="stop-color:#ffffff;stop-opacity:1;"
         offset="0"
         id="stop4155" />
      <stop
         style="stop-color:#000000;stop-opacity:1;"
         offset="1"
         id="stop4157" />
    </linearGradient>
    <linearGradient
       id="linearGradient4145">
      <stop
         id="stop4147"
         offset="0"
         style="stop-color:#a0a0a0;stop-opacity:1;" />
      <stop
         id="stop4149"
         offset="1"
         style="stop-color:#202020;stop-opacity:1;" />
    </linearGradient>
    <linearGradient
       id="linearGradient4048">
      <stop
         id="stop4309"
         offset="0"
         style="stop-color:#3a3a3a;stop-opacity:1;" />
      <stop
         id="stop4054"
         offset="1"
         style="stop-color:#666666;stop-opacity:1;" />
    </linearGradient>
    <linearGradient
       id="linearGradient3886">
      <stop
         style="stop-color:#f9f9f9;stop-opacity:1;"
         offset="0"
         id="stop3888" />
      <stop
         style="stop-color:#afafaf;stop-opacity:1;"
         offset="1"
         id="stop3890" />
    </linearGradient>
    <linearGradient
       id="linearGradient3839">
      <stop
         style="stop-color:#85bcc3;stop-opacity:1;"
         offset="0"
         id="stop3841" />
      <stop
         style="stop-color:#0153fa;stop-opacity:1;"
         offset="1"
         id="stop3843" />
    </linearGradient>
    <linearGradient
       y2="17"
       x2="40"
       y1="31"
       x1="54"
       gradientTransform="matrix(0,-1,-1,0,71,73)"
       gradientUnits="userSpaceOnUse"
       id="linearGradient3029"
       xlink:href="#linearGradient4410"
       inkscape:collect="always" />
    <linearGradient
       inkscape:collect="always"
       id="linearGradient4410">
      <stop
         style="stop-color:#383e51;stop-opacity:1"
         offset="0"
         id="stop4412" />
      <stop
         style="stop-color:#655c6f;stop-opacity:0"
         offset="1"
         id="stop4414" />
    </linearGradient>
    <linearGradient
       y2="17"
       x2="40"
       y1="31"
       x1="54"
       gradientTransform="matrix(0,-1,1,0,4,78)"
       gradientUnits="userSpaceOnUse"
       id="linearGradient3028-7"
       xlink:href="#linearGradient4410-0"
       inkscape:collect="always" />
    <linearGradient
       inkscape:collect="always"
       id="linearGradient4410-0">
      <stop
         style="stop-color:#383e51;stop-opacity:1"
         offset="0"
         id="stop4412-9" />
      <stop
         style="stop-color:#655c6f;stop-opacity:0"
         offset="1"
         id="stop4414-1" />
    </linearGradient>
    <radialGradient
       inkscape:collect="always"
       xlink:href="#linearGradient3886-5"
       id="radialGradient3892-5"
       cx="24.061937"
       cy="23.872463"
       fx="24.061937"
       fy="23.872463"
       r="17.025761"
       gradientTransform="matrix(1,0,0,0.99900396,0,0.02377793)"
       gradientUnits="userSpaceOnUse" />
    <linearGradient
       id="linearGradient3886-5">
      <stop
         style="stop-color:#f9f9f9;stop-opacity:1;"
         offset="0"
         id="stop3888-9" />
      <stop
         style="stop-color:#afafaf;stop-opacity:1;"
         offset="1"
         id="stop3890-3" />
    </linearGradient>
    <radialGradient
       inkscape:collect="always"
       xlink:href="#linearGradient4169-1"
       id="radialGradient4099-4"
       cx="26.5"
       cy="23.5"
       fx="26.5"
       fy="23.5"
       r="19.5"
       gradientTransform="matrix(0.9473684,0,0,0.79892039,1.3947374,4.725371)"
       gradientUnits="userSpaceOnUse" />
    <linearGradient
       id="linearGradient4169-1">
      <stop
         id="stop4171-2"
         offset="0"
         style="stop-color:#f9f9f9;stop-opacity:1;" />
      <stop
         style="stop-color:#c4c4c4;stop-opacity:1;"
         offset="0.76923078"
         id="stop4175-4" />
      <stop
         id="stop4173-4"
         offset="1"
         style="stop-color:#565656;stop-opacity:1;" />
    </linearGradient>
    <linearGradient
       inkscape:collect="always"
       xlink:href="#linearGradient4239"
       id="linearGradient4245"
       x1="44"
       y1="28.00672"
       x2="57.993282"
       y2="13"
       gradientUnits="userSpaceOnUse" />
    <linearGradient
       inkscape:collect="always"
       xlink:href="#linearGradient4223"
       id="linearGradient4249"
       x1="24.643452"
       y1="23.494081"
       x2="39.495842"
       y2="9.4033527"
       gradientUnits="userSpaceOnUse" />
    <linearGradient
       y2="19.773825"
       x2="50.593132"
       y1="29.238647"
       x1="62.956341"
       gradientTransform="matrix(0,-1.1056167,1.1056167,0,-5.326737,93.730581)"
       gradientUnits="userSpaceOnUse"
       id="linearGradient4436"
       xlink:href="#linearGradient4410-7"
       inkscape:collect="always" />
    <linearGradient
       inkscape:collect="always"
       id="linearGradient4410-7">
      <stop
         style="stop-color:#383e51;stop-opacity:1"
         offset="0"
         id="stop4412-7" />
      <stop
         style="stop-color:#655c6f;stop-opacity:0"
         offset="1"
         id="stop4414-3" />
    </linearGradient>
    <linearGradient
       id="linearGradient3839-3">
      <stop
         style="stop-color:#85bcc3;stop-opacity:1;"
         offset="0"
         id="stop3841-6" />
      <stop
         style="stop-color:#0153fa;stop-opacity:1;"
         offset="1"
         id="stop3843-8" />
    </linearGradient>
    <linearGradient
       y2="17"
       x2="40"
       y1="28.286581"
       x1="51.286583"
       gradientTransform="matrix(0,-1.1056167,1.1056167,0,-2.2741174,86.703301)"
       gradientUnits="userSpaceOnUse"
       id="linearGradient3028"
       xlink:href="#linearGradient4410-4"
       inkscape:collect="always" />
    <linearGradient
       inkscape:collect="always"
       id="linearGradient4410-4">
      <stop
         style="stop-color:#383e51;stop-opacity:1"
         offset="0"
         id="stop4412-2" />
      <stop
         style="stop-color:#655c6f;stop-opacity:0"
         offset="1"
         id="stop4414-8" />
    </linearGradient>
    <linearGradient
       y2="13.815021"
       x2="36.815022"
       y1="22.859747"
       x1="46.764217"
       gradientTransform="matrix(0,-1.1056167,1.1056167,0,7.725883,68.703301)"
       gradientUnits="userSpaceOnUse"
       id="linearGradient3889"
       xlink:href="#linearGradient4410-7-0"
       inkscape:collect="always" />
    <linearGradient
       inkscape:collect="always"
       id="linearGradient4410-7-0">
      <stop
         style="stop-color:#383e51;stop-opacity:1"
         offset="0"
         id="stop4412-95" />
      <stop
         style="stop-color:#655c6f;stop-opacity:0"
         offset="1"
         id="stop4414-9" />
    </linearGradient>
    <linearGradient
       inkscape:collect="always"
       xlink:href="#linearGradient3839-8"
       id="linearGradient3872"
       x1="26"
       y1="11"
       x2="26"
       y2="34"
       gradientUnits="userSpaceOnUse" />
    <linearGradient
       id="linearGradient3839-8">
      <stop
         style="stop-color:#e36565;stop-opacity:1;"
         offset="0"
         id="stop3841-5" />
      <stop
         style="stop-color:#c03c3c;stop-opacity:1;"
         offset="1"
         id="stop3843-4" />
    </linearGradient>
    <linearGradient
       inkscape:collect="always"
       xlink:href="#linearGradient4410-7-0"
       id="linearGradient4193"
       gradientUnits="userSpaceOnUse"
       gradientTransform="matrix(0,-1.1056167,1.1056167,0,6.538383,69.297051)"
       x1="46.764217"
       y1="22.859747"
       x2="36.815022"
       y2="13.815021" />
    <linearGradient
       inkscape:collect="always"
       xlink:href="#linearGradient4410-4"
       id="linearGradient4196"
       gradientUnits="userSpaceOnUse"
       gradientTransform="matrix(0,-1.1056167,1.1056167,0,-3.4616174,87.297051)"
       x1="51.286583"
       y1="28.286581"
       x2="40"
       y2="17" />
    <filter
       color-interpolation-filters="sRGB"
       id="filter4423"
       y="-0.15025"
       width="1.1998"
       x="-0.099890001"
       height="1.3005">
      <feGaussianBlur
         id="feGaussianBlur4425"
         stdDeviation="0.71452459" />
    </filter>
  </defs>
  <sodipodi:namedview
     id="base"
     pagecolor="#ffffff"
     bordercolor="#666666"
     borderopacity="1.0"
     inkscape:pageopacity="0.0"
     inkscape:pageshadow="2"
     inkscape:zoom="8.0000005"
     inkscape:cx="36.598987"
     inkscape:cy="34.091306"
     inkscape:current-layer="layer1"
     showgrid="true"
     inkscape:grid-bbox="true"
     inkscape:document-units="px"
     showguides="true"
     inkscape:guide-bbox="true"
     inkscape:window-width="1366"
     inkscape:window-height="698"
     inkscape:window-x="-4"
     inkscape:window-y="-5"
     inkscape:window-maximized="1"
     inkscape:snap-global="false">
    <inkscape:grid
       type="xygrid"
       id="grid3047" />
    <sodipodi:guide
       orientation="1,0"
       position="3,4"
       id="guide3051" />
    <sodipodi:guide
       orientation="1,0"
       position="45.249997,23.624999"
       id="guide3053" />
    <sodipodi:guide
       orientation="0,1"
       position="-2,45"
       id="guide3055" />
    <sodipodi:guide
       orientation="0,1"
       position="2,3"
       id="guide3057" />
    <sodipodi:guide
       orientation="1,0"
       position="24,31"
       id="guide3059" />
    <sodipodi:guide
       orientation="0,1"
       position="20.624999,23.999999"
       id="guide3061" />
  </sodipodi:namedview>
  <metadata
     id="metadata3044">
    <rdf:RDF>
      <cc:Work
         rdf:about="">
        <dc:format>image/svg+xml</dc:format>
        <dc:type
           rdf:resource="http://purl.org/dc/dcmitype/StillImage" />
        <dc:title />
      </cc:Work>
    </rdf:RDF>
  </metadata>
  <g
     id="layer1"
     inkscape:label="Layer 1"
     inkscape:groupmode="layer">
    <g
       id="g4214"
       transform="translate(-92.993284,0)"
       style="fill:url(#linearGradient4245);fill-opacity:1" />
    <path
       style="opacity:1;fill:#b3b3b3;fill-opacity:1;stroke:none;stroke-width:0.20000000000000001;stroke-miterlimit:4;stroke-dasharray:none"
       d="m 23.993283,2.9865651 c -11.60169,0 -21.0067177,9.4050259 -21.0067177,21.0067179 C 2.9865653,35.594973 12.391593,45 23.993283,45 35.594972,45 45,35.594973 45,23.993283 45,12.391591 35.594972,2.9865651 23.993283,2.9865651 z m 0,3.3168501 c 9.769844,0 17.689867,7.9200228 17.689867,17.6898678 0,9.769843 -7.920023,17.689866 -17.689867,17.689866 -9.769845,0 -17.6898675,-7.920023 -17.6898675,-17.689866 0,-9.769845 7.9200225,-17.6898678 17.6898675,-17.6898678 z"
       id="path4080-7"
       inkscape:connector-curvature="0" />
    <g
       transform="matrix(0.95207646,0,0,0.95207627,-17.401687,1.3350822)"
       id="g4231"
       style="fill:#b3b3b3;fill-opacity:1">
      <path
         sodipodi:type="arc"
         style="fill:#b3b3b3;fill-opacity:1;stroke:none"
         id="path4233"
         sodipodi:cx="26.5"
         sodipodi:cy="23.5"
         sodipodi:rx="19.5"
         sodipodi:ry="18.5"
         d="M 46,23.5 C 46,33.717268 37.269553,42 26.5,42 15.730447,42 7,33.717268 7,23.5 7,13.282732 15.730447,5 26.5,5 37.269553,5 46,13.282732 46,23.5 z"
         transform="matrix(1.0772675,0,0,1.1354984,14.938086,-2.8784328)" />
    </g>
    <g
       transform="matrix(0.52364205,0,0,0.52364195,0.22907213,12.534295)"
       id="g3885"
       style="fill:#000000;fill-opacity:0.18039216" />
    <g
       style="fill:#da2626;fill-opacity:1"
       id="g3086"
       transform="matrix(0.52364205,0,0,0.52364195,1.2290719,11.534295)">
      <path
         transform="matrix(1.0772675,0,0,1.1354984,14.938086,-2.8784328)"
         d="M 46,23.5 C 46,33.717268 37.269553,42 26.5,42 15.730447,42 7,33.717268 7,23.5 7,13.282732 15.730447,5 26.5,5 37.269553,5 46,13.282732 46,23.5 z"
         sodipodi:ry="18.5"
         sodipodi:rx="19.5"
         sodipodi:cy="23.5"
         sodipodi:cx="26.5"
         id="path3088"
         style="fill:#da2626;fill-opacity:1;stroke:none"
         sodipodi:type="arc" />
    </g>
    <g
       id="g3900"
       style="font-size:12.23196983px;font-style:normal;font-variant:normal;font-weight:600;font-stretch:normal;text-align:center;line-height:125%;letter-spacing:0px;word-spacing:0px;text-anchor:middle;fill:#000000;fill-opacity:0.18039216;stroke:none;font-family:FreeSans;-inkscape-font-specification:FreeSans Semi-Bold"
       transform="translate(-0.43749997,0.81249995)" />
    <g
       style="font-size:12.23196983000000060px;font-style:normal;font-variant:normal;font-weight:600;font-stretch:normal;text-align:center;line-height:125%;letter-spacing:0px;word-spacing:0px;text-anchor:middle;fill:#1a1a1a;fill-opacity:1;stroke:none;font-family:FreeSans;-inkscape-font-specification:FreeSans Semi-Bold"
       id="text3889">
      <path
         d="m 15.650247,19.826023 0,9.72346 -0.931732,0 0,-0.794361 -5.9188877,0 0,0.794361 -0.931732,0 0,-9.72346 7.7823517,0 m -6.8506197,0.818252 0,3.135636 5.9188877,0 0,-3.135636 -5.9188877,0 m 0,3.965833 0,3.326762 5.9188877,0 0,-3.326762 -5.9188877,0"
         style="fill:#1a1a1a;-inkscape-font-specification:FreeSans Semi-Bold"
         id="path3894" />
      <path
         d="m 24.72269,22.382313 c 1.166648,1.986904 2.745414,3.523862 4.736304,4.610879 l -0.686853,0.860061 c -1.974963,-1.298052 -3.432286,-2.8808 -4.371974,-4.74825 l 0,3.523858 2.024725,0 0,0.794362 -1.994862,0 0,2.359193 -0.931732,0 0,-2.359193 -1.982917,0 0,-0.794362 2.006808,0 0,-3.428296 c -0.84812,1.939122 -2.245717,3.615441 -4.192795,5.028964 l -0.722689,-0.74658 c 1.963005,-1.15869 3.495982,-2.8589 4.598934,-5.100636 l -4.401837,0 0,-0.842142 4.694496,0 0,-2.496564 0.931732,0 0,2.496564 4.772141,0 0,0.842142 -4.479481,0"
         style="fill:#1a1a1a;-inkscape-font-specification:FreeSans Semi-Bold"
         id="path3896" />
      <path
         d="m 34.679083,25.780746 0,3.464132 -2.729497,0 0,0.60921 -0.806307,0 0,-4.073342 3.535804,0 m -2.729497,0.710745 0,2.042643 1.92319,0 0,-2.042643 -1.92319,0 m 6.402672,-6.3967 c -0.08363,0.676908 -0.149325,1.158701 -0.197098,1.44538 l 2.39503,0 0,2.478646 1.236336,0 0,0.734635 -6.814784,0 0,-0.734635 1.87541,0 c 0.008,-0.04379 0.113473,-0.559432 0.31655,-1.546914 l 0.03584,-0.220988 -1.576778,0 0,-0.710744 1.702203,0 c 0.008,-0.01592 0.01194,-0.04379 0.01195,-0.08362 0.06768,-0.398168 0.135372,-0.852089 0.203069,-1.361763 l -2.162096,0 0,-0.734634 5.81138,0 0,0.734634 -2.837004,0 m 1.40357,2.156124 -1.726093,0 c -0.16326,0.887939 -0.27674,1.477239 -0.340441,1.767902 l 2.066534,0 0,-1.767902 m 1.075076,3.643311 0,3.959862 -0.818252,0 0,-0.597264 -3.362597,0 0,0.609209 -0.818252,0 0,-3.971807 4.999101,0 m -4.180849,0.710745 0,1.941108 3.362597,0 0,-1.941108 -3.362597,0 m -5.321624,-7.244814 3.171473,0 0,0.734634 -3.171473,0 0,-0.734634 m -0.549483,1.600668 4.210712,0 0,0.74658 -4.210712,0 0,-0.74658 m 0.549483,1.618585 3.171473,0 0,0.734635 -3.171473,0 0,-0.734635 m 0,1.600668 3.171473,0 0,0.734635 -3.171473,0 0,-0.734635"
         style="fill:#1a1a1a;-inkscape-font-specification:FreeSans Semi-Bold"
         id="path3898" />
    </g>
  </g>
</svg>
