<?xml version="1.0" encoding="UTF-8" standalone="no"?>
<!-- Created with Inkscape (http://www.inkscape.org/) -->

<svg
   xmlns:dc="http://purl.org/dc/elements/1.1/"
   xmlns:cc="http://creativecommons.org/ns#"
   xmlns:rdf="http://www.w3.org/1999/02/22-rdf-syntax-ns#"
   xmlns:svg="http://www.w3.org/2000/svg"
   xmlns="http://www.w3.org/2000/svg"
   xmlns:xlink="http://www.w3.org/1999/xlink"
   xmlns:sodipodi="http://sodipodi.sourceforge.net/DTD/sodipodi-0.dtd"
   xmlns:inkscape="http://www.inkscape.org/namespaces/inkscape"
   width="48px"
   height="48px"
   id="svg3039"
   version="1.1"
   inkscape:version="0.48.5 r10040"
   sodipodi:docname="vmware-player.svg">
  <defs
     id="defs3041">
    <linearGradient
       id="linearGradient3824">
      <stop
         style="stop-color:#ebebeb;stop-opacity:1;"
         offset="0"
         id="stop3826" />
      <stop
         style="stop-color:#bebebe;stop-opacity:1;"
         offset="1"
         id="stop3830" />
    </linearGradient>
    <linearGradient
       id="linearGradient4279">
      <stop
         style="stop-color:#f9f9f9;stop-opacity:1;"
         offset="0"
         id="stop4281" />
      <stop
         id="stop4283"
         offset="0.81130701"
         style="stop-color:#c4c4c4;stop-opacity:1;" />
      <stop
         style="stop-color:#565656;stop-opacity:1;"
         offset="1"
         id="stop4285" />
    </linearGradient>
    <linearGradient
       id="linearGradient4239">
      <stop
         style="stop-color:#505050;stop-opacity:1;"
         offset="0"
         id="stop4241" />
      <stop
         style="stop-color:#ffffff;stop-opacity:0.15422885;"
         offset="1"
         id="stop4243" />
    </linearGradient>
    <linearGradient
       id="linearGradient4223">
      <stop
         id="stop4227"
         offset="0"
         style="stop-color:#e9e9e9;stop-opacity:0;" />
      <stop
         style="stop-color:#929292;stop-opacity:1"
         offset="1"
         id="stop4229" />
    </linearGradient>
    <linearGradient
       id="linearGradient4169">
      <stop
         id="stop4171"
         offset="0"
         style="stop-color:#f9f9f9;stop-opacity:1;" />
      <stop
         style="stop-color:#c4c4c4;stop-opacity:1;"
         offset="0.71567649"
         id="stop4175" />
      <stop
         id="stop4173"
         offset="1"
         style="stop-color:#565656;stop-opacity:1;" />
    </linearGradient>
    <linearGradient
       id="linearGradient4153">
      <stop
         style="stop-color:#ffffff;stop-opacity:1;"
         offset="0"
         id="stop4155" />
      <stop
         style="stop-color:#000000;stop-opacity:1;"
         offset="1"
         id="stop4157" />
    </linearGradient>
    <linearGradient
       id="linearGradient4145">
      <stop
         id="stop4147"
         offset="0"
         style="stop-color:#a0a0a0;stop-opacity:1;" />
      <stop
         id="stop4149"
         offset="1"
         style="stop-color:#202020;stop-opacity:1;" />
    </linearGradient>
    <linearGradient
       id="linearGradient4048">
      <stop
         id="stop4309"
         offset="0"
         style="stop-color:#131313;stop-opacity:1;" />
      <stop
         id="stop4054"
         offset="1"
         style="stop-color:#686868;stop-opacity:1;" />
    </linearGradient>
    <linearGradient
       id="linearGradient3886">
      <stop
         style="stop-color:#f9f9f9;stop-opacity:1;"
         offset="0"
         id="stop3888" />
      <stop
         style="stop-color:#afafaf;stop-opacity:1;"
         offset="1"
         id="stop3890" />
    </linearGradient>
    <linearGradient
       id="linearGradient3839">
      <stop
         style="stop-color:#85bcc3;stop-opacity:1;"
         offset="0"
         id="stop3841" />
      <stop
         style="stop-color:#3b67c0;stop-opacity:1;"
         offset="1"
         id="stop3843" />
    </linearGradient>
    <linearGradient
       y2="17"
       x2="40"
       y1="31"
       x1="54"
       gradientTransform="matrix(0,-1,-1,0,71,73)"
       gradientUnits="userSpaceOnUse"
       id="linearGradient3029"
       xlink:href="#linearGradient4410"
       inkscape:collect="always" />
    <linearGradient
       inkscape:collect="always"
       id="linearGradient4410">
      <stop
         style="stop-color:#383e51;stop-opacity:1"
         offset="0"
         id="stop4412" />
      <stop
         style="stop-color:#655c6f;stop-opacity:0"
         offset="1"
         id="stop4414" />
    </linearGradient>
    <linearGradient
       y2="12.770295"
       x2="40.426834"
       y1="22.719494"
       x1="59.420761"
       gradientTransform="matrix(0,-1.1056167,1.1056167,0,1.8809486,83.696584)"
       gradientUnits="userSpaceOnUse"
       id="linearGradient3028"
       xlink:href="#linearGradient4410"
       inkscape:collect="always" />
    <linearGradient
       y2="17"
       x2="40"
       y1="31"
       x1="54"
       gradientTransform="matrix(0,-1,1,0,4,78)"
       gradientUnits="userSpaceOnUse"
       id="linearGradient3028-7"
       xlink:href="#linearGradient4410-0"
       inkscape:collect="always" />
    <linearGradient
       inkscape:collect="always"
       id="linearGradient4410-0">
      <stop
         style="stop-color:#383e51;stop-opacity:1"
         offset="0"
         id="stop4412-9" />
      <stop
         style="stop-color:#655c6f;stop-opacity:0"
         offset="1"
         id="stop4414-1" />
    </linearGradient>
    <linearGradient
       y2="17"
       x2="40"
       y1="31"
       x1="54"
       gradientTransform="matrix(0.92361896,-0.60771399,-0.60771399,-0.92361896,-13.529375,73.514474)"
       gradientUnits="userSpaceOnUse"
       id="linearGradient3943"
       xlink:href="#linearGradient4410-0"
       inkscape:collect="always" />
    <radialGradient
       inkscape:collect="always"
       xlink:href="#linearGradient3886-5"
       id="radialGradient3892-5"
       cx="24.061937"
       cy="23.872463"
       fx="24.061937"
       fy="23.872463"
       r="17.025761"
       gradientTransform="matrix(1,0,0,0.99900396,0,0.02377793)"
       gradientUnits="userSpaceOnUse" />
    <linearGradient
       id="linearGradient3886-5">
      <stop
         style="stop-color:#f9f9f9;stop-opacity:1;"
         offset="0"
         id="stop3888-9" />
      <stop
         style="stop-color:#afafaf;stop-opacity:1;"
         offset="1"
         id="stop3890-3" />
    </linearGradient>
    <radialGradient
       inkscape:collect="always"
       xlink:href="#linearGradient4169-1"
       id="radialGradient4099-4"
       cx="26.5"
       cy="23.5"
       fx="26.5"
       fy="23.5"
       r="19.5"
       gradientTransform="matrix(0.9473684,0,0,0.79892039,1.3947374,4.725371)"
       gradientUnits="userSpaceOnUse" />
    <linearGradient
       id="linearGradient4169-1">
      <stop
         id="stop4171-2"
         offset="0"
         style="stop-color:#f9f9f9;stop-opacity:1;" />
      <stop
         style="stop-color:#c4c4c4;stop-opacity:1;"
         offset="0.76923078"
         id="stop4175-4" />
      <stop
         id="stop4173-4"
         offset="1"
         style="stop-color:#565656;stop-opacity:1;" />
    </linearGradient>
    <linearGradient
       inkscape:collect="always"
       xlink:href="#linearGradient4239"
       id="linearGradient4245"
       x1="44"
       y1="28.00672"
       x2="57.993282"
       y2="13"
       gradientUnits="userSpaceOnUse" />
    <linearGradient
       inkscape:collect="always"
       xlink:href="#linearGradient4223"
       id="linearGradient4249"
       x1="24.643452"
       y1="23.494081"
       x2="39.495842"
       y2="9.4033527"
       gradientUnits="userSpaceOnUse" />
  </defs>
  <sodipodi:namedview
     id="base"
     pagecolor="#ffffff"
     bordercolor="#666666"
     borderopacity="1.0"
     inkscape:pageopacity="0.0"
     inkscape:pageshadow="2"
     inkscape:zoom="8.0000005"
     inkscape:cx="5.2682015"
     inkscape:cy="15.527287"
     inkscape:current-layer="layer1"
     showgrid="true"
     inkscape:grid-bbox="true"
     inkscape:document-units="px"
     showguides="true"
     inkscape:guide-bbox="true"
     inkscape:window-width="1366"
     inkscape:window-height="698"
     inkscape:window-x="-4"
     inkscape:window-y="-5"
     inkscape:window-maximized="1"
     inkscape:snap-global="true">
    <inkscape:grid
       type="xygrid"
       id="grid3047" />
    <sodipodi:guide
       orientation="1,0"
       position="3,4"
       id="guide3051" />
    <sodipodi:guide
       orientation="1,0"
       position="45,4"
       id="guide3053" />
    <sodipodi:guide
       orientation="0,1"
       position="-2,45"
       id="guide3055" />
    <sodipodi:guide
       orientation="0,1"
       position="2,3"
       id="guide3057" />
    <sodipodi:guide
       orientation="1,0"
       position="24,31"
       id="guide3059" />
    <sodipodi:guide
       orientation="0,1"
       position="14,24"
       id="guide3061" />
    <sodipodi:guide
       orientation="1,0"
       position="10,31"
       id="guide3075" />
    <sodipodi:guide
       orientation="0,1"
       position="24,40"
       id="guide3077" />
    <sodipodi:guide
       orientation="1,0"
       position="38,27"
       id="guide3079" />
    <sodipodi:guide
       orientation="0,1"
       position="41,10"
       id="guide3081" />
    <sodipodi:guide
       orientation="-0.70710678,0.70710678"
       position="28,28"
       id="guide3058" />
    <sodipodi:guide
       orientation="0.70710678,0.70710678"
       position="23,25"
       id="guide3060" />
  </sodipodi:namedview>
  <metadata
     id="metadata3044">
    <rdf:RDF>
      <cc:Work
         rdf:about="">
        <dc:format>image/svg+xml</dc:format>
        <dc:type
           rdf:resource="http://purl.org/dc/dcmitype/StillImage" />
        <dc:title />
      </cc:Work>
    </rdf:RDF>
  </metadata>
  <g
     id="layer1"
     inkscape:label="Layer 1"
     inkscape:groupmode="layer">
    <g
       id="g4214"
       transform="translate(-92.993284,0)"
       style="fill:url(#linearGradient4245);fill-opacity:1" />
    <g
       transform="matrix(0.84972825,0,0,0.84972807,-12.951007,3.7715608)"
       id="g3056"
       style="fill:#c837ab;fill-opacity:1" />
    <g
       style="fill:#ececec;fill-opacity:1"
       id="g3047"
       transform="matrix(0.66645353,0,0,0.66645337,-4.9811812,8.1345576)" />
    <rect
       style="fill:#da2626;fill-opacity:1;stroke:none"
       id="rect3050"
       width="42"
       height="42"
       x="3"
       y="3"
       rx="0"
       ry="0" />
    <path
       style="fill:#b3b3b3;fill-opacity:1;stroke:none"
       d="M 17.65625 17 C 17.286917 17 17 17.286917 17 17.65625 L 17 23 L 19 23 L 19 19.46875 C 19 19.20494 19.20494 19 19.46875 19 L 23 19 L 23 17 L 17.65625 17 z M 25 17 L 25 19 L 28.53125 19 C 28.79506 19 29 19.20494 29 19.46875 L 29 23 L 31 23 L 31 17.65625 C 31 17.286917 30.713083 17 30.34375 17 L 25 17 z M 17 25 L 17 30.34375 C 17 30.713083 17.286917 31 17.65625 31 L 23 31 L 23 29 L 19.46875 29 C 19.20494 29 19 28.79506 19 28.53125 L 19 25 L 17 25 z M 29 25 L 29 28.53125 C 29 28.79506 28.79506 29 28.53125 29 L 25 29 L 25 31 L 30.34375 31 C 30.713083 31 31 30.713083 31 30.34375 L 31 25 L 29 25 z "
       id="rect3052" />
    <path
       style="fill:#b3b3b3;fill-opacity:1;stroke:none"
       d="m 33,9 c 0,0.554 0.446,1 1,1 l 4,0 0,4 c 0,0.554 0.446,1 1,1 0.554,0 1,-0.446 1,-1 L 40,9 C 40,8.8615 39.95672,8.744719 39.90625,8.625 39.754844,8.265844 39.4155,8 39,8 l -5,0 c -0.554,0 -1,0.446 -1,1 z"
       id="rect3063"
       inkscape:connector-curvature="0" />
    <path
       inkscape:connector-curvature="0"
       id="path3069"
       d="m 39,33 c -0.554,0 -1,0.446 -1,1 l 0,4 -4,0 c -0.554,0 -1,0.446 -1,1 0,0.554 0.446,1 1,1 l 5,0 c 0.1385,0 0.255281,-0.04328 0.375,-0.09375 C 39.734156,39.754844 40,39.4155 40,39 l 0,-5 c 0,-0.554 -0.446,-1 -1,-1 z"
       style="fill:#b3b3b3;fill-opacity:1;stroke:none" />
    <path
       inkscape:connector-curvature="0"
       id="path3073"
       d="m 9,15 c 0.554,0 1,-0.446 1,-1 l 0,-4 4,0 C 14.554,10 15,9.554 15,9 15,8.446 14.554,8 14,8 L 9,8 C 8.8615,8 8.744719,8.04328 8.625,8.09375 8.265844,8.245156 8,8.5845 8,9 l 0,5 c 0,0.554 0.446,1 1,1 z"
       style="fill:#b3b3b3;fill-opacity:1;stroke:none" />
    <path
       style="fill:#b3b3b3;fill-opacity:1;stroke:none"
       d="m 29.05439,17.531396 8.376496,-8.3764957 c 0.42187,-0.4218705 1.076869,-0.4461299 1.468606,-0.054393 0.391737,0.3917372 0.367478,1.0467357 -0.05439,1.4686067 L 30.468607,18.94561 C 30.046736,19.36748 29.391737,19.39174 29,19 28.60826,18.608265 28.632519,17.953267 29.05439,17.531396 z"
       id="rect3083"
       inkscape:connector-curvature="0" />
    <path
       inkscape:connector-curvature="0"
       id="path3062"
       d="M 18.94561,17.531396 10.569114,9.1549003 C 10.147244,8.7330298 9.492245,8.7087704 9.100508,9.1005073 8.708771,9.4922445 8.73303,10.147243 9.154898,10.569114 l 8.376495,8.376496 C 17.953264,19.36748 18.608263,19.39174 19,19 c 0.39174,-0.391735 0.367481,-1.046733 -0.05439,-1.468604 z"
       style="fill:#b3b3b3;fill-opacity:1;stroke:none" />
    <path
       inkscape:connector-curvature="0"
       id="path3064"
       d="M 29.05439,30.623505 37.430886,39 c 0.42187,0.421871 1.076869,0.44613 1.468606,0.05439 0.391737,-0.391737 0.367478,-1.046735 -0.05439,-1.468606 L 30.468607,29.209291 C 30.046736,28.787421 29.391737,28.763161 29,29.154901 c -0.39174,0.391735 -0.367481,1.046733 0.05439,1.468604 z"
       style="fill:#b3b3b3;fill-opacity:1;stroke:none" />
  </g>
</svg>
