<?xml version="1.0" encoding="UTF-8" standalone="no"?>
<!-- Created with Inkscape (http://www.inkscape.org/) -->

<svg
   xmlns:dc="http://purl.org/dc/elements/1.1/"
   xmlns:cc="http://creativecommons.org/ns#"
   xmlns:rdf="http://www.w3.org/1999/02/22-rdf-syntax-ns#"
   xmlns:svg="http://www.w3.org/2000/svg"
   xmlns="http://www.w3.org/2000/svg"
   xmlns:xlink="http://www.w3.org/1999/xlink"
   xmlns:sodipodi="http://sodipodi.sourceforge.net/DTD/sodipodi-0.dtd"
   xmlns:inkscape="http://www.inkscape.org/namespaces/inkscape"
   width="48px"
   height="48px"
   id="svg3039"
   version="1.1"
   inkscape:version="0.48.5 r10040"
   sodipodi:docname="war_thunder.svg">
  <defs
     id="defs3041">
    <linearGradient
       id="linearGradient3985">
      <stop
         id="stop3987"
         offset="0"
         style="stop-color:#3962a5;stop-opacity:1;" />
      <stop
         id="stop3989"
         offset="1"
         style="stop-color:#2a6aff;stop-opacity:1;" />
    </linearGradient>
    <linearGradient
       id="linearGradient3971">
      <stop
         style="stop-color:#309d1b;stop-opacity:1;"
         offset="0"
         id="stop3973" />
      <stop
         style="stop-color:#3cd04a;stop-opacity:1;"
         offset="1"
         id="stop3975" />
    </linearGradient>
    <linearGradient
       id="linearGradient3957">
      <stop
         id="stop3959"
         offset="0"
         style="stop-color:#a58b39;stop-opacity:1;" />
      <stop
         id="stop3961"
         offset="1"
         style="stop-color:#ffad2a;stop-opacity:1;" />
    </linearGradient>
    <linearGradient
       id="linearGradient3941">
      <stop
         style="stop-color:#a53939;stop-opacity:1;"
         offset="0"
         id="stop3943" />
      <stop
         style="stop-color:#ff2a2a;stop-opacity:1;"
         offset="1"
         id="stop3945" />
    </linearGradient>
    <linearGradient
       id="linearGradient4028">
      <stop
         style="stop-color:#bc5fd3;stop-opacity:1;"
         offset="0"
         id="stop4030" />
      <stop
         style="stop-color:#9e33b8;stop-opacity:1;"
         offset="1"
         id="stop4032" />
    </linearGradient>
    <linearGradient
       id="linearGradient4020">
      <stop
         style="stop-color:#ffcc00;stop-opacity:1;"
         offset="0"
         id="stop4022" />
      <stop
         style="stop-color:#ebbc00;stop-opacity:1;"
         offset="1"
         id="stop4024" />
    </linearGradient>
    <linearGradient
       id="linearGradient3927">
      <stop
         style="stop-color:#3771c8;stop-opacity:1;"
         offset="0"
         id="stop3929" />
      <stop
         style="stop-color:#5f8dd3;stop-opacity:1;"
         offset="1"
         id="stop3931" />
    </linearGradient>
    <linearGradient
       id="linearGradient3919">
      <stop
         style="stop-color:#299554;stop-opacity:1;"
         offset="0"
         id="stop3921" />
      <stop
         style="stop-color:#2ca05a;stop-opacity:1;"
         offset="1"
         id="stop3923" />
    </linearGradient>
    <linearGradient
       id="linearGradient3911">
      <stop
         style="stop-color:#e00000;stop-opacity:1;"
         offset="0"
         id="stop3913" />
      <stop
         style="stop-color:#ff5555;stop-opacity:1;"
         offset="1"
         id="stop3915" />
    </linearGradient>
    <linearGradient
       id="linearGradient3903">
      <stop
         style="stop-color:#cca300;stop-opacity:1;"
         offset="0"
         id="stop3905" />
      <stop
         style="stop-color:#ffcc00;stop-opacity:1;"
         offset="1"
         id="stop3907" />
    </linearGradient>
    <linearGradient
       id="linearGradient3896">
      <stop
         id="stop3898"
         offset="0"
         style="stop-color:#3b3b3b;stop-opacity:1;" />
      <stop
         style="stop-color:#959595;stop-opacity:1"
         offset="0.05888502"
         id="stop3900" />
      <stop
         id="stop3902"
         offset="1"
         style="stop-color:#565656;stop-opacity:1;" />
    </linearGradient>
    <linearGradient
       id="linearGradient3866">
      <stop
         style="stop-color:#f9f9f9;stop-opacity:1;"
         offset="0"
         id="stop3868" />
      <stop
         id="stop3870"
         offset="0.25"
         style="stop-color:#c4c4c4;stop-opacity:1;" />
      <stop
         style="stop-color:#565656;stop-opacity:1;"
         offset="1"
         id="stop3872" />
    </linearGradient>
    <linearGradient
       id="linearGradient3848">
      <stop
         style="stop-color:#f9f9f9;stop-opacity:1;"
         offset="0"
         id="stop3850" />
      <stop
         id="stop3852"
         offset="0.18623945"
         style="stop-color:#c4c4c4;stop-opacity:1;" />
      <stop
         style="stop-color:#565656;stop-opacity:1;"
         offset="1"
         id="stop3854" />
    </linearGradient>
    <linearGradient
       id="linearGradient3824">
      <stop
         style="stop-color:#ebebeb;stop-opacity:1;"
         offset="0"
         id="stop3826" />
      <stop
         style="stop-color:#bebebe;stop-opacity:1;"
         offset="1"
         id="stop3830" />
    </linearGradient>
    <linearGradient
       id="linearGradient4279">
      <stop
         style="stop-color:#f9f9f9;stop-opacity:1;"
         offset="0"
         id="stop4281" />
      <stop
         id="stop4283"
         offset="0.81130701"
         style="stop-color:#c4c4c4;stop-opacity:1;" />
      <stop
         style="stop-color:#565656;stop-opacity:1;"
         offset="1"
         id="stop4285" />
    </linearGradient>
    <linearGradient
       id="linearGradient4239">
      <stop
         style="stop-color:#505050;stop-opacity:1;"
         offset="0"
         id="stop4241" />
      <stop
         style="stop-color:#ffffff;stop-opacity:0.15422885;"
         offset="1"
         id="stop4243" />
    </linearGradient>
    <linearGradient
       id="linearGradient4223">
      <stop
         id="stop4227"
         offset="0"
         style="stop-color:#e9e9e9;stop-opacity:0;" />
      <stop
         style="stop-color:#929292;stop-opacity:1"
         offset="1"
         id="stop4229" />
    </linearGradient>
    <linearGradient
       id="linearGradient4169">
      <stop
         id="stop4171"
         offset="0"
         style="stop-color:#f9f9f9;stop-opacity:1;" />
      <stop
         style="stop-color:#c4c4c4;stop-opacity:1;"
         offset="0.71567649"
         id="stop4175" />
      <stop
         id="stop4173"
         offset="1"
         style="stop-color:#565656;stop-opacity:1;" />
    </linearGradient>
    <linearGradient
       id="linearGradient4153">
      <stop
         style="stop-color:#ffffff;stop-opacity:1;"
         offset="0"
         id="stop4155" />
      <stop
         style="stop-color:#000000;stop-opacity:1;"
         offset="1"
         id="stop4157" />
    </linearGradient>
    <linearGradient
       id="linearGradient4145">
      <stop
         id="stop4147"
         offset="0"
         style="stop-color:#a0a0a0;stop-opacity:1;" />
      <stop
         id="stop4149"
         offset="1"
         style="stop-color:#202020;stop-opacity:1;" />
    </linearGradient>
    <linearGradient
       id="linearGradient4048">
      <stop
         id="stop4309"
         offset="0"
         style="stop-color:#131313;stop-opacity:1;" />
      <stop
         id="stop4054"
         offset="1"
         style="stop-color:#686868;stop-opacity:1;" />
    </linearGradient>
    <linearGradient
       id="linearGradient3886">
      <stop
         style="stop-color:#f9f9f9;stop-opacity:1;"
         offset="0"
         id="stop3888" />
      <stop
         style="stop-color:#afafaf;stop-opacity:1;"
         offset="1"
         id="stop3890" />
    </linearGradient>
    <linearGradient
       id="linearGradient3839">
      <stop
         style="stop-color:#e38565;stop-opacity:1"
         offset="0"
         id="stop3841" />
      <stop
         style="stop-color:#e77a14;stop-opacity:1"
         offset="1"
         id="stop3843" />
    </linearGradient>
    <linearGradient
       y2="17"
       x2="40"
       y1="31"
       x1="54"
       gradientTransform="matrix(0,-1,-1,0,71,73)"
       gradientUnits="userSpaceOnUse"
       id="linearGradient3029"
       xlink:href="#linearGradient4410"
       inkscape:collect="always" />
    <linearGradient
       inkscape:collect="always"
       id="linearGradient4410">
      <stop
         style="stop-color:#383e51;stop-opacity:1"
         offset="0"
         id="stop4412" />
      <stop
         style="stop-color:#655c6f;stop-opacity:0"
         offset="1"
         id="stop4414" />
    </linearGradient>
    <linearGradient
       y2="17"
       x2="40"
       y1="31"
       x1="54"
       gradientTransform="matrix(0,-1,1,0,4,78)"
       gradientUnits="userSpaceOnUse"
       id="linearGradient3028-7"
       xlink:href="#linearGradient4410-0"
       inkscape:collect="always" />
    <linearGradient
       inkscape:collect="always"
       id="linearGradient4410-0">
      <stop
         style="stop-color:#383e51;stop-opacity:1"
         offset="0"
         id="stop4412-9" />
      <stop
         style="stop-color:#655c6f;stop-opacity:0"
         offset="1"
         id="stop4414-1" />
    </linearGradient>
    <linearGradient
       y2="17"
       x2="40"
       y1="31"
       x1="54"
       gradientTransform="matrix(0.92361896,-0.60771399,-0.60771399,-0.92361896,-13.529375,73.514474)"
       gradientUnits="userSpaceOnUse"
       id="linearGradient3943"
       xlink:href="#linearGradient4410-0"
       inkscape:collect="always" />
    <radialGradient
       inkscape:collect="always"
       xlink:href="#linearGradient3886-5"
       id="radialGradient3892-5"
       cx="24.061937"
       cy="23.872463"
       fx="24.061937"
       fy="23.872463"
       r="17.025761"
       gradientTransform="matrix(1,0,0,0.99900396,0,0.02377793)"
       gradientUnits="userSpaceOnUse" />
    <linearGradient
       id="linearGradient3886-5">
      <stop
         style="stop-color:#a1a1a1;stop-opacity:1;"
         offset="0"
         id="stop3888-9" />
      <stop
         style="stop-color:#b0b0b0;stop-opacity:1;"
         offset="1"
         id="stop3890-3" />
    </linearGradient>
    <radialGradient
       inkscape:collect="always"
       xlink:href="#linearGradient4169-1"
       id="radialGradient4099-4"
       cx="26.5"
       cy="23.5"
       fx="26.5"
       fy="23.5"
       r="19.5"
       gradientTransform="matrix(0.9473684,0,0,0.79892039,1.3947374,4.725371)"
       gradientUnits="userSpaceOnUse" />
    <linearGradient
       id="linearGradient4169-1">
      <stop
         id="stop4171-2"
         offset="0"
         style="stop-color:#f9f9f9;stop-opacity:1;" />
      <stop
         style="stop-color:#c4c4c4;stop-opacity:1;"
         offset="0.76923078"
         id="stop4175-4" />
      <stop
         id="stop4173-4"
         offset="1"
         style="stop-color:#565656;stop-opacity:1;" />
    </linearGradient>
    <linearGradient
       inkscape:collect="always"
       xlink:href="#linearGradient4239"
       id="linearGradient4245"
       x1="44"
       y1="28.00672"
       x2="57.993282"
       y2="13"
       gradientUnits="userSpaceOnUse" />
    <linearGradient
       inkscape:collect="always"
       xlink:href="#linearGradient4223"
       id="linearGradient4249"
       x1="24.643452"
       y1="23.494081"
       x2="39.495842"
       y2="9.4033527"
       gradientUnits="userSpaceOnUse" />
    <linearGradient
       inkscape:collect="always"
       xlink:href="#linearGradient4239-0"
       id="linearGradient4245-2"
       x1="44"
       y1="28.00672"
       x2="57.993282"
       y2="13"
       gradientUnits="userSpaceOnUse" />
    <linearGradient
       id="linearGradient4239-0">
      <stop
         style="stop-color:#505050;stop-opacity:1;"
         offset="0"
         id="stop4241-0" />
      <stop
         style="stop-color:#ffffff;stop-opacity:0.15422885;"
         offset="1"
         id="stop4243-4" />
    </linearGradient>
    <linearGradient
       id="linearGradient3839-2">
      <stop
         style="stop-color:#85b5c3;stop-opacity:1;"
         offset="0"
         id="stop3841-2" />
      <stop
         style="stop-color:#3b67c0;stop-opacity:1;"
         offset="1"
         id="stop3843-1" />
    </linearGradient>
    <linearGradient
       inkscape:collect="always"
       id="linearGradient3986">
      <stop
         style="stop-color:#ffffff;stop-opacity:1;"
         offset="0"
         id="stop3988" />
      <stop
         style="stop-color:#ffffff;stop-opacity:0;"
         offset="1"
         id="stop3990" />
    </linearGradient>
    <linearGradient
       inkscape:collect="always"
       id="linearGradient3978">
      <stop
         style="stop-color:#ffffff;stop-opacity:1;"
         offset="0"
         id="stop3980" />
      <stop
         style="stop-color:#ffffff;stop-opacity:0;"
         offset="1"
         id="stop3982" />
    </linearGradient>
    <linearGradient
       y2="13"
       x2="57.993282"
       y1="28.00672"
       x1="44"
       gradientUnits="userSpaceOnUse"
       id="linearGradient3117"
       xlink:href="#linearGradient4239-0"
       inkscape:collect="always" />
    <linearGradient
       inkscape:collect="always"
       xlink:href="#linearGradient3978"
       id="linearGradient3251"
       gradientUnits="userSpaceOnUse"
       gradientTransform="matrix(0.71344016,0,0,0.71344016,6.8774373,7.4327989)"
       x1="40"
       y1="26.9375"
       x2="31"
       y2="31" />
    <linearGradient
       inkscape:collect="always"
       xlink:href="#linearGradient4239-0"
       id="linearGradient3253"
       gradientUnits="userSpaceOnUse"
       x1="44"
       y1="28.00672"
       x2="57.993282"
       y2="13" />
    <linearGradient
       inkscape:collect="always"
       xlink:href="#linearGradient3986"
       id="linearGradient3259"
       gradientUnits="userSpaceOnUse"
       x1="18.625"
       y1="46.589149"
       x2="20.8125"
       y2="36.964149" />
    <linearGradient
       inkscape:collect="always"
       xlink:href="#linearGradient3986"
       id="linearGradient3922"
       gradientUnits="userSpaceOnUse"
       x1="18.625"
       y1="46.589149"
       x2="20.8125"
       y2="36.964149"
       gradientTransform="translate(-22.426548,-16.819911)" />
    <linearGradient
       inkscape:collect="always"
       xlink:href="#linearGradient3886-5"
       id="linearGradient3901"
       x1="44.536011"
       y1="1.7487231"
       x2="44.536011"
       y2="54.265526"
       gradientUnits="userSpaceOnUse" />
    <linearGradient
       inkscape:collect="always"
       xlink:href="#linearGradient3971"
       id="linearGradient3969"
       x1="4"
       y1="10"
       x2="16"
       y2="10"
       gradientUnits="userSpaceOnUse" />
    <linearGradient
       inkscape:collect="always"
       xlink:href="#linearGradient3886-5"
       id="linearGradient3999"
       x1="3"
       y1="10"
       x2="17"
       y2="10"
       gradientUnits="userSpaceOnUse" />
  </defs>
  <sodipodi:namedview
     id="base"
     pagecolor="#ffffff"
     bordercolor="#666666"
     borderopacity="1.0"
     inkscape:pageopacity="0.0"
     inkscape:pageshadow="2"
     inkscape:zoom="11.313709"
     inkscape:cx="43.290263"
     inkscape:cy="27.565822"
     inkscape:current-layer="layer1"
     showgrid="true"
     inkscape:grid-bbox="true"
     inkscape:document-units="px"
     showguides="true"
     inkscape:guide-bbox="true"
     inkscape:window-width="1366"
     inkscape:window-height="698"
     inkscape:window-x="-4"
     inkscape:window-y="-5"
     inkscape:window-maximized="1"
     inkscape:snap-global="true">
    <inkscape:grid
       type="xygrid"
       id="grid3047" />
    <sodipodi:guide
       orientation="1,0"
       position="3,4"
       id="guide3051" />
    <sodipodi:guide
       orientation="1,0"
       position="45,3"
       id="guide3053" />
    <sodipodi:guide
       orientation="0,1"
       position="-2,45"
       id="guide3055" />
    <sodipodi:guide
       orientation="0,1"
       position="21,3"
       id="guide3057" />
    <sodipodi:guide
       orientation="1,0"
       position="24,31"
       id="guide3059" />
    <sodipodi:guide
       orientation="0,1"
       position="34,24"
       id="guide3061" />
    <sodipodi:guide
       orientation="1,0"
       position="19,37"
       id="guide3122" />
    <sodipodi:guide
       orientation="1,0"
       position="29,36"
       id="guide3124" />
  </sodipodi:namedview>
  <metadata
     id="metadata3044">
    <rdf:RDF>
      <cc:Work
         rdf:about="">
        <dc:format>image/svg+xml</dc:format>
        <dc:type
           rdf:resource="http://purl.org/dc/dcmitype/StillImage" />
        <dc:title />
      </cc:Work>
    </rdf:RDF>
  </metadata>
  <g
     id="layer1"
     inkscape:label="Layer 1"
     inkscape:groupmode="layer">
    <g
       id="g4415">
      <path
         sodipodi:nodetypes="ccccc"
         inkscape:connector-curvature="0"
         id="rect3945"
         d="M 7,24 C 12,20 17,14 24,3 31,14 36,20 41,24 36,28 30,35 24,45 18,35 12,28 7,24 z"
         style="fill:#e6e6e6;fill-opacity:1;stroke:#1a1a1a;stroke-width:0.50000000000000000;stroke-miterlimit:4;stroke-dasharray:none" />
      <path
         sodipodi:nodetypes="ssssscccccsscssscccccccsssssscscccssssscssssssssscccscssssssccccccsssssssscccccsssssssscsssssssccccccccssssccssssssssssssssssssscccssscsssssssssssssssssssscssssssssssccssssscccssssssscssssssssssssssssssscssssssssssssssssssssssssscsssssssssssssssssssscsccccssscssscssssssssssss"
         inkscape:connector-curvature="0"
         id="path3994-7"
         d="m 24.145745,5.9999393 c -0.166584,0.028857 -0.446667,0.4686236 -1.270252,1.8395754 -1.151688,1.9171176 -2.446072,3.8056183 -3.493192,5.1764843 -0.472064,0.618017 -0.917422,1.196761 -0.952689,1.283425 -0.06715,0.165003 3.158758,3.44145 3.53856,3.593592 0.120304,0.04819 0.805824,0.09919 1.497082,0.08556 l 1.270251,-0.04279 1.179519,-3.679154 1.17952,-3.721934 -0.272197,-0.427809 c -0.271808,-0.465401 -2.313068,-3.70113 -2.540504,-4.021395 -0.04462,-0.062823 -0.08057,-0.095186 -0.136095,-0.085562 z m 3.357094,5.3476047 c -0.202894,-0.0059 -0.155028,-0.258328 -1.270251,4.748675 -0.583976,2.621869 -0.891081,4.378966 -0.816591,4.449211 0.06737,0.06354 1.160721,0.153702 2.404404,0.213905 1.243685,0.06019 2.752464,0.118075 3.357095,0.128342 l 1.088786,0 0,-0.385028 C 32.263,20.278035 32.104979,19.288391 31.903354,18.320824 L 31.495058,16.56681 29.58968,13.957177 c -1.059441,-1.431551 -2.000171,-2.607106 -2.086841,-2.609633 z m -15.46985,2.096262 c -0.661772,0.03834 -1.009271,0.410886 -0.907324,1.112302 0.128548,0.884435 0.615206,1.879158 1.497084,3.123004 1.335836,1.884131 2.40118,3.074684 5.716131,6.203225 1.268334,1.197011 2.313673,2.195749 2.313673,2.224604 0,0.02886 -0.399754,0.272333 -0.907322,0.51337 -0.885548,0.420543 -1.126504,0.582704 -1.134153,0.855617 -0.0019,0.06911 -0.179708,0.343344 -0.362929,0.598933 -0.343206,0.478764 -0.571749,0.595966 -1.224884,0.598931 l -0.36293,0 0.317562,-0.385027 c 0.306855,-0.343893 0.344303,-0.395311 0.181464,-0.641713 -0.100092,-0.151456 -0.221869,-0.434377 -0.272196,-0.641712 -0.28949,-1.192642 -1.22346,-1.299882 -1.678547,-0.171124 -0.128789,0.319412 -0.206801,0.36552 -0.589761,0.299466 -0.236909,-0.04087 -0.972328,-0.126016 -1.63318,-0.171123 -0.983373,-0.06712 -1.224653,-0.02657 -1.360983,0.128343 -0.09164,0.104098 -0.132094,0.283381 -0.09073,0.385026 0.09663,0.237446 1.538982,1.049015 2.359039,1.326208 0.631611,0.213502 0.635124,0.187857 0.635124,0.770054 0,0.878688 0.152771,0.920622 1.814646,0.727276 1.079938,-0.125647 1.563428,-0.113941 2.177574,0 0.861149,0.159764 1.497082,0.02729 1.497082,-0.299466 0,-0.284791 0.135131,-0.318674 2.222941,-0.641714 2.185578,-0.338161 2.852155,-0.381855 3.493191,-0.171123 0.362252,0.119088 0.469406,0.111874 0.589762,-0.04279 0.218825,-0.281181 1.012668,-0.337203 1.406348,-0.128343 l 0.317564,0.171124 -0.408296,0.128344 c -0.238187,0.07977 -0.453661,0.201726 -0.453661,0.256684 0,0.241227 0.986865,0.35308 1.134154,0.128343 0.103247,-0.157537 0.725857,-0.156065 0.725857,0 0,0.06335 -0.04448,0.139446 -0.136096,0.171122 -0.381335,0.131862 0.174668,0.31366 1.950745,0.684495 1.026036,0.21423 2.308401,0.454222 2.858065,0.513369 2.059486,0.221619 3.795453,0.09999 4.173685,-0.256684 0.108927,-0.102716 0.100807,-0.225002 -0.04537,-0.470589 -0.181381,-0.30474 -0.455902,-0.528367 -2.041475,-1.711235 l -0.544393,-0.427808 0.589758,-0.299467 0.589759,-0.299465 -0.362929,-0.04279 -0.408294,0 0,-2.181824 c 0,-1.967279 -0.0023,-2.199708 0.226831,-2.438508 0.139614,-0.145535 0.377817,-0.299466 0.499027,-0.299466 0.1212,0 0.312094,-0.07352 0.453662,-0.171124 0.249917,-0.172331 0.270502,-0.197666 -0.09073,-0.513371 -0.34981,-0.305715 -0.889391,-0.463425 -0.725859,-0.213904 0.257092,0.392277 -1.094408,1.333382 -1.542448,1.069522 -0.212677,-0.125249 -0.226832,-0.120471 -0.226832,0.08556 0,0.557946 -3.52124,2.838442 -3.765387,2.438509 -0.268073,-0.439142 0.241952,-1.372299 1.315618,-2.352947 l 0.58976,-0.51337 -0.408297,-0.171123 c -0.221505,-0.07884 -0.361358,-0.06683 -0.317562,0 0.04346,0.0663 -7.91e-4,0.197269 -0.09073,0.299465 -0.143908,0.163513 -0.212256,0.177193 -0.499027,0 -0.46223,-0.285607 -0.512209,-0.111669 -0.09073,0.256685 0.194708,0.170167 0.317563,0.311218 0.317563,0.342246 0,0.03102 -0.202537,0.159745 -0.453661,0.299468 -0.339636,0.188969 -0.414117,0.328781 -0.362929,0.513369 0.0766,0.276217 -0.156928,0.770056 -0.362929,0.770056 -0.261176,0 -0.290215,-0.378608 -0.04537,-0.641713 0.2447,-0.262947 0.216166,-0.267682 -0.04537,-0.171122 -0.588208,0.217158 -0.746832,0.214394 -0.998055,0 -0.516886,-0.441119 -0.197984,-0.68085 0.861957,-0.684495 0.546241,-0.0019 0.567408,-0.05971 0.272196,-0.427809 -0.193557,-0.241346 -0.172298,-0.242992 -0.861956,0.04279 -1.062824,0.440403 -1.207974,0.458959 -1.678546,0.08556 -0.232722,-0.184663 -0.453661,-0.379201 -0.453661,-0.427809 0,-0.04861 0.382246,-0.334306 0.861957,-0.598932 0.479706,-0.264626 0.847903,-0.483841 0.816589,-0.51337 -0.03132,-0.02953 -0.602752,0.07971 -1.270253,0.256684 l -1.179517,0.342248 -1.99611,-1.49733 C 23.323161,19.721218 22.02323,18.77934 21.559866,18.491953 l -0.81659,-0.513372 0.998055,0.898399 c 0.549664,0.486375 0.936943,0.896025 0.861957,0.898399 -0.07499,0.0023 -1.000754,-0.63091 -2.041476,-1.41177 -2.649393,-1.987864 -6.083422,-4.256684 -7.03174,-4.620336 -0.613637,-0.235313 -1.10002,-0.322466 -1.497083,-0.299467 z m 0.544394,0.427809 0.362929,0 -0.499028,0.427809 c -0.271979,0.241891 -0.472634,0.427808 -0.499028,0.427808 -0.02638,0 -0.09073,-0.09773 -0.09073,-0.256685 0,-0.388536 0.263769,-0.598932 0.725859,-0.598932 z m 0.907322,2.395728 c 0.132761,0 2.965382,2.789999 3.03953,2.99466 0.05629,0.155394 -0.464626,0.131779 -1.043421,-0.04279 -0.44454,-0.134065 -1.088786,-0.895915 -1.088786,-1.283425 0,-0.100837 -0.205874,-0.407865 -0.499027,-0.727276 -0.508007,-0.553508 -0.675927,-0.941179 -0.408296,-0.941179 z m -1.224884,0.04279 c 0,-0.06699 0.44839,0.316702 0.998054,0.855617 0.549662,0.538918 0.998054,1.062371 0.998054,1.155083 0,0.240036 -0.16217,0.291245 -0.499027,0.171124 -0.267012,-0.09521 -1.497081,-1.890332 -1.497081,-2.181824 z m 20.187925,1.326207 c -0.06548,-0.0236 -0.05581,0.08819 0,0.299465 0.05125,0.194064 0.415969,0.995856 0.816591,1.796799 0.400624,0.80094 0.725857,1.54604 0.725857,1.668452 0,0.122414 0.04625,0.318488 0.09073,0.427808 0.104077,0.255771 0.227437,0.233891 0.589761,-0.04279 l 0.272197,-0.213905 -0.499028,-0.855617 c -1.081112,-1.898348 -1.799665,-3.00942 -1.996103,-3.080224 z m -18.191817,1.24064 c 0.224168,-0.03167 0.584821,0.182654 0.95269,0.55615 0.289298,0.293728 0.543459,0.5471 0.544392,0.598934 0.0021,0.124975 -0.694795,0.127246 -0.907322,0 -0.277124,-0.165922 -0.846303,-0.912184 -0.771223,-1.026742 0.04089,-0.06237 0.106742,-0.117787 0.181463,-0.128342 z m 2.313674,0.770055 c 0.293942,0 0.630967,0.173058 1.27025,0.684495 0.480537,0.384436 1.00587,0.791103 1.17952,0.898398 0.173648,0.107301 0.317563,0.257011 0.317563,0.342247 0,0.08524 0.224195,0.271605 0.499026,0.385028 0.274833,0.11342 0.8218,0.398334 1.224887,0.641712 0.403086,0.243379 1.062289,0.524797 1.451716,0.641713 0.527217,0.158287 0.686524,0.283032 0.635126,0.427809 -0.465167,1.310217 -0.42508,1.262057 -1.134153,0.812837 -1.056872,-0.669565 -1.26703,-0.742426 -0.635125,-0.213905 0.348119,0.291164 0.635125,0.630798 0.635125,0.727274 0,0.292105 -1.186258,0.213053 -1.950744,-0.128342 -0.728216,-0.325197 -1.467808,-1.015709 -1.542447,-1.411768 -0.0276,-0.146485 -0.18897,-0.23328 -0.36293,-0.256686 -0.483876,-0.06509 -0.329201,-0.26618 0.272198,-0.342247 0.366659,-0.04639 0.697992,0.0041 0.952687,0.128343 0.596477,0.290872 0.542128,0.12633 -0.09073,-0.385028 -0.31498,-0.254508 -0.543862,-0.535859 -0.544394,-0.641712 -5.25e-4,-0.110793 -0.245019,-0.287975 -0.544393,-0.385028 -0.543118,-0.176074 -2.254925,-1.652343 -2.132214,-1.839576 0.03745,-0.05714 0.278075,-0.08556 0.499026,-0.08556 z m -0.771225,0.770056 c 0.223931,-0.006 0.499101,0.05905 0.680491,0.171125 0.587856,0.363226 2.207169,1.853541 2.132209,1.967918 -0.08899,0.13579 -0.389214,0.12121 -1.043422,-0.04279 -0.338175,-0.08477 -0.745395,-0.387316 -1.315618,-0.941179 -0.460047,-0.446849 -0.861955,-0.90161 -0.861955,-0.98396 0,-0.116925 0.184364,-0.165143 0.408295,-0.171123 z m -2.359039,0.04278 -0.680492,0.684495 c -0.373033,0.377501 -1.09735,1.131982 -1.633182,1.668454 -0.535827,0.53647 -0.998053,1.028391 -0.998053,1.112302 0,0.08391 0.468547,0.566836 0.998053,1.06952 0.838768,0.796285 0.997122,0.945766 1.406351,0.94118 0.952235,-0.01068 5.770538,-0.607456 5.897596,-0.727275 0.08631,-0.0814 -0.773863,-0.921766 -2.449769,-2.438509 z m 10.479576,0.342246 c 0.120276,-0.11342 1.83385,1.286919 2.041475,1.668455 0.241301,0.443421 0.399306,0.553536 0.771225,0.556149 0.291902,0.002 1.134153,0.731382 1.134153,0.98396 0,0.246827 -0.197937,0.163283 -0.771224,-0.299465 -0.298155,-0.240667 -0.669231,-0.487051 -0.861956,-0.556152 -0.192726,-0.06909 -0.428391,-0.252602 -0.499029,-0.427809 -0.07064,-0.175205 -0.518375,-0.689156 -0.998054,-1.112301 -0.479679,-0.423145 -0.852471,-0.779 -0.81659,-0.812837 z m 8.710297,0.855617 c -0.247545,0 -0.434724,0.206261 -0.317563,0.385028 0.120531,0.183909 0.401755,0.08126 0.453662,-0.171123 0.02493,-0.121211 -0.01936,-0.213905 -0.136095,-0.213905 z m 4.672711,1.368987 c -0.08115,0 -0.396695,0.156783 -0.680492,0.342247 -0.512603,0.334989 -0.498803,0.351507 -0.408295,0.983961 0.05011,0.350153 0.113538,0.733791 0.181464,0.855616 0.0949,0.170202 0.218269,0.181466 0.408295,0.08556 0.280354,-0.14149 1.315619,-1.261653 1.315619,-1.411769 0,-0.16421 -0.658795,-0.855617 -0.816591,-0.855617 z m -12.838615,0.513371 c 0.391612,0 0.725858,0.186394 0.725858,0.385028 0,0.04332 -0.183001,0.03118 -0.408295,0 -0.328473,-0.04546 -0.495888,0.05044 -0.861956,0.385028 -0.406769,0.371787 -0.453661,0.359139 -0.453661,0.128342 0,-0.450276 0.517861,-0.898398 0.998054,-0.898398 z m 3.99222,1.026741 c 0.318805,-0.0579 0.866595,0.35172 1.17952,0.855616 0.134988,0.21739 0.251898,0.388282 0.22683,0.385029 -0.02507,-0.0033 -0.423822,-0.274567 -0.861957,-0.598933 -0.61363,-0.454291 -0.735109,-0.607075 -0.544393,-0.641712 z m 6.033696,0.256685 c 0.03432,0.03236 0.110388,0.467326 0.181464,0.941179 0.07108,0.473851 0.197833,1.065442 0.272197,1.326207 0.07435,0.260764 0.08963,0.531415 0.04537,0.59893 -0.04425,0.06752 -0.190625,0.128343 -0.317563,0.128343 -0.290082,0 -2.268307,-1.269875 -2.268307,-1.454548 0,-0.157359 1.99274,-1.62885 2.086842,-1.540111 z m -12.702518,0.641712 c 0.258097,-0.0271 0.36293,0.115461 0.36293,0.513371 0,0.500406 -0.194485,0.54498 -0.725857,0.171124 -0.469469,-0.330301 -0.464446,-0.431339 0.04536,-0.598932 0.133358,-0.04384 0.231532,-0.07653 0.317564,-0.08556 z m 3.17563,0 c 0.162082,-0.02765 0.301938,-0.03554 0.362929,0 0.07426,0.04327 0.136094,0.272365 0.136094,0.47059 0,0.263269 0.136167,0.445222 0.499028,0.727274 0.586859,0.456173 0.592299,0.448481 -0.317563,0.04279 -0.700353,-0.312283 -0.730767,-0.288846 -1.678547,-0.08556 -1.172878,0.251565 -1.378468,0.117514 -0.680492,-0.427808 0.389447,-0.30427 1.192297,-0.644299 1.678547,-0.727274 z m -8.937128,0.855617 c 0.09517,0.02991 0.22953,0.314756 0.317562,0.641713 0.08802,0.326957 0.134947,0.61657 0.09073,0.641714 -0.168694,0.09591 -1.091611,-0.374834 -1.088786,-0.556152 0.0045,-0.28563 0.482873,-0.789393 0.680492,-0.727275 z m 4.718077,0.213905 c 0.418285,-0.09875 0.616324,0.05178 0.907323,0.47059 0.308427,0.443895 0.175958,0.684492 -0.362928,0.684492 -0.24196,0 -0.87741,0.118459 -1.406351,0.256687 -0.528939,0.138223 -1.014571,0.256685 -1.088787,0.256685 -0.524314,0 0.565216,-1.127619 1.451717,-1.497331 0.196574,-0.08197 0.359598,-0.138208 0.499026,-0.171123 z m 11.069337,0.128342 c 0.256121,0 2.44977,1.53544 2.44977,1.711235 0,0.06673 0.105536,0.215859 0.226832,0.342246 0.192565,0.200658 0.179184,0.213905 0,0.213905 -0.112858,0 -0.287495,-0.125604 -0.408297,-0.299466 -0.120801,-0.17386 -0.740473,-0.637332 -1.360983,-1.02674 -1.113943,-0.699069 -1.329345,-0.94118 -0.907322,-0.94118 z m -8.029806,3.294126 c -0.223477,0.02063 -0.342334,0.05415 -0.362929,0.08556 -0.151654,0.231399 -2.359038,6.753953 -2.359038,6.97328 0,0.194012 2.47034,4.254004 2.858066,4.705893 0.07413,0.08639 0.170261,0.171124 0.22683,0.171124 0.05657,0 0.699285,-0.997215 1.451717,-2.181823 0.752432,-1.184645 2.070969,-3.095649 2.903433,-4.278086 0.832463,-1.182436 1.471489,-2.226702 1.451715,-2.310167 -0.01977,-0.08347 -0.950872,-0.836441 -2.086842,-1.668453 l -2.086841,-1.49733 -1.134154,0 c -0.318475,-1.27e-4 -0.63848,-0.02063 -0.861957,0 z m 6.396624,0 c 0.10066,0 0.232574,0.04891 0.362929,0.128343 0.155754,0.09492 0.104087,0.12685 -0.181464,0.128342 -0.201544,0.0011 -0.362929,-0.05924 -0.362929,-0.128342 0,-0.07945 0.08081,-0.128343 0.181464,-0.128343 z m -1.134153,0.855618 c -0.239386,-0.01542 -0.416458,0.0094 -0.453661,0.04279 -0.08031,0.07239 0.240349,0.436358 0.81659,0.983959 0.613906,0.58339 0.944759,0.804491 1.043421,0.727276 0.08127,-0.06362 0.356277,-0.335125 0.58976,-0.641715 0.324108,-0.425594 0.39772,-0.589314 0.272196,-0.684493 -0.190828,-0.144699 -1.550147,-0.381559 -2.268306,-0.427809 z m -8.07517,0.641712 c -0.513915,-0.01014 -1.294331,0.02413 -2.359039,0.08556 -1.219132,0.07034 -1.41111,0.08598 -1.360984,0.256684 0.05467,0.186184 2.785916,3.943782 3.266362,4.491991 0.214001,0.244183 0.206422,0.244183 0.317562,0 0.166253,-0.365275 0.966789,-4.537663 0.907322,-4.705895 -0.02935,-0.08304 -0.257309,-0.118186 -0.771223,-0.128343 z"
         style="fill:#da2626;fill-opacity:1" />
      <g
         transform="matrix(0.12901296,0,0,0.12901296,8.0424728,7.6092507)"
         id="g4351">
        <path
           sodipodi:nodetypes="cssssssssssscssssssssssssssscssssssssssscsssssssssssssssssssssssscscsssccssssssssssssssssssssssssscsssssssssssssssssscsssssssssssssssssssssssssssssssssssssssssssssssssssssssssssssssssssssssssssscsscsssssc"
           inkscape:connector-curvature="0"
           id="path4359"
           d="m 198,182.93122 c -9.90174,-1.24178 -25.30059,-5.12741 -23.85666,-6.01981 0.86952,-0.53739 0.37549,-1.17352 -1.61608,-2.08094 -2.25881,-1.02918 -2.95615,-1.04379 -3.28118,-0.0687 -0.47047,1.4114 -6.05533,1.64519 -8.11606,0.33976 -1.10646,-0.70092 -1.01028,-1.07916 0.5,-1.96639 1.54864,-0.90976 1.6278,-1.25762 0.46066,-2.02431 -1.81601,-1.19295 -4.09068,-0.3168 -4.09068,1.57561 0,1.873 -4.09443,1.10274 -12.5,-2.35155 -8.21296,-3.37514 -15.85389,-3.87358 -29.5,-1.9244 -19.731517,2.81842 -21.792393,3.38624 -23.249028,6.40566 -1.404615,2.91159 -0.60243,2.8121 -16.750972,2.07748 -3.575,-0.16264 -10.163014,0.0827 -14.640031,0.54507 -7.721999,0.7976 -8.198665,0.73122 -9.281757,-1.29256 -0.627949,-1.17333 -1.036532,-3.69531 -0.907962,-5.6044 0.12857,-1.90908 0.03036,-3.60809 -0.218243,-3.77557 -0.248604,-0.16748 -4.246826,-2.09588 -8.884938,-4.28534 -18.329449,-8.65256 -18.8413,-13.7403 -1.20706,-11.99804 4.201995,0.41516 10.017718,0.8704 12.923828,1.01165 3.159098,0.15356 6.005606,0.91002 7.078741,1.88119 C 63.332269,155.61067 66,155.44626 66,153.05902 c 0,-1.06754 -0.489203,-2.24333 -1.087118,-2.61286 -0.597915,-0.36953 -0.864162,-1.52446 -0.591659,-2.56652 0.304515,-1.16446 -0.25736,-2.42193 -1.45795,-3.26285 -1.680661,-1.17718 -1.734509,-1.45222 -0.385659,-1.96983 2.310455,-0.8866 5.320157,2.66428 6.614243,7.80356 0.621689,2.46895 1.76232,5.01349 2.534734,5.65454 1.181875,0.98087 0.997766,1.69865 -1.161992,4.53024 L 67.898217,164 l 3.682815,0 c 2.927502,0 4.373576,-0.73242 7.050891,-3.5712 3.522064,-3.73448 4.229495,-5.96838 2.118077,-6.6884 -0.6875,-0.23444 3.1375,-2.52276 8.5,-5.08515 5.3625,-2.56239 9.75,-5.04528 9.75,-5.51753 0,-0.47225 -6.1875,-6.63369 -13.75,-13.69209 C 71.400762,116.51954 66.867072,111.73931 57.262595,99.936289 34.460805,71.914983 25.705625,57.480786 25.56801,47.683121 c -0.05183,-3.690394 0.39369,-5.179962 1.87312,-6.262606 5.892217,-4.311913 17.945994,0.506653 47.5377,19.003464 21.809547,13.632437 36.08459,23.850331 54.64417,39.113604 6.87278,5.652127 12.38601,9.452937 13.69148,9.438877 1.20203,-0.0129 5.52449,-0.91147 9.60545,-1.99673 4.08097,-1.08526 7.56765,-1.82548 7.74819,-1.64494 0.18054,0.18054 -2.59593,2.03838 -6.16993,4.12854 -3.57401,2.09015 -6.49819,4.13756 -6.49819,4.54979 0,1.18729 6.70799,5.98688 8.36736,5.98688 0.82545,0 4.28782,-1.20869 7.69415,-2.68598 5.99956,-2.60193 6.23629,-2.62724 7.56592,-0.80887 2.17585,2.97567 1.63429,3.76653 -2.09957,3.06605 -2.31789,-0.43483 -4.48428,-0.12797 -6.51679,0.92308 -2.57532,1.33175 -2.88438,1.87392 -2.00494,3.51717 1.58197,2.95595 4.61631,4.26098 6.97375,2.99932 1.81541,-0.97158 1.92964,-0.80836 1.375,1.96481 -0.47179,2.35898 -0.25241,3.02442 0.99707,3.02442 2.08513,0 4.86547,-4.26984 4.09231,-6.28466 -0.38749,-1.00978 0.32629,-2.17412 2.00852,-3.27636 3.57333,-2.34133 3.93795,-1.47825 1.12458,2.66198 -2.84232,4.18285 -4.64337,10.1742 -3.57709,11.89948 C 175.72798,139.79594 203,121.29833 203,117.33098 c 0,-0.95644 0.74418,-1.18231 2.4691,-0.74938 4.58598,1.15101 12.35853,-5.26127 10.92033,-9.00916 -0.94742,-2.46892 1.73403,-1.81342 5.39345,1.31847 3.61435,3.09332 3.34489,3.73127 -2.56677,6.07685 -6.40717,2.54218 -6.75009,3.74174 -6.41852,22.45189 0.27791,15.68234 0.42666,16.82623 2.25,17.30305 1.85934,0.48623 2.78301,2.25267 1.20241,2.29954 -0.4125,0.0122 -1.82466,0.84855 -3.13812,1.85848 l -2.38813,1.83626 7.38813,5.4682 c 8.61407,6.37556 14.05592,12.21395 13.27681,14.24428 -0.30197,0.78693 -1.93011,1.91223 -3.61809,2.50066 -3.49064,1.21685 -20.07158,1.21746 -29.7706,0.001 z m -44,-14.89604 c 0,-2.5144 -7.07098,-3.94264 -10,-2.01987 -1.33333,0.87528 -1.33333,1.0941 0,1.96938 1.9377,1.27201 10,1.31272 10,0.0505 z m 56.91667,-2.67586 C 211.14583,165.1617 209.89869,165 208.14523,165 c -2.43988,0 -3.45851,-0.59347 -4.34026,-2.5287 -1.52548,-3.34806 -18.34769,-15.86075 -20.31068,-15.10748 -2.70621,1.03847 -1.58882,2.32241 6.75349,7.7601 4.53628,2.95685 9.73012,6.84242 11.54188,8.63462 2.66711,2.63833 3.80954,3.13498 6.00222,2.60933 1.48946,-0.35707 2.89562,-0.81092 3.12479,-1.00855 z M 90.59345,158.94949 c 3.248602,-1.12779 8.375609,-2.36644 11.39335,-2.75257 6.53284,-0.83589 7.33647,-2.47085 3.47195,-7.06357 -3.09959,-3.68366 -6.020682,-3.96932 -12.14705,-1.1879 C 89.212029,149.80673 83,156.85787 83,159.65004 c 0,1.77671 0.623283,1.7192 7.59345,-0.70055 z m 118.80104,-2.77878 c 0.28189,-0.4561 -0.13366,-2.9764 -0.92344,-5.60066 -0.78979,-2.62425 -1.72628,-7.60491 -2.0811,-11.06813 -0.95621,-9.33313 -1.39758,-9.57948 -7.43599,-4.15043 -2.86987,2.58026 -6.50855,5.45376 -8.08595,6.38555 -1.57741,0.9318 -2.86801,2.2592 -2.86801,2.94978 0,2.01326 15.15589,12.24555 18.19098,12.2814 1.48004,0.0175 2.92162,-0.3414 3.20351,-0.79751 z M 146,152.21561 c 0,-0.43142 -1.2375,-1.53085 -2.75,-2.44319 -4.84446,-2.92218 -8.25,-6.76647 -8.25,-9.31289 0,-3.10457 -1.99404,-3.18199 -9.51163,-0.3693 -6.03166,2.25674 -11.46738,6.25955 -10.21068,7.51906 0.42773,0.42868 3.37982,0.24196 6.5602,-0.41493 8.28277,-1.71078 9.90718,-1.49255 17.16211,2.30564 7.48561,3.91895 7,3.73057 7,2.71561 z m -36.35541,-7.7318 c 0.31999,-0.8339 0.27968,-3.93439 -0.0896,-6.88998 -0.66261,-5.30333 -0.77578,-5.45373 -8.62996,-11.46858 C 91.291467,118.74774 85.849368,116 80.871188,116 c -4.626195,0 -5.853273,1.59541 -2.427576,3.15626 C 79.849625,119.79688 81,120.82821 81,121.44811 c 0,0.61989 2.1375,3.21598 4.75,5.76908 4.795595,4.68657 9.63131,7.104 16.5,8.24856 4.45066,0.74163 4.74676,1.75906 1.00774,3.46268 l -2.74226,1.24946 3.25803,2.91105 c 3.66704,3.2765 5.0252,3.59918 5.87108,1.39487 z m 55.05387,-10.15456 C 160.40514,130.27279 157,128.77896 157,130.95196 c 0,0.52358 1.93838,2.2856 4.30752,3.91561 2.36913,1.63001 4.94018,3.72597 5.71345,4.65769 1.04011,1.25326 1.51698,1.36089 1.83273,0.41365 0.23474,-0.70423 -1.63512,-3.22857 -4.15524,-5.60966 z m -49.41612,-5.39727 c 0.48082,-1.88759 1.289,-3.85948 1.79594,-4.38198 1.72036,-1.77314 0.93067,-2.4853 -6.62872,-5.97795 -4.15274,-1.91869 -10.1741,-5.08231 -13.380807,-7.03028 C 93.862047,109.59379 90.509743,108 89.619189,108 88.728635,108 88,107.38166 88,106.62592 88,104.96751 71.382461,90.569541 68.366196,89.614564 c -1.173592,-0.371569 -2.073592,-1.282567 -2,-2.024438 C 66.510514,86.135282 44.455546,63 42.924319,63 41.01509,63 42.872413,66.864265 47.14665,71.784796 48.715993,73.591434 50,75.817246 50,76.731046 c 0,3.226976 5.088185,9.145842 8.856649,10.302555 2.003843,0.615071 4.274925,1.321514 5.046848,1.569873 1.115379,0.358862 1.039752,0.717538 -0.368398,1.747203 -1.611366,1.178259 -1.075229,1.9232 5.91775,8.222482 4.590677,4.135291 9.060084,7.266441 11.09019,7.769511 2.376298,0.58885 3.333739,1.36026 3.178752,2.56111 -0.134777,1.04425 2.26286,3.79562 6.111371,7.01299 9.03516,7.55344 22.498328,17.09832 23.620898,16.74634 0.52473,-0.16453 1.34746,-1.84354 1.82828,-3.73113 z M 129.57692,125 c 3.5577,0 4.58799,-1.33901 1.84129,-2.39301 C 126.52386,120.72885 120,124.39951 120,129.03147 c 0,1.95635 0.2407,1.88168 3.07692,-0.95455 2.2374,-2.23739 4.0109,-3.07692 6.5,-3.07692 z M 154,125.61636 C 154,123.32768 146.24869,117 143.4451,117 c -1.94996,0 -2.8024,-0.72651 -3.62662,-3.09088 -1.12299,-3.22139 -15.50222,-15.580762 -16.69036,-14.34585 -0.34546,0.359069 2.38873,3.41672 6.07599,6.79479 3.68726,3.37807 7.15879,7.36673 7.71451,8.86369 0.58948,1.58791 2.37908,3.31475 4.29589,4.14522 1.80702,0.7829 4.86049,2.80233 6.78549,4.48761 3.781,3.31015 6,3.96171 6,1.76178 z M 83,113.72772 C 83,112.49045 70.442011,101.25984 65.139721,97.755265 61.876617,95.598501 59.125722,95.508798 58.34865,97.533816 57.404878,99.993246 68.536149,111.16956 73.957907,113.20623 79.413412,115.25558 83,115.46243 83,113.72772 z M 60,93.62736 C 60,91.825545 51.483296,84 49.522343,84 48.685054,84 48,84.72254 48,85.605644 c 0,1.907055 4.57334,7.607572 6.878698,8.574071 C 57.616296,95.327425 60,95.070332 60,93.62736 z m 53,-3.063124 c 0,-0.420222 -13.938327,-11.852405 -17,-13.943361 -2.770839,-1.892332 0.231399,1.024033 8,7.771178 6.80796,5.912814 9,7.416111 9,6.172183 z M 48.951165,79.75 c -0.03065,-1.412283 -3.21911,-5.600867 -8.56379,-11.25 -5.830756,-6.162897 -8.186602,-8.130968 -7.473336,-6.243213 2.980709,7.888844 9.35872,17.508033 12.430143,18.746891 3.271035,1.319372 3.659896,1.184216 3.606983,-1.253678 z M 35.25065,43.177742 C 32.446326,42.796684 30,44.556906 30,46.955778 c 0,3.041685 1.129727,2.971282 4.408817,-0.274749 3.199621,-3.167363 3.203237,-3.182413 0.841833,-3.503287 z m 144.20052,74.644728 c -1.12685,-0.52171 -2.59317,-1.8202 -3.25847,-2.88552 -0.99579,-1.5945 -0.94295,-1.93695 0.29883,-1.93695 0.82966,0 1.50847,0.45 1.50847,1 0,0.55 1.17378,1 2.60841,1 2.28296,0 2.53012,-0.31192 1.98095,-2.5 -0.34511,-1.375 -0.37507,-2.5 -0.0666,-2.5 0.82158,0 4.90738,3.93272 4.40447,4.23944 -0.23498,0.14331 -1.55223,1.22154 -2.92723,2.39608 -1.9164,1.637 -2.97828,1.91408 -4.54883,1.18695 z m 8.97973,-8.93427 c -0.79657,-1.28889 1.27959,-2.85067 3.8191,-2.87289 1.58186,-0.0138 1.55784,0.17685 -0.25,1.98469 -2.31346,2.31346 -2.63828,2.39429 -3.5691,0.8882 z m 12.95652,-1.07037 c -0.40185,-0.65019 -0.83473,-2.33769 -0.96197,-3.75 -0.12724,-1.4123 -2.75002,-8.108764 -5.8284,-14.881018 -5.58738,-12.291914 -7.221,-17.884701 -3.99783,-13.686812 2.18754,2.849078 11.63903,19.002684 14.88099,25.43321 2.60378,5.16467 2.65016,5.4983 0.93835,6.75 -2.23307,1.63286 -4.07473,1.68214 -5.03114,0.13462 z"
           style="fill:#333333" />
        <path
           sodipodi:nodetypes="ssssssssssssssssssssssssscssssssssssssssscsssssssssssssssssssssssssssscsssssssssssssssssssssscscssssccsssssssssssssssssssssssssscssssssscsssssssssssscssss"
           inkscape:connector-curvature="0"
           id="path4355"
           d="m 195.60026,181.42262 c -4.89485,-0.76102 -9.66788,-2.07883 -10.60673,-2.92848 -2.83765,-2.56804 -13.1395,-5.73214 -16.75353,-5.14566 -1.82316,0.29586 -3.03818,0.13399 -2.73054,-0.36378 0.98956,-1.60116 -4.10221,-4.12502 -6.90357,-3.42192 C 157.17265,169.9225 156,170.61803 156,171.10841 156,171.59878 154.875,172 153.5,172 c -1.375,0 -2.5,-0.45 -2.5,-1 0,-0.55 1.125,-1 2.5,-1 3.46188,0 3.20162,-2.58582 -0.45034,-4.47432 -3.61062,-1.86712 -7.72463,-1.94397 -11.05364,-0.20646 -1.60867,0.83961 -4.84004,1.15815 -9.03746,0.89088 -6.30629,-0.40156 -33.880004,3.0867 -38.70856,4.89689 -1.279703,0.47975 -2.25,1.68761 -2.25,2.80087 0,2.88613 -3.25654,3.45068 -11.85757,2.05563 -5.83686,-0.94672 -8.894403,-0.97071 -12.941651,-0.10153 C 64.286207,176.48788 59.907281,177 57.469831,177 c -3.900723,0 -4.507391,-0.30147 -5.063214,-2.51605 -0.347318,-1.38382 -0.38667,-3.45222 -0.08745,-4.59645 C 53.008158,167.2528 52.167187,165 50.494661,165 c -1.916313,0 -19.040745,-8.74814 -20.451212,-10.44765 -2.48703,-2.99669 -0.142571,-3.84138 8.846366,-3.18728 11.166699,0.81256 19.906275,2.22404 21.412313,3.45817 0.65883,0.53989 2.322872,1.13802 3.697872,1.32919 2.395138,0.33299 2.493953,0.13785 2.355831,-4.65243 l -0.144169,-5 1.375446,4 c 0.756495,2.2 1.859706,4.82276 2.45158,5.82836 1.155421,1.96307 0.321908,3.5727 -3.538688,6.83369 -1.850019,1.56268 -1.869638,1.74012 -0.261622,2.36619 2.793855,1.08776 11.618007,-1.48659 13.305628,-3.88177 1.245893,-1.76826 1.669753,-1.89419 2.405531,-0.71472 0.756195,1.2122 2.246954,1.01859 9.721808,-1.26265 4.85576,-1.48192 10.029355,-2.6887 11.496865,-2.68175 6.47242,0.0307 7.33208,-2.26014 3.1917,-8.50522 -1.45205,-2.19017 -2.03705,-3.41963 -1.3,-2.73213 1.85889,1.73392 4.606,1.56302 5.3331,-0.33179 0.33385,-0.86998 0.60699,-3.79498 0.60699,-6.5 0,-4.57942 0.17221,-4.91821 2.5,-4.91821 2.01298,0 2.5,-0.49669 2.5,-2.54966 0,-1.40231 0.70233,-3.90782 1.56074,-5.56779 0.8584,-1.65997 1.41621,-3.45169 1.23958,-3.9816 -0.17664,-0.5299 -3.6981,-2.43147 -7.82547,-4.22571 C 103.41797,114.39013 91.355439,107.47492 89.5,105.36413 87.949647,103.60042 74.070086,91.681104 71.609085,90 70.401351,89.175 63.602985,82.3125 56.501605,74.75 49.400225,67.1875 43.007253,61 42.295002,61 c -1.54241,0 -1.65547,1.921699 -0.319753,5.4349 1.539661,4.049614 -0.480627,3.011792 -4.253261,-2.1849 -6.492591,-8.943354 -6.453811,-8.714503 -2.753665,-16.25 1.412971,-2.877573 9.494611,-2.439836 16.633717,0.900955 10.64453,4.981176 29.118681,17.951277 49.89796,35.031734 12.74387,10.475395 11.52201,9.757702 13.05143,7.666087 1.25758,-1.719845 1.60452,-1.604883 5.98215,1.982249 4.34138,3.557434 4.50591,3.860223 2.50067,4.602009 -2.76619,1.023281 -2.12964,2.057076 5.71046,9.274146 3.4346,3.16165 6.81011,6.93969 7.50115,8.39564 0.69104,1.45595 2.69176,3.36465 4.44604,4.24156 1.75428,0.87692 4.80692,3.01442 6.78365,4.75 6.5329,5.73597 11.05831,3.33486 5.13925,-2.72681 -4.215,-4.31656 -4.78948,-6.18674 -0.97994,-3.19015 1.44917,1.13992 3.69917,2.07258 5,2.07258 1.30083,0 2.36514,0.59081 2.36514,1.31291 0,1.29327 5.02335,6.68709 6.2278,6.68709 1.17099,0 6.64735,6.03127 7.27663,8.01397 0.34669,1.09232 1.21027,1.98603 1.91907,1.98603 2.63932,0 19.61685,-10.68341 25.0291,-15.75 3.08449,-2.8875 6.29908,-5.25 7.14353,-5.25 3.41996,0 11.40387,-6.08188 11.40387,-8.68709 0,-1.80091 0.72082,-1.65092 3.2098,0.66793 l 2.12618,1.98083 -3.41799,1.43185 c -1.87989,0.78751 -4.48962,2.57559 -5.7994,3.97349 -2.33598,2.49316 -2.37772,2.87108 -2.18801,19.80955 0.10936,9.76401 0.62908,17.79286 1.19598,18.47593 0.71048,0.85609 0.40108,1.52994 -1.06199,2.31295 -1.13552,0.60771 -2.06457,1.94095 -2.06457,2.96275 0,1.94257 -2.51934,3.48691 -4.09735,2.51164 -0.50428,-0.31166 -1.55124,-1.79339 -2.32658,-3.29273 -1.40567,-2.71827 -1.40048,-2.725 1.8127,-2.34988 4.78798,0.55897 5.85823,-1.32612 4.08953,-7.20307 -0.79378,-2.63751 -1.7369,-7.78768 -2.09583,-11.44481 -0.35894,-3.65714 -1.08433,-7.48667 -1.61198,-8.51007 -0.88618,-1.71876 -1.23828,-1.59583 -4.61493,1.6111 -2.01056,1.90951 -6.24306,5.34853 -9.40556,7.64227 -3.1625,2.29375 -5.75,4.57496 -5.75,5.06935 0,0.4944 -1.0079,1.04271 -2.23978,1.21846 -4.83438,0.68972 -3.06561,3.56224 5.92926,9.62924 4.84579,3.26846 10.03597,7.33096 11.53374,9.02778 2.63139,2.98107 2.9599,3.07289 9.74098,2.7228 7.55986,-0.3903 8.50069,0.0152 15.7858,6.80364 3.92597,3.65831 4.1655,6.33752 0.6849,7.66084 -3.61402,1.37405 -21.2721,1.04006 -31.83464,-0.60213 z m -46.81305,-29.53814 c 0.20576,-1.08049 -0.61881,-1.80627 -2.48979,-2.19151 -4.45979,-0.91829 -9.69213,-5.90587 -9.74885,-9.29282 -0.0641,-3.82998 -2.68413,-4.18549 -10.8244,-1.46878 -7.70219,2.57051 -12.33485,6.03483 -11.38391,8.51295 0.70704,1.84252 0.58475,1.84238 12.80306,0.0143 4.16112,-0.62257 5.30345,-0.31845 11,2.9285 6.6083,3.76664 10.11773,4.26033 10.64389,1.49732 z m 22.05603,-11.32077 C 171.30671,138.17297 161.35264,129 158.29485,129 c -4.019,0 -2.76998,3.48545 2.45515,6.85122 2.6125,1.68284 5.33504,4.00974 6.05009,5.17088 1.47932,2.40223 3.53374,2.16931 4.04315,-0.45839 z m -47.28598,-11.1931 c 3.14407,-3.33368 3.74967,-3.57715 7.43285,-2.98818 C 134.12659,126.88397 135,126.70669 135,125.56852 135,123.51915 131.05971,121 127.85422,121 c -4.91091,0 -11.40136,7.68765 -9.3258,11.04599 0.90449,1.4635 1.34781,1.22765 5.02884,-2.67538 z M 120,95.5 c 0,-0.833333 -0.88889,-1.5 -2,-1.5 -1.99224,0 -2.60112,1.065542 -1.33333,2.333333 C 117.8846,97.551262 120,97.022411 120,95.5 z m -21,43 c 0.684689,-0.825 1.67193,-1.5 2.19387,-1.5 0.52194,0 0.27399,0.675 -0.55101,1.5 -0.825003,0.825 -1.812246,1.5 -2.193876,1.5 -0.38163,0 -0.133673,-0.675 0.551016,-1.5 z m -6,-3.55902 c 0,-0.58246 0.45,-0.7809 1,-0.44098 0.55,0.33992 1,0.81648 1,1.05902 C 95,135.80156 94.55,136 94,136 c -0.55,0 -1,-0.47656 -1,-1.05902 z m 75.51008,-17.95729 c 0.34546,-0.55897 1.04702,-0.75742 1.55902,-0.44098 1.38704,0.85723 1.12841,1.45729 -0.62812,1.45729 -0.85746,0 -1.27636,-0.45734 -0.9309,-1.01631 z m -95.843413,-0.65036 c -1.214661,-1.21466 -0.690943,-2.27988 0.833333,-1.69496 0.825,0.31659 1.5,0.97746 1.5,1.46862 0,1.0484 -1.377636,1.18204 -2.333333,0.22634 z m 68.368513,-2.26759 c -1.45151,-2.71218 -1.28792,-4.3767 0.36772,-3.74137 0.7716,0.29608 3.54579,-0.10658 6.16488,-0.8948 5.72557,-1.72315 6.67054,-1.27413 2.50145,1.1886 -1.68807,0.99718 -3.06923,2.61602 -3.06923,3.59744 0,2.49322 -4.6123,2.37734 -5.96482,-0.14987 z m 61.65232,-6.71157 C 202.30937,106.97604 202,105.91949 202,105.00627 c 0,-0.91321 -2.06913,-6.269088 -4.59806,-11.90194 -2.52893,-5.632853 -4.40688,-10.432721 -4.17323,-10.666373 0.79267,-0.792666 11.91385,19.693543 12.09313,22.276613 0.17521,2.5245 -1.28565,3.98828 -2.63434,2.6396 z M 26.433194,49.495587 C 25.630696,45.217905 28.003095,41 31.211614,41 l 2.165509,0 -2.253496,2.099451 c -1.383506,1.288931 -2.187519,3.122729 -2.082599,4.75 C 29.301792,51.893793 29.087937,53 28.045313,53 27.520235,53 26.794782,51.423014 26.433194,49.495587 z"
           style="fill:#232323" />
        <path
           inkscape:connector-curvature="0"
           id="path4353"
           d="m 198,181.81793 c -5.20408,-0.64113 -9.72235,-2.01712 -14.75967,-4.49488 -3.99281,-1.964 -9.39281,-3.80542 -12,-4.09206 -2.60718,-0.28664 -5.81352,-1.35587 -7.12519,-2.37607 -2.9132,-2.26586 -3.41771,-2.27971 -7.77237,-0.21328 -2.59247,1.2302 -3.74562,1.35551 -4.60113,0.5 C 150.88612,170.28612 151.27668,170 153.3,170 c 3.65141,0 3.50987,-2.52984 -0.25034,-4.47432 -3.45722,-1.7878 -6.83682,-1.9373 -10.68865,-0.47284 -1.52306,0.57907 -7.96485,1.21513 -14.3151,1.41347 -10.44193,0.32615 -32.575739,3.50704 -35.051882,5.03738 C 92.447312,171.84158 92,172.96115 92,173.99163 c 0,2.76576 -3.110388,3.28829 -11.341143,1.90528 C 74.9687,174.9408 71.994153,174.9259 67.487612,175.83094 64.285966,176.47392 59.725062,177 57.352271,177 c -4.766328,0 -5.550012,-1.20781 -5.085929,-7.83839 0.220614,-3.15202 -0.04546,-3.44433 -4.766342,-5.23618 -7.387895,-2.80415 -18,-9.26108 -18,-10.9521 0,-2.95938 25.508819,-1.03046 32,2.41977 5.135238,2.72951 5.820906,2.31729 5.64388,-3.3931 -0.07441,-2.40034 -0.04173,-2.38782 0.819924,0.31393 0.493584,1.54767 1.449052,3.47861 2.123262,4.29098 1.005142,1.21112 0.657562,2.06335 -1.930614,4.73367 C 66.420403,163.12973 65,164.96927 65,165.42644 c 0,1.46778 10.407836,-0.43879 13.126546,-2.4046 1.444601,-1.04454 3.469601,-1.6829 4.5,-1.41858 1.0304,0.26432 4.573454,-0.45495 7.873454,-1.59838 3.3,-1.14343 8.627841,-2.35562 11.83965,-2.69375 6.93209,-0.72979 7.88343,-2.13206 4.92906,-7.2654 l -2.0775,-3.60972 2.6544,0.032 c 2.5616,0.0309 2.6648,-0.18647 2.95211,-6.218 0.27174,-5.70474 0.49182,-6.25 2.52264,-6.25 1.80984,0 2.46124,-0.88617 3.49166,-4.75 2.24866,-8.43199 2.32503,-8.25809 -4.92501,-11.21521 -3.63715,-1.48351 -8.81215,-4.13405 -11.5,-5.89011 -2.687856,-1.75606 -6.12451,-3.73065 -7.63701,-4.388 C 91.2375,107.09935 90,106.2964 90,105.97235 90,105.6483 85.728057,101.80946 80.506794,97.441587 71.627667,90.013711 62.9585,81.562981 48.259408,66.006739 42.95338,60.391301 42.025841,59.769085 41.398387,61.404203 40.99934,62.444102 41.157368,64.578569 41.74956,66.147464 43.329871,70.334185 41.889548,69.635865 37.83594,64.25 31.250627,55.500361 31.231424,55.39049 34.995814,48 36.299727,45.440074 46.536065,46.194952 52.633278,49.300673 60.442194,53.278279 77.131216,64.7747 90.5,75.385591 c 6.6,5.238463 14.4127,11.438167 17.36156,13.77712 5.07652,4.026559 5.43371,4.153969 6.71874,2.396581 1.15683,-1.582051 1.59658,-1.657385 2.97874,-0.51029 1.49245,1.238622 1.48697,1.444188 -0.0689,2.58185 -0.92974,0.679843 -1.39382,1.716019 -1.03128,2.302613 C 117.4461,97.530818 120,97.218197 120,95.5 c 0,-1.93299 1.40783,-1.918448 3.02594,0.03126 1.05084,1.266185 0.94221,1.778678 -0.62756,2.960558 -1.79047,1.348055 -1.46434,1.828122 5.73735,8.445402 4.19966,3.85885 7.90643,8.09463 8.23728,9.41285 0.37083,1.47749 1.85295,2.89698 3.86427,3.70099 1.7945,0.71733 5.16517,3.02429 7.49038,5.12659 4.71516,4.26312 5.46716,4.49746 7.30933,2.27778 1.08232,-1.30411 0.7122,-2.12796 -2.37756,-5.29216 -4.25229,-4.35474 -4.85105,-6.24576 -1.02457,-3.23585 1.44917,1.13992 3.69917,2.07258 5,2.07258 1.30083,0 2.36514,0.59081 2.36514,1.31291 0,1.29327 5.02335,6.68709 6.2278,6.68709 1.17099,0 6.64735,6.03127 7.27663,8.01397 0.34669,1.09232 1.24414,1.98603 1.99434,1.98603 2.77912,0 19.192,-10.27087 24.84317,-15.54639 C 202.555,120.45412 205.84708,118 206.65768,118 210.02232,118 218,111.88989 218,109.31291 c 0,-1.80091 0.72082,-1.65092 3.2098,0.66793 l 2.12618,1.98083 -3.41799,1.43726 c -1.87989,0.79049 -4.55284,2.71162 -5.93987,4.26916 l -2.52188,2.83191 0.52188,18.5 c 0.39986,14.17452 0.22962,18.68698 -0.72812,19.29969 -0.6875,0.43983 -1.25,1.62485 -1.25,2.63337 0,2.7861 -3.72653,3.29545 -5.5075,0.75277 -2.1648,-3.09069 -1.90851,-3.53067 2.2575,-3.87546 4.33819,-0.35905 4.38559,-0.67458 1.84931,-12.31037 -0.83919,-3.85 -1.54923,-8.575 -1.57787,-10.5 -0.11421,-7.67716 -1.81195,-6.96039 -18.86308,7.96383 -1.8379,1.60865 -4.08274,3.06754 -4.98852,3.24198 -0.90578,0.17444 -1.79294,1.0756 -1.97146,2.00259 -0.22214,1.15349 2.13299,3.35915 7.46212,6.98852 4.28268,2.91669 9.50175,6.98884 11.59792,9.04922 3.77527,3.7108 3.87836,3.74306 10.92829,3.41961 l 7.11707,-0.32654 5.90651,4.91546 c 6.49297,5.4035 7.3927,8.58181 2.78971,9.85466 -3.52053,0.97351 -20.08361,0.80709 -29,-0.2914 z m -49.21279,-29.93345 c 0.20872,-1.09606 -0.63236,-1.80351 -2.61578,-2.20019 -4.1294,-0.82588 -10.22224,-6.77398 -9.55448,-9.3275 0.29068,-1.11156 -0.13111,-2.53862 -0.95159,-3.21956 C 132.5126,134.52068 114,142.89768 114,146.94086 c 0,2.54222 2.44528,2.9375 8.5,1.37401 7.16485,-1.85015 8.27205,-1.69502 15.5,2.17173 6.82614,3.65179 10.27294,4.09845 10.78721,1.39788 z m 22.05735,-11.32761 C 171.32247,138.09158 161.52181,129 158.38634,129 c -3.82724,0 -2.9594,3.355 1.65829,6.41084 2.22455,1.47213 5.01274,3.79003 6.19599,5.15089 2.37079,2.72665 4.07477,2.72485 4.60394,-0.005 z m -48.86444,-9.00457 c 1.44015,-3.78789 5.22241,-5.79253 9.43719,-5.00184 4.03302,0.7566 4.74192,-0.61204 1.9277,-3.72172 -2.61024,-2.88428 -8.42566,-2.41887 -11.51133,0.92126 -3.06636,3.31923 -4.07883,5.90225 -3.28897,8.39088 0.81901,2.58048 2.32888,2.32179 3.43541,-0.58858 z m 46.52996,-14.56861 c 0.34546,-0.55897 1.04702,-0.75742 1.55902,-0.44098 1.38704,0.85723 1.12841,1.45729 -0.62812,1.45729 -0.85746,0 -1.27636,-0.45734 -0.9309,-1.01631 z m -95.843413,-0.65036 c -1.214661,-1.21466 -0.690943,-2.27988 0.833333,-1.69496 0.825,0.31659 1.5,0.97746 1.5,1.46862 0,1.0484 -1.377636,1.18204 -2.333333,0.22634 z m 68.368513,-2.26759 c -1.45324,-2.71541 -1.28732,-4.37647 0.37351,-3.73915 0.77478,0.29731 3.69978,-0.0638 6.5,-0.8025 5.80746,-1.53198 6.40333,-1.25392 2.09131,0.97591 -1.79648,0.929 -3,2.3434 -3,3.52568 0,2.66752 -4.54231,2.69803 -5.96482,0.0401 z M 202,105.12443 c 0,-1.03156 -1.1792,-4.51906 -2.62044,-7.75 C 193.49762,84.188433 192.84935,82.465085 194.34855,84 c 1.96708,2.013953 10.54304,17.71988 11.2809,20.65973 C 206.10617,106.55917 205.81966,107 204.10841,107 202.71329,107 202,106.36548 202,105.12443 z M 27.175672,50.6849 C 26.529053,49.136596 26,47.324223 26,46.657407 26,44.361048 29.117722,41 31.247834,41 c 2.0566,0 2.065827,0.05016 0.253058,1.37569 -1.183598,0.865468 -2.116542,3.183494 -2.515458,6.25 -0.627837,4.826246 -0.645682,4.846551 -1.809762,2.05921 z"
           style="fill:#1a1a1a" />
      </g>
    </g>
  </g>
</svg>
