<svg width="24" version="1.0" xmlns="http://www.w3.org/2000/svg" height="24" xmlns:xlink="http://www.w3.org/1999/xlink">
<defs id="defs4">
<clipPath id="clipPath2883">
<path style="opacity:.3;fill:#f00;stroke:none;color:#000;stroke-width:4" id="path2885" d="m -100,-74 0,96 96,0 0,-96 -96,0 z  m 48,16 c 17.664,0 32,14.336 32,32 4e-06,17.664 -14.336,32 -32,32 -17.664,0 -32,-14.336 -32,-32 0,-17.664 14.336,-32 32,-32 z  m 12.125,16.125 -16.25,18.875 -8,-7.25 -7.75,8.375 15.75,15.625 24,-27.25 -7.75,-8.375 z "/>
</clipPath>
<clipPath id="clipPath3266">
<path style="opacity:.3;fill:#f00;stroke:none;color:#000;stroke-width:4" id="path3268" d="M 0,0 0,96 96,96 96,0 0,0 z m 12,6 72,0 c 3.324,0 6,2.676 6,6 l 0,72 c 0,3.324 -2.676,6 -6,6 L 12,90 C 8.676,90 6,87.324 6,84 L 6,12 C 6,8.676 8.676,6 12,6 z"/>
</clipPath>
<linearGradient id="ButtonColor-6" y1="21" x1="10.31979" y2="0.99929649" x2="10.31979" gradientUnits="userSpaceOnUse">
<stop offset="0" style="stop-color:#c8c8c8" id="stop3189-4"/>
<stop offset="1" style="stop-color:#e6e6e6" id="stop3191-0"/>
</linearGradient>
<linearGradient gradientTransform="matrix(0.2570698,0,0,0.2570698,-0.33949467,-0.7525833)" xlink:href="#ButtonColor-6" id="linearGradient3026" y1="90" x1="48" y2="5.9877172" gradientUnits="userSpaceOnUse" x2="48"/>
</defs>
<g style="stroke:none">
<rect width="21.593863" x="1.2029241" y="0.78983551" rx="1.5424188" ry="1.5424188" height="21.593863" style="opacity:.75;fill:url(#linearGradient3026)" id="rect2419"/>
<g style="fill:#333;fill-rule:evenodd">
<path id="rect3272" d="m 12.0146,3.8154 c -4.155,0 -7.5,3.345 -7.5,7.5 0,4.155 3.345,7.5 7.5,7.5 4.155,0 7.5,-3.345 7.5,-7.5 0,-4.155 -3.345,-7.5 -7.5,-7.5 z  m 0,2 c 3.047,0 5.5,2.453 5.5,5.5 0,3.047 -2.453,5.5 -5.5,5.5 -3.047,0 -5.5,-2.453 -5.5,-5.5 0,-3.047 2.453,-5.5 5.5,-5.5 z "/>
<rect width="12" x="6.0146327" y="10.815391" rx="0" height="1" ry="0" id="rect3279"/>
<rect width="12" x="-17.31539" y="11.514632" rx="0" ry="0" height="1" id="rect3281" transform="matrix(0,-1,1,0,0,0)"/>
<path id="path3330" d="m 8.6181,6.9892 c 1.02033,0.5192 2.16881,0.8262 3.39648,0.8262 1.22768,0 2.37615,-0.307 3.39648,-0.8262 -0.31154,-0.2446 -0.65081,-0.4535 -1.01172,-0.6269 -0.737722,0.2908 -1.54073,0.4531 -2.38477,0.4531 -0.844037,0 -1.64704,-0.1623 -2.38477,-0.4531 -0.360908,0.1734 -0.700178,0.3823 -1.01172,0.6269 z "/>
<path id="path3336" d="m 8.6181,15.6416 c 1.0203,-0.5192 2.1688,-0.8262 3.3965,-0.8262 1.2277,0 2.3762,0.307 3.3965,0.8262 -0.3116,0.2446 -0.6508,0.4535 -1.0117,0.6269 -0.7378,-0.2908 -1.5408,-0.4531 -2.3848,-0.4531 -0.844,0 -1.647,0.1623 -2.3848,0.4531 -0.3609,-0.1734 -0.7001,-0.3823 -1.0117,-0.6269 z "/>
</g>
</g>
</svg>
