<svg width="48" version="1.1" xmlns="http://www.w3.org/2000/svg" height="48">
<path style="fill:#a00" id="rect4090" d="m 4.5351,5.6271 0,36.7458 38.9196,0 .0804,-36.7031 -12.672,-.0427 z "/>
<g id="g3764" transform="translate(0.30009356,0)">
<path style="fill:#bfccd7;fill-rule:evenodd" id="path4254" d="m 19.8047,25.4672 -8.9348,6.8967 0,1.922 25.6466,0 0,-1.922 -8.8645,-6.8967 -3.9237,3.0527 z "/>
<rect width="25.628412" x="10.883299" y="16.684185" height="16.149412" style="opacity:.95;fill:#bbb;fill-rule:evenodd;stroke:none" id="rect2992"/>
<path style="fill:#bfccd7;fill-rule:evenodd" id="path4251" d="m 10.9401,15.9585 0,2.5511 12.7882,10.2045 12.7882,-10.2045 0,-2.5511 z "/>
<path style="fill:#f5fbfe;fill-rule:evenodd" id="path4238" d="m 20.0953,25.8151 -9.2254,7.3059 0,1.3911 25.6466,0 0,-1.3915 -9.1552,-7.3055 -3.633,2.899 z "/>
<path style="fill:#f5fbfe;fill-rule:evenodd" id="path4219" d="m 10.8699,15.9585 0,1.3915 12.8233,10.2045 12.8233,-10.2045 0,-1.3915 z "/>
</g>
<rect width="25.27734" x="11.36133" y="10.36485" height="1.8255856" style="opacity:.95;fill:#bbb;fill-rule:evenodd;stroke:none" id="rect3762"/>
</svg>
