<?xml version="1.0" encoding="UTF-8" standalone="no"?>
<svg
   xmlns:dc="http://purl.org/dc/elements/1.1/"
   xmlns:cc="http://creativecommons.org/ns#"
   xmlns:rdf="http://www.w3.org/1999/02/22-rdf-syntax-ns#"
   xmlns:svg="http://www.w3.org/2000/svg"
   xmlns="http://www.w3.org/2000/svg"
   xmlns:sodipodi="http://sodipodi.sourceforge.net/DTD/sodipodi-0.dtd"
   xmlns:inkscape="http://www.inkscape.org/namespaces/inkscape"
   width="96"
   version="1.1"
   height="96"
   id="svg2"
   inkscape:version="0.91 r13725"
   sodipodi:docname="application-vnd.ms-htmlhelp.svg"
   inkscape:export-filename="/home/ant/icon.png"
   inkscape:export-xdpi="102.85714"
   inkscape:export-ydpi="102.85714">
  <metadata
     id="metadata30">
    <rdf:RDF>
      <cc:Work
         rdf:about="">
        <dc:format>image/svg+xml</dc:format>
        <dc:type
           rdf:resource="http://purl.org/dc/dcmitype/StillImage" />
        <dc:title></dc:title>
      </cc:Work>
    </rdf:RDF>
  </metadata>
  <defs
     id="defs28" />
  <sodipodi:namedview
     pagecolor="#ffffff"
     bordercolor="#666666"
     borderopacity="1"
     objecttolerance="10"
     gridtolerance="10"
     guidetolerance="10"
     inkscape:pageopacity="0"
     inkscape:pageshadow="2"
     inkscape:window-width="640"
     inkscape:window-height="480"
     id="namedview26"
     showgrid="false"
     inkscape:zoom="2.636919"
     inkscape:cx="4.8515228"
     inkscape:cy="31.425399"
     inkscape:current-layer="svg2" />
  <g
     id="g4158"
     transform="matrix(2.1538462,0,0,2.2859755,-3.6923088,-116.55617)">
    <path
       inkscape:connector-curvature="0"
       d="m 4.5,53.6395 0,36.7185 39,0 0,-36.7458 -12.6177,0.0273 z"
       id="rect4090"
       style="fill:#2980b9" />
    <g
       transform="matrix(1.0427247,0,0,0.83446686,-1.0253903,51.970338)"
       id="g2989"
       style="fill:#ecf0f1">
      <path
         inkscape:connector-curvature="0"
         transform="translate(7,4)"
         d="M 0,0 0,40 34,40 34,-0.02968801 23,0 Z"
         id="path2991" />
      <g
         id="g7"
         style="fill-rule:evenodd;stroke:#003bc3;stroke-width:0;stroke-linecap:square">
        <rect
           transform="translate(12.3038,16.1417)"
           id="rect2993"
           style="stroke-miterlimit:2.01300001"
           height="3.1810868"
           y="0"
           x="0"
           width="23.362026" />
        <g
           id="g10"
           style="stroke-miterlimit:2">
          <rect
             transform="translate(18.861,9.77954)"
             id="rect2995"
             height="3.1810868"
             y="0"
             x="0"
             width="11.115499" />
          <rect
             transform="translate(12.2953,22.5039)"
             id="rect2997"
             height="3.1810868"
             y="0"
             x="0"
             width="13.562757" />
          <rect
             transform="translate(12.3208,28.8661)"
             id="rect2999"
             height="3.1810868"
             y="0"
             x="0"
             width="13.562757" />
          <rect
             transform="translate(12.3307,35.2282)"
             id="rect3001"
             height="3.1810868"
             y="0"
             x="0"
             width="23.362026" />
        </g>
        <rect
           transform="translate(29.0863,22.4914)"
           id="rect3003"
           style="stroke-miterlimit:2.01300001"
           height="9.5378857"
           y="0"
           x="0"
           width="6.5734076" />
      </g>
    </g>
    <g
       transform="translate(0,48)"
       id="g15"
       style="stroke:none">
      <g
         transform="matrix(0.66666667,0,0,0.66666667,17.980455,13.480823)"
         id="g3800"
         style="stroke-width:1.09399998">
        <rect
           id="rect3773"
           style="fill:#ff0000"
           height="12"
           y="14.20339"
           x="9.1525421"
           width="12" />
        <rect
           id="rect3775"
           style="fill:#51ff00"
           height="12"
           y="14.20339"
           x="21.152542"
           width="12" />
        <rect
           id="rect3777"
           style="fill:#53a8ff"
           height="12"
           y="26.20339"
           x="9.1529999"
           width="12" />
        <rect
           id="rect3779"
           style="fill:#fffd00"
           height="12"
           y="26.202999"
           x="21.152542"
           width="12" />
      </g>
      <g
         id="g22"
         style="fill:#195daf">
        <path
           inkscape:connector-curvature="0"
           d="m 16.7981,9.0237 c 0.51483,-0.014083 1.06787,-0.017274 1.5625,0 0.65951,0.023032 1.27502,0.09484 1.78125,0.1875 2.0249,0.370632 5.84434,2.05303 5.90625,5.4375 0.0619,3.38447 -2.05665,5.02629 -4.5625,7.03125 -2.51844,2.03782 -1.99926,5.04774 -2,7.0625 l -4.53125,0 0,-2 c 0,-3.02213 1.54686,-5.07283 3.53125,-7.5625 1.99678,-2.50521 2.09032,-4.50442 1.53125,-5.5625 -0.55906,-1.05808 -1.94097,-1.30628 -2.9375,-1.25 -0.99652,0.05629 -1.58351,0.237538 -2.125,0.71875 -0.54149,0.481211 -0.86078,1.09607 -1.03125,1.5625 -0.17046,0.466427 -0.21075,1.28151 -0.4375,1.71875 -0.22674,0.437237 -0.8485,1.40809 -2.90625,1.15625 -2.05775,-0.251845 -2.58321,-2.70678 -1.625,-4.9375 0.95822,-2.23072 2.94814,-2.76576 4.15625,-3.125 0.67957,-0.202072 2.14303,-0.395264 3.6875,-0.4375 z"
           id="path4165" />
        <path
           inkscape:connector-curvature="0"
           d="m 17.5481,30.8049 c 2.00034,0 3.65625,1.62466 3.65625,3.625 0,2.00034 -1.65591,3.59375 -3.65625,3.59375 -2.00034,0 -3.625,-1.59341 -3.625,-3.59375 0,-2.00034 1.62466,-3.625 3.625,-3.625 z"
           id="rect3785" />
      </g>
    </g>
  </g>
</svg>
