<svg width="48" version="1.1" xmlns="http://www.w3.org/2000/svg" height="48">
<g id="layer1" transform="matrix(1.1459129,0,0,0.91632647,-3.50439,2.006205)">
<path style="fill:#ecf0f1" id="rect4090" d="M 0,0 0,40 34,40 33.928091,-0.07401129 23,0 z" transform="translate(7,4)"/>
<rect width="29.07481" x="0" y="0" height="28.938774" style="fill:#203040" id="rect813" transform="translate(11.9592,15.0884)"/>
<g style="fill:none">
<rect width="13.000007" x="0" y="0" height="11" id="rect3284" transform="translate(18.9592,20.0884)"/>
<g id="text854" transform="translate(18.3342,19.4634)">
<path style="fill:#fff" id="path815" d="m 3.78705,10.4463 0,1.4062 -1.00345,0 0,-1.3674 C 1.85344,10.4804 0.987441,10.2817 0.185584,9.88896 l 0,-1.79505 C 0.451334,8.29695 0.847679,8.48487 1.37461,8.65768 1.90155,8.83049 2.3712,8.92987 2.7836,8.95578 l 0,-2.35882 C 1.71139,6.22109 0.978264,5.815 0.584211,5.37865 0.194737,4.93799 0,4.40229 0,3.77155 0,3.09327 0.254308,2.51651 0.762925,2.0413 1.27153,1.56176 1.94509,1.2831 2.7836,1.20534 l 0,-1.20534 1.00345,0 0,1.17941 c 0.96681,0.04318 1.68849,0.19007 2.16503,0.44067 l 0,1.74968 C 5.3106,3.00254 4.58892,2.7779 3.78705,2.69581 l 0,2.45602 C 4.79052,5.49314 5.50991,5.88412 5.94519,6.32478 6.3805,6.76113 6.59815,7.29034 6.59815,7.91245 6.59815,8.62961 6.3553,9.20852 5.86959,9.64918 5.38389,10.0855 4.68972,10.3512 3.78705,10.4463 z M 2.7836,4.77598 l 0,-2.05425 C 2.14669,2.82968 1.82823,3.1429 1.82823,3.66137 c 0,0.445 0.31846,0.81653 0.95537,1.11461 z m 1.00345,2.19034 0,1.96355 C 4.44229,8.83483 4.76992,8.52592 4.76992,8.00318 4.76992,7.57981 4.44229,7.23419 3.78705,6.96632 z" transform="translate(0.625,0.625)"/>
</g>
</g>
<rect width="4" x="0" y="0" height="11" style="fill:#fff" id="rect868" transform="translate(27.9592,20.0884)"/>
<rect width="2" x="0" y="0" height="11" style="fill:none" id="rect3288" transform="translate(25.9592,20.0884)"/>
</g>
</svg>
