/* XPM */
static char * hide_active_xpm[] = {
"24 24 3 1",
" 	c None",
".	c #ff6f42",
"+	c #FDFDFD",
"........................",
"........................",
"........................",
"........................",
"........................",
"........................",
"........................",
"........................",
"........................",
"........................",
"........................",
"........................",
"........................",
"........................",
"........................",
"......++++++++++++......",
"......++++++++++++......",
"........................",
"........................",
"........................",
"........................",
"........................",
"........................",
"........................"};
