<?xml version="1.0" encoding="UTF-8" standalone="no"?>
<!-- Created with Inkscape (http://www.inkscape.org/) -->

<svg
   xmlns:dc="http://purl.org/dc/elements/1.1/"
   xmlns:cc="http://creativecommons.org/ns#"
   xmlns:rdf="http://www.w3.org/1999/02/22-rdf-syntax-ns#"
   xmlns:svg="http://www.w3.org/2000/svg"
   xmlns="http://www.w3.org/2000/svg"
   xmlns:xlink="http://www.w3.org/1999/xlink"
   xmlns:sodipodi="http://sodipodi.sourceforge.net/DTD/sodipodi-0.dtd"
   xmlns:inkscape="http://www.inkscape.org/namespaces/inkscape"
   width="32px"
   height="32px"
   id="svg3853"
   version="1.1"
   inkscape:version="0.48.5 r10040"
   sodipodi:docname="folder-yandex-disk.svg">
  <defs
     id="defs3855">
    <linearGradient
       id="linearGradient5936">
      <stop
         style="stop-color:#7f7f7f;stop-opacity:1;"
         offset="0"
         id="stop5938" />
      <stop
         style="stop-color:#f0f0f0;stop-opacity:1;"
         offset="1"
         id="stop5940" />
    </linearGradient>
    <linearGradient
       inkscape:collect="always"
       xlink:href="#linearGradient3837"
       id="linearGradient3861"
       x1="180"
       y1="1022.3622"
       x2="180"
       y2="862.36218"
       gradientUnits="userSpaceOnUse" />
    <linearGradient
       id="linearGradient3837">
      <stop
         id="stop3839"
         offset="0"
         style="stop-color:#545c72;stop-opacity:1;" />
      <stop
         style="stop-color:#7a849d;stop-opacity:1;"
         offset="1"
         id="stop3841" />
    </linearGradient>
    <linearGradient
       inkscape:collect="always"
       xlink:href="#linearGradient3837-2"
       id="linearGradient5911"
       x1="19"
       y1="29"
       x2="19"
       y2="7"
       gradientUnits="userSpaceOnUse" />
    <linearGradient
       inkscape:collect="always"
       xlink:href="#linearGradient3837-2"
       id="linearGradient5919"
       x1="12"
       y1="13"
       x2="12"
       y2="3"
       gradientUnits="userSpaceOnUse" />
    <linearGradient
       inkscape:collect="always"
       xlink:href="#linearGradient3837-2"
       id="linearGradient5924"
       gradientUnits="userSpaceOnUse"
       x1="10"
       y1="29"
       x2="10"
       y2="12" />
    <linearGradient
       inkscape:collect="always"
       xlink:href="#linearGradient5936"
       id="linearGradient5942"
       x1="16"
       y1="29"
       x2="16"
       y2="17"
       gradientUnits="userSpaceOnUse" />
    <linearGradient
       inkscape:collect="always"
       xlink:href="#linearGradient3837-2"
       id="linearGradient3861-1"
       x1="180"
       y1="1022.3622"
       x2="180"
       y2="862.36218"
       gradientUnits="userSpaceOnUse" />
    <linearGradient
       id="linearGradient3837-2">
      <stop
         id="stop3839-7"
         offset="0"
         style="stop-color:#34757a;stop-opacity:1;" />
      <stop
         style="stop-color:#458e8e;stop-opacity:1;"
         offset="1"
         id="stop3841-6" />
    </linearGradient>
    <linearGradient
       inkscape:collect="always"
       xlink:href="#linearGradient3837-2"
       id="linearGradient3026"
       gradientUnits="userSpaceOnUse"
       x1="12"
       y1="13"
       x2="12"
       y2="3"
       gradientTransform="matrix(1,0,0,-1,0,31.928936)" />
    <linearGradient
       inkscape:collect="always"
       xlink:href="#linearGradient3837-2"
       id="linearGradient3028"
       gradientUnits="userSpaceOnUse"
       x1="19"
       y1="29"
       x2="19"
       y2="7"
       gradientTransform="matrix(0.99918246,0,0,-0.99859817,0.02406835,24.989947)" />
    <linearGradient
       inkscape:collect="always"
       xlink:href="#linearGradient3837-2"
       id="linearGradient3032"
       gradientUnits="userSpaceOnUse"
       gradientTransform="matrix(1,0,0,-1,4e-6,14.928936)"
       x1="12"
       y1="13"
       x2="12"
       y2="3" />
    <linearGradient
       inkscape:collect="always"
       xlink:href="#linearGradient3837-2"
       id="linearGradient3036"
       gradientUnits="userSpaceOnUse"
       gradientTransform="matrix(1,0,0,-1,0,37)"
       x1="19"
       y1="29"
       x2="19"
       y2="7" />
  </defs>
  <sodipodi:namedview
     id="base"
     pagecolor="#ffffff"
     bordercolor="#666666"
     borderopacity="1.0"
     inkscape:pageopacity="0.0"
     inkscape:pageshadow="2"
     inkscape:zoom="9.1093749"
     inkscape:cx="12.228045"
     inkscape:cy="26.738839"
     inkscape:current-layer="layer1"
     showgrid="true"
     inkscape:grid-bbox="true"
     inkscape:document-units="px"
     showguides="true"
     inkscape:guide-bbox="true"
     inkscape:window-width="1366"
     inkscape:window-height="698"
     inkscape:window-x="-4"
     inkscape:window-y="-5"
     inkscape:window-maximized="1"
     inkscape:snap-global="true">
    <inkscape:grid
       type="xygrid"
       id="grid3861"
       empspacing="5"
       visible="true"
       enabled="true"
       snapvisiblegridlinesonly="true" />
    <sodipodi:guide
       orientation="0,1"
       position="19,29"
       id="guide3863" />
    <sodipodi:guide
       orientation="0,1"
       position="16,3"
       id="guide3865" />
    <sodipodi:guide
       orientation="1,0"
       position="3,18"
       id="guide3867" />
    <sodipodi:guide
       orientation="1,0"
       position="29,15"
       id="guide3869" />
    <sodipodi:guide
       orientation="1,0"
       position="16,5"
       id="guide4466" />
  </sodipodi:namedview>
  <metadata
     id="metadata3858">
    <rdf:RDF>
      <cc:Work
         rdf:about="">
        <dc:format>image/svg+xml</dc:format>
        <dc:type
           rdf:resource="http://purl.org/dc/dcmitype/StillImage" />
        <dc:title />
      </cc:Work>
    </rdf:RDF>
  </metadata>
  <g
     id="layer1"
     inkscape:label="Layer 1"
     inkscape:groupmode="layer">
    <g
       transform="matrix(0.36615187,0,0,0.36615187,-18.784428,-330.86299)"
       id="g3306"
       style="fill:#333333;fill-opacity:1">
      <path
         inkscape:connector-curvature="0"
         id="rect3159"
         d="m 78.613359,963.70665 c 2.731107,2.73111 5.451793,8.19332 16.386642,8.19332 10.934849,0 13.655539,-5.46221 16.386639,-8.19332 z"
         style="fill:#333333;fill-opacity:1;stroke:none"
         sodipodi:nodetypes="cscc" />
      <path
         inkscape:connector-curvature="0"
         id="rect3161"
         transform="translate(0,796.36218)"
         d="m 75.882251,140.03339 c -5.462215,0 -12.976425,8.00185 -16.386643,10.92443 l 71.008782,0 c -3.41022,-2.92258 -10.92442,-10.92443 -16.38664,-10.92443 z m -16.386643,13.65554 c 2.731107,5.46221 10.924429,10.92443 16.386643,10.92443 l 38.235499,0 c 5.46221,0 13.65554,-5.46222 16.38664,-10.92443 z"
         style="fill:#333333;fill-opacity:1;stroke:none"
         sodipodi:nodetypes="sccsscsscc" />
      <path
         style="fill:#333333;fill-opacity:1;stroke:none"
         d="m 16,4.9999986 c -4.056963,0 -7,2.957278 -7,6.0000004 l 14,0 C 23,7.9572766 20.056962,4.9999986 16,4.9999986 z m 0,3 c 0.554,0 1,0.446 1,1 0,0.554 -0.446,1 -1,1 -0.554,0 -1,-0.446 -1,-1 0,-0.554 0.446,-1 1,-1 z m -4,0.15625 c 0.50712,0 0.90625,0.4303797 0.90625,0.9375 0,0.5071203 -0.39913,0.90625 -0.90625,0.90625 -0.50712,0 -0.90625,-0.3991297 -0.90625,-0.90625 0,-0.5071203 0.39913,-0.9375 0.90625,-0.9375 z m 8,0 c 0.50712,0 0.90625,0.4303797 0.90625,0.9375 0,0.5071203 -0.39913,0.90625 -0.90625,0.90625 -0.50712,0 -0.90625,-0.3991297 -0.90625,-0.90625 0,-0.5071203 0.39913,-0.9375 0.90625,-0.9375 z"
         transform="matrix(2.7311072,0,0,2.7311072,51.302286,903.62229)"
         id="rect3163"
         inkscape:connector-curvature="0"
         sodipodi:nodetypes="sccssssssssssssssss" />
    </g>
  </g>
</svg>
