<?xml version="1.0" encoding="UTF-8" standalone="no"?>
<!-- Created with Inkscape (http://www.inkscape.org/) -->

<svg
   xmlns:dc="http://purl.org/dc/elements/1.1/"
   xmlns:cc="http://creativecommons.org/ns#"
   xmlns:rdf="http://www.w3.org/1999/02/22-rdf-syntax-ns#"
   xmlns:svg="http://www.w3.org/2000/svg"
   xmlns="http://www.w3.org/2000/svg"
   xmlns:xlink="http://www.w3.org/1999/xlink"
   xmlns:sodipodi="http://sodipodi.sourceforge.net/DTD/sodipodi-0.dtd"
   xmlns:inkscape="http://www.inkscape.org/namespaces/inkscape"
   width="32px"
   height="32px"
   id="svg3853"
   version="1.1"
   inkscape:version="0.48.5 r10040"
   sodipodi:docname="folder-dropbox.svg">
  <defs
     id="defs3855">
    <linearGradient
       inkscape:collect="always"
       id="linearGradient3827">
      <stop
         style="stop-color:#000000;stop-opacity:1;"
         offset="0"
         id="stop3829" />
      <stop
         style="stop-color:#000000;stop-opacity:0;"
         offset="1"
         id="stop3831" />
    </linearGradient>
    <linearGradient
       id="linearGradient5936">
      <stop
         style="stop-color:#7f7f7f;stop-opacity:1;"
         offset="0"
         id="stop5938" />
      <stop
         style="stop-color:#f0f0f0;stop-opacity:1;"
         offset="1"
         id="stop5940" />
    </linearGradient>
    <linearGradient
       inkscape:collect="always"
       xlink:href="#linearGradient3837"
       id="linearGradient3861"
       x1="180"
       y1="1022.3622"
       x2="180"
       y2="862.36218"
       gradientUnits="userSpaceOnUse" />
    <linearGradient
       id="linearGradient3837">
      <stop
         id="stop3839"
         offset="0"
         style="stop-color:#545c72;stop-opacity:1;" />
      <stop
         style="stop-color:#7a849d;stop-opacity:1;"
         offset="1"
         id="stop3841" />
    </linearGradient>
    <linearGradient
       inkscape:collect="always"
       xlink:href="#linearGradient3837-2"
       id="linearGradient5911"
       x1="19"
       y1="29"
       x2="19"
       y2="7"
       gradientUnits="userSpaceOnUse" />
    <linearGradient
       inkscape:collect="always"
       xlink:href="#linearGradient3837-2"
       id="linearGradient5919"
       x1="12"
       y1="13"
       x2="12"
       y2="3"
       gradientUnits="userSpaceOnUse" />
    <linearGradient
       inkscape:collect="always"
       xlink:href="#linearGradient3837-2"
       id="linearGradient5924"
       gradientUnits="userSpaceOnUse"
       x1="10"
       y1="29"
       x2="10"
       y2="12" />
    <linearGradient
       inkscape:collect="always"
       xlink:href="#linearGradient5936"
       id="linearGradient5942"
       x1="16"
       y1="29"
       x2="16"
       y2="17"
       gradientUnits="userSpaceOnUse" />
    <linearGradient
       inkscape:collect="always"
       xlink:href="#linearGradient3837-2"
       id="linearGradient3861-1"
       x1="180"
       y1="1022.3622"
       x2="180"
       y2="862.36218"
       gradientUnits="userSpaceOnUse" />
    <linearGradient
       id="linearGradient3837-2">
      <stop
         id="stop3839-7"
         offset="0"
         style="stop-color:#34757a;stop-opacity:1;" />
      <stop
         style="stop-color:#458e8e;stop-opacity:1;"
         offset="1"
         id="stop3841-6" />
    </linearGradient>
    <linearGradient
       inkscape:collect="always"
       xlink:href="#linearGradient3837-2"
       id="linearGradient3008"
       gradientUnits="userSpaceOnUse"
       x1="10"
       y1="29"
       x2="10"
       y2="12"
       gradientTransform="matrix(0.88888888,0,0,0.88888889,1.7777778,3.2222222)" />
    <linearGradient
       inkscape:collect="always"
       xlink:href="#linearGradient3837-2"
       id="linearGradient3798"
       x1="35"
       y1="977.36218"
       x2="35"
       y2="902.36218"
       gradientUnits="userSpaceOnUse" />
    <linearGradient
       inkscape:collect="always"
       xlink:href="#linearGradient3837-2"
       id="linearGradient3800"
       gradientUnits="userSpaceOnUse"
       x1="35"
       y1="977.36218"
       x2="35"
       y2="902.36218" />
    <linearGradient
       inkscape:collect="always"
       xlink:href="#linearGradient3837-2"
       id="linearGradient3802"
       gradientUnits="userSpaceOnUse"
       x1="35"
       y1="977.36218"
       x2="35"
       y2="902.36218" />
    <linearGradient
       inkscape:collect="always"
       xlink:href="#linearGradient3837-2"
       id="linearGradient3804"
       gradientUnits="userSpaceOnUse"
       x1="35"
       y1="977.36218"
       x2="35"
       y2="902.36218" />
    <linearGradient
       inkscape:collect="always"
       xlink:href="#linearGradient3827"
       id="linearGradient3833"
       x1="92.5"
       y1="949.90439"
       x2="157.5"
       y2="949.90439"
       gradientUnits="userSpaceOnUse" />
    <linearGradient
       inkscape:collect="always"
       xlink:href="#linearGradient3827"
       id="linearGradient3846"
       gradientUnits="userSpaceOnUse"
       x1="92.5"
       y1="949.90439"
       x2="157.5"
       y2="949.90439"
       gradientTransform="translate(-95,-910.36218)" />
    <linearGradient
       inkscape:collect="always"
       xlink:href="#linearGradient3837-2"
       id="linearGradient3849"
       gradientUnits="userSpaceOnUse"
       gradientTransform="matrix(0.35098071,0,0,0.35098071,67.148416,596.09002)"
       x1="124"
       y1="987.36218"
       x2="125"
       y2="913.36218" />
    <linearGradient
       inkscape:collect="always"
       xlink:href="#linearGradient3837-2"
       id="linearGradient3795"
       x1="16"
       y1="29"
       x2="16"
       y2="3"
       gradientUnits="userSpaceOnUse" />
  </defs>
  <sodipodi:namedview
     id="base"
     pagecolor="#ffffff"
     bordercolor="#666666"
     borderopacity="1.0"
     inkscape:pageopacity="0.0"
     inkscape:pageshadow="2"
     inkscape:zoom="11.313709"
     inkscape:cx="-1.7081439"
     inkscape:cy="11.921617"
     inkscape:current-layer="layer1"
     showgrid="true"
     inkscape:grid-bbox="true"
     inkscape:document-units="px"
     showguides="true"
     inkscape:guide-bbox="true"
     inkscape:window-width="1366"
     inkscape:window-height="698"
     inkscape:window-x="-4"
     inkscape:window-y="-5"
     inkscape:window-maximized="1"
     inkscape:snap-global="true">
    <inkscape:grid
       type="xygrid"
       id="grid3861"
       empspacing="5"
       visible="true"
       enabled="true"
       snapvisiblegridlinesonly="true" />
    <sodipodi:guide
       orientation="0,1"
       position="19,29"
       id="guide3863" />
    <sodipodi:guide
       orientation="0,1"
       position="19,3"
       id="guide3865" />
    <sodipodi:guide
       orientation="1,0"
       position="3,18"
       id="guide3867" />
    <sodipodi:guide
       orientation="1,0"
       position="29,15"
       id="guide3869" />
    <sodipodi:guide
       orientation="1,0"
       position="16,9"
       id="guide4466" />
    <sodipodi:guide
       orientation="1,0"
       position="26.489215,29.322493"
       id="guide3816" />
    <sodipodi:guide
       orientation="0,1"
       position="28.061102,27.653576"
       id="guide3818" />
    <sodipodi:guide
       orientation="1,0"
       position="5.4724971,24.917327"
       id="guide3820" />
    <sodipodi:guide
       orientation="0,1"
       position="16.611552,4.4245721"
       id="guide3822" />
  </sodipodi:namedview>
  <metadata
     id="metadata3858">
    <rdf:RDF>
      <cc:Work
         rdf:about="">
        <dc:format>image/svg+xml</dc:format>
        <dc:type
           rdf:resource="http://purl.org/dc/dcmitype/StillImage" />
        <dc:title />
      </cc:Work>
    </rdf:RDF>
  </metadata>
  <g
     id="layer1"
     inkscape:label="Layer 1"
     inkscape:groupmode="layer">
    <g
       transform="matrix(0.29336967,0,0,0.29336967,-20.681029,-261.70826)"
       id="g3063"
       style="fill:#333333;fill-opacity:1;stroke:#000000;stroke-opacity:1">
      <path
         style="font-size:medium;font-style:normal;font-variant:normal;font-weight:normal;font-stretch:normal;text-indent:0;text-align:start;text-decoration:none;line-height:normal;letter-spacing:normal;word-spacing:normal;text-transform:none;direction:ltr;block-progression:tb;writing-mode:lr-tb;text-anchor:start;baseline-shift:baseline;color:#000000;fill:#333333;fill-opacity:1;stroke:none;stroke-width:4.99999952000000025;marker:none;visibility:visible;display:inline;overflow:visible;enable-background:accumulate;font-family:Sans;-inkscape-font-specification:Sans"
         d="m 28.28125,-16.96875 c -8.37688,0.17725 -16.39131,4.41398 -19.75,11.1875 -7.42599,-1.60835 -14.002923,0.94091 -17.9375,5.53125 -3.672416,4.28448 -5.132555,10.10209 -3.71875,15.46875 -4.281325,1.29052 -7.682692,3.84134 -9.90625,7.09375 -2.689655,3.93417 -3.83046,8.71508 -3.6875,13.375 0.14296,4.65992 1.571379,9.25862 4.375,12.8125 2.803621,3.55388 7.114587,6 12.34375,6 l 55,0 c 6.83333,0 12.26781,-2.49505 15.9375,-6.34375 3.66969,-3.8487 5.59164,-8.93714 5.9375,-14.125 0.6531,-9.79651 -4.40454,-20.27699 -14.5,-23.8125 -0.29277,-8.24071 -2.4496,-14.5806 -5.96875,-19 -3.77945,-4.74629 -8.95172,-7.27065 -14.1875,-7.96875 -1.30894,-0.17453 -2.6265,-0.24649 -3.9375,-0.21875 z m 0.15625,5.03125 c 1.04007,-0.0357 2.05894,0.0183 3.09375,0.15625 4.13922,0.5519 8.02945,2.40254 10.96875,6.09375 2.9393,3.69121 5,9.35417 5,17.6875 l 0,1.9375 1.90625,0.46875 C 58.07468,16.57336 62.43328,25.31323 61.875,33.6875 61.59586,37.87464 60.08031,41.8487 57.34375,44.71875 54.60719,47.5888 50.66667,49.5 45,49.5 l -55,0 c -3.743102,0 -6.402571,-1.55388 -8.40625,-4.09375 -2.003679,-2.53987 -3.198526,-6.15992 -3.3125,-9.875 -0.113974,-3.71508 0.823323,-7.49667 2.8125,-10.40625 1.989177,-2.90958 4.932246,-5.0039 9.28125,-5.65625 L -6.21875,18.9375 -7.75,15.875 C -9.728251,11.9185 -8.756762,6.69018 -5.59375,3 -2.43074,-0.69018 2.58838,-2.86637 9.21875,-0.65625 l 2.375,0.8125 0.78125,-2.375 c 1.72633,-5.179 8.78199,-9.46859 16.0625,-9.71875 z M 20,3.96875 l -1.375,0.9375 -15,10 2.75,4.15625 L 20,9.96875 l 13.625,9.09375 2.75,-4.15625 -15,-10 L 20,3.96875 z m -13.625,20.9375 -2.75,4.15625 15,10 L 20,40 l 1.375,-0.9375 15,-10 -2.75,-4.15625 L 20,34 6.375,24.90625 z"
         transform="translate(105,930.36218)"
         id="path3920"
         inkscape:connector-curvature="0" />
    </g>
  </g>
</svg>
