<svg xmlns:xlink="http://www.w3.org/1999/xlink" viewBox="0 0 854.238 854.238" version="1.0" width="48" xmlns="http://www.w3.org/2000/svg" height="48">
<defs id="defs217"/>
<path style="fill:#fff;stroke:#0358ad;stroke-width:1.282" id="path3849" d="m -4.25,10 a 14.5,14 0 1 1 -29,0 14.5,14 0 1 1 29,0 z" transform="matrix(27.013416,0,0,27.978181,933.62055,147.33719)"/>
<path style="fill:#0358ad;stroke:none" id="circle22" d="m 427.119,44.4916 c -211.125,0 -382.627,171.502 -382.627,382.627 0,105.563 43.0372,201.135 112.265,270.363 -26.7951,-31.2219 -33.7994,-54.5875 -32.4435,-54.5875 21.6164,0 40.5887,-42.4129 29.3536,-44.288 -11.235,-1.87094 -89.1844,-80.898 -79.8213,-86.516 9.36199,-5.61491 76.0301,-34.1281 84.4561,-40.6831 8.42601,-6.55507 39.5618,-41.2931 48.9228,-42.2281 9.36303,-0.93702 28.794,-4.87149 43.773,-12.3594 14.98,-7.49103 74.9519,-68.7255 88.061,-76.2165 13.107,-7.49 51.6871,-7.11467 63.8571,-6.17972 12.17,0.93599 23.5025,-3.70033 31.9285,-14.9343 8.426,-11.236 96.91,-74.7183 108.145,-80.3363 11.235,-5.61699 41.2077,-41.1981 56.6474,-41.1981 4.681,0 13.582,16.0094 25.7488,31.9285 12.1721,15.9139 9.12995,30.477 2.57488,41.7131 -6.55402,11.235 -57.6296,107.021 -52.0126,116.385 5.61906,9.36199 46.1615,6.50676 54.5875,4.63478 8.42601,-1.87197 33.6152,-18.7722 40.1682,-15.9643 6.55506,2.80901 10.2995,21.4437 10.2995,29.8686 0,8.42495 4.77499,17.978 -19.5691,22.659 -24.343,4.681 -94.1036,49.5841 -118.445,87.031 -24.3441,37.449 -30.5694,178.839 -32.4435,195.691 -1.87303,16.851 -2.67094,36.5166 -3.60483,51.4976 -0.93808,14.979 18.0576,20.1251 -9.26958,29.3537 -18.6642,6.30079 -52.6545,14.6105 -93.7257,15.9642 7.70331,0.46338 15.3548,1.02995 23.1739,1.02995 211.125,0 382.627,-171.502 382.627,-382.627 1.13687e-13,-211.125 -171.502,-382.627 -382.627,-382.627 z  m -30.8986,329.0699 c -12.6194,0.78792 -29.6746,4.44021 -41.7131,16.4792 -21.4027,21.4017 -40.0543,68.6431 -38.6232,82.9112 1.42482,14.2681 44.2814,-48.7639 62.8271,-53.0426 18.5499,-4.28179 38.7863,-35.8476 34.5034,-45.8329 0,0 -2.36799,-0.31429 -6.17972,-0.51497 -2.85878,-0.15051 -6.60803,-0.26265 -10.8145,0 z "/>
</svg>
