<?xml version="1.0" encoding="UTF-8" standalone="no"?>
<svg
   xmlns:dc="http://purl.org/dc/elements/1.1/"
   xmlns:cc="http://creativecommons.org/ns#"
   xmlns:rdf="http://www.w3.org/1999/02/22-rdf-syntax-ns#"
   xmlns:svg="http://www.w3.org/2000/svg"
   xmlns="http://www.w3.org/2000/svg"
   xmlns:sodipodi="http://sodipodi.sourceforge.net/DTD/sodipodi-0.dtd"
   xmlns:inkscape="http://www.inkscape.org/namespaces/inkscape"
   width="96"
   version="1.0"
   height="96"
   id="svg9880"
   inkscape:version="0.91 r13725"
   sodipodi:docname="avidemux.svg">
  <metadata
     id="metadata9896">
    <rdf:RDF>
      <cc:Work
         rdf:about="">
        <dc:format>image/svg+xml</dc:format>
        <dc:type
           rdf:resource="http://purl.org/dc/dcmitype/StillImage" />
        <dc:title></dc:title>
      </cc:Work>
    </rdf:RDF>
  </metadata>
  <defs
     id="defs9894" />
  <sodipodi:namedview
     pagecolor="#ffffff"
     bordercolor="#666666"
     borderopacity="1"
     objecttolerance="10"
     gridtolerance="10"
     guidetolerance="10"
     inkscape:pageopacity="0"
     inkscape:pageshadow="2"
     inkscape:window-width="640"
     inkscape:window-height="480"
     id="namedview9892"
     showgrid="false"
     inkscape:zoom="2"
     inkscape:cx="30.086022"
     inkscape:cy="41.833288"
     inkscape:current-layer="svg9880" />
  <path
     inkscape:connector-curvature="0"
     style="fill:#333333;fill-opacity:1;stroke:none;stroke-width:3.9848628"
     d="m 5.9999991,6.0000006 0,83.9999984 84.0000019,0 0,-83.9999983 -84.0000019,0 z m 6.3000019,6.3000004 6.299999,0 0,6.300001 -6.299999,0 0,-6.300001 z m 65.099994,0 6.300002,0 0,6.300001 -6.300002,0 0,-6.300001 z m -65.099997,15.749995 6.299997,0 0,6.300001 -6.299997,0 0,-6.300001 z m 65.099997,0 6.300002,0 0,6.300001 -6.300002,0 0,-6.300001 z M 12.299998,44.85 l 6.299997,0 0,6.299992 -6.299997,0 0,-6.299992 z m 65.099997,0 6.300002,0 0,6.299992 -6.300002,0 0,-6.299992 z m -65.099997,16.799993 6.299997,0 0,6.299999 -6.299997,0 0,-6.299999 z m 65.099997,0 6.300002,0 0,6.299999 -6.300002,0 0,-6.299999 z m -65.099997,15.750008 6.299997,0 0,6.299999 -6.299997,0 0,-6.299999 z m 65.099997,0 6.300002,0 0,6.299999 -6.300002,0 0,-6.299999 z"
     id="rect4197" />
  <path
     inkscape:connector-curvature="0"
     d="m 73,37.236389 a 25,25 0 0 1 -50,0 25,25 0 1 1 50,0 z"
     id="path3751"
     style="color:#000000;fill:#4c86c1;stroke:none" />
  <g
     style="font-size:26.87514305px;line-height:125%;font-family:'Droid Sans Japanese';letter-spacing:0;word-spacing:0;fill:#ffffff;stroke:none"
     id="text3832"
     transform="matrix(1.2080229,0,0,0.82779888,-4.0957302e-5,-1.8674174)">
    <path
       id="path4153"
       d="m 29.4725,95.5781 q -2.92635,0 -4.05489,0.669254 -1.12855,0.669254 -1.12855,2.28334 0,1.28602 0.839849,2.047116 0.85297,0.74799 2.30958,0.74799 2.00776,0 3.21504,-1.417236 1.2204,-1.43037 1.2204,-3.79244 l 0,-0.538028 -2.40144,0 z m 4.816,-0.9973 0,8.3854 -2.4146,0 0,-2.2308 q -0.826726,1.3385 -2.06025,1.98151 -1.23353,0.62989 -3.0182,0.62989 -2.25709,0 -3.5956,-1.25977 -1.32539,-1.2729 -1.32539,-3.39876 0,-2.48018 1.65345,-3.73995 1.66657,-1.25977 4.96035,-1.25977 l 3.38564,0 0,-0.236208 q 0,-1.66657 -1.1023,-2.57203 -1.08918,-0.918584 -3.0707,-0.918584 -1.25977,0 -2.45393,0.301821 -1.19416,0.30182 -2.29646,0.905461 l 0,-2.23085 q 1.32539,-0.511782 2.57203,-0.761112 1.24665,-0.262453 2.42769,-0.262453 3.1888,0 4.76351,1.65345 1.57471,1.65345 1.57471,5.01284 z"
       inkscape:connector-curvature="0" />
    <path
       id="path4155"
       d="m 37.5429,88.2688 2.5589,0 4.5929,12.3353 4.5929,-12.3353 2.5589,0 -5.5115,14.6973 -3.2807,0 -5.5115,-14.6973 z"
       inkscape:connector-curvature="0" />
    <path
       id="path4157"
       d="m 55.1797,88.2688 2.4146,0 0,14.6973 -2.4146,0 0,-14.6973 z m 0,-5.7215 2.4146,0 0,3.0576 -2.4146,0 0,-3.0576 z"
       inkscape:connector-curvature="0" />
  </g>
  <path
     sodipodi:type="star"
     style="opacity:1;fill:#ffffff;fill-opacity:1;fill-rule:evenodd;stroke:none;stroke-width:1;stroke-linecap:butt;stroke-linejoin:miter;stroke-miterlimit:4;stroke-dasharray:none;stroke-opacity:1"
     id="path15902"
     sodipodi:sides="3"
     sodipodi:cx="46"
     sodipodi:cy="38.75"
     sodipodi:r1="25.294516"
     sodipodi:r2="12.647258"
     sodipodi:arg1="0.82034896"
     sodipodi:arg2="1.8675465"
     inkscape:flatsided="false"
     inkscape:rounded="0"
     inkscape:randomized="0"
     d="M 63.25,57.25 42.301765,50.844469 21.35353,44.438938 37.375,29.5 53.39647,14.561061 l 4.926765,21.34447 z"
     inkscape:transform-center-x="-2.8948455"
     inkscape:transform-center-y="-1.41448"
     transform="matrix(-0.71498102,-0.16464532,0.16464532,-0.71498102,74.123655,72.51186)" />
</svg>
