<?xml version="1.0" encoding="UTF-8" standalone="no"?>
<!-- Created with Inkscape (http://www.inkscape.org/) -->

<svg
   xmlns:dc="http://purl.org/dc/elements/1.1/"
   xmlns:cc="http://creativecommons.org/ns#"
   xmlns:rdf="http://www.w3.org/1999/02/22-rdf-syntax-ns#"
   xmlns:svg="http://www.w3.org/2000/svg"
   xmlns="http://www.w3.org/2000/svg"
   xmlns:sodipodi="http://sodipodi.sourceforge.net/DTD/sodipodi-0.dtd"
   xmlns:inkscape="http://www.inkscape.org/namespaces/inkscape"
   id="svg2"
   version="1.1"
   inkscape:version="0.91 r13725"
   width="96"
   height="96"
   sodipodi:docname="blogger.svg">
  <metadata
     id="metadata8">
    <rdf:RDF>
      <cc:Work
         rdf:about="">
        <dc:format>image/svg+xml</dc:format>
        <dc:type
           rdf:resource="http://purl.org/dc/dcmitype/StillImage" />
        <dc:title></dc:title>
      </cc:Work>
    </rdf:RDF>
  </metadata>
  <defs
     id="defs6" />
  <sodipodi:namedview
     pagecolor="#ffffff"
     bordercolor="#666666"
     borderopacity="1"
     objecttolerance="10"
     gridtolerance="10"
     guidetolerance="10"
     inkscape:pageopacity="0"
     inkscape:pageshadow="2"
     inkscape:window-width="884"
     inkscape:window-height="617"
     id="namedview4"
     showgrid="false"
     inkscape:zoom="2.6074562"
     inkscape:cx="33.269929"
     inkscape:cy="53.102263"
     inkscape:window-x="15"
     inkscape:window-y="39"
     inkscape:window-maximized="0"
     inkscape:current-layer="svg2" />
  <rect
     style="opacity:1;fill:#ff7f2a;fill-opacity:1;fill-rule:evenodd;stroke:none;stroke-width:1;stroke-linecap:butt;stroke-linejoin:miter;stroke-miterlimit:4;stroke-dasharray:none;stroke-opacity:1"
     id="rect15804"
     width="84"
     height="84"
     x="6"
     y="6" />
  <g
     id="g15809"
     transform="translate(-2.412664e-6,2.7571704e-7)">
    <path
       style="fill:#ffffff"
       d="m 67.637127,84.198303 c 4.376657,-1.132915 7.561845,-3.062208 10.942705,-6.628104 5.464978,-5.764068 6.420165,-9.445919 6.420165,-24.746985 0,-14.180738 0.04401,-14.09398 -7.518594,-14.828926 -2.186916,-0.212528 -4.195796,-0.733249 -4.678158,-1.212632 -0.464972,-0.462078 -0.845744,-0.885433 -0.846173,-0.940781 -4.2e-4,-0.05534 -0.372749,-2.201222 -0.827397,-4.768607 C 69.648714,22.70924 64.920493,16.302825 57.781614,12.98656 54.972637,11.68169 53.733433,11.501523 45.306515,11.172814 32.853527,10.687061 27.576297,11.180642 23.36547,13.225 19.128829,15.281878 14.780887,19.623136 12.66805,23.905967 l -1.668048,3.381222 0,20.569094 0,20.569102 1.472716,3.09945 c 2.878632,6.058315 9.403386,11.451058 15.605543,12.898066 1.210787,0.282483 9.866792,0.539077 19.235554,0.57021 13.509685,0.0449 17.714671,-0.11955 20.323312,-0.794808 z"
       id="path2994"
       inkscape:connector-curvature="0" />
    <path
       style="fill:#ff7f2a"
       d="m 33.967795,64.925802 c -2.723089,-0.35096 -3.404575,-1.070325 -3.404575,-3.593804 0,-1.667534 0.293309,-2.322275 1.275861,-2.848048 1.549275,-0.829035 20.380734,-1.381063 26.780726,-0.785049 6.107892,0.568808 8.097012,2.763976 5.450324,6.014873 -1.080445,1.327093 -1.116621,1.330552 -14.601534,1.398959 -7.435121,0.03769 -14.410481,-0.04641 -15.500802,-0.186931 z"
       id="path2992"
       inkscape:connector-curvature="0" />
    <path
       style="fill:#ff7f2a"
       d="m 33.681995,37.8798 c -2.453109,-0.384887 -3.118775,-1.152747 -3.118775,-3.597572 0,-3.310165 0.963578,-3.601858 11.835615,-3.582851 9.015845,0.01575 9.314625,0.05396 10.348654,1.323019 1.352623,1.660067 1.347586,2.963701 -0.01792,4.641607 -1.040854,1.278982 -1.396926,1.333332 -9.214559,1.406548 -4.472525,0.04186 -8.89738,-0.04397 -9.833007,-0.190751 z"
       id="path2984"
       inkscape:connector-curvature="0" />
  </g>
</svg>
