<?xml version="1.0" encoding="UTF-8" standalone="no"?>
<svg
   xmlns:dc="http://purl.org/dc/elements/1.1/"
   xmlns:cc="http://creativecommons.org/ns#"
   xmlns:rdf="http://www.w3.org/1999/02/22-rdf-syntax-ns#"
   xmlns:svg="http://www.w3.org/2000/svg"
   xmlns="http://www.w3.org/2000/svg"
   xmlns:sodipodi="http://sodipodi.sourceforge.net/DTD/sodipodi-0.dtd"
   xmlns:inkscape="http://www.inkscape.org/namespaces/inkscape"
   width="96"
   version="1.1"
   height="96"
   id="svg2"
   inkscape:version="0.91 r13725"
   sodipodi:docname="chromium.svg">
  <metadata
     id="metadata13">
    <rdf:RDF>
      <cc:Work
         rdf:about="">
        <dc:format>image/svg+xml</dc:format>
        <dc:type
           rdf:resource="http://purl.org/dc/dcmitype/StillImage" />
        <dc:title></dc:title>
      </cc:Work>
    </rdf:RDF>
  </metadata>
  <sodipodi:namedview
     pagecolor="#ffffff"
     bordercolor="#666666"
     borderopacity="1"
     objecttolerance="10"
     gridtolerance="10"
     guidetolerance="10"
     inkscape:pageopacity="0"
     inkscape:pageshadow="2"
     inkscape:window-width="640"
     inkscape:window-height="480"
     id="namedview11"
     showgrid="false"
     inkscape:zoom="2.3422912"
     inkscape:cx="35.007117"
     inkscape:cy="50.580523"
     inkscape:current-layer="svg2" />
  <defs
     id="defs3043" />
  <link
     rel="stylesheet"
     href="resource://abduction/browser.css" />
  <abduction-overlay />
  <g
     id="g4141"
     transform="matrix(1.8260875,0,0,1.8309579,4.1739206,4.0571435)">
    <g
       id="g5"
       style="stroke:none">
      <path
         d="m 5.5645,10.4485 c -0.155709,0.250122 -0.30507,0.517267 -0.428428,0.741757 -0.00125,0.0024 -0.00508,0.004 -0.00642,0.0064 -8.80712,13.9717 -0.920103,24.1227 -0.063918,25.6098 0.855631,1.48607 5.95065,8.72294 16.5233,10.0457 0.0024,0.0018 0.004,0.0046 0.0064,0.0064 0.0063,8.18e-4 0.01283,-8.18e-4 0.01918,0 0.237615,0.03262 0.386838,0.03573 0.632968,0.04476 0.637724,-1.07179 0.07333,0.0055 8.86914,-15.756 -1.83747,1.84394 -4.37091,2.9863 -7.16813,2.9863 -5.59444,0 -10.148,-4.56845 -10.148,-10.1864 0,-1.4268 0.295085,-2.78163 0.824884,-4.01572 -1.15132,-0.996401 -8.31581,-8.62309 -9.06092,-9.483 z"
         id="path3596-1-7"
         style="fill:#89b7e1"
         inkscape:connector-curvature="0" />
      <path
         d="m 44.673,13.9718 c -1.28869,-0.0057 -0.0089,0.0086 -18.5567,0.02558 4.55513,1.00115 7.97388,5.07985 7.97388,9.94977 0,2.72605 -1.23066,5.37067 -2.97347,7.20005 -8.80487,15.6635 -8.20601,14.6415 -8.86916,15.756 16.5054,0.766538 21.446,-11.1053 22.3167,-12.5843 0.870698,-1.47895 4.66091,-9.49088 0.575502,-19.3496 -0.156664,-0.394225 -0.279199,-0.641119 -0.441218,-0.991139 -0.0081,-0.0016 -0.01741,-0.0046 -0.02558,-0.0064 z"
         id="path3596-1"
         style="fill:#cadef0"
         inkscape:connector-curvature="0" />
    </g>
    <path
       d="m 24.556,1.0614 c -0.99105,0.0046 -1.69886,0.06394 -2.02065,0.06394 -1.71622,0 -10.5478,0.80083 -16.9709,9.32311 0.745112,0.859912 7.9096,8.48659 9.06094,9.48297 1.55625,-3.62504 5.14951,-6.17065 9.32311,-6.17065 0.723994,0 1.42868,0.07192 2.11017,0.217411 16.379,-0.02118 17.3355,-0.01249 18.6398,-0.0064 -6.26699,-11.8726 -15.848,-12.9302 -20.1425,-12.9104 z"
       id="path3596"
       style="fill:#658db6;stroke:none"
       inkscape:connector-curvature="0" />
    <path
       d="m 33.2967,23.9472 c 0,5.18572 -4.18629,9.38958 -9.35035,9.38958 -5.16405,0 -9.35035,-4.20386 -9.35035,-9.38959 0,-5.18572 4.18629,-9.38958 9.35035,-9.38958 5.16406,0 9.35035,4.20386 9.35035,9.38958 z"
       id="path3645"
       style="fill:#3b79bc;stroke:#ffffff;stroke-width:1.59599996"
       inkscape:connector-curvature="0" />
  </g>
</svg>
