<?xml version="1.0" encoding="UTF-8" standalone="no"?>
<!-- Created with Inkscape (http://www.inkscape.org/) -->

<svg
   xmlns:dc="http://purl.org/dc/elements/1.1/"
   xmlns:cc="http://creativecommons.org/ns#"
   xmlns:rdf="http://www.w3.org/1999/02/22-rdf-syntax-ns#"
   xmlns:svg="http://www.w3.org/2000/svg"
   xmlns="http://www.w3.org/2000/svg"
   xmlns:sodipodi="http://sodipodi.sourceforge.net/DTD/sodipodi-0.dtd"
   xmlns:inkscape="http://www.inkscape.org/namespaces/inkscape"
   width="96"
   height="96"
   id="svg5453"
   version="1.1"
   inkscape:version="0.91 r13725"
   sodipodi:docname="desktop-environment-lxde.svg">
  <defs
     id="defs5455" />
  <sodipodi:namedview
     id="base"
     pagecolor="#ffffff"
     bordercolor="#666666"
     borderopacity="1.0"
     inkscape:pageopacity="0"
     inkscape:pageshadow="2"
     inkscape:zoom="2.347641"
     inkscape:cx="30.284696"
     inkscape:cy="50.844445"
     inkscape:document-units="px"
     inkscape:current-layer="layer1"
     showgrid="false"
     fit-margin-top="0"
     fit-margin-left="0"
     fit-margin-right="0"
     fit-margin-bottom="0"
     inkscape:window-width="1301"
     inkscape:window-height="744"
     inkscape:window-x="65"
     inkscape:window-y="24"
     inkscape:window-maximized="1">
    <inkscape:grid
       type="xygrid"
       id="grid3001" />
  </sodipodi:namedview>
  <metadata
     id="metadata5458">
    <rdf:RDF>
      <cc:Work
         rdf:about="">
        <dc:format>image/svg+xml</dc:format>
        <dc:type
           rdf:resource="http://purl.org/dc/dcmitype/StillImage" />
        <dc:title></dc:title>
      </cc:Work>
    </rdf:RDF>
  </metadata>
  <g
     inkscape:label="Capa 1"
     inkscape:groupmode="layer"
     id="layer1"
     transform="translate(-384.57143,-451.798)">
    <rect
       style="opacity:1;fill:#80b3ff;fill-opacity:1;fill-rule:evenodd;stroke:none;stroke-width:1;stroke-linecap:butt;stroke-linejoin:miter;stroke-miterlimit:4;stroke-dasharray:none;stroke-opacity:1"
       id="rect17892"
       width="84"
       height="84"
       x="390.57144"
       y="457.798"
       rx="0"
       ry="0" />
    <g
       id="g4317"
       transform="matrix(1.2986722,0,0,1.2986722,305.2978,499.67909)" />
    <path
       style="fill:#3763a3;fill-opacity:1;fill-rule:nonzero;stroke:none"
       inkscape:connector-curvature="0"
       d="m 451.02194,491.36184 c -4.54169,-5.27518 -8.62396,-8.68202 -14.67027,0.19412 -3.61363,5.2752 -25.20895,35.53893 -29.17098,40.35782 -1.15622,1.39665 -1.83145,2.36167 -2.71019,2.93821 0,-1.91463 14.92309,-26.24337 19.08861,-33.28826 5.02268,-8.46621 4.86543,-7.97292 4.26419,-7.97292 -0.85408,0 -2.57764,1.28874 -5.21383,4.17762 -4.79452,5.26284 -19.00539,24.88062 -19.99202,24.58156 0.33606,-1.42132 11.46671,-18.97959 16.51099,-26.24337 4.34742,-6.26179 2.68554,-6.74583 0.19413,-6.12922 -10.62194,2.61449 -23.34048,8.91327 -23.75056,8.68202 0.15707,-0.3237 42.81758,-31.19173 48.52474,-31.7837 0.66291,-0.0708 2.05964,-1.28872 4.55401,-2.31229 2.71019,-1.09452 4.52935,-1.99789 4.98567,-1.71113 -1.98872,2.85494 -3.02161,3.43147 -3.04628,4.34714 -0.0248,1.50458 -0.54267,3.93714 -1.11924,4.72023 11.03201,7.56285 15.3332,33.32529 18.47504,54.06223 0.74616,4.91445 1.44608,8.62341 1.6249,10.81551 -0.92806,-2.46957 -9.74317,-35.21518 -18.56138,-45.43877 m 0,0"
       id="path4337-0" />
    <path
       style="fill:#2b467a;fill-opacity:0.31372549;fill-rule:nonzero;stroke:none"
       d="m 453.04516,462.84372 c -0.29741,0.0661 -0.7102,0.21673 -1.17781,0.39887 -0.7986,0.95688 -1.26086,1.45649 -1.27636,2.03185 -0.0248,1.50457 -0.54494,3.93756 -1.12152,4.72065 0.20276,0.13894 0.38834,0.32749 0.58657,0.47864 0.29892,-1.04056 0.51933,-2.32648 0.53495,-3.27537 0.0246,-0.91567 1.05671,-1.49032 3.04543,-4.34526 -0.11414,-0.0716 -0.31419,-0.0709 -0.59126,-0.009 z m -9.68062,21.32271 c -2.09634,0.0533 -4.36534,1.58346 -7.0106,5.46677 -3.61361,5.2752 -25.21125,35.53661 -29.17326,40.35549 -0.43484,0.52525 -0.76287,0.93192 -1.09805,1.33737 -0.93513,1.76761 -1.60953,3.15277 -1.60953,3.52407 0.87874,-0.57656 1.55134,-1.54086 2.70758,-2.9375 3.96201,-4.8189 25.55965,-35.08031 29.17326,-40.35551 6.04632,-8.87614 10.12708,-5.47226 14.66877,-0.19708 l -0.0148,0 c 8.81821,10.22359 17.63546,42.96791 18.56352,45.43747 -0.071,-0.86988 -0.27325,-2.15371 -0.47864,-3.48183 -1.71283,-5.47384 -9.7794,-34.25041 -18.08488,-43.87956 l 0.0148,0.006 c -2.55471,-2.96729 -4.96287,-5.34297 -7.65817,-5.27437 z m -22.41138,3.70707 c -0.43823,-0.0564 -1.00545,0.0289 -1.62829,0.18297 -6.37113,1.56818 -13.19168,4.34333 -17.9629,6.35833 -3.08236,2.22451 -5.75731,4.17357 -5.79054,4.24202 0.41007,0.23125 13.1315,-6.06663 23.75344,-8.68113 0.94611,-0.23415 1.7635,-0.3019 2.1867,0.0376 0.53506,-1.4355 0.22753,-2.03844 -0.55841,-2.13978 z m 7.06692,3.79155 c -0.052,-0.004 -0.12192,0.006 -0.1971,0.006 -0.85408,0 -2.57716,1.28742 -5.21336,4.17631 -3.70583,4.06784 -12.97734,16.61837 -17.47956,22.01252 -1.39922,2.32149 -2.41706,4.0956 -2.51049,4.49072 0.98663,0.29906 15.19554,-19.32114 19.99005,-24.584 1.95263,-2.13978 3.39995,-3.38891 4.36871,-3.89947 0.76169,-1.30985 1.23807,-2.18927 1.04175,-2.20078 z"
       id="path4433"
       inkscape:connector-curvature="0" />
  </g>
</svg>
