<?xml version="1.0" encoding="UTF-8" standalone="no"?>
<svg
   xmlns:dc="http://purl.org/dc/elements/1.1/"
   xmlns:cc="http://creativecommons.org/ns#"
   xmlns:rdf="http://www.w3.org/1999/02/22-rdf-syntax-ns#"
   xmlns:svg="http://www.w3.org/2000/svg"
   xmlns="http://www.w3.org/2000/svg"
   xmlns:sodipodi="http://sodipodi.sourceforge.net/DTD/sodipodi-0.dtd"
   xmlns:inkscape="http://www.inkscape.org/namespaces/inkscape"
   width="96"
   version="1.1"
   viewBox="0 0 96 96"
   height="96"
   id="svg6949"
   inkscape:version="0.91 r13725"
   sodipodi:docname="devede.svg">
  <metadata
     id="metadata7001">
    <rdf:RDF>
      <cc:Work
         rdf:about="">
        <dc:format>image/svg+xml</dc:format>
        <dc:type
           rdf:resource="http://purl.org/dc/dcmitype/StillImage" />
        <dc:title></dc:title>
      </cc:Work>
    </rdf:RDF>
  </metadata>
  <sodipodi:namedview
     pagecolor="#ffffff"
     bordercolor="#666666"
     borderopacity="1"
     objecttolerance="10"
     gridtolerance="10"
     guidetolerance="10"
     inkscape:pageopacity="0"
     inkscape:pageshadow="2"
     inkscape:window-width="640"
     inkscape:window-height="480"
     id="namedview6999"
     showgrid="false"
     inkscape:zoom="3.3587572"
     inkscape:cx="8.5011212"
     inkscape:cy="28.102589"
     inkscape:current-layer="svg6949" />
  <defs
     id="defs4001">
    <linearGradient
       id="XMLID_9_"
       y1="20.0117"
       x1="18.7383"
       y2="45.011902"
       gradientUnits="userSpaceOnUse"
       x2="119.072"
       gradientTransform="matrix(0.58084576,0,0,0.58084576,10.73454,11.986982)">
      <stop
         offset="0"
         style="stop-color:#bbdbd8"
         id="stop3935" />
      <stop
         offset="0.3708"
         style="stop-color:#dfecdb"
         id="stop3937" />
      <stop
         offset="0.6798"
         style="stop-color:#dfecdb"
         id="stop3939" />
      <stop
         offset="1"
         style="stop-color:#e2e3c9"
         id="stop3941" />
    </linearGradient>
    <linearGradient
       id="XMLID_14_"
       y1="54.588902"
       x1="57.588902"
       y2="67.542801"
       gradientUnits="userSpaceOnUse"
       x2="70.542801"
       gradientTransform="matrix(0.58084576,0,0,0.58084576,10.73454,11.986982)">
      <stop
         offset="0"
         style="stop-color:#bbdbd8"
         id="stop3990" />
      <stop
         offset="1"
         style="stop-color:#d8bdb6"
         id="stop3992" />
    </linearGradient>
    <linearGradient
       id="XMLID_8_"
       y1="72.966797"
       x1="11.998"
       y2="99.2332"
       gradientUnits="userSpaceOnUse"
       x2="89.767197"
       gradientTransform="matrix(0.58084576,0,0,0.58084576,10.73454,11.986982)">
      <stop
         offset="0"
         style="stop-color:#ced1e3"
         id="stop3922" />
      <stop
         offset="0.1854"
         style="stop-color:#e7e6f0"
         id="stop3924" />
      <stop
         offset="0.618"
         style="stop-color:#e7e6f0"
         id="stop3926" />
      <stop
         offset="0.8933"
         style="stop-color:#dbc0c4"
         id="stop3928" />
      <stop
         offset="1"
         style="stop-color:#d8bdb6"
         id="stop3930" />
    </linearGradient>
    <linearGradient
       id="XMLID_12_"
       y1="40.708"
       x1="47.1772"
       y2="81.767197"
       gradientUnits="userSpaceOnUse"
       x2="81.217499"
       gradientTransform="matrix(0.58084576,0,0,0.58084576,10.73454,11.986982)">
      <stop
         offset="0"
         style="stop-color:#879b95"
         id="stop3972" />
      <stop
         offset="0.5056"
         style="stop-color:#8e8e9c"
         id="stop3974" />
      <stop
         offset="1"
         style="stop-color:#9b8a91"
         id="stop3976" />
    </linearGradient>
    <linearGradient
       id="XMLID_13_"
       y1="41.724602"
       x1="48.02"
       y2="80.725998"
       gradientUnits="userSpaceOnUse"
       x2="80.354202"
       gradientTransform="matrix(0.58084576,0,0,0.58084576,10.73454,11.986982)">
      <stop
         offset="0"
         style="stop-color:#879b95"
         id="stop3981" />
      <stop
         offset="0.5056"
         style="stop-color:#8e8e9c"
         id="stop3983" />
      <stop
         offset="1"
         style="stop-color:#9b8a91"
         id="stop3985" />
    </linearGradient>
  </defs>
  <rect
     style="opacity:1;fill:#808080;fill-opacity:1;fill-rule:evenodd;stroke:none;stroke-width:1;stroke-linecap:butt;stroke-linejoin:miter;stroke-miterlimit:4;stroke-dasharray:none;stroke-opacity:1"
     id="rect18039"
     width="84"
     height="84"
     x="6"
     y="6" />
  <g
     style="fill:#3d3d3d"
     id="g33"
     transform="matrix(0.58084576,0,0,0.58084576,10.73454,11.986982)">
    <path
       inkscape:connector-curvature="0"
       style="opacity:0.2"
       id="path3915"
       d="m 64.105,2 c -33.636,0 -61,27.364 -61,61 0,33.638 27.364,61.002 61,61.002 33.636,0 61,-27.364 61,-61.002 0,-33.636 -27.364,-61 -61,-61 z m 0,69.476 c -4.672,0 -8.474,-3.801 -8.474,-8.476 0,-4.672 3.801,-8.474 8.474,-8.474 4.672,0 8.474,3.801 8.474,8.474 0,4.675 -3.802,8.476 -8.474,8.476 z" />
    <path
       inkscape:connector-curvature="0"
       style="opacity:0.2"
       id="path3917"
       d="m 64.105,1 c -33.636,0 -61,27.364 -61,61 0,33.638 27.364,61.002 61,61.002 33.636,0 61,-27.364 61,-61.002 0,-33.636 -27.364,-61 -61,-61 z m 0,69.476 c -4.672,0 -8.474,-3.801 -8.474,-8.476 0,-4.672 3.801,-8.474 8.474,-8.474 4.672,0 8.474,3.801 8.474,8.474 0,4.675 -3.802,8.476 -8.474,8.476 z" />
    <path
       inkscape:connector-curvature="0"
       style="opacity:0.6"
       id="path3919"
       d="M 64,0 C 30.364,0 3,27.364 3,61 3,94.636 30.364,122 64,122 97.636,122 125,94.636 125,61 125,27.364 97.636,0 64,0 Z m 0,69 c -4.411,0 -8,-3.588 -8,-8 0,-4.411 3.589,-8 8,-8 4.411,0 8,3.589 8,8 0,4.412 -3.589,8 -8,8 z" />
  </g>
  <path
     inkscape:connector-curvature="0"
     style="fill:url(#XMLID_8_)"
     id="path3932"
     d="m 52.97771,49.563056 c -0.835257,1.973133 -2.790383,3.357869 -5.069041,3.357869 -3.039566,0 -5.502933,-2.463367 -5.502933,-5.502932 0,-0.115589 0.01046,-0.228854 0.01743,-0.342699 L 13.782238,40.325866 c -0.47397,2.289694 -0.724315,4.661868 -0.724315,7.092707 0,19.247486 15.603841,34.850746 34.850746,34.850746 16.173069,0 29.769507,-11.019225 33.701251,-25.957416 L 52.97771,49.563056 Z" />
  <path
     inkscape:connector-curvature="0"
     style="fill:url(#XMLID_9_)"
     id="path3943"
     d="m 47.908669,12.567828 c -16.816647,0 -30.84988,11.911985 -34.126431,27.758038 l 28.641504,6.750008 c 0.177739,-2.878671 2.56153,-5.159653 5.485507,-5.159653 3.039566,0 5.502933,2.463948 5.502933,5.502933 0,0.760908 -0.154505,1.485804 -0.433892,2.144483 l 28.632792,6.748266 c 0.746387,-2.839755 1.148332,-5.819494 1.148332,-8.89333 0,-19.246905 -15.60384,-34.850745 -34.850745,-34.850745 z" />
  <path
     inkscape:connector-curvature="0"
     style="fill:#dce8eb"
     id="path3945"
     d="m 15.067649,35.745897 28.094929,8.896814 c 0.174835,-0.298554 0.375807,-0.577941 0.601756,-0.836998 L 20.277255,26.190403 c -2.205471,2.866474 -3.975308,6.083198 -5.209606,9.555494 z" />
  <path
     inkscape:connector-curvature="0"
     style="fill:#e6e9f0"
     id="path3947"
     d="m 42.405736,47.418573 c 0,-0.365352 0.03717,-0.721991 0.105714,-1.067594 L 13.416886,42.447695 c -0.232339,1.624626 -0.358963,3.28236 -0.358963,4.970878 0,1.816305 0.139984,3.599502 0.407754,5.340296 L 42.410964,47.51209 c -5.81e-4,-0.03137 -0.0052,-0.06157 -0.0052,-0.09352 z" />
  <path
     inkscape:connector-curvature="0"
     style="fill:#bacbd8"
     id="path3949"
     d="m 13.416886,42.447695 29.094564,3.903284 c 0.120816,-0.612792 0.345603,-1.186668 0.651128,-1.707687 L 15.067649,35.745897 c -0.76265,2.145644 -1.320262,4.386547 -1.650763,6.701798 z" />
  <path
     inkscape:connector-curvature="0"
     style="fill:#ebdfda"
     id="path3951"
     d="M 80.503409,59.759222 52.701227,50.117183 c -0.187613,0.332244 -0.410077,0.641834 -0.660422,0.92703 L 75.03707,69.286255 c 2.29376,-2.842079 4.149562,-6.051252 5.466339,-9.527033 z" />
  <path
     inkscape:connector-curvature="0"
     style="fill:#d7c8b4"
     id="path3953"
     d="M 82.31042,52.993531 53.39011,47.850142 c -0.06389,0.820154 -0.304944,1.588032 -0.688883,2.267622 l 27.802182,9.642039 c 0.818412,-2.161908 1.430043,-4.424302 1.807011,-6.766272 z" />
  <path
     inkscape:connector-curvature="0"
     style="fill:#f0eee3"
     id="path3955"
     d="m 53.411601,47.418573 c 0,0.145793 -0.01104,0.288681 -0.02149,0.431569 l 28.92031,5.143389 c 0.291585,-1.815724 0.448994,-3.676754 0.448994,-5.574958 0,-1.316777 -0.07958,-2.614386 -0.221883,-3.892828 l -29.173559,3.208592 c 0.02788,0.224207 0.04763,0.451898 0.04763,0.684236 z" />
  <path
     inkscape:connector-curvature="0"
     style="opacity:0.2;fill:url(#XMLID_12_)"
     id="path3978"
     d="m 47.908669,31.969819 c -8.531463,0 -15.448755,6.91613 -15.448755,15.448754 0,8.531463 6.916711,15.448755 15.448755,15.448755 8.531462,0 15.448754,-6.916711 15.448754,-15.448755 0,-8.532624 -6.917292,-15.448754 -15.448754,-15.448754 z m 0,21.24211 c -3.20046,0 -5.793356,-2.593476 -5.793356,-5.793356 0,-3.199298 2.592896,-5.793355 5.793356,-5.793355 3.20046,0 5.793355,2.593476 5.793355,5.793355 0,3.19988 -2.592895,5.793356 -5.793355,5.793356 z" />
  <path
     inkscape:connector-curvature="0"
     style="fill:url(#XMLID_13_)"
     id="path3987"
     d="m 47.908669,32.744667 c -8.10338,0 -14.673907,6.569365 -14.673907,14.673906 0,8.10396 6.570527,14.673907 14.673907,14.673907 8.103379,0 14.673906,-6.569947 14.673906,-14.673907 0,-8.104541 -6.570527,-14.673906 -14.673906,-14.673906 z m 0,20.176839 c -3.039566,0 -5.502933,-2.463367 -5.502933,-5.502933 0,-3.038985 2.462786,-5.502932 5.502933,-5.502932 3.040146,0 5.502932,2.463947 5.502932,5.502932 0,3.038985 -2.463366,5.502933 -5.502932,5.502933 z" />
  <path
     inkscape:connector-curvature="0"
     style="fill:url(#XMLID_14_)"
     id="path3994"
     d="m 47.908669,41.610116 c -3.208011,0 -5.808458,2.600446 -5.808458,5.808457 0,3.207431 2.600447,5.808458 5.808458,5.808458 3.20743,0 5.808457,-2.601027 5.808457,-5.808458 0,-3.208011 -2.601027,-5.808457 -5.808457,-5.808457 z m 0,11.326492 c -3.048279,0 -5.518035,-2.470337 -5.518035,-5.518035 0,-3.047697 2.469756,-5.518034 5.518035,-5.518034 3.048278,0 5.518034,2.470337 5.518034,5.518034 0,3.047698 -2.469756,5.518035 -5.518034,5.518035 z" />
  <g
     style="fill:#ffffff"
     id="g51"
     transform="matrix(0.58084576,0,0,0.58084576,10.73454,11.986982)">
    <path
       inkscape:connector-curvature="0"
       style="opacity:0.07999998"
       id="path3996"
       d="m 39.045,57.061 c -0.201,1.284 -0.308,2.599 -0.308,3.939 0,1.013 0.066,2.01 0.183,2.992 l 15.615,-2.831 c -10e-4,-0.054 -0.008,-0.107 -0.008,-0.162 0,-0.629 0.064,-1.243 0.182,-1.838 l -15.664,-2.1 z m 50.047,1.034 -15.699,1.727 c 0.047,0.386 0.081,0.778 0.081,1.178 0,0.251 -0.019,0.497 -0.037,0.743 l 15.577,2.771 c 0.16,-1.149 0.249,-2.321 0.249,-3.514 0,-0.983 -0.063,-1.951 -0.171,-2.905 z m -17.978,9.147 12.383,9.822 c 1.538,-1.864 2.813,-3.953 3.771,-6.21 L 72.251,65.646 c -0.323,0.573 -0.706,1.106 -1.137,1.596 z M 40.627,51.408 55.829,56.222 c 0.301,-0.514 0.647,-0.995 1.036,-1.441 L 44.219,45.296 c -1.467,1.845 -2.682,3.898 -3.592,6.112 z" />
    <path
       inkscape:connector-curvature="0"
       style="opacity:0.5"
       id="path3998"
       d="M 64,1 C 30.864,1 4,27.864 4,61 4,81.921 14.715,100.332 30.949,111.07 15.207,100.354 4.859,82.222 4.859,61.656 4.859,28.733 31.386,2.041 64.106,2.041 c 32.72,0 59.246,26.691 59.246,59.615 0,17.349 -7.37,32.961 -19.124,43.855 C 116.369,94.533 124,78.658 124,61 124,27.864 97.136,1 64,1 Z" />
  </g>
  <g
     style="font-size:4.90302038px;font-family:'le mans';fill:#37c8ab;stroke:none;stroke-width:1.13600004"
     id="text2337"
     transform="matrix(0.58875914,0,0,0.57303873,10.73454,11.986982)">
    <path
       inkscape:connector-curvature="0"
       style="font-weight:bold;font-size:29.41817093px;font-family:'Bitstream Vera Sans';fill:#37c8ab"
       id="path4188"
       d="m 5.9812,99.5622 0,13.0859 1.9823,0 q 3.38998,0 5.17116,-1.68062 1.79554,-1.68063 1.79554,-4.88388 0,-3.18888 -1.78118,-4.85515 -1.78118,-1.66626 -5.18553,-1.66626 l -1.98228,0 z m -5.5303,-4.18 5.8319,0 q 4.88388,0 7.26836,0.703853 2.39884,0.689488 4.1082,2.35575 1.50826,1.4508 2.24084,3.346887 0.732582,1.8961 0.732582,4.29494 0,2.42757 -0.732582,4.33803 -0.732581,1.89609 -2.24084,3.34689 -1.72372,1.66627 -4.13693,2.37012 -2.41321,0.68949 -7.23963,0.68949 l -5.83192,0 0,-21.445997 z" />
    <path
       inkscape:connector-curvature="0"
       style="font-weight:bold;font-size:29.41817093px;font-family:'Bitstream Vera Sans';fill:#37c8ab"
       id="path4190"
       d="m 40.6998,108.741 0,1.4652 -12.023,0 q 0.186736,1.8099 1.30716,2.71486 1.12042,0.90495 3.13143,0.90495 1.62317,0 3.31816,-0.47402 1.70936,-0.48839 3.5049,-1.46517 l 0,3.96456 q -1.82427,0.68949 -3.64854,1.03424 -1.82427,0.3591 -3.64854,0.3591 -4.36676,0 -6.79433,-2.2121 -2.41321,-2.22648 -2.41321,-6.23413 0,-3.93583 2.37012,-6.19103 2.38448,-2.2552 6.55014,-2.2552 3.79219,0 6.06175,2.28393 2.28393,2.28393 2.28393,6.10484 z m -5.2861,-1.7094 q 0,-1.46517 -0.861861,-2.35575 -0.847496,-0.90496 -2.22647,-0.90496 -1.49389,0 -2.42757,0.8475 -0.933682,0.83313 -1.16351,2.41321 l 6.67942,0 z" />
    <path
       inkscape:connector-curvature="0"
       style="font-weight:bold;font-size:29.41817093px;font-family:'Bitstream Vera Sans';fill:#37c8ab"
       id="path4192"
       d="m 42.2512,95.3822 5.559,0 5.6883,15.8295 5.6739,-15.8295 5.559,0 -7.9435,21.446 -6.5932,0 -7.9435,-21.446 z" />
    <path
       inkscape:connector-curvature="0"
       style="font-weight:bold;font-size:29.41817093px;font-family:'Bitstream Vera Sans';fill:#37c8ab"
       id="path4194"
       d="m 81.7818,108.741 0,1.4652 -12.023,0 q 0.186736,1.8099 1.30715,2.71486 1.12042,0.90495 3.13143,0.90495 1.62317,0 3.31816,-0.47402 1.70936,-0.48839 3.5049,-1.46517 l 0,3.96456 q -1.82427,0.68949 -3.64854,1.03424 -1.82427,0.3591 -3.64854,0.3591 -4.36676,0 -6.79433,-2.2121 -2.41321,-2.22648 -2.41321,-6.23413 0,-3.93583 2.37012,-6.19103 2.38448,-2.2552 6.55014,-2.2552 3.79219,0 6.06175,2.28393 2.28393,2.28393 2.28393,6.10484 z m -5.2861,-1.7094 q 0,-1.46517 -0.861861,-2.35575 -0.847496,-0.90496 -2.22647,-0.90496 -1.49389,0 -2.42757,0.8475 -0.933682,0.83313 -1.16351,2.41321 l 6.67942,0 z" />
    <path
       inkscape:connector-curvature="0"
       style="font-weight:bold;font-size:29.41817093px;font-family:'Bitstream Vera Sans';fill:#37c8ab"
       id="path4196"
       d="m 91.4203,99.5622 0,13.0859 1.9823,0 q 3.38998,0 5.17116,-1.68062 1.79554,-1.68063 1.79554,-4.88388 0,-3.18888 -1.78118,-4.85515 -1.78118,-1.66626 -5.18553,-1.66626 l -1.98228,0 z m -5.5303,-4.18 5.8319,0 q 4.88388,0 7.26836,0.703853 2.39884,0.689488 4.1082,2.35575 1.50825,1.4508 2.24084,3.346887 0.73258,1.8961 0.73258,4.29494 0,2.42757 -0.73258,4.33803 -0.73259,1.89609 -2.24084,3.34689 -1.72372,1.66627 -4.13693,2.37012 -2.41321,0.68949 -7.23963,0.68949 l -5.83192,0 0,-21.445997 z" />
    <path
       inkscape:connector-curvature="0"
       style="font-weight:bold;font-size:29.41817093px;font-family:'Bitstream Vera Sans';fill:#37c8ab"
       id="path4198"
       d="m 126.1389,108.741 0,1.4652 -12.0229,0 q 0.18673,1.8099 1.30715,2.71486 1.12042,0.90495 3.13143,0.90495 1.62317,0 3.31816,-0.47402 1.70936,-0.48839 3.5049,-1.46517 l 0,3.96456 q -1.82427,0.68949 -3.64854,1.03424 -1.82427,0.3591 -3.64854,0.3591 -4.36676,0 -6.79434,-2.2121 -2.41321,-2.22648 -2.41321,-6.23413 0,-3.93583 2.37012,-6.19103 2.38448,-2.2552 6.55014,-2.2552 3.79219,0 6.06175,2.28393 2.28393,2.28393 2.28393,6.10484 z m -5.2861,-1.7094 q 0,-1.46517 -0.86186,-2.35575 -0.84749,-0.90496 -2.22647,-0.90496 -1.49389,0 -2.42757,0.8475 -0.93369,0.83313 -1.16351,2.41321 l 6.67941,0 z" />
  </g>
</svg>
