<?xml version="1.0" encoding="UTF-8" standalone="no"?>
<svg
   xmlns:dc="http://purl.org/dc/elements/1.1/"
   xmlns:cc="http://creativecommons.org/ns#"
   xmlns:rdf="http://www.w3.org/1999/02/22-rdf-syntax-ns#"
   xmlns:svg="http://www.w3.org/2000/svg"
   xmlns="http://www.w3.org/2000/svg"
   xmlns:sodipodi="http://sodipodi.sourceforge.net/DTD/sodipodi-0.dtd"
   xmlns:inkscape="http://www.inkscape.org/namespaces/inkscape"
   width="96"
   version="1.0"
   height="96"
   id="svg8109"
   inkscape:version="0.91 r13725"
   sodipodi:docname="dia.svg">
  <metadata
     id="metadata8126">
    <rdf:RDF>
      <cc:Work
         rdf:about="">
        <dc:format>image/svg+xml</dc:format>
        <dc:type
           rdf:resource="http://purl.org/dc/dcmitype/StillImage" />
        <dc:title></dc:title>
      </cc:Work>
    </rdf:RDF>
  </metadata>
  <defs
     id="defs8124" />
  <sodipodi:namedview
     pagecolor="#ffffff"
     bordercolor="#666666"
     borderopacity="1"
     objecttolerance="10"
     gridtolerance="10"
     guidetolerance="10"
     inkscape:pageopacity="0"
     inkscape:pageshadow="2"
     inkscape:window-width="640"
     inkscape:window-height="480"
     id="namedview8122"
     showgrid="false"
     inkscape:zoom="3.1666667"
     inkscape:cx="10.381789"
     inkscape:cy="53.767385"
     inkscape:current-layer="svg8109" />
  <rect
     style="opacity:1;fill:#87deaa;fill-opacity:1;fill-rule:evenodd;stroke:none;stroke-width:1;stroke-linecap:butt;stroke-linejoin:miter;stroke-miterlimit:4;stroke-dasharray:none;stroke-opacity:1"
     id="rect18088"
     width="84"
     height="84"
     x="6"
     y="6" />
  <g
     id="g18077"
     transform="matrix(1.6372947,0,0,1.5760817,8.7047962,10.174056)">
    <g
       id="layer1">
      <g
         id="g8112"
         style="color:#000000;line-height:normal;font-family:sans-serif;text-indent:0;text-align:start;text-decoration:none;text-decoration-line:none;text-decoration-style:solid;text-decoration-color:#000000;text-transform:none;white-space:normal;isolation:auto;mix-blend-mode:normal;color-interpolation:sRGB;solid-color:#000000;solid-opacity:1;stroke:none;color-rendering:auto;image-rendering:auto;shape-rendering:auto;text-rendering:auto">
        <path
           d="m 24.1426,10.9591 -0.4355,0.8672 -8.9023,17.6914 19.1211,0.0352 -9.7832,-18.5938 z M 24,19.588 27.2715,25.8009 20.9414,25.7755 24,19.588 Z"
           id="path4243"
           style="color-interpolation-filters:linearRGB;fill:#ce5c00"
           inkscape:connector-curvature="0" />
        <path
           d="M 24.1641,13.1447 16.4258,28.5217 32.2676,28.549 24.1641,13.1447 Z M 24,19.5881 27.2715,25.801 20.9414,25.7756 24,19.5881 Z"
           id="path4241"
           style="color-interpolation-filters:linearRGB;fill:#fdb166"
           inkscape:connector-curvature="0" />
        <path
           d="m 23.9707,17.3868 -0.4336,0.8789 -4.2012,8.502 9.5957,0.0391 -4.9609,-9.4199 z M 24,19.588 27.2715,25.8009 20.9414,25.7755 24,19.588 Z"
           id="path4239"
           style="color-interpolation-filters:linearRGB;fill:#ce5c00"
           inkscape:connector-curvature="0" />
      </g>
      <g
         id="g8117"
         style="fill:#b4b6b2;stroke:#373e40">
        <path
           d="m 1.9645,5.024 0,2 0,2 23.1326,0 c 4.82021,0.01322 9.14806,1.52688 12.1932,3.84375 3.05852,2.32707 4.79578,5.36323 4.79578,8.65625 0,3.29302 -1.73725,6.32918 -4.79578,8.65625 -3.05853,2.32707 -7.41011,3.84375 -12.2559,3.84375 l -20.2488,0 -2.85239,0 -0.031345,0 0,4 23.1326,0 c 5.67411,0 10.8604,-1.73432 14.7008,-4.65625 3.84038,-2.92193 6.36303,-7.13277 6.36303,-11.8438 0,-4.71098 -2.52265,-8.92182 -6.36303,-11.8437 C 35.909195,6.7692 30.746515,5.03686 25.097165,5.024 l -20.2488,0 -2.5076,0 -0.344795,0 z"
           id="path3812"
           inkscape:connector-curvature="0" />
        <path
           d="m 8.3733,10.8875 5,0 0,29.3024 3.534,0 -5.9715,6.5479 -6.0945,-6.5559 3.532,0.008 0,-29.3024 z"
           id="rect3719"
           inkscape:connector-curvature="0" />
      </g>
      <rect
         id="rect2694"
         style="fill:#85db30;stroke:#306003"
         height="10"
         y="1.0240257"
         x="6.3733187"
         width="8.9999981" />
    </g>
  </g>
</svg>
