<?xml version="1.0" encoding="UTF-8" standalone="no"?>
<!-- Created with Inkscape (http://www.inkscape.org/) -->

<svg
   xmlns:dc="http://purl.org/dc/elements/1.1/"
   xmlns:cc="http://creativecommons.org/ns#"
   xmlns:rdf="http://www.w3.org/1999/02/22-rdf-syntax-ns#"
   xmlns:svg="http://www.w3.org/2000/svg"
   xmlns="http://www.w3.org/2000/svg"
   xmlns:sodipodi="http://sodipodi.sourceforge.net/DTD/sodipodi-0.dtd"
   xmlns:inkscape="http://www.inkscape.org/namespaces/inkscape"
   width="96"
   height="96"
   id="svg2"
   version="1.1"
   inkscape:version="0.91 r13725"
   sodipodi:docname="dribble.svg"
   inkscape:export-filename="/home/alecive/Scrivania/firefoxTest1.png"
   inkscape:export-xdpi="100"
   inkscape:export-ydpi="100">
  <sodipodi:namedview
     id="base"
     pagecolor="#ffffff"
     bordercolor="#666666"
     borderopacity="1.0"
     inkscape:pageopacity="0.0"
     inkscape:pageshadow="2"
     inkscape:zoom="3.2401405"
     inkscape:cx="13.837806"
     inkscape:cy="55.305346"
     inkscape:document-units="px"
     inkscape:current-layer="svg2"
     showgrid="false"
     inkscape:window-width="1366"
     inkscape:window-height="744"
     inkscape:window-x="0"
     inkscape:window-y="24"
     inkscape:window-maximized="1"
     inkscape:object-paths="true"
     inkscape:snap-intersection-paths="true"
     inkscape:object-nodes="true"
     inkscape:snap-smooth-nodes="true"
     inkscape:snap-nodes="true" />
  <defs
     id="defs4" />
  <metadata
     id="metadata7">
    <rdf:RDF>
      <cc:Work
         rdf:about="">
        <dc:format>image/svg+xml</dc:format>
        <dc:type
           rdf:resource="http://purl.org/dc/dcmitype/StillImage" />
        <dc:title></dc:title>
      </cc:Work>
    </rdf:RDF>
  </metadata>
  <g
     id="layer1"
     inkscape:groupmode="layer"
     inkscape:label="Livello 1"
     transform="translate(0,-956.36218)" />
  <g
     id="g27124"
     transform="translate(0,-416)" />
  <g
     id="g13794"
     transform="matrix(0.17952786,0,0,0.17952786,2.2624996,1.903442)">
    <path
       style="fill:#e98ebf;fill-opacity:1"
       inkscape:connector-curvature="0"
       d="m 474.09078,256.82397 a 219.3253,219.3253 0 0 1 -438.650595,0 219.3253,219.3253 0 1 1 438.650595,0 z"
       id="path4166" />
    <path
       d="m 254.76547,22.818509 c -129.20534,0 -233.946971,104.741651 -233.946971,233.946971 0,129.20535 104.741631,233.94698 233.946971,233.94698 129.20533,0 233.94698,-104.74165 233.94698,-233.94698 0,-129.20532 -104.74165,-233.946971 -233.94698,-233.946971 z m 0,36.554215 c 49.92444,0 95.46294,18.556814 130.22439,49.119726 -25.58064,31.20268 -61.17648,53.87142 -103.03719,70.13841 -22.61938,-42.58866 -47.56574,-80.928716 -73.10843,-113.775012 14.74429,-3.515427 30.10041,-5.483124 45.92123,-5.483124 z m -84.07469,18.734037 c 24.15838,32.666969 49.29021,70.110879 72.87996,113.089579 -54.9461,15.39664 -117.70486,22.48545 -181.857218,24.67411 C 74.595594,154.76934 115.60029,104.06191 170.69078,78.106745 Z m 236.91699,53.460529 c 27.41413,33.43798 43.96209,76.21154 44.55046,122.6851 -47.98056,-8.86308 -93.93966,-11.88392 -137.30677,-5.94007 -5.61486,-13.37459 -11.24955,-26.33862 -17.36324,-39.06732 41.44313,-17.47898 79.18631,-42.38666 110.11955,-77.67771 z m -147.58763,91.15708 c 5.39876,10.8794 10.66001,22.03977 15.76402,33.5842 -63.16848,17.71489 -119.75747,58.23276 -168.1494,132.05209 -31.273818,-34.9264 -50.262046,-81.02367 -50.262046,-131.59518 0,-2.01383 0.168863,-3.94077 0.228098,-5.94005 64.889358,-1.89212 136.468588,-7.58442 202.418958,-28.10104 z m 98.69638,53.91747 c 28.46169,-1.12959 58.87363,2.34979 90.92861,11.65166 -8.73652,54.55967 -39.85688,101.43327 -83.61777,131.36672 -8.95308,-49.01372 -22.19768,-95.90453 -38.61039,-139.81989 10.15521,-1.61043 20.58105,-2.77315 31.29955,-3.19849 z m -69.45301,12.10859 c 17.64458,44.98573 32.58312,94.60552 42.9512,149.64383 -23.79036,10.16432 -49.94276,15.76398 -77.44924,15.76398 -45.93394,0 -88.23304,-15.72488 -121.77122,-42.03735 27.35915,-46.4886 81.9935,-99.86127 156.26926,-123.37047 z"
       id="path4151"
       inkscape:connector-curvature="0"
       style="fill:#c6376d" />
  </g>
  <g
     id="layer4"
     style="display:inline"
     transform="matrix(6.0482495,0,0,5.136321,1281.9571,-306.68323)" />
</svg>
