<?xml version="1.0" encoding="UTF-8" standalone="no"?>
<svg
   xmlns:dc="http://purl.org/dc/elements/1.1/"
   xmlns:cc="http://creativecommons.org/ns#"
   xmlns:rdf="http://www.w3.org/1999/02/22-rdf-syntax-ns#"
   xmlns:svg="http://www.w3.org/2000/svg"
   xmlns="http://www.w3.org/2000/svg"
   xmlns:sodipodi="http://sodipodi.sourceforge.net/DTD/sodipodi-0.dtd"
   xmlns:inkscape="http://www.inkscape.org/namespaces/inkscape"
   width="96"
   version="1.0"
   height="96"
   id="svg9273"
   inkscape:version="0.91 r13725"
   sodipodi:docname="eclipse.svg">
  <metadata
     id="metadata9285">
    <rdf:RDF>
      <cc:Work
         rdf:about="">
        <dc:format>image/svg+xml</dc:format>
        <dc:type
           rdf:resource="http://purl.org/dc/dcmitype/StillImage" />
        <dc:title></dc:title>
      </cc:Work>
    </rdf:RDF>
  </metadata>
  <sodipodi:namedview
     pagecolor="#ffffff"
     bordercolor="#666666"
     borderopacity="1"
     objecttolerance="10"
     gridtolerance="10"
     guidetolerance="10"
     inkscape:pageopacity="0"
     inkscape:pageshadow="2"
     inkscape:window-width="640"
     inkscape:window-height="480"
     id="namedview9283"
     showgrid="false"
     inkscape:zoom="3.1666667"
     inkscape:cx="2.2500225"
     inkscape:cy="40.640886"
     inkscape:current-layer="svg9273" />
  <defs
     id="defs3" />
  <g
     style="fill-rule:evenodd"
     id="g9276"
     transform="matrix(1.9090909,0,0,1.9090909,2.1818184,2.1819024)">
    <g
       style="stroke-width:1.25"
       id="g9278">
      <path
         style="fill:#664088"
         id="path25179"
         d="M 22.7345,2.8836 C 11.2851,2.8836 2,12.50782 2,24 c 0,11.4922 9.28515,21.1164 20.7345,21.1164 1.25752,0 2.48391,-0.115449 3.6797,-0.330762 -0.834157,0.114515 -1.68933,0.175718 -2.55305,0.175718 -10.807,0 -19.5665,-9.55482 -19.5665,-20.9614 0,-11.4065 8.75955,-20.9614 19.5665,-20.9614 0.863726,0 1.7189,0.061203 2.55305,0.175716 -1.19579,-0.21531 -2.42218,-0.33076 -3.6797,-0.33076 z m 20.1143,16.0827 c 0.06865,0.289143 0.129086,0.574414 0.186053,0.868245 C 42.975663,19.542048 42.920076,19.2542 42.8488,18.9663 Z m 0.1861,0.8682 c 0.260657,1.34449 0.403112,2.73969 0.403112,4.16551 0,1.42582 -0.142455,2.82102 -0.403112,4.16551 0.272216,-1.34534 0.423784,-2.73952 0.423784,-4.16551 0,-1.42609 -0.151531,-2.82008 -0.423784,-4.16551 z m 0,8.331 c -0.0443,0.228493 -0.09332,0.456515 -0.144709,0.682192 0.05397,-0.226962 0.09822,-0.452413 0.144709,-0.682192 z"
         inkscape:connector-curvature="0" />
      <path
         style="fill:#a481c4"
         id="path10663"
         d="m 5.2688,24.0015 c 0,11.4065 8.76078,20.6534 19.5678,20.6534 10.807,0 19.5678,-9.24683 19.5678,-20.6534 0,-11.4065 -8.76078,-20.6534 -19.5678,-20.6534 -10.807,0 -19.5678,9.24683 -19.5678,20.6534 z"
         inkscape:connector-curvature="0" />
    </g>
    <path
       style="color:#000000;line-height:normal;font-family:Sans;text-indent:0;text-align:start;text-transform:none;fill:#ffffff;stroke:none;stroke-width:1.21399999"
       id="path4343"
       d="m 4.4985,17.8504 0,1.2235 40.5356,0 0,-1.2235 -40.5356,0 z m -0.4508,3.0587 0,1.2235 41.5981,0 0,-1.2235 -41.5981,0 z m -0.1932,3.0265 0,1.2235 42.1455,0 0,-1.2235 -42.1455,0 z m 0.2898,2.9621 0,1.2235 41.4049,0.0966 0,-1.2235 -41.4049,-0.0966 z"
       inkscape:connector-curvature="0" />
  </g>
</svg>
