<?xml version="1.0" encoding="UTF-8" standalone="no"?>
<!-- Generator: Adobe Illustrator 19.2.1, SVG Export Plug-In . SVG Version: 6.00 Build 0)  -->

<svg
   xmlns:dc="http://purl.org/dc/elements/1.1/"
   xmlns:cc="http://creativecommons.org/ns#"
   xmlns:rdf="http://www.w3.org/1999/02/22-rdf-syntax-ns#"
   xmlns:svg="http://www.w3.org/2000/svg"
   xmlns="http://www.w3.org/2000/svg"
   xmlns:sodipodi="http://sodipodi.sourceforge.net/DTD/sodipodi-0.dtd"
   xmlns:inkscape="http://www.inkscape.org/namespaces/inkscape"
   version="1.1"
   id="Layer_1"
   x="0px"
   y="0px"
   viewBox="0 0 96 96"
   xml:space="preserve"
   inkscape:version="0.91 r13725"
   sodipodi:docname="firewatch.svg"
   width="96"
   height="96"><metadata
     id="metadata15"><rdf:RDF><cc:Work
         rdf:about=""><dc:format>image/svg+xml</dc:format><dc:type
           rdf:resource="http://purl.org/dc/dcmitype/StillImage" /><dc:title></dc:title></cc:Work></rdf:RDF></metadata><defs
     id="defs13" /><sodipodi:namedview
     pagecolor="#ffffff"
     bordercolor="#666666"
     borderopacity="1"
     objecttolerance="10"
     gridtolerance="10"
     guidetolerance="10"
     inkscape:pageopacity="0"
     inkscape:pageshadow="2"
     inkscape:window-width="640"
     inkscape:window-height="480"
     id="namedview11"
     showgrid="false"
     inkscape:zoom="3.3125"
     inkscape:cx="30.101075"
     inkscape:cy="45.911666"
     inkscape:current-layer="Layer_1" /><style
     type="text/css"
     id="style3">
	.st0{fill:#FF6E41;}
</style><rect
     style="opacity:1;fill:#784421;fill-opacity:1;fill-rule:nonzero;stroke:none;stroke-width:6;stroke-linecap:square;stroke-linejoin:miter;stroke-miterlimit:4;stroke-dasharray:none;stroke-opacity:1"
     id="rect4148"
     width="84"
     height="84"
     x="6"
     y="6" /><g
     id="g4143"
     transform="matrix(3.0833333,0,0,3.0833333,11,-211.61666)"><g
       transform="translate(0,72)"
       id="g5"><path
         style="fill:#ff6e41"
         inkscape:connector-curvature="0"
         id="path7"
         d="M 12,24.2 11.4,23.9 C 7.7,21.9 4.7,18.2 2.6,13.2 1.1,9.5 0.6,6.4 0.6,6.3 L 0.4,5 1.7,4.9 C 6.1,4.6 11.2,0.8 11.3,0.8 L 12,0.2 12.7,0.7 c 0.1,0 5.2,3.9 9.6,4.1 L 23.6,5 23.4,6.3 c 0,0.1 -0.5,3.2 -2,6.9 -2.1,5 -5.1,8.7 -8.8,10.7 L 12,24.2 Z M 3.2,7.1 C 3.9,10.1 6.1,17.7 12,21.4 17.9,17.8 20.1,10.1 20.8,7.1 17.1,6.4 13.5,4.2 12,3.2 10.5,4.2 6.9,6.5 3.2,7.1 Z"
         class="st0" /></g><path
       style="fill:#ff6e41"
       inkscape:connector-curvature="0"
       id="path9"
       d="m 14.5,83.2 c 0.4,0.1 1.6,0.2 1.6,0.2 -0.8,-1 -4.1,-6.6 -4.1,-6.6 0,0 -3.3,5.6 -4.1,6.6 0,0 1.2,0 1.6,-0.2 0,0 -0.7,1.8 -2.2,4 0,0 2,0 3.3,-0.3 l 0,3.1 1.4,0 1.3,0 0,-3.1 c 1.3,0.3 3.3,0.3 3.3,0.3 -1.5,-2.2 -2.1,-4 -2.1,-4 z"
       class="st0" /></g></svg>