<?xml version="1.0" encoding="UTF-8" standalone="no"?>
<svg
   xmlns:dc="http://purl.org/dc/elements/1.1/"
   xmlns:cc="http://creativecommons.org/ns#"
   xmlns:rdf="http://www.w3.org/1999/02/22-rdf-syntax-ns#"
   xmlns:svg="http://www.w3.org/2000/svg"
   xmlns="http://www.w3.org/2000/svg"
   xmlns:sodipodi="http://sodipodi.sourceforge.net/DTD/sodipodi-0.dtd"
   xmlns:inkscape="http://www.inkscape.org/namespaces/inkscape"
   width="96"
   version="1.0"
   height="96"
   id="svg2"
   inkscape:version="0.91 r13725"
   sodipodi:docname="flightgear.svg">
  <metadata
     id="metadata10">
    <rdf:RDF>
      <cc:Work
         rdf:about="">
        <dc:format>image/svg+xml</dc:format>
        <dc:type
           rdf:resource="http://purl.org/dc/dcmitype/StillImage" />
        <dc:title></dc:title>
      </cc:Work>
    </rdf:RDF>
  </metadata>
  <sodipodi:namedview
     pagecolor="#ffffff"
     bordercolor="#666666"
     borderopacity="1"
     objecttolerance="10"
     gridtolerance="10"
     guidetolerance="10"
     inkscape:pageopacity="0"
     inkscape:pageshadow="2"
     inkscape:window-width="640"
     inkscape:window-height="480"
     id="namedview8"
     showgrid="false"
     inkscape:zoom="3.1666667"
     inkscape:cx="49.149544"
     inkscape:cy="38.218614"
     inkscape:current-layer="svg2" />
  <defs
     id="defs4" />
  <rect
     style="opacity:1;fill:#00ccff;fill-opacity:1;fill-rule:evenodd;stroke:none;stroke-width:1;stroke-linecap:butt;stroke-linejoin:miter;stroke-miterlimit:4;stroke-dasharray:none;stroke-opacity:1"
     id="rect4138"
     width="84"
     height="84"
     x="6"
     y="6" />
  <g
     style="fill:#ffffff"
     id="layer1-3"
     transform="matrix(0,-1.2020754,1.2020754,0,-711.11285,695.65788)">
    <path
       style="fill-rule:evenodd;stroke:none"
       id="path3241"
       d="m 548.165,602.514 c -3.76898,-0.045 -5.72072,2.52773 -6.33136,5.80558 -0.89729,6.52257 -0.16949,14.7791 -0.83089,21.1628 -7.94231,0.30967 -12.1348,0.50341 -18.7158,0.84152 -0.0378,-8.13573 -0.59466,-9.86311 -3.03735,-9.99458 -2.40613,-0.12951 -2.81475,1.89124 -2.88265,3.89258 -0.0679,2.00133 -0.0437,4.20977 -0.0883,6.38459 10e-6,-10e-6 -1.1939,0.0105 -1.42963,0.39247 -0.21913,0.35507 -0.25627,1.1118 -0.0733,1.51009 0.16893,0.36778 1.53963,0.49704 1.53962,0.49705 0,0 0.0161,4.10007 -0.0421,6.12328 -0.0675,2.20939 0.0801,4.30036 2.98833,4.35791 2.9073,0.0575 2.99822,-4.51086 3.02542,-10.1103 8.76644,0.54888 9.25372,0.63724 18.7158,1.09667 0.61641,6.35717 -0.0664,13.4511 0.83089,18.9666 0.71772,4.41181 2.56367,7.17136 6.31852,7.04594 3.75485,-0.12542 5.08983,-2.25915 5.09619,-7.07923 0.011,-8.5204 0.77108,-18.1254 0.77108,-18.1254 3.71403,-0.0826 8.87342,0.84901 8.8879,-2.82886 0.0145,-3.67789 -5.14706,-3.00969 -8.89624,-3.12903 -9.1e-4,-4.56255 -0.82378,-14.5317 -0.78702,-21.0999 0.0179,-3.07296 -1.25318,-5.6643 -5.05907,-5.70974 z"
       inkscape:connector-curvature="0" />
  </g>
</svg>
