<?xml version="1.0" encoding="UTF-8" standalone="no"?>
<!-- Created with Inkscape (http://www.inkscape.org/) -->

<svg
   xmlns:dc="http://purl.org/dc/elements/1.1/"
   xmlns:cc="http://creativecommons.org/ns#"
   xmlns:rdf="http://www.w3.org/1999/02/22-rdf-syntax-ns#"
   xmlns:svg="http://www.w3.org/2000/svg"
   xmlns="http://www.w3.org/2000/svg"
   xmlns:sodipodi="http://sodipodi.sourceforge.net/DTD/sodipodi-0.dtd"
   xmlns:inkscape="http://www.inkscape.org/namespaces/inkscape"
   id="svg3057"
   version="1.1"
   inkscape:version="0.91 r13725"
   width="96"
   height="96"
   sodipodi:docname="drakconf.svg">
  <metadata
     id="metadata3063">
    <rdf:RDF>
      <cc:Work
         rdf:about="">
        <dc:format>image/svg+xml</dc:format>
        <dc:type
           rdf:resource="http://purl.org/dc/dcmitype/StillImage" />
        <dc:title></dc:title>
      </cc:Work>
    </rdf:RDF>
  </metadata>
  <defs
     id="defs3061" />
  <sodipodi:namedview
     pagecolor="#ffffff"
     bordercolor="#666666"
     borderopacity="1"
     objecttolerance="10"
     gridtolerance="10"
     guidetolerance="10"
     inkscape:pageopacity="0"
     inkscape:pageshadow="2"
     inkscape:window-width="1215"
     inkscape:window-height="674"
     id="namedview3059"
     showgrid="false"
     inkscape:zoom="4"
     inkscape:cx="78.968032"
     inkscape:cy="40.324311"
     inkscape:window-x="79"
     inkscape:window-y="52"
     inkscape:window-maximized="0"
     inkscape:current-layer="svg3057" />
  <g
     id="g13790">
    <rect
       y="6"
       x="6"
       height="84"
       width="84"
       id="rect3752"
       style="fill:#4d4d4d;fill-opacity:1;fill-rule:evenodd;stroke:none" />
    <path
       inkscape:connector-curvature="0"
       id="path3014"
       d="m 44.882413,40.994139 -0.177734,0.916015 c -0.09817,0.50476 -0.269887,1.662736 -0.380859,2.572266 -0.110972,0.90951 -0.266757,1.778661 -0.347657,1.93164 -0.21085,0.39888 -5.673347,1.850988 -6.201171,1.648438 -0.211467,-0.08114 -1.005367,-1.246848 -2.482422,-3.648438 -0.459798,-0.74761 -0.696632,-0.976562 -1.017578,-0.976562 -0.45569,0 -4.622599,1.931774 -5.101563,2.365234 -0.333853,0.30213 -0.236504,0.883454 0.619141,3.714844 0.243793,0.80671 0.443359,1.649304 0.443359,1.871094 0,0.39542 -0.506374,0.822204 -3.355469,2.839844 l -0.830078,0.58789 -1.083984,-0.767578 c -3.562743,-2.52123 -3.540093,-2.509157 -3.992188,-2.148437 -0.514345,0.41039 -2.755382,2.829004 -3.378906,3.646484 -0.58628,0.76866 -0.542423,0.874639 1.261719,3.042969 0.753137,0.90518 1.474387,1.780282 1.603516,1.945312 0.203714,0.26036 0.148416,0.456989 -0.419922,1.480469 -0.75879,1.36644 -1.91362,3.112512 -2.158204,3.263672 -0.09269,0.05729 -1.296656,-0.107334 -2.675781,-0.365235 -1.379123,-0.25791 -2.626442,-0.422887 -2.771484,-0.367187 -0.480286,0.1843 -2.206103,5.200717 -1.986328,5.773437 0.09082,0.236681 3.472961,1.983721 4.646484,2.400391 0.226951,0.08058 0.24722,0.392496 0.142578,2.160156 -0.06726,1.13625 -0.212911,2.816895 -0.324219,3.734375 l -0.203124,1.667969 -2.75,0.671875 -2.7480463,0.671875 0.07617,1.054688 c 0.122664,1.69374 0.409331,3.962545 0.587891,4.640625 l 0.1660163,0.626953 1.332031,0.113281 c 0.73258,0.06189 1.903306,0.111328 2.601562,0.111328 1.067169,0 1.340413,0.06336 1.71875,0.392578 0.202435,0.17615 0.502473,0.760868 0.798829,1.433594 l 6.1875,0 c -1.909595,-4.912422 -2.463683,-11.585635 -1.214844,-16.609375 2.232177,-8.97946 8.983043,-16.41306 17.621094,-19.40625 3.288268,-1.13943 4.871545,-1.388578 8.902343,-1.392578 3.851226,-0.004 5.585385,0.245559 8.529297,1.224609 2.110242,0.7018 6.038676,2.742778 7.746094,4.023438 5.553786,4.16563 9.359042,10.310636 10.642578,17.191406 0.483727,2.59317 0.438457,7.521216 -0.0918,10.009766 -0.381321,1.789544 -0.874586,3.39618 -1.509765,4.958984 l 6.201171,0 c 0.110108,-0.293082 0.221806,-0.595711 0.328126,-0.84375 0.388649,-0.90667 0.403679,-0.911504 3.875,-1.083984 l 2.386718,-0.119141 0.173828,-0.890625 c 0.29309,-1.49962 0.569113,-4.158652 0.507813,-4.888672 -0.06607,-0.78673 0.04243,-0.73855 -3.427735,-1.5 -1.440449,-0.31607 -1.831644,-0.468139 -1.953124,-0.755859 -0.26962,-0.63854 -0.856041,-6.564745 -0.681641,-6.890625 0.0885,-0.16536 1.221968,-0.822615 2.517578,-1.458985 2.01321,-0.98882 2.355469,-1.214213 2.355469,-1.558593 0,-0.51968 -1.156824,-4.1807 -1.589844,-5.03125 -0.18278,-0.35902 -0.429145,-0.650851 -0.546875,-0.650391 -0.11773,3.8e-4 -1.348118,0.235054 -2.736328,0.521484 -1.38821,0.28643 -2.546196,0.521035 -2.572266,0.521485 -0.105649,0.0016 -1.942601,-2.935195 -2.378906,-3.802735 -0.411571,-0.81837 -0.43829,-0.96593 -0.21875,-1.21875 1.527797,-1.75942 3.253906,-3.951659 3.253906,-4.130859 0,-0.53496 -3.636666,-4.599609 -4.115234,-4.599609 -0.14431,0 -1.058951,0.540248 -2.033203,1.199218 -2.880956,1.94864 -2.586013,1.891849 -4.222656,0.798829 -0.767247,-0.5124 -1.732244,-1.229834 -2.144532,-1.595704 l -0.75,-0.666015 0.714847,-2.267578 c 0.917023,-2.90873 0.915438,-3.079478 -0.02539,-3.679688 -0.853478,-0.54448 -4.356187,-2.144531 -4.695312,-2.144531 -0.125524,0 -0.494837,0.451453 -0.820313,1.001953 -1.796888,3.03916 -2.292888,3.699219 -2.785156,3.699219 -0.262866,0 -1.606917,-0.237874 -2.986328,-0.527344 -1.869107,-0.39224 -2.582823,-0.614963 -2.802734,-0.876953 -0.314797,-0.37504 -0.433674,-0.976612 -0.734375,-3.732422 l -0.189453,-1.740234 -3.164063,-0.04687 -3.164063,-0.04687 z"
       style="fill:#e6e6e6;fill-opacity:1;fill-rule:nonzero;stroke:none" />
  </g>
</svg>
