<?xml version="1.0" encoding="UTF-8" standalone="no"?>
<!-- Created with Inkscape (http://www.inkscape.org/) -->

<svg
   xmlns:dc="http://purl.org/dc/elements/1.1/"
   xmlns:cc="http://creativecommons.org/ns#"
   xmlns:rdf="http://www.w3.org/1999/02/22-rdf-syntax-ns#"
   xmlns:svg="http://www.w3.org/2000/svg"
   xmlns="http://www.w3.org/2000/svg"
   xmlns:sodipodi="http://sodipodi.sourceforge.net/DTD/sodipodi-0.dtd"
   xmlns:inkscape="http://www.inkscape.org/namespaces/inkscape"
   width="96"
   height="96"
   viewBox="0 0 96.000001 96.000002"
   id="svg4436"
   version="1.1"
   inkscape:version="0.91 r13725"
   sodipodi:docname="gmail-offline.svg">
  <defs
     id="defs4438" />
  <sodipodi:namedview
     id="base"
     pagecolor="#ffffff"
     bordercolor="#666666"
     borderopacity="1.0"
     inkscape:pageopacity="0.0"
     inkscape:pageshadow="2"
     inkscape:zoom="2.8284271"
     inkscape:cx="37.439123"
     inkscape:cy="52.21986"
     inkscape:document-units="px"
     inkscape:current-layer="layer1"
     showgrid="false"
     units="px" />
  <metadata
     id="metadata4441">
    <rdf:RDF>
      <cc:Work
         rdf:about="">
        <dc:format>image/svg+xml</dc:format>
        <dc:type
           rdf:resource="http://purl.org/dc/dcmitype/StillImage" />
        <dc:title></dc:title>
      </cc:Work>
    </rdf:RDF>
  </metadata>
  <g
     inkscape:label="Layer 1"
     inkscape:groupmode="layer"
     id="layer1"
     transform="translate(0,-956.36216)">
    <path
       style="fill:#f9f9f9;fill-opacity:1;fill-rule:nonzero;stroke:none"
       inkscape:connector-curvature="0"
       id="path63"
       d="m 9.179077,962.39055 77.635388,0 c 1.754307,0 3.156457,2.05771 3.156457,4.59137 l 0,74.79628 c 0,2.5337 -1.415074,4.5588 -3.156457,4.5588 l -77.635388,0 c -1.7672308,0 -3.1790769,-2.0438 -3.1790769,-4.5588 l 0,-74.79628 c 0,-2.53366 1.4150769,-4.59137 3.1790769,-4.59137 m 0,0" />
    <path
       style="fill:#cccccc;fill-opacity:1;fill-rule:nonzero;stroke:none"
       inkscape:connector-curvature="0"
       id="path65"
       d="m 89.984341,971.69998 -41.999997,40.38912 35.538463,34.2672 3.230767,0 c 1.767231,0 3.230767,-2.1137 3.230767,-4.666 m 0,-69.99032" />
    <path
       style="fill:#3771c8;fill-opacity:1;fill-rule:nonzero;stroke:none"
       inkscape:connector-curvature="0"
       id="path71"
       d="m 9.2295939,962.39055 c -1.7536669,0 -3.2166708,2.11353 -3.2166708,4.64698 l 0,4.66564 41.9846589,40.38583 0,-15.45727 -35.525481,-34.26452 -3.2295887,0 m -0.012918,0.0187" />
    <rect
       style="opacity:1;fill:#3771c8;fill-opacity:1;fill-rule:evenodd;stroke:none;stroke-width:1;stroke-linecap:butt;stroke-linejoin:miter;stroke-miterlimit:4;stroke-dasharray:none;stroke-opacity:1"
       id="rect5027"
       width="6.4498982"
       height="83.970375"
       x="6.0104074"
       y="962.36444" />
    <rect
       style="opacity:1;fill:#214478;fill-opacity:1;fill-rule:evenodd;stroke:none;stroke-width:1;stroke-linecap:butt;stroke-linejoin:miter;stroke-miterlimit:4;stroke-dasharray:none;stroke-opacity:1"
       id="rect5027-7"
       width="6.4498982"
       height="83.99382"
       x="83.528954"
       y="962.36835" />
    <path
       style="fill:#3771c8;fill-opacity:1;fill-rule:nonzero;stroke:none"
       inkscape:connector-curvature="0"
       id="path73"
       d="m 86.767957,962.39055 c 1.767925,0 3.232043,2.1137 3.232043,4.64735 l 0,4.66602 -42.016605,40.38908 0,-15.45852 35.539589,-34.26727 3.232043,0 m 0.0129,0.0187" />
    <path
       sodipodi:type="star"
       style="opacity:1;fill:#3771c8;fill-opacity:1;fill-rule:evenodd;stroke:none;stroke-width:1;stroke-linecap:butt;stroke-linejoin:miter;stroke-miterlimit:4;stroke-dasharray:none;stroke-opacity:1"
       id="path5050"
       sodipodi:sides="3"
       sodipodi:cx="-86.849365"
       sodipodi:cy="-964.17163"
       sodipodi:r1="3.615871"
       sodipodi:r2="1.8079355"
       sodipodi:arg1="0.52200053"
       sodipodi:arg2="1.5691981"
       inkscape:flatsided="false"
       inkscape:rounded="0"
       inkscape:randomized="0"
       d="m -83.715044,-962.3687 -3.131432,0.005 -3.131432,0.005 1.561382,-2.71441 1.561382,-2.7144 1.57005,2.7094 z"
       inkscape:transform-center-x="0.0028508208"
       inkscape:transform-center-y="0.90143996"
       transform="matrix(-1,0,0,-1.0001395,-1e-7,-0.12918741)" />
    <path
       sodipodi:type="star"
       style="opacity:1;fill:#3771c8;fill-opacity:1;fill-rule:evenodd;stroke:none;stroke-width:1;stroke-linecap:butt;stroke-linejoin:miter;stroke-miterlimit:4;stroke-dasharray:none;stroke-opacity:1"
       id="path5050-5"
       sodipodi:sides="3"
       sodipodi:cx="87.59568"
       sodipodi:cy="965.23792"
       sodipodi:r1="3.615871"
       sodipodi:r2="1.8079355"
       sodipodi:arg1="0.52200053"
       sodipodi:arg2="1.5691981"
       inkscape:flatsided="false"
       inkscape:rounded="0"
       inkscape:randomized="0"
       d="m 90.730002,967.04084 -3.131432,0.005 -3.131432,0.005 1.561381,-2.7144 1.561382,-2.7144 1.570051,2.7094 z"
       inkscape:transform-center-x="0.90143173"
       inkscape:transform-center-y="-0.0028480082"
       transform="matrix(0,-1.0001395,1,0,-877.0651,1053.1048)" />
  </g>
</svg>
