<?xml version="1.0" encoding="UTF-8" standalone="no"?>
<!-- Created with Inkscape (http://www.inkscape.org/) -->

<svg
   xmlns:dc="http://purl.org/dc/elements/1.1/"
   xmlns:cc="http://creativecommons.org/ns#"
   xmlns:rdf="http://www.w3.org/1999/02/22-rdf-syntax-ns#"
   xmlns:svg="http://www.w3.org/2000/svg"
   xmlns="http://www.w3.org/2000/svg"
   xmlns:sodipodi="http://sodipodi.sourceforge.net/DTD/sodipodi-0.dtd"
   xmlns:inkscape="http://www.inkscape.org/namespaces/inkscape"
   width="96"
   height="96"
   viewBox="0 0 96.000001 96.000002"
   id="svg4436"
   version="1.1"
   inkscape:version="0.91 r13725"
   sodipodi:docname="drawing.svg">
  <defs
     id="defs4438" />
  <sodipodi:namedview
     id="base"
     pagecolor="#ffffff"
     bordercolor="#666666"
     borderopacity="1.0"
     inkscape:pageopacity="0.0"
     inkscape:pageshadow="2"
     inkscape:zoom="4"
     inkscape:cx="22.922701"
     inkscape:cy="68.062266"
     inkscape:document-units="px"
     inkscape:current-layer="layer1"
     showgrid="false"
     units="px" />
  <metadata
     id="metadata4441">
    <rdf:RDF>
      <cc:Work
         rdf:about="">
        <dc:format>image/svg+xml</dc:format>
        <dc:type
           rdf:resource="http://purl.org/dc/dcmitype/StillImage" />
        <dc:title></dc:title>
      </cc:Work>
    </rdf:RDF>
  </metadata>
  <g
     inkscape:label="Layer 1"
     inkscape:groupmode="layer"
     id="layer1"
     transform="translate(0,-956.36216)">
    <g
       id="g5067"
       transform="matrix(1,0,0,1.0001395,-1e-7,-0.12918741)">
      <path
         d="m 9.1790771,962.38548 77.6353879,0 c 1.754307,0 3.156457,2.05743 3.156457,4.59073 l 0,74.78589 c 0,2.5333 -1.415074,4.5581 -3.156457,4.5581 l -77.6353879,0 c -1.7672308,0 -3.1790769,-2.0435 -3.1790769,-4.5581 l 0,-74.78589 c 0,-2.5333 1.4150769,-4.59073 3.1790769,-4.59073 m 0,0"
         id="path63"
         inkscape:connector-curvature="0"
         style="fill:#f9f9f9;fill-opacity:1;fill-rule:nonzero;stroke:none" />
      <path
         d="m 89.984341,971.69362 -41.999997,40.38348 35.538463,34.2624 3.230767,0 c 1.767231,0 3.230767,-2.1134 3.230767,-4.6653 m 0,-69.98058"
         id="path65"
         inkscape:connector-curvature="0"
         style="fill:#cccccc;fill-opacity:1;fill-rule:nonzero;stroke:none" />
      <path
         d="m 9.229594,962.38548 c -1.7536669,0 -3.2166708,2.11324 -3.2166708,4.64634 l 0,4.66499 41.9846588,40.38019 0,-15.45511 -35.525481,-34.25974 -3.2295886,0 m -0.012918,0.0187"
         id="path71"
         inkscape:connector-curvature="0"
         style="fill:#ff493c;fill-opacity:1;fill-rule:nonzero;stroke:none" />
      <rect
         y="962.35938"
         x="6.0104074"
         height="83.958664"
         width="6.4498982"
         id="rect5027"
         style="opacity:1;fill:#ff493c;fill-opacity:1;fill-rule:evenodd;stroke:none;stroke-width:1;stroke-linecap:butt;stroke-linejoin:miter;stroke-miterlimit:4;stroke-dasharray:none;stroke-opacity:1" />
      <rect
         y="962.36328"
         x="83.528954"
         height="83.982101"
         width="6.4498982"
         id="rect5027-7"
         style="opacity:1;fill:#c02c1f;fill-opacity:1;fill-rule:evenodd;stroke:none;stroke-width:1;stroke-linecap:butt;stroke-linejoin:miter;stroke-miterlimit:4;stroke-dasharray:none;stroke-opacity:1" />
      <path
         d="m 86.767957,962.38548 c 1.767925,0 3.232043,2.11341 3.232043,4.64671 l 0,4.66537 -42.016605,40.38344 0,-15.45636 35.539589,-34.26249 3.232043,0 m 0.0129,0.0187"
         id="path73"
         inkscape:connector-curvature="0"
         style="fill:#ff493c;fill-opacity:1;fill-rule:nonzero;stroke:none" />
      <path
         transform="scale(-1,-1)"
         inkscape:transform-center-y="0.90143996"
         inkscape:transform-center-x="0.0028508208"
         d="m -83.715044,-962.3687 -3.131432,0.005 -3.131432,0.005 1.561382,-2.71441 1.561382,-2.7144 1.57005,2.7094 z"
         inkscape:randomized="0"
         inkscape:rounded="0"
         inkscape:flatsided="false"
         sodipodi:arg2="1.5691981"
         sodipodi:arg1="0.52200053"
         sodipodi:r2="1.8079355"
         sodipodi:r1="3.615871"
         sodipodi:cy="-964.17163"
         sodipodi:cx="-86.849365"
         sodipodi:sides="3"
         id="path5050"
         style="opacity:1;fill:#ff493c;fill-opacity:1;fill-rule:evenodd;stroke:none;stroke-width:1;stroke-linecap:butt;stroke-linejoin:miter;stroke-miterlimit:4;stroke-dasharray:none;stroke-opacity:1"
         sodipodi:type="star" />
      <path
         transform="matrix(0,-1,1,0,-877.0651,1053.0871)"
         inkscape:transform-center-y="-0.0028480082"
         inkscape:transform-center-x="0.90143173"
         d="m 90.730002,967.04084 -3.131432,0.005 -3.131432,0.005 1.561381,-2.7144 1.561382,-2.7144 1.570051,2.7094 z"
         inkscape:randomized="0"
         inkscape:rounded="0"
         inkscape:flatsided="false"
         sodipodi:arg2="1.5691981"
         sodipodi:arg1="0.52200053"
         sodipodi:r2="1.8079355"
         sodipodi:r1="3.615871"
         sodipodi:cy="965.23792"
         sodipodi:cx="87.59568"
         sodipodi:sides="3"
         id="path5050-5"
         style="opacity:1;fill:#ff493c;fill-opacity:1;fill-rule:evenodd;stroke:none;stroke-width:1;stroke-linecap:butt;stroke-linejoin:miter;stroke-miterlimit:4;stroke-dasharray:none;stroke-opacity:1"
         sodipodi:type="star" />
    </g>
  </g>
</svg>
