<?xml version="1.0" encoding="UTF-8" standalone="no"?>
<svg
   xmlns:dc="http://purl.org/dc/elements/1.1/"
   xmlns:cc="http://creativecommons.org/ns#"
   xmlns:rdf="http://www.w3.org/1999/02/22-rdf-syntax-ns#"
   xmlns:svg="http://www.w3.org/2000/svg"
   xmlns="http://www.w3.org/2000/svg"
   xmlns:xlink="http://www.w3.org/1999/xlink"
   xmlns:sodipodi="http://sodipodi.sourceforge.net/DTD/sodipodi-0.dtd"
   xmlns:inkscape="http://www.inkscape.org/namespaces/inkscape"
   width="96"
   version="1.1"
   height="96"
   id="svg2"
   inkscape:version="0.91 r13725"
   sodipodi:docname="gnash.svg">
  <metadata
     id="metadata33">
    <rdf:RDF>
      <cc:Work
         rdf:about="">
        <dc:format>image/svg+xml</dc:format>
        <dc:type
           rdf:resource="http://purl.org/dc/dcmitype/StillImage" />
        <dc:title></dc:title>
      </cc:Work>
    </rdf:RDF>
  </metadata>
  <sodipodi:namedview
     pagecolor="#ffffff"
     bordercolor="#666666"
     borderopacity="1"
     objecttolerance="10"
     gridtolerance="10"
     guidetolerance="10"
     inkscape:pageopacity="0"
     inkscape:pageshadow="2"
     inkscape:window-width="640"
     inkscape:window-height="480"
     id="namedview31"
     showgrid="false"
     inkscape:zoom="2.2391715"
     inkscape:cx="-13.198666"
     inkscape:cy="24.374368"
     inkscape:current-layer="svg2" />
  <defs
     id="defs4">
    <linearGradient
       gradientTransform="matrix(0.84163025,0,0,0.84163025,3.8832739,161.22099)"
       xlink:href="#linearGradient3836"
       id="linearGradient3870"
       y1="1014.4294"
       x1="15.276927"
       y2="1020.5009"
       gradientUnits="userSpaceOnUse"
       x2="15.28961" />
    <linearGradient
       gradientTransform="matrix(0.84163025,0,0,0.84163025,3.4837619,161.62131)"
       xlink:href="#linearGradient3836"
       id="linearGradient3873"
       y1="1017.158"
       x1="19.488634"
       y2="1017.158"
       gradientUnits="userSpaceOnUse"
       x2="25.714918" />
    <linearGradient
       gradientTransform="matrix(0.84163025,0,0,0.84163025,3.0840487,161.22099)"
       xlink:href="#linearGradient3836"
       id="linearGradient3867"
       y1="1014.4294"
       x1="15.276927"
       y2="1020.5009"
       gradientUnits="userSpaceOnUse"
       x2="15.28961" />
    <linearGradient
       gradientTransform="matrix(0.84163025,0,0,0.84163025,3.4837619,160.82079)"
       xlink:href="#linearGradient3836"
       id="linearGradient3858"
       y1="1017.158"
       x1="19.488634"
       y2="1017.158"
       gradientUnits="userSpaceOnUse"
       x2="25.714918" />
    <linearGradient
       gradientTransform="translate(0,1004.3622)"
       xlink:href="#linearGradient3761"
       id="linearGradient3834"
       y1="3.8214285"
       x1="9.3883924"
       y2="43.82143"
       gradientUnits="userSpaceOnUse"
       x2="9.3258924" />
    <linearGradient
       id="linearGradient3761">
      <stop
         offset="0"
         style="stop-color:#86a5bc"
         id="stop3763" />
      <stop
         offset="1"
         style="stop-color:#5a84a2"
         id="stop3765" />
    </linearGradient>
    <linearGradient
       id="linearGradient3836">
      <stop
         offset="0"
         style="stop-color:#ff7165"
         id="stop3838" />
      <stop
         offset="1"
         style="stop-color:#c00f00"
         id="stop3840" />
    </linearGradient>
  </defs>
  <rect
     style="opacity:1;fill:#deaa87;fill-opacity:1;fill-rule:evenodd;stroke:none;stroke-width:1;stroke-linecap:butt;stroke-linejoin:miter;stroke-miterlimit:4;stroke-dasharray:none;stroke-opacity:1"
     id="rect26213"
     width="83.573601"
     height="84"
     x="6.2131996"
     y="6" />
  <g
     id="layer1"
     transform="matrix(1.7618796,0,0,1.7618796,5.7148896,-1764.731)">
    <g
       style="line-height:125%;stroke:none"
       id="g17">
      <g
         style="opacity:0.7"
         id="g3882"
         transform="translate(0,0.49978272)">
        <path
           id="path3884"
           d="m 22.2883,1016.9062 c 0,0 -2.80458,-2.87 -2.35308,-4.502 0.245225,-0.8864 1.36279,-1.4116 2.35308,-1.4407 0.990291,-0.029 2.45045,0.1404 2.80958,1.5007 0.359125,1.3602 -2.80958,4.442 -2.80958,4.442 z"
           inkscape:connector-curvature="0" />
        <path
           id="path3886"
           d="m 22.2883,1017.6777 c 0,0 -2.80458,2.87 -2.35308,4.502 0.245225,0.8864 1.36279,1.4115 2.35308,1.4406 0.990291,0.029 2.45045,-0.1404 2.80958,-1.5007 0.359125,-1.3602 -2.80958,-4.4419 -2.80958,-4.4419 z"
           inkscape:connector-curvature="0" />
        <path
           id="path3888"
           d="m 22.754,1017.295 c 0,0 2.87006,-2.8046 4.50206,-2.3531 0.886395,0.2452 1.41154,1.3628 1.44066,2.3531 0.02912,0.9902 -0.140424,2.4505 -1.50069,2.8096 -1.36026,0.3591 -4.44204,-2.8096 -4.44204,-2.8096 z"
           inkscape:connector-curvature="0" />
        <path
           id="path3890"
           d="m 21.8496,1017.295 c 0,0 -2.87006,-2.8046 -4.50206,-2.3531 -0.886395,0.2452 -1.41154,1.3628 -1.44066,2.3531 -0.02912,0.9902 0.140424,2.4505 1.50069,2.8096 1.36026,0.3591 4.44204,-2.8096 4.44204,-2.8096 z"
           inkscape:connector-curvature="0" />
      </g>
      <path
         style="opacity:0.8"
         id="path3846"
         d="m 22.5312,1008.8623 c -7.63725,0 -12.2812,4.0179 -12.2812,9.875 0,4.1345 2.47374,7.3043 7.125,8.625 -2.12465,1.895 -3.15625,3.5426 -3.15625,5.4375 0,0.804 0.233194,1.7839 0.75,2.875 -3.67507,0.3445 -5.9375,2.7523 -5.9375,6.3125 0,4.7087 4.32643,7.875 11.9062,7.875 9.24509,0 15.4375,-4.7585 15.4375,-10.1562 0,-4.881 -4.23618,-6.6067 -12.5625,-7.8125 l -3.9062,-0.5313 c -0.114846,-0.5743 -0.1875,-1.0718 -0.1875,-1.5312 0,-0.689 0.181636,-1.3785 0.46875,-2.125 0.57423,0.057 1.13944,0.062 1.65625,0.062 7.57982,0 12.1875,-4.0187 12.1875,-9.5313 0,-1.493 -0.419906,-2.9445 -1.28125,-4.4375 l 6.21875,0 0,-3.2812 -8.5,0 c -2.81372,-1.1485 -5.46832,-1.6563 -7.9375,-1.6563 z m -0.125,1.2813 c 4.48731,0 8.125,3.6376 8.125,8.125 0,4.4873 -3.63769,8.125 -8.125,8.125 -4.48731,0 -8.125,-3.6377 -8.125,-8.125 0,-4.4874 3.63769,-8.125 8.125,-8.125 z m -3.9375,26.1562 4.875,0.8125 c 4.07703,0.689 6.1875,1.4988 6.1875,4.3125 0,2.9285 -2.67805,5.4063 -6.8125,5.4063 -3.84734,0 -6.65625,-2.6491 -6.65625,-5.75 0,-1.8375 0.798409,-3.4605 2.40625,-4.7813 z"
         inkscape:connector-curvature="0" />
      <path
         style="fill:url(#linearGradient3834)"
         id="path3872"
         d="m 22.5312,1007.8622 c -7.63725,0 -12.2812,4.0179 -12.2812,9.875 0,4.1345 2.47374,7.3043 7.125,8.625 -2.12465,1.895 -3.15625,3.5426 -3.15625,5.4375 0,0.804 0.233194,1.7839 0.75,2.875 -3.67507,0.3445 -5.9375,2.7523 -5.9375,6.3125 0,4.7087 4.32643,7.875 11.9062,7.875 9.24509,0 15.4375,-4.7585 15.4375,-10.1562 0,-4.881 -4.23618,-6.6067 -12.5625,-7.8125 l -3.9062,-0.5313 c -0.114846,-0.5743 -0.1875,-1.0718 -0.1875,-1.5312 0,-0.689 0.181636,-1.3785 0.46875,-2.125 0.57423,0.057 1.13944,0.062 1.65625,0.062 7.57982,0 12.1875,-4.0187 12.1875,-9.5313 0,-1.493 -0.419906,-2.9445 -1.28125,-4.4375 l 6.21875,0 0,-3.2812 -8.5,0 c -2.81372,-1.1485 -5.46832,-1.6563 -7.9375,-1.6563 z m -0.125,1.2813 c 4.48731,0 8.125,3.6376 8.125,8.125 0,4.4873 -3.63769,8.125 -8.125,8.125 -4.48731,0 -8.125,-3.6377 -8.125,-8.125 0,-4.4874 3.63769,-8.125 8.125,-8.125 z m -3.9375,26.1562 4.875,0.8125 c 4.07703,0.689 6.1875,1.4988 6.1875,4.3125 0,2.9285 -2.67805,5.4063 -6.8125,5.4063 -3.84734,0 -6.65625,-2.6491 -6.65625,-5.75 0,-1.8375 0.798409,-3.4605 2.40625,-4.7813 z"
         inkscape:connector-curvature="0" />
      <g
         id="g3876">
        <path
           style="fill:url(#linearGradient3858)"
           id="path3847"
           d="m 22.2883,1016.9062 c 0,0 -2.80458,-2.87 -2.35308,-4.502 0.245225,-0.8864 1.36279,-1.4116 2.35308,-1.4407 0.990291,-0.029 2.45045,0.1404 2.80958,1.5007 0.359125,1.3602 -2.80958,4.442 -2.80958,4.442 z"
           inkscape:connector-curvature="0" />
        <path
           style="fill:url(#linearGradient3873)"
           id="path3849"
           d="m 22.2883,1017.6777 c 0,0 -2.80458,2.87 -2.35308,4.502 0.245225,0.8864 1.36279,1.4115 2.35308,1.4406 0.990291,0.029 2.45045,-0.1404 2.80958,-1.5007 0.359125,-1.3602 -2.80958,-4.4419 -2.80958,-4.4419 z"
           inkscape:connector-curvature="0" />
        <path
           style="fill:url(#linearGradient3870)"
           id="path3851"
           d="m 22.754,1017.295 c 0,0 2.87006,-2.8046 4.50206,-2.3531 0.886395,0.2452 1.41154,1.3628 1.44066,2.3531 0.02912,0.9902 -0.140424,2.4505 -1.50069,2.8096 -1.36026,0.3591 -4.44204,-2.8096 -4.44204,-2.8096 z"
           inkscape:connector-curvature="0" />
        <path
           style="fill:url(#linearGradient3867)"
           id="path3853"
           d="m 21.8496,1017.295 c 0,0 -2.87006,-2.8046 -4.50206,-2.3531 -0.886395,0.2452 -1.41154,1.3628 -1.44066,2.3531 -0.02912,0.9902 0.140424,2.4505 1.50069,2.8096 1.36026,0.3591 4.44204,-2.8096 4.44204,-2.8096 z"
           inkscape:connector-curvature="0" />
      </g>
    </g>
  </g>
</svg>
