<?xml version="1.0" encoding="UTF-8" standalone="no"?>
<!-- Created with Inkscape (http://www.inkscape.org/) -->

<svg
   xmlns:dc="http://purl.org/dc/elements/1.1/"
   xmlns:cc="http://creativecommons.org/ns#"
   xmlns:rdf="http://www.w3.org/1999/02/22-rdf-syntax-ns#"
   xmlns:svg="http://www.w3.org/2000/svg"
   xmlns="http://www.w3.org/2000/svg"
   xmlns:sodipodi="http://sodipodi.sourceforge.net/DTD/sodipodi-0.dtd"
   xmlns:inkscape="http://www.inkscape.org/namespaces/inkscape"
   id="svg2"
   version="1.1"
   inkscape:version="0.91 r13725"
   width="96"
   height="96"
   xml:space="preserve"
   sodipodi:docname="gnome-color-chooser.svg"><metadata
     id="metadata8"><rdf:RDF><cc:Work
         rdf:about=""><dc:format>image/svg+xml</dc:format><dc:type
           rdf:resource="http://purl.org/dc/dcmitype/StillImage" /><dc:title></dc:title></cc:Work></rdf:RDF></metadata><defs
     id="defs6"><clipPath
       clipPathUnits="userSpaceOnUse"
       id="clipPath86"><path
         d="m 282.937,682.186 410.232,0 0,-410.235 -410.232,0 0,410.235 z"
         id="path88"
         inkscape:connector-curvature="0" /></clipPath><clipPath
       clipPathUnits="userSpaceOnUse"
       id="clipPath138"><path
         d="m 317.06,677.144 341.986,0 0,-394.153 -341.986,0 0,394.153 z"
         id="path140"
         inkscape:connector-curvature="0" /></clipPath><clipPath
       clipPathUnits="userSpaceOnUse"
       id="clipPath238"><path
         d="m 362.825,603.126 243.626,0 0,-243.625 -243.626,0 0,243.625 z"
         id="path240"
         inkscape:connector-curvature="0" /></clipPath></defs><sodipodi:namedview
     pagecolor="#ffffff"
     bordercolor="#666666"
     borderopacity="1"
     objecttolerance="10"
     gridtolerance="10"
     guidetolerance="10"
     inkscape:pageopacity="0"
     inkscape:pageshadow="2"
     inkscape:window-width="1070"
     inkscape:window-height="676"
     id="namedview4"
     showgrid="false"
     inkscape:zoom="2.4559301"
     inkscape:cx="14.634416"
     inkscape:cy="46.956329"
     inkscape:window-x="248"
     inkscape:window-y="57"
     inkscape:window-maximized="0"
     inkscape:current-layer="g10" /><g
     id="g10"
     inkscape:groupmode="layer"
     inkscape:label="pixel77-free-vector-deco-flower-1105"
     transform="matrix(1.25,0,0,-1.25,0,95.999967)"><g
       id="g26373"
       transform="matrix(0.08496383,0,0,0.08314805,2.4973743,2.3717894)"><g
         transform="matrix(1.9186368,0,0,1.9186368,-515.7521,-492.57206)"
         id="g82"><g
           id="g84" /><g
           id="g90"><g
             id="g92"
             clip-path="url(#clipPath86)"><g
               id="g94"
               transform="translate(519.0737,432.709)"><path
                 inkscape:connector-curvature="0"
                 id="path96"
                 style="fill:#d8c7ce;fill-opacity:1;fill-rule:nonzero;stroke:none"
                 d="m 0,0 c 0,0 -14.252,-28.466 -14.682,-58.699 -7.728,27.449 -25.771,49.758 -25.771,49.758 0,0 -30.206,-10.052 -51.888,-31.128 13.944,24.876 16.961,53.409 16.961,53.409 0,0 -28.466,14.251 -58.7,14.68 27.45,7.729 49.759,25.771 49.759,25.771 0,0 -10.052,30.206 -31.128,51.888 24.875,-13.944 53.408,-16.961 53.408,-16.961 0,0 14.251,28.467 14.68,58.7 7.73,-27.449 25.771,-49.758 25.771,-49.758 0,0 30.205,10.051 51.887,31.125 C 16.354,103.911 13.338,75.379 13.338,75.379 c 0,0 28.465,-14.251 58.699,-14.68 -27.449,-7.73 -49.758,-25.771 -49.758,-25.771 0,0 10.053,-30.207 31.127,-51.889 C 28.531,-3.017 0,0 0,0 m 174.096,-9.506 c 0,0 -19.629,59.003 -61.549,71.274 -5.123,1.499 -10.342,2.226 -15.555,2.356 3.518,1.133 6.957,2.571 10.266,4.382 38.32,20.966 44.849,82.806 44.849,82.806 0,0 -55.601,27.84 -93.919,6.873 -4.682,-2.562 -8.887,-5.737 -12.667,-9.331 1.688,3.288 3.102,6.737 4.163,10.356 12.269,41.922 -26.84,90.267 -26.84,90.267 0,0 -59.002,-19.63 -71.273,-61.552 -1.499,-5.122 -2.227,-10.341 -2.357,-15.554 -1.132,3.519 -2.571,6.959 -4.381,10.267 -20.967,38.32 -82.805,44.848 -82.805,44.848 0,0 -27.843,-55.6 -6.874,-93.919 2.561,-4.682 5.737,-8.887 9.332,-12.666 -3.289,1.688 -6.738,3.103 -10.359,4.162 -41.922,12.27 -90.264,-26.839 -90.264,-26.839 0,0 19.628,-59.004 61.55,-71.274 5.122,-1.499 10.339,-2.226 15.552,-2.356 -3.518,-1.132 -6.957,-2.571 -10.265,-4.381 -38.32,-20.968 -44.848,-82.806 -44.848,-82.806 0,0 55.6,-27.842 93.92,-6.874 4.682,2.562 8.886,5.737 12.664,9.331 -1.688,-3.289 -3.103,-6.738 -4.162,-10.357 -12.27,-41.922 26.841,-90.265 26.841,-90.265 0,0 59.002,19.629 71.274,61.55 1.498,5.122 2.226,10.34 2.355,15.554 1.133,-3.519 2.57,-6.957 4.381,-10.265 20.969,-38.32 82.807,-44.85 82.807,-44.85 0,0 27.839,55.601 6.873,93.919 -2.563,4.683 -5.739,8.887 -9.332,12.666 3.289,-1.688 6.738,-3.102 10.357,-4.162 41.922,-12.27 90.266,26.84 90.266,26.84" /></g></g></g></g><path
         id="path3437"
         d="m 483.99906,358.74434 c 0,0 -27.34441,-54.61592 -28.16943,-112.62206 -14.82722,52.66466 -49.44518,95.46753 -49.44518,95.46753 0,0 -57.95435,-19.28614 -99.55423,-59.72333 26.75347,47.72801 32.542,102.47247 32.542,102.47247 0,0 -54.61592,27.3425 -112.62398,28.16559 52.66658,14.82915 95.46945,49.44519 95.46945,49.44519 0,0 -19.28614,57.95435 -59.72333,99.55423 47.72609,-26.75347 102.47055,-32.542 102.47055,-32.542 0,0 27.3425,54.61783 28.16559,112.62398 14.83106,-52.66466 49.44519,-95.46753 49.44519,-95.46753 0,0 57.95243,19.28422 99.55231,59.71757 -26.75155,-47.72417 -32.53816,-102.46672 -32.53816,-102.46672 0,0 54.61399,-27.34249 112.62206,-28.16558 -52.66466,-14.83107 -95.46753,-49.44519 -95.46753,-49.44519 0,0 19.28806,-57.95627 59.72141,-99.55615 -47.72609,26.75347 -102.46672,32.542 -102.46672,32.542"
         style="fill:#ff0000;fill-opacity:1;fill-rule:nonzero;stroke:none"
         inkscape:connector-curvature="0" /><path
         id="path100"
         d="m 818.02605,340.50578 c 0,0 -37.66092,113.20533 -118.09017,136.74892 -9.82918,2.87603 -19.84255,4.27088 -29.8444,4.52031 6.74976,2.17381 13.34796,4.93281 19.69673,8.40554 73.52216,40.22806 86.04894,158.87656 86.04894,158.87656 0,0 -106.67813,53.41485 -180.19645,13.18679 -8.98306,-4.91555 -17.05093,-11.00722 -24.30337,-17.9028 3.23865,6.30848 5.95161,12.92586 7.98728,19.8694 23.53976,80.4331 -51.49621,173.18959 -51.49621,173.18959 0,0 -113.20341,-37.66284 -136.747,-118.09593 -2.87604,-9.82726 -4.27281,-19.84062 -4.52223,-29.84248 -2.1719,6.75169 -4.93281,13.3518 -8.40555,19.69865 -40.22805,73.52216 -158.87272,86.04702 -158.87272,86.04702 0,0 -53.4206,-106.6762 -13.18871,-180.19645 4.91363,-8.98306 11.00722,-17.05092 17.90472,-24.30145 -6.31039,3.23866 -12.92777,5.95353 -19.87516,7.98536 -80.43309,23.54168 -173.183828,-51.49429 -173.183828,-51.49429 0,0 37.659003,-113.20724 118.092098,-136.74892 9.82725,-2.87603 19.83678,-4.27088 29.83864,-4.52031 -6.74977,-2.17189 -13.34796,-4.93281 -19.69481,-8.40554 C 85.651688,357.29577 73.126827,238.65111 73.126827,238.65111 c 0,0 106.676203,-53.41869 180.198363,-13.18871 8.98306,4.91554 17.04901,11.00722 24.29762,17.9028 -3.23866,-6.3104 -5.95353,-12.92778 -7.98537,-19.87132 -23.54167,-80.4331 51.49814,-173.185755 51.49814,-173.185755 0,0 113.2034,37.660922 136.74891,118.092095 2.87412,9.82726 4.27089,19.8387 4.51839,29.84248 2.17382,-6.75169 4.9309,-13.34796 8.40555,-19.69481 40.2319,-73.52216 158.87656,-86.05086 158.87656,-86.05086 0,0 53.41293,106.67812 13.18679,180.19645 -4.91747,8.98498 -11.01106,17.05092 -17.90472,24.30145 6.3104,-3.23866 12.92778,-5.95161 19.87132,-7.98536 80.43309,-23.54168 173.18767,51.49621 173.18767,51.49621"
         style="fill:#ffa600;fill-opacity:1;fill-rule:nonzero;stroke:none"
         inkscape:connector-curvature="0" /><g
         transform="matrix(1.9186368,0,0,1.9186368,-515.7521,-492.57206)"
         id="g134"><g
           id="g136" /><g
           id="g142"><g
             style="opacity:0.55000299"
             id="g144"
             clip-path="url(#clipPath138)"><g
               id="g146"
               transform="translate(540.5425,590.3071)"><path
                 inkscape:connector-curvature="0"
                 id="path148"
                 style="fill:#d1a1b1;fill-opacity:1;fill-rule:nonzero;stroke:none"
                 d="m 0,0 c -1.164,-47.206 -57.348,-84.111 -57.348,-84.111 0,0 -54.293,39.631 -53.128,86.837 1.164,47.206 57.347,84.111 57.347,84.111 0,0 54.293,-39.631 53.129,-86.837" /></g><g
               id="g150"
               transform="translate(418.8281,580.645)"><path
                 inkscape:connector-curvature="0"
                 id="path152"
                 style="fill:#d1a1b1;fill-opacity:1;fill-rule:nonzero;stroke:none"
                 d="m 0,0 c 40.299,-24.611 44.169,-91.718 44.169,-91.718 0,0 -61.468,-27.206 -101.768,-2.594 -40.298,24.611 -44.17,91.719 -44.17,91.719 0,0 61.47,27.205 101.769,2.593" /></g><g
               id="g154"
               transform="translate(366.3379,470.4063)"><path
                 inkscape:connector-curvature="0"
                 id="path156"
                 style="fill:#d1a1b1;fill-opacity:1;fill-rule:nonzero;stroke:none"
                 d="m 0,0 c 41.465,22.595 101.517,-7.607 101.517,-7.607 0,0 -7.175,-66.836 -48.639,-89.431 -41.464,-22.594 -101.517,7.607 -101.517,7.607 0,0 7.176,66.837 48.639,89.431" /></g><g
               id="g158"
               transform="translate(435.5635,369.8291)"><path
                 inkscape:connector-curvature="0"
                 id="path160"
                 style="fill:#d1a1b1;fill-opacity:1;fill-rule:nonzero;stroke:none"
                 d="m 0,0 c 1.164,47.207 57.346,84.111 57.346,84.111 0,0 54.295,-39.63 53.129,-86.837 -1.164,-47.205 -57.346,-84.112 -57.346,-84.112 0,0 -54.294,39.633 -53.129,86.838" /></g><g
               id="g162"
               transform="translate(557.2788,379.4912)"><path
                 inkscape:connector-curvature="0"
                 id="path164"
                 style="fill:#d1a1b1;fill-opacity:1;fill-rule:nonzero;stroke:none"
                 d="m 0,0 c -40.301,24.612 -44.17,91.72 -44.17,91.72 0,0 61.467,27.205 101.768,2.593 40.297,-24.612 44.17,-91.72 44.17,-91.72 C 101.768,2.593 40.299,-24.611 0,0" /></g><g
               id="g166"
               transform="translate(609.7671,489.7305)"><path
                 inkscape:connector-curvature="0"
                 id="path168"
                 style="fill:#d1a1b1;fill-opacity:1;fill-rule:nonzero;stroke:none"
                 d="m 0,0 c -41.465,-22.595 -101.516,7.608 -101.516,7.608 0,0 7.174,66.835 48.639,89.43 C -11.414,119.631 48.639,89.43 48.639,89.43 48.639,89.43 41.463,22.594 0,0" /></g><g
               id="g170"
               transform="translate(557.0171,478.3672)"><path
                 inkscape:connector-curvature="0"
                 id="path172"
                 style="fill:#d1a1b1;fill-opacity:1;fill-rule:nonzero;stroke:none"
                 d="m 0,0 c -0.939,-38.088 -32.578,-68.203 -70.666,-67.264 -38.087,0.941 -68.203,32.578 -67.263,70.666 0.94,38.089 32.578,68.203 70.665,67.264 C -29.176,69.727 0.939,38.088 0,0" /></g></g></g></g><g
         style="fill:#c8ffd8;fill-opacity:1"
         transform="matrix(1.9186368,0,0,1.9186368,519.94357,657.78192)"
         id="g174"><path
           inkscape:connector-curvature="0"
           id="path176"
           style="fill:#c8ffd8;fill-opacity:1;fill-rule:nonzero;stroke:none"
           d="m 0,0 c 0,-47.22 -55.256,-85.5 -55.256,-85.5 0,0 -55.254,38.28 -55.254,85.5 0,47.22 55.254,85.5 55.254,85.5 C -55.256,85.5 0,47.22 0,0" /></g><g
         style="fill:#64fe91;fill-opacity:1"
         transform="matrix(1.9186368,0,0,1.9186368,286.94451,633.48967)"
         id="g178"><path
           inkscape:connector-curvature="0"
           id="path180"
           style="fill:#64fe91;fill-opacity:1;fill-rule:nonzero;stroke:none"
           d="m 0,0 c 40.895,-23.61 46.418,-90.602 46.418,-90.602 0,0 -60.778,-28.712 -101.673,-5.102 -40.893,23.61 -46.418,90.602 -46.418,90.602 0,0 60.779,28.712 101.673,5.102" /></g><g
         style="fill:#01ff6b;fill-opacity:1"
         transform="matrix(1.9186368,0,0,1.9186368,191.48293,419.56168)"
         id="g182"><path
           inkscape:connector-curvature="0"
           id="path184"
           style="fill:#01ff6b;fill-opacity:1;fill-rule:nonzero;stroke:none"
           d="m 0,0 c 40.895,23.61 101.673,-5.102 101.673,-5.102 0,0 -5.524,-66.992 -46.418,-90.602 -40.894,-23.609 -101.673,5.101 -101.673,5.101 0,0 5.524,66.994 46.418,90.603" /></g><g
         style="fill:#cfff9b;fill-opacity:1"
         transform="matrix(1.9186368,0,0,1.9186368,329.01964,229.92592)"
         id="g186"><path
           inkscape:connector-curvature="0"
           id="path188"
           style="fill:#cfff9b;fill-opacity:1;fill-rule:nonzero;stroke:none"
           d="m 0,0 c 0,47.221 55.254,85.5 55.254,85.5 0,0 55.256,-38.279 55.256,-85.5 C 110.508,-47.22 55.254,-85.501 55.254,-85.501 55.254,-85.501 0,-47.22 0,0" /></g><g
         style="fill:#a1ff34;fill-opacity:1"
         transform="matrix(1.9186368,0,0,1.9186368,562.01869,254.21797)"
         id="g190"><path
           inkscape:connector-curvature="0"
           id="path192"
           style="fill:#a1ff34;fill-opacity:1;fill-rule:nonzero;stroke:none"
           d="m 0,0 c -40.895,23.61 -46.418,90.603 -46.418,90.603 0,0 60.777,28.711 101.672,5.101 C 96.146,72.094 101.672,5.102 101.672,5.102 101.672,5.102 40.893,-23.61 0,0" /></g><g
         style="fill:#8aff00;fill-opacity:1"
         transform="matrix(1.9186368,0,0,1.9186368,657.47836,468.14597)"
         id="g194"><path
           inkscape:connector-curvature="0"
           id="path196"
           style="fill:#8aff00;fill-opacity:1;fill-rule:nonzero;stroke:none"
           d="m 0,0 c -40.895,-23.61 -101.672,5.103 -101.672,5.103 0,0 5.524,66.991 46.418,90.602 C -14.361,119.313 46.418,90.602 46.418,90.602 46.418,90.602 40.895,23.61 0,0" /></g><g
         style="fill:#6fa8fc;fill-opacity:1"
         transform="matrix(1.9186368,0,0,1.9186368,556.83991,443.85392)"
         id="g198"><path
           inkscape:connector-curvature="0"
           id="path200"
           style="fill:#6fa8fc;fill-opacity:1;fill-rule:nonzero;stroke:none"
           d="m 0,0 c 0,-38.1 -30.887,-68.985 -68.986,-68.985 -38.099,0 -68.985,30.885 -68.985,68.985 0,38.1 30.886,68.986 68.985,68.986 C -30.887,68.986 0,38.1 0,0" /></g><g
         style="fill:#c8b7b7"
         transform="matrix(1.9186368,0,0,1.9186368,-515.7521,-492.57206)"
         id="g234"><g
           style="fill:#c8b7b7"
           id="g236" /><g
           style="fill:#c8b7b7"
           id="g242"><g
             style="fill:#c8b7b7"
             id="g244"
             clip-path="url(#clipPath238)"><g
               style="fill:#c8b7b7"
               id="g246"
               transform="translate(572.2886,490.249)"><path
                 inkscape:connector-curvature="0"
                 id="path248"
                 style="fill:#c8b7b7;fill-opacity:1;fill-rule:nonzero;stroke:none"
                 d="m 0,0 c -32.314,-20.806 -87.65,-8.936 -87.65,-8.936 0,0 6.646,63.752 38.959,84.559 32.312,20.804 82.853,-0.14 82.853,-0.14 C 34.162,75.483 32.313,20.804 0,0" /></g><g
               style="fill:#c8b7b7"
               id="g250"
               transform="translate(475.7026,568.9639)"><path
                 inkscape:connector-curvature="0"
                 id="path252"
                 style="fill:#c8b7b7;fill-opacity:1;fill-rule:nonzero;stroke:none"
                 d="m 0,0 c 20.805,-32.313 8.936,-87.65 8.936,-87.65 0,0 -63.753,6.646 -84.559,38.959 -20.804,32.313 0.14,82.853 0.14,82.853 0,0 54.678,-1.849 75.483,-34.162" /></g><g
               style="fill:#c8b7b7"
               id="g254"
               transform="translate(396.9873,472.3779)"><path
                 inkscape:connector-curvature="0"
                 id="path256"
                 style="fill:#c8b7b7;fill-opacity:1;fill-rule:nonzero;stroke:none"
                 d="m 0,0 c 32.313,20.806 87.651,8.936 87.651,8.936 0,0 -6.647,-63.752 -38.96,-84.558 -32.313,-20.805 -82.853,0.14 -82.853,0.14 0,0 1.849,54.677 34.162,75.482" /></g><g
               style="fill:#c8b7b7"
               id="g258"
               transform="translate(493.5737,393.6631)"><path
                 inkscape:connector-curvature="0"
                 id="path260"
                 style="fill:#c8b7b7;fill-opacity:1;fill-rule:nonzero;stroke:none"
                 d="m 0,0 c -20.806,32.313 -8.936,87.65 -8.936,87.65 0,0 63.752,-6.646 84.557,-38.959 20.805,-32.313 -0.139,-82.853 -0.139,-82.853 0,0 -54.677,1.849 -75.482,34.162" /></g></g></g></g><g
         style="fill:#cc00ff"
         transform="matrix(1.9186368,0,0,1.9186368,591.85503,461.46816)"
         id="g262"><path
           inkscape:connector-curvature="0"
           id="path264"
           style="fill:#cc00ff;fill-opacity:1;fill-rule:nonzero;stroke:none"
           d="m 0,0 c -32.314,-20.806 -87.65,-8.936 -87.65,-8.936 0,0 6.646,63.752 38.959,84.559 32.312,20.804 82.853,-0.14 82.853,-0.14 C 34.162,75.483 32.313,20.804 0,0" /></g><g
         style="fill:#00d400;fill-opacity:1"
         transform="matrix(1.9186368,0,0,1.9186368,406.54158,612.49346)"
         id="g266"><path
           inkscape:connector-curvature="0"
           id="path268"
           style="fill:#00d400;fill-opacity:1;fill-rule:nonzero;stroke:none"
           d="m 0,0 c 20.805,-32.313 8.936,-87.65 8.936,-87.65 0,0 -63.753,6.646 -84.559,38.959 -20.804,32.313 0.14,82.853 0.14,82.853 0,0 54.678,-1.849 75.483,-34.162" /></g><g
         style="fill:#016eff;fill-opacity:1"
         transform="matrix(1.9186368,0,0,1.9186368,255.51551,427.18001)"
         id="g270"><path
           inkscape:connector-curvature="0"
           id="path272"
           style="fill:#016eff;fill-opacity:1;fill-rule:nonzero;stroke:none"
           d="m 0,0 c 32.313,20.806 87.651,8.936 87.651,8.936 0,0 -6.647,-63.752 -38.96,-84.558 -32.313,-20.805 -82.853,0.14 -82.853,0.14 0,0 1.849,54.677 34.162,75.482" /></g><g
         style="fill:#ff3334;fill-opacity:1"
         transform="matrix(1.9186368,0,0,1.9186368,440.82973,276.1549)"
         id="g274"><path
           inkscape:connector-curvature="0"
           id="path276"
           style="fill:#ff3334;fill-opacity:1;fill-rule:nonzero;stroke:none"
           d="m 0,0 c -20.807,32.313 -8.936,87.65 -8.936,87.65 0,0 63.752,-6.646 84.557,-38.959 20.805,-32.313 -0.139,-82.853 -0.139,-82.853 0,0 -54.677,1.849 -75.482,34.162" /></g></g></g></svg>