<svg width="96" version="1.0" xmlns="http://www.w3.org/2000/svg" height="96">
<g style="stroke:none">
<path style="fill:#fff" id="path3215" d="m 83.9375,74.2785 0,-62.2712 -71.9374,0 0,62.2712 71.9374,0 z"/>
<g style="fill:#646464">
<path id="path3174" d="M 11.3125,8 C 9.42859,8 8,9.4293755 8,11.3125 l 0,63.375 C 8,76.570624 9.42859,78 11.3125,78 l 73.375,0 C 86.57141,78 88,76.570624 88,74.6875 l 0,-63.375 C 88,9.4293754 86.57141,8 84.6875,8 L 11.3125,8 Z M 14,14 l 68,0 0,58 -68,0 0,-58 z"/>
<path id="rect3535" d="m 33,74 c -1.662,0 -3,1.338 -3,3 h -3 v 1 c 1.656,0 3,1.344 3,3 v 2 c 0,1.662 1.338,3 3,3 h 30 c 1.662,0 3,-1.338 3,-3 v -2 c 0,-1.656 1.344,-3 3,-3 v -1 h -3 c 0,-1.662 -1.338,-3 -3,-3 h -30 z "/>
</g>
<rect width="5" x="55.323669" y="81.23436" rx="1" ry="1" height="2" style="fill:#7fff2a" id="rect3485"/>
<path style="fill:#7c7c7c" id="path4155-9" d="m 34.8913,23.6027 c -3.11346,0 -5.64022,0.51483 -5.63345,1.13752 0.0063,0.622694 -2.52,1.13753 -5.63345,1.13753 h -0.650016 c -3.11346,0 -5.68762,2.57416 -5.68762,5.68762 v 22.6422 c 0,3.11346 2.57417,5.63345 5.68762,5.63345 h 50.1053 c 3.11346,0 5.63345,-2.52 5.63345,-5.63345 v -22.6422 c 0,-3.11346 -2.51999,-5.68762 -5.63345,-5.68762 h -25.513 c -3.11346,0 -5.63345,-0.514832 -5.63345,-1.13753 0,-0.622694 -2.57417,-1.13752 -5.68762,-1.13752 h -1.3542 z "/>
<path style="fill:#2de1ff" id="path4153-9" d="m 24.3828,28.2611 c 1.95413,0 3.52092,1.62096 3.52092,3.57508 0,1.95355 -1.56679,3.52092 -3.52092,3.52092 -1.95413,0 -3.52092,-1.56679 -3.52092,-3.52092 0,-1.95413 1.56679,-3.57508 3.52092,-3.57508 z"/>
<path style="fill:#fff" id="path4151-3" d="m 62.5712,28.5861 11.917,0 c 0.622694,0 1.13753,0.514832 1.13753,1.13752 v 1.95005 c 0,0.622689 -0.514834,1.13753 -1.13753,1.13753 h -11.9169 c -0.622693,0 -1.13752,-0.514837 -1.13752,-1.13753 v -1.95003 c 0,-0.622692 0.514831,-1.13752 1.13752,-1.13752 z "/>
</g>
<path style="stroke:#e0e0e0;stroke-linejoin:round;stroke-linecap:round;stroke-width:5.584;stroke-dashoffset:4" id="path1977-2" d="m 57.4831,42.9766 c 0,5.15727 -4.24572,9.33809 -9.48306,9.33809 -5.23735,0 -9.48307,-4.18082 -9.48307,-9.33809 0,-5.15727 4.24572,-9.33809 9.48307,-9.33809 5.23735,0 9.48306,4.18082 9.48306,9.33809 z "/>
</svg>
