<?xml version="1.0" encoding="UTF-8" standalone="no"?>
<svg
   xmlns:dc="http://purl.org/dc/elements/1.1/"
   xmlns:cc="http://creativecommons.org/ns#"
   xmlns:rdf="http://www.w3.org/1999/02/22-rdf-syntax-ns#"
   xmlns:svg="http://www.w3.org/2000/svg"
   xmlns="http://www.w3.org/2000/svg"
   xmlns:sodipodi="http://sodipodi.sourceforge.net/DTD/sodipodi-0.dtd"
   xmlns:inkscape="http://www.inkscape.org/namespaces/inkscape"
   width="96"
   version="1.0"
   height="96"
   id="svg2"
   inkscape:version="0.91 r13725"
   sodipodi:docname="gnome-2048.svg">
  <metadata
     id="metadata28">
    <rdf:RDF>
      <cc:Work
         rdf:about="">
        <dc:format>image/svg+xml</dc:format>
        <dc:type
           rdf:resource="http://purl.org/dc/dcmitype/StillImage" />
        <dc:title />
      </cc:Work>
    </rdf:RDF>
  </metadata>
  <sodipodi:namedview
     pagecolor="#ffffff"
     bordercolor="#666666"
     borderopacity="1"
     objecttolerance="10"
     gridtolerance="10"
     guidetolerance="10"
     inkscape:pageopacity="0"
     inkscape:pageshadow="2"
     inkscape:window-width="640"
     inkscape:window-height="480"
     id="namedview26"
     showgrid="false"
     inkscape:zoom="2.8284271"
     inkscape:cx="-9.2135571"
     inkscape:cy="52.755914"
     inkscape:current-layer="svg2" />
  <defs
     id="defs2410">
    <filter
       style="color-interpolation-filters:sRGB"
       id="filter3174">
      <feGaussianBlur
         stdDeviation="1.71"
         id="feGaussianBlur3176" />
    </filter>
    <linearGradient
       gradientTransform="scale(1.0058652,0.994169)"
       id="ButtonShadow"
       y1="92.539597"
       x1="45.447727"
       y2="7.0165396"
       x2="45.447727"
       gradientUnits="userSpaceOnUse">
      <stop
         offset="0"
         id="stop3750" />
      <stop
         offset="1"
         style="stop-opacity:.588"
         id="stop3752" />
    </linearGradient>
  </defs>
  <g
     style="display:none"
     id="layer2">
    <rect
       width="86"
       x="5"
       y="7"
       rx="6"
       height="85"
       ry="6"
       style="opacity:.9;fill:url(#ButtonShadow);filter:url(#filter3174);stroke:none"
       id="rect3745" />
  </g>
  <rect
     id="rect2419"
     style="text-align:start;fill:#bc5fd3;stroke:none"
     ry="0.056761779"
     height="84"
     rx="6"
     y="6"
     x="6"
     width="84" />
  <path
     style="text-align:start;fill:#f9f9f9;stroke:none"
     d="M 20.474609 13.570312 C 17.006512 13.570312 13.570312 17.006512 13.570312 20.474609 L 13.570312 75.525391 C 13.570313 78.993481 17.006512 82.429688 20.474609 82.429688 L 75.525391 82.429688 C 78.993488 82.429688 82.429688 78.993481 82.429688 75.525391 L 82.429688 20.474609 C 82.429688 17.006512 78.993488 13.570312 75.525391 13.570312 L 20.474609 13.570312 z M 71.806641 18.648438 C 73.711641 18.648438 75.032578 18.904063 75.767578 19.414062 C 76.517578 19.924063 76.892578 20.688984 76.892578 21.708984 L 76.892578 23.800781 C 76.892578 24.280781 76.690156 24.700547 76.285156 25.060547 C 75.895156 25.405547 75.452031 25.607969 74.957031 25.667969 L 74.957031 25.757812 C 75.602031 25.907812 76.164531 26.193281 76.644531 26.613281 C 77.139531 27.018281 77.386719 27.467891 77.386719 27.962891 L 77.386719 30.484375 C 77.386719 31.699375 76.922187 32.538906 75.992188 33.003906 C 75.077187 33.468906 73.681641 33.701172 71.806641 33.701172 C 69.931641 33.701172 68.529609 33.468906 67.599609 33.003906 C 66.684609 32.538906 66.226562 31.699375 66.226562 30.484375 L 66.226562 27.962891 C 66.226562 27.467891 66.467266 27.018281 66.947266 26.613281 C 67.442266 26.193281 68.013203 25.907813 68.658203 25.757812 L 68.658203 25.667969 C 68.163203 25.607969 67.711641 25.405547 67.306641 25.060547 C 66.916641 24.700547 66.722656 24.280781 66.722656 23.800781 L 66.722656 21.708984 C 66.722656 20.688984 67.089219 19.924063 67.824219 19.414062 C 68.574219 18.904062 69.901641 18.648438 71.806641 18.648438 z M 71.806641 20.787109 C 71.116641 20.787109 70.645625 20.883125 70.390625 21.078125 C 70.150625 21.273125 70.029297 21.581953 70.029297 22.001953 L 70.029297 23.689453 C 70.029297 24.094453 70.150625 24.392891 70.390625 24.587891 C 70.645625 24.782891 71.116641 24.880859 71.806641 24.880859 C 72.496641 24.880859 72.963125 24.782891 73.203125 24.587891 C 73.458125 24.392891 73.583984 24.094453 73.583984 23.689453 L 73.583984 22.001953 C 73.583984 21.581953 73.458125 21.273125 73.203125 21.078125 C 72.963125 20.883125 72.496641 20.787109 71.806641 20.787109 z M 71.830078 26.974609 C 70.945078 26.974609 70.359219 27.070625 70.074219 27.265625 C 69.804219 27.460625 69.669922 27.784375 69.669922 28.234375 L 69.669922 30.212891 C 69.669922 30.767891 69.789297 31.136406 70.029297 31.316406 C 70.269297 31.481406 70.861641 31.564453 71.806641 31.564453 C 72.751641 31.564453 73.343984 31.481406 73.583984 31.316406 C 73.823984 31.136406 73.945312 30.767891 73.945312 30.212891 L 73.945312 28.234375 C 73.945312 27.784375 73.809062 27.460625 73.539062 27.265625 C 73.284063 27.070625 72.715078 26.974609 71.830078 26.974609 z M 56.318359 33.498047 L 60.03125 33.498047 L 60.03125 42.791016 L 61.605469 42.791016 L 61.605469 45.154297 L 60.03125 45.154297 L 60.03125 48.101562 L 57.060547 48.101562 L 57.060547 45.154297 L 50.310547 45.154297 L 50.310547 42.566406 L 56.318359 33.498047 z M 57.060547 36.603516 L 53.123047 42.791016 L 57.060547 42.791016 L 57.060547 36.603516 z M 40.671875 47.898438 C 41.271875 47.898438 41.781172 47.921797 42.201172 47.966797 C 42.636172 47.996797 43.117578 48.092813 43.642578 48.257812 C 44.167578 48.407812 44.587344 48.618672 44.902344 48.888672 C 45.232344 49.158672 45.509375 49.557031 45.734375 50.082031 C 45.959375 50.592031 46.072266 51.205781 46.072266 51.925781 L 46.072266 58.923828 C 46.072266 59.643828 45.959375 60.266016 45.734375 60.791016 C 45.509375 61.301016 45.232344 61.690937 44.902344 61.960938 C 44.587344 62.230938 44.167578 62.448281 43.642578 62.613281 C 43.117578 62.763281 42.636172 62.852813 42.201172 62.882812 C 41.781172 62.927813 41.271875 62.951172 40.671875 62.951172 C 40.056875 62.951172 39.530703 62.927813 39.095703 62.882812 C 38.660703 62.852812 38.18125 62.763281 37.65625 62.613281 C 37.14625 62.463281 36.734922 62.254375 36.419922 61.984375 C 36.119922 61.699375 35.855859 61.301016 35.630859 60.791016 C 35.420859 60.266016 35.316406 59.643828 35.316406 58.923828 L 35.316406 51.925781 C 35.316406 51.205781 35.420859 50.592031 35.630859 50.082031 C 35.855859 49.557031 36.119922 49.158672 36.419922 48.888672 C 36.734922 48.603672 37.14625 48.386328 37.65625 48.236328 C 38.18125 48.086328 38.660703 47.996797 39.095703 47.966797 C 39.530703 47.921797 40.056875 47.898437 40.671875 47.898438 z M 40.716797 50.013672 C 39.786797 50.013672 39.209375 50.118125 38.984375 50.328125 C 38.759375 50.538125 38.646484 50.996172 38.646484 51.701172 L 38.646484 59.148438 C 38.646484 59.853437 38.759375 60.311484 38.984375 60.521484 C 39.209375 60.731484 39.786797 60.835937 40.716797 60.835938 C 41.631797 60.835938 42.194297 60.731484 42.404297 60.521484 C 42.629297 60.311484 42.742188 59.853437 42.742188 59.148438 L 42.742188 51.701172 C 42.742188 50.996172 42.629297 50.538125 42.404297 50.328125 C 42.194297 50.118125 41.631797 50.013672 40.716797 50.013672 z M 24.912109 62.523438 C 26.637109 62.523438 27.943125 62.785547 28.828125 63.310547 C 29.713125 63.835547 30.154297 64.743203 30.154297 66.033203 L 30.154297 68.058594 C 30.154297 68.853594 29.915547 69.528984 29.435547 70.083984 C 28.955547 70.638984 28.369687 71.05875 27.679688 71.34375 C 27.004687 71.61375 26.322813 71.869375 25.632812 72.109375 C 24.942812 72.334375 24.356953 72.611406 23.876953 72.941406 C 23.396953 73.271406 23.158203 73.67625 23.158203 74.15625 L 23.158203 74.898438 L 30.177734 74.898438 L 30.177734 77.351562 L 19.917969 77.351562 L 19.917969 74.021484 C 19.917969 73.181484 20.150234 72.467812 20.615234 71.882812 C 21.095234 71.282812 21.664219 70.841641 22.324219 70.556641 C 22.999219 70.256641 23.668125 69.994531 24.328125 69.769531 C 25.003125 69.544531 25.572109 69.288906 26.037109 69.003906 C 26.517109 68.718906 26.757812 68.365313 26.757812 67.945312 L 26.757812 66.078125 C 26.757812 65.628125 26.570312 65.32125 26.195312 65.15625 C 25.820312 64.99125 25.189688 64.908203 24.304688 64.908203 C 23.299688 64.908203 21.935938 65.095703 20.210938 65.470703 L 20.210938 62.996094 C 21.725938 62.681094 23.292109 62.523438 24.912109 62.523438 z "
     id="rect3043" />
</svg>
