<?xml version="1.0" encoding="UTF-8" standalone="no"?>
<!-- Created with Inkscape (http://www.inkscape.org/) -->

<svg
   xmlns:dc="http://purl.org/dc/elements/1.1/"
   xmlns:cc="http://creativecommons.org/ns#"
   xmlns:rdf="http://www.w3.org/1999/02/22-rdf-syntax-ns#"
   xmlns:svg="http://www.w3.org/2000/svg"
   xmlns="http://www.w3.org/2000/svg"
   xmlns:sodipodi="http://sodipodi.sourceforge.net/DTD/sodipodi-0.dtd"
   xmlns:inkscape="http://www.inkscape.org/namespaces/inkscape"
   width="96"
   height="96"
   viewBox="0 0 96 96.000005"
   id="svg2"
   version="1.1"
   inkscape:version="0.91 r13725"
   sodipodi:docname="chrome-fahmaaghhglfmonjliepjlchgpgfmobi-Default.svg">
  <defs
     id="defs4" />
  <sodipodi:namedview
     id="base"
     pagecolor="#ffffff"
     bordercolor="#666666"
     borderopacity="1.0"
     inkscape:pageopacity="0.0"
     inkscape:pageshadow="2"
     inkscape:zoom="3.9999998"
     inkscape:cx="37.506089"
     inkscape:cy="43.889798"
     inkscape:document-units="px"
     inkscape:current-layer="layer1"
     showgrid="false"
     units="px"
     inkscape:showpageshadow="false"
     borderlayer="true"
     inkscape:window-width="1366"
     inkscape:window-height="670"
     inkscape:window-x="-4"
     inkscape:window-y="29"
     inkscape:window-maximized="1"
     showguides="false">
    <inkscape:grid
       type="xygrid"
       id="grid4136" />
    <sodipodi:guide
       position="5,59.000069"
       orientation="54,0"
       id="guide4142" />
    <sodipodi:guide
       position="5,5.0000688"
       orientation="0,54"
       id="guide4144" />
    <sodipodi:guide
       position="59,5.0000688"
       orientation="-54,0"
       id="guide4146" />
    <sodipodi:guide
       position="59,59.000069"
       orientation="0,-54"
       id="guide4148" />
    <sodipodi:guide
       position="0,64.000069"
       orientation="64,0"
       id="guide4150" />
    <sodipodi:guide
       position="0,6.875e-05"
       orientation="0,64"
       id="guide4152" />
    <sodipodi:guide
       position="64,6.875e-05"
       orientation="-64,0"
       id="guide4154" />
    <sodipodi:guide
       position="64,64.000069"
       orientation="0,-64"
       id="guide4156" />
  </sodipodi:namedview>
  <metadata
     id="metadata7">
    <rdf:RDF>
      <cc:Work
         rdf:about="">
        <dc:format>image/svg+xml</dc:format>
        <dc:type
           rdf:resource="http://purl.org/dc/dcmitype/StillImage" />
        <dc:title></dc:title>
      </cc:Work>
    </rdf:RDF>
  </metadata>
  <g
     inkscape:label="Capa 1"
     inkscape:groupmode="layer"
     id="layer1"
     transform="translate(0,-1026.5196)">
    <g
       id="g4705"
       transform="matrix(1.3962264,0,0,1.3703704,3.3207545,-419.89618)">
      <path
         id="path4166"
         transform="translate(0,1058.5196)"
         d="M 32,9 C 16.73142,10.935371 10.513537,19.033714 9.2773438,28.955078 c -0.03821,0.335316 -0.087013,0.671156 -0.1152344,1.00586 -0.057427,0.681067 -0.095269,1.359572 -0.1132813,2.033203 -5.17e-5,0.0019 5.15e-5,0.0039 0,0.0059 l 3.2597659,0 c 0.858611,0 1.370314,-0.05032 1.701172,-0.294922 A 18,18 0 0 1 32,14 18,18 0 0 1 49.984375,31.701172 C 50.314917,31.949508 50.827927,32 51.691406,32 l 3.259766,0 c -5.2e-5,-0.0019 5.2e-5,-0.0039 0,-0.0059 -0.01801,-0.673649 -0.05586,-1.352122 -0.113281,-2.033203 -0.02822,-0.33471 -0.07703,-0.670538 -0.115235,-1.00586 C 53.486463,19.033714 47.26858,10.935371 32,9 Z M 19.765625,34.892578 C 18.770867,34.925203 17.520627,35.4931 16,36 l 5,23 c 2.224159,0 5,-1.5403 5,-4 L 22,37 c -0.500341,-1.6374 -1.239617,-2.140047 -2.234375,-2.107422 z m 24.46875,0 C 43.239617,34.859953 42.500342,35.3626 42,37 l -4,18 c 0,2.4597 2.775841,4 5,4 l 5,-23 c -1.520626,-0.5069 -2.770867,-1.074797 -3.765625,-1.107422 z"
         style="fill:#fdb854;fill-opacity:1;fill-rule:evenodd;stroke:none;stroke-width:1px;stroke-linecap:butt;stroke-linejoin:miter;stroke-opacity:1"
         inkscape:connector-curvature="0" />
      <path
         inkscape:connector-curvature="0"
         id="path4174"
         d="m 30.003322,1063.5196 c -27.1301279,5.9338 -27.5593064,26.5213 -20.9965489,47 l 2.4273349,0 1.085759,3.6855 c 0.426854,2.2274 0.90854,2.7303 3.485756,3.3145 l 4.999178,0 -4.999178,-23 -6.5926666,2.3555 c -1.8485159,-13.8524 2.6972036,-26.8336 22.5900376,-29.3555 19.892834,2.5219 24.438554,15.5031 22.590038,29.3555 l -6.592667,-2.3555 -4.999179,23 4.999179,0 c 2.577215,-0.5842 3.058901,-1.0871 3.485755,-3.3145 l 1.08576,-3.6855 2.427335,0 c 6.560785,-20.4725 6.10939,-41.0595 -20.99655,-47 l -3.999343,0 z"
         style="fill:#f4800c;fill-opacity:1;fill-rule:evenodd;stroke:none;stroke-width:1px;stroke-linecap:butt;stroke-linejoin:miter;stroke-opacity:1" />
    </g>
    <g
       id="g4729"
       transform="matrix(0.16828291,0,0,0.16828291,25.251515,1064.9721)">
      <path
         id="path4711"
         d="m 115.75,47.18 c 0,12.77 -9.99,22.18 -22.25,22.18 C 81.24,69.36 71.25,59.95 71.25,47.18 71.25,34.32 81.24,25 93.5,25 c 12.26,0 22.25,9.32 22.25,22.18 z m -9.74,0 c 0,-7.98 -5.79,-13.44 -12.51,-13.44 -6.72,0 -12.51,5.46 -12.51,13.44 0,7.9 5.79,13.44 12.51,13.44 6.72,0 12.51,-5.55 12.51,-13.44 z"
         inkscape:connector-curvature="0"
         style="fill:#ea4335" />
      <path
         id="path4713"
         d="m 163.75,47.18 c 0,12.77 -9.99,22.18 -22.25,22.18 -12.26,0 -22.25,-9.41 -22.25,-22.18 0,-12.85 9.99,-22.18 22.25,-22.18 12.26,0 22.25,9.32 22.25,22.18 z m -9.74,0 c 0,-7.98 -5.79,-13.44 -12.51,-13.44 -6.72,0 -12.51,5.46 -12.51,13.44 0,7.9 5.79,13.44 12.51,13.44 6.72,0 12.51,-5.55 12.51,-13.44 z"
         inkscape:connector-curvature="0"
         style="fill:#fbbc05" />
      <path
         id="path4715"
         d="m 209.75,26.34 0,39.82 c 0,16.38 -9.66,23.07 -21.08,23.07 -10.75,0 -17.22,-7.19 -19.66,-13.07 l 8.48,-3.53 c 1.51,3.61 5.21,7.87 11.17,7.87 7.31,0 11.84,-4.51 11.84,-13 l 0,-3.19 -0.34,0 c -2.18,2.69 -6.38,5.04 -11.68,5.04 -11.09,0 -21.25,-9.66 -21.25,-22.09 0,-12.52 10.16,-22.26 21.25,-22.26 5.29,0 9.49,2.35 11.68,4.96 l 0.34,0 0,-3.61 9.25,0 z m -8.56,20.92 c 0,-7.81 -5.21,-13.52 -11.84,-13.52 -6.72,0 -12.35,5.71 -12.35,13.52 0,7.73 5.63,13.36 12.35,13.36 6.63,0 11.84,-5.63 11.84,-13.36 z"
         inkscape:connector-curvature="0"
         style="fill:#4285f4" />
      <path
         id="path4717"
         d="m 225,3 0,65 -9.5,0 0,-65 9.5,0 z"
         inkscape:connector-curvature="0"
         style="fill:#34a853" />
      <path
         id="path4719"
         d="m 262.02,54.48 7.56,5.04 c -2.44,3.61 -8.32,9.83 -18.48,9.83 -12.6,0 -22.01,-9.74 -22.01,-22.18 0,-13.19 9.49,-22.18 20.92,-22.18 11.51,0 17.14,9.16 18.98,14.11 L 270,41.62 240.35,53.9 c 2.27,4.45 5.8,6.72 10.75,6.72 4.96,0 8.4,-2.44 10.92,-6.14 z m -23.27,-7.98 19.82,-8.23 c -1.09,-2.77 -4.37,-4.7 -8.23,-4.7 -4.95,0 -11.84,4.37 -11.59,12.93 z"
         inkscape:connector-curvature="0"
         style="fill:#ea4335" />
      <path
         id="path4721"
         d="M 35.29,41.41 35.29,32 67,32 c 0.31,1.64 0.47,3.58 0.47,5.68 0,7.06 -1.93,15.79 -8.15,22.01 -6.05,6.3 -13.78,9.66 -24.02,9.66 C 16.32,69.35 0.36,53.89 0.36,34.91 0.36,15.93 16.32,0.47 35.3,0.47 c 10.5,0 17.98,4.12 23.6,9.49 L 52.26,16.6 C 48.23,12.82 42.77,9.88 35.29,9.88 c -13.86,0 -24.7,11.17 -24.7,25.03 0,13.86 10.84,25.03 24.7,25.03 8.99,0 14.11,-3.61 17.39,-6.89 2.66,-2.66 4.41,-6.46 5.1,-11.65 l -22.49,0.01 z"
         inkscape:connector-curvature="0"
         style="fill:#4285f4" />
    </g>
  </g>
</svg>
