<?xml version="1.0" encoding="UTF-8" standalone="no"?>
<!-- Created with Inkscape (http://www.inkscape.org/) -->

<svg
   xmlns:dc="http://purl.org/dc/elements/1.1/"
   xmlns:cc="http://creativecommons.org/ns#"
   xmlns:rdf="http://www.w3.org/1999/02/22-rdf-syntax-ns#"
   xmlns:svg="http://www.w3.org/2000/svg"
   xmlns="http://www.w3.org/2000/svg"
   xmlns:sodipodi="http://sodipodi.sourceforge.net/DTD/sodipodi-0.dtd"
   xmlns:inkscape="http://www.inkscape.org/namespaces/inkscape"
   id="svg2"
   version="1.1"
   inkscape:version="0.91 r13725"
   width="96"
   height="96"
   sodipodi:docname="gufw_menu.svg">
  <metadata
     id="metadata8">
    <rdf:RDF>
      <cc:Work
         rdf:about="">
        <dc:format>image/svg+xml</dc:format>
        <dc:type
           rdf:resource="http://purl.org/dc/dcmitype/StillImage" />
        <dc:title />
      </cc:Work>
    </rdf:RDF>
  </metadata>
  <defs
     id="defs6" />
  <sodipodi:namedview
     pagecolor="#ffffff"
     bordercolor="#666666"
     borderopacity="1"
     objecttolerance="10"
     gridtolerance="10"
     guidetolerance="10"
     inkscape:pageopacity="0"
     inkscape:pageshadow="2"
     inkscape:window-width="993"
     inkscape:window-height="716"
     id="namedview4"
     showgrid="false"
     inkscape:zoom="4.6790585"
     inkscape:cx="-2.3195465"
     inkscape:cy="60.054876"
     inkscape:window-x="177"
     inkscape:window-y="24"
     inkscape:window-maximized="0"
     inkscape:current-layer="svg2" />
  <rect
     style="opacity:1;fill:#e6e6e6;fill-opacity:1;fill-rule:nonzero;stroke:none;stroke-width:6;stroke-linecap:square;stroke-linejoin:miter;stroke-miterlimit:4;stroke-dasharray:none;stroke-opacity:1"
     id="rect8152"
     width="84"
     height="84"
     x="6"
     y="6" />
  <ellipse
     ry="12.070902"
     rx="12.839328"
     cy="64.154457"
     cx="31.449568"
     style="fill:#ff7f2a;fill-opacity:1;fill-rule:nonzero;stroke:#8b8b8b;stroke-width:0;stroke-linecap:round;stroke-linejoin:miter;stroke-miterlimit:4;stroke-dasharray:none;stroke-opacity:1"
     id="path2991" />
  <ellipse
     ry="6.162878"
     rx="11.914896"
     cy="75.104362"
     cx="31.630007"
     style="fill:#ff7f2a;fill-opacity:1;fill-rule:nonzero;stroke:#8b8b8b;stroke-width:0;stroke-linecap:round;stroke-linejoin:miter;stroke-miterlimit:4;stroke-dasharray:none;stroke-opacity:1"
     id="path2989" />
  <path
     inkscape:connector-curvature="0"
     style="fill:#ff9955"
     d="m 49.455428,78.814525 c 0,-0.106647 0.426014,-0.673246 0.946696,-1.259109 2.05969,-2.317519 3.634678,-4.862801 4.795579,-7.749966 0.349072,-0.868141 0.704333,-1.648095 0.789469,-1.733231 0.09142,-0.09143 1.244571,-0.133872 2.816879,-0.103687 l 2.662086,0.05111 0.603001,0.60315 0.603002,0.603151 0.04377,4.042723 c 0.06522,6.024407 0.586235,5.626491 -7.45314,5.69226 -4.463858,0.03652 -5.807343,0.0026 -5.807343,-0.146396 z"
     id="path3773" />
  <path
     inkscape:connector-curvature="0"
     style="fill:#ff9955"
     d="m 68.27923,78.876123 c -0.521264,-0.130515 -1.18869,-0.674725 -1.452028,-1.183964 -0.205601,-0.397589 -0.23787,-1.126827 -0.197836,-4.470658 l 0.04784,-3.995577 0.60332,-0.603144 0.60332,-0.603143 7.69353,-0.04455 c 8.53308,-0.04941 8.498243,-0.05319 9.145187,0.992939 0.282602,0.456974 0.301918,0.79745 0.261441,4.608413 l -0.04371,4.114982 -0.4715,0.491856 c -0.259326,0.270519 -0.727919,0.563088 -1.041317,0.65015 -0.575237,0.159802 -14.523522,0.199111 -15.14825,0.04269 z"
     id="path3771" />
  <path
     inkscape:connector-curvature="0"
     style="fill:#ff9955"
     d="m 56.78272,64.45513 c -0.03351,-0.06608 0.01105,-0.985246 0.09905,-2.042583 0.189871,-2.281491 -0.03448,-5.318528 -0.53879,-7.293733 -0.181283,-0.710019 -0.286977,-1.359923 -0.234873,-1.444228 0.05908,-0.09559 5.113362,-0.153282 13.428248,-0.153282 l 13.333515,0 0.702952,0.360456 c 1.218528,0.62483 1.287408,0.901181 1.287121,5.164034 -3.21e-4,4.128628 -0.07497,4.47786 -1.10481,5.165839 l -0.544351,0.363649 -13.183566,0 c -7.25096,0 -13.210986,-0.05407 -13.244501,-0.120152 z"
     id="path3769" />
  <path
     inkscape:connector-curvature="0"
     style="fill:#ff9955"
     d="M 54.018707,48.764269 C 53.015973,46.908299 52.302079,45.871462 50.713923,43.964503 49.25669,42.214749 47.6932,39.913842 47.6932,39.519066 c 0,-0.230184 0.67233,-0.25579 6.716215,-0.25579 l 6.716218,0 0.514682,0.433077 c 0.881948,0.742109 0.951724,1.109699 0.951724,5.01381 0,3.827859 -0.06971,4.224441 -0.87299,4.96628 -0.428741,0.395948 -0.470693,0.401064 -3.685909,0.449547 l -3.252234,0.04904 -0.762199,-1.410764 z"
     id="path3767" />
  <path
     inkscape:connector-curvature="0"
     style="fill:#ff9955"
     d="m 67.44687,49.843694 c -1.065542,-0.649703 -1.090071,-0.765209 -1.090071,-5.13322 0,-4.368061 0.02466,-4.484222 1.090071,-5.133842 0.488589,-0.297911 0.862047,-0.312185 8.18277,-0.312757 7.411751,-6.41e-4 7.688459,0.0103 8.193325,0.322331 0.959126,0.592773 1.037231,0.978613 1.037231,5.123957 0,4.145344 -0.07811,4.531184 -1.037231,5.123958 -0.504866,0.312023 -0.781574,0.322909 -8.193325,0.32233 -7.320723,-6.4e-4 -7.694181,-0.01485 -8.18277,-0.312757 z"
     id="path2994" />
  <path
     inkscape:connector-curvature="0"
     id="path2984"
     d="m 41.359932,77.402918 c 0.532261,-1.502321 0.599065,-4.140309 0.143009,-5.647141 -0.644684,-2.130063 -1.301201,-3.18515 -3.278349,-5.268631 -2.15438,-2.270249 -3.437242,-3.984762 -4.33619,-5.795216 -0.70682,-1.423511 -1.411907,-3.543066 -1.589777,-4.779008 -0.09434,-0.655547 -0.178228,-0.818212 -0.421959,-0.818212 -0.250749,0 -0.368274,0.261177 -0.668782,1.486252 -0.937273,3.820955 -2.223179,6.001866 -5.609592,9.513932 -1.704866,1.768124 -2.05055,2.221038 -2.690017,3.524457 -0.40357,0.822589 -0.842324,1.925286 -0.97501,2.450439 -0.447232,1.77009 -0.243931,4.3614 0.474972,6.054039 0.196489,0.462629 -0.123449,0.33079 -1.699951,-0.700513 -1.816526,-1.188315 -4.703642,-4.020924 -5.858243,-5.74764 -2.319313,-3.468557 -3.412409,-7.107945 -3.40948,-11.351643 0.0036,-5.155726 1.5746,-9.333423 5.039002,-13.399654 7.98019,-9.366493 11.625292,-20.319019 10.1722,-30.564655 -0.08761,-0.617723 -0.130938,-1.151483 -0.09629,-1.186133 0.08678,-0.08678 1.99032,3.229582 2.894447,5.042729 2.349109,4.710924 4.442456,11.44456 5.115547,16.455094 0.169432,1.261264 0.233146,1.441824 0.508777,1.441824 0.216418,0 0.33021,-0.12542 0.363374,-0.400507 0.125571,-1.041578 0.759057,-3.182608 1.646461,-5.444481 0.536335,-1.36705 1.160555,-2.990184 1.358993,-3.606964 0.322373,-1.00199 0.519688,-2.812225 0.546395,-2.696216 4.3e-5,1.6e-4 8.5e-5,3.21e-4 1.28e-4,6.41e-4 0.0025,0.01144 0.0034,0.03979 0.0028,0.08731 -0.05922,4.854832 1.66771,9.974034 3.542183,13.83665 1.052478,2.168781 3.067238,5.297075 4.276955,6.640782 4.48139,5.312657 6.450369,12.49459 4.803078,18.772613 -0.239403,0.85654 -0.669754,2.150707 -0.956334,2.875924 -1.07478,2.719836 -3.526099,5.974097 -5.965756,7.919872 -1.252035,0.998573 -3.378142,2.433354 -3.640012,2.456425 -0.05725,0.005 0.08108,-0.513491 0.307399,-1.152299 z"
     style="fill:#ca1313;stroke:#ca1313;stroke-width:0.88111413;stroke-miterlimit:4;stroke-dasharray:none;stroke-opacity:1"
     sodipodi:nodetypes="cssssssssssssssssssssssssssccsscsc" />
</svg>
