<?xml version="1.0" encoding="UTF-8" standalone="no"?>
<svg
   xmlns:dc="http://purl.org/dc/elements/1.1/"
   xmlns:cc="http://creativecommons.org/ns#"
   xmlns:rdf="http://www.w3.org/1999/02/22-rdf-syntax-ns#"
   xmlns:svg="http://www.w3.org/2000/svg"
   xmlns="http://www.w3.org/2000/svg"
   xmlns:sodipodi="http://sodipodi.sourceforge.net/DTD/sodipodi-0.dtd"
   xmlns:inkscape="http://www.inkscape.org/namespaces/inkscape"
   width="96"
   version="1.0"
   height="96"
   id="svg2"
   inkscape:version="0.91 r13725"
   sodipodi:docname="org.gnome.Cheese.svg">
  <metadata
     id="metadata28">
    <rdf:RDF>
      <cc:Work
         rdf:about="">
        <dc:format>image/svg+xml</dc:format>
        <dc:type
           rdf:resource="http://purl.org/dc/dcmitype/StillImage" />
        <dc:title />
      </cc:Work>
    </rdf:RDF>
  </metadata>
  <sodipodi:namedview
     pagecolor="#ffffff"
     bordercolor="#666666"
     borderopacity="1"
     objecttolerance="10"
     gridtolerance="10"
     guidetolerance="10"
     inkscape:pageopacity="0"
     inkscape:pageshadow="2"
     inkscape:window-width="640"
     inkscape:window-height="480"
     id="namedview26"
     showgrid="false"
     inkscape:zoom="4"
     inkscape:cx="-10.421022"
     inkscape:cy="52.571223"
     inkscape:current-layer="svg2" />
  <defs
     id="defs2410">
    <filter
       style="color-interpolation-filters:sRGB"
       id="filter3174">
      <feGaussianBlur
         stdDeviation="1.71"
         id="feGaussianBlur3176" />
    </filter>
    <linearGradient
       gradientTransform="scale(1.0058652,0.994169)"
       id="ButtonShadow"
       y1="92.539597"
       x1="45.447727"
       y2="7.0165396"
       x2="45.447727"
       gradientUnits="userSpaceOnUse">
      <stop
         offset="0"
         id="stop3750" />
      <stop
         offset="1"
         style="stop-opacity:.588"
         id="stop3752" />
    </linearGradient>
  </defs>
  <rect
     id="rect2419"
     style="text-align:start;fill:#ffd42a;stroke:none"
     ry="0.056761779"
     height="84"
     rx="6"
     y="6"
     x="6"
     width="84" />
  <g
     style="display:none"
     id="layer2">
    <rect
       width="86"
       x="5"
       y="7"
       rx="6"
       height="85"
       ry="6"
       style="opacity:.9;fill:url(#ButtonShadow);filter:url(#filter3174);stroke:none"
       id="rect3745" />
  </g>
  <path
     style="fill:#000000"
     d=""
     id="path4149"
     inkscape:connector-curvature="0" />
  <g
     id="g4159"
     transform="translate(0.04412153,-0.0393905)"
     style="fill:#ff6600">
    <path
       inkscape:connector-curvature="0"
       id="path4151"
       d="m 12.689008,48.03939 0.04463,-35.222756 35.266951,0 35.266951,0 0,13.169864 0,13.169863 -4.375223,0.04728 -4.375223,0.04728 0,-2.205826 c 0,-1.54959 -0.06574,-2.26006 -0.220971,-2.388121 -1.469442,-1.212237 -3.42676,-2.443947 -5.260325,-3.310241 -1.401091,-0.661967 -4.159354,-1.294376 -5.645429,-1.294376 -1.055413,0 -3.388321,0.398567 -4.341236,0.741682 -1.19614,0.430694 -3.790533,1.84466 -4.949748,2.697657 -1.829808,1.346446 -1.736369,1.32145 -1.599527,0.427927 0.542625,-3.543083 3.313491,-6.323529 7.521547,-7.547554 0.680687,-0.197996 1.714486,-0.284297 3.447145,-0.287765 2.253799,-0.0045 2.613884,0.0404 4.031057,0.502727 1.538374,0.501873 3.270729,1.470573 4.253749,2.378617 0.906863,0.837694 1.86949,2.282902 2.187407,3.28399 0.171141,0.538907 0.370828,0.980928 0.443748,0.982267 0.07292,0.0013 0.132583,-2.622702 0.132583,-5.831199 l 0,-5.833631 -26.516505,0 -26.516504,0 0,5.844064 c 0,5.416608 0.105356,6.648553 0.438767,5.130545 0.146999,-0.669282 1.201907,-2.418564 1.914946,-3.175425 0.965302,-1.024628 2.994109,-2.23466 4.655261,-2.776517 1.426808,-0.465415 1.78279,-0.509956 4.039569,-0.505438 1.732659,0.0035 2.766458,0.08977 3.447146,0.287765 3.842355,1.117651 6.552859,3.573513 7.341471,6.651762 0.444118,1.733563 0.358004,1.775045 -1.242675,0.598633 -1.308809,-0.961902 -3.875308,-2.377901 -5.126524,-2.828425 -0.951938,-0.342763 -3.285369,-0.741682 -4.338382,-0.741682 -2.923481,0 -6.77441,1.478721 -9.75956,3.747579 l -1.370019,1.04128 0,2.165888 0,2.165887 0.662912,0.621119 c 1.125675,1.054705 1.954961,1.584119 3.548377,2.265279 1.386174,0.592568 2.11982,0.829132 4.362381,1.406656 2.591496,0.667385 4.57538,0.815695 10.783378,0.806141 3.703184,-0.0057 6.71947,-0.09074 7.51301,-0.211807 0.729204,-0.111256 1.917937,-0.255536 2.64163,-0.320624 l 1.315804,-0.118339 -0.985265,1.088753 c -2.498125,2.760517 -4.251967,6.168805 -5.010672,9.737372 -0.379691,1.785877 -0.377108,5.336773 0.0051,7.071068 0.580582,2.634124 1.547955,4.780114 3.117568,6.915912 0.473184,0.643871 0.860333,1.230334 0.860333,1.303255 0,0.16344 -2.626972,0.01036 -4.419417,-0.257522 -2.753161,-0.411469 -6.300334,-1.351521 -8.396893,-2.225298 -4.558656,-1.899899 -7.380578,-3.685328 -10.184067,-6.443454 -2.141791,-2.107136 -3.080473,-3.330927 -4.067486,-5.302918 -0.706787,-1.412117 -1.393185,-3.334597 -1.393185,-3.902066 0,-0.176052 -0.07955,-0.369256 -0.176777,-0.429346 -0.117169,-0.07241 -0.176776,3.827979 -0.176776,11.567401 l 0,11.676656 14.363106,0.04523 14.363107,0.04523 0.04728,4.375223 0.04728,4.375223 -18.830241,0 -18.830243,0 0.04463,-35.222757 z"
       style="opacity:1;fill:#ff6600;fill-opacity:1;fill-rule:evenodd;stroke:#fb5d40;stroke-width:0.17677669;stroke-linecap:butt;stroke-linejoin:miter;stroke-miterlimit:4;stroke-dasharray:none;stroke-opacity:0.78431373" />
    <path
       inkscape:connector-curvature="0"
       id="path4153"
       d="m 65.413093,74.311568 c -0.291682,-0.04494 -1.286051,-0.313041 -2.209709,-0.595785 -3.477616,-1.064546 -6.555306,-3.475497 -8.506872,-6.663979 -3.69589,-6.038369 -2.76718,-13.887899 2.234958,-18.890037 1.875604,-1.875604 4.196584,-3.218082 7.067409,-4.087861 0.836685,-0.253492 1.657929,-0.320956 3.889088,-0.31948 2.614932,0.0017 2.948322,0.03981 4.416811,0.504503 3.541663,1.120735 6.438828,3.285266 8.412402,6.285078 1.925546,2.926809 2.530392,5.208265 2.417428,9.118451 -0.06916,2.394177 -0.12937,2.802731 -0.62003,4.207583 -0.777133,2.225077 -1.87082,4.033568 -3.453483,5.710583 -1.951012,2.067324 -3.72314,3.193829 -6.521235,4.145412 -1.487446,0.505854 -1.886022,0.565194 -4.121563,0.613624 -1.361181,0.02949 -2.713523,0.01685 -3.005204,-0.02809 z m 5.250072,-9.322805 c 2.659626,-1.272677 4.287844,-4.423685 3.685479,-7.132321 -0.4758,-2.139508 -1.786205,-3.837698 -3.678313,-4.766828 -0.920133,-0.451836 -1.187415,-0.497771 -2.870753,-0.493363 -1.671149,0.0044 -1.948007,0.0528 -2.777707,0.485807 -1.775152,0.92643 -2.939054,2.324145 -3.482264,4.181806 -0.955152,3.266419 0.921353,6.833342 4.213459,8.009084 1.350408,0.482284 3.577745,0.353371 4.910099,-0.284185 z"
       style="opacity:1;fill:#ff6600;fill-opacity:1;fill-rule:evenodd;stroke:#fb5d40;stroke-width:0.17677669;stroke-linecap:butt;stroke-linejoin:miter;stroke-miterlimit:4;stroke-dasharray:none;stroke-opacity:0.78431373" />
    <path
       inkscape:connector-curvature="0"
       id="path4155"
       d="m 66.54409,60.76085 c -2.030189,-1.366186 -0.433414,-4.529632 1.886001,-3.736446 1.295678,0.443092 1.920484,1.698123 1.395825,2.803758 -0.599703,1.263781 -2.139514,1.701391 -3.281826,0.932688 z"
       style="opacity:1;fill:#ff6600;fill-opacity:1;fill-rule:evenodd;stroke:#fb5d40;stroke-width:0.17677669;stroke-linecap:butt;stroke-linejoin:miter;stroke-miterlimit:4;stroke-dasharray:none;stroke-opacity:0.78431373" />
    <path
       inkscape:connector-curvature="0"
       id="path4157"
       d="m 56.750201,83.041176 c -0.460107,-1.301362 -0.593711,-4.972554 -0.25231,-6.933023 0.279884,-1.60721 0.330539,-1.642211 1.334492,-0.922113 1.292702,0.927208 4.543587,2.498734 6.343273,3.066434 1.400239,0.441696 1.845326,0.499848 3.712311,0.485026 1.815563,-0.01441 2.325158,-0.08609 3.535534,-0.497307 1.715811,-0.582932 5.13523,-2.216291 6.415532,-3.064517 0.514499,-0.340867 0.976938,-0.578274 1.027643,-0.52757 0.517348,0.517348 0.812494,5.214589 0.433591,6.900577 -0.09162,0.407656 -0.212455,0.959954 -0.268534,1.227328 l -0.101958,0.486136 -11.050724,0 c -8.681061,0 -11.067477,-0.04738 -11.12885,-0.220971 z"
       style="opacity:1;fill:#ff6600;fill-opacity:1;fill-rule:evenodd;stroke:#fb5d40;stroke-width:0.17677669;stroke-linecap:butt;stroke-linejoin:miter;stroke-miterlimit:4;stroke-dasharray:none;stroke-opacity:0.78431373" />
  </g>
</svg>
