<?xml version="1.0" encoding="UTF-8" standalone="no"?>
<svg
   xmlns:dc="http://purl.org/dc/elements/1.1/"
   xmlns:cc="http://creativecommons.org/ns#"
   xmlns:rdf="http://www.w3.org/1999/02/22-rdf-syntax-ns#"
   xmlns:svg="http://www.w3.org/2000/svg"
   xmlns="http://www.w3.org/2000/svg"
   xmlns:sodipodi="http://sodipodi.sourceforge.net/DTD/sodipodi-0.dtd"
   xmlns:inkscape="http://www.inkscape.org/namespaces/inkscape"
   width="96"
   version="1.0"
   height="96"
   id="svg15501"
   inkscape:version="0.91 r13725"
   sodipodi:docname="parley-simple.svg">
  <metadata
     id="metadata15511">
    <rdf:RDF>
      <cc:Work
         rdf:about="">
        <dc:format>image/svg+xml</dc:format>
        <dc:type
           rdf:resource="http://purl.org/dc/dcmitype/StillImage" />
        <dc:title></dc:title>
      </cc:Work>
    </rdf:RDF>
  </metadata>
  <defs
     id="defs15509" />
  <sodipodi:namedview
     pagecolor="#ffffff"
     bordercolor="#666666"
     borderopacity="1"
     objecttolerance="10"
     gridtolerance="10"
     guidetolerance="10"
     inkscape:pageopacity="0"
     inkscape:pageshadow="2"
     inkscape:window-width="640"
     inkscape:window-height="480"
     id="namedview15507"
     showgrid="false"
     inkscape:zoom="4.4783429"
     inkscape:cx="36.121118"
     inkscape:cy="49.607146"
     inkscape:current-layer="svg15501" />
  <rect
     style="opacity:1;fill:#437dc6;fill-opacity:1;fill-rule:evenodd;stroke:none;stroke-width:1;stroke-linecap:butt;stroke-linejoin:miter;stroke-miterlimit:4;stroke-dasharray:none;stroke-opacity:1"
     id="rect26367"
     width="84"
     height="84"
     x="6"
     y="6" />
  <path
     inkscape:connector-curvature="0"
     d="m 36.273767,6.0997386 c 1.650119,2.2932803 0.11259,6.1228284 2.601478,6.0848174 1.2119,1.773229 -2.415448,0.528962 0.2036,1.895652 1.506099,1.227579 -1.593399,1.928955 0.27178,3.030597 -2.149678,1.148002 0.34844,6.004525 1.945119,7.21998 2.627948,2.289626 1.162199,-4.847626 4.094497,-5.218892 1.593359,-1.88258 4.391837,-3.091055 6.379266,-4.984873 -1.942299,-0.163189 -3.076468,-1.414365 -1.23702,-2.189418 3.385448,3.590301 0.8489,-1.700315 -1.025139,-2.5380024 1.813359,-0.5969841 3.576978,-0.1598178 3.325368,-1.7084318 1.916318,-1.4509796 -1.842259,-1.9194415 -3.183938,-1.5914155 -4.458337,0 -8.916664,0 -13.374991,0 z M 8.4719859,7.5975849 C 6.0222278,8.3199033 5.8513479,14.378943 8.3136359,11.014435 8.9179789,9.6329203 11.710714,7.9680155 8.4719859,7.5975849 Z M 19.918478,7.8082388 c -1.412259,2.2918842 0.204911,4.1294182 1.379909,1.3339825 0.83171,-1.1673264 -0.61793,-1.2912138 -1.379909,-1.3339825 z m 3.528998,0.5147949 c -2.728748,1.3089243 -0.6726,4.3612193 -0.60506,5.0400753 2.874568,1.029202 4.473227,-0.672911 5.560687,2.236162 2.735158,1.631424 -0.0538,4.466232 -1.08054,5.204506 1.849339,-1.666863 5.404157,4.531823 4.472257,1.256901 -1.111789,-0.840135 2.985148,1.349633 0.85962,-1.380789 -1.956069,-3.26159 0.15527,-1.460178 0.979949,-0.698952 2.804878,-2.603033 -3.173598,-2.917659 -1.681229,-5.596495 -1.307749,-1.096198 -3.022888,-4.4170105 -5.338666,-3.767898 -1.550239,2.074865 -0.21415,-4.5209555 -2.488608,-1.2203226 -0.11789,1.8450346 -0.0429,4.1862766 -0.70571,0.9898856 -0.44407,-0.5595617 0.763999,-1.8604336 0.0273,-2.0630665 z m -5.564896,0.023406 c -1.831599,0.631959 -1.733229,3.1931513 0.518955,3.4677273 0.771434,-0.910026 0.306494,-3.295399 -0.518955,-3.4677273 z M 10.734185,9.1656493 C 8.3551059,9.74901 9.3261959,11.734299 10.054613,12.293428 c -2.9449181,0.763421 4.495687,0.975714 0.79268,1.459233 -3.0807881,1.27336 2.966658,2.773569 3.958767,1.263765 3.804387,0.962894 0.136908,-3.151815 -0.197041,-5.3822956 C 12.99627,7.8428196 14.545369,13.763576 13.08715,9.8249097 12.578363,10.994514 10.960622,9.997264 10.734182,9.1656397 Z M 86.335233,9.423115 c -3.192438,1.293047 1.984178,6.172583 0.697649,1.733384 -0.12817,-0.536028 0.28819,-1.9523052 -0.697649,-1.733384 z m -66.665554,1.965966 c -2.294079,2.231234 2.915988,4.076337 -0.658894,5.73856 -0.53602,-2.072142 -1.458279,1.036733 -3.503468,-0.636682 -3.515897,1.515066 -5.313866,-0.789184 -8.2575241,-2.368672 -1.7680287,-0.227772 -1.1037792,1.7386 -1.2208791,3.579747 0,5.088243 0,10.176499 0,15.26481 1.7334891,1.887522 0.6763291,0.832791 0,0.312178 0.9514661,3.35364 -0.4195717,8.255963 3.3308481,10.206722 0.637562,1.223914 3.3128771,6.438097 3.4362171,4.877958 -1.341209,-1.453621 -2.717348,-5.811488 -0.447895,-1.927394 2.032758,3.692096 4.774746,6.086788 8.780464,6.965389 2.190058,0.770974 3.991167,3.42123 5.917116,2.838106 1.089049,2.971205 -3.227408,5.824408 0.144909,8.595677 1.760519,2.805488 4.716177,4.645555 3.115958,8.584276 -1.119069,3.846726 -0.639929,8.038204 -1.607789,11.622236 -0.300389,2.181588 2.938038,7.718802 2.657469,3.284818 0.945569,-3.081309 0.920639,-6.471769 3.147587,-8.653864 3.047108,0.02497 0.58237,-3.390994 3.606998,-2.944747 1.845649,-2.503688 2.380228,-5.490497 5.494906,-6.484676 0.37205,-3.039097 5.178817,-7.693548 0.21314,-8.876796 -1.349609,-0.688443 -4.824497,-0.935992 -4.558937,-1.275679 0.53803,-3.015594 -4.493467,-3.874087 -6.634235,-5.10787 -2.810748,-2.064819 -7.034225,3.430154 -8.024505,-1.304598 -0.590879,-1.489702 -2.751328,-1.513861 -1.758429,-3.812548 -1.789388,1.841832 -5.289336,1.282054 -4.373027,-2.274884 1.391569,-2.995651 6.735636,-3.137374 7.646255,0.46584 -1.264349,-3.973926 2.443938,-7.067472 4.502527,-9.894683 0.41916,-1.351331 2.909738,-2.512338 2.052679,-0.716346 1.460149,-0.0545 3.673277,-2.781535 1.079409,-1.522868 -0.0367,-2.486947 -2.272979,-1.779717 -2.997998,-1.426574 1.343769,-2.207294 8.244974,-1.000542 5.355086,-4.608502 -2.239298,-0.939041 -2.053018,-6.418825 -4.317997,-3.366013 0.1906,-1.880966 -4.610007,-5.562933 -4.505247,-2.408764 0.58599,2.822392 0.10714,6.073717 -1.139919,7.923748 -0.26025,-4.135742 -7.075685,-3.221691 -6.199426,-7.628778 1.26945,-2.100434 2.752849,-5.005076 2.894178,-4.743764 2.275049,-0.898965 4.104588,-3.513868 1.467829,-5.232894 -0.140919,1.498243 -1.983028,4.589421 -1.723658,0.850738 -1.705789,2.093084 -1.316199,-3.330645 -2.913748,-3.893141 z m 54.449962,1.450897 c -3.995937,1.011625 -5.580066,4.961536 -7.556805,8.233132 -2.913858,1.359641 -2.802938,7.198737 0.45241,5.333813 0.871279,1.574868 -0.60951,4.057175 1.928309,1.997955 2.046998,-2.803545 0.357939,-7.337818 3.841417,-9.105627 0.25374,1.374561 -3.213338,6.507206 0.83699,5.663564 3.661557,0.142985 -2.661849,0.37758 -0.88099,2.798193 -1.850269,-1.136152 -0.888839,3.102963 -3.303988,2.116476 -2.092318,1.177874 -3.464327,-0.546894 -2.985028,-2.436331 -1.645958,0.993762 0.5177,3.797273 -2.339578,3.965768 -0.64005,2.35222 -5.903376,1.997681 -2.910198,4.39288 1.328899,3.564403 -4.951537,0.223449 -3.168538,4.500848 1.525449,4.229708 4.722397,-1.401526 6.019426,-2.489494 2.502478,-2.008973 6.210656,3.425487 3.958767,3.627476 2.525079,-0.350621 2.006189,-2.83597 -0.0169,-3.798148 -1.092679,-2.93288 3.459028,1.43836 3.206598,2.908844 1.605949,3.112285 0.94462,-3.186513 2.578848,-0.397852 -0.190799,2.941626 6.574176,0.691655 3.344388,4.440731 -2.776878,0.578845 -5.510126,-0.740887 -7.900824,0.10441 -2.225109,-0.02038 -2.113469,-2.480815 -2.923578,-3.096981 -2.830369,0.237989 -6.327936,0.211076 -8.222765,2.577491 -2.049018,2.909515 -5.003826,6.976819 -2.770528,10.691924 2.234869,5.505334 7.777175,0.285564 10.962993,3.536891 0.946929,1.355657 -0.8206,2.967126 1.296699,4.435557 0.796719,3.128012 -0.90448,6.097985 1.052269,9.088175 1.011839,2.812113 1.639779,7.021126 5.405756,4.451463 3.985767,-2.482362 2.924158,-7.058424 6.212936,-9.593032 -2.602268,-5.212144 3.183628,-7.497499 4.627217,-11.72885 -3.153948,0.477867 -5.963766,-2.776497 -6.725786,-6.052063 -1.324939,-1.591018 -0.983679,-3.936982 0.49633,-0.948134 2.034259,2.040044 2.078209,8.093366 5.841266,4.979316 1.720349,-0.744707 6.418596,-3.585469 2.675108,-4.878246 -2.413038,1.808804 -5.075246,-5.404771 -1.531819,-1.220736 C 88.196061,48.07047 90,48.744376 90,44.994272 c 0,-10.103557 0,-20.344046 0,-30.516069 -0.802399,0.848622 -2.863798,2.415922 -3.904277,1.374479 -1.790369,0.258023 -4.153887,3.863316 -3.591248,0.378168 -1.556239,-0.106654 -0.278579,3.124891 -2.416638,3.215285 -0.21529,1.661373 -2.159868,0.307653 -1.429429,1.885332 -1.500649,-1.101674 -2.770668,-4.580004 0.18614,-2.396773 4.391027,-1.36338 -2.895598,-4.438652 -3.458038,-5.181977 0.94545,-0.234444 -1.028609,-1.254137 -1.266809,-0.912722 z m -36.239675,0.912697 c -1.461499,1.260296 2.778538,1.497627 0,0 z M 18.35758,14.431312 c -1.634649,1.769602 2.603278,1.626784 0,0 z m 9.478393,1.755312 c -1.237859,2.098668 1.829029,0.774822 0,0 z m 27.100581,2.480761 c -1.449229,1.726746 -3.362047,-0.454442 -3.393227,1.029737 0.26265,0.448451 1.314669,3.649172 3.619447,1.287178 1.236979,-0.539737 0.74995,-1.900347 -0.22622,-2.316919 z m -30.855778,1.029726 c -2.748809,2.484457 4.668296,2.71337 0.582319,0.284943 l -0.582299,-0.284978 z m 36.262275,6.880539 c -1.979089,1.33565 0.949429,4.172152 -0.0431,5.504568 -1.240099,2.236148 4.608317,-0.157515 1.484609,-1.941602 -0.22257,-1.532804 -1.830019,-3.403011 -1.441539,-3.562952 z m -1.334699,2.691415 c -2.757389,0.806804 -0.62595,4.972308 0.350669,1.04903 0.0549,-0.227454 0.12936,-1.056638 -0.350669,-1.04903 z m -22.078585,3.018962 c -2.565219,1.810295 -0.39843,3.617251 1.481559,2.802737 -0.38596,-1.092243 -1.464169,-1.780416 -1.481559,-2.802724 z m 48.455266,3.042367 c 1.27995,0.668527 -2.345538,1.810556 -0.0498,2.987124 1.33598,1.625977 0.83231,5.11633 -1.339199,2.646013 0.40344,-2.758115 -2.943558,-4.817883 1.389029,-5.633137 z m -6.582895,0.02341 c -0.17366,1.77197 3.693947,4.526321 -0.47504,3.627477 -2.204748,0.267664 -5.506966,-0.06973 -2.729428,-2.912964 0.87765,-0.545296 3.182058,1.881334 1.982919,-0.386871 0.425129,-0.02807 0.821069,-0.194158 1.221549,-0.327646 z m -12.735891,3.838172 c -1.608109,1.072224 1.111989,1.894393 0,0 z M 25.686874,49.1851 c -0.271109,0.936066 5.085977,1.884702 1.38929,0.385007 l -0.5511,-0.200662 -0.8382,-0.184237 z m 4.162298,1.334004 c -1.624909,1.707228 3.347817,0.510051 0,0 z m 54.336862,15.656689 c -3.530717,0.09428 -3.061328,9.51953 -0.600129,3.942499 0.233399,-1.210219 1.168899,-2.807541 0.600129,-3.942499 z"
     id="path3522-9"
     style="opacity:0.8;fill:#ffffff;stroke:none" />
</svg>
