<?xml version="1.0" encoding="UTF-8" standalone="no"?>
<svg
   xmlns:dc="http://purl.org/dc/elements/1.1/"
   xmlns:cc="http://creativecommons.org/ns#"
   xmlns:rdf="http://www.w3.org/1999/02/22-rdf-syntax-ns#"
   xmlns:svg="http://www.w3.org/2000/svg"
   xmlns="http://www.w3.org/2000/svg"
   xmlns:sodipodi="http://sodipodi.sourceforge.net/DTD/sodipodi-0.dtd"
   xmlns:inkscape="http://www.inkscape.org/namespaces/inkscape"
   width="96"
   version="1.1"
   height="96"
   id="svg2"
   inkscape:version="0.91 r13725"
   sodipodi:docname="preferences-system-privacy.svg">
  <metadata
     id="metadata31">
    <rdf:RDF>
      <cc:Work
         rdf:about="">
        <dc:format>image/svg+xml</dc:format>
        <dc:type
           rdf:resource="http://purl.org/dc/dcmitype/StillImage" />
        <dc:title></dc:title>
      </cc:Work>
    </rdf:RDF>
  </metadata>
  <defs
     id="defs29" />
  <sodipodi:namedview
     pagecolor="#ffffff"
     bordercolor="#666666"
     borderopacity="1"
     objecttolerance="10"
     gridtolerance="10"
     guidetolerance="10"
     inkscape:pageopacity="0"
     inkscape:pageshadow="2"
     inkscape:window-width="640"
     inkscape:window-height="480"
     id="namedview27"
     showgrid="false"
     inkscape:zoom="3.3587572"
     inkscape:cx="47.302814"
     inkscape:cy="42.560844"
     inkscape:current-layer="svg2" />
  <g
     id="g4377">
    <rect
       id="rect4158"
       style="fill:#c8c8c8;fill-rule:evenodd;stroke:none;stroke-linecap:square"
       height="29.608809"
       y="60.39119"
       x="6.0000167"
       width="83.999985" />
    <rect
       id="rect4156"
       style="fill:#f0f0f0;fill-rule:evenodd;stroke:none;stroke-linecap:square"
       height="29.732428"
       y="6"
       x="6.0000167"
       width="83.999985" />
    <path
       d="m 16.34838,11.454303 -5.250525,0 5.25e-4,5.600563 5.25,0 z m 0,5.601123 0,5.600003 5.25,0 0,-5.600003 z m 5.25,0 5.249999,0 0,-5.600003 -5.249999,0 z m 5.249999,0 0,5.600003 5.25,0 0,-5.600003 z m 0,5.600003 -5.249999,0 0,5.600003 5.249999,0 z m -10.499999,0 -5.250525,0 5.25e-4,5.600003 5.25,0 z"
       id="rect18283"
       style="color:#000000;color-interpolation:sRGB;color-interpolation-filters:linearRGB;fill:#5a5a5a;stroke:none"
       inkscape:connector-curvature="0" />
    <g
       transform="matrix(5.2499999,0,0,5.6000031,5.9999998,5.999956)"
       id="g20"
       style="color:#000000;color-interpolation:sRGB;fill:#5a5a5a;stroke:none">
      <path
         d="m 13.97112,13.97399 0.9999,0 1e-4,-0.9998 -1,0 z m 0,-0.9998 0,-1 -1,0 0,1 z m -1,0 -1,0 0,1 1,0 z m -1,0 0,-1 -1,0 0,1 z m 0,-1 1,0 0,-1 -1,0 z m 2,0 0.9999,0 1e-4,-1 -1,0 z"
         id="path18386"
         style="color-interpolation-filters:linearRGB"
         inkscape:connector-curvature="0" />
      <path
         d="m 8.8774,13.974 0.9999,0 10e-5,-0.9998 -1,0 z m 0,-0.9998 0,-1 -1,0 0,1 z m -1,0 -1,0 0,1 1,0 z m -1,0 0,-1 -1,0 0,1 z m 0,-1 1,0 0,-1 -1,0 z m 2,0 0.9999,0 10e-5,-1 -1,0 z"
         id="path4206"
         style="color-interpolation-filters:linearRGB"
         inkscape:connector-curvature="0" />
      <path
         d="m 3.8608,13.974 0.9999,0 1e-4,-0.9998 -1,0 z m 0,-0.9998 0,-1 -1,0 0,1 z m -1,0 -1,0 0,1 1,0 z m -1,0 0,-1 -1,0 0,1 z m 0,-1 1,0 0,-1 -1,0 z m 2,0 0.9999,0 1e-4,-1 -1,0 z"
         id="path4208"
         style="color-interpolation-filters:linearRGB"
         inkscape:connector-curvature="0" />
      <path
         d="m 7.03372,0.97409 -1.0001,0 10e-5,1.0001 1,0 z m 0,1.0002 0,1 1,0 0,-1 z m 1,0 1,0 0,-1 -1,0 z m 1,0 0,1 1,0 0,-1 z m 0,1 -1,0 0,1 1,0 z m -2,0 -1.0001,0 10e-5,1 1,0 z"
         id="path4212"
         style="color-interpolation-filters:linearRGB"
         inkscape:connector-curvature="0" />
      <path
         d="m 12.059123,0.97419 -1.0001,0 10e-5,1.0001 1,0 z m 0,1.0002 0,1 1,0 0,-1 z m 1,0 1,0 0,-1 -1,0 z m 1,0 0,1 1,0 0,-1 z m 0,1 -1,0 0,1 1,0 z m -2,0 -1.0001,0 10e-5,1 1,0 z"
         id="path4214"
         style="color-interpolation-filters:linearRGB"
         inkscape:connector-curvature="0" />
    </g>
    <rect
       id="rect4172"
       style="fill:#323232;fill-rule:evenodd;stroke:none;stroke-linecap:square"
       height="27.855434"
       y="34.000015"
       x="29.550035"
       width="37.355125" />
    <path
       d="m 5.9999998,33.855491 0,28.000016 27.5624992,0 0,-28.000016 z"
       id="path4170"
       style="color:#000000;color-interpolation:sRGB;color-interpolation-filters:linearRGB;fill:#dcdcdc;stroke:none"
       inkscape:connector-curvature="0" />
    <path
       d="m 36.187499,33.855491 0,28.000016 23.625,0 0,-28.000016 z"
       id="path4166"
       style="color:#000000;color-interpolation:sRGB;color-interpolation-filters:linearRGB;fill:#dcdcdc;stroke:none"
       inkscape:connector-curvature="0" />
    <path
       d="m 62.437499,33.855491 0,28.000016 27.562499,0 0,-28.000016 z"
       id="path4162"
       style="color:#000000;color-interpolation:sRGB;color-interpolation-filters:linearRGB;fill:#dcdcdc;stroke:none"
       inkscape:connector-curvature="0" />
    <g
       transform="translate(0,1.7022708)"
       id="g4303">
      <g
         id="g4261">
        <text
           transform="scale(0.99784459,1.0021601)"
           sodipodi:linespacing="125%"
           id="text4348"
           y="57.550209"
           x="39.515179"
           style="font-style:normal;font-variant:normal;font-weight:normal;font-stretch:normal;font-size:29.74935913px;line-height:125%;font-family:Play;-inkscape-font-specification:Play;text-align:justify;letter-spacing:0px;word-spacing:0px;text-anchor:start;fill:#4d4d4d;fill-opacity:1;stroke:none;stroke-width:1px;stroke-linecap:butt;stroke-linejoin:miter;stroke-opacity:1"
           xml:space="preserve"><tspan
             id="tspan4350"
             y="57.550209"
             x="39.515179"
             sodipodi:role="line"><tspan
               id="tspan4352"
               style="font-style:normal;font-variant:normal;font-weight:bold;font-stretch:normal;font-size:29.74935913px;font-family:Play;-inkscape-font-specification:'Play Bold';fill:#4d4d4d"
               y="57.550209"
               x="39.515179">2</tspan></tspan></text>
        <text
           transform="scale(0.99784459,1.0021601)"
           sodipodi:linespacing="125%"
           id="text4354"
           y="57.550209"
           x="67.809135"
           style="font-style:normal;font-variant:normal;font-weight:normal;font-stretch:normal;font-size:29.74935913px;line-height:125%;font-family:Play;-inkscape-font-specification:Play;text-align:justify;letter-spacing:0px;word-spacing:0px;text-anchor:start;fill:#4d4d4d;fill-opacity:1;stroke:none;stroke-width:1px;stroke-linecap:butt;stroke-linejoin:miter;stroke-opacity:1"
           xml:space="preserve"><tspan
             id="tspan4356"
             y="57.550209"
             x="67.809135"
             sodipodi:role="line"><tspan
               id="tspan4358"
               style="font-style:normal;font-variant:normal;font-weight:bold;font-stretch:normal;font-size:29.74935913px;font-family:Play;-inkscape-font-specification:'Play Bold';fill:#4d4d4d"
               y="57.550209"
               x="67.809135">3</tspan></tspan></text>
        <text
           transform="scale(0.99784459,1.0021601)"
           sodipodi:linespacing="125%"
           id="text4342"
           y="57.550209"
           x="10.73126"
           style="font-style:normal;font-variant:normal;font-weight:normal;font-stretch:normal;font-size:29.74935913px;line-height:125%;font-family:Play;-inkscape-font-specification:Play;text-align:justify;letter-spacing:0px;word-spacing:0px;text-anchor:start;fill:#4d4d4d;fill-opacity:1;stroke:none;stroke-width:1px;stroke-linecap:butt;stroke-linejoin:miter;stroke-opacity:1"
           xml:space="preserve"><tspan
             id="tspan4344"
             y="57.550209"
             x="10.73126"
             sodipodi:role="line"><tspan
               id="tspan4346"
               style="font-style:normal;font-variant:normal;font-weight:bold;font-stretch:normal;font-size:29.74935913px;font-family:Play;-inkscape-font-specification:'Play Bold';fill:#4d4d4d"
               y="57.550209"
               x="10.73126">1</tspan></tspan></text>
      </g>
    </g>
  </g>
</svg>
