<?xml version="1.0" encoding="UTF-8" standalone="no"?>
<svg
   xmlns:dc="http://purl.org/dc/elements/1.1/"
   xmlns:cc="http://creativecommons.org/ns#"
   xmlns:rdf="http://www.w3.org/1999/02/22-rdf-syntax-ns#"
   xmlns:svg="http://www.w3.org/2000/svg"
   xmlns="http://www.w3.org/2000/svg"
   xmlns:sodipodi="http://sodipodi.sourceforge.net/DTD/sodipodi-0.dtd"
   xmlns:inkscape="http://www.inkscape.org/namespaces/inkscape"
   width="96"
   version="1.1"
   height="96"
   id="svg2"
   inkscape:version="0.91 r13725"
   sodipodi:docname="qdbusviewer.svg">
  <metadata
     id="metadata17">
    <rdf:RDF>
      <cc:Work
         rdf:about="">
        <dc:format>image/svg+xml</dc:format>
        <dc:type
           rdf:resource="http://purl.org/dc/dcmitype/StillImage" />
        <dc:title></dc:title>
      </cc:Work>
    </rdf:RDF>
  </metadata>
  <defs
     id="defs15" />
  <sodipodi:namedview
     pagecolor="#ffffff"
     bordercolor="#666666"
     borderopacity="1"
     objecttolerance="10"
     gridtolerance="10"
     guidetolerance="10"
     inkscape:pageopacity="0"
     inkscape:pageshadow="2"
     inkscape:window-width="640"
     inkscape:window-height="480"
     id="namedview13"
     showgrid="false"
     inkscape:zoom="4.478343"
     inkscape:cx="67.484243"
     inkscape:cy="36.247717"
     inkscape:current-layer="svg2" />
  <rect
     style="opacity:1;fill:#559c2c;fill-opacity:1;fill-rule:evenodd;stroke:none;stroke-opacity:1"
     id="rect4190"
     width="84"
     height="84"
     x="6"
     y="6"
     ry="0" />
  <g
     id="g4192"
     transform="matrix(0.97816032,0,0,0.95713479,3.1997646,3.4396072)">
    <path
       inkscape:connector-curvature="0"
       style="opacity:0.5;stroke:none"
       id="path2990"
       d="m 56.450209,29.5452 c -14.67333,0 -26.699782,12.026299 -26.699782,26.699782 0,14.67333 12.026318,26.699781 26.699782,26.699781 5.684566,0 10.965952,-1.852221 15.304533,-4.91083 l 5.339918,5.387454 6.531573,-4.740082 3.81e-4,-1.791872 -5.387454,-5.339919 c 3.058593,-4.338657 4.910831,-9.620023 4.910831,-15.304532 0,-14.67333 -12.026318,-26.699782 -26.699782,-26.699782 z m 0,9.249545 c 9.703699,0 17.450103,7.746423 17.450103,17.450103 0,3.167163 -0.836316,6.125433 -2.288542,8.677372 l -8.677391,-8.677391 5.625518,-3.785918 3.82e-4,-1.792446 -6.531764,-6.531763 -17.688681,17.688491 -3.82e-4,1.791872 6.532527,4.740082 5.578173,-5.6259 8.677391,8.677391 c -2.551939,1.452226 -5.510209,2.288542 -8.677372,2.288542 -9.703699,0 -17.450103,-7.746423 -17.450103,-17.450103 0,-9.703699 7.746423,-17.450102 17.450103,-17.450102 z" />
    <path
       inkscape:connector-curvature="0"
       style="fill:#ffffff;stroke:none"
       id="path3759"
       d="m 56.450209,31.336882 c -14.67333,0 -26.699782,12.026299 -26.699782,26.699782 0,14.67333 12.026318,26.699781 26.699782,26.699781 5.684566,0 10.965952,-1.852221 15.304533,-4.910831 l 5.339918,5.387455 6.531573,-6.531764 -5.387264,-5.339918 C 81.297581,69.00273 83.1498,63.721364 83.1498,58.036854 83.1498,43.363525 71.123482,31.337073 56.450018,31.337073 Z m 0,9.249545 c 9.703699,0 17.450103,7.746423 17.450103,17.450103 0,3.167163 -0.836316,6.125433 -2.288542,8.677372 l -8.677391,-8.677391 5.625518,-5.5776 -6.531573,-6.532527 -17.688872,17.688681 6.532336,6.531764 5.578173,-5.6259 8.677391,8.677391 c -2.551939,1.452224 -5.510209,2.288542 -8.677372,2.288542 -9.703699,0 -17.450103,-7.746423 -17.450103,-17.450103 0,-9.703699 7.746423,-17.450103 17.450103,-17.450103 z" />
    <path
       inkscape:connector-curvature="0"
       style="opacity:0.5;stroke:none"
       id="path4223"
       d="m 25.092436,31.706291 c 0.749023,-0.757422 0.969187,-1.897625 0.462903,-2.394706 l -4.3281,-4.319509 9.698946,-9.6936 c 0.761355,-0.757325 0.991591,-1.911936 0.481207,-2.413053 L 27.497001,8.9828593 C 26.994893,8.4734585 25.840735,8.7060163 25.084903,9.4688413 L 15.398176,19.174659 11.082103,14.867178 C 10.722883,14.498353 10.030712,14.47795 9.3812579,14.817112 8.7318062,15.156273 8.1592756,15.837127 7.9743935,16.490159 L 8.179048,30.758513 c 0.023978,1.672984 1.8139399,2.968026 2.874537,2.868868 l 12.885027,-1.204637 c 0.403061,-0.117313 0.819608,-0.375858 1.153899,-0.716222 z" />
    <path
       inkscape:connector-curvature="0"
       style="fill:#ffffff;stroke:none"
       id="path3939"
       d="m 26.475955,33.086946 c 0.74902,-0.757425 0.969184,-1.897627 0.462905,-2.394707 l -4.3281,-4.319509 9.698945,-9.6936 c 0.761353,-0.757325 0.991593,-1.911935 0.481213,-2.413053 l -3.910391,-3.902563 c -0.502104,-0.509401 -1.656264,-0.276843 -2.412098,0.485982 l -9.686727,9.705818 -4.316073,-4.307482 c -0.35922,-0.368825 -1.051394,-0.389227 -1.700845,-0.05007 -0.649452,0.339161 -1.2219826,1.020016 -1.4068647,1.673047 l 0.2046545,14.268355 c 0.015273,1.065124 0.4257846,1.474836 1.4909352,1.487993 l 14.268545,0.176209 c 0.403063,-0.117314 0.819611,-0.375862 1.153899,-0.716226 z" />
    <path
       inkscape:connector-curvature="0"
       style="opacity:0.5;stroke:none"
       id="path4225"
       d="m 50.856955,24.986673 c -0.755939,0.750517 -1.895703,0.972936 -2.39379,0.467635 l -4.3281,-4.319509 -9.674509,9.718037 c -0.755819,0.762851 -1.90997,0.995371 -2.412099,0.485984 l -3.910391,-3.902564 c -0.510393,-0.501098 -0.280111,-1.655713 0.481215,-2.413053 l 9.686728,-9.705818 -4.316073,-4.307482 C 33.620449,10.651365 33.598632,9.9592829 33.936508,9.3091611 34.274385,8.6590412 34.954107,8.0851666 35.606764,7.8989844 l 14.268736,0.1764 c 1.617798,0.019988 2.971615,1.8080694 2.874538,2.8688676 L 51.570792,23.83157 c -0.116512,0.403291 -0.374239,0.820349 -0.713952,1.155301 z" />
    <path
       inkscape:connector-curvature="0"
       style="fill:#ffffff;stroke:none"
       id="path4221"
       d="m 52.240473,26.367518 c -0.755939,0.750517 -1.895705,0.972936 -2.39379,0.467636 l -4.3281,-4.319509 -9.674509,9.718036 c -0.755819,0.76285 -1.909988,0.995372 -2.412098,0.485982 L 29.521585,28.8171 C 29.011193,28.316001 29.241473,27.161387 30.0028,26.404047 l 9.686727,-9.705818 -4.316073,-4.307482 c -0.369485,-0.358539 -0.391304,-1.050621 -0.05343,-1.700742 0.337877,-0.65012 1.017599,-1.2239949 1.670256,-1.4101771 l 14.268737,0.1764 c 1.06515,0.013154 1.475673,0.4228694 1.490935,1.4879911 l 0.204463,14.268164 c -0.116512,0.403291 -0.374237,0.820349 -0.713942,1.155311 z" />
  </g>
</svg>
