<?xml version="1.0" encoding="UTF-8" standalone="no"?>
<svg
   xmlns:dc="http://purl.org/dc/elements/1.1/"
   xmlns:cc="http://creativecommons.org/ns#"
   xmlns:rdf="http://www.w3.org/1999/02/22-rdf-syntax-ns#"
   xmlns:svg="http://www.w3.org/2000/svg"
   xmlns="http://www.w3.org/2000/svg"
   xmlns:sodipodi="http://sodipodi.sourceforge.net/DTD/sodipodi-0.dtd"
   xmlns:inkscape="http://www.inkscape.org/namespaces/inkscape"
   version="1.1"
   width="48"
   height="48"
   id="svg2"
   inkscape:version="0.91 r13725"
   sodipodi:docname="qtransmission.svg">
  <metadata
     id="metadata34">
    <rdf:RDF>
      <cc:Work
         rdf:about="">
        <dc:format>image/svg+xml</dc:format>
        <dc:type
           rdf:resource="http://purl.org/dc/dcmitype/StillImage" />
        <dc:title></dc:title>
      </cc:Work>
    </rdf:RDF>
  </metadata>
  <sodipodi:namedview
     pagecolor="#ffffff"
     bordercolor="#666666"
     borderopacity="1"
     objecttolerance="10"
     gridtolerance="10"
     guidetolerance="10"
     inkscape:pageopacity="0"
     inkscape:pageshadow="2"
     inkscape:window-width="640"
     inkscape:window-height="480"
     id="namedview32"
     showgrid="false"
     inkscape:zoom="5.5735696"
     inkscape:cx="11.22268"
     inkscape:cy="12.959282"
     inkscape:current-layer="svg2" />
  <defs
     id="defs5188" />
  <g
     id="g4198">
    <rect
       ry="0"
       rx="0"
       y="3"
       x="3"
       height="42"
       width="42"
       id="rect4178"
       style="opacity:1;fill:#37c837;fill-opacity:1;fill-rule:nonzero;stroke:none;stroke-width:2;stroke-linecap:square;stroke-linejoin:miter;stroke-miterlimit:4;stroke-dasharray:none;stroke-opacity:1" />
    <path
       sodipodi:nodetypes="cccccccccccccccccccccccccccccccccccccccccccc"
       inkscape:connector-curvature="0"
       id="folderGlyph"
       d="M 23.95899,44.994751 7.200004,31.023797 l 0,-0.035 0,-3.492738 8.4,0 0,-10.495188 0,-3.499563 16.800001,0 0,3.499563 0,10.495188 8.4,0 0,3.499563 0,0.03325 -16.758985,13.971129 -0.04101,0 z M 24,40.073491 34.893749,30.9965 l -2.493749,0 -4.200001,0 0,-13.99475 -8.399999,0 0,10.495188 0,3.499562 -6.693751,0 z M 3,20.497813 3,16.99825 3,2.9999993 l 4.2,0 37.8,0 0,3.499563 0,13.9982507 -4.2,0 -4.200001,0 0,-3.499563 4.200001,0 0,-10.4986878 -33.6,0 0,10.4986878 4.2,0 0,3.499563 -4.2,0 z"
       style="color:#000000;clip-rule:nonzero;display:inline;overflow:visible;visibility:visible;opacity:1;isolation:auto;mix-blend-mode:normal;color-interpolation:sRGB;color-interpolation-filters:linearRGB;solid-color:#000000;solid-opacity:1;fill:#ffd42a;fill-opacity:1;fill-rule:nonzero;stroke:none;stroke-width:2;stroke-linecap:butt;stroke-linejoin:miter;stroke-miterlimit:4;stroke-dasharray:none;stroke-dashoffset:0;stroke-opacity:1;color-rendering:auto;image-rendering:auto;shape-rendering:auto;text-rendering:auto;enable-background:accumulate" />
  </g>
</svg>
