<?xml version="1.0" encoding="UTF-8" standalone="no"?>
<svg
   xmlns:dc="http://purl.org/dc/elements/1.1/"
   xmlns:cc="http://creativecommons.org/ns#"
   xmlns:rdf="http://www.w3.org/1999/02/22-rdf-syntax-ns#"
   xmlns:svg="http://www.w3.org/2000/svg"
   xmlns="http://www.w3.org/2000/svg"
   xmlns:xlink="http://www.w3.org/1999/xlink"
   xmlns:sodipodi="http://sodipodi.sourceforge.net/DTD/sodipodi-0.dtd"
   xmlns:inkscape="http://www.inkscape.org/namespaces/inkscape"
   width="96"
   version="1.0"
   height="96"
   id="svg2"
   inkscape:version="0.91 r13725"
   sodipodi:docname="subtitleeditor.svg">
  <metadata
     id="metadata55">
    <rdf:RDF>
      <cc:Work
         rdf:about="">
        <dc:format>image/svg+xml</dc:format>
        <dc:type
           rdf:resource="http://purl.org/dc/dcmitype/StillImage" />
        <dc:title></dc:title>
      </cc:Work>
    </rdf:RDF>
  </metadata>
  <sodipodi:namedview
     pagecolor="#ffffff"
     bordercolor="#666666"
     borderopacity="1"
     objecttolerance="10"
     gridtolerance="10"
     guidetolerance="10"
     inkscape:pageopacity="0"
     inkscape:pageshadow="2"
     inkscape:window-width="640"
     inkscape:window-height="480"
     id="namedview53"
     showgrid="false"
     inkscape:zoom="3.1666667"
     inkscape:cx="54.957437"
     inkscape:cy="47.354794"
     inkscape:current-layer="svg2" />
  <defs
     id="defs4">
    <linearGradient
       gradientTransform="matrix(0.91123754,1.3042926,-1.7827959,1.2455415,50.397188,-37.39061)"
       id="linearGradient3849"
       xlink:href="#linearGradient3770"
       y1="23.720449"
       y2="23.720449"
       x1="34.264999"
       x2="45.4021"
       gradientUnits="userSpaceOnUse" />
    <linearGradient
       id="linearGradient3770">
      <stop
         offset="0"
         style="stop-color:#ffda7d"
         id="stop3772" />
      <stop
         offset="0.30000001"
         style="stop-color:#ffda7d"
         id="stop3782" />
      <stop
         offset="0.30000001"
         style="stop-color:#ffc941"
         id="stop3780" />
      <stop
         offset="0.60000002"
         style="stop-color:#ffc941"
         id="stop3784" />
      <stop
         offset="0.60000002"
         style="stop-color:#dc9e00"
         id="stop3778" />
      <stop
         offset="1"
         style="stop-color:#dc9e00"
         id="stop3774" />
    </linearGradient>
  </defs>
  <g
     id="g4560"
     transform="matrix(0.875,0,0,0.875,6.0000001,5.9999993)">
    <path
       style="fill:#2a71b2;fill-rule:evenodd;stroke:none"
       id="path4173"
       d="m 3.5921437,5.7963143 0,74.6819577 88.9256983,0 0,-74.6819577 z"
       inkscape:connector-curvature="0" />
    <path
       inkscape:connector-curvature="0"
       d="m 6.3047202,9.4672045 7.6089328,0 0,7.3415635 -7.6089328,0 z"
       id="path4171"
       style="fill:#ffffff;fill-rule:evenodd;stroke:none" />
    <path
       inkscape:connector-curvature="0"
       d="m 21.522809,9.4672045 7.542805,0 0,7.3415635 -7.542805,0 z"
       id="path4169"
       style="fill:#ffffff;fill-rule:evenodd;stroke:none" />
    <path
       inkscape:connector-curvature="0"
       d="m 36.674547,9.4672045 7.608932,0 0,7.3415635 -7.608932,0 z"
       id="path4167"
       style="fill:#ffffff;fill-rule:evenodd;stroke:none" />
    <path
       inkscape:connector-curvature="0"
       d="m 51.826284,9.4672045 7.608933,0 0,7.3415635 -7.608933,0 z"
       id="path4165"
       style="fill:#ffffff;fill-rule:evenodd;stroke:none" />
    <path
       inkscape:connector-curvature="0"
       d="m 67.044374,9.4672045 7.542805,0 0,7.3415635 -7.542805,0 z"
       id="path4163"
       style="fill:#ffffff;fill-rule:evenodd;stroke:none" />
    <path
       inkscape:connector-curvature="0"
       d="m 82.196111,9.4672045 7.608933,0 0,7.3415635 -7.608933,0 z"
       id="path4161"
       style="fill:#ffffff;fill-rule:evenodd;stroke:none" />
    <path
       inkscape:connector-curvature="0"
       d="m 20.72883,41.692282 54.718456,0 c 0.211451,0 0.330824,0.0021 0.330824,0.06436 l 0,2.060739 c 0,0.06196 -0.119254,0.128945 -0.330824,0.128945 l -54.718456,0 c -0.211451,0 -0.396988,-0.06654 -0.396988,-0.128945 l 0,-2.060739 c 0,-0.06196 0.185539,-0.06436 0.396988,-0.06436 z"
       id="path4159"
       style="fill:#ffffff;fill-rule:evenodd;stroke:none" />
    <path
       inkscape:connector-curvature="0"
       d="m 20.72883,49.935586 54.718456,0 c 0.211451,0 0.330824,0.0021 0.330824,0.06436 l 0,2.060804 c 0,0.06196 -0.119254,0.128727 -0.330824,0.128727 l -54.718456,0 c -0.211451,0 -0.396988,-0.06654 -0.396988,-0.128727 l 0,-2.060804 c 0,-0.06196 0.185539,-0.06436 0.396988,-0.06436 z"
       id="path4157"
       style="fill:#ffffff;fill-rule:evenodd;stroke:none" />
    <path
       inkscape:connector-curvature="0"
       d="m 35.748312,60.239608 24.613364,0 c 0.09525,0 0.198472,0.06655 0.198472,0.128727 l 0,1.996375 c 0,0.06196 -0.103473,0.128945 -0.198472,0.128945 l -24.613364,0 c -0.09525,0 -0.132345,-0.06654 -0.132345,-0.128945 l 0,-1.996375 c 0,-0.06196 0.03719,-0.128727 0.132345,-0.128727 z"
       id="path4155"
       style="fill:#ffffff;fill-rule:evenodd;stroke:none" />
    <path
       inkscape:connector-curvature="0"
       d="m 6.3047202,67.54299 7.6089328,0 0,7.341564 -7.6089328,0 z"
       id="path4153"
       style="fill:#ffffff;fill-rule:evenodd;stroke:none" />
    <path
       inkscape:connector-curvature="0"
       d="m 21.522809,67.54299 7.542805,0 0,7.341564 -7.542805,0 z"
       id="path4151"
       style="fill:#ffffff;fill-rule:evenodd;stroke:none" />
    <path
       inkscape:connector-curvature="0"
       d="m 36.674547,67.54299 7.608932,0 0,7.341564 -7.608932,0 z"
       id="path4149"
       style="fill:#ffffff;fill-rule:evenodd;stroke:none" />
    <path
       inkscape:connector-curvature="0"
       d="m 51.826284,67.54299 7.608933,0 0,7.341564 -7.608933,0 z"
       id="path4147"
       style="fill:#ffffff;fill-rule:evenodd;stroke:none" />
    <path
       inkscape:connector-curvature="0"
       d="m 67.044374,67.54299 7.542805,0 0,7.341564 -7.542805,0 z"
       id="path4145"
       style="fill:#ffffff;fill-rule:evenodd;stroke:none" />
    <path
       inkscape:connector-curvature="0"
       d="m 82.196111,67.54299 7.608933,0 0,7.341564 -7.608933,0 z"
       id="rect3199"
       style="fill:#ffffff;fill-rule:evenodd;stroke:none" />
    <path
       style="fill:#d57000;fill-rule:evenodd;stroke:none"
       id="path3801"
       d="m 79.696246,10.311472 c -1.182462,-0.04765 -2.68493,0.407339 -3.742307,1.145537 l -8.733768,6.037947 10.069639,14.431324 8.733768,-6.037947 c 1.738964,-1.214037 2.967131,-3.877033 2.171879,-5.017208 L 81.276439,10.968402 C 80.986312,10.55243 80.405735,10.340006 79.696253,10.311421 Z"
       inkscape:connector-curvature="0" />
    <path
       style="fill:#d0d0d0;fill-rule:evenodd;stroke:none"
       id="path3799"
       d="m 67.243683,17.528722 -9.086717,6.32374 10.070351,14.430826 9.086004,-6.323241 z"
       inkscape:connector-curvature="0" />
    <path
       style="fill:url(#linearGradient3849);fill-rule:evenodd;stroke:none"
       id="path3797"
       d="M 58.157144,23.843604 20.577305,49.948732 30.736208,64.434535 68.226604,38.275052 Z"
       inkscape:connector-curvature="0" />
    <path
       style="fill:#e9d078;fill-rule:evenodd;stroke:none"
       id="path1918"
       d="M 20.646721,50.011255 7.5571801,69.910083 30.716182,64.442704 20.646543,50.01138 Z"
       inkscape:connector-curvature="0" />
    <path
       inkscape:connector-curvature="0"
       d="M 14.723761,59.001225 7.557169,69.910091 20.237124,66.911341 14.723582,59.001349 Z"
       id="path3803"
       style="fill-rule:evenodd;stroke:none" />
    <path
       style="opacity:1;fill:#808080;stroke:none"
       id="path3726"
       d="m -1.2857137e-7,3.6425864 0,77.8130976 L 96,81.455684 96,3.6425864 Z M 3.8951922,7.2741032 l 88.2906358,0 0,70.2095488 -88.2907657,0 z"
       inkscape:connector-curvature="0" />
    <rect
       ry="0"
       rx="0"
       y="79.49453"
       x="14.129704"
       height="12.862885"
       width="67.740593"
       id="rect4755"
       style="opacity:1;fill:#808080;fill-opacity:1;fill-rule:evenodd;stroke:none;stroke-width:0.38268325;stroke-miterlimit:4;stroke-dasharray:none;stroke-opacity:1" />
    <rect
       width="16.848623"
       x="60.205223"
       y="82.057404"
       rx="3.3697243"
       height="6.7394485"
       ry="3.3697588"
       style="fill:#8dd35f;stroke:none"
       id="rect3485-3" />
    <rect
       id="rect4808"
       style="fill:#ffdd55;stroke:none"
       ry="3.3697588"
       height="6.7394485"
       rx="3.3697243"
       y="82.057404"
       x="39.575687"
       width="16.848623" />
    <rect
       width="16.848623"
       x="18.688583"
       y="82.057404"
       rx="3.3697243"
       height="6.7394485"
       ry="3.3697588"
       style="fill:#ff5555;stroke:none"
       id="rect4810" />
  </g>
</svg>
