<?xml version="1.0" encoding="UTF-8" standalone="no"?>
<!-- Created with Inkscape (http://www.inkscape.org/) -->

<svg
   xmlns:dc="http://purl.org/dc/elements/1.1/"
   xmlns:cc="http://creativecommons.org/ns#"
   xmlns:rdf="http://www.w3.org/1999/02/22-rdf-syntax-ns#"
   xmlns:svg="http://www.w3.org/2000/svg"
   xmlns="http://www.w3.org/2000/svg"
   xmlns:sodipodi="http://sodipodi.sourceforge.net/DTD/sodipodi-0.dtd"
   xmlns:inkscape="http://www.inkscape.org/namespaces/inkscape"
   id="svg2"
   version="1.1"
   inkscape:version="0.91 r13725"
   width="96"
   height="96"
   sodipodi:docname="gnome-sudoku.svg"
   inkscape:export-filename="/home/steph/.icons/ultra-flat-icons/apps/scalable/gnome-sudoku.png"
   inkscape:export-xdpi="90"
   inkscape:export-ydpi="90">
  <metadata
     id="metadata8">
    <rdf:RDF>
      <cc:Work
         rdf:about="">
        <dc:format>image/svg+xml</dc:format>
        <dc:type
           rdf:resource="http://purl.org/dc/dcmitype/StillImage" />
        <dc:title></dc:title>
      </cc:Work>
    </rdf:RDF>
  </metadata>
  <defs
     id="defs6" />
  <sodipodi:namedview
     pagecolor="#ffffff"
     bordercolor="#666666"
     borderopacity="1"
     objecttolerance="10"
     gridtolerance="10"
     guidetolerance="10"
     inkscape:pageopacity="0"
     inkscape:pageshadow="2"
     inkscape:window-width="3840"
     inkscape:window-height="2040"
     id="namedview4"
     showgrid="false"
     inkscape:zoom="2.8284272"
     inkscape:cx="37.521078"
     inkscape:cy="42.252595"
     inkscape:window-x="0"
     inkscape:window-y="64"
     inkscape:window-maximized="1"
     inkscape:current-layer="svg2"
     inkscape:snap-global="false" />
  <rect
     style="opacity:1;fill:#b3b3b3;fill-opacity:1;fill-rule:evenodd;stroke:none;stroke-width:1;stroke-linecap:butt;stroke-linejoin:miter;stroke-miterlimit:4;stroke-dasharray:none;stroke-opacity:1"
     id="rect27993"
     width="84"
     height="84"
     x="6"
     y="6" />
  <g
     id="g27995"
     transform="matrix(0.18721855,0,0,0.18722666,0.09973503,0.13973127)">
    <path
       style="fill:#000000;fill-opacity:1;fill-rule:evenodd;stroke:none"
       d="m 35.687668,182.69582 c 146.873562,0 293.747142,0 440.620702,0 12.10179,7.82577 -7.36913,10.09046 -13.97429,8.50437 -142.21546,0 -284.43093,0 -426.646412,0 -5.562571,0.0693 -5.563512,-8.56024 0,-8.50437 z"
       id="rect3775"
       inkscape:connector-curvature="0" />
    <path
       style="fill:#000000;fill-opacity:1;fill-rule:evenodd;stroke:none"
       d="m 35.690741,336.5355 c 146.863249,0 293.726509,0 440.589769,0 12.10178,7.82577 -7.36914,10.09046 -13.9743,8.50437 -142.20516,0 -284.41032,0 -426.615469,0 -5.56257,0.0693 -5.563511,-8.56024 0,-8.50437 z"
       id="rect3775-4"
       inkscape:connector-curvature="0" />
    <path
       style="fill:#000000;fill-opacity:1;fill-rule:evenodd;stroke:none"
       d="m 178.23548,35.471474 c 0.0411,146.867066 0.0822,293.734126 0.1233,440.601186 -7.82239,12.10401 -10.09253,-7.36626 -8.50829,-13.97186 -0.0398,-142.20898 -0.0796,-284.41795 -0.11943,-426.626914 -0.0708,-5.562553 8.5587,-5.565939 8.50439,-0.0024 z"
       id="rect3775-8"
       inkscape:connector-curvature="0" />
    <path
       style="fill:#000000;fill-opacity:1;fill-rule:evenodd;stroke:none"
       d="m 339.36007,35.513366 c 0.0411,146.847234 0.0822,293.694454 0.1233,440.541704 -7.8224,12.104 -10.09253,-7.36626 -8.5083,-13.97188 -0.0397,-142.18915 -0.0797,-284.37828 -0.11939,-426.567414 -0.0708,-5.562551 8.55869,-5.565936 8.50438,-0.0024 z"
       id="rect3775-8-6"
       inkscape:connector-curvature="0" />
    <path
       style="fill:#e6e6e6;fill-opacity:1;fill-rule:evenodd;stroke:none"
       d="m 32.310937,264.27468 c 0,-24.26028 0,-48.52059 0,-72.78088 45.632916,0 91.265833,0 136.898743,0 0,48.03465 0,96.0693 0,144.10394 -45.18527,0.0724 -90.465016,-0.25968 -135.574455,0.5242 -2.421656,-23.72798 -0.826143,-47.9637 -1.324288,-71.84726 z"
       id="path3923"
       inkscape:connector-curvature="0" />
    <path
       style="fill:#e6e6e6;fill-opacity:1;fill-rule:evenodd;stroke:none"
       d="m 178.53423,106.83255 c -0.10598,-25.018106 -0.21203,-50.036216 -0.31806,-75.054325 50.83668,0 101.67334,0 152.51001,0 -0.21203,50.036219 -0.42408,100.072435 -0.63612,150.108655 -50.41258,0 -100.82518,0 -151.23776,0 -0.10597,-25.01811 -0.21205,-50.03622 -0.31807,-75.05433 z"
       id="path3925"
       inkscape:connector-curvature="0" />
    <path
       style="fill:#e6e6e6;fill-opacity:1;fill-rule:evenodd;stroke:none"
       d="m 178.53615,412.45341 c 0.10665,-22.41624 0.2133,-44.83248 0.31995,-67.24873 50.41005,0 100.8201,0 151.23015,0 0.21331,44.83249 0.42661,89.66499 0.63993,134.49748 -50.83667,0 -101.67333,0 -152.51001,0 0.10666,-22.41624 0.21332,-44.8325 0.31998,-67.24875 z"
       id="path3929"
       inkscape:connector-curvature="0" />
    <path
       style="fill:#ffffff;fill-opacity:1;fill-rule:evenodd;stroke:none"
       d="m 178.8166,412.45319 c 0,-22.41617 0,-44.83233 0,-67.24851 50.43639,0 100.87276,0 151.30915,0 0,44.83234 0,89.66469 0,134.49702 -50.43639,0 -100.87276,0 -151.30915,0 0,-22.41617 0,-44.83233 0,-67.24851 z"
       id="path3935"
       inkscape:connector-curvature="0" />
    <path
       style="fill:#ffffff;fill-opacity:1;fill-rule:evenodd;stroke:none"
       d="m 33.102337,310.18594 c -1.006342,-39.556 -0.755455,-79.12726 -0.7914,-118.69214 45.632916,0 91.265833,0 136.898743,0 0,48.03465 0,96.0693 0,144.10394 -45.10531,0 -90.210627,0 -135.315943,0 -0.2638,-8.4706 -0.5276,-16.9412 -0.7914,-25.4118 z"
       id="path3939"
       inkscape:connector-curvature="0" />
    <path
       style="fill:#ffffff;fill-opacity:1;fill-rule:evenodd;stroke:none"
       d="m 178.8166,106.83274 c 0,-25.018041 0,-50.036088 0,-75.054134 50.43639,0 100.87276,0 151.30915,0 0,50.036091 0,100.072184 0,150.108274 -50.43639,0 -100.87276,0 -151.30915,0 0,-25.01805 0,-50.03609 0,-75.05414 z"
       id="path3941"
       inkscape:connector-curvature="0" />
    <text
       sodipodi:linespacing="125%"
       id="text3029"
       y="165.49475"
       x="362.40268"
       style="font-style:normal;font-weight:normal;font-size:147.21069336px;line-height:125%;font-family:Sans;letter-spacing:0px;word-spacing:0px;fill:#000000;fill-opacity:1;stroke:none"
       xml:space="preserve"><tspan
         y="165.49475"
         x="362.40268"
         id="tspan3031"
         sodipodi:role="line">5</tspan></text>
    <text
       sodipodi:linespacing="125%"
       id="text3010"
       y="313.59195"
       x="360.34711"
       style="font-style:normal;font-weight:normal;font-size:138.91471863px;line-height:125%;font-family:Sans;letter-spacing:0px;word-spacing:0px;fill:#000000;fill-opacity:1;stroke:none"
       xml:space="preserve"><tspan
         y="313.59195"
         x="360.34711"
         id="tspan3012"
         sodipodi:role="line">6</tspan></text>
    <text
       transform="scale(0.95999655,1.0416704)"
       sodipodi:linespacing="125%"
       id="text3014"
       y="303.77805"
       x="214.49026"
       style="font-style:normal;font-weight:normal;font-size:139.27095032px;line-height:125%;font-family:Sans;letter-spacing:0px;word-spacing:0px;fill:#000000;fill-opacity:1;stroke:none"
       xml:space="preserve"><tspan
         y="303.77805"
         x="214.49026"
         id="tspan3016"
         sodipodi:role="line">4</tspan></text>
    <text
       sodipodi:linespacing="125%"
       id="text3018"
       y="164.06097"
       x="58.870785"
       style="font-style:normal;font-weight:normal;font-size:143.17201233px;line-height:125%;font-family:Sans;letter-spacing:0px;word-spacing:0px;fill:#f64747;fill-opacity:0.99607843;stroke:none"
       xml:space="preserve"><tspan
         y="164.06097"
         x="58.870785"
         id="tspan3020"
         sodipodi:role="line">1</tspan></text>
  </g>
</svg>
