<?xml version="1.0" encoding="UTF-8" standalone="no"?>
<!-- Created with Inkscape (http://www.inkscape.org/) -->

<svg
   xmlns:dc="http://purl.org/dc/elements/1.1/"
   xmlns:cc="http://creativecommons.org/ns#"
   xmlns:rdf="http://www.w3.org/1999/02/22-rdf-syntax-ns#"
   xmlns:svg="http://www.w3.org/2000/svg"
   xmlns="http://www.w3.org/2000/svg"
   xmlns:sodipodi="http://sodipodi.sourceforge.net/DTD/sodipodi-0.dtd"
   xmlns:inkscape="http://www.inkscape.org/namespaces/inkscape"
   width="96"
   height="96"
   viewBox="0 0 96 96.000005"
   id="svg2"
   version="1.1"
   inkscape:version="0.91 r13725"
   sodipodi:docname="gnome-apt.svg">
  <defs
     id="defs4" />
  <sodipodi:namedview
     id="base"
     pagecolor="#ffffff"
     bordercolor="#666666"
     borderopacity="1.0"
     inkscape:pageopacity="0.0"
     inkscape:pageshadow="2"
     inkscape:zoom="1.9765625"
     inkscape:cx="2.2536228"
     inkscape:cy="15.502054"
     inkscape:document-units="px"
     inkscape:current-layer="layer1"
     showgrid="false"
     units="px"
     inkscape:showpageshadow="false"
     borderlayer="true"
     inkscape:window-width="2560"
     inkscape:window-height="957"
     inkscape:window-x="-4"
     inkscape:window-y="29"
     inkscape:window-maximized="1">
    <inkscape:grid
       type="xygrid"
       id="grid4136" />
    <sodipodi:guide
       position="5,59.000069"
       orientation="54,0"
       id="guide4142" />
    <sodipodi:guide
       position="5,5.0000688"
       orientation="0,54"
       id="guide4144" />
    <sodipodi:guide
       position="59,5.0000688"
       orientation="-54,0"
       id="guide4146" />
    <sodipodi:guide
       position="59,59.000069"
       orientation="0,-54"
       id="guide4148" />
    <sodipodi:guide
       position="0,64.000069"
       orientation="64,0"
       id="guide4150" />
    <sodipodi:guide
       position="0,6.875e-05"
       orientation="0,64"
       id="guide4152" />
    <sodipodi:guide
       position="64,6.875e-05"
       orientation="-64,0"
       id="guide4154" />
    <sodipodi:guide
       position="64,64.000069"
       orientation="0,-64"
       id="guide4156" />
    <sodipodi:guide
       position="17,35"
       orientation="38,0"
       id="guide4155" />
    <sodipodi:guide
       position="34,11"
       orientation="0,38"
       id="guide4157" />
    <sodipodi:guide
       position="47,37"
       orientation="-38,0"
       id="guide4159" />
    <sodipodi:guide
       position="33,41"
       orientation="0,-38"
       id="guide4161" />
    <sodipodi:guide
       position="17,31.999947"
       orientation="15,0"
       id="guide4164" />
    <sodipodi:guide
       position="17,16.999947"
       orientation="0,15"
       id="guide4166" />
    <sodipodi:guide
       position="32,20"
       orientation="-15,0"
       id="guide4168" />
    <sodipodi:guide
       position="33,26"
       orientation="0,-15"
       id="guide4170" />
  </sodipodi:namedview>
  <metadata
     id="metadata7">
    <rdf:RDF>
      <cc:Work
         rdf:about="">
        <dc:format>image/svg+xml</dc:format>
        <dc:type
           rdf:resource="http://purl.org/dc/dcmitype/StillImage" />
        <dc:title></dc:title>
      </cc:Work>
    </rdf:RDF>
  </metadata>
  <g
     inkscape:label="Capa 1"
     inkscape:groupmode="layer"
     id="layer1"
     transform="translate(0,-1026.5196)">
    <g
       id="g5946"
       transform="matrix(1.5555556,0,0,1.5555505,-1.7777802,-621.83874)">
      <path
         sodipodi:nodetypes="ccccccc"
         inkscape:connector-curvature="0"
         id="rect4176"
         transform="translate(0,1058.5196)"
         d="m 13,5 -8,8 8,0 38,0 8,0 -8,-8 z"
         style="fill:#dbad85;fill-opacity:1;stroke:none;stroke-opacity:1" />
      <path
         id="rect4153"
         transform="translate(0,1058.5196)"
         d="m 5,14 0,1 0,43 c 0,0.554039 0.4459612,1 1,1 l 52,0 c 0.554039,0 1,-0.445961 1,-1 l 0,-43 0,-1 -1,0 -52,0 -1,0 z"
         style="fill:#c7976b;fill-opacity:1;stroke:none;stroke-opacity:1"
         inkscape:connector-curvature="0" />
      <rect
         y="1063.5197"
         x="27"
         height="7.9999466"
         width="10"
         id="rect4166"
         style="fill:#e2c7a8;fill-opacity:1;stroke:none;stroke-opacity:1" />
      <rect
         style="fill:#d7bc9d;fill-opacity:1;stroke:none;stroke-opacity:1"
         id="rect4168"
         width="10"
         height="7.9999313"
         x="27"
         y="1109.5197" />
      <rect
         y="1071.5197"
         x="5"
         height="1"
         width="54"
         id="rect4185"
         style="fill:#735536;fill-opacity:1;stroke:none;stroke-opacity:1" />
      <rect
         style="fill:#885c33;fill-opacity:1;stroke:none;stroke-opacity:1"
         id="rect4187"
         width="54"
         height="1"
         x="5"
         y="1072.5197" />
      <rect
         style="fill:#d7bc9d;fill-opacity:1;stroke:none;stroke-opacity:1"
         id="rect4183"
         width="10"
         height="12.000053"
         x="27"
         y="1071.5197" />
      <rect
         style="fill:#c7976b;fill-opacity:1;stroke:none;stroke-opacity:1"
         id="rect4191"
         width="2"
         height="7.0000534"
         x="31"
         y="1110.5197" />
      <path
         inkscape:connector-curvature="0"
         id="rect4149"
         d="m 32,1111.5196 c -8.31,0 -15,-6.69 -15,-15 0,-8.31 6.69,-15 15,-15 8.31,0 15,6.69 15,15 0,8.31 -6.69,15 -15,15 z m 0,-3 c 6.648,0 12,-5.352 12,-12 0,-6.648 -5.352,-12 -12,-12 -6.648,0 -12,5.352 -12,12 0,6.648 5.352,12 12,12 z m 0,-5 -7,-7 4,0 0,-7 6,0 0,7 4,0 -7,7 z"
         style="fill:#4e453d;fill-opacity:1;stroke:none" />
      <rect
         y="1063.5195"
         x="31"
         height="18.000069"
         width="2"
         id="rect4189"
         style="fill:#c7976b;fill-opacity:1;stroke:none;stroke-opacity:1" />
      <path
         id="rect4193"
         transform="translate(0,1058.5196)"
         d="m 5,58 c 0,0.554039 0.4459612,1 1,1 l 52,0 c 0.554039,0 1,-0.445961 1,-1 L 5,58 Z"
         style="fill:#885c33;fill-opacity:1;stroke:none;stroke-opacity:1"
         inkscape:connector-curvature="0" />
    </g>
  </g>
</svg>
