<?xml version="1.0" encoding="UTF-8" standalone="no"?>
<!-- Created with Inkscape (http://www.inkscape.org/) -->

<svg
   xmlns:dc="http://purl.org/dc/elements/1.1/"
   xmlns:cc="http://creativecommons.org/ns#"
   xmlns:rdf="http://www.w3.org/1999/02/22-rdf-syntax-ns#"
   xmlns:svg="http://www.w3.org/2000/svg"
   xmlns="http://www.w3.org/2000/svg"
   xmlns:sodipodi="http://sodipodi.sourceforge.net/DTD/sodipodi-0.dtd"
   xmlns:inkscape="http://www.inkscape.org/namespaces/inkscape"
   width="96"
   height="96"
   viewBox="0 0 96 96.000005"
   id="svg2"
   version="1.1"
   inkscape:version="0.91 r13725"
   sodipodi:docname="gnome-note.svg">
  <defs
     id="defs4" />
  <sodipodi:namedview
     id="base"
     pagecolor="#ffffff"
     bordercolor="#666666"
     borderopacity="1.0"
     inkscape:pageopacity="0.0"
     inkscape:pageshadow="2"
     inkscape:zoom="3.9999998"
     inkscape:cx="36.287431"
     inkscape:cy="43.81056"
     inkscape:document-units="px"
     inkscape:current-layer="layer1"
     showgrid="false"
     units="px"
     inkscape:showpageshadow="false"
     borderlayer="true"
     inkscape:window-width="2560"
     inkscape:window-height="957"
     inkscape:window-x="-4"
     inkscape:window-y="29"
     inkscape:window-maximized="1">
    <inkscape:grid
       type="xygrid"
       id="grid4136" />
    <sodipodi:guide
       position="5,59.000069"
       orientation="54,0"
       id="guide4142" />
    <sodipodi:guide
       position="5,5.0000688"
       orientation="0,54"
       id="guide4144" />
    <sodipodi:guide
       position="59,5.0000688"
       orientation="-54,0"
       id="guide4146" />
    <sodipodi:guide
       position="59,59.000069"
       orientation="0,-54"
       id="guide4148" />
    <sodipodi:guide
       position="0,64.000069"
       orientation="64,0"
       id="guide4150" />
    <sodipodi:guide
       position="0,6.875e-05"
       orientation="0,64"
       id="guide4152" />
    <sodipodi:guide
       position="64,6.875e-05"
       orientation="-64,0"
       id="guide4154" />
    <sodipodi:guide
       position="64,64.000069"
       orientation="0,-64"
       id="guide4156" />
    <sodipodi:guide
       position="10,35"
       orientation="38,0"
       id="guide4155" />
    <sodipodi:guide
       position="54,37"
       orientation="-38,0"
       id="guide4159" />
    <sodipodi:guide
       position="51,50.999947"
       orientation="0,-38"
       id="guide4161" />
  </sodipodi:namedview>
  <metadata
     id="metadata7">
    <rdf:RDF>
      <cc:Work
         rdf:about="">
        <dc:format>image/svg+xml</dc:format>
        <dc:type
           rdf:resource="http://purl.org/dc/dcmitype/StillImage" />
        <dc:title></dc:title>
      </cc:Work>
    </rdf:RDF>
  </metadata>
  <g
     inkscape:label="Capa 1"
     inkscape:groupmode="layer"
     id="layer1"
     transform="translate(0,-1026.5196)">
    <g
       id="g27788"
       transform="matrix(0.99995799,0,0,1.0401485,2.5702476e-4,-44.725456)">
      <rect
         y="1044.9641"
         x="5.9999971"
         height="68.444366"
         width="84.000008"
         id="rect4148-5"
         style="fill:#fdf4a9;fill-opacity:1;stroke:none" />
      <rect
         style="fill:#c0ad04;fill-opacity:1;stroke:none"
         id="rect4310-7"
         width="84.000008"
         height="1.5555556"
         x="5.9999971"
         y="1113.4089" />
      <path
         id="rect4338-6"
         d="m 5.999997,1048.0752 0,1.5555 84.000004,0 0,-1.5555 -84.000004,0 z m 0,6.2222 0,1.5555 84.000004,0 0,-1.5555 -84.000004,0 z m 0,6.2222 0,1.5556 84.000004,0 0,-1.5556 -84.000004,0 z m 0,6.2222 0,1.5556 84.000004,0 0,-1.5556 -84.000004,0 z m 0,6.2222 0,1.5556 84.000004,0 0,-1.5556 -84.000004,0 z m 0,6.2223 0,1.5555 84.000004,0 0,-1.5555 -84.000004,0 z m 0,6.2222 0,1.5555 84.000004,0 0,-1.5555 -84.000004,0 z m 0,6.2222 0,1.5556 84.000004,0 0,-1.5556 -84.000004,0 z m 0,6.2222 0,1.5556 84.000004,0 0,-1.5556 -84.000004,0 z m 0,6.2223 0,1.5555 84.000004,0 0,-1.5555 -84.000004,0 z m 0,6.2222 0,1.5555 84.000004,0 0,-1.5555 -84.000004,0 z"
         style="fill:#fbef82;fill-opacity:1;stroke:none"
         inkscape:connector-curvature="0" />
      <rect
         y="1044.9641"
         x="19.363634"
         height="68.444366"
         width="1.909091"
         id="rect4336-2"
         style="fill:#ed8484;fill-opacity:1;stroke:none" />
      <rect
         y="1035.6647"
         x="6.0035181"
         height="14.000001"
         width="84.000008"
         id="rect27771"
         style="opacity:1;fill:#90675a;fill-opacity:1;fill-rule:evenodd;stroke:none;stroke-width:1;stroke-linecap:butt;stroke-linejoin:miter;stroke-miterlimit:4;stroke-dasharray:none;stroke-opacity:1" />
      <rect
         style="fill:#4b4300;fill-opacity:1;stroke:none"
         id="rect4310-7-1"
         width="84.000015"
         height="1.5555557"
         x="5.9999914"
         y="1114.8668" />
    </g>
  </g>
</svg>
