<?xml version="1.0" encoding="UTF-8" standalone="no"?>
<svg
   xmlns:dc="http://purl.org/dc/elements/1.1/"
   xmlns:cc="http://creativecommons.org/ns#"
   xmlns:rdf="http://www.w3.org/1999/02/22-rdf-syntax-ns#"
   xmlns:svg="http://www.w3.org/2000/svg"
   xmlns="http://www.w3.org/2000/svg"
   xmlns:sodipodi="http://sodipodi.sourceforge.net/DTD/sodipodi-0.dtd"
   xmlns:inkscape="http://www.inkscape.org/namespaces/inkscape"
   width="96"
   version="1.0"
   height="96"
   style="display:inline;enable-background:new"
   id="svg2"
   inkscape:version="0.91 r13725"
   sodipodi:docname="unity-tweak-tool.svg">
  <metadata
     id="metadata29">
    <rdf:RDF>
      <cc:Work
         rdf:about="">
        <dc:format>image/svg+xml</dc:format>
        <dc:type
           rdf:resource="http://purl.org/dc/dcmitype/StillImage" />
        <dc:title></dc:title>
      </cc:Work>
    </rdf:RDF>
  </metadata>
  <defs
     id="defs27" />
  <sodipodi:namedview
     pagecolor="#ffffff"
     bordercolor="#666666"
     borderopacity="1"
     objecttolerance="10"
     gridtolerance="10"
     guidetolerance="10"
     inkscape:pageopacity="0"
     inkscape:pageshadow="2"
     inkscape:window-width="640"
     inkscape:window-height="480"
     id="namedview25"
     showgrid="false"
     inkscape:zoom="5.12"
     inkscape:cx="33.039434"
     inkscape:cy="43.129568"
     inkscape:current-layer="svg2" />
  <g
     id="g6867">
    <rect
       ry="0"
       y="6"
       x="6"
       height="84"
       width="84"
       id="rect5919"
       style="opacity:1;fill:#d35f8d;fill-opacity:1;fill-rule:nonzero;stroke:none;stroke-width:0.5;stroke-miterlimit:4;stroke-dasharray:none;stroke-opacity:1" />
    <path
       style="fill:#4d4d4d;fill-rule:evenodd;stroke:none"
       id="path4171"
       d="m 60.259398,70.587114 c 1.486237,6.758238 -2.77907,13.400682 -9.516665,14.88238 -6.737614,1.481703 -13.396142,-2.758424 -14.88238,-9.516662 -1.48624,-6.758238 2.758089,-13.495991 9.495702,-14.977695 2.622152,-0.576649 5.161068,-0.217347 7.460572,0.757335 l 0.817906,-1.279063 c 0.975068,-1.522987 2.542085,-2.14552 3.570319,-1.484595 1.028235,0.660925 1.03003,2.361735 0.05498,3.884715 l -0.722537,1.258088 c 1.79549,1.67504 3.154298,3.893199 3.722177,6.47546 z"
       inkscape:connector-curvature="0" />
    <g
       transform="matrix(1.0504166,0,0,1.0504166,-2.4224095,-2.8872692)"
       id="g5990">
      <rect
         y="12.323502"
         x="40.561378"
         height="32.69865"
         width="14.881837"
         id="rect5938"
         style="opacity:1;fill:#4d4d4d;fill-opacity:1;fill-rule:nonzero;stroke:none;stroke-width:0.5;stroke-miterlimit:4;stroke-dasharray:none;stroke-opacity:1" />
      <path
         style="fill:#808080;fill-rule:evenodd;stroke:none"
         id="path4183"
         d="m 47.965857,18.676316 c -3.313711,0 -6.00001,2.68628 -6.00001,5.999991 0,3.31371 2.686299,6.000009 6.00001,6.000009 3.31371,0 5.99999,-2.686299 5.99999,-6.000009 0,-3.313711 -2.686298,-5.999991 -6.000009,-5.999991 z"
         inkscape:connector-curvature="0" />
    </g>
    <g
       transform="matrix(1.0504166,0,0,1.0504166,1.7772043,-2.8872692)"
       id="g5986">
      <rect
         style="opacity:1;fill:#4d4d4d;fill-opacity:1;fill-rule:nonzero;stroke:none;stroke-width:0.5;stroke-miterlimit:4;stroke-dasharray:none;stroke-opacity:1"
         id="rect5940"
         width="14.881837"
         height="32.69865"
         x="64.346535"
         y="12.323502" />
      <path
         style="fill:#808080;fill-rule:evenodd;stroke:none"
         id="path4181"
         d="m 71.805941,23.594991 c -3.313711,0 -5.999991,2.68628 -5.999991,5.99999 0,3.313711 2.686299,6.00001 5.999991,6.00001 3.31371,0 6.000009,-2.686299 6.000009,-6.00001 0,-3.31371 -2.686299,-5.99999 -6.000009,-5.99999 z"
         inkscape:connector-curvature="0" />
    </g>
    <g
       transform="matrix(1.0504166,0,0,1.0504166,-6.6261285,-2.8872692)"
       id="g5994">
      <rect
         style="opacity:1;fill:#4d4d4d;fill-opacity:1;fill-rule:nonzero;stroke:none;stroke-width:0.5;stroke-miterlimit:4;stroke-dasharray:none;stroke-opacity:1"
         id="rect5921"
         width="14.881837"
         height="32.69865"
         x="16.78013"
         y="12.323502" />
      <path
         style="fill:#808080;fill-rule:evenodd;stroke:none"
         id="path4179"
         d="m 24.227094,30.567696 c -3.313704,0 -5.999999,2.686281 -5.999999,5.99999 0,3.313711 2.686295,6.00001 5.999999,6.00001 3.313706,0 6.000001,-2.686299 6.000001,-6.00001 0,-3.313709 -2.686295,-5.99999 -6.000001,-5.99999 z"
         inkscape:connector-curvature="0" />
    </g>
    <g
       transform="translate(0,0.70710676)"
       id="g6750">
      <path
         style="fill:#4d4d4d;fill-rule:evenodd;stroke:none"
         inkscape:connector-curvature="0"
         d="m 48.000002,50.438622 c 0.862323,0 1.561379,0.699047 1.561379,1.561388 0,0.862322 -0.699056,1.561368 -1.561379,1.561368 -0.862326,0 -1.561383,-0.699046 -1.561383,-1.561368 0,-0.862341 0.699057,-1.561388 1.561383,-1.561388 z"
         id="path4177" />
      <path
         style="fill:#4d4d4d;fill-rule:evenodd;stroke:none"
         inkscape:connector-curvature="0"
         d="m 64.750001,61.438612 c 0.862324,0 1.561379,0.699066 1.561379,1.561388 0,0.862321 -0.699055,1.561388 -1.561379,1.561388 -0.862326,0 -1.561381,-0.699067 -1.561381,-1.561388 0,-0.862322 0.699055,-1.561388 1.561381,-1.561388 z"
         id="path4175" />
      <path
         style="fill:#4d4d4d;fill-rule:evenodd;stroke:none"
         inkscape:connector-curvature="0"
         d="m 31.250003,61.438613 c 0.862321,0 1.561377,0.699065 1.561377,1.561387 0,0.862322 -0.699056,1.561387 -1.561377,1.561387 -0.862326,0 -1.561383,-0.699065 -1.561383,-1.561387 0,-0.862322 0.699058,-1.561387 1.561383,-1.561387 z"
         id="path4173" />
      <path
         style="fill:#4d4d4d;fill-rule:evenodd;stroke:none"
         inkscape:connector-curvature="0"
         d="m 58.625,54.063612 c 0.862324,0 1.56138,0.699066 1.56138,1.561388 0,0.862324 -0.699056,1.561388 -1.56138,1.561388 -0.862325,0 -1.56138,-0.699065 -1.56138,-1.561388 0,-0.862322 0.699055,-1.561388 1.56138,-1.561388 z"
         id="path4169" />
      <path
         style="fill:#4d4d4d;fill-rule:evenodd;stroke:none"
         inkscape:connector-curvature="0"
         d="m 37.375,54.063613 c 0.862325,0 1.561379,0.699066 1.561379,1.561387 0,0.862324 -0.699053,1.561388 -1.561379,1.561388 -0.862325,0 -1.56138,-0.699065 -1.56138,-1.561388 0,-0.862322 0.699055,-1.561388 1.56138,-1.561388 z"
         id="rect8321" />
    </g>
  </g>
</svg>
