<?xml version="1.0" encoding="UTF-8" standalone="no"?>
<svg
   xmlns:dc="http://purl.org/dc/elements/1.1/"
   xmlns:cc="http://creativecommons.org/ns#"
   xmlns:rdf="http://www.w3.org/1999/02/22-rdf-syntax-ns#"
   xmlns:svg="http://www.w3.org/2000/svg"
   xmlns="http://www.w3.org/2000/svg"
   xmlns:sodipodi="http://sodipodi.sourceforge.net/DTD/sodipodi-0.dtd"
   xmlns:inkscape="http://www.inkscape.org/namespaces/inkscape"
   width="96"
   version="1.1"
   height="96"
   id="svg5849"
   inkscape:version="0.91 r13725"
   sodipodi:docname="gvim.svg">
  <metadata
     id="metadata5872">
    <rdf:RDF>
      <cc:Work
         rdf:about="">
        <dc:format>image/svg+xml</dc:format>
        <dc:type
           rdf:resource="http://purl.org/dc/dcmitype/StillImage" />
        <dc:title></dc:title>
      </cc:Work>
    </rdf:RDF>
  </metadata>
  <defs
     id="defs5870" />
  <sodipodi:namedview
     pagecolor="#ffffff"
     bordercolor="#666666"
     borderopacity="1"
     objecttolerance="10"
     gridtolerance="10"
     guidetolerance="10"
     inkscape:pageopacity="0"
     inkscape:pageshadow="2"
     inkscape:window-width="640"
     inkscape:window-height="480"
     id="namedview5868"
     showgrid="false"
     inkscape:zoom="2.3422912"
     inkscape:cx="22.795891"
     inkscape:cy="21.886893"
     inkscape:current-layer="svg5849" />
  <rect
     style="opacity:1;fill:#808080;fill-opacity:1;fill-rule:nonzero;stroke:none;stroke-width:6;stroke-linecap:square;stroke-linejoin:miter;stroke-miterlimit:4;stroke-dasharray:none;stroke-opacity:1"
     id="rect8255"
     width="84"
     height="84"
     x="6"
     y="6" />
  <g
     id="g8242"
     transform="translate(2.3652979e-4,-0.03672392)">
    <rect
       transform="matrix(0.70710678,0.70710678,-0.70710678,0.70710678,0,0)"
       id="rect827"
       style="fill:#55d400;fill-rule:evenodd;stroke:#000000;stroke-width:0"
       height="51.554161"
       y="-25.777014"
       x="42.104843"
       width="51.554161" />
    <path
       inkscape:connector-curvature="0"
       d="M 84.464875,48.022507 47.986123,84.527929 11.534659,48.038694 84.464875,48.022661 Z"
       id="path829"
       style="fill:#2c2ca0;fill-rule:evenodd;stroke:#000000;stroke-width:0" />
    <rect
       transform="matrix(0.70710678,0.70710678,-0.70710678,0.70710678,0,0)"
       id="rect826"
       style="fill:#338000;fill-rule:evenodd;stroke:#000000;stroke-width:0"
       height="48.20314"
       y="-24.101505"
       x="43.780354"
       width="48.20314" />
    <path
       inkscape:connector-curvature="0"
       d="m 32.365036,79.004447 c 0.965356,-0.07002 1.835323,-0.760132 2.562203,-1.497924 L 83.088275,27.86148 c 0.831249,-0.848942 1.424021,-1.602501 1.349052,-2.832997 l 0,-2.842586 c 0.01495,-2.679092 -0.618443,-4.333716 -3.407345,-5.052441 l -17.118353,1.689358 c -3.550658,0.990021 -5.03872,1.918372 -4.989248,4.982588 0.576019,1.972377 4.051638,3.981122 6.203341,4.056016 l -24.243934,24.108268 0,-24.512955 c 1.65706,0.05727 2.884843,-0.887058 2.967923,-2.832997 l -0.0076,-2.523708 c -0.111709,-2.414727 -1.121889,-3.536644 -3.529799,-4.653288 l -17.929886,1.645883 c -2.692751,0.873554 -3.531942,1.904143 -4.255739,3.969575 0.119801,2.403812 1.616052,4.684923 4.12072,4.799314 l 1.031529,0.03947 -0.09697,47.932406 c 1.069642,1.981381 2.517479,3.124372 4.595614,3.157024 l 4.587845,0.01357 z"
       id="path4239"
       style="fill:#5c585c;fill-rule:evenodd;stroke:none" />
    <path
       inkscape:connector-curvature="0"
       d="m 30.515037,77.153831 c 0.965356,-0.07002 1.835323,-0.760132 2.562203,-1.497924 L 81.238275,26.010863 c 0.83125,-0.848941 1.424022,-1.6025 1.349052,-2.832996 l 0,-2.842586 c 0.01495,-2.679092 -0.494576,-3.354943 -3.102819,-3.363052 l -17.42129,0 c -2.030437,0.02444 -3.393115,1.384436 -3.372627,3.507537 l 0.03947,2.44462 c 0.148447,2.411999 2.395549,3.011553 4.547252,3.086447 L 39.032143,50.119717 39.03168,25.606145 c 1.65706,0.05727 2.884843,-0.887058 2.967924,-2.832996 l -0.0076,-2.523708 C 41.88034,17.834714 40.767075,17.184732 38.222891,17.107109 l -16.612069,0.134896 c -2.075407,0.170286 -3.339974,0.865226 -3.602921,3.277228 l -0.03962,1.714332 c 0.119801,2.403813 1.002855,3.662938 3.507521,3.777345 l 1.031529,0.03947 0.04764,47.986673 c 0.217984,1.845113 1.294489,3.070167 3.372626,3.102819 l 4.587844,0.01357 z"
       id="path844"
       style="fill:#c6c3c6;fill-rule:evenodd;stroke:none" />
    <path
       style="fill:#676167;fill-rule:evenodd;stroke:none;stroke-width:0.53600001"
       id="path4233"
       d="m 51.471985,76.14219 c -8.08e-4,1.341303 1.513688,2.621079 2.731894,2.609008 l 4.976807,-0.05026 c 0.578232,-0.01295 1.601405,-1.327935 1.156223,-2.26218 l -1.055733,-1.307024 c -0.480007,-0.832335 0.542731,-3.289361 1.759473,-5.781125 1.759026,-2.30957 3.789986,-2.440273 5.077339,-2.463259 0.383986,0.08766 0.539834,0.527979 0.653517,1.005413 -0.650847,1.786205 -2.700167,4.271464 -5.185811,8.785277 0.416051,1.240938 1.353578,2.085243 2.571731,2.073171 l 5.027065,-0.05026 c 0.578232,-0.01295 1.601421,-1.327934 1.156223,-2.262179 L 69.28498,75.131751 c -0.486958,-0.844403 0.568565,-3.351998 1.809747,-5.881657 1.626704,-2.331261 3.597262,-2.362727 4.825985,-2.362727 0.490495,0.150899 0.603022,0.770323 0.603247,1.407577 -0.679161,1.792295 -2.692705,3.784035 -5.056943,8.077344 0.529157,1.206147 1.476064,2.391032 2.694216,2.378945 l 4.976807,-0.05026 c 0.578232,-0.01295 1.65171,-1.327916 1.206494,-2.262179 L 79.2888,75.131771 C 78.295242,73.408944 82.28993,68.388708 83.455446,65.245867 84.179135,63.002466 81.389382,60.307556 80.0144,59.873346 65.764595,63.260618 61.036027,58.791417 51.471992,76.142241 Z"
       inkscape:connector-curvature="0" />
    <path
       style="fill:#c6c3c6;fill-rule:evenodd;stroke:none;stroke-width:0.53600001"
       id="path960"
       d="m 61.92849,59.325695 c -1.83984,-0.333026 -3.715894,-0.231842 -5.411002,-0.02203 -0.663362,-0.04827 -0.922918,1.027691 -0.681685,1.77549 l 0.703771,1.407542 c 0.09073,1.1356 0.659936,2.331585 -4.976791,12.567662 -0.554828,1.21819 0.18937,2.475331 1.407578,2.463259 l 4.976807,-0.05026 c 0.578232,-0.01295 1.601405,-1.327934 1.156223,-2.262179 l -1.055733,-1.307025 c -0.480007,-0.832335 0.542731,-3.289361 1.759473,-5.781125 1.759026,-2.30957 3.789986,-2.440272 5.077339,-2.463259 0.383986,0.08766 0.539834,0.527979 0.653517,1.005413 -0.650847,1.786206 -1.485744,3.881376 -3.971379,8.39519 -0.554827,1.218191 0.139151,2.47533 1.357308,2.463259 l 5.027065,-0.05026 c 0.578233,-0.01295 1.601421,-1.327934 1.156223,-2.262179 l -1.055733,-1.307025 c -0.486958,-0.844403 0.568565,-3.351998 1.809747,-5.881657 1.626705,-2.331261 3.597262,-2.362726 4.825986,-2.362726 0.490495,0.150898 0.603021,0.770322 0.603246,1.407576 -0.679161,1.792295 -1.355795,3.699722 -3.720025,7.993031 -0.554827,1.218191 0.139151,2.475345 1.357306,2.463259 l 4.976807,-0.05026 c 0.578232,-0.01295 1.65171,-1.327915 1.206494,-2.262179 l -1.055733,-1.307025 c -0.993558,-1.722827 3.00113,-6.743062 4.166646,-9.885903 0.723689,-2.243402 -1.759473,-4.205881 -3.134454,-4.640107 l -3.786024,-0.05827 c -0.682858,0.155725 -0.825869,0.549149 -1.013697,1.264777 l -2.590307,-0.02205 c 0.051,-0.662429 -0.121777,-1.099953 -0.609603,-1.148213 l -3.967015,-0.05827 c -1.279705,-0.02622 -1.153136,0.433954 -1.317268,1.220573 l -3.863107,0.0015 c 0.213052,-0.415517 0.208999,-0.975782 -0.01295,-1.246553 z"
       inkscape:connector-curvature="0" />
    <path
       style="fill:#676167;fill-rule:evenodd;stroke:none;stroke-width:0.53600001"
       id="path4235"
       d="m 42.927916,76.050615 c 5.897984,-10.710464 5.029578,-11.615037 4.99338,-12.809119 -0.08445,-1.592094 0.265349,-2.207219 2.026304,-2.171051 l 3.279741,-1.240733 c 1.411496,0.903188 1.568831,1.674866 1.134628,2.905116 -0.695117,1.876346 -5.872284,10.079814 -4.878711,11.802642 l 0.983275,1.640178 c 0.445196,0.934213 -0.59358,2.277812 -1.171813,2.290947 l -4.991915,0.04224 c -1.218189,0.01295 -2.200805,-0.242644 -2.970852,-2.03896 z"
       inkscape:connector-curvature="0" />
    <path
       style="fill:#c6c3c6;fill-rule:evenodd;stroke:#676167;stroke-width:0.82633311"
       id="path955"
       d="m 41.694121,74.81759 c 5.897983,-10.710464 5.029578,-11.615036 4.99338,-12.809118 -0.08445,-1.592094 0.265348,-2.207219 2.026304,-2.171052 l 2.677566,-0.07246 c 1.628292,-0.0724 2.171051,0.506568 1.736841,1.736826 -0.695117,1.876346 -5.944542,10.405013 -4.950984,12.127841 l 1.055579,1.315041 c 0.445196,0.934213 -0.59358,2.277812 -1.171813,2.290947 l -4.991915,0.04224 c -1.218189,0.01295 -1.929811,-1.242319 -1.374986,-2.460514 z"
       inkscape:connector-curvature="0" />
    <ellipse
       id="ellipse4237"
       style="fill:#676167;fill-rule:evenodd;stroke:none;stroke-width:0.509"
       ry="3.8123064"
       rx="3.5073221"
       cy="55.826912"
       cx="52.720264" />
    <ellipse
       id="path866"
       style="fill:#c6c3c6;fill-rule:evenodd;stroke:#484448;stroke-width:0.78470808"
       ry="3.8123064"
       rx="3.5073221"
       cy="54.593819"
       cx="51.486454" />
  </g>
</svg>
