<?xml version="1.0" encoding="UTF-8" standalone="no"?>
<svg
   xmlns:dc="http://purl.org/dc/elements/1.1/"
   xmlns:cc="http://creativecommons.org/ns#"
   xmlns:rdf="http://www.w3.org/1999/02/22-rdf-syntax-ns#"
   xmlns:svg="http://www.w3.org/2000/svg"
   xmlns="http://www.w3.org/2000/svg"
   xmlns:sodipodi="http://sodipodi.sourceforge.net/DTD/sodipodi-0.dtd"
   xmlns:inkscape="http://www.inkscape.org/namespaces/inkscape"
   width="96"
   version="1.0"
   height="96"
   id="svg2"
   inkscape:version="0.91 r13725"
   sodipodi:docname="vokoscreen.svg">
  <metadata
     id="metadata19">
    <rdf:RDF>
      <cc:Work
         rdf:about="">
        <dc:format>image/svg+xml</dc:format>
        <dc:type
           rdf:resource="http://purl.org/dc/dcmitype/StillImage" />
        <dc:title />
      </cc:Work>
    </rdf:RDF>
  </metadata>
  <defs
     id="defs17" />
  <sodipodi:namedview
     pagecolor="#ffffff"
     bordercolor="#666666"
     borderopacity="1"
     objecttolerance="10"
     gridtolerance="10"
     guidetolerance="10"
     inkscape:pageopacity="0"
     inkscape:pageshadow="2"
     inkscape:window-width="640"
     inkscape:window-height="480"
     id="namedview15"
     showgrid="false"
     inkscape:zoom="2.3422912"
     inkscape:cx="65.14698"
     inkscape:cy="28.543055"
     inkscape:current-layer="svg2" />
  <g
     id="g4140">
    <rect
       ry="0"
       rx="0"
       y="6"
       x="6"
       height="84"
       width="84"
       id="rect4157"
       style="opacity:1;fill:#37c871;fill-opacity:1;fill-rule:evenodd;stroke:none;stroke-width:1;stroke-linecap:butt;stroke-linejoin:miter;stroke-miterlimit:4;stroke-dasharray:none;stroke-opacity:1" />
    <path
       inkscape:connector-curvature="0"
       style="color:#000000;fill:#37c8ab;stroke:none"
       id="path4327-3"
       d="M 31.302294,19.848713 15.672405,37.457686 64.841398,77.054141 79.399517,58.131688 Z" />
    <path
       inkscape:connector-curvature="0"
       id="rect3549-5"
       d="m 11.880524,40.915317 50.4424,40.94846 21.796552,-26.779094 -50.4424,-40.94846 -21.796552,26.779094 z m 2.057059,0.09901 2.181242,-2.679882 3.501024,2.842012 -2.181243,2.679883 -3.501023,-2.842013 z m 18.107527,-22.24682 2.165202,-2.660091 3.501024,2.842012 -2.165202,2.660092 -3.501024,-2.842013 z M 17.721675,37.835886 31.611192,20.771501 46.245858,32.651564 32.356341,49.715949 17.721687,37.835717 Z m 1.184213,7.21169 2.181243,-2.679883 3.501023,2.842013 -2.181243,2.679883 -3.501023,-2.842013 z m 18.107516,-22.24665 2.165201,-2.660092 3.501024,2.842013 -2.165202,2.660091 -3.501023,-2.842012 z m -13.139223,26.280071 2.181243,-2.679882 3.501023,2.842012 -2.181242,2.679883 -3.501024,-2.842013 z m 18.107528,-22.24682 2.165202,-2.660091 3.501023,2.842012 -2.165201,2.660092 -3.501024,-2.842013 z m -13.139223,26.280072 2.181243,-2.679883 3.501024,2.842013 -2.181243,2.679883 -3.501024,-2.842013 z m 18.107528,-22.24682 2.165202,-2.660092 3.501023,2.842013 -2.165201,2.660091 -3.501024,-2.842012 z M 33.836555,50.917942 47.726072,33.853557 62.360738,45.73362 48.471221,62.798005 33.836555,50.917942 Z m -0.02576,6.229559 2.181243,-2.679883 3.501024,2.842013 -2.181243,2.679882 -3.501024,-2.842012 z m 18.107528,-22.24682 2.165202,-2.660092 3.501024,2.842013 -2.165202,2.660091 -3.501024,-2.842012 z m -13.139222,26.280071 2.181242,-2.679882 3.501024,2.842012 -2.181243,2.679883 -3.501023,-2.842013 z m 18.107527,-22.24682 2.165202,-2.660091 3.501024,2.842012 -2.165202,2.660092 -3.501024,-2.842013 z m -13.139222,26.280072 2.181243,-2.679883 3.501023,2.842013 -2.181243,2.679883 -3.501023,-2.842013 z m 18.107528,-22.24682 2.165201,-2.660092 3.501024,2.842013 -2.165202,2.660091 -3.501023,-2.842012 z M 49.745296,63.832784 63.634814,46.768399 78.269479,58.648462 64.379962,75.712847 49.745296,63.832784 Z m -1.029754,5.414531 2.181243,-2.679883 3.513815,2.852486 -2.181243,2.679883 -3.513815,-2.852486 z m 18.107528,-22.24682 2.165201,-2.660092 3.513816,2.852486 -2.165202,2.660092 -3.513815,-2.852486 z m -13.139223,26.280071 2.181243,-2.679882 3.501023,2.842012 -2.181242,2.679883 -3.501024,-2.842013 z m 18.107528,-22.24682 2.165202,-2.660091 3.501023,2.842012 -2.165202,2.660092 -3.501023,-2.842013 z m -13.139223,26.280072 2.181243,-2.679883 3.501024,2.842013 -2.181243,2.679883 -3.501024,-2.842013 z m 18.107528,-22.24682 2.165202,-2.660092 3.501023,2.842013 -2.165201,2.660092 -3.501024,-2.842013 z"
       style="color:#000000;stroke:none" />
    <path
       d="m 82.976508,22.721289 -18.45,15.6321 -11.3831,0 0,13.0759 11.3831,0 18.45,16.1325 0,-44.8403 z"
       id="path3293"
       style="fill:#ffc555;fill-rule:evenodd;stroke:#006432;stroke-width:2.24099994;fill-opacity:1"
       inkscape:connector-curvature="0" />
  </g>
</svg>
