<?xml version="1.0" encoding="UTF-8" standalone="no"?>
<!-- Created with Inkscape (http://www.inkscape.org/) -->

<svg
   xmlns:dc="http://purl.org/dc/elements/1.1/"
   xmlns:cc="http://creativecommons.org/ns#"
   xmlns:rdf="http://www.w3.org/1999/02/22-rdf-syntax-ns#"
   xmlns:svg="http://www.w3.org/2000/svg"
   xmlns="http://www.w3.org/2000/svg"
   xmlns:sodipodi="http://sodipodi.sourceforge.net/DTD/sodipodi-0.dtd"
   xmlns:inkscape="http://www.inkscape.org/namespaces/inkscape"
   width="96"
   height="96"
   viewBox="0 0 96 96.000005"
   id="svg2"
   version="1.1"
   inkscape:version="0.91 r13725"
   sodipodi:docname="wallch.svg">
  <defs
     id="defs4" />
  <sodipodi:namedview
     id="base"
     pagecolor="#ffffff"
     bordercolor="#666666"
     borderopacity="1.0"
     inkscape:pageopacity="0.0"
     inkscape:pageshadow="2"
     inkscape:zoom="2.8284271"
     inkscape:cx="27.052673"
     inkscape:cy="39.092375"
     inkscape:document-units="px"
     inkscape:current-layer="layer1"
     showgrid="false"
     units="px"
     inkscape:showpageshadow="false"
     borderlayer="true"
     inkscape:window-width="2560"
     inkscape:window-height="957"
     inkscape:window-x="-4"
     inkscape:window-y="29"
     inkscape:window-maximized="1"
     showguides="false">
    <inkscape:grid
       type="xygrid"
       id="grid4136" />
    <sodipodi:guide
       position="5,59.000069"
       orientation="54,0"
       id="guide4142" />
    <sodipodi:guide
       position="5,5.0000688"
       orientation="0,54"
       id="guide4144" />
    <sodipodi:guide
       position="59,5.0000688"
       orientation="-54,0"
       id="guide4146" />
    <sodipodi:guide
       position="59,59.000069"
       orientation="0,-54"
       id="guide4148" />
    <sodipodi:guide
       position="0,64.000069"
       orientation="64,0"
       id="guide4150" />
    <sodipodi:guide
       position="0,6.875e-05"
       orientation="0,64"
       id="guide4152" />
    <sodipodi:guide
       position="64,6.875e-05"
       orientation="-64,0"
       id="guide4154" />
    <sodipodi:guide
       position="64,64.000069"
       orientation="0,-64"
       id="guide4156" />
    <sodipodi:guide
       position="14,13.999947"
       orientation="0,36"
       id="guide4176" />
    <sodipodi:guide
       position="14,13.999947"
       orientation="0,18.000053"
       id="guide4186" />
  </sodipodi:namedview>
  <metadata
     id="metadata7">
    <rdf:RDF>
      <cc:Work
         rdf:about="">
        <dc:format>image/svg+xml</dc:format>
        <dc:type
           rdf:resource="http://purl.org/dc/dcmitype/StillImage" />
        <dc:title></dc:title>
      </cc:Work>
    </rdf:RDF>
  </metadata>
  <g
     inkscape:label="Capa 1"
     inkscape:groupmode="layer"
     id="layer1"
     transform="translate(0,-1026.5196)">
    <path
       inkscape:connector-curvature="0"
       style="fill:#80b3ff;fill-opacity:1;stroke:none"
       d="m 7.4482476,1032.5274 c -0.8023862,0 -1.4482512,0.6937 -1.4482512,1.5554 l 0,79.326 0,1.5554 c 0,0.8617 0.645865,1.5554 1.4482512,1.5554 l 1.4482512,0 79.6538162,0 c 0.802386,0 1.448251,-0.6937 1.448251,-1.5554 l 0,-80.8814 c 0,-0.8617 -0.645865,-1.5554 -1.448251,-1.5554 l -79.6538162,0 -1.4482512,0 z"
       id="rect4148-4" />
    <path
       inkscape:connector-curvature="0"
       style="fill:#172f55;fill-opacity:1;fill-rule:evenodd;stroke:none;stroke-width:1px;stroke-linecap:butt;stroke-linejoin:miter;stroke-opacity:1"
       d="m 81.309059,1071.4127 -41.999285,45.1069 49.240541,0 c 0.802386,0 1.448251,-0.6937 1.448251,-1.5554 l 0,-34.219 -8.689507,-9.3325 z"
       id="path4202-5-7" />
    <path
       inkscape:connector-curvature="0"
       style="fill:#f1f2f4;fill-opacity:1;fill-rule:evenodd;stroke:none;stroke-width:1px;stroke-linecap:butt;stroke-linejoin:miter;stroke-opacity:1"
       d="m 81.309059,1071.4127 -11.006143,11.8205 5.213138,-2.488 5.793005,4.6662 1.448251,-3.1108 7.241256,7.777 -2.896502,-7.777 2.896502,0 0,-1.5554 -8.689507,-9.3325 z"
       id="path4236-1-9" />
    <path
       style="opacity:1;fill:#c5eff7;fill-opacity:1;stroke:none;stroke-opacity:1"
       d="m 5.9999964,1110.298 0,4.6662 c 0,0.8617 0.645865,1.5554 1.4482512,1.5554 l 81.1020674,0 c 0.802386,0 1.448251,-0.6937 1.448251,-1.5554 l 0,-4.6662 z"
       id="rect4230-5"
       inkscape:connector-curvature="0"
       sodipodi:nodetypes="csssscc" />
    <ellipse
       style="opacity:1;fill:#2c3e50;fill-opacity:1;stroke:none;stroke-opacity:1"
       id="path4323-62"
       cx="87.826187"
       cy="1112.6312"
       rx="0.72412562"
       ry="0.77770549" />
    <ellipse
       style="opacity:1;fill:#2c3e50;fill-opacity:1;stroke:none;stroke-opacity:1"
       id="path4323-6-7"
       cx="83.481438"
       cy="1112.6312"
       rx="0.72412562"
       ry="0.77770549" />
    <ellipse
       style="opacity:1;fill:#2c3e50;fill-opacity:1;stroke:none;stroke-opacity:1"
       id="path4323-8-5"
       cx="79.136681"
       cy="1112.6312"
       rx="0.72412562"
       ry="0.77770549" />
    <path
       style="opacity:1;fill:#baebfc;fill-opacity:1;stroke:none;stroke-width:0.99996877;stroke-opacity:1"
       d="m 20.482508,1034.8609 c -1.246837,0 -2.43263,0.58 -3.255736,1.5855 -0.909858,0.1214 -1.712462,0.6984 -2.163892,1.5555 -0.123724,-0.019 -0.248437,-0.03 -0.373376,-0.03 -1.599694,0 -2.896503,1.3926 -2.896503,3.1105 0.0012,0.1353 0.01072,0.2702 0.02829,0.4041 -0.910755,0.5502 -1.474995,1.5845 -1.476536,2.7066 0,1.7181 1.296809,3.1107 2.896502,3.1107 l 13.034261,0 c 2.399541,0 4.344754,-2.089 4.344754,-4.666 0,-2.577 -1.945213,-4.6659 -4.344754,-4.6659 -0.126577,0 -0.253038,0.016 -0.379035,0.022 -0.452165,-0.8539 -1.253337,-1.4284 -2.161061,-1.5494 -0.822972,-1.0038 -2.007504,-1.5801 -3.252909,-1.5826 z"
       id="rect4249-7"
       inkscape:connector-curvature="0"
       sodipodi:nodetypes="cccccccssscccc" />
    <path
       inkscape:connector-curvature="0"
       style="opacity:1;fill:#a6e7f3;fill-opacity:1;stroke:none;stroke-width:0.1;stroke-linecap:square;stroke-linejoin:miter;stroke-miterlimit:4;stroke-dasharray:none;stroke-dashoffset:0;stroke-opacity:1"
       d="m 5.9999964,1114.9642 c 0,0.8617 0.645865,1.5554 1.4482512,1.5554 l 81.1020674,0 c 0.802386,0 1.448251,-0.6937 1.448251,-1.5554 l -83.9985696,0 z"
       id="rect4284" />
    <path
       sodipodi:nodetypes="ccssc"
       inkscape:connector-curvature="0"
       style="fill:#202b33;fill-opacity:1;fill-rule:evenodd;stroke:none;stroke-width:1px;stroke-linecap:butt;stroke-linejoin:miter;stroke-opacity:1"
       d="m 74.067803,1032.5275 15.930763,17.1095 0,-16.1728 c 0,-0.8617 0.09784,-0.9446 -1.323253,-0.9446 -3.491659,0 -9.780007,0.01 -14.60751,0.01 z"
       id="path4254" />
    <path
       inkscape:connector-curvature="0"
       style="opacity:1;fill:#d4e8f4;fill-opacity:1;stroke:none;stroke-width:0.1;stroke-linecap:square;stroke-linejoin:miter;stroke-miterlimit:4;stroke-dasharray:none;stroke-dashoffset:0;stroke-opacity:1"
       d="m 74.067803,1032.5275 0,1.5554 0,13.9987 c 0,0.8617 0.645865,1.5554 1.448251,1.5554 l 13.034261,0 1.448251,0 -15.930763,-17.1095 z"
       id="rect4256" />
  </g>
</svg>
