/* XPM */
static char * menu_prelight_xpm[] = {
"24 24 4 1",
" 	c None",
".	c #f8c36e",
"+	c #FFFFFF",
"@	c #FDFDFD",
"........................",
"........................",
"........................",
"........................",
"........................",
"........................",
"........................",
".....+@@@@@@@@@@@@+.....",
".....+@@@@@@@@@@@@+.....",
"........................",
"........................",
".....+@@@@@@@@@@@@+.....",
".....+@@@@@@@@@@@@+.....",
"........................",
"........................",
".....+@@@@@@@@@@@@+.....",
".....+@@@@@@@@@@@@+.....",
"........................",
"........................",
"........................",
"........................",
"........................",
"........................",
"........................"};
