/* XPM */
static char * stick_toggled_pressed_xpm[] = {
"24 24 3 1",
" 	c None",
".	c #EEEEEE",
"+	c #a900ff",
"........................",
"........................",
"........................",
"........................",
"........................",
"........................",
".........++++++.........",
"........++++++++........",
".......++......++.......",
"......++.++++++.++......",
"......++.++++++.++......",
"......++.++++++.++......",
"......++.++++++.++......",
"......++.++++++.++......",
"......++.++++++.++......",
".......++......++.......",
"........++++++++........",
".........++++++.........",
"........................",
"........................",
"........................",
"........................",
"........................",
"........................"};
