/* XPM */
static char * hide_pressed_xpm[] = {
"24 24 3 1",
" 	c None",
".	c #EEEEEE",
"+	c #8c6d62",
"........................",
"........................",
"........................",
"........................",
"........................",
"........................",
"........................",
"........................",
"........................",
"........................",
"........................",
"........................",
"........................",
"........................",
"........................",
"......++++++++++++......",
"......++++++++++++......",
"........................",
"........................",
"........................",
"........................",
"........................",
"........................",
"........................"};
