/* XPM */
static char * hide_active_xpm[] = {
"24 24 3 1",
" 	c None",
".	c #8c6d62",
"+	c #FDFDFD",
"........................",
"........................",
"........................",
"........................",
"........................",
"........................",
"........................",
"........................",
"........................",
"........................",
"........................",
"........................",
"........................",
"........................",
"........................",
"......++++++++++++......",
"......++++++++++++......",
"........................",
"........................",
"........................",
"........................",
"........................",
"........................",
"........................"};
