/* XPM */
static char * menu_prelight_xpm[] = {
"24 24 4 1",
" 	c None",
".	c #957e75",
"+	c #FFFFFF",
"@	c #FDFDFD",
"........................",
"........................",
"........................",
"........................",
"........................",
"........................",
"........................",
".....+@@@@@@@@@@@@+.....",
".....+@@@@@@@@@@@@+.....",
"........................",
"........................",
".....+@@@@@@@@@@@@+.....",
".....+@@@@@@@@@@@@+.....",
"........................",
"........................",
".....+@@@@@@@@@@@@+.....",
".....+@@@@@@@@@@@@+.....",
"........................",
"........................",
"........................",
"........................",
"........................",
"........................",
"........................"};
