/* XPM */
static char * shade_prelight_xpm[] = {
"24 24 4 1",
" 	c None",
".	c #957e75",
"+	c #FDFDFD",
"@	c #FFFFFF",
"........................",
"........................",
"........................",
"........................",
"........................",
"........................",
"........................",
"......++++++++++++......",
"......++++++++++++......",
"........................",
"........................",
"...........++...........",
"..........+@@+..........",
".........+@++@+.........",
"........+@@..@@+........",
".......@@@....@@@.......",
".......@@......@@.......",
"........................",
"........................",
"........................",
"........................",
"........................",
"........................",
"........................"};
