/* XPM */
static char * maximize_toggled_active_xpm[] = {
"24 24 4 1",
" 	c None",
".	c #1d87e4",
"+	c #FDFDFD",
"@	c #FFFFFF",
"........................",
"........................",
"........................",
"........................",
"........................",
"........................",
"........................",
"...............++.......",
"..............+++.......",
".............@@@........",
"............@@@.........",
".......@...@@@..........",
".......@@.@@@...........",
".......@@@@@............",
".......@@@@.............",
".......+++@@............",
".......++@@@@...........",
"........................",
"........................",
"........................",
"........................",
"........................",
"........................",
"........................"};
