/* XPM */
static char * menu_pressed_xpm[] = {
"24 24 3 1",
" 	c None",
".	c #EEEEEE",
"+	c #1d87e4",
"........................",
"........................",
"........................",
"........................",
"........................",
"........................",
"........................",
".....++++++++++++++.....",
".....++++++++++++++.....",
"........................",
"........................",
".....++++++++++++++.....",
".....++++++++++++++.....",
"........................",
"........................",
".....++++++++++++++.....",
".....++++++++++++++.....",
"........................",
"........................",
"........................",
"........................",
"........................",
"........................",
"........................"};
