/* XPM */
static char * top_left_active_xpm[] = {
"2 36 3 1",
" 	c None",
".	c #1d87e4",
"+	c #1d87e4",
"..",
".+",
".+",
".+",
".+",
".+",
".+",
".+",
".+",
".+",
".+",
".+",
".+",
".+",
".+",
".+",
".+",
".+",
".+",
".+",
".+",
".+",
".+",
".+",
".+",
".+",
".+",
".+",
".+",
".+",
".+",
".+",
".+",
".+",
".+",
".+"};
