/* XPM */
static char * stick_prelight_xpm[] = {
"24 24 4 1",
" 	c None",
".	c #61737b",
"+	c #FDFDFD",
"@	c #FFFFFF",
"........................",
"........................",
"........................",
"........................",
"........................",
"........................",
".........++++++.........",
"........++++++++........",
".......+@......@+.......",
"......++........++......",
"......++........++......",
"......++........++......",
"......++........++......",
"......++........++......",
"......++........++......",
".......+@......@+.......",
"........++++++++........",
".........++++++.........",
"........................",
"........................",
"........................",
"........................",
"........................",
"........................"};
