<?xml version="1.0" encoding="UTF-8" standalone="no"?>
<!-- Created with Inkscape (http://www.inkscape.org/) -->

<svg
   xmlns:dc="http://purl.org/dc/elements/1.1/"
   xmlns:cc="http://creativecommons.org/ns#"
   xmlns:rdf="http://www.w3.org/1999/02/22-rdf-syntax-ns#"
   xmlns:svg="http://www.w3.org/2000/svg"
   xmlns="http://www.w3.org/2000/svg"
   xmlns:xlink="http://www.w3.org/1999/xlink"
   xmlns:sodipodi="http://sodipodi.sourceforge.net/DTD/sodipodi-0.dtd"
   xmlns:inkscape="http://www.inkscape.org/namespaces/inkscape"
   width="64px"
   height="64px"
   id="svg3328"
   version="1.1"
   inkscape:version="0.48.5 r10040"
   sodipodi:docname="source-java.svg">
  <defs
     id="defs3330">
    <linearGradient
       id="linearGradient4287">
      <stop
         id="stop4289"
         offset="0"
         style="stop-color:#f4f4f4;stop-opacity:1;" />
      <stop
         id="stop4291"
         offset="1"
         style="stop-color:#c5c5c5;stop-opacity:1;" />
    </linearGradient>
    <linearGradient
       inkscape:collect="always"
       xlink:href="#linearGradient3932"
       id="linearGradient3938"
       x1="125"
       y1="862.36218"
       x2="125"
       y2="1012.3622"
       gradientUnits="userSpaceOnUse" />
    <linearGradient
       id="linearGradient3932">
      <stop
         style="stop-color:#e6e6e6;stop-opacity:1;"
         offset="0"
         id="stop3934" />
      <stop
         style="stop-color:#b3a492;stop-opacity:1;"
         offset="1"
         id="stop3936" />
    </linearGradient>
    <linearGradient
       gradientTransform="matrix(1,0,0,-1,-14,78)"
       inkscape:collect="always"
       xlink:href="#linearGradient4410"
       id="linearGradient4427"
       x1="54"
       y1="31"
       x2="40"
       y2="17"
       gradientUnits="userSpaceOnUse" />
    <linearGradient
       inkscape:collect="always"
       id="linearGradient4410">
      <stop
         style="stop-color:#383e51;stop-opacity:1"
         offset="0"
         id="stop4412" />
      <stop
         style="stop-color:#655c6f;stop-opacity:0"
         offset="1"
         id="stop4414" />
    </linearGradient>
    <linearGradient
       inkscape:collect="always"
       xlink:href="#linearGradient3791-7-4-3"
       id="linearGradient3046"
       gradientUnits="userSpaceOnUse"
       x1="35"
       y1="59"
       x2="35"
       y2="14" />
    <linearGradient
       id="linearGradient3791-7-4-3">
      <stop
         style="stop-color:#9c9c9c;stop-opacity:0.48258707;"
         offset="0"
         id="stop3793-1-6-1" />
      <stop
         style="stop-color:#9f9f9f;stop-opacity:0.09452736;"
         offset="1"
         id="stop3795-9-8-2" />
    </linearGradient>
    <linearGradient
       y2="14"
       x2="35"
       y1="59"
       x1="35"
       gradientUnits="userSpaceOnUse"
       id="linearGradient3063"
       xlink:href="#linearGradient3791-7-4-3"
       inkscape:collect="always"
       gradientTransform="translate(-69,-2)" />
    <linearGradient
       inkscape:collect="always"
       xlink:href="#linearGradient3791-7-4-3"
       id="linearGradient3856"
       x1="33"
       y1="59"
       x2="33"
       y2="19"
       gradientUnits="userSpaceOnUse" />
    <linearGradient
       inkscape:collect="always"
       xlink:href="#linearGradient3791-7-4-3"
       id="linearGradient3866"
       x1="30"
       y1="59"
       x2="30"
       y2="14"
       gradientUnits="userSpaceOnUse" />
  </defs>
  <sodipodi:namedview
     id="base"
     pagecolor="#ffffff"
     bordercolor="#666666"
     borderopacity="1.0"
     inkscape:pageopacity="0.0"
     inkscape:pageshadow="2"
     inkscape:zoom="3.8890873"
     inkscape:cx="38.689934"
     inkscape:cy="39.414358"
     inkscape:current-layer="layer1"
     showgrid="true"
     inkscape:document-units="px"
     inkscape:grid-bbox="true"
     inkscape:window-width="1366"
     inkscape:window-height="698"
     inkscape:window-x="-4"
     inkscape:window-y="-5"
     inkscape:window-maximized="1"
     showguides="true"
     inkscape:guide-bbox="true">
    <inkscape:grid
       type="xygrid"
       id="grid3336" />
    <sodipodi:guide
       orientation="0,1"
       position="50,44"
       id="guide4416" />
    <sodipodi:guide
       orientation="0,1"
       position="57,18"
       id="guide4418" />
    <sodipodi:guide
       orientation="1,0"
       position="33,42"
       id="guide4494" />
  </sodipodi:namedview>
  <metadata
     id="metadata3333">
    <rdf:RDF>
      <cc:Work
         rdf:about="">
        <dc:format>image/svg+xml</dc:format>
        <dc:type
           rdf:resource="http://purl.org/dc/dcmitype/StillImage" />
        <dc:title></dc:title>
      </cc:Work>
    </rdf:RDF>
  </metadata>
  <g
     id="layer1"
     inkscape:label="Layer 1"
     inkscape:groupmode="layer">
    <path
       style="fill:#da8226;fill-opacity:1;stroke:none"
       d="m 10,4 29,0 16,16 0,39 -45,0 z"
       id="rect4869-5"
       inkscape:connector-curvature="0"
       sodipodi:nodetypes="cccccc" />
    <path
       style="fill:#da8226;fill-opacity:1;stroke:none"
       d="M 55,4 55,18 41,4 z"
       id="rect4177"
       inkscape:connector-curvature="0"
       sodipodi:nodetypes="cccc" />
    <text
       xml:space="preserve"
       style="font-size:9px;font-style:normal;font-weight:normal;text-align:center;line-height:125%;letter-spacing:0px;word-spacing:0px;text-anchor:middle;fill:#4d4d4d;fill-opacity:1;stroke:none;font-family:Sans"
       x="25"
       y="16"
       id="text3778"
       sodipodi:linespacing="125%"><tspan
         sodipodi:role="line"
         id="tspan3780"
         x="25"
         y="16" /></text>
    <path
       style="opacity:0.65966384;fill:#ffffff;fill-opacity:0.67942583;stroke:none"
       d="M 10,4 39,4 40,5 10,5 z"
       id="rect3940-7-7"
       inkscape:connector-curvature="0"
       sodipodi:nodetypes="ccccc" />
    <path
       style="opacity:0.65966384;fill:#ffffff;fill-opacity:0.67942583;stroke:none"
       d="M 42,5 55,5 55,4 41,4 z"
       id="rect3940-7-7-8"
       inkscape:connector-curvature="0"
       sodipodi:nodetypes="ccccc" />
    <path
       style="fill:#e6e6e6;fill-rule:evenodd"
       inkscape:connector-curvature="0"
       d="m 26.408166,44.862735 c 0.01973,-0.03011 0.02938,-0.04826 0.05039,-0.08084 0.187105,-0.289576 0.40616,-0.645791 0.491318,-0.798139 0.157718,-0.282367 0.38731,-0.948743 0.453527,-1.313448 0.156357,-0.861522 0.172138,-1.08702 0.100779,-1.363803 -0.02106,-0.08176 -0.0478,-0.480769 -0.063,-0.889085 -0.02258,-0.604855 -0.03225,-0.791627 -0.08819,-0.969909 -0.08581,-0.273528 -0.151265,-0.604275 -0.15116,-0.868848 4.2e-5,-0.323538 -0.05912,-0.902458 -0.13859,-1.283096 -0.107294,-0.513912 -0.108346,-1.428231 0,-1.909464 0.08874,-0.394362 0.06716,-0.55892 -0.08819,-0.737552 -0.227713,-0.261783 -0.472366,-0.289692 -1.083414,-0.131301 -1.760595,0.431225 -3.591743,-0.671726 -4.623485,-1.727578 -0.685345,-0.917171 -1.673668,-1.499219 -1.776314,-2.596532 -0.0777,-0.89533 -0.222915,-1.65136 -0.176362,-2.566156 -0.03806,-0.836285 0.616168,-1.41523 0.856659,-2.252968 -0.152748,-0.790931 -1.358731,-0.592123 -2.066073,-0.858766 -0.350764,-0.152504 -0.526983,-0.433563 -0.453526,-0.717315 0.08802,-0.340084 0.487739,-0.814258 0.818868,-0.969886 0.692219,-0.258374 1.479237,-0.157666 2.217241,-0.303089 0.617995,-0.127221 0.869492,-0.220604 1.2472,-0.495051 0.56415,-0.409917 0.706911,-0.473411 1.209426,-0.47484 2.248535,0.118604 3.02936,2.147562 3.237685,3.6674 0.08431,1.154159 -0.520252,2.135163 -0.856673,3.222856 -0.13988,0.449496 0.294291,1.092614 0.84407,0.626384 0.356624,-0.891086 0.418954,-1.575988 1.133826,-2.364103 0.707341,-0.758528 1.295218,-1.212201 2.015672,-1.555868 0.580262,-0.30595 1.157651,-0.6552 1.612539,-1.081017 0.242884,-0.275704 0.711784,-0.88349 0.818868,-1.070926 0.427016,-0.845659 1.421866,-1.402124 2.456597,-1.727609 0.668842,-0.189137 1.318249,-0.449083 2.015659,-0.565769 0.941771,-0.03989 1.60684,-0.09239 2.444052,0.222265 0.66072,0.206156 1.083458,0.65354 1.536943,1.060813 0.481473,0.571167 0.759189,1.350652 1.083457,2.010505 0.224785,0.554104 0.470452,0.921879 0.881879,1.29319 0.264084,0.238383 0.615472,0.628358 0.856642,0.949674 0.699296,1.433826 1.402508,2.501586 2.620256,3.717917 0.650858,0.568711 0.781088,0.851439 0.781088,1.606375 0.185338,1.162274 0.171702,2.0331 -0.163733,3.212807 -0.04047,0.0857 -0.272643,0.394592 -0.516569,0.686961 -0.359654,0.431224 -0.46407,0.53438 -0.566891,0.575898 -0.08294,0.03338 -0.155745,0.0521 -0.214051,0.04035 -0.1343,-0.02699 -0.306286,-0.178049 -0.352839,-0.313185 -0.05829,-0.169452 0.02117,-0.40285 0.25205,-0.72743 0.388657,-0.523683 0.594878,-1.130865 0.466097,-1.737698 -0.09947,-0.439484 -0.05962,-0.892457 -0.138641,-1.333592 -0.129067,-0.475732 -0.316872,-0.737514 -0.516422,-0.737514 -0.217967,0 -0.38344,0.304416 -0.655209,1.151785 l -0.176347,1.565928 c -0.0143,1.281001 0.02886,2.28045 0.113403,2.556071 0.08499,0.277135 0.08526,1.145517 0,1.515454 -0.07876,0.341679 -0.0567,0.487863 0.113416,0.808261 0.171858,0.323767 0.226958,0.544147 0.201579,0.919319 -0.02204,0.322838 -0.0686,0.462158 -0.226815,0.777904 -0.17649,0.352261 -0.206945,0.488678 -0.239285,1.030499 -0.01692,0.282135 -0.06034,0.585667 -0.08832,0.67696 -0.160681,0.525426 -0.136758,0.649165 0.176491,1.424512 0.196796,0.487514 0.314119,0.945835 0.264521,1.010263 -0.0206,0.285391 0.09151,0.576133 0.01239,0.858846 -0.01586,0.04594 -31.233239,0.433785 -17.964595,-0.666841 z M 40.656432,33.496884 c -0.232034,0 -0.35922,0.127341 -0.629829,0.575781 -0.473497,0.668586 -0.817635,1.282861 -0.907112,2.061116 -0.108035,0.648816 -0.155172,1.284374 -0.151108,1.939703 l 0,0.919436 -0.100791,0.161658 c -0.06092,0.08978 -0.239866,0.278993 -0.403162,0.41413 -0.2039,0.168859 -0.338045,0.305394 -0.428394,0.4446 -0.240881,0.371449 -0.39649,0.570432 -0.69277,0.889083 -0.330939,0.355632 -0.618518,0.774184 -0.680297,1.010264 -0.0509,0.193749 -0.01184,0.394244 0.113272,0.545546 0.04714,0.05699 0.199984,0.178979 0.340221,0.27283 0.415052,0.277715 0.553984,0.460183 0.655064,0.92944 0.04408,0.204564 0.04525,0.285739 0.01273,0.464717 -0.06699,0.367381 -0.212168,0.590553 -0.428394,0.687078 1.613078,0.119441 3.239063,0.30423 4.875489,0.535428 0.02349,-0.07616 0.06091,-0.161884 0.113272,-0.252596 0.205205,-0.355052 0.244362,-0.441344 0.30237,-0.79814 0.06034,-0.370286 0.131248,-0.583574 0.441013,-1.313332 0.211152,-0.497632 0.218691,-0.538101 0.239285,-0.848728 0.03524,-0.531126 -0.0054,-1.320776 -0.08817,-1.596281 -0.108908,-0.362378 -0.138206,-0.644862 -0.138502,-1.353803 -2.9e-4,-0.481233 -0.011,-0.712314 -0.05046,-0.878965 -0.07441,-0.314815 -0.316874,-0.830705 -0.604741,-1.293213 -0.303238,-0.48728 -0.397358,-0.662074 -0.529037,-1.050619 -0.216082,-0.545546 -0.56283,-1.034803 -0.66768,-1.606398 -0.09165,-0.582412 -0.280908,-0.858731 -0.592125,-0.858731 z M 36.3983,34.689033 c -0.04961,-0.0026 -0.09644,0.01239 -0.163733,0.04035 -0.140664,0.05837 -0.218257,0.187121 -0.390542,0.707198 -0.186499,0.562756 -0.260315,0.727664 -0.415779,0.909319 -0.434051,0.50705 -0.43637,0.515423 -0.541658,1.010264 -0.116164,0.54601 -0.128632,0.565431 -0.592122,0.949674 -0.223915,0.185609 -0.527445,0.426806 -0.667682,0.535543 -0.321223,0.248642 -0.441156,0.443902 -0.44101,0.707197 2.89e-4,0.201192 0.03914,0.295975 0.352839,0.747552 0.275974,0.397267 0.377635,0.505886 0.617212,0.707197 0.223913,0.188167 0.688998,0.477279 0.944815,0.586015 0.185776,0.07897 0.373289,0.08966 0.51657,0.03023 0.146035,-0.06047 0.292217,-0.214916 0.428394,-0.444486 0.06845,-0.115364 0.23885,-0.363424 0.377927,-0.555662 0.455514,-0.62986 0.573852,-0.926648 0.617213,-1.59628 0.01552,-0.23771 0.03944,-0.567526 0.06308,-0.727431 0.04569,-0.310628 0.02046,-0.59788 -0.138641,-1.515457 -0.03597,-0.20782 -0.09396,-0.693589 -0.138501,-1.080971 -0.08556,-0.742202 -0.122408,-0.8521 -0.277284,-0.949674 -0.05467,-0.03464 -0.101376,-0.05791 -0.151108,-0.06069 z m -5.480113,0.343422 c -0.234777,0.02023 -0.359597,0.08293 -0.50391,0.202008 -0.256498,0.211776 -0.377591,0.518796 -0.415733,1.111441 -0.03271,0.508099 -0.06159,0.59346 -0.403146,1.151681 -0.251249,0.410757 -0.311158,0.597065 -0.440924,1.222505 -0.0653,0.31493 -0.08224,0.436807 -0.07559,1.030499 0.0073,0.652887 0.005,0.696149 -0.07559,0.919321 -0.04612,0.127691 -0.182219,0.399943 -0.302355,0.606251 -0.2641,0.453323 -0.307694,0.583225 -0.352737,1.030499 -0.01921,0.190377 -0.06628,0.494726 -0.113392,0.676844 -0.05205,0.20131 -0.09537,0.493329 -0.113379,0.747668 -0.01909,0.270505 -0.109853,0.65812 -0.201566,1.020383 1.599244,-0.0984 3.193991,-0.143054 4.787187,-0.131301 -0.02799,-0.05106 -0.05221,-0.09989 -0.03769,-0.161657 0.03552,-0.152224 0.212167,-0.271318 0.680297,-0.454716 0.340077,-0.133165 0.45798,-0.197006 0.62983,-0.333306 0.335292,-0.265852 0.567616,-0.670097 0.567037,-0.990144 -0.05728,-0.438088 -0.513089,-0.772671 -0.831556,-1.111327 -0.299905,-0.32179 -0.797186,-0.708358 -1.234572,-0.95979 -0.45167,-0.259457 -0.877628,-0.552292 -1.02043,-0.707197 -0.06439,-0.06991 -0.14736,-0.209218 -0.188978,-0.313186 -0.06974,-0.17409 -0.07602,-0.233871 -0.07559,-0.818377 4.06e-4,-0.727665 0.0085,-0.766041 0.314944,-1.202268 0.240432,-0.342143 0.334463,-0.587994 0.377941,-1.020381 0.01981,-0.197239 0.07882,-0.49333 0.125982,-0.656724 0.105166,-0.364473 0.09102,-0.531357 -0.03779,-0.666727 -0.137421,-0.144431 -0.336509,-0.192935 -0.781073,-0.192005 -0.105525,2.32e-4 -0.198898,-0.0068 -0.277152,0 z m 4.8629,8.941195 c -0.126748,-0.0087 -0.225074,0.09873 -0.352837,0.313186 -0.109207,0.183515 -0.243492,0.30109 -0.42825,0.39401 0.581538,0.02349 1.15539,0.0528 1.738521,0.09093 -0.15967,-0.0842 -0.322237,-0.218403 -0.491333,-0.424365 -0.19433,-0.236547 -0.339351,-0.365052 -0.466101,-0.373775 z"
       id="path2518" />
  </g>
</svg>
