/* XPM */
static char * menu_active_xpm[] = {
"24 24 4 1",
" 	c None",
".	c #455a64",
"+	c #FFFFFF",
"@	c #FDFDFD",
"........................",
"........................",
"........................",
"........................",
"........................",
"........................",
"........................",
".....+@@@@@@@@@@@@+.....",
".....+@@@@@@@@@@@@+.....",
"........................",
"........................",
".....+@@@@@@@@@@@@+.....",
".....+@@@@@@@@@@@@+.....",
"........................",
"........................",
".....+@@@@@@@@@@@@+.....",
".....+@@@@@@@@@@@@+.....",
"........................",
"........................",
"........................",
"........................",
"........................",
"........................",
"........................"};
