/* XPM */
static char * top_right_active_xpm[] = {
"2 36 3 1",
" 	c None",
".	c #455a64",
"+	c #455a64",
"..",
"+.",
"+.",
"+.",
"+.",
"+.",
"+.",
"+.",
"+.",
"+.",
"+.",
"+.",
"+.",
"+.",
"+.",
"+.",
"+.",
"+.",
"+.",
"+.",
"+.",
"+.",
"+.",
"+.",
"+.",
"+.",
"+.",
"+.",
"+.",
"+.",
"+.",
"+.",
"+.",
"+.",
"+.",
"+."};
