<?xml version="1.0" encoding="UTF-8" standalone="no"?>
<!-- Created with Inkscape (http://www.inkscape.org/) -->

<svg
   xmlns:dc="http://purl.org/dc/elements/1.1/"
   xmlns:cc="http://creativecommons.org/ns#"
   xmlns:rdf="http://www.w3.org/1999/02/22-rdf-syntax-ns#"
   xmlns:svg="http://www.w3.org/2000/svg"
   xmlns="http://www.w3.org/2000/svg"
   xmlns:xlink="http://www.w3.org/1999/xlink"
   xmlns:sodipodi="http://sodipodi.sourceforge.net/DTD/sodipodi-0.dtd"
   xmlns:inkscape="http://www.inkscape.org/namespaces/inkscape"
   width="32px"
   height="32px"
   id="svg3853"
   version="1.1"
   inkscape:version="0.91 r13725"
   sodipodi:docname="folder-html.svg">
  <defs
     id="defs3855">
    <linearGradient
       inkscape:collect="always"
       id="linearGradient3827">
      <stop
         style="stop-color:#000000;stop-opacity:1;"
         offset="0"
         id="stop3829" />
      <stop
         style="stop-color:#000000;stop-opacity:0;"
         offset="1"
         id="stop3831" />
    </linearGradient>
    <linearGradient
       inkscape:collect="always"
       xlink:href="#linearGradient3827"
       id="linearGradient3833"
       x1="92.5"
       y1="949.90439"
       x2="157.5"
       y2="949.90439"
       gradientUnits="userSpaceOnUse" />
  </defs>
  <sodipodi:namedview
     id="base"
     pagecolor="#ffffff"
     bordercolor="#666666"
     borderopacity="1.0"
     inkscape:pageopacity="0.0"
     inkscape:pageshadow="2"
     inkscape:zoom="16"
     inkscape:cx="11.323573"
     inkscape:cy="15.990285"
     inkscape:current-layer="layer1"
     showgrid="true"
     inkscape:grid-bbox="true"
     inkscape:document-units="px"
     showguides="true"
     inkscape:guide-bbox="true"
     inkscape:window-width="1366"
     inkscape:window-height="701"
     inkscape:window-x="-5"
     inkscape:window-y="-3"
     inkscape:window-maximized="1"
     inkscape:snap-global="false">
    <inkscape:grid
       type="xygrid"
       id="grid3861"
       empspacing="5"
       visible="true"
       enabled="true"
       snapvisiblegridlinesonly="true" />
    <sodipodi:guide
       orientation="0,1"
       position="19,29"
       id="guide3863" />
    <sodipodi:guide
       orientation="0,1"
       position="19,3"
       id="guide3865" />
    <sodipodi:guide
       orientation="1,0"
       position="3,18"
       id="guide3867" />
    <sodipodi:guide
       orientation="1,0"
       position="29,15"
       id="guide3869" />
    <sodipodi:guide
       orientation="1,0"
       position="16,9"
       id="guide4466" />
    <sodipodi:guide
       orientation="1,0"
       position="26.489215,29.322493"
       id="guide3816" />
    <sodipodi:guide
       orientation="0,1"
       position="28.061102,27.653576"
       id="guide3818" />
    <sodipodi:guide
       orientation="1,0"
       position="5.4724971,24.917327"
       id="guide3820" />
    <sodipodi:guide
       orientation="0,1"
       position="16.611552,4.4245721"
       id="guide3822" />
  </sodipodi:namedview>
  <metadata
     id="metadata3858">
    <rdf:RDF>
      <cc:Work
         rdf:about="">
        <dc:format>image/svg+xml</dc:format>
        <dc:type
           rdf:resource="http://purl.org/dc/dcmitype/StillImage" />
        <dc:title />
      </cc:Work>
    </rdf:RDF>
  </metadata>
  <g
     id="layer1"
     inkscape:label="Layer 1"
     inkscape:groupmode="layer">
    <g
       id="g3022"
       style="fill:#f0544c;fill-opacity:1"
       transform="translate(-0.03125,-0.015625)">
      <g
         style="fill:#f0544c;fill-opacity:1;stroke:url(#linearGradient3833)"
         id="g3063"
         transform="matrix(0.90540624,0,0,0.90540624,-84.729541,-822.97067)">
        <path
           sodipodi:nodetypes="sssssscscscscccccccsccscscs"
           inkscape:connector-curvature="0"
           id="path3868"
           d="m 111.02101,916.3335 c -5.46618,0 -9.90425,4.49534 -9.90425,10.00295 0,5.50758 4.43807,9.99199 9.90425,9.99199 5.46617,0 9.90424,-4.48441 9.90424,-9.99199 0,-5.50761 -4.43807,-10.00295 -9.90424,-10.00295 z m 0,1.43683 c 2.56752,0 4.84069,1.16594 6.39442,2.98333 -1.67194,0.67347 -4.01615,1.05294 -6.39442,1.05294 -2.37829,0 -4.72248,-0.37947 -6.39445,-1.05294 1.55375,-1.81739 3.82694,-2.98333 6.39445,-2.98333 z m -7.24994,4.17886 c 1.97492,0.88029 4.59742,1.29425 7.24994,1.29425 2.6525,0 5.27502,-0.41397 7.24995,-1.29425 0.70346,1.18852 1.13587,2.56178 1.19553,4.03628 l -16.89096,0 c 0.0597,-1.4745 0.49206,-2.84776 1.19554,-4.03628 z m -1.11876,5.46213 16.7374,0 c -0.18108,1.44552 -0.69182,2.77859 -1.49168,3.90466 -1.92948,-0.77281 -4.38433,-1.15165 -6.87702,-1.15165 -2.4927,0 -4.94755,0.37884 -6.87703,1.15165 -0.79987,-1.12607 -1.3106,-2.45914 -1.49167,-3.90466 z m 8.3687,4.17888 c 2.15218,0 4.28192,0.32017 5.91183,0.87744 -1.52655,1.50012 -3.61028,2.42395 -5.91183,2.42395 -2.30155,0 -4.38529,-0.92383 -5.91183,-2.42395 1.6299,-0.55727 3.75964,-0.87744 5.91183,-0.87744 z"
           style="color:#000000;font-style:normal;font-variant:normal;font-weight:normal;font-stretch:normal;font-size:medium;line-height:normal;font-family:Sans;-inkscape-font-specification:Sans;text-indent:0;text-align:start;text-decoration:none;text-decoration-line:none;letter-spacing:normal;word-spacing:normal;text-transform:none;direction:ltr;block-progression:tb;writing-mode:lr-tb;baseline-shift:baseline;text-anchor:start;display:inline;overflow:visible;visibility:visible;fill:#f0544c;fill-opacity:1;stroke:none;stroke-width:4.07087088;marker:none;enable-background:accumulate" />
      </g>
      <path
         sodipodi:nodetypes="cccccccccc"
         inkscape:connector-curvature="0"
         id="rect3016"
         d="M 4.0625,3.03125 4.0625,29 28,29 28,3.03125 Z m 1.4126942,1.3168859 21.0149888,-0.00226 -9.68e-4,23.2244331 -21.0126525,0 z"
         style="fill:#f0544c;fill-opacity:1;stroke:none" />
    </g>
  </g>
</svg>
