<?xml version="1.0" encoding="UTF-8" standalone="no"?>
<!-- Created with Inkscape (http://www.inkscape.org/) -->

<svg
   xmlns:dc="http://purl.org/dc/elements/1.1/"
   xmlns:cc="http://creativecommons.org/ns#"
   xmlns:rdf="http://www.w3.org/1999/02/22-rdf-syntax-ns#"
   xmlns:svg="http://www.w3.org/2000/svg"
   xmlns="http://www.w3.org/2000/svg"
   xmlns:sodipodi="http://sodipodi.sourceforge.net/DTD/sodipodi-0.dtd"
   xmlns:inkscape="http://www.inkscape.org/namespaces/inkscape"
   width="32px"
   height="32px"
   id="svg3853"
   version="1.1"
   inkscape:version="0.91 r13725"
   sodipodi:docname="folder-music.svg">
  <defs
     id="defs3855" />
  <sodipodi:namedview
     id="base"
     pagecolor="#ffffff"
     bordercolor="#666666"
     borderopacity="1.0"
     inkscape:pageopacity="0.0"
     inkscape:pageshadow="2"
     inkscape:zoom="12.882602"
     inkscape:cx="9.3793808"
     inkscape:cy="14.391646"
     inkscape:current-layer="layer1"
     showgrid="true"
     inkscape:grid-bbox="true"
     inkscape:document-units="px"
     showguides="true"
     inkscape:guide-bbox="true"
     inkscape:window-width="1366"
     inkscape:window-height="701"
     inkscape:window-x="-5"
     inkscape:window-y="-3"
     inkscape:window-maximized="1"
     inkscape:snap-global="true">
    <inkscape:grid
       type="xygrid"
       id="grid3861"
       empspacing="5"
       visible="true"
       enabled="true"
       snapvisiblegridlinesonly="true" />
    <sodipodi:guide
       orientation="0,1"
       position="19,29"
       id="guide3863" />
    <sodipodi:guide
       orientation="0,1"
       position="16,3"
       id="guide3865" />
    <sodipodi:guide
       orientation="1,0"
       position="3,18"
       id="guide3867" />
    <sodipodi:guide
       orientation="1,0"
       position="29,15"
       id="guide3869" />
    <sodipodi:guide
       orientation="1,0"
       position="16,3"
       id="guide4466" />
  </sodipodi:namedview>
  <metadata
     id="metadata3858">
    <rdf:RDF>
      <cc:Work
         rdf:about="">
        <dc:format>image/svg+xml</dc:format>
        <dc:type
           rdf:resource="http://purl.org/dc/dcmitype/StillImage" />
        <dc:title />
      </cc:Work>
    </rdf:RDF>
  </metadata>
  <g
     id="layer1"
     inkscape:label="Layer 1"
     inkscape:groupmode="layer">
    <path
       style="color:#000000;font-style:normal;font-variant:normal;font-weight:normal;font-stretch:normal;font-size:medium;line-height:normal;font-family:Sans;-inkscape-font-specification:Sans;text-indent:0;text-align:start;text-decoration:none;text-decoration-line:none;letter-spacing:normal;word-spacing:normal;text-transform:none;direction:ltr;block-progression:tb;writing-mode:lr-tb;baseline-shift:baseline;text-anchor:start;display:inline;overflow:visible;visibility:visible;fill:#f0544c;fill-opacity:1;stroke:none;stroke-width:5;marker:none;enable-background:accumulate"
       d="m 11.765159,3.1737249 0,1.0904719 0,13.4350332 c -0.726835,-0.444181 -1.583563,-0.73051 -2.5409049,-0.73051 -1.1071872,0 -2.1223512,0.326604 -2.9008666,0.91049 -0.7785155,0.583887 -1.333975,1.470574 -1.333975,2.477383 0,1.006808 0.5554595,1.882909 1.333975,2.466795 0.7785154,0.583886 1.7936794,0.921077 2.9008666,0.921077 1.1071879,0 2.1223489,-0.337191 2.9008649,-0.921077 0.778516,-0.583886 1.333975,-1.459987 1.333975,-2.466795 l 0,-15.0125125 11.857555,2.9643893 0,14.4725702 c -0.726834,-0.444181 -1.583562,-0.730511 -2.540904,-0.730511 -1.107188,0 -2.122349,0.326605 -2.900867,0.910491 -0.778516,0.583886 -1.333974,1.470574 -1.333974,2.477383 0,1.006807 0.555458,1.882908 1.333974,2.466794 0.778518,0.583887 1.793679,0.921078 2.900867,0.921078 1.107188,0 2.12235,-0.337191 2.900866,-0.921078 0.778517,-0.583886 1.333976,-1.459987 1.333976,-2.466794 l 0,-17.7863336 0,-0.6669875 L 26.364773,6.8262752 12.813283,3.4384024 11.765159,3.1737249 Z M 9.2242541,18.662657 c 0.7638835,0 1.4368519,0.235965 1.8845039,0.571703 0.447652,0.335739 0.6564,0.725736 0.6564,1.122233 0,0.396496 -0.208748,0.775907 -0.6564,1.111646 -0.447653,0.335738 -1.1206204,0.58229 -1.8845039,0.58229 -0.7638854,0 -1.4368519,-0.246552 -1.8845046,-0.58229 -0.4476534,-0.335739 -0.6564002,-0.71515 -0.6564002,-1.111646 0,-0.396497 0.2087468,-0.786494 0.6564002,-1.122233 0.4476527,-0.335738 1.1206192,-0.571703 1.8845046,-0.571703 z m 13.5514909,5.081808 c 0.763884,0 1.436851,0.235966 1.884504,0.571704 0.447654,0.335738 0.656401,0.725736 0.656401,1.122234 0,0.396496 -0.208747,0.775907 -0.656401,1.111645 -0.447652,0.335738 -1.120619,0.582291 -1.884504,0.582291 -0.763883,0 -1.43685,-0.246553 -1.884504,-0.582291 -0.447654,-0.335738 -0.656399,-0.715149 -0.656399,-1.111645 0,-0.396498 0.208745,-0.786496 0.656399,-1.122234 0.447654,-0.335738 1.120621,-0.571704 1.884504,-0.571704 z"
       id="path4772-0"
       inkscape:connector-curvature="0" />
  </g>
</svg>
