<?xml version="1.0" encoding="UTF-8" standalone="no"?>
<!-- Created with Inkscape (http://www.inkscape.org/) -->

<svg
   xmlns:dc="http://purl.org/dc/elements/1.1/"
   xmlns:cc="http://creativecommons.org/ns#"
   xmlns:rdf="http://www.w3.org/1999/02/22-rdf-syntax-ns#"
   xmlns:svg="http://www.w3.org/2000/svg"
   xmlns="http://www.w3.org/2000/svg"
   xmlns:sodipodi="http://sodipodi.sourceforge.net/DTD/sodipodi-0.dtd"
   xmlns:inkscape="http://www.inkscape.org/namespaces/inkscape"
   width="32px"
   height="32px"
   id="svg3853"
   version="1.1"
   inkscape:version="0.91 r13725"
   sodipodi:docname="folder- games.svg">
  <defs
     id="defs3855" />
  <sodipodi:namedview
     id="base"
     pagecolor="#ffffff"
     bordercolor="#666666"
     borderopacity="1.0"
     inkscape:pageopacity="0.0"
     inkscape:pageshadow="2"
     inkscape:zoom="11.313709"
     inkscape:cx="-3.274439"
     inkscape:cy="6.7626196"
     inkscape:current-layer="layer1"
     showgrid="true"
     inkscape:grid-bbox="true"
     inkscape:document-units="px"
     showguides="true"
     inkscape:guide-bbox="true"
     inkscape:window-width="1366"
     inkscape:window-height="701"
     inkscape:window-x="-5"
     inkscape:window-y="-3"
     inkscape:window-maximized="1"
     inkscape:snap-global="true">
    <inkscape:grid
       type="xygrid"
       id="grid3861"
       empspacing="5"
       visible="true"
       enabled="true"
       snapvisiblegridlinesonly="true" />
    <sodipodi:guide
       orientation="0,1"
       position="19,29"
       id="guide3863" />
    <sodipodi:guide
       orientation="0,1"
       position="19,3"
       id="guide3865" />
    <sodipodi:guide
       orientation="1,0"
       position="3,18"
       id="guide3867" />
    <sodipodi:guide
       orientation="1,0"
       position="29,15"
       id="guide3869" />
    <sodipodi:guide
       orientation="1,0"
       position="16,9"
       id="guide4466" />
    <sodipodi:guide
       orientation="1,0"
       position="26.489215,29.322493"
       id="guide3816" />
    <sodipodi:guide
       orientation="0,1"
       position="28.061102,27.653576"
       id="guide3818" />
    <sodipodi:guide
       orientation="1,0"
       position="5.4724971,24.917327"
       id="guide3820" />
    <sodipodi:guide
       orientation="0,1"
       position="16.611552,4.4245721"
       id="guide3822" />
  </sodipodi:namedview>
  <metadata
     id="metadata3858">
    <rdf:RDF>
      <cc:Work
         rdf:about="">
        <dc:format>image/svg+xml</dc:format>
        <dc:type
           rdf:resource="http://purl.org/dc/dcmitype/StillImage" />
        <dc:title />
      </cc:Work>
    </rdf:RDF>
  </metadata>
  <g
     id="layer1"
     inkscape:label="Layer 1"
     inkscape:groupmode="layer">
    <g
       transform="translate(-194.97633,-920.33851)"
       id="g3067"
       style="fill:#f0544c;fill-opacity:1">
      <path
         style="fill:#f0544c;fill-opacity:1"
         d="m 201,924.69946 c -1.02349,0 -1.66272,0.74158 -1.66272,1.66272 l 0,19.95266 c 0,0.92115 0.63923,1.66272 1.66272,1.66272 l 19.95266,0 c 1.0235,0 1.66272,-0.74157 1.66272,-1.66272 l 0,-19.95266 c 0,-0.92114 -0.63922,-1.66272 -1.66272,-1.66272 l -19.95266,0 z m 0,1.66272 19.95266,0 0,19.95266 -19.95266,0 0,-19.95266 z m 4.98817,3.32544 c -0.9183,0 -1.66273,0.74443 -1.66273,1.66273 0,0.9183 0.74443,1.66272 1.66273,1.66272 0.9183,0 1.66272,-0.74442 1.66272,-1.66272 0,-0.9183 -0.74442,-1.66273 -1.66272,-1.66273 z m 4.98816,4.98817 c -0.9183,0 -1.66272,0.74442 -1.66272,1.66272 0,0.9183 0.74442,1.66272 1.66272,1.66272 0.9183,0 1.66272,-0.74442 1.66272,-1.66272 0,-0.9183 -0.74442,-1.66272 -1.66272,-1.66272 z m 4.98816,4.98816 c -0.91829,0 -1.66272,0.74443 -1.66272,1.66272 0,0.9183 0.74443,1.66273 1.66272,1.66273 0.9183,0 1.66273,-0.74443 1.66273,-1.66273 0,-0.91829 -0.74443,-1.66272 -1.66273,-1.66272 z"
         id="rect3833"
         inkscape:connector-curvature="0" />
      <g
         transform="matrix(0,1,-1,0,1072.3622,822.36218)"
         id="g3874"
         style="fill:#f0544c;fill-opacity:1" />
    </g>
  </g>
</svg>
