<?xml version="1.0" encoding="UTF-8" standalone="no"?>
<!-- Created with Inkscape (http://www.inkscape.org/) -->

<svg
   xmlns:dc="http://purl.org/dc/elements/1.1/"
   xmlns:cc="http://creativecommons.org/ns#"
   xmlns:rdf="http://www.w3.org/1999/02/22-rdf-syntax-ns#"
   xmlns:svg="http://www.w3.org/2000/svg"
   xmlns="http://www.w3.org/2000/svg"
   xmlns:sodipodi="http://sodipodi.sourceforge.net/DTD/sodipodi-0.dtd"
   xmlns:inkscape="http://www.inkscape.org/namespaces/inkscape"
   width="32px"
   height="32px"
   id="svg3853"
   version="1.1"
   inkscape:version="0.91 r13725"
   sodipodi:docname="folder-publicshare.svg">
  <defs
     id="defs3855" />
  <sodipodi:namedview
     id="base"
     pagecolor="#ffffff"
     bordercolor="#666666"
     borderopacity="1.0"
     inkscape:pageopacity="0.0"
     inkscape:pageshadow="2"
     inkscape:zoom="11.313709"
     inkscape:cx="9.973965"
     inkscape:cy="16.402532"
     inkscape:current-layer="layer1"
     showgrid="true"
     inkscape:grid-bbox="true"
     inkscape:document-units="px"
     showguides="true"
     inkscape:guide-bbox="true"
     inkscape:window-width="1366"
     inkscape:window-height="701"
     inkscape:window-x="-5"
     inkscape:window-y="-3"
     inkscape:window-maximized="1"
     inkscape:snap-global="true">
    <inkscape:grid
       type="xygrid"
       id="grid3861"
       empspacing="5"
       visible="true"
       enabled="true"
       snapvisiblegridlinesonly="true" />
    <sodipodi:guide
       orientation="0,1"
       position="19,29"
       id="guide3863" />
    <sodipodi:guide
       orientation="0,1"
       position="19,3"
       id="guide3865" />
    <sodipodi:guide
       orientation="1,0"
       position="3,18"
       id="guide3867" />
    <sodipodi:guide
       orientation="1,0"
       position="29,15"
       id="guide3869" />
    <sodipodi:guide
       orientation="1,0"
       position="16,9"
       id="guide4466" />
    <sodipodi:guide
       orientation="1,0"
       position="26.489215,29.322493"
       id="guide3816" />
    <sodipodi:guide
       orientation="0,1"
       position="28.061102,27.653576"
       id="guide3818" />
    <sodipodi:guide
       orientation="1,0"
       position="5.4724971,24.917327"
       id="guide3820" />
    <sodipodi:guide
       orientation="0,1"
       position="16.611552,4.4245721"
       id="guide3822" />
  </sodipodi:namedview>
  <metadata
     id="metadata3858">
    <rdf:RDF>
      <cc:Work
         rdf:about="">
        <dc:format>image/svg+xml</dc:format>
        <dc:type
           rdf:resource="http://purl.org/dc/dcmitype/StillImage" />
        <dc:title />
      </cc:Work>
    </rdf:RDF>
  </metadata>
  <g
     id="layer1"
     inkscape:label="Layer 1"
     inkscape:groupmode="layer">
    <g
       transform="translate(-195,-920.36218)"
       id="g3067"
       style="stroke:none;fill-opacity:1;fill:#b3b3b3">
      <g
         transform="matrix(0,1,-1,0,1072.3622,822.36218)"
         id="g3874"
         style="stroke:none;fill-opacity:1;fill:#b3b3b3" />
    </g>
    <path
       style="fill:#f0544c;fill-opacity:1;stroke:none"
       d="m 16,3.6962457 c -2.549006,0 -4.607509,2.0585021 -4.607509,4.6075086 0,2.5490067 2.058503,4.6075087 4.607509,4.6075087 2.549006,0 4.607508,-2.058502 4.607508,-4.6075087 0,-2.5490065 -2.058502,-4.6075086 -4.607508,-4.6075086 z m 0,1.5358362 c 1.699337,0 3.071672,1.3723337 3.071672,3.0716724 0,1.6993367 -1.372335,3.0716717 -3.071672,3.0716717 -1.699336,0 -3.071672,-1.372335 -3.071672,-3.0716717 0,-1.6993387 1.372336,-3.0716724 3.071672,-3.0716724 z m 0,9.2150161 c -4.673179,0 -7.6791808,0.393294 -7.6791808,4.641639 l 0,9.215017 15.3583618,0 0,-9.215017 c 0,-4.248344 -3.006003,-4.641639 -7.679181,-4.641639 z m 0,1.535836 c 3.398677,0 6.143345,0.555923 6.143345,3.105803 l 0,7.67918 -12.2866889,0 0,-7.67918 c 0,-2.54988 2.7446689,-3.105803 6.1433439,-3.105803 z"
       id="path3097"
       inkscape:connector-curvature="0" />
  </g>
</svg>
