<?xml version="1.0" encoding="UTF-8" standalone="no"?>
<!-- Created with Inkscape (http://www.inkscape.org/) -->

<svg
   xmlns:dc="http://purl.org/dc/elements/1.1/"
   xmlns:cc="http://creativecommons.org/ns#"
   xmlns:rdf="http://www.w3.org/1999/02/22-rdf-syntax-ns#"
   xmlns:svg="http://www.w3.org/2000/svg"
   xmlns="http://www.w3.org/2000/svg"
   xmlns:sodipodi="http://sodipodi.sourceforge.net/DTD/sodipodi-0.dtd"
   xmlns:inkscape="http://www.inkscape.org/namespaces/inkscape"
   width="32px"
   height="32px"
   id="svg3853"
   version="1.1"
   inkscape:version="0.91 r13725"
   sodipodi:docname="folder-dropbox.svg">
  <defs
     id="defs3855" />
  <sodipodi:namedview
     id="base"
     pagecolor="#ffffff"
     bordercolor="#666666"
     borderopacity="1.0"
     inkscape:pageopacity="0.0"
     inkscape:pageshadow="2"
     inkscape:zoom="11.313709"
     inkscape:cx="6.8655254"
     inkscape:cy="13.733578"
     inkscape:current-layer="layer1"
     showgrid="true"
     inkscape:grid-bbox="true"
     inkscape:document-units="px"
     showguides="true"
     inkscape:guide-bbox="true"
     inkscape:window-width="1366"
     inkscape:window-height="701"
     inkscape:window-x="-5"
     inkscape:window-y="-3"
     inkscape:window-maximized="1"
     inkscape:snap-global="true">
    <inkscape:grid
       type="xygrid"
       id="grid3861"
       empspacing="5"
       visible="true"
       enabled="true"
       snapvisiblegridlinesonly="true" />
    <sodipodi:guide
       orientation="0,1"
       position="19,29"
       id="guide3863" />
    <sodipodi:guide
       orientation="0,1"
       position="19,3"
       id="guide3865" />
    <sodipodi:guide
       orientation="1,0"
       position="3,18"
       id="guide3867" />
    <sodipodi:guide
       orientation="1,0"
       position="29,15"
       id="guide3869" />
    <sodipodi:guide
       orientation="1,0"
       position="16,9"
       id="guide4466" />
    <sodipodi:guide
       orientation="1,0"
       position="26.489215,29.322493"
       id="guide3816" />
    <sodipodi:guide
       orientation="0,1"
       position="28.061102,27.653576"
       id="guide3818" />
    <sodipodi:guide
       orientation="1,0"
       position="5.4724971,24.917327"
       id="guide3820" />
    <sodipodi:guide
       orientation="0,1"
       position="16.611552,4.4245721"
       id="guide3822" />
  </sodipodi:namedview>
  <metadata
     id="metadata3858">
    <rdf:RDF>
      <cc:Work
         rdf:about="">
        <dc:format>image/svg+xml</dc:format>
        <dc:type
           rdf:resource="http://purl.org/dc/dcmitype/StillImage" />
        <dc:title />
      </cc:Work>
    </rdf:RDF>
  </metadata>
  <g
     id="layer1"
     inkscape:label="Layer 1"
     inkscape:groupmode="layer">
    <g
       transform="matrix(0.29336967,0,0,0.29336967,-20.700619,-262.44446)"
       id="g3063"
       style="fill:#f0544c;fill-opacity:1;stroke:#000000;stroke-opacity:1">
      <path
         style="color:#000000;font-style:normal;font-variant:normal;font-weight:normal;font-stretch:normal;font-size:medium;line-height:normal;font-family:Sans;-inkscape-font-specification:Sans;text-indent:0;text-align:start;text-decoration:none;text-decoration-line:none;letter-spacing:normal;word-spacing:normal;text-transform:none;direction:ltr;block-progression:tb;writing-mode:lr-tb;baseline-shift:baseline;text-anchor:start;display:inline;overflow:visible;visibility:visible;fill:#f0544c;fill-opacity:1;stroke:none;stroke-width:4.99999952;marker:none;enable-background:accumulate"
         d="m 28.28125,-16.96875 c -8.37688,0.17725 -16.39131,4.41398 -19.75,11.1875 -7.42599,-1.60835 -14.002923,0.94091 -17.9375,5.53125 -3.672416,4.28448 -5.132555,10.10209 -3.71875,15.46875 -4.281325,1.29052 -7.682692,3.84134 -9.90625,7.09375 -2.689655,3.93417 -3.83046,8.71508 -3.6875,13.375 0.14296,4.65992 1.571379,9.25862 4.375,12.8125 2.803621,3.55388 7.114587,6 12.34375,6 l 55,0 c 6.83333,0 12.26781,-2.49505 15.9375,-6.34375 3.66969,-3.8487 5.59164,-8.93714 5.9375,-14.125 0.6531,-9.79651 -4.40454,-20.27699 -14.5,-23.8125 -0.29277,-8.24071 -2.4496,-14.5806 -5.96875,-19 -3.77945,-4.74629 -8.95172,-7.27065 -14.1875,-7.96875 -1.30894,-0.17453 -2.6265,-0.24649 -3.9375,-0.21875 z m 0.15625,5.03125 c 1.04007,-0.0357 2.05894,0.0183 3.09375,0.15625 4.13922,0.5519 8.02945,2.40254 10.96875,6.09375 2.9393,3.69121 5,9.35417 5,17.6875 l 0,1.9375 1.90625,0.46875 C 58.07468,16.57336 62.43328,25.31323 61.875,33.6875 61.59586,37.87464 60.08031,41.8487 57.34375,44.71875 54.60719,47.5888 50.66667,49.5 45,49.5 l -55,0 c -3.743102,0 -6.402571,-1.55388 -8.40625,-4.09375 -2.003679,-2.53987 -3.198526,-6.15992 -3.3125,-9.875 -0.113974,-3.71508 0.823323,-7.49667 2.8125,-10.40625 1.989177,-2.90958 4.932246,-5.0039 9.28125,-5.65625 L -6.21875,18.9375 -7.75,15.875 C -9.728251,11.9185 -8.756762,6.69018 -5.59375,3 -2.43074,-0.69018 2.58838,-2.86637 9.21875,-0.65625 l 2.375,0.8125 0.78125,-2.375 c 1.72633,-5.179 8.78199,-9.46859 16.0625,-9.71875 z M 20,3.96875 l -1.375,0.9375 -15,10 2.75,4.15625 L 20,9.96875 l 13.625,9.09375 2.75,-4.15625 -15,-10 L 20,3.96875 Z m -13.625,20.9375 -2.75,4.15625 15,10 L 20,40 l 1.375,-0.9375 15,-10 -2.75,-4.15625 L 20,34 6.375,24.90625 Z"
         transform="translate(105,930.36218)"
         id="path3920"
         inkscape:connector-curvature="0" />
    </g>
  </g>
</svg>
