<?xml version="1.0" encoding="UTF-8" standalone="no"?>
<!-- Created with Inkscape (http://www.inkscape.org/) -->

<svg
   xmlns:dc="http://purl.org/dc/elements/1.1/"
   xmlns:cc="http://creativecommons.org/ns#"
   xmlns:rdf="http://www.w3.org/1999/02/22-rdf-syntax-ns#"
   xmlns:svg="http://www.w3.org/2000/svg"
   xmlns="http://www.w3.org/2000/svg"
   xmlns:sodipodi="http://sodipodi.sourceforge.net/DTD/sodipodi-0.dtd"
   xmlns:inkscape="http://www.inkscape.org/namespaces/inkscape"
   width="32px"
   height="32px"
   id="svg3853"
   version="1.1"
   inkscape:version="0.91 r13725"
   sodipodi:docname="user-trash.svg">
  <defs
     id="defs3855" />
  <sodipodi:namedview
     id="base"
     pagecolor="#ffffff"
     bordercolor="#666666"
     borderopacity="1.0"
     inkscape:pageopacity="0.0"
     inkscape:pageshadow="2"
     inkscape:zoom="6.4413008"
     inkscape:cx="9.2885877"
     inkscape:cy="17.622801"
     inkscape:current-layer="layer1"
     showgrid="true"
     inkscape:grid-bbox="true"
     inkscape:document-units="px"
     showguides="true"
     inkscape:guide-bbox="true"
     inkscape:window-width="1366"
     inkscape:window-height="701"
     inkscape:window-x="-5"
     inkscape:window-y="-3"
     inkscape:window-maximized="1"
     inkscape:snap-global="true">
    <inkscape:grid
       type="xygrid"
       id="grid3861"
       empspacing="5"
       visible="true"
       enabled="true"
       snapvisiblegridlinesonly="true" />
    <sodipodi:guide
       orientation="0,1"
       position="19,29"
       id="guide3863" />
    <sodipodi:guide
       orientation="0,1"
       position="16,3"
       id="guide3865" />
    <sodipodi:guide
       orientation="1,0"
       position="3,18"
       id="guide3867" />
    <sodipodi:guide
       orientation="1,0"
       position="29,15"
       id="guide3869" />
    <sodipodi:guide
       orientation="1,0"
       position="16,3"
       id="guide4466" />
  </sodipodi:namedview>
  <metadata
     id="metadata3858">
    <rdf:RDF>
      <cc:Work
         rdf:about="">
        <dc:format>image/svg+xml</dc:format>
        <dc:type
           rdf:resource="http://purl.org/dc/dcmitype/StillImage" />
        <dc:title />
      </cc:Work>
    </rdf:RDF>
  </metadata>
  <g
     id="layer1"
     inkscape:label="Layer 1"
     inkscape:groupmode="layer">
    <g
       transform="matrix(0.30092593,0,0,0.30092593,22.981481,-266.98222)"
       id="g3065"
       style="fill:#f0544c;fill-opacity:1">
      <path
         style="fill:#f0544c;fill-opacity:1;stroke:none"
         d="M 3,3.0625 6,29 l 20,0 3,-25.9375 -26,0 z M 5,5 27,5 24,27 8,27 5,5 Z"
         transform="matrix(3.3230769,0,0,3.3230769,-76.369228,887.0986)"
         id="rect3853"
         inkscape:connector-curvature="0" />
    </g>
    <g
       id="g3"
       transform="matrix(0.0213325,0,0,0.0213325,9.2988858,9.4561063)"
       style="fill:#f0544c;fill-opacity:1">
      <g
         id="g5"
         style="fill:#f0544c;fill-opacity:1">
        <g
           id="g7"
           style="fill:#f0544c;fill-opacity:1">
          <g
             id="g9"
             style="fill:#f0544c;fill-opacity:1">
            <path
               inkscape:connector-curvature="0"
               d="m 99.777,446.086 c -6.699,12.031 -12.031,30.133 -12.031,41.539 0,2.648 0,6.016 0.656,10.688 L 4.676,354.32 C 1.996,349.648 0,342.945 0,336.906 0,330.859 1.996,323.508 4.676,318.828 L 44.871,248.5 0,223.07 146.016,220.367 217,348.281 171.473,322.164 99.777,446.086 Z M 164.09,40.227 c 12.715,-22.125 33.496,-34.18 58.926,-34.18 27.48,0 48.918,12.742 64.312,38.828 L 310.105,83.047 231.054,219.711 103.14,145.359 164.09,40.227 Z m 9.351,521.718 c -38.172,0 -69.645,-31.477 -69.645,-69.648 0,-10.719 4.703,-28.82 11.402,-40.195 l 21.41,-38.172 158.758,0 0,148.016 -121.925,0 z M 300.727,36.18 C 290.691,18.789 277.293,6.703 261.215,0 l 164.746,0 c 14.738,0 26.113,6.047 32.84,17.445 l 40.852,69.648 44.191,-26.141 -71.016,127.281 -145.305,-2.047 44.871,-25.43 L 300.727,36.18 Z M 554.59,415.273 c 20.07,0 36.832,-5.359 50.887,-16.055 l -83.07,144.648 c -6.699,11.375 -18.73,18.078 -32.789,18.078 l -78.395,0 0,51.57 -75.004,-125.234 75.004,-125.266 0,52.258 143.367,0 z m 64.258,-120.562 c 6.043,10.719 9.406,22.094 9.406,34.156 0,24.117 -15.422,49.57 -36.832,61.602 -10.062,5.391 -24.145,8.75 -38.172,8.75 l -44.242,0 -79,-136.664 127.918,-73.008 60.922,105.164 z"
               id="path11"
               style="fill:#f0544c;fill-opacity:1" />
          </g>
        </g>
      </g>
    </g>
    <g
       style="fill:#b3b3b3;fill-opacity:1"
       id="g3914"
       transform="matrix(0.30092593,0,0,0.30092593,22.981481,-266.95097)" />
  </g>
</svg>
