/* XPM */
static char * maximize_pressed_xpm[] = {
"24 24 3 1",
" 	c None",
".	c #878787",
"+	c #404040",
"........................",
"........................",
"........................",
"........................",
"........................",
"........................",
"........................",
"...........++++++.......",
"............+++++.......",
".............++++.......",
"............+++++.......",
"...........+++.++.......",
"..........+++...+.......",
".........+++............",
"........+++.............",
".......+++..............",
".......++...............",
"........................",
"........................",
"........................",
"........................",
"........................",
"........................",
"........................"};
