/* XPM */
static char * stick_toggled_active_xpm[] = {
"24 24 4 1",
" 	c None",
".	c #404040",
"+	c #FDFDFD",
"@	c #FFFFFF",
"........................",
"........................",
"........................",
"........................",
"........................",
"........................",
".........++++++.........",
"........++++++++........",
".......+@......@+.......",
"......++.@@@@@@.++......",
"......++.@++++@.++......",
"......++.@++++@.++......",
"......++.@++++@.++......",
"......++.@++++@.++......",
"......++.@@@@@@.++......",
".......+@......@+.......",
"........++++++++........",
".........++++++.........",
"........................",
"........................",
"........................",
"........................",
"........................",
"........................"};
