<?xml version="1.0" encoding="UTF-8" standalone="no"?>
<!-- Created with Inkscape (http://www.inkscape.org/) -->

<svg
   xmlns:dc="http://purl.org/dc/elements/1.1/"
   xmlns:cc="http://creativecommons.org/ns#"
   xmlns:rdf="http://www.w3.org/1999/02/22-rdf-syntax-ns#"
   xmlns:svg="http://www.w3.org/2000/svg"
   xmlns="http://www.w3.org/2000/svg"
   xmlns:xlink="http://www.w3.org/1999/xlink"
   xmlns:sodipodi="http://sodipodi.sourceforge.net/DTD/sodipodi-0.dtd"
   xmlns:inkscape="http://www.inkscape.org/namespaces/inkscape"
   width="48px"
   height="48px"
   id="svg3039"
   version="1.1"
   inkscape:version="0.48.5 r10040"
   sodipodi:docname="kubuntu.svg">
  <defs
     id="defs3041">
    <linearGradient
       id="linearGradient3824">
      <stop
         style="stop-color:#ebebeb;stop-opacity:1;"
         offset="0"
         id="stop3826" />
      <stop
         style="stop-color:#bebebe;stop-opacity:1;"
         offset="1"
         id="stop3830" />
    </linearGradient>
    <linearGradient
       id="linearGradient4279">
      <stop
         style="stop-color:#f9f9f9;stop-opacity:1;"
         offset="0"
         id="stop4281" />
      <stop
         id="stop4283"
         offset="0.81130701"
         style="stop-color:#c4c4c4;stop-opacity:1;" />
      <stop
         style="stop-color:#565656;stop-opacity:1;"
         offset="1"
         id="stop4285" />
    </linearGradient>
    <linearGradient
       id="linearGradient4239">
      <stop
         style="stop-color:#505050;stop-opacity:1;"
         offset="0"
         id="stop4241" />
      <stop
         style="stop-color:#ffffff;stop-opacity:0.15422885;"
         offset="1"
         id="stop4243" />
    </linearGradient>
    <linearGradient
       id="linearGradient4223">
      <stop
         id="stop4227"
         offset="0"
         style="stop-color:#e9e9e9;stop-opacity:0;" />
      <stop
         style="stop-color:#929292;stop-opacity:1"
         offset="1"
         id="stop4229" />
    </linearGradient>
    <linearGradient
       id="linearGradient4169">
      <stop
         id="stop4171"
         offset="0"
         style="stop-color:#f9f9f9;stop-opacity:1;" />
      <stop
         style="stop-color:#c4c4c4;stop-opacity:1;"
         offset="0.71567649"
         id="stop4175" />
      <stop
         id="stop4173"
         offset="1"
         style="stop-color:#565656;stop-opacity:1;" />
    </linearGradient>
    <linearGradient
       id="linearGradient4153">
      <stop
         style="stop-color:#ffffff;stop-opacity:1;"
         offset="0"
         id="stop4155" />
      <stop
         style="stop-color:#000000;stop-opacity:1;"
         offset="1"
         id="stop4157" />
    </linearGradient>
    <linearGradient
       id="linearGradient4145">
      <stop
         id="stop4147"
         offset="0"
         style="stop-color:#a0a0a0;stop-opacity:1;" />
      <stop
         id="stop4149"
         offset="1"
         style="stop-color:#202020;stop-opacity:1;" />
    </linearGradient>
    <linearGradient
       id="linearGradient4048">
      <stop
         id="stop4309"
         offset="0"
         style="stop-color:#131313;stop-opacity:1;" />
      <stop
         id="stop4054"
         offset="1"
         style="stop-color:#686868;stop-opacity:1;" />
    </linearGradient>
    <linearGradient
       id="linearGradient3886">
      <stop
         style="stop-color:#f9f9f9;stop-opacity:1;"
         offset="0"
         id="stop3888" />
      <stop
         style="stop-color:#afafaf;stop-opacity:1;"
         offset="1"
         id="stop3890" />
    </linearGradient>
    <linearGradient
       id="linearGradient3839">
      <stop
         style="stop-color:#85bcc3;stop-opacity:1;"
         offset="0"
         id="stop3841" />
      <stop
         style="stop-color:#3b67c0;stop-opacity:1;"
         offset="1"
         id="stop3843" />
    </linearGradient>
    <linearGradient
       y2="17"
       x2="40"
       y1="31"
       x1="54"
       gradientTransform="matrix(0,-1,-1,0,71,73)"
       gradientUnits="userSpaceOnUse"
       id="linearGradient3029"
       xlink:href="#linearGradient4410"
       inkscape:collect="always" />
    <linearGradient
       inkscape:collect="always"
       id="linearGradient4410">
      <stop
         style="stop-color:#383e51;stop-opacity:1"
         offset="0"
         id="stop4412" />
      <stop
         style="stop-color:#655c6f;stop-opacity:0"
         offset="1"
         id="stop4414" />
    </linearGradient>
    <linearGradient
       y2="12.770295"
       x2="40.426834"
       y1="22.719494"
       x1="59.420761"
       gradientTransform="matrix(0,-1.1056167,1.1056167,0,1.8809486,83.696584)"
       gradientUnits="userSpaceOnUse"
       id="linearGradient3028"
       xlink:href="#linearGradient4410"
       inkscape:collect="always" />
    <linearGradient
       y2="17"
       x2="40"
       y1="31"
       x1="54"
       gradientTransform="matrix(0,-1,1,0,4,78)"
       gradientUnits="userSpaceOnUse"
       id="linearGradient3028-7"
       xlink:href="#linearGradient4410-0"
       inkscape:collect="always" />
    <linearGradient
       inkscape:collect="always"
       id="linearGradient4410-0">
      <stop
         style="stop-color:#383e51;stop-opacity:1"
         offset="0"
         id="stop4412-9" />
      <stop
         style="stop-color:#655c6f;stop-opacity:0"
         offset="1"
         id="stop4414-1" />
    </linearGradient>
    <linearGradient
       y2="17"
       x2="40"
       y1="31"
       x1="54"
       gradientTransform="matrix(0.92361896,-0.60771399,-0.60771399,-0.92361896,-13.529375,73.514474)"
       gradientUnits="userSpaceOnUse"
       id="linearGradient3943"
       xlink:href="#linearGradient4410-0"
       inkscape:collect="always" />
    <radialGradient
       inkscape:collect="always"
       xlink:href="#linearGradient3886-5"
       id="radialGradient3892-5"
       cx="24.061937"
       cy="23.872463"
       fx="24.061937"
       fy="23.872463"
       r="17.025761"
       gradientTransform="matrix(1,0,0,0.99900396,0,0.02377793)"
       gradientUnits="userSpaceOnUse" />
    <linearGradient
       id="linearGradient3886-5">
      <stop
         style="stop-color:#f9f9f9;stop-opacity:1;"
         offset="0"
         id="stop3888-9" />
      <stop
         style="stop-color:#afafaf;stop-opacity:1;"
         offset="1"
         id="stop3890-3" />
    </linearGradient>
    <radialGradient
       inkscape:collect="always"
       xlink:href="#linearGradient4169-1"
       id="radialGradient4099-4"
       cx="26.5"
       cy="23.5"
       fx="26.5"
       fy="23.5"
       r="19.5"
       gradientTransform="matrix(0.9473684,0,0,0.79892039,1.3947374,4.725371)"
       gradientUnits="userSpaceOnUse" />
    <linearGradient
       id="linearGradient4169-1">
      <stop
         id="stop4171-2"
         offset="0"
         style="stop-color:#f9f9f9;stop-opacity:1;" />
      <stop
         style="stop-color:#c4c4c4;stop-opacity:1;"
         offset="0.76923078"
         id="stop4175-4" />
      <stop
         id="stop4173-4"
         offset="1"
         style="stop-color:#565656;stop-opacity:1;" />
    </linearGradient>
    <linearGradient
       inkscape:collect="always"
       xlink:href="#linearGradient4239"
       id="linearGradient4245"
       x1="44"
       y1="28.00672"
       x2="57.993282"
       y2="13"
       gradientUnits="userSpaceOnUse" />
    <linearGradient
       inkscape:collect="always"
       xlink:href="#linearGradient4223"
       id="linearGradient4249"
       x1="24.643452"
       y1="23.494081"
       x2="39.495842"
       y2="9.4033527"
       gradientUnits="userSpaceOnUse" />
  </defs>
  <sodipodi:namedview
     id="base"
     pagecolor="#ffffff"
     bordercolor="#666666"
     borderopacity="1.0"
     inkscape:pageopacity="0.0"
     inkscape:pageshadow="2"
     inkscape:zoom="8.0000004"
     inkscape:cx="39.193096"
     inkscape:cy="19.951465"
     inkscape:current-layer="layer1"
     showgrid="true"
     inkscape:grid-bbox="true"
     inkscape:document-units="px"
     showguides="true"
     inkscape:guide-bbox="true"
     inkscape:window-width="1366"
     inkscape:window-height="698"
     inkscape:window-x="-4"
     inkscape:window-y="-5"
     inkscape:window-maximized="1"
     inkscape:snap-global="true">
    <inkscape:grid
       type="xygrid"
       id="grid3047" />
    <sodipodi:guide
       orientation="1,0"
       position="3,4"
       id="guide3051" />
    <sodipodi:guide
       orientation="1,0"
       position="45,4"
       id="guide3053" />
    <sodipodi:guide
       orientation="0,1"
       position="-2,45"
       id="guide3055" />
    <sodipodi:guide
       orientation="0,1"
       position="2,3"
       id="guide3057" />
    <sodipodi:guide
       orientation="1,0"
       position="24,31"
       id="guide3059" />
    <sodipodi:guide
       orientation="0,1"
       position="14,24"
       id="guide3061" />
    <sodipodi:guide
       orientation="0,1"
       position="29,38"
       id="guide3108" />
    <sodipodi:guide
       orientation="0,1"
       position="30,10"
       id="guide3110" />
  </sodipodi:namedview>
  <metadata
     id="metadata3044">
    <rdf:RDF>
      <cc:Work
         rdf:about="">
        <dc:format>image/svg+xml</dc:format>
        <dc:type
           rdf:resource="http://purl.org/dc/dcmitype/StillImage" />
        <dc:title></dc:title>
      </cc:Work>
    </rdf:RDF>
  </metadata>
  <g
     id="layer1"
     inkscape:label="Layer 1"
     inkscape:groupmode="layer">
    <g
       id="g4214"
       transform="translate(-92.993284,0)"
       style="fill:url(#linearGradient4245);fill-opacity:1" />
    <g
       transform="matrix(0.99968028,0,0,0.99968008,-19.471771,0.20183635)"
       id="g4231"
       style="fill:#3771c8;fill-opacity:1">
      <path
         sodipodi:type="arc"
         style="fill:#3771c8;fill-opacity:1;stroke:none"
         id="path4233"
         sodipodi:cx="26.5"
         sodipodi:cy="23.5"
         sodipodi:rx="19.5"
         sodipodi:ry="18.5"
         d="M 46,23.5 C 46,33.717268 37.269553,42 26.5,42 15.730447,42 7,33.717268 7,23.5 7,13.282732 15.730447,5 26.5,5 37.269553,5 46,13.282732 46,23.5 z"
         transform="matrix(1.0772675,0,0,1.1354984,14.938086,-2.8784328)" />
    </g>
    <g
       style="fill:#e6e6e6;fill-opacity:1"
       id="g3068"
       transform="matrix(0.90447263,0,0,0.90447245,-15.331603,2.4683281)">
      <path
         style="fill:#e6e6e6;fill-opacity:1;stroke:none"
         d="M 24 5 C 13.50659 5 5 13.50659 5 24 C 5 34.49341 13.50659 43 24 43 C 34.49341 43 43 34.49341 43 24 C 43 13.50659 34.49341 5 24 5 z M 24 6 C 33.941125 6 42 14.058875 42 24 C 42 33.941125 33.941125 42 24 42 C 14.058875 42 6 33.941125 6 24 C 6 14.058875 14.058875 6 24 6 z "
         transform="matrix(1.1056167,0,0,1.1056169,16.950876,-2.7290252)"
         id="path3070" />
    </g>
    <g
       transform="matrix(0.84972825,0,0,0.84972807,-12.951007,3.7715608)"
       id="g3056"
       style="fill:#c837ab;fill-opacity:1" />
    <g
       style="fill:#ececec;fill-opacity:1"
       id="g3047"
       transform="matrix(0.66645353,0,0,0.66645337,-4.9811812,8.1345576)" />
    <g
       transform="matrix(0.85686881,0,0,0.85686864,-13.261519,3.6015739)"
       id="g3081"
       style="fill:#e6e6e6;fill-opacity:1" />
    <g
       id="g3123"
       transform="matrix(0.38276091,0,0,0.38858211,11.39087,12.692869)">
      <path
         style="fill:#ffffff;fill-opacity:1"
         d="M 22.75 10.15625 L 20.3125 10.75 C 20.209614 10.775564 20.125558 10.860457 20.125 10.96875 L 21.21875 16.03125 L 21.6875 16.3125 C 22.420533 16.092463 23.193441 16 24 16 C 27.985277 16 31.28418 18.883543 31.90625 22.6875 L 32 22.75 L 37.0625 21.625 C 37.161365 21.577033 37.213766 21.451546 37.1875 21.34375 L 36.59375 18.875 C 36.56845 18.770292 36.481502 18.687592 36.375 18.6875 L 32.34375 18.6875 C 32.004259 18.037883 31.588512 17.432523 31.09375 16.875 L 32.40625 13.125 C 32.442765 13.020829 32.406003 12.901481 32.3125 12.84375 L 30.15625 11.53125 C 30.065134 11.474993 29.949617 11.486467 29.875 11.5625 L 27.15625 14.3125 C 26.352488 14.051967 25.540369 13.899492 24.71875 13.875 L 23.03125 10.28125 C 22.984082 10.180747 22.85638 10.129707 22.75 10.15625 z M 14.84375 13.8125 C 14.792456 13.817897 14.757287 13.835602 14.71875 13.875 L 12.9375 15.6875 C 12.862524 15.763852 12.850987 15.876323 12.90625 15.96875 L 14.96875 19.46875 C 14.598448 20.100769 14.305874 20.781148 14.09375 21.5 L 10.28125 22.3125 C 10.174606 22.334957 10.09375 22.420147 10.09375 22.53125 L 10.09375 25.09375 C 10.09375 25.202016 10.147238 25.287286 10.25 25.3125 L 13.96875 26.25 C 14.167135 27.082555 14.499935 27.868357 14.90625 28.59375 L 12.75 31.90625 C 12.689926 31.999387 12.703635 32.140269 12.78125 32.21875 L 14.5625 34.03125 C 14.637477 34.107208 14.75232 34.118286 14.84375 34.0625 L 18.28125 30.1875 L 18.3125 29.625 C 16.884689 28.181486 16 26.200184 16 24 C 16 21.538631 17.105974 19.340238 18.84375 17.875 L 18.875 17.40625 L 15 13.84375 C 14.954129 13.813335 14.895044 13.807103 14.84375 13.8125 z M 31.8125 25.78125 C 31.008624 29.35252 27.820971 32 24 32 C 23.086785 32 22.222444 31.841816 21.40625 31.5625 L 20.90625 31.84375 L 19.59375 36.875 C 19.58763 36.986068 19.644272 37.096539 19.75 37.125 L 22.1875 37.78125 C 22.290096 37.809088 22.417452 37.782252 22.46875 37.6875 L 24.40625 34.09375 C 25.130538 34.103974 25.843066 34.047269 26.5625 33.875 L 29.15625 36.84375 C 29.228655 36.926349 29.373924 36.930464 29.46875 36.875 L 31.65625 35.59375 C 31.748654 35.539702 31.77978 35.446733 31.75 35.34375 L 30.6875 31.59375 C 31.299044 31.003613 31.80247 30.344547 32.21875 29.625 L 36.15625 29.84375 C 36.265732 29.850099 36.346764 29.794953 36.375 29.6875 L 37.03125 27.21875 C 37.058652 27.114877 37.030757 26.990077 36.9375 26.9375 L 31.8125 25.78125 z "
         transform="matrix(2.612597,0,0,2.5734587,-29.759753,-32.664574)"
         id="path79-9-8-1" />
    </g>
  </g>
</svg>
