<?xml version="1.0" encoding="UTF-8" standalone="no"?>
<!-- Created with Inkscape (http://www.inkscape.org/) -->

<svg
   xmlns:dc="http://purl.org/dc/elements/1.1/"
   xmlns:cc="http://creativecommons.org/ns#"
   xmlns:rdf="http://www.w3.org/1999/02/22-rdf-syntax-ns#"
   xmlns:svg="http://www.w3.org/2000/svg"
   xmlns="http://www.w3.org/2000/svg"
   xmlns:xlink="http://www.w3.org/1999/xlink"
   xmlns:sodipodi="http://sodipodi.sourceforge.net/DTD/sodipodi-0.dtd"
   xmlns:inkscape="http://www.inkscape.org/namespaces/inkscape"
   width="48px"
   height="48px"
   id="svg3039"
   version="1.1"
   inkscape:version="0.48.5 r10040"
   sodipodi:docname="distributor-logo-mint.svg">
  <defs
     id="defs3041">
    <linearGradient
       id="linearGradient3838">
      <stop
         style="stop-color:#892ca0;stop-opacity:1;"
         offset="0"
         id="stop3840" />
      <stop
         style="stop-color:#c370d8;stop-opacity:1;"
         offset="1"
         id="stop3842" />
    </linearGradient>
    <linearGradient
       id="linearGradient3824">
      <stop
         style="stop-color:#ebebeb;stop-opacity:1;"
         offset="0"
         id="stop3826" />
      <stop
         style="stop-color:#dbdbdb;stop-opacity:1"
         offset="1"
         id="stop3830" />
    </linearGradient>
    <linearGradient
       id="linearGradient4279">
      <stop
         style="stop-color:#f9f9f9;stop-opacity:1;"
         offset="0"
         id="stop4281" />
      <stop
         id="stop4283"
         offset="0.81130701"
         style="stop-color:#c4c4c4;stop-opacity:1;" />
      <stop
         style="stop-color:#565656;stop-opacity:1;"
         offset="1"
         id="stop4285" />
    </linearGradient>
    <linearGradient
       id="linearGradient4239">
      <stop
         style="stop-color:#505050;stop-opacity:1;"
         offset="0"
         id="stop4241" />
      <stop
         style="stop-color:#ffffff;stop-opacity:0.15422885;"
         offset="1"
         id="stop4243" />
    </linearGradient>
    <linearGradient
       id="linearGradient4223">
      <stop
         id="stop4227"
         offset="0"
         style="stop-color:#e9e9e9;stop-opacity:0;" />
      <stop
         style="stop-color:#929292;stop-opacity:1"
         offset="1"
         id="stop4229" />
    </linearGradient>
    <linearGradient
       id="linearGradient4169">
      <stop
         id="stop4171"
         offset="0"
         style="stop-color:#f9f9f9;stop-opacity:1;" />
      <stop
         style="stop-color:#c4c4c4;stop-opacity:1;"
         offset="0.71567649"
         id="stop4175" />
      <stop
         id="stop4173"
         offset="1"
         style="stop-color:#565656;stop-opacity:1;" />
    </linearGradient>
    <linearGradient
       id="linearGradient4153">
      <stop
         style="stop-color:#ffffff;stop-opacity:1;"
         offset="0"
         id="stop4155" />
      <stop
         style="stop-color:#000000;stop-opacity:1;"
         offset="1"
         id="stop4157" />
    </linearGradient>
    <linearGradient
       id="linearGradient4145">
      <stop
         id="stop4147"
         offset="0"
         style="stop-color:#a0a0a0;stop-opacity:1;" />
      <stop
         id="stop4149"
         offset="1"
         style="stop-color:#202020;stop-opacity:1;" />
    </linearGradient>
    <linearGradient
       id="linearGradient4048">
      <stop
         id="stop4309"
         offset="0"
         style="stop-color:#131313;stop-opacity:1;" />
      <stop
         id="stop4054"
         offset="1"
         style="stop-color:#686868;stop-opacity:1;" />
    </linearGradient>
    <linearGradient
       id="linearGradient3886">
      <stop
         style="stop-color:#f9f9f9;stop-opacity:1;"
         offset="0"
         id="stop3888" />
      <stop
         style="stop-color:#afafaf;stop-opacity:1;"
         offset="1"
         id="stop3890" />
    </linearGradient>
    <linearGradient
       id="linearGradient3839">
      <stop
         style="stop-color:#85bcc3;stop-opacity:1;"
         offset="0"
         id="stop3841" />
      <stop
         style="stop-color:#3b67c0;stop-opacity:1;"
         offset="1"
         id="stop3843" />
    </linearGradient>
    <linearGradient
       y2="17"
       x2="40"
       y1="31"
       x1="54"
       gradientTransform="matrix(0,-1,-1,0,71,73)"
       gradientUnits="userSpaceOnUse"
       id="linearGradient3029"
       xlink:href="#linearGradient4410"
       inkscape:collect="always" />
    <linearGradient
       inkscape:collect="always"
       id="linearGradient4410">
      <stop
         style="stop-color:#383e51;stop-opacity:1"
         offset="0"
         id="stop4412" />
      <stop
         style="stop-color:#655c6f;stop-opacity:0"
         offset="1"
         id="stop4414" />
    </linearGradient>
    <linearGradient
       y2="12.770295"
       x2="40.426834"
       y1="22.719494"
       x1="59.420761"
       gradientTransform="matrix(0,-1.1056167,1.1056167,0,1.8809486,83.696584)"
       gradientUnits="userSpaceOnUse"
       id="linearGradient3028"
       xlink:href="#linearGradient4410"
       inkscape:collect="always" />
    <linearGradient
       y2="17"
       x2="40"
       y1="31"
       x1="54"
       gradientTransform="matrix(0,-1,1,0,4,78)"
       gradientUnits="userSpaceOnUse"
       id="linearGradient3028-7"
       xlink:href="#linearGradient4410-0"
       inkscape:collect="always" />
    <linearGradient
       inkscape:collect="always"
       id="linearGradient4410-0">
      <stop
         style="stop-color:#383e51;stop-opacity:1"
         offset="0"
         id="stop4412-9" />
      <stop
         style="stop-color:#655c6f;stop-opacity:0"
         offset="1"
         id="stop4414-1" />
    </linearGradient>
    <linearGradient
       y2="17"
       x2="40"
       y1="31"
       x1="54"
       gradientTransform="matrix(0.92361896,-0.60771399,-0.60771399,-0.92361896,-13.529375,73.514474)"
       gradientUnits="userSpaceOnUse"
       id="linearGradient3943"
       xlink:href="#linearGradient4410-0"
       inkscape:collect="always" />
    <radialGradient
       inkscape:collect="always"
       xlink:href="#linearGradient3886-5"
       id="radialGradient3892-5"
       cx="24.061937"
       cy="23.872463"
       fx="24.061937"
       fy="23.872463"
       r="17.025761"
       gradientTransform="matrix(1,0,0,0.99900396,0,0.02377793)"
       gradientUnits="userSpaceOnUse" />
    <linearGradient
       id="linearGradient3886-5">
      <stop
         style="stop-color:#f9f9f9;stop-opacity:1;"
         offset="0"
         id="stop3888-9" />
      <stop
         style="stop-color:#afafaf;stop-opacity:1;"
         offset="1"
         id="stop3890-3" />
    </linearGradient>
    <radialGradient
       inkscape:collect="always"
       xlink:href="#linearGradient4169-1"
       id="radialGradient4099-4"
       cx="26.5"
       cy="23.5"
       fx="26.5"
       fy="23.5"
       r="19.5"
       gradientTransform="matrix(0.9473684,0,0,0.79892039,1.3947374,4.725371)"
       gradientUnits="userSpaceOnUse" />
    <linearGradient
       id="linearGradient4169-1">
      <stop
         id="stop4171-2"
         offset="0"
         style="stop-color:#f9f9f9;stop-opacity:1;" />
      <stop
         style="stop-color:#c4c4c4;stop-opacity:1;"
         offset="0.76923078"
         id="stop4175-4" />
      <stop
         id="stop4173-4"
         offset="1"
         style="stop-color:#565656;stop-opacity:1;" />
    </linearGradient>
    <linearGradient
       inkscape:collect="always"
       xlink:href="#linearGradient4239"
       id="linearGradient4245"
       x1="44"
       y1="28.00672"
       x2="57.993282"
       y2="13"
       gradientUnits="userSpaceOnUse" />
    <linearGradient
       inkscape:collect="always"
       xlink:href="#linearGradient4223"
       id="linearGradient4249"
       x1="24.643452"
       y1="23.494081"
       x2="39.495842"
       y2="9.4033527"
       gradientUnits="userSpaceOnUse" />
    <linearGradient
       inkscape:collect="always"
       xlink:href="#linearGradient3838"
       id="linearGradient3844"
       x1="29.981358"
       y1="44.8125"
       x2="59.990952"
       y2="7.3004994"
       gradientUnits="userSpaceOnUse" />
    <linearGradient
       inkscape:collect="always"
       xlink:href="#linearGradient3886-5"
       id="linearGradient3860"
       x1="27"
       y1="21"
       x2="18"
       y2="33"
       gradientUnits="userSpaceOnUse" />
    <linearGradient
       inkscape:collect="always"
       xlink:href="#linearGradient3837-7"
       id="linearGradient4231"
       gradientUnits="userSpaceOnUse"
       x1="140"
       y1="1022.3622"
       x2="140"
       y2="832.36218"
       gradientTransform="translate(-2.1657547e-7,3.762189e-6)" />
    <linearGradient
       id="linearGradient3837-7">
      <stop
         id="stop3839-5"
         offset="0"
         style="stop-color:#34757a;stop-opacity:1;" />
      <stop
         style="stop-color:#458e8e;stop-opacity:1;"
         offset="1"
         id="stop3841-9" />
    </linearGradient>
    <linearGradient
       y2="832.36218"
       x2="140"
       y1="1022.3622"
       x1="140"
       gradientTransform="translate(0,-796.36221)"
       gradientUnits="userSpaceOnUse"
       id="linearGradient3139"
       xlink:href="#linearGradient3837-7"
       inkscape:collect="always" />
  </defs>
  <sodipodi:namedview
     id="base"
     pagecolor="#ffffff"
     bordercolor="#666666"
     borderopacity="1.0"
     inkscape:pageopacity="0.0"
     inkscape:pageshadow="2"
     inkscape:zoom="8.0000004"
     inkscape:cx="14.720323"
     inkscape:cy="22.437974"
     inkscape:current-layer="layer1"
     showgrid="true"
     inkscape:grid-bbox="true"
     inkscape:document-units="px"
     showguides="true"
     inkscape:guide-bbox="true"
     inkscape:window-width="1366"
     inkscape:window-height="698"
     inkscape:window-x="-4"
     inkscape:window-y="-5"
     inkscape:window-maximized="1"
     inkscape:snap-global="true">
    <inkscape:grid
       type="xygrid"
       id="grid3047" />
    <sodipodi:guide
       orientation="1,0"
       position="3,4"
       id="guide3051" />
    <sodipodi:guide
       orientation="1,0"
       position="45,4"
       id="guide3053" />
    <sodipodi:guide
       orientation="0,1"
       position="-2,45"
       id="guide3055" />
    <sodipodi:guide
       orientation="0,1"
       position="2,3"
       id="guide3057" />
    <sodipodi:guide
       orientation="1,0"
       position="24,31"
       id="guide3059" />
    <sodipodi:guide
       orientation="0,1"
       position="10,24"
       id="guide3061" />
  </sodipodi:namedview>
  <metadata
     id="metadata3044">
    <rdf:RDF>
      <cc:Work
         rdf:about="">
        <dc:format>image/svg+xml</dc:format>
        <dc:type
           rdf:resource="http://purl.org/dc/dcmitype/StillImage" />
        <dc:title></dc:title>
      </cc:Work>
    </rdf:RDF>
  </metadata>
  <g
     id="layer1"
     inkscape:label="Layer 1"
     inkscape:groupmode="layer">
    <path
       inkscape:connector-curvature="0"
       style="fill:#ececec;fill-opacity:1;stroke:#2670f3;stroke-opacity:1"
       d="m 12.79054,7.9670611 c -0.08325,0.00859 -0.172956,0.041942 -0.235642,0.1047298 l -1.230574,1.2305743 0,4.9222968 L 13,17 c -0.600621,1.009689 -1.096676,2.098355 -1.440034,3.246622 L 5.3547297,21.529561 C 5.1817911,21.565331 5.066723,21.718897 5.066723,21.896115 l 0,4.110642 c 0,0.172945 0.1206046,0.32577 0.2880067,0.366554 l 6.0219593,1.440034 c 0.322214,1.329387 0.833502,2.611563 1.492399,3.77027 l -3.5084461,5.315034 c -0.097415,0.148521 -0.073224,0.345925 0.052365,0.471284 l 2.9062491,2.90625 c 0.121967,0.121585 0.297841,0.142009 0.445102,0.05237 l 5.472128,-3.325169 c 1.073868,0.620003 2.231296,1.109259 3.456081,1.440034 l 1.28294,6.126689 c 0.03574,0.173431 0.189469,0.314189 0.366554,0.314189 l 4.084459,0 c 0.171679,0 0.32578,-0.120099 0.366554,-0.288007 l 1.518581,-6.179054 c 1.263181,-0.340591 2.433063,-0.843948 3.534629,-1.492399 l 5.393581,3.560811 c 0.148767,0.09692 0.345165,0.07297 0.471283,-0.05237 l 2.880068,-2.90625 c 0.122339,-0.122088 0.168158,-0.297832 0.07855,-0.445101 L 39,34 35.935814,29.750845 c -1.938808,3.793793 -5.892769,6.388513 -10.446791,6.388513 -6.471186,0 -11.72973,-5.258546 -11.72973,-11.729729 0,-4.760054 2.862231,-8.848083 6.938345,-10.682433 l 0,-3.010979 c -0.741846,0.259655 -1.465776,0.571516 -2.14696,0.942567 -0.0016,-2.72e-4 0.0017,-0.02547 0,-0.02618 L 13.026182,8.019426 C 12.951922,7.97084 12.873801,7.95844 12.79054,7.9670611 z"
       id="path3097"
       sodipodi:nodetypes="cccccccssccccccccccsscccccccccsscccccc" />
    <path
       style="fill:#2670f3;fill-opacity:1;fill-rule:evenodd;stroke:none;stroke-width:1;marker:none;visibility:visible;display:inline;overflow:visible;enable-background:accumulate"
       id="path3083"
       d="m 24.420846,32.35323 c -5.475256,0 -10.226708,-4.094864 -10.226708,-9.491551 l 0.114963,-8.107776 0,-1.670944 -3.471263,0 -0.119912,-6.7707133 14.638406,0.068011 4.579123,0.00975 c 5.480177,4e-7 10.226707,4.0899913 10.226707,9.4915223 l 0,16.471732 -15.741341,0 0,0 0,0 z"
       inkscape:connector-curvature="0"
       sodipodi:nodetypes="ccccccccsccccc" />
    <path
       inkscape:connector-curvature="0"
       d="m 26.800716,11.668044 c -1.134837,0 -2.143174,0.421328 -2.953355,1.239748 -0.809776,0.817983 -1.234958,1.839173 -1.234955,2.991619 l 0,5.825365 2.642227,0 0,-5.825365 c 0,-0.441715 0.144129,-0.787104 0.459513,-1.105694 0.316423,-0.319607 0.651496,-0.464294 1.08657,-0.464294 0.444192,0 0.774238,0.14396 1.091351,0.464294 0.315388,0.31859 0.45952,0.663979 0.45952,1.105694 l 0,5.825365 2.642224,0 0,-5.825365 c 0,-0.441715 0.144131,-0.787104 0.459522,-1.105694 0.31711,-0.320334 0.647155,-0.464294 1.091356,-0.464294 0.435079,0 0.770142,0.144687 1.086559,0.464294 0.315387,0.31859 0.459519,0.663979 0.459519,1.105694 l 0.01436,6.806647 c 0,1.451984 -1.382749,2.944469 -3.159182,2.944469 l -8.350183,-0.03351 c -1.370872,5e-6 -2.541709,-1.603082 -2.541709,-3.317846 l 0,-12.5675674 -2.498623,0 0,13.0605844 c 0,1.412281 0.516788,2.650749 1.522152,3.652223 0.859309,0.848187 1.892744,1.398001 3.053873,1.522178 l 9.31709,-2.8e-5 c 1.457836,-4e-6 2.738613,-0.542067 3.771872,-1.593989 l 0.0048,0 c 0.878777,-0.902867 1.392511,-1.984704 1.517362,-3.202229 l -0.0096,-7.270941 c 0,-1.152446 -0.425167,-2.173636 -1.234956,-2.991619 -0.810171,-0.81842 -1.818517,-1.239748 -2.953349,-1.239748 -1.113933,0 -2.088627,0.414222 -2.876776,1.172721 -0.785839,-0.757249 -1.75372,-1.172721 -2.867191,-1.172716 z"
       id="path4130"
       style="fill:#ececec;fill-opacity:1;fill-rule:evenodd;stroke:none;stroke-width:1;marker:none;visibility:visible;display:inline;overflow:visible;enable-background:accumulate"
       sodipodi:nodetypes="scsccscsssccscscccccsccsccscccccscs" />
    <path
       inkscape:connector-curvature="0"
       style="fill:#e6e6e6;fill-opacity:1"
       d="m 11.675676,7.2180941 0,5.0270269 0.837838,0 2.513513,0 0,11.72973 c 0.837838,4.189189 4.459417,7.005132 7.540541,7.54054 l 16.756756,0 0,-0.837837 0,-15.918919 c -0.837837,-4.18919 -4.459417,-7.0051324 -7.54054,-7.5405409 l -19.27027,0 -0.837838,0 z m 0.837838,0.8378378 19.27027,0 c 3.408661,0.8167302 5.864865,3.3513511 6.702703,6.7027031 l 0,15.918919 -15.918919,0 c -3.408661,-0.816731 -5.864865,-3.351352 -6.702703,-6.702703 l 0,-11.72973 0,-0.837838 -3.351351,0 0,-3.3513511 z"
       id="rect3085" />
  </g>
</svg>
