<?xml version="1.0" encoding="UTF-8" standalone="no"?>
<!-- Created with Inkscape (http://www.inkscape.org/) -->

<svg
   xmlns:dc="http://purl.org/dc/elements/1.1/"
   xmlns:cc="http://creativecommons.org/ns#"
   xmlns:rdf="http://www.w3.org/1999/02/22-rdf-syntax-ns#"
   xmlns:svg="http://www.w3.org/2000/svg"
   xmlns="http://www.w3.org/2000/svg"
   xmlns:sodipodi="http://sodipodi.sourceforge.net/DTD/sodipodi-0.dtd"
   xmlns:inkscape="http://www.inkscape.org/namespaces/inkscape"
   width="256"
   height="256"
   id="svg2"
   version="1.1"
   inkscape:version="0.91 r13725"
   sodipodi:docname="folder-yandex-disk.svg">
  <defs
     id="defs4" />
  <sodipodi:namedview
     id="base"
     pagecolor="#ffffff"
     bordercolor="#666666"
     borderopacity="1.0"
     inkscape:pageopacity="0.0"
     inkscape:pageshadow="2"
     inkscape:zoom="0.7"
     inkscape:cx="-64.369136"
     inkscape:cy="28.319982"
     inkscape:document-units="px"
     inkscape:current-layer="layer1"
     showgrid="true"
     showguides="true"
     inkscape:guide-bbox="true"
     inkscape:window-width="1366"
     inkscape:window-height="698"
     inkscape:window-x="-4"
     inkscape:window-y="-5"
     inkscape:window-maximized="1"
     inkscape:snap-global="true">
    <inkscape:grid
       type="xygrid"
       id="grid2985"
       empspacing="5"
       visible="true"
       enabled="true"
       snapvisiblegridlinesonly="true" />
    <sodipodi:guide
       orientation="0,1"
       position="-80,240"
       id="guide2987" />
    <sodipodi:guide
       orientation="1,0"
       position="15,0"
       id="guide2991" />
    <sodipodi:guide
       orientation="1,0"
       position="240,-5"
       id="guide2993" />
    <sodipodi:guide
       orientation="0,1"
       position="300,110"
       id="guide2997" />
    <sodipodi:guide
       orientation="0,1"
       position="135,150"
       id="guide3887" />
    <sodipodi:guide
       orientation="0,1"
       position="180,70"
       id="guide3889" />
    <sodipodi:guide
       orientation="1,0"
       position="130,110"
       id="guide3891" />
    <sodipodi:guide
       orientation="1,0"
       position="90,110"
       id="guide3787" />
    <sodipodi:guide
       orientation="0.70710678,0.70710678"
       position="398.0001,284.35794"
       id="guide3791" />
    <sodipodi:guide
       orientation="1,0"
       position="170,110"
       id="guide4457" />
    <sodipodi:guide
       orientation="-0.70710678,0.70710678"
       position="130,110"
       id="guide4558" />
  </sodipodi:namedview>
  <metadata
     id="metadata7">
    <rdf:RDF>
      <cc:Work
         rdf:about="">
        <dc:format>image/svg+xml</dc:format>
        <dc:type
           rdf:resource="http://purl.org/dc/dcmitype/StillImage" />
        <dc:title />
      </cc:Work>
    </rdf:RDF>
  </metadata>
  <g
     inkscape:label="Layer 1"
     inkscape:groupmode="layer"
     id="layer1"
     transform="translate(0,-796.36218)">
    <path
       style="fill:#1a1a1a;fill-opacity:1;stroke:none"
       d="m 20,837.36218 85,0 10,-10 120,0 0,135.21423 -215,-0.21423 z"
       id="rect3053"
       inkscape:connector-curvature="0"
       sodipodi:nodetypes="ccccccc" />
    <path
       style="fill:#f0544c;fill-opacity:1;stroke:none"
       d="m 15,847.36218 90,0 20,20 115,0 0.0508,170.00002 -225.05077,0 z"
       id="rect2999"
       inkscape:connector-curvature="0"
       sodipodi:nodetypes="ccccccc" />
    <path
       style="opacity:0.65966384;fill:#e6e6e6;fill-opacity:1;stroke:none"
       d="m 15,847.36218 90,0 0,2 -90,0 z"
       id="rect3940"
       inkscape:connector-curvature="0"
       sodipodi:nodetypes="ccccc" />
    <path
       sodipodi:nodetypes="ccccc"
       inkscape:connector-curvature="0"
       id="path3797"
       d="m 125,867.36218 115,0 0,2 -115,0 z"
       style="opacity:0.65966384;fill:#e6e6e6;fill-opacity:1;stroke:none" />
    <rect
       rx="0"
       style="fill:#333333;fill-opacity:1;stroke:none"
       id="rect3799"
       width="225"
       height="1.9998806"
       x="15"
       y="1035.3622"
       ry="0" />
    <path
       style="opacity:0.65966384;fill:#e6e6e6;fill-opacity:1;stroke:none"
       d="m 125,867.36218 -20,-20 0,2 20,20 z"
       id="path3803"
       inkscape:connector-curvature="0"
       sodipodi:nodetypes="ccccc" />
    <rect
       style="fill:#1a1a1a;fill-opacity:1;stroke:none"
       id="rect3781"
       width="10"
       height="10"
       x="100"
       y="1017.3622"
       ry="5"
       rx="5" />
    <rect
       rx="5"
       ry="4.9999986"
       y="1017.3622"
       x="150"
       height="9.9999971"
       width="10"
       id="rect3783"
       style="fill:#1a1a1a;fill-opacity:1;stroke:none" />
    <rect
       rx="5"
       ry="5"
       y="1017.3622"
       x="125"
       height="10"
       width="10"
       id="rect3785"
       style="fill:#1a1a1a;fill-opacity:1;stroke:none" />
    <g
       style="fill:#1a1a1a;fill-opacity:1"
       id="g3027"
       transform="translate(75,45.000003)">
      <g
         style="fill:#1a1a1a;fill-opacity:1"
         transform="translate(0,9.9999974)"
         id="g4009">
        <g
           style="fill:#1a1a1a;fill-opacity:1"
           id="g3865"
           transform="translate(10,0)" />
        <g
           style="fill:#1a1a1a;fill-opacity:1"
           transform="translate(40,0)"
           id="g3869" />
        <g
           style="fill:#1a1a1a;fill-opacity:1"
           id="g3875"
           transform="translate(70,0)" />
        <g
           style="fill:#1a1a1a;fill-opacity:1"
           transform="translate(70,-25.000003)"
           id="g3881" />
      </g>
    </g>
    <g
       style="fill:#1a1a1a;fill-opacity:1"
       transform="translate(75,25.000003)"
       id="g4724">
      <g
         style="fill:#1a1a1a;fill-opacity:1"
         id="g4726"
         transform="translate(0,9.9999974)">
        <g
           style="fill:#1a1a1a;fill-opacity:1"
           transform="translate(10,0)"
           id="g4728" />
        <g
           style="fill:#1a1a1a;fill-opacity:1"
           id="g4730"
           transform="translate(40,0)" />
        <g
           style="fill:#1a1a1a;fill-opacity:1"
           transform="translate(70,0)"
           id="g4732" />
        <g
           style="fill:#1a1a1a;fill-opacity:1"
           id="g4734"
           transform="translate(70,-25.000003)" />
      </g>
    </g>
    <g
       style="fill:#1a1a1a;fill-opacity:1"
       id="g4738"
       transform="translate(75,5.000003)">
      <g
         style="fill:#1a1a1a;fill-opacity:1"
         transform="translate(0,9.9999974)"
         id="g4740">
        <g
           style="fill:#1a1a1a;fill-opacity:1"
           id="g4742"
           transform="translate(10,0)" />
        <g
           style="fill:#1a1a1a;fill-opacity:1"
           transform="translate(40,0)"
           id="g4744" />
        <g
           style="fill:#1a1a1a;fill-opacity:1"
           id="g4746"
           transform="translate(70,0)" />
        <g
           style="fill:#1a1a1a;fill-opacity:1"
           transform="translate(70,-25.000003)"
           id="g4748" />
      </g>
    </g>
    <g
       style="fill:#1a1a1a;fill-opacity:1"
       transform="translate(75,-14.999997)"
       id="g4752">
      <g
         style="fill:#1a1a1a;fill-opacity:1"
         id="g4754"
         transform="translate(0,9.9999974)">
        <g
           style="fill:#1a1a1a;fill-opacity:1"
           transform="translate(10,0)"
           id="g4756" />
        <g
           style="fill:#1a1a1a;fill-opacity:1"
           id="g4758"
           transform="translate(40,0)" />
        <g
           style="fill:#1a1a1a;fill-opacity:1"
           transform="translate(70,0)"
           id="g4760" />
        <g
           style="fill:#1a1a1a;fill-opacity:1"
           id="g4762"
           transform="translate(70,-25.000003)" />
      </g>
    </g>
    <g
       transform="matrix(1.1142857,0,0,1.1142858,39.857143,-97.555747)"
       id="g3259" />
    <path
       style="fill:#1a1a1a;fill-opacity:1;stroke:none"
       inkscape:connector-curvature="0"
       id="yandex-ufo"
       d="m 121.79454,930.20781 c 21.40016,-14.73538 34.28423,-17.80988 39.78858,-17.87476 -6.05606,0.0587 -16.55767,3.19809 -23.11449,1.90317 -6.26734,-1.23759 -15.71014,-6.24452 -28.1598,2.32662 -12.447097,8.57047 -8.1293,16.76011 -9.33899,23.4943 -0.988049,5.522 -7.313001,13.98013 -9.829229,19.93373 2.424516,-5.55722 10.221269,-15.71192 30.653209,-29.78388 z m 2.35696,-16.1466 c 1.17092,-0.80576 3.35517,-1.10618 5.35676,-0.53336 2.84375,0.81156 4.38871,3.02395 2.14794,4.56653 -2.24342,1.54361 -6.03825,0.88425 -7.71366,-0.7322 -1.18083,-1.14186 -0.96092,-2.49784 0.20887,-3.30104 z m -9.51432,5.31234 c 1.9189,-1.31793 4.37237,-1.06036 5.48557,0.57998 1.10927,1.63733 0.45659,4.03742 -1.46193,5.35583 -1.91863,1.32001 -4.37146,1.06298 -5.48522,-0.57711 -1.1092,-1.63727 -0.45632,-4.03604 1.46146,-5.35846 z m -10.81108,11.83602 c 0.20069,-2.08968 1.27181,-4.02901 2.43946,-4.83577 1.16782,-0.80392 2.50342,-0.51924 3.12692,1.00332 0.88473,2.16103 0.11432,5.96329 -2.12829,7.50866 -2.23887,1.54194 -3.72056,-0.71162 -3.43809,-3.67623 z m 65.02974,-12.3016 c -3.90174,-5.77956 -23.27209,1.44676 -43.66901,15.53423 C 104.79631,948.52966 91.093261,964.14609 95,969.92175 c 2.640386,3.909 13.12635,2.96719 25.94294,-2.40864 5.63412,-1.45586 12.68386,-4.82405 19.7545,-9.69322 6.96934,-4.79745 12.59002,-10.10718 16.0018,-14.81317 9.96259,-10.31875 14.84725,-20.12189 12.15886,-24.09961 z m -30.00434,36.18766 c -8.87641,6.11269 -16.95865,9.76455 -18.4965,7.49236 -1.53889,-2.26909 4.47909,-8.96097 13.35811,-15.07286 8.8744,-6.11479 17.25348,-9.32668 18.79411,-7.05681 1.53844,2.26772 -4.77976,8.5264 -13.65574,14.63722 z"
       sodipodi:nodetypes="cccccccccccccccccccccccccccccccccccccccc" />
  </g>
</svg>
