/* XPM */
static char * maximize_toggled_pressed_xpm[] = {
"24 24 3 1",
" 	c None",
".	c #EEEEEE",
"+	c #0f9d58",
"........................",
"........................",
"........................",
"........................",
"........................",
"........................",
"........................",
"...............++.......",
"..............+++.......",
".............+++........",
"............+++.........",
".......+...+++..........",
".......++.+++...........",
".......+++++............",
".......++++.............",
".......+++++............",
".......++++++...........",
"........................",
"........................",
"........................",
"........................",
"........................",
"........................",
"........................"};
