<?xml version="1.0" encoding="UTF-8" standalone="no"?>
<svg
   xmlns:dc="http://purl.org/dc/elements/1.1/"
   xmlns:cc="http://creativecommons.org/ns#"
   xmlns:rdf="http://www.w3.org/1999/02/22-rdf-syntax-ns#"
   xmlns:svg="http://www.w3.org/2000/svg"
   xmlns="http://www.w3.org/2000/svg"
   xmlns:sodipodi="http://sodipodi.sourceforge.net/DTD/sodipodi-0.dtd"
   xmlns:inkscape="http://www.inkscape.org/namespaces/inkscape"
   width="96"
   version="1.1"
   height="96"
   id="svg2"
   inkscape:version="0.91 r13725"
   sodipodi:docname="application-vnd.google-earth.kmz.svg">
  <metadata
     id="metadata40">
    <rdf:RDF>
      <cc:Work
         rdf:about="">
        <dc:format>image/svg+xml</dc:format>
        <dc:type
           rdf:resource="http://purl.org/dc/dcmitype/StillImage" />
        <dc:title></dc:title>
      </cc:Work>
    </rdf:RDF>
  </metadata>
  <defs
     id="defs38" />
  <sodipodi:namedview
     pagecolor="#ffffff"
     bordercolor="#666666"
     borderopacity="1"
     objecttolerance="10"
     gridtolerance="10"
     guidetolerance="10"
     inkscape:pageopacity="0"
     inkscape:pageshadow="2"
     inkscape:window-width="640"
     inkscape:window-height="480"
     id="namedview36"
     showgrid="false"
     inkscape:zoom="2.8284271"
     inkscape:cx="40.87549"
     inkscape:cy="17.70539"
     inkscape:current-layer="svg2" />
  <g
     id="g4719"
     transform="matrix(2.1538322,0,0,2.2857934,-3.5264937,-6.9429478)">
    <g
       transform="matrix(1.1514053,0,0,0.91669281,-3.6220948,2.0025533)"
       id="layer1">
      <path
         d="m 7.0067,4.0162 0,40 33.2538,0 0,-29 -10.7586,-11 z"
         id="rect4090"
         style="fill:#f1c40f"
         inkscape:connector-curvature="0" />
      <g
         id="g6"
         style="fill-rule:evenodd;stroke:#003bc3;stroke-width:0;stroke-linecap:square">
        <g
           id="g8"
           style="stroke-linejoin:bevel">
          <path
             transform="translate(25.6062,4.03856)"
             d="m 0.1719,0 4.1245,0 10.9565,0.062 0,39.9802 -5.1141,0 -1.1069,-4.1308 c 2.01369,-2.0676 3.03039,-3.0843 3.05009,-3.0501 0.0198,0.0342 -0.4273,-1.9259 -1.341,-5.8803 l -4.1245,-2.0622 -2.0622,-3.0504 0.3222,-3.4586 -2.5778,-1.074 -0.666,-3.0719 L 2.40599,9.1083 9e-5,5.1557 Z"
             id="shape0"
             style="fill:#27ae60"
             inkscape:connector-curvature="0" />
          <path
             transform="translate(7.00304,4.01013)"
             d="m 9.402,0 6.6836,0 -3.1106,5.0552 -0.1289,4.8549 3.0933,4.2534 -1.7615,5.5853 1.3319,5.9289 5.4135,4.3186 2.9644,4.5319 2.0193,5.4993 L 17.1024,39.995 14.2639,33.2822 8.6122,31.5039 3.6519,27.2244 0,26.2792 0,23.5295 4.2104,24.4747 8.7216,28.1266 14.3928,29.8881 9.9246,25.1622 9.2802,19.9636 10.0535,14.8939 6.8259,9.9988 7.461,4.9994 Z"
             id="shape1"
             style="fill:#2980b9"
             inkscape:connector-curvature="0" />
          <path
             transform="translate(6.98734,3.9956)"
             d="m 0.0335,40.0042 0,-39.9745 L 4.0972,0 4.4175,4.9401 2.2957,12.8589 6.5144,20.1659 7.5772,24.4892 2.9801,20.6225 0.0478,21.2132 -1e-4,32.4297 c 2.57873,-0.0903 3.88718,-0.1164 3.92538,-0.0782 0.05728,0.0573 1.53236,0.401 4.42523,1.0311 l 1.3748,2.0622 2.9216,0.6875 0.6014,2.4059 -1.357,1.466 z"
             id="shape2"
             style="fill:#27ae60"
             inkscape:connector-curvature="0" />
          <path
             transform="matrix(0,1,-1,0,37.636,25.7563)"
             d="M 2e-4,4.3393 C 0.0219657,1.38153 1.55463,-5.5e-4 4.12473,3e-5 6.33505,0.0166174 9.42754,1.45624 13.87567,4.51193 9.63797,7.37952 6.54617,8.59254 4.33955,8.67865 1.5118,8.56763 -0.02157,7.29707 2e-4,4.3393 Z"
             id="shape3"
             style="fill:#e74c3c"
             inkscape:connector-curvature="0" />
        </g>
        <path
           transform="translate(30.952,27.619)"
           d="M 2.2295,0.0011 C 0.96663,0.0414354 -0.02842,1.12652 6.4e-4,2.43162 0.0297002,3.73672 1.072,4.77338 2.33532,4.75367 3.59864,4.73395 4.60933,3.6277 4.60023,2.32229 4.55122,1.01782 3.49236,-0.03924 2.2295,0.0011 Z"
           id="shape4"
           style="fill:#ecf0f1;stroke-miterlimit:2.01300001"
           inkscape:connector-curvature="0" />
      </g>
    </g>
    <g
       transform="matrix(1.0528776,0,0,1.0528776,54.311653,17.64477)"
       id="g4214"
       style="fill-rule:evenodd;stroke:#003bc3;stroke-width:0;stroke-linecap:square">
      <rect
         id="shape0-4"
         style="fill:#34495e;stroke-miterlimit:2.01300001"
         height="21.617744"
         y="-11.380642"
         x="-44.688305"
         width="7.4251237" />
      <g
         id="g17"
         style="fill:#ffffff">
        <rect
           id="shape1-7"
           style="stroke-miterlimit:2.01300001"
           height="1.6002752"
           y="-11.374231"
           x="-44.652218"
           width="4.4549632" />
        <g
           id="g20"
           style="stroke-miterlimit:2">
          <rect
             id="shape2-2"
             height="1.6002752"
             y="-9.7737942"
             x="-41.692238"
             width="4.4549632" />
          <rect
             id="shape3-0"
             height="1.6002752"
             y="-8.1706581"
             x="-44.651997"
             width="4.4549632" />
          <rect
             id="shape4-7"
             height="1.6002752"
             y="-6.57021"
             x="-41.691925"
             width="4.4549632" />
          <rect
             id="shape5"
             height="1.6002752"
             y="-4.9655404"
             x="-44.656391"
             width="4.4549632" />
          <rect
             id="shape6"
             height="1.6002752"
             y="-3.3651414"
             x="-41.696476"
             width="4.4549632" />
          <rect
             id="shape7"
             height="1.6002752"
             y="-1.7620358"
             x="-44.656391"
             width="4.4549632" />
          <rect
             id="shape8"
             height="1.6002752"
             y="-0.16153865"
             x="-41.696476"
             width="4.4549632" />
          <rect
             id="shape9"
             height="1.6002752"
             y="1.441668"
             x="-44.68605"
             width="4.4549632" />
          <rect
             id="shape10"
             height="1.6002752"
             y="3.0420651"
             x="-41.726292"
             width="4.4549632" />
          <rect
             id="shape11"
             height="1.6002752"
             y="4.6452718"
             x="-44.68605"
             width="4.4549632" />
          <rect
             id="shape12"
             height="1.6002752"
             y="6.2456689"
             x="-41.725979"
             width="4.4549632" />
          <rect
             id="shape13"
             height="1.6002752"
             y="7.8503785"
             x="-44.690445"
             width="4.4549632" />
          <rect
             id="shape17"
             height="10.665484"
             y="9.5816936"
             x="-44.675064"
             width="7.4139357" />
        </g>
      </g>
      <rect
         id="shape18"
         style="fill:#2c3e50;stroke-miterlimit:2"
         height="2.5231194"
         y="16.246485"
         x="-43.112942"
         width="4.3457713" />
    </g>
  </g>
</svg>
