<?xml version="1.0" encoding="UTF-8" standalone="no"?>
<svg
   xmlns:dc="http://purl.org/dc/elements/1.1/"
   xmlns:cc="http://creativecommons.org/ns#"
   xmlns:rdf="http://www.w3.org/1999/02/22-rdf-syntax-ns#"
   xmlns:svg="http://www.w3.org/2000/svg"
   xmlns="http://www.w3.org/2000/svg"
   xmlns:sodipodi="http://sodipodi.sourceforge.net/DTD/sodipodi-0.dtd"
   xmlns:inkscape="http://www.inkscape.org/namespaces/inkscape"
   width="48"
   version="1.0"
   height="48"
   id="svg13588"
   inkscape:version="0.91 r13725"
   sodipodi:docname="mail-reply-all.svg">
  <metadata
     id="metadata13607">
    <rdf:RDF>
      <cc:Work
         rdf:about="">
        <dc:format>image/svg+xml</dc:format>
        <dc:type
           rdf:resource="http://purl.org/dc/dcmitype/StillImage" />
      </cc:Work>
    </rdf:RDF>
  </metadata>
  <defs
     id="defs13605" />
  <sodipodi:namedview
     pagecolor="#ffffff"
     bordercolor="#666666"
     borderopacity="1"
     objecttolerance="10"
     gridtolerance="10"
     guidetolerance="10"
     inkscape:pageopacity="0"
     inkscape:pageshadow="2"
     inkscape:window-width="640"
     inkscape:window-height="480"
     id="namedview13603"
     showgrid="false"
     inkscape:zoom="6.625"
     inkscape:cx="24.563337"
     inkscape:cy="29.528759"
     inkscape:current-layer="svg13588" />
  <g
     id="g23781">
    <g
       id="g9"
       style="fill-rule:evenodd;stroke:none">
      <g
         style="stroke-linecap:round;stroke-linejoin:round;stroke-miterlimit:0"
         id="g11">
        <path
           style="opacity:0.05"
           id="path4169"
           d="m 1,5.2593 46,0 0,37.4815 -46,0 z"
           inkscape:connector-curvature="0" />
        <path
           style="opacity:0.15"
           id="path4167"
           d="m 1.327,5.586 45.132,0 10e-5,36.4733 -45.132,0 z"
           inkscape:connector-curvature="0" />
        <path
           style="opacity:0.25"
           id="path4165"
           d="m 1.6815,5.9407 44.1965,0 0,35.4233 -44.1965,0 z"
           inkscape:connector-curvature="0" />
        <path
           style="fill:#5c656c"
           id="rect4162"
           d="m 2.1358,6.3951 43.1605,0 0,34.0741 -43.1605,0 z"
           inkscape:connector-curvature="0" />
      </g>
      <path
         style="fill:#f3f6f7"
         id="path4127"
         d="m 2.1358,6.3951 0,34.0741 16.5514,-18.6552 z"
         inkscape:connector-curvature="0" />
      <path
         style="fill:#f5fbfe"
         id="path4125"
         d="M 2.1358,6.3951 23.716,26.4988 45.2962,6.3951 Z"
         inkscape:connector-curvature="0" />
      <path
         style="fill:#e7ecef"
         id="path4123"
         d="M 45.2963,6.3951 28.7127,21.844 45.2963,40.4692 Z"
         inkscape:connector-curvature="0" />
      <path
         style="fill:#dbe4e7"
         id="rect3260-9"
         d="m 19.6785,26.123 -17.2899,14.3461 42.6546,0 L 27.7533,26.123 23.716,29.9475 Z"
         inkscape:connector-curvature="0" />
    </g>
    <path
       style="fill:#f0544c;fill-rule:evenodd;stroke:none;fill-opacity:1"
       id="path3006"
       d="m 14.1582,0.002 c -0.75983,0.0211148 -1.43754,0.339131 -1.96875,0.882812 l -8.4043,8.4043 -0.041016,0 c -0.451741,0.317472 -0.82863,0.752444 -1.04492,1.28711 -0.356895,0.882206 -0.2084,1.87095 0.28125,2.6543 0.076688,0.122756 0.144585,0.249677 0.240234,0.361328 0.059161,0.0691 0.095858,0.137029 0.162109,0.201172 0.034808,0.03474 0.084635,0.08828 0.121094,0.121093 l 8.6855,8.6855 c 0.73435,0.764865 1.78843,1.03116 2.81445,0.763672 1.02603,-0.267493 1.82236,-1.02476 2.08984,-2.05078 0.267482,-1.02602 0.0012,-2.12111 -0.763672,-2.85547 l -3.7793,-3.7793 5.95508,0 7.9219,7.9219 c 0.734363,0.764865 1.78843,1.03116 2.81445,0.763672 1.02603,-0.267493 1.82431,-1.02476 2.0918,-2.05078 0.267482,-1.02602 0.0012,-2.12111 -0.763672,-2.85547 l -3.7793,-3.7793 12.9863,0 c 1.05588,0.01479 2.04192,-0.576264 2.57422,-1.48828 0.5323,-0.91201 0.5323,-2.02353 0,-2.93555 -0.532294,-0.912027 -1.51833,-1.4622 -2.57422,-1.44727 l -12.9863,0 3.7793,-3.7793 c 0.861622,-0.842382 1.11266,-2.1483 0.642579,-3.25781 -0.470082,-1.10951 -1.60993,-1.80061 -2.81445,-1.76758 -0.759834,0.0211161 -1.43949,0.339126 -1.9707,0.882812 l -7.9219,7.9219 -5.95508,0 3.7793,-3.7793 c 0.861621,-0.842382 1.11462,-2.1483 0.644531,-3.25781 -0.470095,-1.10951 -1.61188,-1.80061 -2.81641,-1.76758 z"
       inkscape:connector-curvature="0" />
  </g>
</svg>
