<?xml version="1.0" encoding="UTF-8" standalone="no"?>
<svg
   xmlns:dc="http://purl.org/dc/elements/1.1/"
   xmlns:cc="http://creativecommons.org/ns#"
   xmlns:rdf="http://www.w3.org/1999/02/22-rdf-syntax-ns#"
   xmlns:svg="http://www.w3.org/2000/svg"
   xmlns="http://www.w3.org/2000/svg"
   xmlns:sodipodi="http://sodipodi.sourceforge.net/DTD/sodipodi-0.dtd"
   xmlns:inkscape="http://www.inkscape.org/namespaces/inkscape"
   width="48"
   version="1.0"
   height="48"
   id="svg12467"
   inkscape:version="0.91 r13725"
   sodipodi:docname="mail-receive.svg">
  <metadata
     id="metadata12486">
    <rdf:RDF>
      <cc:Work
         rdf:about="">
        <dc:format>image/svg+xml</dc:format>
        <dc:type
           rdf:resource="http://purl.org/dc/dcmitype/StillImage" />
      </cc:Work>
    </rdf:RDF>
  </metadata>
  <defs
     id="defs12484" />
  <sodipodi:namedview
     pagecolor="#ffffff"
     bordercolor="#666666"
     borderopacity="1"
     objecttolerance="10"
     gridtolerance="10"
     guidetolerance="10"
     inkscape:pageopacity="0"
     inkscape:pageshadow="2"
     inkscape:window-width="640"
     inkscape:window-height="480"
     id="namedview12482"
     showgrid="false"
     inkscape:zoom="6.625"
     inkscape:cx="4.7314492"
     inkscape:cy="15.142862"
     inkscape:current-layer="svg12467" />
  <g
     id="g23737">
    <g
       id="g9"
       style="fill-rule:evenodd;stroke:none">
      <g
         style="stroke-linecap:round;stroke-linejoin:round;stroke-miterlimit:0"
         id="g11">
        <path
           style="opacity:0.05"
           id="path4169"
           d="m 1,5.2593 46,0 0,37.4815 -46,0 z"
           inkscape:connector-curvature="0" />
        <path
           style="opacity:0.15"
           id="path4167"
           d="m 1.327,5.586 45.132,0 10e-5,36.4733 -45.132,0 z"
           inkscape:connector-curvature="0" />
        <path
           style="opacity:0.25"
           id="path4165"
           d="m 1.6815,5.9407 44.1965,0 0,35.4233 -44.1965,0 z"
           inkscape:connector-curvature="0" />
        <path
           style="fill:#5c656c"
           id="rect4162"
           d="m 2.1358,6.3951 43.1605,0 0,34.0741 -43.1605,0 z"
           inkscape:connector-curvature="0" />
      </g>
      <path
         style="fill:#f3f6f7"
         id="path4127"
         d="m 2.1358,6.3951 0,34.0741 16.6012,-18.6087 z"
         inkscape:connector-curvature="0" />
      <path
         style="fill:#f5fbfe"
         id="path4125"
         d="M 2.1358,6.3951 23.716,26.4988 45.2962,6.3951 Z"
         inkscape:connector-curvature="0" />
      <path
         style="fill:#e7ecef"
         id="path4123"
         d="M 45.2963,6.3951 28.7119,21.8447 45.2963,40.4692 Z"
         inkscape:connector-curvature="0" />
      <path
         style="fill:#dbe4e7"
         id="rect3260-9"
         d="m 19.6785,26.123 -17.2899,14.3461 42.6546,0 L 27.7533,26.123 23.716,29.9475 Z"
         inkscape:connector-curvature="0" />
    </g>
    <path
       style="fill:#f0544c;fill-rule:evenodd;stroke:none;fill-opacity:1"
       id="path3006"
       d="M 37.4129,11.4645 C 37.45067,10.0873 36.658553,8.78372 35.39,8.24626 34.12144,7.708788 32.62917,7.996724 31.66604,8.98186 l -4.3217,4.3217 0,-9.80576 c 0.01708,-1.20725 -0.612326,-2.33379 -1.6551,-2.9424 -1.04276,-0.608606 -2.31342,-0.608606 -3.35618,0 -1.04275,0.608607 -1.71799,1.73515 -1.70108,2.9424 l 0,9.80576 -4.3217,-4.3217 C 15.470654,8.107369 14.21916,7.80251 13.04606,8.108336 c -1.1731,0.305827 -2.03889,1.21759 -2.34473,2.3907 -0.305832,1.1731 -9.84e-4,2.37862 0.873525,3.21824 l 9.9306,9.9306 c 0.03752,0.04168 0.0982,0.09812 0.137924,0.137924 0.07334,0.07575 0.150872,0.116255 0.229876,0.183899 0.127655,0.109358 0.27342,0.188167 0.413774,0.27585 0.89565,0.559849 2.02567,0.729882 3.03435,0.321825 0.611312,-0.247297 1.10821,-0.67885 1.47119,-1.19534 l 0,-0.04598 9.6088,-9.6088 c 0.621626,-0.607372 0.987306,-1.38401 1.01145,-2.25277 z"
       inkscape:connector-curvature="0" />
  </g>
</svg>
