<?xml version="1.0" encoding="UTF-8" standalone="no"?>
<svg
   xmlns:dc="http://purl.org/dc/elements/1.1/"
   xmlns:cc="http://creativecommons.org/ns#"
   xmlns:rdf="http://www.w3.org/1999/02/22-rdf-syntax-ns#"
   xmlns:svg="http://www.w3.org/2000/svg"
   xmlns="http://www.w3.org/2000/svg"
   xmlns:sodipodi="http://sodipodi.sourceforge.net/DTD/sodipodi-0.dtd"
   xmlns:inkscape="http://www.inkscape.org/namespaces/inkscape"
   version="1.0"
   width="48"
   height="48"
   id="svg16943"
   inkscape:version="0.91 r13725"
   sodipodi:docname="system-log-out.svg">
  <metadata
     id="metadata16951">
    <rdf:RDF>
      <cc:Work
         rdf:about="">
        <dc:format>image/svg+xml</dc:format>
        <dc:type
           rdf:resource="http://purl.org/dc/dcmitype/StillImage" />
      </cc:Work>
    </rdf:RDF>
  </metadata>
  <sodipodi:namedview
     pagecolor="#ffffff"
     bordercolor="#666666"
     borderopacity="1"
     objecttolerance="10"
     gridtolerance="10"
     guidetolerance="10"
     inkscape:pageopacity="0"
     inkscape:pageshadow="2"
     inkscape:window-width="640"
     inkscape:window-height="480"
     id="namedview16949"
     showgrid="false"
     inkscape:zoom="6.625"
     inkscape:cx="23.586806"
     inkscape:cy="24.581873"
     inkscape:current-layer="svg16943" />
  <defs
     id="defs4" />
  <g
     id="g23898">
    <path
       style="fill:#f0544c;fill-rule:evenodd;stroke:none;fill-opacity:1"
       id="path3007"
       d="m 7,2.5038 c -2.5274,0.255139 -4.5,2.40313 -4.5,5 l 0,33 c 0,2.77 2.23,5 5,5 l 33,0 c 2.77,0 5,-2.23 5,-5 l 0,-33 c 0,-2.77 -2.23,-5 -5,-5 l -33,0 c -0.173125,0 -0.331506,-0.01701 -0.5,0 z"
       inkscape:connector-curvature="0" />
    <path
       style="fill:#ffffff;fill-rule:evenodd;stroke:none"
       id="path3049"
       d="m 23.9688,7.0975 c 0.834256,-0.0097 1.62996,0.315154 2.21875,0.90625 0.588787,0.591107 0.91928,1.38454 0.90625,2.21875 l 0,20.3125 L 35,22.6288 c 1.21001,-1.2066 3.16839,-1.21001 4.375,0 1.20663,1.21 1.21001,3.19964 0,4.40625 l -13.1875,13.1562 c -1.20681,1.20611 -3.13694,1.20611 -4.34375,0 L 8.65625,27.00375 c -0.900713,-0.87701 -1.1917,-2.2102 -0.71875,-3.375 0.472949,-1.16481 1.61784,-1.93663 2.875,-1.9375 0.834515,-8e-5 1.63682,0.33936 2.21875,0.9375 l 7.875,7.9062 0,-20.3125 c -0.01283,-0.821405 0.302244,-1.59858 0.875,-2.1875 0.572757,-0.588919 1.36605,-0.92735 2.1875,-0.9375 z"
       inkscape:connector-curvature="0" />
  </g>
</svg>
