<?xml version="1.0" encoding="UTF-8" standalone="no"?>
<svg
   xmlns:dc="http://purl.org/dc/elements/1.1/"
   xmlns:cc="http://creativecommons.org/ns#"
   xmlns:rdf="http://www.w3.org/1999/02/22-rdf-syntax-ns#"
   xmlns:svg="http://www.w3.org/2000/svg"
   xmlns="http://www.w3.org/2000/svg"
   xmlns:sodipodi="http://sodipodi.sourceforge.net/DTD/sodipodi-0.dtd"
   xmlns:inkscape="http://www.inkscape.org/namespaces/inkscape"
   width="16"
   version="1.1"
   height="16"
   id="svg21373"
   inkscape:version="0.91 r13725"
   sodipodi:docname="zoom-next.svg">
  <metadata
     id="metadata21382">
    <rdf:RDF>
      <cc:Work
         rdf:about="">
        <dc:format>image/svg+xml</dc:format>
        <dc:type
           rdf:resource="http://purl.org/dc/dcmitype/StillImage" />
      </cc:Work>
    </rdf:RDF>
  </metadata>
  <defs
     id="defs21380" />
  <sodipodi:namedview
     pagecolor="#ffffff"
     bordercolor="#666666"
     borderopacity="1"
     objecttolerance="10"
     gridtolerance="10"
     guidetolerance="10"
     inkscape:pageopacity="0"
     inkscape:pageshadow="2"
     inkscape:window-width="640"
     inkscape:window-height="480"
     id="namedview21378"
     showgrid="false"
     inkscape:zoom="9.9375"
     inkscape:cx="0.45198065"
     inkscape:cy="5.9251708"
     inkscape:current-layer="svg21373" />
  <g
     id="g24031">
    <path
       style="fill:#f0544c;stroke:none;fill-opacity:1"
       id="path4140"
       d="M 3.0625,1 C 1.9187685,1 1,1.859908 1,2.9375 l 0,10.125 C 1,14.140092 1.9187685,15 3.0625,15 l 9.875,0 C 14.081231,15 15,14.140092 15,13.0625 L 15,2.9375 C 15,1.859908 14.081231,1 12.9375,1 Z"
       inkscape:connector-curvature="0" />
    <path
       style="fill:#ffffff;stroke:none"
       id="rect2816"
       d="M 7,3 9,3 9,7 11,7 11,4.5 14.5,8 11,11.5 11,9 9,9 9,13 7,13 7,9 3,9 3,7 7,7 Z"
       inkscape:connector-curvature="0" />
  </g>
</svg>
