<?xml version="1.0" encoding="UTF-8" standalone="no"?>
<!-- Created with Inkscape (http://www.inkscape.org/) -->

<svg
   xmlns:dc="http://purl.org/dc/elements/1.1/"
   xmlns:cc="http://creativecommons.org/ns#"
   xmlns:rdf="http://www.w3.org/1999/02/22-rdf-syntax-ns#"
   xmlns:svg="http://www.w3.org/2000/svg"
   xmlns="http://www.w3.org/2000/svg"
   xmlns:sodipodi="http://sodipodi.sourceforge.net/DTD/sodipodi-0.dtd"
   xmlns:inkscape="http://www.inkscape.org/namespaces/inkscape"
   width="22"
   height="22"
   id="svg4099"
   version="1.1"
   inkscape:version="0.92.1 r"
   sodipodi:docname="drive-harddisk.svg">
  <defs
     id="defs4101" />
  <sodipodi:namedview
     id="base"
     pagecolor="#ffffff"
     bordercolor="#666666"
     borderopacity="1.0"
     inkscape:pageopacity="0.0"
     inkscape:pageshadow="2"
     inkscape:zoom="16.000001"
     inkscape:cx="7.872035"
     inkscape:cy="12.390131"
     inkscape:current-layer="layer1"
     showgrid="true"
     inkscape:grid-bbox="true"
     inkscape:document-units="px"
     showguides="true"
     inkscape:guide-bbox="true"
     inkscape:window-width="1366"
     inkscape:window-height="698"
     inkscape:window-x="-4"
     inkscape:window-y="-5"
     inkscape:window-maximized="1"
     inkscape:snap-global="true">
    <inkscape:grid
       type="xygrid"
       id="grid4107"
       empspacing="5"
       visible="true"
       enabled="true"
       snapvisiblegridlinesonly="true" />
    <sodipodi:guide
       orientation="0,1"
       position="9,20"
       id="guide4109" />
    <sodipodi:guide
       orientation="0,1"
       position="12,2"
       id="guide4111" />
    <sodipodi:guide
       orientation="1,0"
       position="2,10"
       id="guide4113" />
    <sodipodi:guide
       orientation="1,0"
       position="20,9"
       id="guide4115" />
    <sodipodi:guide
       orientation="1,0"
       position="11,8"
       id="guide4119" />
    <sodipodi:guide
       orientation="0,1"
       position="20,11"
       id="guide4121" />
  </sodipodi:namedview>
  <metadata
     id="metadata4104">
    <rdf:RDF>
      <cc:Work
         rdf:about="">
        <dc:format>image/svg+xml</dc:format>
        <dc:type
           rdf:resource="http://purl.org/dc/dcmitype/StillImage" />
        <dc:title></dc:title>
      </cc:Work>
    </rdf:RDF>
  </metadata>
  <g
     id="layer1"
     inkscape:label="Layer 1"
     inkscape:groupmode="layer"
     transform="translate(0,-26)">
    <g
       id="g3026"
       style="fill:#808080;fill-opacity:1">
      <path
         sodipodi:nodetypes="cccccccccc"
         inkscape:connector-curvature="0"
         id="rect4836"
         d="M 4,2 4,20 18,20 18,2 z M 5,3 17,3 17,19 5,19 z"
         style="fill:#808080;fill-opacity:1;stroke:none"
         transform="translate(0,26)" />
    </g>
    <path
       style="fill:#808080;fill-opacity:1;stroke:none"
       d="M 11 4 C 8.23 4 6 6.23 6 9 C 6 11.77 8.23 14 11 14 C 13.77 14 16 11.77 16 9 C 16 6.23 13.77 4 11 4 z M 11 8 C 11.554 8 12 8.446 12 9 C 12 9.554 11.554 10 11 10 C 10.446 10 10 9.554 10 9 C 10 8.446 10.446 8 11 8 z "
       id="rect3026"
       transform="translate(0,26)" />
    <path
       style="fill:#808080;fill-opacity:1;stroke:none"
       d="m 7,40 c 0,1.5 0,1.604715 0,2 0,1 0,1 1,1 1,0 2.5,0 3,0 l 0,1 -2,0 C 8,44 7,44 7,44 6.5,44 6,44 6,43 6,42.484612 6,42 6,40 z"
       id="rect3031"
       inkscape:connector-curvature="0"
       sodipodi:nodetypes="cssccccscc" />
    <path
       style="fill:#808080;fill-opacity:1;stroke:none"
       d="m 13,42 4,-3 0,6 -4,0 z"
       id="rect3033"
       inkscape:connector-curvature="0"
       sodipodi:nodetypes="ccccc" />
    <path
       style="fill:#808080;fill-opacity:1;stroke:none"
       d="m 12.875,36.40625 -3.15625,3.1875 C 9.5215311,39.790968 9.4018106,39.921669 9.28125,40.0625 9.187733,40.03373 9.1031961,40 9,40 c -0.554,0 -1,0.446 -1,1 0,0.554 0.446,1 1,1 0.554,0 1,-0.446 1,-1 0,-0.103196 -0.033734,-0.187733 -0.0625,-0.28125 0.140831,-0.12056 0.271531,-0.240281 0.46875,-0.4375 L 13.59375,37.125 12.875,36.40625 z"
       id="rect3040"
       inkscape:connector-curvature="0" />
  </g>
</svg>
