<?xml version="1.0" encoding="UTF-8" standalone="no"?>
<!-- Created with Inkscape (http://www.inkscape.org/) -->

<svg
   xmlns:dc="http://purl.org/dc/elements/1.1/"
   xmlns:cc="http://creativecommons.org/ns#"
   xmlns:rdf="http://www.w3.org/1999/02/22-rdf-syntax-ns#"
   xmlns:svg="http://www.w3.org/2000/svg"
   xmlns="http://www.w3.org/2000/svg"
   xmlns:sodipodi="http://sodipodi.sourceforge.net/DTD/sodipodi-0.dtd"
   xmlns:inkscape="http://www.inkscape.org/namespaces/inkscape"
   width="256"
   height="256"
   id="svg2"
   version="1.1"
   inkscape:version="0.91 r13725"
   sodipodi:docname="folder-steam.svg">
  <defs
     id="defs4" />
  <sodipodi:namedview
     id="base"
     pagecolor="#ffffff"
     bordercolor="#666666"
     borderopacity="1.0"
     inkscape:pageopacity="0.0"
     inkscape:pageshadow="2"
     inkscape:zoom="0.98994949"
     inkscape:cx="-109.30789"
     inkscape:cy="143.096"
     inkscape:document-units="px"
     inkscape:current-layer="layer1"
     showgrid="true"
     showguides="true"
     inkscape:guide-bbox="true"
     inkscape:window-width="1366"
     inkscape:window-height="698"
     inkscape:window-x="-4"
     inkscape:window-y="-5"
     inkscape:window-maximized="1"
     inkscape:snap-global="true">
    <inkscape:grid
       type="xygrid"
       id="grid2985"
       empspacing="5"
       visible="true"
       enabled="true"
       snapvisiblegridlinesonly="true" />
    <sodipodi:guide
       orientation="0,1"
       position="125,235"
       id="guide2987" />
    <sodipodi:guide
       orientation="1,0"
       position="15,0"
       id="guide2991" />
    <sodipodi:guide
       orientation="1,0"
       position="240,-5"
       id="guide2993" />
    <sodipodi:guide
       orientation="0,1"
       position="300,110"
       id="guide2997" />
    <sodipodi:guide
       orientation="0,1"
       position="135,150"
       id="guide3887" />
    <sodipodi:guide
       orientation="0,1"
       position="180,70"
       id="guide3889" />
    <sodipodi:guide
       orientation="1,0"
       position="130,120"
       id="guide3891" />
    <sodipodi:guide
       orientation="1,0"
       position="90,110"
       id="guide3787" />
    <sodipodi:guide
       orientation="0.70710678,0.70710678"
       position="398.0001,284.35794"
       id="guide3791" />
    <sodipodi:guide
       orientation="1,0"
       position="170,110"
       id="guide4457" />
    <sodipodi:guide
       orientation="-0.70710678,0.70710678"
       position="130,110"
       id="guide4558" />
  </sodipodi:namedview>
  <metadata
     id="metadata7">
    <rdf:RDF>
      <cc:Work
         rdf:about="">
        <dc:format>image/svg+xml</dc:format>
        <dc:type
           rdf:resource="http://purl.org/dc/dcmitype/StillImage" />
        <dc:title />
      </cc:Work>
    </rdf:RDF>
  </metadata>
  <g
     inkscape:label="Layer 1"
     inkscape:groupmode="layer"
     id="layer1"
     transform="translate(0,-796.36218)">
    <path
       style="fill:#1a1a1a;fill-opacity:1;stroke:none"
       d="m 20,837.36218 85,0 10,-10 120,0 0,135.21423 -215,-0.21423 z"
       id="rect3053"
       inkscape:connector-curvature="0"
       sodipodi:nodetypes="ccccccc" />
    <path
       style="fill:#f0544c;fill-opacity:1;stroke:none"
       d="m 15,847.36218 90,0 20,20 115,0 0.0508,170.00002 -225.05077,0 z"
       id="rect2999"
       inkscape:connector-curvature="0"
       sodipodi:nodetypes="ccccccc" />
    <path
       style="opacity:0.65966384;fill:#e6e6e6;fill-opacity:1;stroke:none"
       d="m 15,847.36218 90,0 0,2 -90,0 z"
       id="rect3940"
       inkscape:connector-curvature="0"
       sodipodi:nodetypes="ccccc" />
    <path
       sodipodi:nodetypes="ccccc"
       inkscape:connector-curvature="0"
       id="path3797"
       d="m 125,867.36218 115,0 0,2 -115,0 z"
       style="opacity:0.65966384;fill:#e6e6e6;fill-opacity:1;stroke:none" />
    <rect
       rx="0"
       style="fill:#333333;fill-opacity:1;stroke:none"
       id="rect3799"
       width="225"
       height="1.9998806"
       x="15"
       y="1035.3622"
       ry="0" />
    <path
       style="opacity:0.65966384;fill:#e6e6e6;fill-opacity:1;stroke:none"
       d="m 125,867.36218 -20,-20 0,2 20,20 z"
       id="path3803"
       inkscape:connector-curvature="0"
       sodipodi:nodetypes="ccccc" />
    <rect
       style="fill:#1a1a1a;fill-opacity:1;stroke:none"
       id="rect3781"
       width="10"
       height="10"
       x="100"
       y="1017.3622"
       ry="5"
       rx="5" />
    <rect
       rx="5"
       ry="4.9999986"
       y="1017.3622"
       x="150"
       height="9.9999971"
       width="10"
       id="rect3783"
       style="fill:#1a1a1a;fill-opacity:1;stroke:none" />
    <rect
       rx="5"
       ry="5"
       y="1017.3622"
       x="125"
       height="10"
       width="10"
       id="rect3785"
       style="fill:#1a1a1a;fill-opacity:1;stroke:none" />
    <g
       style="fill:#1a1a1a;fill-opacity:1"
       id="g3027"
       transform="translate(75,45.000003)">
      <g
         style="fill:#1a1a1a;fill-opacity:1"
         transform="translate(0,9.9999974)"
         id="g4009">
        <g
           style="fill:#1a1a1a;fill-opacity:1"
           id="g3865"
           transform="translate(10,0)" />
        <g
           style="fill:#1a1a1a;fill-opacity:1"
           transform="translate(40,0)"
           id="g3869" />
        <g
           style="fill:#1a1a1a;fill-opacity:1"
           id="g3875"
           transform="translate(70,0)" />
        <g
           style="fill:#1a1a1a;fill-opacity:1"
           transform="translate(70,-25.000003)"
           id="g3881" />
      </g>
    </g>
    <g
       style="fill:#1a1a1a;fill-opacity:1"
       transform="translate(75,25.000003)"
       id="g4724">
      <g
         style="fill:#1a1a1a;fill-opacity:1"
         id="g4726"
         transform="translate(0,9.9999974)">
        <g
           style="fill:#1a1a1a;fill-opacity:1"
           transform="translate(10,0)"
           id="g4728" />
        <g
           style="fill:#1a1a1a;fill-opacity:1"
           id="g4730"
           transform="translate(40,0)" />
        <g
           style="fill:#1a1a1a;fill-opacity:1"
           transform="translate(70,0)"
           id="g4732" />
        <g
           style="fill:#1a1a1a;fill-opacity:1"
           id="g4734"
           transform="translate(70,-25.000003)" />
      </g>
    </g>
    <g
       style="fill:#1a1a1a;fill-opacity:1"
       id="g4738"
       transform="translate(75,5.000003)">
      <g
         style="fill:#1a1a1a;fill-opacity:1"
         transform="translate(0,9.9999974)"
         id="g4740">
        <g
           style="fill:#1a1a1a;fill-opacity:1"
           id="g4742"
           transform="translate(10,0)" />
        <g
           style="fill:#1a1a1a;fill-opacity:1"
           transform="translate(40,0)"
           id="g4744" />
        <g
           style="fill:#1a1a1a;fill-opacity:1"
           id="g4746"
           transform="translate(70,0)" />
        <g
           style="fill:#1a1a1a;fill-opacity:1"
           transform="translate(70,-25.000003)"
           id="g4748" />
      </g>
    </g>
    <g
       style="fill:#1a1a1a;fill-opacity:1"
       transform="translate(75,-14.999997)"
       id="g4752">
      <g
         style="fill:#1a1a1a;fill-opacity:1"
         id="g4754"
         transform="translate(0,9.9999974)">
        <g
           style="fill:#1a1a1a;fill-opacity:1"
           transform="translate(10,0)"
           id="g4756" />
        <g
           style="fill:#1a1a1a;fill-opacity:1"
           id="g4758"
           transform="translate(40,0)" />
        <g
           style="fill:#1a1a1a;fill-opacity:1"
           transform="translate(70,0)"
           id="g4760" />
        <g
           style="fill:#1a1a1a;fill-opacity:1"
           id="g4762"
           transform="translate(70,-25.000003)" />
      </g>
    </g>
    <g
       transform="matrix(0.74995036,-0.62107731,0.62107731,0.74995036,-533.33797,290.60855)"
       id="g3035"
       style="fill:#1a1a1a;fill-opacity:1">
      <g
         transform="matrix(0.93969262,-0.34202015,0.34202015,0.93969262,-319.45052,95.965211)"
         id="g3079"
         style="fill:#1a1a1a;fill-opacity:1">
        <g
           id="g3044"
           style="fill:#1a1a1a;fill-opacity:1">
          <path
             id="rect3017"
             transform="translate(0,796.36218)"
             d="m 125,138 c -7.25565,0 -13.55761,3.8419 -17.0625,9.59375 L 95,151 c -2.245063,-3.30364 -6.031311,-5 -10.34375,-5 -6.925,0 -12.5,5.575 -12.5,12.5 0,6.925 5.575,12.5 12.5,12.5 4.312439,0 8.098687,-1.69636 10.34375,-5 l 13.6875,3.5625 C 112.30456,174.66535 118.24199,178 125,178 c 11.08,0 20,-8.92 20,-20 0,-11.08 -8.92,-20 -20,-20 z m 0,7 c 7.202,0 13,5.798 13,13 0,7.202 -5.798,13 -13,13 -7.202,0 -13,-5.798 -13,-13 0,-7.202 5.798,-13 13,-13 z m -40.34375,6 c 4.155,0 7.5,3.345 7.5,7.5 0,4.155 -3.345,7.5 -7.5,7.5 -4.155,0 -7.5,-3.345 -7.5,-7.5 0,-4.155 3.345,-7.5 7.5,-7.5 z"
             style="fill:#1a1a1a;fill-opacity:1;stroke:none"
             inkscape:connector-curvature="0"
             sodipodi:nodetypes="sccsssccsssssssssssss" />
          <rect
             ry="9"
             rx="9"
             transform="translate(0,796.36218)"
             y="149"
             x="116"
             height="18"
             width="18"
             id="rect3040"
             style="fill:#1a1a1a;fill-opacity:1;stroke:none" />
        </g>
        <g
           id="g3067"
           transform="matrix(0.70710678,-0.70710678,0.70710678,0.70710678,-645.87938,334.08435)"
           style="fill:#1a1a1a;fill-opacity:1">
          <path
             transform="translate(0,796.36218)"
             id="rect3042"
             d="m 77.5,125 c -3.047,0 -5.5,2.453 -5.5,5.5 0,0.16934 0.01642,0.33465 0.03125,0.5 L 72,131 l 0,28 0.03125,0 c 0.252084,2.80988 2.591093,5 5.46875,5 2.877657,0 5.216666,-2.19012 5.46875,-5 L 83,159 l 0,-28 -0.03125,0 C 82.983584,130.83465 83,130.66934 83,130.5 83,127.453 80.547,125 77.5,125 z"
             style="fill:#1a1a1a;fill-opacity:1;stroke:none"
             inkscape:connector-curvature="0" />
          <path
             id="rect3048"
             transform="translate(0,796.36218)"
             d="M 77.5,116 C 70.575,116 65,121.575 65,128.5 65,135.425 70.575,141 77.5,141 84.425,141 90,135.425 90,128.5 90,121.575 84.425,116 77.5,116 z m 0,5 c 4.155,0 7.5,3.345 7.5,7.5 0,4.155 -3.345,7.5 -7.5,7.5 -4.155,0 -7.5,-3.345 -7.5,-7.5 0,-4.155 3.345,-7.5 7.5,-7.5 z"
             style="fill:#1a1a1a;fill-opacity:1;stroke:none"
             inkscape:connector-curvature="0" />
        </g>
      </g>
    </g>
  </g>
</svg>
