/* XPM */
static char * shade_toggled_prelight_xpm[] = {
"24 24 4 1",
" 	c None",
".	c #E06055",
"+	c #FDFDFD",
"@	c #FFFFFF",
"........................",
"........................",
"........................",
"........................",
"........................",
"........................",
"........................",
"......++++++++++++......",
"......++++++++++++......",
"........................",
"........................",
".......++......++.......",
".......+++....+++.......",
"........+@+..+@+........",
".........+@++@+.........",
"..........+@@+..........",
"...........++...........",
"........................",
"........................",
"........................",
"........................",
"........................",
"........................",
"........................"};
