/* XPM */
static char * close_prelight_xpm[] = {
"24 24 3 1",
" 	c None",
".	c #eb5889",
"+	c #FDFDFD",
"........................",
"........................",
"........................",
"........................",
"........................",
"........................",
"........................",
".......++......++.......",
".......+++....+++.......",
"........+++..+++........",
".........++++++.........",
"..........++++..........",
"..........++++..........",
".........++++++.........",
"........+++..+++........",
".......+++....+++.......",
".......++......++.......",
"........................",
"........................",
"........................",
"........................",
"........................",
"........................",
"........................"};
