<?xml version="1.0" encoding="UTF-8" standalone="no"?>
<svg
   xmlns:dc="http://purl.org/dc/elements/1.1/"
   xmlns:cc="http://creativecommons.org/ns#"
   xmlns:rdf="http://www.w3.org/1999/02/22-rdf-syntax-ns#"
   xmlns:svg="http://www.w3.org/2000/svg"
   xmlns="http://www.w3.org/2000/svg"
   xmlns:sodipodi="http://sodipodi.sourceforge.net/DTD/sodipodi-0.dtd"
   xmlns:inkscape="http://www.inkscape.org/namespaces/inkscape"
   width="48"
   version="1.1"
   height="48"
   id="svg5246"
   inkscape:version="0.91 r13725"
   sodipodi:docname="contact-new.svg">
  <metadata
     id="metadata5257">
    <rdf:RDF>
      <cc:Work
         rdf:about="">
        <dc:format>image/svg+xml</dc:format>
        <dc:type
           rdf:resource="http://purl.org/dc/dcmitype/StillImage" />
      </cc:Work>
    </rdf:RDF>
  </metadata>
  <defs
     id="defs5255" />
  <sodipodi:namedview
     pagecolor="#ffffff"
     bordercolor="#666666"
     borderopacity="1"
     objecttolerance="10"
     gridtolerance="10"
     guidetolerance="10"
     inkscape:pageopacity="0"
     inkscape:pageshadow="2"
     inkscape:window-width="640"
     inkscape:window-height="480"
     id="namedview5253"
     showgrid="false"
     inkscape:zoom="13.25"
     inkscape:cx="10.566038"
     inkscape:cy="24"
     inkscape:current-layer="svg5246" />
  <path
     style="fill:#f0544c;fill-opacity:1"
     id="rect4090"
     d="m 4.6681,12.0102 0,35.9898 38.8357,0 .1643,-35.9916 -12.7288,.0019 z " />
  <path
     style="fill:#ecf0f1;fill-rule:evenodd"
     id="path3286"
     d="m 24.533,23.3617 c -2.74482,0.000154 -5.23931,2.36277 -5.23931,4.95917 0,1.14912 0.489353,2.25189 1.27209,3.12491 v 0.659818 c -1.10612,0.461999 -2.12833,1.10493 -2.98312,1.91421 -1.81825,1.72136 -2.87563,4.14131 -2.87563,6.5755 v 1.36329 h 0.121578 1.76095 0.88943 3.78038 1.3105 3.93146 1.31048 3.78032 0.889452 1.76097 0.121647 v -1.36329 c 0,-2.43437 -1.06022,-4.85414 -2.88081,-6.5755 -0.854272,-0.807722 -1.87474,-1.45 -2.97927,-1.91175 v -0.663493 c 0.783112,-0.872767 1.27336,-1.97502 1.27336,-3.12369 0,-2.5967 -2.49954,-4.95932 -5.24447,-4.95917 z " />
  <circle
     cx="-29.623333"
     cy="-22.741995"
     style="opacity:.3"
     r="13"
     id="circle4220"
     transform="matrix(-0.96592582,0.25881907,-0.25881907,-0.96592582,0,0)" />
  <circle
     cx="-30.442757"
     cy="-21.615704"
     style="fill:#37c871"
     id="circle3581_2_-5"
     r="13"
     transform="matrix(-0.96592582,0.25881907,-0.25881907,-0.96592582,0,0)" />
  <path
     style="fill:#fff;fill-rule:evenodd;stroke:none"
     id="rect3232-5"
     d="m 32.9683,4.8733 0,6.095 -6.095,0 0,4.0633 6.095,0 0,6.095 4.0633,0 0,-6.095 6.095,0 0,-4.0633 -6.095,0 0,-6.095 -4.0633,0 z " />
</svg>
