<svg width="48" version="1.0" xmlns="http://www.w3.org/2000/svg" height="48">
<g style="opacity:.6;fill:#fff" id="g4141" transform="translate(1.4997585,1.4996307)">
<g id="g4143" transform="matrix(0,1,1,0,-59.94765,-1.061)">
<g style="stroke-opacity:0;stroke:#969696;stroke-width:2.001" id="g4145" transform="matrix(-0.99946527,0,0,0.99946527,50.1086,2.2849152)">
<path id="path4147" d="m 42.5361,63.7991 c -7.47505,3.14855 -10.4785,5.14855 -17.4768,5.14855 -6.9983,0 -9.13364,-3.18891 -16.6115,-6.33745 -3.31645,-1.39638 -6.01807,3.08579 -4.15361,5.45178 l 18.2766,23.1929 c 1.19726,1.4746 3.77986,1.4746 4.97712,0 l 18.2766,-23.1929 c 1.87241,-2.37607 0.02691,-5.65933 -3.28845,-4.26288 z "/>
<path id="path4149" d="m 5.0613,93.1777 c 0,-1.39724 1.13404,-2.54063 2.53125,-2.53125 h 14.9057 12.125 9.20647 c 1.39724,0 2.53125,1.13401 2.53125,2.53125 v 4.23888 c 0,1.39724 -1.13401,2.53125 -2.53125,2.53125 h -36.2371 c -1.39724,0 -2.53125,-1.13401 -2.53125,-2.53125 z "/>
</g>
</g>
</g>
<g id="layer2">
<g id="g3937" transform="matrix(0,1,1,0,-59.94765,-1.061)">
<g style="stroke-opacity:0;fill:#919191;stroke:#969696;stroke-width:2.001" id="g3064" transform="matrix(-0.99946527,0,0,0.99946527,50.1086,2.2849152)">
<path id="path3939" d="m 42.5361,63.7991 c -7.47505,3.14855 -10.4785,5.14855 -17.4768,5.14855 -6.9983,0 -9.9983,-2 -17.4762,-5.14855 -3.31645,-1.39638 -5.15341,1.89689 -3.28895,4.26288 l 18.2766,23.1929 c 1.19726,1.4746 3.77986,1.4746 4.97712,0 l 18.2766,-23.1929 c 1.87241,-2.37607 0.02691,-5.65933 -3.28845,-4.26288 z "/>
<path id="path3328" d="m 5.0613,94.4789 c 0,-1.39724 1.13401,-2.53125 2.53125,-2.53125 h 14.9057 12.125 7.90625 c 1.39724,0 2.53125,1.13401 2.53125,2.53125 v 2.93773 c 0,1.39724 -1.13401,2.53125 -2.53125,2.53125 h -34.9369 c -1.39724,0 -2.53125,-1.13401 -2.53125,-2.53125 z "/>
</g>
</g>
</g>
</svg>
