<?xml version="1.0" encoding="UTF-8" standalone="no"?>
<svg
   xmlns:dc="http://purl.org/dc/elements/1.1/"
   xmlns:cc="http://creativecommons.org/ns#"
   xmlns:rdf="http://www.w3.org/1999/02/22-rdf-syntax-ns#"
   xmlns:svg="http://www.w3.org/2000/svg"
   xmlns="http://www.w3.org/2000/svg"
   xmlns:sodipodi="http://sodipodi.sourceforge.net/DTD/sodipodi-0.dtd"
   xmlns:inkscape="http://www.inkscape.org/namespaces/inkscape"
   width="48"
   version="1.0"
   height="48"
   id="svg10223"
   inkscape:version="0.91 r13725"
   sodipodi:docname="mail-forward.svg">
  <metadata
     id="metadata10242">
    <rdf:RDF>
      <cc:Work
         rdf:about="">
        <dc:format>image/svg+xml</dc:format>
        <dc:type
           rdf:resource="http://purl.org/dc/dcmitype/StillImage" />
      </cc:Work>
    </rdf:RDF>
  </metadata>
  <defs
     id="defs10240" />
  <sodipodi:namedview
     pagecolor="#ffffff"
     bordercolor="#666666"
     borderopacity="1"
     objecttolerance="10"
     gridtolerance="10"
     guidetolerance="10"
     inkscape:pageopacity="0"
     inkscape:pageshadow="2"
     inkscape:window-width="640"
     inkscape:window-height="480"
     id="namedview10238"
     showgrid="false"
     inkscape:zoom="9.3691649"
     inkscape:cx="19.506798"
     inkscape:cy="21.905486"
     inkscape:current-layer="svg10223" />
  <g
     id="g23633">
    <g
       id="g9"
       style="fill-rule:evenodd;stroke:none">
      <g
         style="stroke-linecap:round;stroke-linejoin:round;stroke-miterlimit:0"
         id="g11">
        <path
           style="opacity:0.05"
           id="path4169"
           d="m 1,5.2593 46,0 0,37.4815 -46,0 z"
           inkscape:connector-curvature="0" />
        <path
           style="opacity:0.15"
           id="path4167"
           d="m 1.327,5.586 45.132,0 10e-5,36.4733 -45.132,0 z"
           inkscape:connector-curvature="0" />
        <path
           style="opacity:0.25"
           id="path4165"
           d="m 1.6815,5.9407 44.1965,0 0,35.4233 -44.1965,0 z"
           inkscape:connector-curvature="0" />
        <path
           style="fill:#5c656c"
           id="rect4162"
           d="m 2.1358,6.3951 43.1605,0 0,34.0741 -43.1605,0 z"
           inkscape:connector-curvature="0" />
      </g>
      <path
         style="fill:#f3f6f7"
         id="path4127"
         d="m 2.1358,6.3951 0,34.0741 L 17.2806,23.4335 2.1358,6.3951 Z"
         inkscape:connector-curvature="0" />
      <path
         style="fill:#f5fbfe"
         id="path4125"
         d="M 2.1358,6.3951 23.716,26.4988 45.2962,6.3951 Z"
         inkscape:connector-curvature="0" />
      <path
         style="fill:#e7ecef"
         id="path4123"
         d="M 45.2963,6.3951 28.7511,21.8082 45.2963,40.4692 Z"
         inkscape:connector-curvature="0" />
      <path
         style="fill:#dbe4e7"
         id="rect3260-9"
         d="m 19.6785,26.123 -17.2899,14.3461 42.6546,0 L 27.7533,26.123 23.716,29.9475 Z"
         inkscape:connector-curvature="0" />
    </g>
    <path
       style="fill:#f0544c;fill-rule:evenodd;stroke:none;fill-opacity:1"
       id="path3006"
       d="m 32.8217,0.0012 c -1.24806,-0.034225 -2.4294,0.683615 -2.91648,1.83322 -0.487075,1.14961 -0.226138,2.50195 0.666623,3.37478 l 3.9164,3.9164 -18.0571,0 c -1.09405,-0.01548 -2.11495,0.554911 -2.66649,1.4999 -0.551538,0.944978 -0.551538,2.0965 0,3.04147 0.55154,0.944979 1.57245,1.5569 2.6665,1.54157 l 18.0571,0 -3.9164,3.9164 c -0.792491,0.760897 -1.06877,1.89504 -0.791615,2.95814 0.27715,1.0631 1.10342,1.84771 2.16653,2.12486 1.0631,0.277155 2.15558,8.92e-4 2.91648,-0.791616 l 8.9994,-8.9994 c 0.03777,-0.034 0.08892,-0.08899 0.124991,-0.124992 0.06865,-0.06646 0.105354,-0.136725 0.166657,-0.208321 0.0991,-0.115685 0.170523,-0.247782 0.249983,-0.374975 0.507353,-0.811667 0.661442,-1.83573 0.291649,-2.74983 -0.224109,-0.553989 -0.615197,-1.00429 -1.08326,-1.33324 l -0.04166,0 -8.7078,-8.7078 c -0.55042,-0.563339 -1.25423,-0.894728 -2.04153,-0.916608 z"
       inkscape:connector-curvature="0" />
  </g>
</svg>
