<?xml version="1.0" encoding="UTF-8" standalone="no"?>
<svg
   xmlns:dc="http://purl.org/dc/elements/1.1/"
   xmlns:cc="http://creativecommons.org/ns#"
   xmlns:rdf="http://www.w3.org/1999/02/22-rdf-syntax-ns#"
   xmlns:svg="http://www.w3.org/2000/svg"
   xmlns="http://www.w3.org/2000/svg"
   xmlns:sodipodi="http://sodipodi.sourceforge.net/DTD/sodipodi-0.dtd"
   xmlns:inkscape="http://www.inkscape.org/namespaces/inkscape"
   width="48"
   version="1.0"
   height="48"
   id="svg15832"
   inkscape:version="0.91 r13725"
   sodipodi:docname="mail-send-receive.svg">
  <metadata
     id="metadata15851">
    <rdf:RDF>
      <cc:Work
         rdf:about="">
        <dc:format>image/svg+xml</dc:format>
        <dc:type
           rdf:resource="http://purl.org/dc/dcmitype/StillImage" />
      </cc:Work>
    </rdf:RDF>
  </metadata>
  <defs
     id="defs15849" />
  <sodipodi:namedview
     pagecolor="#ffffff"
     bordercolor="#666666"
     borderopacity="1"
     objecttolerance="10"
     gridtolerance="10"
     guidetolerance="10"
     inkscape:pageopacity="0"
     inkscape:pageshadow="2"
     inkscape:window-width="640"
     inkscape:window-height="480"
     id="namedview15847"
     showgrid="false"
     inkscape:zoom="6.625"
     inkscape:cx="20.288268"
     inkscape:cy="23.102017"
     inkscape:current-layer="svg15832" />
  <g
     id="g23877">
    <g
       id="g9"
       style="fill-rule:evenodd;stroke:none">
      <g
         style="stroke-linecap:round;stroke-linejoin:round;stroke-miterlimit:0"
         id="g11">
        <path
           style="opacity:0.05"
           id="path4169"
           d="m 1,5.2593 46,0 0,37.4815 -46,0 z"
           inkscape:connector-curvature="0" />
        <path
           style="opacity:0.15"
           id="path4167"
           d="m 1.327,5.586 45.132,0 10e-5,36.4733 -45.132,0 z"
           inkscape:connector-curvature="0" />
        <path
           style="opacity:0.25"
           id="path4165"
           d="m 1.6815,5.9407 44.1965,0 0,35.4233 -44.1965,0 z"
           inkscape:connector-curvature="0" />
        <path
           style="fill:#5c656c"
           id="rect4162"
           d="m 2.1358,6.3951 43.1605,0 0,34.0741 -43.1605,0 z"
           inkscape:connector-curvature="0" />
      </g>
      <path
         style="fill:#f3f6f7"
         id="path4127"
         d="m 2.1358,6.3951 0,34.0741 16.8456,-18.3811 z"
         inkscape:connector-curvature="0" />
      <path
         style="fill:#f5fbfe"
         id="path4125"
         d="M 2.1358,6.3951 23.716,26.4988 45.2962,6.3951 Z"
         inkscape:connector-curvature="0" />
      <path
         style="fill:#e7ecef"
         id="path4123"
         d="M 45.2963,6.3951 28.7995,21.7631 45.2963,40.4692 Z"
         inkscape:connector-curvature="0" />
      <path
         style="fill:#dbe4e7"
         id="rect3260-9"
         d="m 19.6785,26.123 -17.2899,14.3461 42.6546,0 L 27.7533,26.123 23.716,29.9475 Z"
         inkscape:connector-curvature="0" />
    </g>
    <path
       style="fill:#f0544c;fill-rule:evenodd;stroke:none;fill-opacity:1"
       id="path3006"
       d="m 34.1602,0 c -0.504432,0 -1.01011,0.133029 -1.46484,0.398438 -0.909473,0.530817 -1.49717,1.51347 -1.48242,2.56641 l 0,12.9512 -3.7695,-3.7695 -2.7773,-2.4863 -8.3809,-8.3809 0,-0.041016 c -0.316589,-0.450478 -0.750028,-0.825327 -1.2832,-1.04102 -0.87975,-0.3559 -1.86531,-0.208994 -2.64648,0.279297 -0.122414,0.076475 -0.248036,0.144854 -0.359375,0.240234 -0.06891,0.058998 -0.137212,0.0960394 -0.201172,0.162109 -0.03464,0.034715 -0.08837,0.0827906 -0.121094,0.119141 l -8.6602,8.6621 c -0.762732,0.73231 -1.02846,1.78348 -0.761719,2.80664 0.26674,1.02317 1.02176,1.81725 2.04492,2.08398 1.02316,0.266737 2.1134,9.97e-4 2.8457,-0.761719 l 3.7695,-3.7695 0,12.9531 c -0.01475,1.05294 0.574901,2.03559 1.48438,2.56641 0.90947,0.530817 2.01826,0.530817 2.92774,0 0.909488,-0.53082 1.45826,-1.51347 1.44336,-2.56641 l 0,-12.9531 3.7695,3.7695 2.7754,2.4883 8.6621,8.6602 c 0.03272,0.03635 0.0845,0.08638 0.119141,0.121094 0.06396,0.06607 0.132266,0.101158 0.201172,0.160156 0.111339,0.09538 0.238914,0.163759 0.361328,0.240234 0.781171,0.488291 1.76673,0.63715 2.64648,0.28125 0.533175,-0.215688 0.966614,-0.59249 1.2832,-1.04297 l 0,-0.03906 8.3809,-8.3809 c 0.542172,-0.52974 0.859803,-1.20712 0.880859,-1.96484 0.03294,-1.20117 -0.657261,-2.33786 -1.76367,-2.80664 -1.10642,-0.468774 -2.40802,-0.218594 -3.24805,0.640625 l -3.7695,3.7695 0,-12.9512 C 37.08136,1.911903 36.532589,0.929253 35.6231,0.398433 35.168363,0.133025 34.664641,-5e-6 34.16021,-5e-6 Z"
       inkscape:connector-curvature="0" />
  </g>
</svg>
