<?xml version="1.0" encoding="UTF-8" standalone="no"?>
<svg
   xmlns:dc="http://purl.org/dc/elements/1.1/"
   xmlns:cc="http://creativecommons.org/ns#"
   xmlns:rdf="http://www.w3.org/1999/02/22-rdf-syntax-ns#"
   xmlns:svg="http://www.w3.org/2000/svg"
   xmlns="http://www.w3.org/2000/svg"
   xmlns:sodipodi="http://sodipodi.sourceforge.net/DTD/sodipodi-0.dtd"
   xmlns:inkscape="http://www.inkscape.org/namespaces/inkscape"
   width="48"
   version="1.0"
   height="48"
   id="svg14149"
   inkscape:version="0.91 r13725"
   sodipodi:docname="mail-reply-list.svg">
  <metadata
     id="metadata14168">
    <rdf:RDF>
      <cc:Work
         rdf:about="">
        <dc:format>image/svg+xml</dc:format>
        <dc:type
           rdf:resource="http://purl.org/dc/dcmitype/StillImage" />
      </cc:Work>
    </rdf:RDF>
  </metadata>
  <defs
     id="defs14166" />
  <sodipodi:namedview
     pagecolor="#ffffff"
     bordercolor="#666666"
     borderopacity="1"
     objecttolerance="10"
     gridtolerance="10"
     guidetolerance="10"
     inkscape:pageopacity="0"
     inkscape:pageshadow="2"
     inkscape:window-width="640"
     inkscape:window-height="480"
     id="namedview14164"
     showgrid="false"
     inkscape:zoom="6.625"
     inkscape:cx="17.277524"
     inkscape:cy="22.882267"
     inkscape:current-layer="svg14149" />
  <g
     id="g23805">
    <g
       id="g9"
       style="fill-rule:evenodd;stroke:none">
      <g
         style="stroke-linecap:round;stroke-linejoin:round;stroke-miterlimit:0"
         id="g11">
        <path
           style="opacity:0.05"
           id="path4169"
           d="m 1,5.2593 46,0 0,37.4815 -46,0 z"
           inkscape:connector-curvature="0" />
        <path
           style="opacity:0.15"
           id="path4167"
           d="m 1.327,5.586 45.132,0 10e-5,36.4733 -45.132,0 z"
           inkscape:connector-curvature="0" />
        <path
           style="opacity:0.25"
           id="path4165"
           d="m 1.6815,5.9407 44.1965,0 0,35.4233 -44.1965,0 z"
           inkscape:connector-curvature="0" />
        <path
           style="fill:#5c656c"
           id="rect4162"
           d="m 2.1358,6.3951 43.1605,0 0,34.0741 -43.1605,0 z"
           inkscape:connector-curvature="0" />
      </g>
      <path
         style="fill:#f3f6f7"
         id="path4127"
         d="m 2.1358,6.3951 0,34.0741 16.5514,-18.6552 z"
         inkscape:connector-curvature="0" />
      <path
         style="fill:#f5fbfe"
         id="path4125"
         d="M 2.1358,6.3951 23.716,26.4988 45.2962,6.3951 Z"
         inkscape:connector-curvature="0" />
      <path
         style="fill:#e7ecef"
         id="path4123"
         d="M 45.2963,6.3951 28.7127,21.844 45.2963,40.4692 Z"
         inkscape:connector-curvature="0" />
      <path
         style="fill:#dbe4e7"
         id="rect3260-9"
         d="m 19.6785,26.123 -17.2899,14.3461 42.6546,0 L 27.7533,26.123 23.716,29.9475 Z"
         inkscape:connector-curvature="0" />
    </g>
    <path
       style="fill:#f0544c;fill-rule:evenodd;stroke:none;fill-opacity:1"
       id="path3006-4"
       d="m 13.8906,0.002 c -0.728433,0.0202429 -1.37942,0.326446 -1.88867,0.847656 l -8.0566,8.0566 -0.039063,0 c -0.43307,0.304357 -0.794601,0.719854 -1.00195,1.23242 -0.342145,0.845745 -0.199882,1.79395 0.269531,2.54492 0.07352,0.117682 0.140726,0.240621 0.232422,0.347656 0.056717,0.06625 0.090784,0.129913 0.154297,0.191406 0.03337,0.03331 0.080282,0.08573 0.115234,0.117188 l 8.326201,8.3262 c 0.703994,0.733253 1.7156,0.988852 2.69922,0.732422 0.983624,-0.256438 1.74748,-0.983181 2.003909,-1.9668 0.256427,-0.983625 8.13e-4,-2.03232 -0.732421,-2.73633 l -3.623001,-3.623 5.66016,0 7.593801,7.5937 c 0.703995,0.733253 1.715599,0.988852 2.69922,0.732422 0.983625,-0.256439 1.74748,-0.98318 2.00391,-1.9668 0.256427,-0.983624 8.15e-4,-2.03232 -0.732422,-2.73633 l -3.623,-3.623 5.66016,0 7.5938,7.5937 c 0.704009,0.733253 1.7156,0.988852 2.69922,0.732422 0.983623,-0.256439 1.74748,-0.98318 2.003909,-1.9668 0.256428,-0.983624 8.16e-4,-2.03232 -0.732422,-2.73633 l -3.622999,-3.623 c -1.84364,-1.84365 -1.82407,-3.80484 0,-5.62891 l 3.622999,-3.623 c 0.826009,-0.807558 1.067839,-2.05939 0.617188,-3.12305 -0.450657,-1.06364 -1.542521,-1.72698 -2.697271,-1.69531 -0.728423,0.0202429 -1.37941,0.326441 -1.88867,0.847656 l -7.5957,7.5938 -5.66016,0 3.623,-3.623 c 0.82601,-0.807558 1.06784,-2.05939 0.617188,-3.12305 -0.450656,-1.06364 -1.544471,-1.72698 -2.699221,-1.69531 -0.728425,0.0202429 -1.37941,0.326441 -1.88867,0.847656 l -7.5938,7.5938 -5.66016,0 3.623,-3.623 c 0.826008,-0.807558 1.06784,-2.05939 0.617188,-3.12305 -0.450656,-1.06364 -1.54447,-1.72698 -2.69922,-1.69531 z"
       inkscape:connector-curvature="0" />
  </g>
</svg>
