<?xml version="1.0" encoding="UTF-8" standalone="no"?>
<svg
   xmlns:dc="http://purl.org/dc/elements/1.1/"
   xmlns:cc="http://creativecommons.org/ns#"
   xmlns:rdf="http://www.w3.org/1999/02/22-rdf-syntax-ns#"
   xmlns:svg="http://www.w3.org/2000/svg"
   xmlns="http://www.w3.org/2000/svg"
   xmlns:sodipodi="http://sodipodi.sourceforge.net/DTD/sodipodi-0.dtd"
   xmlns:inkscape="http://www.inkscape.org/namespaces/inkscape"
   width="48"
   version="1.0"
   height="48"
   id="svg13028"
   inkscape:version="0.91 r13725"
   sodipodi:docname="mail-replied.svg">
  <metadata
     id="metadata13046">
    <rdf:RDF>
      <cc:Work
         rdf:about="">
        <dc:format>image/svg+xml</dc:format>
        <dc:type
           rdf:resource="http://purl.org/dc/dcmitype/StillImage" />
      </cc:Work>
    </rdf:RDF>
  </metadata>
  <defs
     id="defs13044" />
  <sodipodi:namedview
     pagecolor="#ffffff"
     bordercolor="#666666"
     borderopacity="1"
     objecttolerance="10"
     gridtolerance="10"
     guidetolerance="10"
     inkscape:pageopacity="0"
     inkscape:pageshadow="2"
     inkscape:window-width="640"
     inkscape:window-height="480"
     id="namedview13042"
     showgrid="false"
     inkscape:zoom="6.625"
     inkscape:cx="19.149528"
     inkscape:cy="20.43369"
     inkscape:current-layer="svg13028" />
  <g
     id="g23759">
    <g
       id="g13032"
       style="fill-rule:evenodd;stroke:none">
      <g
         style="stroke-linecap:round;stroke-linejoin:round;stroke-miterlimit:0"
         id="g36">
        <path
           style="opacity:0.05"
           id="path4169"
           d="m 1,5.2593 46,0 0,37.4815 -46,0 z"
           inkscape:connector-curvature="0" />
        <path
           style="opacity:0.15"
           id="path4167"
           d="m 1.327,5.586 45.132,0 10e-5,36.4733 -45.132,0 z"
           inkscape:connector-curvature="0" />
        <path
           style="opacity:0.25"
           id="path4165"
           d="m 1.6815,5.9407 44.1965,0 0,35.4233 -44.1965,0 z"
           inkscape:connector-curvature="0" />
        <path
           style="fill:#5c656c"
           id="rect4162"
           d="m 2.1358,6.3951 43.1605,0 0,34.0741 -43.1605,0 z"
           inkscape:connector-curvature="0" />
      </g>
      <path
         style="fill:#f3f6f7"
         id="path4127"
         d="m 2.1367,6.3945 0,34.0742 43.1602,0 0,-34.0742 -21.5801,23.5527 z"
         inkscape:connector-curvature="0" />
      <path
         style="fill:#f5fbfe"
         id="path4125"
         d="M 2.1358,6.3951 23.716,12.799 45.2962,6.3951 Z"
         inkscape:connector-curvature="0" />
    </g>
    <path
       style="fill:#f0544c;fill-rule:evenodd;stroke:none;fill-opacity:1"
       id="path3006"
       d="m 13.9603,22.9908 c 1.14546,-0.03521 2.22968,0.703232 2.67672,1.88582 0.447033,1.1826 0.207546,2.57376 -0.611822,3.47163 l -3.5944,4.0288 23.9506,0 c 1.00411,-0.01592 1.94109,0.570835 2.44728,1.54295 0.506198,0.972096 0.506198,2.15666 0,3.12875 -0.506198,0.972094 -1.44319,1.60157 -2.44728,1.5858 l -23.9506,0 3.5944,4.0288 c 0.727341,0.782731 0.980907,1.94942 0.726538,3.04303 -0.254366,1.09361 -1.0127,1.90073 -1.98842,2.18583 -0.975713,0.285112 -1.97837,9.2e-4 -2.67672,-0.814331 l -8.2595,-9.2577 C 3.792429,37.785199 3.745481,37.728629 3.712379,37.691598 3.649373,37.623248 3.615686,37.550949 3.559424,37.477298 3.468467,37.358288 3.40292,37.222406 3.329991,37.091562 2.864346,36.256604 2.722924,35.203152 3.062319,34.262822 c 0.205683,-0.569887 0.564622,-1.03312 0.994213,-1.37151 l 0.03824,0 7.9919,-8.9577 c 0.505172,-0.579504 1.15113,-0.920404 1.8737,-0.94291 z"
       inkscape:connector-curvature="0" />
  </g>
</svg>
