<?xml version="1.0" encoding="UTF-8" standalone="no"?>
<svg
   xmlns:dc="http://purl.org/dc/elements/1.1/"
   xmlns:cc="http://creativecommons.org/ns#"
   xmlns:rdf="http://www.w3.org/1999/02/22-rdf-syntax-ns#"
   xmlns:svg="http://www.w3.org/2000/svg"
   xmlns="http://www.w3.org/2000/svg"
   xmlns:sodipodi="http://sodipodi.sourceforge.net/DTD/sodipodi-0.dtd"
   xmlns:inkscape="http://www.inkscape.org/namespaces/inkscape"
   version="1.0"
   width="48"
   height="48"
   id="svg16393"
   inkscape:version="0.91 r13725"
   sodipodi:docname="system-lock-screen.svg">
  <metadata
     id="metadata16401">
    <rdf:RDF>
      <cc:Work
         rdf:about="">
        <dc:format>image/svg+xml</dc:format>
        <dc:type
           rdf:resource="http://purl.org/dc/dcmitype/StillImage" />
      </cc:Work>
    </rdf:RDF>
  </metadata>
  <sodipodi:namedview
     pagecolor="#ffffff"
     bordercolor="#666666"
     borderopacity="1"
     objecttolerance="10"
     gridtolerance="10"
     guidetolerance="10"
     inkscape:pageopacity="0"
     inkscape:pageshadow="2"
     inkscape:window-width="640"
     inkscape:window-height="480"
     id="namedview16399"
     showgrid="false"
     inkscape:zoom="6.625"
     inkscape:cx="14.382401"
     inkscape:cy="27.538218"
     inkscape:current-layer="svg16393" />
  <defs
     id="defs4" />
  <g
     id="g23892">
    <path
       style="fill:#f0544c;fill-rule:evenodd;stroke:none;fill-opacity:1"
       id="path3005"
       d="m 7,2.5038 c -2.5274,0.255139 -4.5,2.40313 -4.5,5 l 0,33 c 0,2.77 2.23,5 5,5 l 33,0 c 2.77,0 5,-2.23 5,-5 l 0,-33 c 0,-2.77 -2.23,-5 -5,-5 l -33,0 c -0.173125,0 -0.331506,-0.01701 -0.5,0 z"
       inkscape:connector-curvature="0" />
    <path
       style="fill:#ffffff;fill-rule:evenodd;stroke:none"
       id="path3003"
       d="m 24,8.3438 c -4.10762,0 -8.19765,1.57265 -11.3125,4.6875 C 9.47531,16.24349 7.89962,20.51506 8,24.7501 l 0,11.25 c 0,1.6254 1.3121,2.90625 2.9375,2.90625 l 26.125,0 C 38.6879,38.90635 40,37.6255 40,36.0001 l 0,-11.25 C 40.100381,20.5151 38.52469,16.24354 35.3125,13.0313 32.19765,9.91645 28.10762,8.3438 24,8.3438 Z m 0,6.25 c 2.5431,0 5.07785,0.984109 7.03125,2.9375 1.93016,1.93016 2.91454,4.42756 2.9375,6.9375 l -19.9375,0 c 0.02296,-2.50994 1.00735,-5.00734 2.9375,-6.9375 C 18.92215,15.5779 21.4569,14.5938 24,14.5938 Z"
       inkscape:connector-curvature="0" />
  </g>
</svg>
