<?xml version="1.0" encoding="UTF-8" standalone="no"?>
<svg
   xmlns:dc="http://purl.org/dc/elements/1.1/"
   xmlns:cc="http://creativecommons.org/ns#"
   xmlns:rdf="http://www.w3.org/1999/02/22-rdf-syntax-ns#"
   xmlns:svg="http://www.w3.org/2000/svg"
   xmlns="http://www.w3.org/2000/svg"
   xmlns:sodipodi="http://sodipodi.sourceforge.net/DTD/sodipodi-0.dtd"
   xmlns:inkscape="http://www.inkscape.org/namespaces/inkscape"
   style="enable-background:new"
   version="1.0"
   width="128"
   height="128"
   id="svg17493"
   inkscape:version="0.91 r13725"
   sodipodi:docname="tools-check-spelling.svg">
  <metadata
     id="metadata17509">
    <rdf:RDF>
      <cc:Work
         rdf:about="">
        <dc:format>image/svg+xml</dc:format>
        <dc:type
           rdf:resource="http://purl.org/dc/dcmitype/StillImage" />
      </cc:Work>
    </rdf:RDF>
  </metadata>
  <sodipodi:namedview
     pagecolor="#ffffff"
     bordercolor="#666666"
     borderopacity="1"
     objecttolerance="10"
     gridtolerance="10"
     guidetolerance="10"
     inkscape:pageopacity="0"
     inkscape:pageshadow="2"
     inkscape:window-width="640"
     inkscape:window-height="480"
     id="namedview17507"
     showgrid="false"
     inkscape:zoom="1.7567184"
     inkscape:cx="11.186162"
     inkscape:cy="42.637568"
     inkscape:current-layer="svg17493" />
  <defs
     id="defs4" />
  <g
     id="g23921">
    <g
       transform="matrix(1.0432644,0,0,1.0432644,-1.8931093,-5.2733753)"
       id="text4162"
       style="font-weight:bold;font-size:48px;line-height:125%;font-family:'Arial Black';text-align:start;letter-spacing:0;word-spacing:0;opacity:0.6;fill:#ffffff;stroke:none">
      <path
         inkscape:connector-curvature="0"
         d="m 32.6562,36.9278 -12.0938,0 -1.6641,5.6719 -10.8516,0 -0.0469,-2.5996 12.9609,-31.7598 11.5781,0 12.9149,31.7736 -8e-4,2.5858 -11.1094,0 z M 28.7421,23.8262 24.9452,11.4746 21.1718,23.8262 Z"
         id="path4167" />
      <path
         inkscape:connector-curvature="0"
         d="m 48.8515,8.2402 19.875,0 q 4.96875,0 7.61719,2.46094 2.67188,2.46094 2.67188,6.09375 0,3.04688 -1.89844,5.22656 -1.26562,1.45312 -3.70312,2.29688 3.70312,0.890625 5.4375,3.07031 1.75781,2.15625 1.75781,5.4375 0,2.67188 -1.24219,4.80469 -1.24219,2.13281 -3.39844,3.375 -1.33594,0.773437 -4.03125,1.125 -3.58594,0.46875 -4.75781,0.46875 l -18.3281,0 0,-34.3594 z m 10.7109,13.4766 4.6172,0 q 2.48438,0 3.44531,-0.84375 0.984375,-0.867187 0.984375,-2.48438 0,-1.5 -0.984375,-2.34375 -0.960937,-0.84375 -3.375,-0.84375 l -4.6875,0 0,6.51562 z m 0,13.5 5.4141,0 q 2.74219,0 3.86719,-0.960937 1.125,-0.984375 1.125,-2.625 0,-1.52344 -1.125,-2.4375 -1.10156,-0.9375 -3.89062,-0.9375 l -5.39062,0 0,6.96094 z"
         id="path4169" />
      <path
         inkscape:connector-curvature="0"
         d="m 118.321,28.7762 -7e-4,2.5969 c -0.625,2.60938 -1.60938,4.78906 -2.95313,6.53906 -1.34375,1.75 -3.01562,3.07031 -5.01562,3.96094 -1.98437,0.890625 -4.51562,1.33594 -7.59375,1.33594 -3.73438,0 -6.78906,-0.539063 -9.16406,-1.61719 -2.35938,-1.09375 -4.39844,-3.00781 -6.11719,-5.74219 -1.71875,-2.73438 -2.57812,-6.23438 -2.57812,-10.5 0,-5.6875 1.50781,-10.0547 4.52344,-13.1016 3.03125,-3.0625 7.3125,-4.59375 12.8437,-4.59375 4.32813,0 15.7278,8.08788 15.7278,8.08788 l -0.002,2.3418 -9.375,2.0859 c -0.32812,-1.04688 -0.67187,-1.8125 -1.03125,-2.29688 -0.59375,-0.8125 -1.32031,-1.4375 -2.17968,-1.875 -0.85938,-0.4375 -1.82032,-0.398438 -2.88282,-0.398438 -2.40625,0 -4.25,0.96875 -5.53125,2.90625 -0.96875,1.4375 -1.45312,3.69531 -1.45312,6.77344 0,3.8125 0.578125,6.42969 1.73438,7.85156 1.15625,1.40625 2.78125,2.10938 4.875,2.10938 2.03125,0 4.59375,-1.71094 4.59375,-1.71094 z"
         id="path4171" />
    </g>
    <path
       inkscape:connector-curvature="0"
       d="m 106.49222,41.875 a 4.0004,4.0004 0 0 0 -2.85547,1.20703 c 0,0 -31.318096,32.1264 -43.550796,44.6738 -9.09195,-9.32432 -23.7246,-24.332 -23.7246,-24.332 a 4.0004,4.0004 0 0 0 -5.72852,0 l -13.0352,13.373 a 4.0004,4.0004 0 0 0 0,5.58398 l 39.625,40.6426 a 4.0004,4.0004 0 0 0 5.72852,0 l 59.451196,-60.9863 a 4.0004,4.0004 0 0 0 0,-5.58398 l -13.0371,-13.3711 A 4.0004,4.0004 0 0 0 106.49221,41.875 Z"
       id="path4160"
       style="color:#000000;line-height:normal;font-family:sans-serif;text-indent:0;text-align:start;text-decoration:none;text-decoration-line:none;text-decoration-style:solid;text-decoration-color:#000000;text-transform:none;white-space:normal;isolation:auto;mix-blend-mode:normal;color-interpolation:sRGB;color-interpolation-filters:linearRGB;solid-color:#000000;solid-opacity:1;fill:#f0544c;stroke:none;stroke-width:8;stroke-linecap:round;stroke-linejoin:round;color-rendering:auto;image-rendering:auto;shape-rendering:auto;text-rendering:auto;fill-opacity:1" />
    <g
       transform="matrix(1.0432644,0,0,1.0432644,-1.8931093,-5.2733753)"
       id="text3856"
       style="font-weight:bold;font-size:48px;line-height:125%;font-family:'Arial Black';text-align:start;letter-spacing:0;word-spacing:0;fill:#5a5a5a;stroke:none">
      <path
         inkscape:connector-curvature="0"
         d="m 32.6562,34.3281 -12.0938,0 L 18.8983,40 8.0467,40 20.9608,5.6406 l 11.5781,0 L 45.453,40 34.3436,40 32.6561,34.3281 Z m -2.2266,-7.4297 -3.7969,-12.3516 -3.7734,12.3516 7.5703,0 z"
         id="path4174" />
      <path
         inkscape:connector-curvature="0"
         d="m 48.8515,5.6406 19.875,0 q 4.96875,0 7.61719,2.46094 2.67188,2.46094 2.67188,6.09375 0,3.04687 -1.89844,5.22656 -1.26562,1.45312 -3.70312,2.29688 3.70312,0.890625 5.4375,3.07031 1.75781,2.15625 1.75781,5.4375 0,2.67188 -1.24219,4.80469 -1.24219,2.13281 -3.39844,3.375 -1.33594,0.773437 -4.03125,1.125 -3.58594,0.46875 -4.75781,0.46875 l -18.3281,0 0,-34.3594 z m 10.7109,13.4766 4.6172,0 q 2.48438,0 3.44531,-0.84375 0.984375,-0.867187 0.984375,-2.48437 0,-1.5 -0.984375,-2.34375 -0.960937,-0.84375 -3.375,-0.84375 l -4.6875,0 0,6.51562 z m 0,13.5 5.4141,0 q 2.74219,0 3.86719,-0.960937 1.125,-0.984375 1.125,-2.625 0,-1.52344 -1.125,-2.4375 -1.10156,-0.9375 -3.89062,-0.9375 l -5.39062,0 0,6.96094 z"
         id="path4176" />
      <path
         inkscape:connector-curvature="0"
         d="m 109.0156,25.9609 9.3047,2.8125 q -0.9375,3.91406 -2.95313,6.53906 -2.01562,2.625 -5.01562,3.96094 -2.97656,1.33594 -7.59375,1.33594 -5.60156,0 -9.16406,-1.61719 -3.53906,-1.64062 -6.11719,-5.74219 -2.57812,-4.10156 -2.57812,-10.5 0,-8.53125 4.52344,-13.1016 4.54688,-4.59375 12.8437,-4.59375 6.49219,0 10.1953,2.625 3.72657,2.625 5.53125,8.0625 l -9.375,2.0859 q -0.49218,-1.57031 -1.03125,-2.29688 -0.89062,-1.21875 -2.17968,-1.875 -1.28907,-0.65625 -2.88282,-0.65625 -3.60937,0 -5.53125,2.90625 -1.45312,2.15625 -1.45312,6.77344 0,5.71875 1.73438,7.85156 1.73438,2.10938 4.875,2.10938 3.04688,0 4.59375,-1.71094 1.57032,-1.71094 2.27344,-4.96875 z"
         id="path4178" />
    </g>
  </g>
</svg>
