<?xml version="1.0" encoding="UTF-8" standalone="no"?>
<svg
   xmlns:dc="http://purl.org/dc/elements/1.1/"
   xmlns:cc="http://creativecommons.org/ns#"
   xmlns:rdf="http://www.w3.org/1999/02/22-rdf-syntax-ns#"
   xmlns:svg="http://www.w3.org/2000/svg"
   xmlns="http://www.w3.org/2000/svg"
   xmlns:sodipodi="http://sodipodi.sourceforge.net/DTD/sodipodi-0.dtd"
   xmlns:inkscape="http://www.inkscape.org/namespaces/inkscape"
   width="16"
   version="1.1"
   height="16"
   id="svg19716"
   inkscape:version="0.91 r13725"
   sodipodi:docname="zoom-fit-height.svg">
  <metadata
     id="metadata19727">
    <rdf:RDF>
      <cc:Work
         rdf:about="">
        <dc:format>image/svg+xml</dc:format>
        <dc:type
           rdf:resource="http://purl.org/dc/dcmitype/StillImage" />
      </cc:Work>
    </rdf:RDF>
  </metadata>
  <defs
     id="defs19725" />
  <sodipodi:namedview
     pagecolor="#ffffff"
     bordercolor="#666666"
     borderopacity="1"
     objecttolerance="10"
     gridtolerance="10"
     guidetolerance="10"
     inkscape:pageopacity="0"
     inkscape:pageshadow="2"
     inkscape:window-width="640"
     inkscape:window-height="480"
     id="namedview19723"
     showgrid="false"
     inkscape:zoom="9.9375"
     inkscape:cx="-6.9908792"
     inkscape:cy="4.5774074"
     inkscape:current-layer="svg19716" />
  <g
     id="g23989">
    <path
       style="fill:#f0544c;stroke:none;fill-opacity:1"
       id="path4142"
       d="M 3.0625,1 C 1.91877,1 1,1.8743 1,2.9519 L 1,13.0481 C 1,14.1257 1.918769,15 3.0625,15 l 9.875,0 C 14.08123,15 15,14.1257 15,13.0481 L 15,2.9519 C 15,1.8743 14.081231,1 12.9375,1 Z"
       inkscape:connector-curvature="0" />
    <path
       inkscape:connector-curvature="0"
       d="m 4,1.9941 5,0 c 0,0 -0.029473,1.5522 0,1.9882 -4.98214,0.04 -5,0.018 -5,2.9822 l -2,0 0,-2.9822 C 2,2.9882 3.02151,1.9941 4,1.9941 Z"
       id="path4140"
       style="fill:#ffffff;stroke:none" />
    <path
       inkscape:connector-curvature="0"
       d="m 2,8.9527 2,0 c 0,3.0473 0.040179,3.025 5,2.9822 -0.029473,0.436 0,1.9882 0,1.9882 l -5,0 c -0.978494,0 -2,-0.9941 -2,-1.9882 z"
       id="rect2816"
       style="fill:#ffffff;stroke:none" />
  </g>
</svg>
