<?xml version="1.0" encoding="UTF-8" standalone="no"?>
<svg
   xmlns:dc="http://purl.org/dc/elements/1.1/"
   xmlns:cc="http://creativecommons.org/ns#"
   xmlns:rdf="http://www.w3.org/1999/02/22-rdf-syntax-ns#"
   xmlns:svg="http://www.w3.org/2000/svg"
   xmlns="http://www.w3.org/2000/svg"
   xmlns:sodipodi="http://sodipodi.sourceforge.net/DTD/sodipodi-0.dtd"
   xmlns:inkscape="http://www.inkscape.org/namespaces/inkscape"
   width="16"
   version="1.1"
   height="16"
   id="svg18051"
   inkscape:version="0.91 r13725"
   sodipodi:docname="zoom-1-to-2.svg">
  <metadata
     id="metadata18064">
    <rdf:RDF>
      <cc:Work
         rdf:about="">
        <dc:format>image/svg+xml</dc:format>
        <dc:type
           rdf:resource="http://purl.org/dc/dcmitype/StillImage" />
      </cc:Work>
    </rdf:RDF>
  </metadata>
  <defs
     id="defs18062" />
  <sodipodi:namedview
     pagecolor="#ffffff"
     bordercolor="#666666"
     borderopacity="1"
     objecttolerance="10"
     gridtolerance="10"
     guidetolerance="10"
     inkscape:pageopacity="0"
     inkscape:pageshadow="2"
     inkscape:window-width="640"
     inkscape:window-height="480"
     id="namedview18060"
     showgrid="false"
     inkscape:zoom="14.053747"
     inkscape:cx="10.828994"
     inkscape:cy="6.8623196"
     inkscape:current-layer="svg18051" />
  <g
     id="g23942">
    <path
       style="fill:#f0544c;stroke:none;fill-opacity:1"
       id="path4146"
       d="M 3.0625,1 C 1.91877,1 1,1.859908 1,2.9375 l 0,10.125 C 1,14.14009 1.918769,15 3.0625,15 l 9.875,0 C 14.08123,15 15,14.140092 15,13.0625 L 15,2.9375 C 15,1.85991 14.081231,1 12.9375,1 l -9.875,0 z"
       inkscape:connector-curvature="0" />
    <path
       inkscape:connector-curvature="0"
       d="M 3,4 5,4 5,5.59375 5,12 3,12 3,7.1875 l -1,0 0,-1.59375 1,0 L 3,4 Z"
       id="path4144"
       style="fill:#ffffff;stroke:none" />
    <path
       inkscape:connector-curvature="0"
       d="M 9,4 10.65625,4 12,4 12,6 14,6 14,7.40625 14,9 12.34375,9 11,9 l 0,1.5 1.34375,0 1.65625,0 0,1.5 -1.65625,0 -1.6875,0 L 9,12 9,10.40625 9,9 9,7.40625 l 1.65625,0 1.34375,0 L 12,6 10.65625,6 9,6 9,4 Z"
       id="path4142"
       style="fill:#ffffff;stroke:none" />
    <path
       inkscape:connector-curvature="0"
       d="M 6,5 8,5 8,7 6,7 6,5 Z"
       id="path4140"
       style="fill:#ffffff;stroke:none" />
    <path
       inkscape:connector-curvature="0"
       d="m 6,10 2,0 0,2 -2,0 0,-2 z"
       id="rect2816"
       style="fill:#ffffff;stroke:none" />
  </g>
</svg>
