<?xml version="1.0" encoding="UTF-8" standalone="no"?>
<svg
   xmlns:dc="http://purl.org/dc/elements/1.1/"
   xmlns:cc="http://creativecommons.org/ns#"
   xmlns:rdf="http://www.w3.org/1999/02/22-rdf-syntax-ns#"
   xmlns:svg="http://www.w3.org/2000/svg"
   xmlns="http://www.w3.org/2000/svg"
   xmlns:sodipodi="http://sodipodi.sourceforge.net/DTD/sodipodi-0.dtd"
   xmlns:inkscape="http://www.inkscape.org/namespaces/inkscape"
   width="48"
   version="1.1"
   height="48"
   id="svg2"
   inkscape:version="0.91 r13725"
   sodipodi:docname="certificate-server.svg">
  <metadata
     id="metadata121">
    <rdf:RDF>
      <cc:Work
         rdf:about="">
        <dc:format>image/svg+xml</dc:format>
        <dc:type
           rdf:resource="http://purl.org/dc/dcmitype/StillImage" />
      </cc:Work>
    </rdf:RDF>
  </metadata>
  <defs
     id="defs119" />
  <sodipodi:namedview
     pagecolor="#ffffff"
     bordercolor="#666666"
     borderopacity="1"
     objecttolerance="10"
     gridtolerance="10"
     guidetolerance="10"
     inkscape:pageopacity="0"
     inkscape:pageshadow="2"
     inkscape:window-width="640"
     inkscape:window-height="480"
     id="namedview117"
     showgrid="false"
     inkscape:zoom="14.9375"
     inkscape:cx="24.133891"
     inkscape:cy="22.661088"
     inkscape:current-layer="svg2" />
  <g
     id="g6"
     style="fill:#f0544c;fill-rule:evenodd;stroke:#003bc3;stroke-width:0;stroke-linecap:square;stroke-miterlimit:2;fill-opacity:1">
    <rect
       id="shape11"
       height="10.309778"
       y="7.0535107"
       x="23.946743"
       width="13.150457"
       style="fill:#f0544c;fill-opacity:1" />
    <rect
       id="shape21"
       height="10.309778"
       y="18.651777"
       x="23.946743"
       width="13.150457"
       style="fill:#f0544c;fill-opacity:1" />
    <rect
       id="shape3"
       height="10.164833"
       y="30.396162"
       x="23.946743"
       width="13.150457"
       style="fill:#f0544c;fill-opacity:1" />
  </g>
  <rect
     style="fill:#ff544c;fill-rule:evenodd;stroke:#003bc3;stroke-width:0;stroke-linecap:square;stroke-miterlimit:2;fill-opacity:1"
     width="13.128598"
     x="10.859916"
     y="7.0535717"
     height="10.309782"
     id="rect15" />
  <rect
     style="fill:#ff544c;fill-rule:evenodd;stroke:#003bc3;stroke-width:0;stroke-linecap:square;stroke-miterlimit:2;fill-opacity:1"
     width="13.128598"
     x="10.859916"
     y="18.652388"
     height="10.309782"
     id="rect17" />
  <rect
     style="fill:#ff544c;fill-rule:evenodd;stroke:#003bc3;stroke-width:0;stroke-linecap:square;stroke-miterlimit:2;fill-opacity:1"
     width="13.128598"
     x="10.859916"
     y="30.250715"
     height="10.309782"
     id="shape31" />
  <g
     transform="translate(0,-1004.3622)"
     id="g33"
     style="fill:#ecf0f1;fill-opacity:0.875;fill-rule:evenodd;stroke:#003bc3;stroke-width:0;stroke-linecap:square;stroke-miterlimit:2">
    <rect
       id="shape4"
       height="6.1755695"
       y="1012.9622"
       x="11.766102"
       width="2.0955863" />
    <rect
       id="shape5"
       height="6.1755695"
       y="1024.5607"
       x="11.766102"
       width="2.0955863" />
    <rect
       id="shape6"
       height="6.1755695"
       y="1036.1592"
       x="11.823205"
       width="2.0955863" />
  </g>
  <rect
     id="rect3003"
     style="color:#000000;fill:#e6e6e6;fill-rule:evenodd;stroke:none;stroke-width:1.20000005"
     height="22.373775"
     y="18.377302"
     x="21.296389"
     width="24.644115" />
  <g
     style="fill:none;stroke:#b31d1d;stroke-width:0.30000001"
     id="g3796"
     transform="matrix(0.95855917,0,0,0.98594101,1.3270728,-992.52178)">
    <g
       id="g3786">
      <path
         id="path3782"
         d="m 23.0858,23.1212 0.8773,-1.5621 0.8542,1.5314"
         transform="translate(0,1004.3622)"
         inkscape:connector-curvature="0" />
      <path
         id="path3784"
         d="m 24.8423,1027.4834 0.8773,-1.5621 0.8542,1.5313"
         inkscape:connector-curvature="0" />
    </g>
    <g
       id="g3790"
       transform="translate(3.5504592,-0.02497449)">
      <path
         id="path3792"
         d="m 23.0858,23.1212 0.8773,-1.5621 0.8542,1.5314"
         transform="translate(0,1004.3622)"
         inkscape:connector-curvature="0" />
      <path
         id="path3794"
         d="m 24.8423,1027.4834 0.8773,-1.5621 0.8542,1.5313"
         inkscape:connector-curvature="0" />
    </g>
  </g>
  <g
     style="fill:none;stroke:#b31d1d;stroke-width:0.30000001"
     id="g3804"
     transform="matrix(0.95855917,0,0,0.98594101,8.089806,-992.57168)">
    <g
       id="g3806">
      <path
         id="path3808"
         d="m 23.0858,23.1212 0.8773,-1.5621 0.8542,1.5314"
         transform="translate(0,1004.3622)"
         inkscape:connector-curvature="0" />
      <path
         id="path3810"
         d="m 24.8423,1027.4834 0.8773,-1.5621 0.8542,1.5313"
         inkscape:connector-curvature="0" />
    </g>
    <g
       id="g3812"
       transform="translate(3.5504592,-0.02497449)">
      <path
         id="path3814"
         d="m 23.0858,23.1212 0.8773,-1.5621 0.8542,1.5314"
         transform="translate(0,1004.3622)"
         inkscape:connector-curvature="0" />
      <path
         id="path3816"
         d="m 24.8423,1027.4834 0.8773,-1.5621 0.8542,1.5313"
         inkscape:connector-curvature="0" />
    </g>
  </g>
  <g
     style="fill:none;stroke:#b31d1d;stroke-width:0.30000001"
     id="g3848"
     transform="matrix(0.95855917,0,0,0.98594101,14.853136,-992.619)">
    <g
       id="g3850">
      <path
         id="path3852"
         d="m 23.0858,23.1212 0.8773,-1.5621 0.8542,1.5314"
         transform="translate(0,1004.3622)"
         inkscape:connector-curvature="0" />
      <path
         id="path3854"
         d="m 24.8423,1027.4834 0.8773,-1.5621 0.8542,1.5313"
         inkscape:connector-curvature="0" />
    </g>
    <g
       id="g3856"
       transform="translate(3.5504592,-0.02497449)">
      <path
         id="path3858"
         d="m 23.0858,23.1212 0.8773,-1.5621 0.8542,1.5314"
         transform="translate(0,1004.3622)"
         inkscape:connector-curvature="0" />
      <path
         id="path3860"
         d="m 24.8423,1027.4834 0.8773,-1.5621 0.8542,1.5313"
         inkscape:connector-curvature="0" />
    </g>
  </g>
  <g
     style="fill:none;stroke:#b31d1d;stroke-width:0.30000001"
     id="g3887"
     transform="matrix(0,-0.85251874,1,0,-1003.8827,58.254024)">
    <g
       id="g3889">
      <path
         id="path3891"
         d="m 23.0858,23.1212 0.8773,-1.5621 0.8542,1.5314"
         transform="translate(0,1004.3622)"
         inkscape:connector-curvature="0" />
      <path
         id="path3893"
         d="m 24.8423,1027.4834 0.8773,-1.5621 0.8542,1.5313"
         inkscape:connector-curvature="0" />
    </g>
    <g
       id="g3895"
       transform="translate(3.5504592,-0.02497449)">
      <path
         id="path3897"
         d="m 23.0858,23.1212 0.8773,-1.5621 0.8542,1.5314"
         transform="translate(0,1004.3622)"
         inkscape:connector-curvature="0" />
      <path
         id="path3899"
         d="m 24.8423,1027.4834 0.8773,-1.5621 0.8542,1.5313"
         inkscape:connector-curvature="0" />
    </g>
  </g>
  <g
     style="fill:none;stroke:#b31d1d;stroke-width:0.30000001"
     id="g3901"
     transform="matrix(0,-0.85251874,1,0,-1003.9333,52.239417)">
    <g
       id="g3903">
      <path
         id="path3905"
         d="m 23.0858,23.1212 0.8773,-1.5621 0.8542,1.5314"
         transform="translate(0,1004.3622)"
         inkscape:connector-curvature="0" />
      <path
         id="path3907"
         d="m 24.8423,1027.4834 0.8773,-1.5621 0.8542,1.5313"
         inkscape:connector-curvature="0" />
    </g>
    <g
       id="g3909"
       transform="translate(3.5504592,-0.02497449)">
      <path
         id="path3911"
         d="m 23.0858,23.1212 0.8773,-1.5621 0.8542,1.5314"
         transform="translate(0,1004.3622)"
         inkscape:connector-curvature="0" />
      <path
         id="path3913"
         d="m 24.8423,1027.4834 0.8773,-1.5621 0.8542,1.5313"
         inkscape:connector-curvature="0" />
    </g>
  </g>
  <g
     style="fill:none;stroke:#b31d1d;stroke-width:0.30000001"
     id="g3915"
     transform="matrix(0,-0.85251874,1,0,-1003.9813,46.224279)">
    <g
       id="g3917">
      <path
         id="path3919"
         d="m 23.0858,23.1212 0.8773,-1.5621 0.8542,1.5314"
         transform="translate(0,1004.3622)"
         inkscape:connector-curvature="0" />
      <path
         id="path3921"
         d="m 24.8423,1027.4834 0.8773,-1.5621 0.8542,1.5313"
         inkscape:connector-curvature="0" />
    </g>
    <g
       id="g3923"
       transform="translate(3.5504592,-0.02497449)">
      <path
         id="path3925"
         d="m 23.0858,23.1212 0.8773,-1.5621 0.8542,1.5314"
         transform="translate(0,1004.3622)"
         inkscape:connector-curvature="0" />
      <path
         id="path3927"
         d="m 24.8423,1027.4834 0.8773,-1.5621 0.8542,1.5313"
         inkscape:connector-curvature="0" />
    </g>
  </g>
  <g
     style="fill:none;stroke:#b31d1d;stroke-width:0.30000001"
     id="g3931"
     transform="matrix(0.95855917,0,0,-0.98594101,1.3270728,1051.6111)">
    <g
       id="g3933">
      <path
         id="path3935"
         d="m 23.0858,23.1212 0.8773,-1.5621 0.8542,1.5314"
         transform="translate(0,1004.3622)"
         inkscape:connector-curvature="0" />
      <path
         id="path3937"
         d="m 24.8423,1027.4834 0.8773,-1.5621 0.8542,1.5313"
         inkscape:connector-curvature="0" />
    </g>
    <g
       id="g3939"
       transform="translate(3.5504592,-0.02497449)">
      <path
         id="path3941"
         d="m 23.0858,23.1212 0.8773,-1.5621 0.8542,1.5314"
         transform="translate(0,1004.3622)"
         inkscape:connector-curvature="0" />
      <path
         id="path3943"
         d="m 24.8423,1027.4834 0.8773,-1.5621 0.8542,1.5313"
         inkscape:connector-curvature="0" />
    </g>
  </g>
  <g
     style="fill:none;stroke:#b31d1d;stroke-width:0.30000001"
     id="g3945"
     transform="matrix(0.95855917,0,0,-0.98594101,8.089806,1051.661)">
    <g
       id="g3947">
      <path
         id="path3949"
         d="m 23.0858,23.1212 0.8773,-1.5621 0.8542,1.5314"
         transform="translate(0,1004.3622)"
         inkscape:connector-curvature="0" />
      <path
         id="path3951"
         d="m 24.8423,1027.4834 0.8773,-1.5621 0.8542,1.5313"
         inkscape:connector-curvature="0" />
    </g>
    <g
       id="g3953"
       transform="translate(3.5504592,-0.02497449)">
      <path
         id="path3955"
         d="m 23.0858,23.1212 0.8773,-1.5621 0.8542,1.5314"
         transform="translate(0,1004.3622)"
         inkscape:connector-curvature="0" />
      <path
         id="path3957"
         d="m 24.8423,1027.4834 0.8773,-1.5621 0.8542,1.5313"
         inkscape:connector-curvature="0" />
    </g>
  </g>
  <g
     style="fill:none;stroke:#b31d1d;stroke-width:0.30000001"
     id="g3959"
     transform="matrix(0.95855917,0,0,-0.98594101,14.853136,1051.7083)">
    <g
       id="g3961">
      <path
         id="path3963"
         d="m 23.0858,23.1212 0.8773,-1.5621 0.8542,1.5314"
         transform="translate(0,1004.3622)"
         inkscape:connector-curvature="0" />
      <path
         id="path3965"
         d="m 24.8423,1027.4834 0.8773,-1.5621 0.8542,1.5313"
         inkscape:connector-curvature="0" />
    </g>
    <g
       id="g3967"
       transform="translate(3.5504592,-0.02497449)">
      <path
         id="path3969"
         d="m 23.0858,23.1212 0.8773,-1.5621 0.8542,1.5314"
         transform="translate(0,1004.3622)"
         inkscape:connector-curvature="0" />
      <path
         id="path3971"
         d="m 24.8423,1027.4834 0.8773,-1.5621 0.8542,1.5313"
         inkscape:connector-curvature="0" />
    </g>
  </g>
  <g
     style="fill:none;stroke:#b31d1d;stroke-width:0.30000001"
     id="g3975"
     transform="matrix(0,-0.8666944,-1,0,1071.0897,58.731199)">
    <g
       id="g3977">
      <path
         id="path3979"
         d="m 23.0858,23.1212 0.8773,-1.5621 0.8542,1.5314"
         transform="translate(0,1004.3622)"
         inkscape:connector-curvature="0" />
      <path
         id="path3981"
         d="m 24.8423,1027.4834 0.8773,-1.5621 0.8542,1.5313"
         inkscape:connector-curvature="0" />
    </g>
    <g
       id="g3983"
       transform="translate(3.5504592,-0.02497449)">
      <path
         id="path3985"
         d="m 23.0858,23.1212 0.8773,-1.5621 0.8542,1.5314"
         transform="translate(0,1004.3622)"
         inkscape:connector-curvature="0" />
      <path
         id="path3987"
         d="m 24.8423,1027.4834 0.8773,-1.5621 0.8542,1.5313"
         inkscape:connector-curvature="0" />
    </g>
  </g>
  <g
     style="fill:none;stroke:#b31d1d;stroke-width:0.30000001"
     id="g3989"
     transform="matrix(0,-0.8666944,-1,0,1071.1403,52.616581)">
    <g
       id="g3991">
      <path
         id="path3993"
         d="m 23.0858,23.1212 0.8773,-1.5621 0.8542,1.5314"
         transform="translate(0,1004.3622)"
         inkscape:connector-curvature="0" />
      <path
         id="path3995"
         d="m 24.8423,1027.4834 0.8773,-1.5621 0.8542,1.5313"
         inkscape:connector-curvature="0" />
    </g>
    <g
       id="g3997"
       transform="translate(3.5504592,-0.02497449)">
      <path
         id="path3999"
         d="m 23.0858,23.1212 0.8773,-1.5621 0.8542,1.5314"
         transform="translate(0,1004.3622)"
         inkscape:connector-curvature="0" />
      <path
         id="path4001"
         d="m 24.8423,1027.4834 0.8773,-1.5621 0.8542,1.5313"
         inkscape:connector-curvature="0" />
    </g>
  </g>
  <g
     style="fill:none;stroke:#b31d1d;stroke-width:0.30000001"
     id="g4003"
     transform="matrix(0,-0.8666944,-1,0,1071.1883,46.501423)">
    <g
       id="g4005">
      <path
         id="path4007"
         d="m 23.0858,23.1212 0.8773,-1.5621 0.8542,1.5314"
         transform="translate(0,1004.3622)"
         inkscape:connector-curvature="0" />
      <path
         id="path4009"
         d="m 24.8423,1027.4834 0.8773,-1.5621 0.8542,1.5313"
         inkscape:connector-curvature="0" />
    </g>
    <g
       id="g4011"
       transform="translate(3.5504592,-0.02497449)">
      <path
         id="path4013"
         d="m 23.0858,23.1212 0.8773,-1.5621 0.8542,1.5314"
         transform="translate(0,1004.3622)"
         inkscape:connector-curvature="0" />
      <path
         id="path4015"
         d="m 24.8423,1027.4834 0.8773,-1.5621 0.8542,1.5313"
         inkscape:connector-curvature="0" />
    </g>
  </g>
  <g
     style="color:#000000;fill:#1a1a1a;stroke:none;stroke-width:0.30000001"
     id="g129"
     transform="translate(3,-1004.3622)">
    <rect
       width="10.496265"
       x="22.124481"
       y="23.817427"
       height="0.72033197"
       id="rect4017"
       transform="translate(0,1004.3622)" />
    <rect
       width="6.3800826"
       x="22.124481"
       y="1030.1797"
       height="0.72033197"
       id="rect4019" />
    <rect
       width="9.0556011"
       x="22.124481"
       y="1032.1797"
       height="0.72033197"
       id="rect4021" />
    <rect
       width="11.834024"
       x="22.124481"
       y="1034.1797"
       height="0.72033197"
       id="rect4023" />
  </g>
  <path
     style="color:#000000;fill:#f0544c;fill-rule:evenodd;stroke:none;stroke-width:0.30000001;fill-opacity:1"
     id="path4025"
     d="m 38.75,31.263418 c -1.96073,0 -3.53125,1.591218 -3.53125,3.540758 0,1.94954 1.57052,3.508274 3.53125,3.508274 1.96073,0 3.5625,-1.558734 3.5625,-3.508274 0,-1.94954 -1.60177,-3.540758 -3.5625,-3.540758 z m 0,0.714648 c 1.5629,0 2.84375,1.272126 2.84375,2.82611 0,1.553983 -1.28085,2.793626 -2.84375,2.793626 -1.5629,0 -2.8125,-1.239643 -2.8125,-2.793626 0,-1.553984 1.2496,-2.82611 2.8125,-2.82611 z"
     inkscape:connector-curvature="0" />
</svg>
