<?xml version="1.0" encoding="UTF-8" standalone="no"?>
<svg
   xmlns:dc="http://purl.org/dc/elements/1.1/"
   xmlns:cc="http://creativecommons.org/ns#"
   xmlns:rdf="http://www.w3.org/1999/02/22-rdf-syntax-ns#"
   xmlns:svg="http://www.w3.org/2000/svg"
   xmlns="http://www.w3.org/2000/svg"
   xmlns:sodipodi="http://sodipodi.sourceforge.net/DTD/sodipodi-0.dtd"
   xmlns:inkscape="http://www.inkscape.org/namespaces/inkscape"
   width="48"
   version="1.1"
   height="48"
   id="svg13683"
   inkscape:version="0.91 r13725"
   sodipodi:docname="folder-photo.svg">
  <metadata
     id="metadata13704">
    <rdf:RDF>
      <cc:Work
         rdf:about="">
        <dc:format>image/svg+xml</dc:format>
        <dc:type
           rdf:resource="http://purl.org/dc/dcmitype/StillImage" />
      </cc:Work>
    </rdf:RDF>
  </metadata>
  <defs
     id="defs13702" />
  <sodipodi:namedview
     pagecolor="#ffffff"
     bordercolor="#666666"
     borderopacity="1"
     objecttolerance="10"
     gridtolerance="10"
     guidetolerance="10"
     inkscape:pageopacity="0"
     inkscape:pageshadow="2"
     inkscape:window-width="640"
     inkscape:window-height="480"
     id="namedview13700"
     showgrid="false"
     inkscape:zoom="14.9375"
     inkscape:cx="24.334728"
     inkscape:cy="24.602511"
     inkscape:current-layer="svg13683" />
  <path
     style="opacity:.65;fill:#fff;stroke:none"
     id="rect4154"
     d="m 3,1.959 0,9.342 42,0 0,-6.9866 -22,0 0,-2.3555 z" />
  <rect
     style="stroke:none;fill:#444444;fill-opacity:1"
     id="folderTab"
     height="11.773318"
     y="2.9586298"
     x="4"
     width="18" />
  <rect
     style="stroke:none;fill:#444444;fill-opacity:1"
     id="folderBackground"
     height="35.319954"
     y="5.313652"
     x="4"
     width="40" />
  <rect
     id="folderPaper"
     style="fill:#ffffff;stroke:none"
     height="32.965004"
     y="7.6680799"
     x="6"
     width="35.999992" />
  <rect
     id="folderFront"
     style="fill:#3498db;stroke:none"
     height="32.965298"
     y="10.022959"
     x="2"
     width="43.999996" />
  <rect
     width="35.999992"
     x="6"
     y="7.6680799"
     height="32.965004"
     style="fill:#ffffff;stroke:none"
     id="rect3849" />
  <rect
     width="43.999996"
     x="2"
     y="10.022959"
     height="32.965298"
     style="fill:#f0544c;stroke:none;fill-opacity:1"
     id="rect3851" />
  <rect
     width="30"
     x="9.380971"
     y="11.101083"
     height="30"
     style="fill:none;stroke:none"
     id="rect3265" />
  <g
     style="stroke:none"
     id="layer1-0"
     transform="matrix(0.95914281,0,0,0.95914281,0.71127192,0.99309879)">
    <path
       style="fill:#ffffff"
       id="path2998"
       d="m 16.5938,15.75 c -1.79619,0 -3.2539,0.297012 -3.25,0.65625 0.0036,0.359237 -1.45381,0.65625 -3.25,0.65625 l -0.375,0 c -1.79619,0 -3.28125,1.48506 -3.28125,3.28125 l 0,13.0625 c 0,1.79619 1.48506,3.25 3.28125,3.25 l 28.9062,0 c 1.79619,0 3.25,-1.45381 3.25,-3.25 l 0,-13.0625 c 0,-1.79619 -1.45381,-3.28125 -3.25,-3.28125 l -14.7188,0 c -1.79619,0 -3.25,-0.297013 -3.25,-0.65625 0,-0.359238 -1.48506,-0.65625 -3.28125,-0.65625 l -0.78125,0 z m -6.0625,2.6875 c 1.12735,0 2.03125,0.935147 2.03125,2.0625 0,1.12703 -0.903897,2.03125 -2.03125,2.03125 -1.12735,0 -2.03125,-0.903898 -2.03125,-2.03125 0,-1.12735 0.903897,-2.0625 2.03125,-2.0625 z m 22.0312,0.1875 6.875,0 c 0.359238,0 0.65625,0.297013 0.65625,0.65625 l 0,1.125 c 0,0.359237 -0.297012,0.65625 -0.65625,0.65625 l -6.875,0 c -0.359238,0 -0.65625,-0.297013 -0.65625,-0.65625 l 0,-1.125 c 0,-0.359237 0.297012,-0.65625 0.65625,-0.65625 z m -8.4062,2.2812 c 3.2916,0 5.96875,2.67715 5.96875,5.96875 0,3.2916 -2.67715,5.9375 -5.96875,5.9375 -3.2916,0 -5.96875,-2.6459 -5.96875,-5.9375 0,-3.2916 2.67715,-5.96875 5.96875,-5.96875 z"
       inkscape:connector-curvature="0" />
    <path
       style="font-size:12px;fill:none"
       id="path601"
       d="m 41.4715,33.3919 c 0,1.79619 -1.46961,3.2658 -3.2658,3.2658 l -28.9023,0 c -1.79619,0 -3.2658,-1.46961 -3.2658,-3.2658 l 0,-13.0632 c 0,-1.79619 1.46961,-3.2658 3.2658,-3.2658 l 0.381118,0 c 1.79619,0 3.26253,-0.293922 3.25894,-0.653159 -0.0039,-0.359238 1.46275,-0.653159 3.25894,-0.653159 l 0.775626,0 c 1.79619,0 3.2658,0.293921 3.2658,0.653159 0,0.359237 1.46961,0.653159 3.2658,0.653159 l 14.6961,0 c 1.79619,0 3.2658,1.46961 3.2658,3.2658 l 0,13.0632 z"
       inkscape:connector-curvature="0" />
  </g>
</svg>
