<?xml version="1.0" encoding="UTF-8" standalone="no"?>
<svg
   xmlns:dc="http://purl.org/dc/elements/1.1/"
   xmlns:cc="http://creativecommons.org/ns#"
   xmlns:rdf="http://www.w3.org/1999/02/22-rdf-syntax-ns#"
   xmlns:svg="http://www.w3.org/2000/svg"
   xmlns="http://www.w3.org/2000/svg"
   xmlns:sodipodi="http://sodipodi.sourceforge.net/DTD/sodipodi-0.dtd"
   xmlns:inkscape="http://www.inkscape.org/namespaces/inkscape"
   width="48"
   version="1.1"
   height="48"
   id="svg2"
   inkscape:version="0.91 r13725"
   sodipodi:docname="folder-activities.svg">
  <metadata
     id="metadata22">
    <rdf:RDF>
      <cc:Work
         rdf:about="">
        <dc:format>image/svg+xml</dc:format>
        <dc:type
           rdf:resource="http://purl.org/dc/dcmitype/StillImage" />
      </cc:Work>
    </rdf:RDF>
  </metadata>
  <defs
     id="defs20" />
  <sodipodi:namedview
     pagecolor="#ffffff"
     bordercolor="#666666"
     borderopacity="1"
     objecttolerance="10"
     gridtolerance="10"
     guidetolerance="10"
     inkscape:pageopacity="0"
     inkscape:pageshadow="2"
     inkscape:window-width="640"
     inkscape:window-height="480"
     id="namedview18"
     showgrid="false"
     inkscape:zoom="14.9375"
     inkscape:cx="19.514644"
     inkscape:cy="25.271967"
     inkscape:current-layer="svg2" />
  <path
     style="opacity:.65;fill:#fff;stroke:none"
     id="rect4154"
     d="m 3,1.959 0,9.342 42,0 0,-6.9866 -22,0 0,-2.3555 z" />
  <rect
     style="stroke:none;fill:#444444;fill-opacity:1"
     width="18"
     x="4"
     y="2.9586298"
     height="11.773318"
     id="folderTab" />
  <rect
     style="stroke:none;fill:#444444;fill-opacity:1"
     width="40"
     x="4"
     y="5.313652"
     height="35.319954"
     id="folderBackground" />
  <rect
     width="35.999992"
     x="6"
     y="7.6680799"
     height="32.965004"
     style="fill:#ffffff;stroke:none"
     id="folderPaper" />
  <rect
     width="43.999996"
     x="2"
     y="10.022959"
     height="32.965298"
     style="fill:#f0544c;stroke:none;fill-opacity:1"
     id="folderFront" />
  <path
     style="color:#000000;line-height:normal;font-family:Sans;text-indent:0;text-align:start;text-decoration:none;text-decoration-line:none;text-transform:none;fill:#ffffff;stroke:none;stroke-width:18.95100021"
     id="path3776"
     d="m 31.2423,14.958469 -0.0028,0.0027 -18.584358,0 0,18.082574 0.01802,0 -0.0013,0.0013 4.252166,4.026981 18.583981,0 0,-18.07563 0.0097,-0.01114 -4.275385,-4.026982 z m -17.106207,1.088616 16.028847,0 0,2.943938 -12.434809,0 z m 17.103421,0.068 3.075891,2.875938 -3.076422,0 z m -17.510005,0.885921 3.194089,2.743499 0,0.0069 0,12.205556 -3.194089,0 z m 4.303116,3.112003 12.132293,0 0,11.843996 -12.132293,0 z m 13.206358,0 3.158287,0 0,14.788 -3.157778,-2.830141 z m -17.372125,12.83091 3.056696,0.09991 4.42e-4,2.668268 z m 4.165745,0.09991 12.620741,0 3.334534,2.908181 -15.955297,0 z"
     inkscape:connector-curvature="0" />
  <circle
     style="fill:#ffffff;stroke:none"
     cx="20.334999"
     cy="25.356001"
     id="path3754"
     r="1.5" />
  <circle
     style="fill:#ffffff;stroke:none"
     cx="24.315479"
     cy="25.356001"
     id="path3756"
     r="1.5" />
  <circle
     style="fill:#ffffff;stroke:none"
     cx="28.295958"
     cy="25.356001"
     id="path3758"
     r="1.5" />
</svg>
