<?xml version="1.0" encoding="UTF-8" standalone="no"?>
<svg
   xmlns:dc="http://purl.org/dc/elements/1.1/"
   xmlns:cc="http://creativecommons.org/ns#"
   xmlns:rdf="http://www.w3.org/1999/02/22-rdf-syntax-ns#"
   xmlns:svg="http://www.w3.org/2000/svg"
   xmlns="http://www.w3.org/2000/svg"
   xmlns:sodipodi="http://sodipodi.sourceforge.net/DTD/sodipodi-0.dtd"
   xmlns:inkscape="http://www.inkscape.org/namespaces/inkscape"
   width="48"
   version="1.1"
   height="48"
   id="svg8656"
   inkscape:version="0.91 r13725"
   sodipodi:docname="folder-gimp.svg">
  <metadata
     id="metadata8676">
    <rdf:RDF>
      <cc:Work
         rdf:about="">
        <dc:format>image/svg+xml</dc:format>
        <dc:type
           rdf:resource="http://purl.org/dc/dcmitype/StillImage" />
      </cc:Work>
    </rdf:RDF>
  </metadata>
  <defs
     id="defs8674" />
  <sodipodi:namedview
     pagecolor="#ffffff"
     bordercolor="#666666"
     borderopacity="1"
     objecttolerance="10"
     gridtolerance="10"
     guidetolerance="10"
     inkscape:pageopacity="0"
     inkscape:pageshadow="2"
     inkscape:window-width="640"
     inkscape:window-height="480"
     id="namedview8672"
     showgrid="false"
     inkscape:zoom="14.9375"
     inkscape:cx="23.062761"
     inkscape:cy="25.740586"
     inkscape:current-layer="svg8656" />
  <path
     style="opacity:.65;fill:#fff;stroke:none"
     id="rect4154"
     d="m 3,1.959 0,9.342 42,0 0,-6.9866 -22,0 0,-2.3555 z" />
  <rect
     style="stroke:none;fill:#444444;fill-opacity:1"
     id="folderTab"
     height="11.773318"
     y="2.9586298"
     x="4"
     width="18" />
  <rect
     style="stroke:none;fill:#444444;fill-opacity:1"
     id="folderBackground"
     height="35.319954"
     y="5.313652"
     x="4"
     width="40" />
  <rect
     id="folderPaper"
     style="fill:#ffffff;stroke:none"
     height="32.965004"
     y="7.6680799"
     x="6"
     width="35.999992" />
  <rect
     id="folderFront"
     style="fill:#3498db;stroke:none"
     height="32.965298"
     y="10.022959"
     x="2"
     width="43.999996" />
  <rect
     width="35.999992"
     x="6"
     y="7.6680799"
     height="32.965004"
     style="fill:#ffffff;stroke:none"
     id="rect3849" />
  <rect
     width="43.999996"
     x="2"
     y="10.022959"
     height="32.965298"
     style="fill:#f0544c;stroke:none;fill-opacity:1"
     id="rect3851" />
  <rect
     width="30"
     x="9.380971"
     y="11.101083"
     height="30"
     style="fill:none;stroke:none"
     id="rect3265" />
  <path
     style="fill:#ffffff;stroke:none"
     id="path3001"
     d="m 35.904854,13.040161 c -0.12572,0.05741 -0.272672,0.239528 -0.374326,0.544475 -0.228927,0.686784 -1.607223,4.831731 -8.541442,6.261455 a 3.9148472,3.9148472 0 0 1 1.327156,2.99461 3.9160014,3.9160014 0 0 1 -7.826819,0 3.9148472,3.9148472 0 0 1 0.98686,-2.552224 C 17.113682,19.80614 15.214827,15.898652 15.214827,15.898652 l -0.102143,4.083558 a 3.1172466,3.1172466 0 0 1 5.104447,2.382076 3.1172466,3.1172466 0 0 1 -3.777291,3.062668 c 0.698159,1.871555 0.421277,3.755687 -0.850741,4.764151 -0.251593,0.199465 -0.521561,0.333397 -0.816712,0.442386 4.451187,2.89877 11.743986,5.115195 16.674529,1.803571 1.004736,0.557524 2.110437,1.108822 3.164757,1.531334 0.0024,0.07975 0.01324,0.167636 0.03403,0.238208 l 0.340296,-0.102144 c 0.07038,0.02613 0.134322,0.04337 0.204178,0.06806 l 0.102144,0.102143 2.552278,0.95283 c 0.0012,0.792934 0.456027,1.635373 1.429245,2.00775 1.92793,0.737676 3.709232,1.667452 3.709232,1.667452 -0.919647,-3.121733 -1.23783,-5.597251 -3.641173,-5.376684 -0.312433,0.02867 -0.565402,0.12772 -0.782681,0.272237 l -2.314017,-1.497305 -0.238207,0 c -0.0352,-0.02191 -0.06646,-0.04634 -0.102089,-0.06806 l -0.102144,-0.374381 c -0.06626,0.0415 -0.132568,0.138482 -0.204177,0.204178 -0.738957,-0.426636 -1.540482,-0.825871 -2.348046,-1.191037 2.629855,-2.98825 4.075957,-8.33035 3.096698,-17.219003 -0.04795,-0.375776 -0.156708,-0.589448 -0.306267,-0.612534 -0.0374,-0.0058 -0.09422,-0.01913 -0.136119,0 z m -20.79217,6.942049 a 3.1172466,3.1172466 0 0 0 -1.122979,2.245957 c 0.401041,0.297691 0.806263,0.615611 1.157008,1.020889 0.211805,-0.86165 -0.06806,-1.531334 -0.06806,-1.531334 l 0.03397,-1.735566 z m 6.363599,0.306212 c 0.354122,0.03915 0.701865,0.04361 1.088949,0.03403 1.679551,-0.04214 3.147541,-0.213258 4.423854,-0.476415 a 3.9148472,3.9148472 0 0 0 -5.512803,0.442385 z m -4.015499,0.374381 a 2.0137821,2.0137821 0 0 0 -1.871631,2.007749 2.0247696,2.0247696 0 0 0 4.049529,0 2.0137821,2.0137821 0 0 0 -2.177898,-2.007749 z m -7.146226,0.714568 c -0.5655264,0.05386 -1.0863619,0.259756 -1.5313347,0.612534 -1.5821228,1.254317 -1.5038383,4.00499 0.2041779,6.159367 1.7080158,2.154376 4.3730658,2.887739 5.9551888,1.633423 1.582123,-1.254317 1.503838,-4.00499 -0.204178,-6.159367 -1.067507,-1.346485 -2.52757,-2.149073 -3.84535,-2.245957 -0.197667,-0.01454 -0.389995,-0.01796 -0.578504,0 z m 14.598665,0.408356 a 2.0137821,2.0137821 0 0 0 -1.871631,2.007749 2.0137821,2.0137821 0 1 0 4.015499,0 2.0137821,2.0137821 0 0 0 -2.143868,-2.007749 z"
     inkscape:connector-curvature="0" />
</svg>
