<?xml version="1.0" encoding="UTF-8" standalone="no"?>
<svg
   xmlns:dc="http://purl.org/dc/elements/1.1/"
   xmlns:cc="http://creativecommons.org/ns#"
   xmlns:rdf="http://www.w3.org/1999/02/22-rdf-syntax-ns#"
   xmlns:svg="http://www.w3.org/2000/svg"
   xmlns="http://www.w3.org/2000/svg"
   xmlns:sodipodi="http://sodipodi.sourceforge.net/DTD/sodipodi-0.dtd"
   xmlns:inkscape="http://www.inkscape.org/namespaces/inkscape"
   width="48"
   version="1.1"
   height="48"
   id="svg9201"
   inkscape:version="0.91 r13725"
   sodipodi:docname="folder-movie.svg">
  <metadata
     id="metadata9220">
    <rdf:RDF>
      <cc:Work
         rdf:about="">
        <dc:format>image/svg+xml</dc:format>
        <dc:type
           rdf:resource="http://purl.org/dc/dcmitype/StillImage" />
      </cc:Work>
    </rdf:RDF>
  </metadata>
  <defs
     id="defs9218" />
  <sodipodi:namedview
     pagecolor="#ffffff"
     bordercolor="#666666"
     borderopacity="1"
     objecttolerance="10"
     gridtolerance="10"
     guidetolerance="10"
     inkscape:pageopacity="0"
     inkscape:pageshadow="2"
     inkscape:window-width="640"
     inkscape:window-height="480"
     id="namedview9216"
     showgrid="false"
     inkscape:zoom="14.9375"
     inkscape:cx="15.16318"
     inkscape:cy="23.866109"
     inkscape:current-layer="svg9201" />
  <path
     style="opacity:.65;fill:#fff;stroke:none"
     id="rect4154"
     d="m 3,1.959 0,9.342 42,0 0,-6.9866 -22,0 0,-2.3555 z" />
  <rect
     style="stroke:none;fill:#444444;fill-opacity:1"
     id="folderTab"
     height="11.773318"
     y="2.9586298"
     x="4"
     width="18" />
  <rect
     style="stroke:none;fill:#444444;fill-opacity:1"
     id="folderBackground"
     height="35.319954"
     y="5.313652"
     x="4"
     width="40" />
  <rect
     id="folderPaper"
     style="fill:#ffffff;stroke:none"
     height="32.965004"
     y="7.6680799"
     x="6"
     width="35.999992" />
  <rect
     id="folderFront"
     style="fill:#3498db;stroke:none"
     height="32.965298"
     y="10.022959"
     x="2"
     width="43.999996" />
  <rect
     width="35.999992"
     x="6"
     y="7.6680799"
     height="32.965004"
     style="fill:#ffffff;stroke:none"
     id="rect3849" />
  <rect
     width="43.999996"
     x="2"
     y="10.022959"
     height="32.965298"
     style="fill:#f0544c;stroke:none;fill-opacity:1"
     id="rect3851" />
  <rect
     width="30"
     x="9.380971"
     y="11.101083"
     height="30"
     style="fill:none;stroke:none"
     id="rect3265" />
  <path
     style="fill:#ffffff;stroke:none"
     id="path39063"
     d="m 31.649,14.2547 c 0.216586,0.0279 0.406463,0.181944 0.46875,0.40625 l 0.875,3.1562 c 0.08305,0.299075 -0.107175,0.604451 -0.40625,0.6875 l -15.25,4.25 15.8125,0 c 0.322645,0 0.5625,0.209871 0.5625,0.5 l 0,11.8125 c 0,0.290129 -0.239855,0.5 -0.5625,0.5 l -18.2812,0 c -0.322645,0 -0.59375,-0.209871 -0.59375,-0.5 l 0,-11.8125 c 0,-0.07253 0.03311,-0.124803 0.0625,-0.1875 -0.0084,-0.02052 -0.02516,-0.04059 -0.03125,-0.0625 l -0.875,-3.1562 c -0.08305,-0.299075 0.07592,-0.604451 0.375,-0.6875 l 17.625,-4.875 c 0.07477,-0.02076 0.146555,-0.04055 0.21875,-0.03125 z"
     inkscape:connector-curvature="0" />
</svg>
