<?xml version="1.0" encoding="UTF-8" standalone="no"?>
<svg
   xmlns:dc="http://purl.org/dc/elements/1.1/"
   xmlns:cc="http://creativecommons.org/ns#"
   xmlns:rdf="http://www.w3.org/1999/02/22-rdf-syntax-ns#"
   xmlns:svg="http://www.w3.org/2000/svg"
   xmlns="http://www.w3.org/2000/svg"
   xmlns:sodipodi="http://sodipodi.sourceforge.net/DTD/sodipodi-0.dtd"
   xmlns:inkscape="http://www.inkscape.org/namespaces/inkscape"
   width="48"
   version="1.1"
   height="48"
   id="svg10905"
   inkscape:version="0.91 r13725"
   sodipodi:docname="folder-younited.svg">
  <metadata
     id="metadata10924">
    <rdf:RDF>
      <cc:Work
         rdf:about="">
        <dc:format>image/svg+xml</dc:format>
        <dc:type
           rdf:resource="http://purl.org/dc/dcmitype/StillImage" />
      </cc:Work>
    </rdf:RDF>
  </metadata>
  <defs
     id="defs10922" />
  <sodipodi:namedview
     pagecolor="#ffffff"
     bordercolor="#666666"
     borderopacity="1"
     objecttolerance="10"
     gridtolerance="10"
     guidetolerance="10"
     inkscape:pageopacity="0"
     inkscape:pageshadow="2"
     inkscape:window-width="640"
     inkscape:window-height="480"
     id="namedview10920"
     showgrid="false"
     inkscape:zoom="14.9375"
     inkscape:cx="22.326359"
     inkscape:cy="24.535565"
     inkscape:current-layer="svg10905" />
  <path
     style="opacity:.65;fill:#fff;stroke:none"
     id="rect4154"
     d="m 3,1.959 0,9.342 42,0 0,-6.9866 -22,0 0,-2.3555 z" />
  <rect
     style="stroke:none;fill:#444444;fill-opacity:1"
     id="folderTab"
     height="11.773318"
     y="2.9586298"
     x="4"
     width="18" />
  <rect
     style="stroke:none;fill:#444444;fill-opacity:1"
     id="folderBackground"
     height="35.319954"
     y="5.313652"
     x="4"
     width="40" />
  <rect
     id="folderPaper"
     style="fill:#ffffff;stroke:none"
     height="32.965004"
     y="7.6680799"
     x="6"
     width="35.999992" />
  <rect
     id="folderFront"
     style="fill:#f0544c;stroke:none;fill-opacity:1"
     height="32.965298"
     y="10.022959"
     x="2"
     width="43.999996" />
  <path
     style="color:#000000;fill:#f0544c;stroke:none;stroke-width:2;fill-opacity:1"
     id="path3814"
     d="m 14.4173,35.2663 c -1.69051,-0.07339 -2.97113,-0.246921 -3.66286,-0.496348 -1.1059,-0.398773 -2.07238,-1.39587 -2.53141,-2.61162 -0.228768,-0.605888 -0.318997,-1.11326 -0.318997,-1.79376 0,-1.42786 0.473423,-2.60131 1.48851,-3.6895 0.934783,-1.0021 1.3179,-1.13323 3.93921,-1.34833 0.667884,-0.05481 1.28471,-0.109704 1.37073,-0.121997 l 0.1564,-0.0223 0,-1.10427 c 0,-1.61282 0.08321,-2.32781 0.386588,-3.32183 0.304836,-0.998796 0.728218,-1.77234 1.32287,-2.41695 0.694988,-0.75338 1.37281,-1.12836 2.25907,-1.24976 1.46041,-0.200036 3.22705,0.879501 3.93454,2.40428 0.334622,0.721177 0.541192,1.82104 0.633253,3.37172 0.07132,1.20139 0.0344,4.62794 -0.07376,6.84465 -0.06568,1.34611 -0.186063,2.21515 -0.372676,2.69034 -0.201496,0.513088 -0.697599,1.13289 -1.28142,1.60094 -0.402621,0.322778 -1.07614,0.720189 -1.45498,0.858507 -0.255824,0.0934 -0.874794,0.220296 -1.37929,0.282757 -0.966724,0.119692 -3.11791,0.17987 -4.41577,0.12353 z"
     inkscape:connector-curvature="0" />
  <path
     inkscape:connector-curvature="0"
     d="M 10.486,35.3851 C 8.76497,34.489897 7.7098,32.85977 7.51025,30.78788 7.165741,27.21084 9.29833,24.55813 12.52096,24.55509 l 1.6733,-0.0017 0.1596,-2.2518 c 0.09205,-1.29906 0.455337,-2.72597 0.858607,-3.37241 1.47572,-2.36558 4.45823,-3.08813 6.55905,-1.58901 1.95928,1.39812 2.27817,2.66692 2.27817,9.06462 0,5.58012 -0.02109,5.73244 -0.977778,7.06306 -0.537779,0.747966 -1.50913,1.61977 -2.15856,1.93733 -1.5766,0.770947 -8.93373,0.756724 -10.4273,-0.02015 z m 9.6118,-0.6741 c 0.711037,-0.231161 1.68762,-0.911593 2.17018,-1.51207 0.806681,-1.0038 0.887336,-1.489 1.00091,-6.02118 0.151414,-6.042 -0.217539,-7.73371 -1.96183,-8.99536 -3.02327,-2.18673 -6.29988,0.653057 -6.29988,5.46002 l 0,1.65593 -2.1876,0.1852 c -1.83161,0.155055 -2.36308,0.390601 -3.26625,1.44759 -2.16824,2.53755 -1.40024,6.48782 1.48767,7.6519 1.53808,0.61998 7.29327,0.701318 9.05675,0.127998 z"
     id="path2996"
     style="fill:#ffffff" />
  <path
     inkscape:connector-curvature="0"
     d="m 33.5827,35.483 c 1.69051,-0.07339 2.97113,-0.246921 3.66286,-0.496348 1.1059,-0.398773 2.07238,-1.39587 2.53141,-2.61162 0.228768,-0.605888 0.318997,-1.11326 0.318997,-1.79376 0,-1.42786 -0.473423,-2.60131 -1.48851,-3.6895 -0.934783,-1.0021 -1.3179,-1.13323 -3.93921,-1.34833 -0.667885,-0.05481 -1.28471,-0.109704 -1.37073,-0.121998 l -0.1564,-0.0223 0,-1.10427 c 0,-1.61282 -0.08321,-2.32781 -0.386588,-3.32183 -0.304836,-0.998797 -0.728219,-1.77234 -1.32287,-2.41695 -0.694988,-0.75338 -1.37281,-1.12836 -2.25907,-1.24975 -1.46041,-0.200037 -3.22705,0.8795 -3.93454,2.40428 -0.334622,0.721177 -0.541192,1.82104 -0.633253,3.37172 -0.07133,1.20139 -0.0344,4.62794 0.07376,6.84465 0.06568,1.34611 0.186062,2.21515 0.372676,2.69034 0.201496,0.513089 0.697599,1.13289 1.28142,1.60094 0.40262,0.322778 1.07614,0.720188 1.45498,0.858507 0.255825,0.0934 0.874794,0.220295 1.37929,0.282757 0.966724,0.119691 3.11791,0.179869 4.41577,0.123529 z"
     id="path3828"
     style="color:#000000;fill:#f0544c;stroke:none;stroke-width:2;fill-opacity:1" />
  <path
     inkscape:connector-curvature="0"
     d="m 37.514,35.6019 c 1.72103,-0.895202 2.7762,-2.52533 2.97575,-4.59722 0.344509,-3.57704 -1.78808,-6.22975 -5.01071,-6.23279 l -1.6733,-0.0017 -0.1596,-2.2518 c -0.09205,-1.29906 -0.455337,-2.72597 -0.858607,-3.37241 -1.47572,-2.36558 -4.45823,-3.08813 -6.55905,-1.58901 -1.95928,1.39812 -2.27817,2.66692 -2.27817,9.06462 0,5.58012 0.02109,5.73244 0.977778,7.06306 0.537778,0.747965 1.50913,1.61977 2.15856,1.93733 1.5766,0.770946 8.93372,0.756723 10.4273,-0.02015 z m -9.6118,-0.6741 c -0.711038,-0.23116 -1.68762,-0.911592 -2.17018,-1.51207 -0.806681,-1.0038 -0.887336,-1.489 -1.00091,-6.02118 -0.151414,-6.042 0.217538,-7.73371 1.96183,-8.99536 3.02327,-2.18673 6.29988,0.653057 6.29988,5.46001 l 0,1.65593 2.1876,0.1852 c 1.83161,0.155056 2.36308,0.390602 3.26625,1.44759 2.16824,2.53755 1.40024,6.48782 -1.48767,7.6519 -1.53808,0.619981 -7.29327,0.701318 -9.05675,0.127998 z"
     id="path3830"
     style="fill:#ffffff" />
</svg>
