<?xml version="1.0" encoding="UTF-8" standalone="no"?>
<svg
   xmlns:dc="http://purl.org/dc/elements/1.1/"
   xmlns:cc="http://creativecommons.org/ns#"
   xmlns:rdf="http://www.w3.org/1999/02/22-rdf-syntax-ns#"
   xmlns:svg="http://www.w3.org/2000/svg"
   xmlns="http://www.w3.org/2000/svg"
   xmlns:sodipodi="http://sodipodi.sourceforge.net/DTD/sodipodi-0.dtd"
   xmlns:inkscape="http://www.inkscape.org/namespaces/inkscape"
   width="48"
   version="1.1"
   height="48"
   id="svg4146"
   inkscape:version="0.91 r13725"
   sodipodi:docname="folder-temp.svg">
  <metadata
     id="metadata4160">
    <rdf:RDF>
      <cc:Work
         rdf:about="">
        <dc:format>image/svg+xml</dc:format>
        <dc:type
           rdf:resource="http://purl.org/dc/dcmitype/StillImage" />
      </cc:Work>
    </rdf:RDF>
  </metadata>
  <defs
     id="defs4158" />
  <sodipodi:namedview
     pagecolor="#ffffff"
     bordercolor="#666666"
     borderopacity="1"
     objecttolerance="10"
     gridtolerance="10"
     guidetolerance="10"
     inkscape:pageopacity="0"
     inkscape:pageshadow="2"
     inkscape:window-width="640"
     inkscape:window-height="480"
     id="namedview4156"
     showgrid="false"
     inkscape:zoom="14.9375"
     inkscape:cx="21.656903"
     inkscape:cy="24.736402"
     inkscape:current-layer="svg4146" />
  <path
     style="opacity:.65;fill:#fff;stroke:none"
     id="rect4154"
     d="m 3,1.959 0,9.342 42,0 0,-6.9866 -22,0 0,-2.3555 z" />
  <rect
     style="stroke:none;fill:#444444;fill-opacity:1"
     width="18"
     x="4"
     y="2.9586298"
     height="11.773318"
     id="folderTab" />
  <rect
     style="stroke:none;fill:#444444;fill-opacity:1"
     width="40"
     x="4"
     y="5.313652"
     height="35.319954"
     id="folderBackground" />
  <rect
     width="35.999992"
     x="6"
     y="7.6680799"
     height="32.965004"
     style="fill:#ffffff;stroke:none"
     id="folderPaper" />
  <rect
     width="43.999996"
     x="2"
     y="10.022959"
     height="32.965298"
     style="fill:#f0544c;stroke:none;fill-opacity:1"
     id="folderFront" />
  <path
     inkscape:connector-curvature="0"
     d="m 24.0687,16.9951 c -2.62764,1.56e-4 -5.23791,1.08121 -7.09455,2.93713 -1.85665,1.85592 -2.93766,4.46384 -2.93766,7.08827 0,2.62443 1.08101,5.23235 2.93766,7.08827 1.85665,1.85592 4.46692,2.93697 7.09455,2.93713 2.62764,1.55e-4 5.23946,-1.07989 7.09847,-2.93583 1.85901,-1.85593 2.94158,-4.46485 2.94158,-7.08958 0,-2.62473 -1.08256,-5.23365 -2.94158,-7.08958 -1.85901,-1.85593 -4.47084,-2.93598 -7.09847,-2.93582 z m 0,2.6734 c 1.92693,-1.15e-4 3.84296,0.791571 5.20624,2.15259 1.36328,1.36102 2.15751,3.27457 2.15751,5.19937 0,1.9248 -0.794228,3.83836 -2.15751,5.19937 -1.36328,1.36102 -3.27931,2.1527 -5.20624,2.15259 -1.92693,-1.15e-4 -3.84078,-0.792885 -5.20232,-2.15389 -1.36154,-1.36101 -2.15359,-3.27349 -2.15359,-5.19807 0,-1.92459 0.792047,-3.83706 2.15359,-5.19807 1.36154,-1.36101 3.27539,-2.15378 5.20232,-2.15389 z m -1.3342,1.3367 0,7.352 1.3382,0 1.3381,0 4.6835,0 0,-2.6734 -4.6835,0 0,-4.6785 -2.6763,0 z"
     id="path3272"
     style="fill:#ffffff;fill-rule:evenodd;stroke:none" />
</svg>
