<?xml version="1.0" encoding="UTF-8" standalone="no"?>
<svg
   xmlns:dc="http://purl.org/dc/elements/1.1/"
   xmlns:cc="http://creativecommons.org/ns#"
   xmlns:rdf="http://www.w3.org/1999/02/22-rdf-syntax-ns#"
   xmlns:svg="http://www.w3.org/2000/svg"
   xmlns="http://www.w3.org/2000/svg"
   xmlns:sodipodi="http://sodipodi.sourceforge.net/DTD/sodipodi-0.dtd"
   xmlns:inkscape="http://www.inkscape.org/namespaces/inkscape"
   width="48"
   version="1.1"
   height="48"
   id="svg5267"
   inkscape:version="0.91 r13725"
   sodipodi:docname="folder-print.svg">
  <metadata
     id="metadata5281">
    <rdf:RDF>
      <cc:Work
         rdf:about="">
        <dc:format>image/svg+xml</dc:format>
        <dc:type
           rdf:resource="http://purl.org/dc/dcmitype/StillImage" />
      </cc:Work>
    </rdf:RDF>
  </metadata>
  <defs
     id="defs5279" />
  <sodipodi:namedview
     pagecolor="#ffffff"
     bordercolor="#666666"
     borderopacity="1"
     objecttolerance="10"
     gridtolerance="10"
     guidetolerance="10"
     inkscape:pageopacity="0"
     inkscape:pageshadow="2"
     inkscape:window-width="640"
     inkscape:window-height="480"
     id="namedview5277"
     showgrid="false"
     inkscape:zoom="14.9375"
     inkscape:cx="24.669456"
     inkscape:cy="25.004184"
     inkscape:current-layer="svg5267" />
  <path
     style="opacity:.65;fill:#fff;stroke:none"
     id="rect4154"
     d="m 3,1.959 0,9.342 42,0 0,-6.9866 -22,0 0,-2.3555 z" />
  <rect
     style="stroke:none;fill:#444444;fill-opacity:1"
     width="18"
     x="4"
     y="2.9586298"
     height="11.773318"
     id="folderTab" />
  <rect
     style="stroke:none;fill:#444444;fill-opacity:1"
     width="40"
     x="4"
     y="5.313652"
     height="35.319954"
     id="folderBackground" />
  <rect
     width="35.999992"
     x="6"
     y="7.6680799"
     height="32.965004"
     style="fill:#ffffff;stroke:none"
     id="folderPaper" />
  <rect
     width="43.999996"
     x="2"
     y="10.022959"
     height="32.965298"
     style="fill:#f0544c;stroke:none;fill-opacity:1"
     id="folderFront" />
  <path
     inkscape:connector-curvature="0"
     d="m 17.8867,15.6626 c -0.93026,0 -1.67917,0.86413 -1.67917,1.9375 l 0,7.10417 -0.559717,0 c -0.930267,0 -1.67917,0.86413 -1.67917,1.93749 l 0,6.45835 c 0,1.07337 0.748904,1.93748 1.67917,1.93748 l 0.559717,0 0,1.93751 c 0,1.07338 0.748911,1.9375 1.67917,1.9375 l 12.3139,0 c 0.93026,0 1.67917,-0.864123 1.67917,-1.9375 l 0,-1.93751 0.559717,0 c 0.930267,0 1.67917,-0.864115 1.67917,-1.93748 l 0,-6.45835 c 0,-1.07336 -0.748904,-1.93749 -1.67917,-1.93749 l -0.524735,0 -0.03497,0 0,-7.10417 c 0,-1.07337 -0.748904,-1.9375 -1.67916,-1.9375 z m 0.3964,1.233 11.3102,0 c 1.27931,0 1.27931,0 1.27931,1.22889 l 0,6.43359 0,1.47118 -13.6786,0 0,-1.54425 0,-6.38377 c 0,-1.20563 0,-1.20563 1.08916,-1.20563 z m 10.798,11.6836 c 0.30897,0 0.559723,0.289341 0.559723,0.645833 0,0.356491 -0.250753,0.645841 -0.559723,0.645841 -0.30897,0 -0.559731,-0.28935 -0.559731,-0.645841 0,-0.356492 0.250761,-0.645833 0.559731,-0.645833 z m 2.2389,0 c 0.30897,0 0.559724,0.289341 0.559724,0.645833 0,0.356491 -0.250754,0.645841 -0.559724,0.645841 -0.308964,0 -0.559717,-0.28935 -0.559717,-0.645841 0,-0.356492 0.250747,-0.645833 0.559717,-0.645833 z m -14.1261,5.1654 13.6786,0 0,1.8234 0,1.4324 c 0,0.658684 0,0.658684 -0.660229,0.658684 l -12.3224,0 c -0.696042,0 -0.696042,0 -0.696042,-0.71355 l 0,-1.77993 z"
     id="path3738-0"
     style="fill:#ffffff;stroke:none" />
</svg>
