<?xml version="1.0" encoding="UTF-8" standalone="no"?>
<svg
   xmlns:dc="http://purl.org/dc/elements/1.1/"
   xmlns:cc="http://creativecommons.org/ns#"
   xmlns:rdf="http://www.w3.org/1999/02/22-rdf-syntax-ns#"
   xmlns:svg="http://www.w3.org/2000/svg"
   xmlns="http://www.w3.org/2000/svg"
   xmlns:sodipodi="http://sodipodi.sourceforge.net/DTD/sodipodi-0.dtd"
   xmlns:inkscape="http://www.inkscape.org/namespaces/inkscape"
   width="48"
   version="1.1"
   height="48"
   id="svg8101"
   inkscape:version="0.91 r13725"
   sodipodi:docname="folder-fedora.svg">
  <metadata
     id="metadata8114">
    <rdf:RDF>
      <cc:Work
         rdf:about="">
        <dc:format>image/svg+xml</dc:format>
        <dc:type
           rdf:resource="http://purl.org/dc/dcmitype/StillImage" />
      </cc:Work>
    </rdf:RDF>
  </metadata>
  <sodipodi:namedview
     pagecolor="#ffffff"
     bordercolor="#666666"
     borderopacity="1"
     objecttolerance="10"
     gridtolerance="10"
     guidetolerance="10"
     inkscape:pageopacity="0"
     inkscape:pageshadow="2"
     inkscape:window-width="640"
     inkscape:window-height="480"
     id="namedview8112"
     showgrid="false"
     inkscape:zoom="14.9375"
     inkscape:cx="21.121339"
     inkscape:cy="25.405858"
     inkscape:current-layer="svg8101" />
  <path
     style="opacity:.65;fill:#fff;stroke:none"
     id="rect4154"
     d="m 3,1.959 0,9.342 42,0 0,-6.9866 -22,0 0,-2.3555 z" />
  <defs
     id="defs12" />
  <rect
     style="stroke:none;fill:#444444;fill-opacity:1"
     width="18"
     x="4"
     y="2.9586298"
     height="11.773318"
     id="folderTab" />
  <rect
     style="stroke:none;fill:#444444;fill-opacity:1"
     width="40"
     x="4"
     y="5.313652"
     height="35.319954"
     id="folderBackground" />
  <rect
     width="35.999992"
     x="6"
     y="7.6680799"
     height="32.965004"
     style="fill:#ffffff;stroke:none"
     id="folderPaper" />
  <rect
     width="43.999996"
     x="2"
     y="10.022959"
     height="32.965298"
     style="fill:#f0544c;stroke:none;fill-opacity:1"
     id="folderFront" />
  <path
     style="fill:#fff;stroke:none"
     id="path4175"
     d="m 24,13.5584 c -6.77277,0 -12.2452,5.47817 -12.25,12.25 v 9.5 c 0.0036,1.53759 1.27395,2.78125 2.8125,2.78125 h 9.4375 c 6.77356,-0.0027 12.25,-5.50718 12.25,-12.2812 0,-6.77587 -5.47418,-12.25 -12.25,-12.25 z  m 3.5625,2.875 c 3.16216,0 5.75,2.58784 5.75,5.75 0,3.16216 -2.58784,5.75 -5.75,5.75 h -2.875 v 3.09375 c 0,3.16216 -2.58784,5.75 -5.75,5.75 -3.16216,0 -5.75,-2.58784 -5.75,-5.75 0,-3.16216 2.58784,-5.75 5.75,-5.75 h 2.875 v -3.09375 c 0,-3.16216 2.58784,-5.75 5.75,-5.75 z  m 0,2.6875 c -1.70566,0 -3.0625,1.35684 -3.0625,3.0625 v 3.0625 h 3.0625 c 1.70566,0 3.0625,-1.35684 3.0625,-3.0625 0,-1.70566 -1.35684,-3.0625 -3.0625,-3.0625 z  m -8.625,8.8438 c -1.70566,0 -3.0625,1.35684 -3.0625,3.0625 0,1.70566 1.35684,3.0625 3.0625,3.0625 1.70566,0 3.0625,-1.35684 3.0625,-3.0625 v -3.0625 h -3.0625 z " />
</svg>
