<?xml version="1.0" encoding="UTF-8" standalone="no"?>
<svg
   xmlns:dc="http://purl.org/dc/elements/1.1/"
   xmlns:cc="http://creativecommons.org/ns#"
   xmlns:rdf="http://www.w3.org/1999/02/22-rdf-syntax-ns#"
   xmlns:svg="http://www.w3.org/2000/svg"
   xmlns="http://www.w3.org/2000/svg"
   xmlns:sodipodi="http://sodipodi.sourceforge.net/DTD/sodipodi-0.dtd"
   xmlns:inkscape="http://www.inkscape.org/namespaces/inkscape"
   width="48"
   version="1.1"
   height="48"
   id="svg7539"
   inkscape:version="0.91 r13725"
   sodipodi:docname="folder-feathernotes.svg">
  <metadata
     id="metadata7559">
    <rdf:RDF>
      <cc:Work
         rdf:about="">
        <dc:format>image/svg+xml</dc:format>
        <dc:type
           rdf:resource="http://purl.org/dc/dcmitype/StillImage" />
      </cc:Work>
    </rdf:RDF>
  </metadata>
  <defs
     id="defs7557" />
  <sodipodi:namedview
     pagecolor="#ffffff"
     bordercolor="#666666"
     borderopacity="1"
     objecttolerance="10"
     gridtolerance="10"
     guidetolerance="10"
     inkscape:pageopacity="0"
     inkscape:pageshadow="2"
     inkscape:window-width="640"
     inkscape:window-height="480"
     id="namedview7555"
     showgrid="false"
     inkscape:zoom="14.9375"
     inkscape:cx="19.715481"
     inkscape:cy="25.606695"
     inkscape:current-layer="svg7539" />
  <path
     style="opacity:.65;fill:#fff;stroke:none"
     id="rect4154"
     d="m 3,1.959 0,9.342 42,0 0,-6.9866 -22,0 0,-2.3555 z" />
  <rect
     style="stroke:none;fill:#444444;fill-opacity:1"
     id="folderTab"
     height="11.773318"
     y="2.9586298"
     x="4"
     width="18" />
  <rect
     style="stroke:none;fill:#444444;fill-opacity:1"
     id="folderBackground"
     height="35.319954"
     y="5.313652"
     x="4"
     width="40" />
  <rect
     id="folderPaper"
     style="fill:#ffffff;stroke:none"
     height="32.965004"
     y="7.6680799"
     x="6"
     width="35.999992" />
  <rect
     id="folderFront"
     style="fill:#3498db;stroke:none"
     height="32.965298"
     y="10.022959"
     x="2"
     width="43.999996" />
  <rect
     width="35.999992"
     x="6"
     y="7.6680799"
     height="32.965004"
     style="fill:#ffffff;stroke:none"
     id="rect3849" />
  <rect
     width="43.999996"
     x="2"
     y="10.022959"
     height="32.965298"
     style="fill:#f0544c;stroke:none;fill-opacity:1"
     id="rect3851" />
  <rect
     width="30"
     x="9.380971"
     y="11.101083"
     height="30"
     style="fill:none;stroke:none"
     id="rect3265" />
  <path
     style="fill:#ffffff;stroke:none"
     id="path39063"
     d="m 26.181105,12.488428 c 2.40827,0.02719 5.95815,0.364471 7.921979,0.806869 l 0.146703,1.06354 c 1.097272,-1.404749 4.887861,0.792891 8.288737,2.493956 -4.631775,-0.742555 -8.724422,-0.792979 -10.415935,2.347253 -3.553976,-1.221534 -4.700879,0.508063 -0.660165,0.513462 -1.807302,1.649297 -3.796118,3.104664 -5.207967,5.244643 -4.453209,-1.827994 -1.665576,0.243488 -0.183379,0.843544 0,0 -0.966066,0.641673 -1.797116,2.934066 -1.082531,2.986082 -2.678591,2.09605 -3.667583,1.136951 -2.102,-2.038472 -2.75314,-2.546722 -0.256731,0.660165 -1.388681,1.931883 -3.684823,3.487713 -7.665248,4.034341 -0.716278,2.397696 -0.953571,4.511127 -0.953571,4.511127 0,0 -1.111712,0.479769 -1.467033,0.733517 -0.3553216,0.253747 -0.7335169,1.100274 -0.7335169,1.100274 l -0.3300238,-0.18332 c 0.5815378,-2.459393 1.4241607,-4.706348 2.4206047,-6.821704 -0.854726,-5.315519 0.05997,-9.600535 1.577061,-12.066289 0.436061,1.497172 0.633959,3.037768 1.503709,4.437775 -2.116401,-9.009766 0.913185,-8.985742 1.540384,-9.645742 0.494901,2.129298 0.931014,4.292726 2.017171,6.381594 -0.585459,-2.122915 -1.034552,-6.476412 -1.026923,-7.005084 0.01309,-0.913939 3.565512,-2.831338 5.648077,-2.970742 0.03824,0.920036 0.176809,1.812913 0.403434,2.677336 0.04568,-1.196465 0.310002,-2.350305 0.366759,-2.897391 0.02771,-0.267055 1.085669,-0.346395 2.530632,-0.330082 z"
     inkscape:connector-curvature="0" />
</svg>
