<?xml version="1.0" encoding="UTF-8" standalone="no"?>
<svg
   xmlns:dc="http://purl.org/dc/elements/1.1/"
   xmlns:cc="http://creativecommons.org/ns#"
   xmlns:rdf="http://www.w3.org/1999/02/22-rdf-syntax-ns#"
   xmlns:svg="http://www.w3.org/2000/svg"
   xmlns="http://www.w3.org/2000/svg"
   xmlns:sodipodi="http://sodipodi.sourceforge.net/DTD/sodipodi-0.dtd"
   xmlns:inkscape="http://www.inkscape.org/namespaces/inkscape"
   width="48"
   version="1.1"
   height="48"
   id="svg6393"
   inkscape:version="0.91 r13725"
   sodipodi:docname="folder-tux.svg">
  <metadata
     id="metadata6413">
    <rdf:RDF>
      <cc:Work
         rdf:about="">
        <dc:format>image/svg+xml</dc:format>
        <dc:type
           rdf:resource="http://purl.org/dc/dcmitype/StillImage" />
      </cc:Work>
    </rdf:RDF>
  </metadata>
  <defs
     id="defs6411" />
  <sodipodi:namedview
     pagecolor="#ffffff"
     bordercolor="#666666"
     borderopacity="1"
     objecttolerance="10"
     gridtolerance="10"
     guidetolerance="10"
     inkscape:pageopacity="0"
     inkscape:pageshadow="2"
     inkscape:window-width="640"
     inkscape:window-height="480"
     id="namedview6409"
     showgrid="false"
     inkscape:zoom="14.9375"
     inkscape:cx="24.401673"
     inkscape:cy="25.405858"
     inkscape:current-layer="svg6393" />
  <path
     style="opacity:.65;fill:#fff;stroke:none"
     id="rect4154"
     d="m 3,1.959 0,9.342 42,0 0,-6.9866 -22,0 0,-2.3555 z" />
  <rect
     style="stroke:none;fill:#444444;fill-opacity:1"
     id="folderTab"
     height="11.773318"
     y="2.9586298"
     x="4"
     width="18" />
  <rect
     style="stroke:none;fill:#444444;fill-opacity:1"
     id="folderBackground"
     height="35.319954"
     y="5.313652"
     x="4"
     width="40" />
  <rect
     id="folderPaper"
     style="fill:#ffffff;stroke:none"
     height="32.965004"
     y="7.6680799"
     x="6"
     width="35.999992" />
  <rect
     id="folderFront"
     style="fill:#3498db;stroke:none"
     height="32.965298"
     y="10.022959"
     x="2"
     width="43.999996" />
  <rect
     width="35.999992"
     x="6"
     y="7.6680799"
     height="32.965004"
     style="fill:#ffffff;stroke:none"
     id="rect3849" />
  <rect
     width="43.999996"
     x="2"
     y="10.022959"
     height="32.965298"
     style="fill:#f0544c;stroke:none;fill-opacity:1"
     id="rect3851" />
  <rect
     width="30"
     x="9.380971"
     y="11.101083"
     height="30"
     style="fill:none;stroke:none"
     id="rect3265" />
  <path
     style="fill:#ffffff;stroke:none"
     id="path3014"
     d="m 24.218334,11.830285 c -5.876364,0 -10.674354,4.30537 -11.571726,10.807556 -0.0049,0.03562 -0.01002,0.08427 -0.03639,0.109168 0,0 -3.8796933,4.041598 -4.3666898,4.512245 0.6477791,0.01634 3.9664098,0.07278 3.9664098,0.07278 0.08149,0.0022 0.134377,0.06598 0.145556,0.145557 0.27619,1.915521 0.921418,3.726206 1.892232,5.349194 0.84019,1.405259 1.89696,2.587433 3.093072,3.529741 -2.821289,0.0454 -5.094471,0.990372 -5.094471,2.146955 0,1.186494 2.392806,2.146956 5.312805,2.146956 2.737053,0 4.969351,-0.845567 5.240027,-1.928621 0.468451,0.06241 0.940677,0.07278 1.419174,0.07278 0.751703,0 1.494573,-0.06456 2.219734,-0.218334 0.243429,1.094452 2.519801,1.928621 5.276417,1.928621 2.920243,0 5.276416,-0.924561 5.276416,-2.110567 0,-1.186016 -2.356173,-2.146955 -5.276416,-2.146955 -0.163065,0 -0.313755,-0.0058 -0.473058,0 1.379582,-1.112733 2.551998,-2.550904 3.420573,-4.257523 0.769038,-1.508557 1.286031,-3.129903 1.491952,-4.839747 0.01001,-0.08052 0.0626,-0.143577 0.145556,-0.145556 0,0 2.815281,-0.05743 3.456963,-0.07278 -0.491876,-0.463813 -3.857242,-3.96641 -3.857242,-3.96641 -0.02733,-0.02611 -0.06765,-0.07184 -0.07278,-0.109167 C 35.001296,16.243471 30.178877,11.830285 24.218334,11.830285 Z m -3.638907,2.256123 c 2.095824,0 3.784464,1.823355 3.784464,4.075577 0,0.0978 0.0063,0.195103 0,0.291112 0,-1.723258 1.663685,-3.12946 3.711686,-3.12946 2.048245,0 3.711686,1.406202 3.711686,3.12946 0,1.723993 -1.663686,3.129461 -3.711686,3.129461 l 0.145556,-0.254782 c 0,0 -1.337814,-0.382087 -2.656403,-0.582225 -0.0043,-0.0034 -0.03208,0.0034 -0.03639,0 -0.710786,-0.569606 -1.16445,-1.402837 -1.16445,-2.292512 -0.05362,0.818579 -0.327026,1.568794 -0.764171,2.183345 -1.494747,0.144905 -3.384184,0.691392 -3.384184,0.691392 l 4.075577,5.785922 3.748133,-5.458362 c 0.74865,0.419275 1.445584,0.950222 2.074177,1.60112 1.832636,1.896412 2.749361,5.53093 2.692792,7.860041 -1.420699,4.004067 -4.642373,6.29531 -8.624211,6.29531 -1.003923,0 -1.978809,-0.154729 -2.874738,-0.436669 -0.127059,-0.05302 -0.260402,-0.06168 -0.400279,-0.109167 -0.01597,-0.0059 -0.02048,-0.03033 -0.03639,-0.03639 -2.198984,-0.829174 -3.948769,-2.541902 -4.876137,-4.985304 -0.182726,-2.039384 0.284759,-5.387854 1.673898,-7.350594 0.652933,-0.923221 1.405317,-1.711567 2.256122,-2.328901 -1.781411,-0.335358 -3.12946,-1.992235 -3.12946,-4.002798 0,-2.252222 1.690106,-4.075577 3.784464,-4.075577 z m 2.183344,2.510788 c -0.824991,0 -1.528341,0.774566 -1.528341,1.673898 0,0.897357 0.70335,1.601119 1.528341,1.601119 0.82499,0 1.491953,-0.703762 1.491953,-1.601119 0,-0.899332 -0.666963,-1.673898 -1.491953,-1.673898 z m 2.76557,0.80056 c -0.568413,0 -1.055283,0.508989 -1.055283,1.128061 0,0.619073 0.48654,1.128062 1.055283,1.128062 0.567757,0 1.018894,-0.509318 1.018894,-1.128062 0,-0.6194 -0.451137,-1.128061 -1.018894,-1.128061 z"
     inkscape:connector-curvature="0" />
</svg>
