<?xml version="1.0" encoding="UTF-8" standalone="no"?>
<svg
   xmlns:dc="http://purl.org/dc/elements/1.1/"
   xmlns:cc="http://creativecommons.org/ns#"
   xmlns:rdf="http://www.w3.org/1999/02/22-rdf-syntax-ns#"
   xmlns:svg="http://www.w3.org/2000/svg"
   xmlns="http://www.w3.org/2000/svg"
   xmlns:sodipodi="http://sodipodi.sourceforge.net/DTD/sodipodi-0.dtd"
   xmlns:inkscape="http://www.inkscape.org/namespaces/inkscape"
   width="48"
   version="1.1"
   height="48"
   id="svg4706"
   inkscape:version="0.91 r13725"
   sodipodi:docname="folder-documents.svg">
  <metadata
     id="metadata4758">
    <rdf:RDF>
      <cc:Work
         rdf:about="">
        <dc:format>image/svg+xml</dc:format>
        <dc:type
           rdf:resource="http://purl.org/dc/dcmitype/StillImage" />
      </cc:Work>
    </rdf:RDF>
  </metadata>
  <defs
     id="defs4756" />
  <sodipodi:namedview
     pagecolor="#ffffff"
     bordercolor="#666666"
     borderopacity="1"
     objecttolerance="10"
     gridtolerance="10"
     guidetolerance="10"
     inkscape:pageopacity="0"
     inkscape:pageshadow="2"
     inkscape:window-width="640"
     inkscape:window-height="480"
     id="namedview4754"
     showgrid="false"
     inkscape:zoom="14.9375"
     inkscape:cx="17.841004"
     inkscape:cy="26.677824"
     inkscape:current-layer="svg4706" />
  <path
     style="opacity:.65;fill:#fff;stroke:none"
     id="rect4154"
     d="m 3,1.959 0,9.342 42,0 0,-6.9866 -22,0 0,-2.3555 z" />
  <rect
     style="stroke:none;fill:#444444;fill-opacity:1"
     width="18"
     x="4"
     y="2.9586298"
     height="11.773318"
     id="folderTab" />
  <rect
     style="stroke:none;fill:#444444;fill-opacity:1"
     width="40"
     x="4"
     y="5.313652"
     height="35.319954"
     id="folderBackground" />
  <rect
     width="35.999992"
     x="6"
     y="7.6680799"
     height="32.965004"
     style="fill:#ffffff;stroke:none"
     id="folderPaper" />
  <rect
     width="43.999996"
     x="2"
     y="10.022959"
     height="32.965298"
     style="fill:#f0544c;stroke:none;fill-opacity:1"
     id="folderFront" />
  <g
     style="font-weight:bold;font-size:10.50872612px;line-height:125%;font-family:TheMixPlain;letter-spacing:0;word-spacing:0;fill:#ffffff"
     id="text25"
     transform="matrix(0.84240964,0,0,0.91660223,2.5129149,5.5615867)">
    <path
       id="path4183"
       d="m 19.2651,18.746 -3.089,0 -0.4875,1.3957 -1.9858,0 2.8376,-7.6609 2.3552,0 2.8376,7.6609 -1.9858,0 -0.4823,-1.3957 z m -2.5964,-1.4213 2.0987,0 -1.0468,-3.0479 -1.0519,3.0479 z"
       inkscape:connector-curvature="0" />
    <path
       id="path4185"
       d="m 26.1136,17.5556 q -0.574696,0 -0.867175,0.194986 -0.287348,0.194986 -0.287348,0.574696 0,0.348922 0.230905,0.54904 0.236036,0.194986 0.651664,0.194986 0.518253,0 0.872306,-0.369448 0.354054,-0.374578 0.354054,-0.933881 l 0,-0.210379 -0.954406,0 z m 2.8068,-0.6927 0,3.2788 -1.8524,0 0,-0.8518 q -0.369447,0.523384 -0.831256,0.764551 -0.46181,0.236036 -1.12374,0.236036 -0.892832,0 -1.45213,-0.518253 -0.554171,-0.523384 -0.554171,-1.35464 0,-1.01085 0.692714,-1.48292 0.697845,-0.472072 2.1859,-0.472072 l 1.08269,0 0,-0.143674 q 0,-0.436153 -0.343791,-0.63627 -0.343792,-0.205249 -1.07242,-0.205249 -0.590089,0 -1.09808,0.118018 -0.50799,0.118018 -0.944143,0.354054 l 0,-1.40082 q 0.59009,-0.143674 1.18531,-0.215511 0.595221,-0.07697 1.19044,-0.07697 1.55476,0 2.24234,0.615746 0.692713,0.610614 0.692713,1.99091 z"
       inkscape:connector-curvature="0" />
  </g>
  <g
     style="fill:#ffffff;stroke:#f9f9f9;stroke-width:1.13800001"
     id="g14"
     transform="matrix(0.96195413,0,0,0.80269373,2.5129149,5.5615867)">
    <path
       id="path29"
       d="m 12,26.5 4,0"
       inkscape:connector-curvature="0" />
    <path
       id="path31"
       d="m 17,26.5 1,0"
       inkscape:connector-curvature="0" />
    <path
       id="path33"
       d="m 19,26.5 5,0"
       inkscape:connector-curvature="0" />
    <path
       id="path35"
       d="m 25,26.5 2,0"
       inkscape:connector-curvature="0" />
    <path
       id="path37"
       d="m 28.3463,26.5 1.08657,0"
       inkscape:connector-curvature="0" />
    <path
       id="path39"
       d="m 30.5818,26.5 2.14544,0"
       inkscape:connector-curvature="0" />
    <path
       id="path41"
       d="m 12,28.5 1,0"
       inkscape:connector-curvature="0" />
    <path
       id="path43"
       d="m 14,28.5 4,0"
       inkscape:connector-curvature="0" />
    <path
       id="path45"
       d="m 19,28.5 3,0"
       inkscape:connector-curvature="0" />
    <path
       id="path47"
       d="m 23,28.5 2,0"
       inkscape:connector-curvature="0" />
    <path
       id="path49"
       d="m 26.1731,28.5 3.25972,0"
       inkscape:connector-curvature="0" />
    <path
       id="path51"
       d="m 30.5818,28.5 2.14544,0"
       inkscape:connector-curvature="0" />
    <path
       id="path53"
       d="m 12,30.5 3,0"
       inkscape:connector-curvature="0" />
    <path
       id="path55"
       d="m 16,30.5 2,0"
       inkscape:connector-curvature="0" />
    <path
       id="path57"
       d="m 19,30.5 7,0"
       inkscape:connector-curvature="0" />
    <path
       id="path59"
       d="m 27.2597,30.5 1.08657,0"
       inkscape:connector-curvature="0" />
    <path
       id="path61"
       d="m 29.509,30.5 3.21816,0"
       inkscape:connector-curvature="0" />
    <path
       id="path63"
       d="m 12,32.5 4,0"
       inkscape:connector-curvature="0" />
    <path
       id="path65"
       d="m 17,32.5 2,0"
       inkscape:connector-curvature="0" />
    <path
       id="path67"
       d="m 20,32.5 1,0"
       inkscape:connector-curvature="0" />
    <path
       id="path69"
       d="m 22,32.5 1,0"
       inkscape:connector-curvature="0" />
    <path
       id="path71"
       d="m 24,32.5 4.34629,0"
       inkscape:connector-curvature="0" />
    <path
       id="path73"
       d="m 29.509,32.5 3.21816,0"
       inkscape:connector-curvature="0" />
    <path
       id="path75"
       d="m 12,34.5 3,0"
       inkscape:connector-curvature="0" />
    <path
       id="path77"
       d="m 16,34.5 1,0"
       inkscape:connector-curvature="0" />
    <path
       id="path79"
       d="m 18,34.5 2,0"
       inkscape:connector-curvature="0" />
    <path
       id="path81"
       d="m 21,34.5 6,0"
       inkscape:connector-curvature="0" />
    <path
       id="path83"
       d="m 28.3463,34.5 2.17315,0"
       inkscape:connector-curvature="0" />
    <path
       id="path85"
       d="m 31.6545,34.5 1.07272,0"
       inkscape:connector-curvature="0" />
    <path
       id="path87"
       d="m 12,36.5 2,0"
       inkscape:connector-curvature="0" />
    <path
       id="path89"
       d="m 15,36.5 6,0"
       inkscape:connector-curvature="0" />
    <path
       id="path91"
       d="m 22,36.5 5.36361,0 5.3636,0"
       inkscape:connector-curvature="0" />
    <path
       id="path93"
       d="m 12,38.5 3,0"
       inkscape:connector-curvature="0" />
    <path
       id="path95"
       d="m 16,38.5 4,0"
       inkscape:connector-curvature="0" />
  </g>
</svg>
