<?xml version="1.0" encoding="UTF-8" standalone="no"?>
<svg
   xmlns:dc="http://purl.org/dc/elements/1.1/"
   xmlns:cc="http://creativecommons.org/ns#"
   xmlns:rdf="http://www.w3.org/1999/02/22-rdf-syntax-ns#"
   xmlns:svg="http://www.w3.org/2000/svg"
   xmlns="http://www.w3.org/2000/svg"
   xmlns:sodipodi="http://sodipodi.sourceforge.net/DTD/sodipodi-0.dtd"
   xmlns:inkscape="http://www.inkscape.org/namespaces/inkscape"
   width="48"
   version="1.1"
   height="48"
   id="svg10893"
   inkscape:version="0.91 r13725"
   sodipodi:docname="folder-gtk.svg">
  <metadata
     id="metadata10913">
    <rdf:RDF>
      <cc:Work
         rdf:about="">
        <dc:format>image/svg+xml</dc:format>
        <dc:type
           rdf:resource="http://purl.org/dc/dcmitype/StillImage" />
      </cc:Work>
    </rdf:RDF>
  </metadata>
  <defs
     id="defs10911" />
  <sodipodi:namedview
     pagecolor="#ffffff"
     bordercolor="#666666"
     borderopacity="1"
     objecttolerance="10"
     gridtolerance="10"
     guidetolerance="10"
     inkscape:pageopacity="0"
     inkscape:pageshadow="2"
     inkscape:window-width="640"
     inkscape:window-height="480"
     id="namedview10909"
     showgrid="false"
     inkscape:zoom="14.9375"
     inkscape:cx="20.317991"
     inkscape:cy="27.213389"
     inkscape:current-layer="svg10893" />
  <path
     style="opacity:.65;fill:#fff;stroke:none"
     id="rect4154"
     d="m 3,1.959 0,9.342 42,0 0,-6.9866 -22,0 0,-2.3555 z" />
  <rect
     style="stroke:none;fill:#444444;fill-opacity:1"
     id="folderTab"
     height="11.773318"
     y="2.9586298"
     x="4"
     width="18" />
  <rect
     style="stroke:none;fill:#444444;fill-opacity:1"
     id="folderBackground"
     height="35.319954"
     y="5.313652"
     x="4"
     width="40" />
  <rect
     id="folderPaper"
     style="fill:#ffffff;stroke:none"
     height="32.965004"
     y="7.6680799"
     x="6"
     width="35.999992" />
  <rect
     id="folderFront"
     style="fill:#3498db;stroke:none"
     height="32.965298"
     y="10.022959"
     x="2"
     width="43.999996" />
  <rect
     width="35.999992"
     x="6"
     y="7.6680799"
     height="32.965004"
     style="fill:#ffffff;stroke:none"
     id="rect3849" />
  <rect
     width="43.999996"
     x="2"
     y="10.022959"
     height="32.965298"
     style="fill:#f0544c;stroke:none;fill-opacity:1"
     id="rect3851" />
  <rect
     width="30"
     x="9.380971"
     y="11.101083"
     height="30"
     style="fill:none;stroke:none"
     id="rect3265" />
  <path
     style="fill:#ffffff;stroke:none"
     id="path3003"
     d="m 25.31147,12.894635 -0.944443,0.269841 c -1.313692,0.443704 -5.038757,2.025662 -8.263872,3.474199 -3.369965,1.513602 -3.84523,1.742675 -3.84523,1.922615 0,0.07808 0.775547,0.541538 1.686504,1.045633 2.924771,1.618483 9.254253,4.855406 9.511886,4.857133 0.137197,8.96e-4 0.517252,-0.08978 0.843252,-0.23611 0.326,-0.14633 2.73544,-1.295387 5.329354,-2.529757 2.593914,-1.23437 5.029108,-2.389764 5.430545,-2.563487 1.061727,-0.459459 1.117561,-0.507383 0.607141,-0.843252 -0.786134,-0.517299 -4.78787,-2.656032 -7.58927,-4.047611 L 25.31147,12.894635 Z m -0.742062,2.496027 c 1.160617,-0.0045 2.110197,0.131861 2.799597,0.371031 1.039545,0.360631 1.472327,0.569382 1.686505,0.876982 0.559464,0.803485 0.944442,1.479278 0.944442,1.619044 0,0.207507 -0.506747,0.405409 -0.876982,0.337301 -0.15911,-0.02927 -0.479393,-0.09757 -0.708332,-0.13492 -0.337093,-0.05499 -0.470961,-0.143618 -0.674602,-0.505951 -0.288409,-0.513151 -1.021003,-1.054155 -1.753965,-1.248014 -1.119601,-0.296122 -4.214102,-0.05779 -5.160703,0.404761 -0.53483,0.261339 -0.800165,0.830722 -0.876983,1.787695 -0.05237,0.652259 -0.07286,0.786559 0.168651,1.045633 0.327046,0.350817 1.276357,0.839286 2.293646,1.180553 0.566807,0.19013 0.85791,0.222111 1.248013,0.168651 0.908362,-0.124506 1.046811,-0.335235 0.505952,-1.011903 -0.466436,-0.583566 -0.559058,-0.925977 -0.404762,-1.214283 0.108212,-0.202214 0.164113,-0.255065 0.674602,-0.202381 0.723384,0.07466 2.237822,0.708002 2.597217,1.045633 0.31634,0.297185 0.410161,0.97277 0.134921,1.248013 -0.313757,0.313757 -1.750306,1.050762 -2.293647,1.214284 -0.633537,0.190666 -1.558017,0.256984 -2.327376,0.06746 -1.626427,-0.400689 -3.467313,-1.355745 -3.94642,-2.023806 -0.379331,-0.528923 -0.708332,-1.380732 -0.708332,-1.855155 0,-0.572074 0.339772,-1.401283 0.809522,-1.888885 0.595288,-0.617917 1.424025,-0.86337 3.575389,-1.113093 0.801845,-0.09307 1.597274,-0.165952 2.293647,-0.16865 z m -13.255872,4.148855 c -0.143868,0.143766 -0.136094,5.956108 0,10.017837 l 0.06746,2.900788 0.809522,0.472221 c 0.691739,0.400275 4.741026,3.086384 8.634904,5.767845 0.648479,0.446565 1.247689,0.806716 1.349203,0.809523 0.161179,0.0046 0.210962,-0.194125 0.269841,-1.787695 0.03709,-1.003598 0.08545,-3.907445 0.13492,-6.408717 0.109844,-5.553269 0.168088,-5.348114 -1.011902,-6.138877 -1.446725,-0.969512 -3.072698,-1.90894 -5.734116,-3.305549 -1.451354,-0.761613 -3.01561,-1.593258 -3.507929,-1.888885 -0.536334,-0.322053 -0.855839,-0.460931 -0.978173,-0.438491 -0.01747,0.0031 -0.02391,-0.0098 -0.03373,0 z m 25.499949,0.101244 c -0.145203,0 -2.75475,1.161103 -6.105147,2.732137 -2.068955,0.97015 -4.385851,2.087575 -5.126974,2.428567 -0.741116,0.340993 -1.441025,0.671202 -1.517854,0.742062 -0.230016,0.212112 -0.739907,13.071409 -0.539681,13.59328 0.06495,0.169254 0.169092,0.156516 0.742062,-0.16865 0.355281,-0.201627 2.161089,-1.267766 4.013881,-2.327376 4.902639,-2.803818 6.549066,-3.821657 6.611097,-4.115071 0.0285,-0.134811 0.136216,-0.804766 0.236111,-1.484124 0.09989,-0.679358 0.516863,-3.345097 0.944443,-5.936496 0.715326,-4.335326 0.879715,-5.464275 0.742062,-5.464275 z m -1.956346,3.811338 -4.283775,5.835252 3.98015,1.888885 -1.619044,1.045687 -4.013935,-1.787641 -1.484124,0.742062 -0.06746,2.833328 -1.551584,0.708278 c -0.03958,-2.97616 -0.294485,-5.922497 0.371031,-9.039665 l 1.450394,0 0.101244,4.283776 4.823457,-5.936496 2.293646,-0.573358 z m -21.0139,0.202381 6.746018,3.238089 -0.13492,2.158726 -2.462243,-0.978119 c -0.31213,1.252795 -0.360884,3.747202 -0.539682,5.666655 l -1.922561,-1.011903 0.168597,-5.632979 -2.12505,-1.113039 0.269841,-2.327322 z"
     inkscape:connector-curvature="0" />
</svg>
