<?xml version="1.0" encoding="UTF-8" standalone="no"?>
<svg
   xmlns:dc="http://purl.org/dc/elements/1.1/"
   xmlns:cc="http://creativecommons.org/ns#"
   xmlns:rdf="http://www.w3.org/1999/02/22-rdf-syntax-ns#"
   xmlns:svg="http://www.w3.org/2000/svg"
   xmlns="http://www.w3.org/2000/svg"
   xmlns:sodipodi="http://sodipodi.sourceforge.net/DTD/sodipodi-0.dtd"
   xmlns:inkscape="http://www.inkscape.org/namespaces/inkscape"
   width="48"
   version="1.1"
   height="48"
   id="svg13659"
   inkscape:version="0.91 r13725"
   sodipodi:docname="folder-svg.svg">
  <metadata
     id="metadata13673">
    <rdf:RDF>
      <cc:Work
         rdf:about="">
        <dc:format>image/svg+xml</dc:format>
        <dc:type
           rdf:resource="http://purl.org/dc/dcmitype/StillImage" />
      </cc:Work>
    </rdf:RDF>
  </metadata>
  <defs
     id="defs13671" />
  <sodipodi:namedview
     pagecolor="#ffffff"
     bordercolor="#666666"
     borderopacity="1"
     objecttolerance="10"
     gridtolerance="10"
     guidetolerance="10"
     inkscape:pageopacity="0"
     inkscape:pageshadow="2"
     inkscape:window-width="640"
     inkscape:window-height="480"
     id="namedview13669"
     showgrid="false"
     inkscape:zoom="14.9375"
     inkscape:cx="23.397489"
     inkscape:cy="26.142259"
     inkscape:current-layer="svg13659" />
  <path
     style="opacity:.65;fill:#fff;stroke:none"
     id="rect4154"
     d="m 3,1.959 0,9.342 42,0 0,-6.9866 -22,0 0,-2.3555 z" />
  <rect
     style="stroke:none;fill:#444444;fill-opacity:1"
     width="18"
     x="4"
     y="2.9586298"
     height="11.773318"
     id="folderTab" />
  <rect
     style="stroke:none;fill:#444444;fill-opacity:1"
     width="40"
     x="4"
     y="5.313652"
     height="35.319954"
     id="folderBackground" />
  <rect
     width="35.999992"
     x="6"
     y="7.6680799"
     height="32.965004"
     style="fill:#ffffff;stroke:none"
     id="folderPaper" />
  <rect
     width="43.999996"
     x="2"
     y="10.022959"
     height="32.965298"
     style="fill:#f0544c;stroke:none;fill-opacity:1"
     id="folderFront" />
  <path
     style="fill:#fff"
     id="path10"
     d="m 31.259,13.9742 c -0.766999,0 -1.4236,0.403107 -1.7824,0.999999 h -7.55093 c 0,0 -1.50267,-0.02552 -3.04626,0.718748 -1.5436,0.744253 -3.17586,2.44787 -3.17586,5.2812 0,2.83333 1.63227,4.53693 3.17586,5.2812 0.73224,0.35304 1.45147,0.50224 2.0092,0.593746 v 0.437507 l -2.8519,2.75 c -0.08777,-0.02328 -0.1638,-0.06249 -0.259253,-0.06249 -0.572746,0 -1.03704,0.44772 -1.03704,0.999999 0,0.55228 0.464293,1 1.03704,1 0.572746,0 1.03704,-0.44772 1.03704,-1 0,-0.09205 -0.04067,-0.165346 -0.06481,-0.25 l 2.8519,-2.75 h 3.4352 v -1 h 1.03704 c 0,0 1.08995,0.02552 2.13893,0.531253 1.04895,0.505747 2.0092,1.30208 2.0092,3.4688 0,2.16672 -0.960306,2.96307 -2.0092,3.4688 -1.04895,0.505746 -2.13893,0.531253 -2.13893,0.531253 h -7.55093 c -0.358668,-0.597333 -1.01467,-1 -1.78133,-1 -1.14548,0 -2.07413,0.89544 -2.07413,2 0,1.10457 0.928599,2 2.07413,2 0.767,0 1.4236,-0.403106 1.7824,-0.999999 h 7.55093 c 0,0 1.50267,0.02552 3.04626,-0.718747 1.5436,-0.744253 3.17587,-2.44787 3.17587,-5.2812 0,-2.83333 -1.63227,-4.53693 -3.17587,-5.2812 -1.5436,-0.744253 -3.04626,-0.718746 -3.04626,-0.718746 h -1.03704 v -0.312507 l 2.8519,-2.75 c 0.08777,0.02328 0.1638,0.06249 0.259254,0.06249 0.572746,0 1.03704,-0.44772 1.03704,-0.999999 0,-0.55228 -0.464294,-0.999986 -1.03704,-0.999986 -0.572746,0 -1.03704,0.447719 -1.03704,0.999999 0,0.09205 0.04067,0.165347 0.06481,0.25 l -2.8519,2.75 h -3.4352 v 0.843747 c -0.34172,-0.07868 -0.714266,-0.188134 -1.10185,-0.375 -1.04895,-0.505747 -2.0092,-1.30208 -2.0092,-3.4688 0,-2.16672 0.960306,-2.96307 2.0092,-3.4688 1.048,-0.505333 2.13733,-0.530667 2.13733,-0.530667 h 7.55093 c 0.358854,0.596893 1.01541,1 1.7824,1 1.14548,0 2.07413,-0.895426 2.07413,-2 0,-1.10457 -0.928587,-2 -2.07413,-2 z " />
</svg>
