<?xml version="1.0" encoding="UTF-8" standalone="no"?>
<svg
   xmlns:dc="http://purl.org/dc/elements/1.1/"
   xmlns:cc="http://creativecommons.org/ns#"
   xmlns:rdf="http://www.w3.org/1999/02/22-rdf-syntax-ns#"
   xmlns:svg="http://www.w3.org/2000/svg"
   xmlns="http://www.w3.org/2000/svg"
   xmlns:sodipodi="http://sodipodi.sourceforge.net/DTD/sodipodi-0.dtd"
   xmlns:inkscape="http://www.inkscape.org/namespaces/inkscape"
   width="48"
   version="1.1"
   height="48"
   id="svg9762"
   inkscape:version="0.91 r13725"
   sodipodi:docname="folder-multimedia.svg">
  <metadata
     id="metadata9784">
    <rdf:RDF>
      <cc:Work
         rdf:about="">
        <dc:format>image/svg+xml</dc:format>
        <dc:type
           rdf:resource="http://purl.org/dc/dcmitype/StillImage" />
      </cc:Work>
    </rdf:RDF>
  </metadata>
  <defs
     id="defs9782" />
  <sodipodi:namedview
     pagecolor="#ffffff"
     bordercolor="#666666"
     borderopacity="1"
     objecttolerance="10"
     gridtolerance="10"
     guidetolerance="10"
     inkscape:pageopacity="0"
     inkscape:pageshadow="2"
     inkscape:window-width="640"
     inkscape:window-height="480"
     id="namedview9780"
     showgrid="false"
     inkscape:zoom="14.9375"
     inkscape:cx="27.481171"
     inkscape:cy="27.882845"
     inkscape:current-layer="svg9762" />
  <path
     style="opacity:.65;fill:#fff;stroke:none"
     id="rect4154"
     d="m 3,1.959 0,9.342 42,0 0,-6.9866 -22,0 0,-2.3555 z" />
  <rect
     style="stroke:none;fill:#444444;fill-opacity:1"
     id="folderTab"
     height="11.773318"
     y="2.9586298"
     x="4"
     width="18" />
  <rect
     style="stroke:none;fill:#444444;fill-opacity:1"
     id="folderBackground"
     height="35.319954"
     y="5.313652"
     x="4"
     width="40" />
  <rect
     id="folderPaper"
     style="fill:#ffffff;stroke:none"
     height="32.965004"
     y="7.6680799"
     x="6"
     width="35.999992" />
  <rect
     id="folderFront"
     style="fill:#3498db;stroke:none"
     height="32.965298"
     y="10.022959"
     x="2"
     width="43.999996" />
  <rect
     width="35.999992"
     x="6"
     y="7.6680799"
     height="32.965004"
     style="fill:#ffffff;stroke:none"
     id="rect3849" />
  <rect
     width="43.999996"
     x="2"
     y="10.022959"
     height="32.965298"
     style="fill:#f0544c;stroke:none;fill-opacity:1"
     id="rect3851" />
  <rect
     width="30"
     x="9.380971"
     y="11.101083"
     height="30"
     style="fill:none;stroke:none"
     id="rect3265" />
  <g
     style="fill:#ffffff;stroke:none"
     id="g9776">
    <path
       id="path3009"
       d="m 39.0555,13.2039 c -0.05653,-0.0035 -0.09887,0.01409 -0.164267,0.03285 l -10.8745,1.9384 c 0.09903,1.48671 0.125904,2.99194 0.09856,4.50089 l 10.2174,-1.8398 0,10.5787 c -10e-7,0.216989 -0.423143,0.390552 -0.82133,0.229973 -1.48297,-0.59804 -3.73222,-0.860473 -5.45363,-0.361385 -2.6923,0.780574 -3.79382,3.70932 -2.95679,5.25652 0.837025,1.54719 4.00563,2.02833 6.6692,1.14986 1.81626,-0.59902 3.82557,-1.83405 4.1395,-3.581 l -0.0328,-15.3096 c 0.0014,-0.01294 0,-0.05286 0,-0.06571 l 0,-2.23402 c 0,-0.161819 -0.651775,-0.28527 -0.821331,-0.295679 z m -10.9401,6.472 -5.0594,0.8871 -0.0328,12.4842 c -0.420141,1.42835 -2.32324,2.94913 -4.13951,3.54815 -2.66357,0.878471 -5.83218,0.430187 -6.6692,-1.11701 -0.837024,-1.54719 0.297342,-4.47594 2.98964,-5.25652 1.72141,-0.499087 3.93782,-0.236655 5.42078,0.361385 0.398188,0.160581 0.854186,-0.01298 0.854185,-0.229972 l 0,-11.3344 0,-0.229973 0,-2.00405 c 10e-7,-0.215759 0.198391,-0.45082 0.459944,-0.525652 l 2.5296,-0.4599 c 0.182851,1.33624 0.06395,2.68409 -0.03285,3.87668 l 2.46399,0 c 0.143975,-1.18122 0.152019,-2.3815 0.03286,-4.00809 l -1.67551,0 2.7597,-0.4929 c -0.02271,-0.340885 -0.03424,-0.679248 -0.06571,-1.01845 -6.5156,0.629851 -13.0809,1.41404 -19.7119,0.854185 0.746567,8.12365 -1.68012,15.8048 -0.229973,22.6687 6.63037,0.629849 13.2317,1.2041 19.7447,0.854183 -0.677853,-6.01837 0.246123,-12.498 0.361385,-18.8577 z m -18.6934,-3.154 2.46399,0 c 0.04407,1.58904 0.03603,2.01023 -0.03286,3.15391 l -2.49684,0 C 9.456185,18.4451 9.557273,17.75088 9.421996,16.5219 Z m -0.2956,4.928 2.46399,0 c -0.01174,1.32969 -0.236994,2.60801 -0.361385,3.97524 l -2.43114,0 C 8.922248,24.09546 9.163941,22.91438 9.126397,21.4499 Z m 14.8825,0 2.56255,0 c -0.01174,1.32969 -0.138436,2.57047 -0.262825,3.97524 l -2.5297,0 c 0.01175,-1.32968 0.229966,-2.39813 0.229973,-3.97524 z m -15.2767,5.7822 2.46399,0 c 0.02961,1.37917 -0.0568,2.78207 -0.03285,3.97524 l -2.66111,0 C 8.513973,29.87766 8.663195,28.94572 8.732203,27.2321 Z m 14.9483,0 2.56255,0 c 0.02961,1.30408 -0.0568,2.74453 -0.03285,3.97524 l -2.66111,0 c 0.01174,-1.32968 -0.01269,-2.29916 0.131413,-3.97524 z m -12.5828,5.7165 c -0.01174,1.32968 0.176014,2.71127 0.164265,4.04095 -0.823475,0 -1.77193,-0.09856 -2.5954,-0.09856 -0.138443,-1.36723 -0.208862,-2.547 -0.197119,-3.87668 0.823474,0 1.80478,-0.06571 2.62826,-0.06571 z m 15.0468,0 c -0.01174,1.32968 0.17602,2.90839 0.164266,4.23807 l -2.49685,0 c 0.01174,-1.32968 -0.176019,-2.84268 -0.164266,-4.17236 0.823475,0 1.67337,-0.06571 2.49685,-0.06571 z"
       inkscape:connector-curvature="0" />
    <path
       id="path3005"
       d="m 24.4686,15.7994 0.7885,-0.1314 -0.7885,0 c 0.0065,0.04273 -0.0058,0.0887 0,0.131414 z"
       inkscape:connector-curvature="0" />
  </g>
</svg>
