<?xml version="1.0" encoding="UTF-8" standalone="no"?>
<svg
   xmlns:dc="http://purl.org/dc/elements/1.1/"
   xmlns:cc="http://creativecommons.org/ns#"
   xmlns:rdf="http://www.w3.org/1999/02/22-rdf-syntax-ns#"
   xmlns:svg="http://www.w3.org/2000/svg"
   xmlns="http://www.w3.org/2000/svg"
   xmlns:sodipodi="http://sodipodi.sourceforge.net/DTD/sodipodi-0.dtd"
   xmlns:inkscape="http://www.inkscape.org/namespaces/inkscape"
   width="48"
   version="1.1"
   height="48"
   id="svg8073"
   inkscape:version="0.91 r13725"
   sodipodi:docname="folder-builds.svg">
  <metadata
     id="metadata8098">
    <rdf:RDF>
      <cc:Work
         rdf:about="">
        <dc:format>image/svg+xml</dc:format>
        <dc:type
           rdf:resource="http://purl.org/dc/dcmitype/StillImage" />
      </cc:Work>
    </rdf:RDF>
  </metadata>
  <sodipodi:namedview
     pagecolor="#ffffff"
     bordercolor="#666666"
     borderopacity="1"
     objecttolerance="10"
     gridtolerance="10"
     guidetolerance="10"
     inkscape:pageopacity="0"
     inkscape:pageshadow="2"
     inkscape:window-width="640"
     inkscape:window-height="480"
     id="namedview8096"
     showgrid="false"
     inkscape:zoom="14.9375"
     inkscape:cx="22.861924"
     inkscape:cy="24.267782"
     inkscape:current-layer="svg8073" />
  <path
     style="opacity:.65;fill:#fff;stroke:none"
     id="rect4154"
     d="m 3,1.959 0,9.342 42,0 0,-6.9866 -22,0 0,-2.3555 z" />
  <defs
     id="defs867" />
  <rect
     style="stroke:none;fill:#444444;fill-opacity:1"
     id="folderTab"
     height="11.773318"
     y="2.9586298"
     x="4"
     width="18" />
  <rect
     style="stroke:none;fill:#444444;fill-opacity:1"
     id="folderBackground"
     height="35.319954"
     y="5.313652"
     x="4"
     width="40" />
  <rect
     id="folderPaper"
     style="fill:#ffffff;stroke:none"
     height="32.965004"
     y="7.6680799"
     x="6"
     width="35.999992" />
  <rect
     id="folderFront"
     style="fill:#3498db;stroke:none"
     height="32.965298"
     y="10.022959"
     x="2"
     width="43.999996" />
  <rect
     width="35.999992"
     x="6"
     y="7.6680799"
     height="32.965004"
     style="fill:#ffffff;stroke:none"
     id="rect3849" />
  <rect
     width="43.999996"
     x="2"
     y="10.022959"
     height="32.965298"
     style="fill:#f0544c;stroke:none;fill-opacity:1"
     id="rect3851" />
  <path
     inkscape:connector-curvature="0"
     d="m 32.607229,20.327438 -0.367757,-2.22406 1.56979,-1.461829 1.937548,0.762232 0.367757,2.224061 -1.56979,1.461828 z"
     id="path3059"
     style="color:#000000;fill:#ffffff;stroke:none" />
  <path
     inkscape:connector-curvature="0"
     d="m 34.352832,19.928839 c -0.534645,0.106644 -1.046775,-0.282933 -1.143873,-0.870143 -0.0971,-0.58721 0.257606,-1.149691 0.792252,-1.256334 0.534645,-0.106644 1.046775,0.282932 1.143872,0.870142 0.0971,0.58721 -0.257605,1.149691 -0.792251,1.256335 z"
     id="path3057"
     style="color:#000000;fill:#f0544c;stroke:none;fill-opacity:1" />
  <g
     style="fill:#ffffff"
     id="g3054"
     transform="matrix(0.54660943,0,0,0.60035019,17.699301,4.2142279)">
    <g
       style="stroke:none"
       id="g3059"
       transform="matrix(-0.84575495,-0.00904111,0.00904111,-0.84575495,29.603082,74.204227)">
      <rect
         width="8.9404516"
         x="-51.076382"
         y="-23.349331"
         height="11.749688"
         id="rect2921"
         transform="matrix(-0.7125326,-0.70163901,0.78951843,-0.61372686,0,0)" />
      <path
         id="path2917"
         d="m 4.6221,60.5345 c 4.01624,1.50644 8.8997,0.939332 12.4391,-1.81199 4.84912,-3.76943 5.35757,-10.1954 1.13567,-14.3527 -4.22191,-4.15736 -11.5754,-4.47184 -16.4245,-0.702411 -3.53939,2.75132 -4.75779,6.92745 -3.52058,10.5941 l 6.5165,-5.0655 6.3704,6.273 -6.5165,5.0655 z"
         inkscape:connector-curvature="0" />
      <path
         id="rect2928"
         d="m 25.3026,45.5025 c 0.692455,0.486618 1.65728,0.401863 2.87175,-0.50733 l 11.1227,-8.3333 0.7763,-0.5855 3.7762,-2.9033 c 2.9402,-2.24314 3.16544,-5.97365 0.476082,-8.37557 -2.68951,-2.40193 -7.23658,-2.52932 -10.1768,-0.28618 l -3.8079,2.8719 -0.7446,0.617 -10.394,7.8942 c -1.69795,1.29683 -0.9801,2.29162 -0.271758,3.02432 l 6.1184,6.3324 c 0.08867,0.09164 0.154354,0.181843 0.253277,0.251355 z m 1.1492,-5.1238 -2.2471,-2.2307 c -0.464877,-0.461449 -0.292173,-1.2171 0.397199,-1.737 l 12.3848,-9.3406 c 0.689372,-0.519897 1.6151,-0.59255 2.07983,-0.131112 l 2.2471,2.2307 c 0.464725,0.461436 0.255231,1.24498 -0.434141,1.76488 l -12.385,9.3406 c -0.689372,0.519899 -1.57801,0.564677 -2.04273,0.103241 z"
         inkscape:connector-curvature="0" />
    </g>
  </g>
</svg>
