<?xml version="1.0" encoding="UTF-8" standalone="no"?>
<svg
   xmlns:dc="http://purl.org/dc/elements/1.1/"
   xmlns:cc="http://creativecommons.org/ns#"
   xmlns:rdf="http://www.w3.org/1999/02/22-rdf-syntax-ns#"
   xmlns:svg="http://www.w3.org/2000/svg"
   xmlns="http://www.w3.org/2000/svg"
   xmlns:sodipodi="http://sodipodi.sourceforge.net/DTD/sodipodi-0.dtd"
   xmlns:inkscape="http://www.inkscape.org/namespaces/inkscape"
   width="48"
   version="1.1"
   height="48"
   id="svg4706"
   inkscape:version="0.91 r13725"
   sodipodi:docname="folder-playlist.svg">
  <metadata
     id="metadata4725">
    <rdf:RDF>
      <cc:Work
         rdf:about="">
        <dc:format>image/svg+xml</dc:format>
        <dc:type
           rdf:resource="http://purl.org/dc/dcmitype/StillImage" />
      </cc:Work>
    </rdf:RDF>
  </metadata>
  <defs
     id="defs4723" />
  <sodipodi:namedview
     pagecolor="#ffffff"
     bordercolor="#666666"
     borderopacity="1"
     objecttolerance="10"
     gridtolerance="10"
     guidetolerance="10"
     inkscape:pageopacity="0"
     inkscape:pageshadow="2"
     inkscape:window-width="640"
     inkscape:window-height="480"
     id="namedview4721"
     showgrid="false"
     inkscape:zoom="14.9375"
     inkscape:cx="18.845188"
     inkscape:cy="26.142259"
     inkscape:current-layer="svg4706" />
  <path
     style="opacity:.65;fill:#fff;stroke:none"
     id="rect4154"
     d="m 3,1.959 0,9.342 42,0 0,-6.9866 -22,0 0,-2.3555 z" />
  <rect
     style="stroke:none;fill:#444444;fill-opacity:1"
     id="folderTab"
     height="11.773318"
     y="2.9586298"
     x="4"
     width="18" />
  <rect
     style="stroke:none;fill:#444444;fill-opacity:1"
     id="folderBackground"
     height="35.319954"
     y="5.313652"
     x="4"
     width="40" />
  <rect
     id="folderPaper"
     style="fill:#ffffff;stroke:none"
     height="32.965004"
     y="7.6680799"
     x="6"
     width="35.999992" />
  <rect
     id="folderFront"
     style="fill:#3498db;stroke:none"
     height="32.965298"
     y="10.022959"
     x="2"
     width="43.999996" />
  <rect
     width="35.999992"
     x="6"
     y="7.6680799"
     height="32.965004"
     style="fill:#ffffff;stroke:none"
     id="rect3849" />
  <rect
     width="43.999996"
     x="2"
     y="10.022959"
     height="32.965298"
     style="fill:#f0544c;stroke:none;fill-opacity:1"
     id="rect3851" />
  <rect
     width="30"
     x="9.380971"
     y="11.101083"
     height="30"
     style="fill:none;stroke:none"
     id="rect3265" />
  <path
     style="fill:#ffffff;stroke:none"
     id="path2999"
     d="m 22.71875,13.864624 0,6.25 -9.5,0 c -0.441118,0 -0.8125,0.288807 -0.8125,0.65625 0,0.367442 0.371382,0.65625 0.8125,0.65625 l 9.5,0 0,2.78125 -9.5,0 c -0.441118,0 -0.8125,0.288808 -0.8125,0.65625 0,0.367444 0.371382,0.65625 0.8125,0.65625 l 9.5,0 0,2.75 -9.5,0 c -0.441118,0 -0.8125,0.320057 -0.8125,0.6875 0,0.367442 0.371382,0.65625 0.8125,0.65625 l 9.5,0 0,2.4375 c -0.588403,-0.600204 -1.53951,-0.906251 -2.8125,-0.90625 -2.9285,0 -4.90625,1.99197 -4.90625,4.1875 0,1.67903 1.33925,2.5 3.4375,2.5 3.16672,0 5.48606,-2.06861 5.5,-4.1875 l 0,-4.03125 5.09375,0 c -0.404103,0.409536 -0.873896,0.817293 -1.40625,1.21875 -0.08537,0.261525 0.07174,0.3838 0.3125,0.375 0.739412,-0.526879 1.34555,-1.03881 1.875,-1.59375 l 4.96875,0 c 0.441117,0 0.8125,-0.288808 0.8125,-0.65625 0,-0.367443 -0.371383,-0.6875 -0.8125,-0.6875 l -3.9375,0 c 0.598128,-0.911448 0.951553,-1.82302 1.0625,-2.75 l 2.875,0 c 0.441117,0 0.8125,-0.288806 0.8125,-0.65625 0,-0.367442 -0.371383,-0.65625 -0.8125,-0.65625 l -2.875,0 c -0.109422,-0.941559 -0.440592,-1.89136 -1,-2.78125 l 3.875,0 c 0.441117,0 0.8125,-0.288808 0.8125,-0.65625 0,-0.367443 -0.371383,-0.65625 -0.8125,-0.65625 l -4.90625,0 c -0.653561,-0.714345 -1.44335,-1.40174 -2.375,-2.03125 -1.75259,-1.18421 -3.02648,-2.75536 -3.5625,-4.21875 l -1.21875,0 z m 1.2188,5.0312 c 0.91856,0.399401 1.73706,0.804299 2.5,1.21875 l -2.5,0 0,-1.21875 z m 0,2.5312 4.5625,0 c 0.828203,0.639625 1.50609,1.3548 2,2.15625 0.124825,0.20255 0.2298,0.407637 0.3125,0.625 l -6.875,0 0,-2.78125 z m 0,4.0938 7.125,0 c -0.0044,0.873071 -0.308338,1.79968 -0.9375,2.75 l -6.1875,0 0,-2.75 z"
     inkscape:connector-curvature="0" />
</svg>
