<?xml version="1.0" encoding="UTF-8" standalone="no"?>
<svg
   xmlns:dc="http://purl.org/dc/elements/1.1/"
   xmlns:cc="http://creativecommons.org/ns#"
   xmlns:rdf="http://www.w3.org/1999/02/22-rdf-syntax-ns#"
   xmlns:svg="http://www.w3.org/2000/svg"
   xmlns="http://www.w3.org/2000/svg"
   xmlns:sodipodi="http://sodipodi.sourceforge.net/DTD/sodipodi-0.dtd"
   xmlns:inkscape="http://www.inkscape.org/namespaces/inkscape"
   width="48"
   version="1.1"
   height="48"
   id="svg4149"
   inkscape:version="0.91 r13725"
   sodipodi:docname="folder-development.svg">
  <metadata
     id="metadata4164">
    <rdf:RDF>
      <cc:Work
         rdf:about="">
        <dc:format>image/svg+xml</dc:format>
        <dc:type
           rdf:resource="http://purl.org/dc/dcmitype/StillImage" />
      </cc:Work>
    </rdf:RDF>
  </metadata>
  <defs
     id="defs4162" />
  <sodipodi:namedview
     pagecolor="#ffffff"
     bordercolor="#666666"
     borderopacity="1"
     objecttolerance="10"
     gridtolerance="10"
     guidetolerance="10"
     inkscape:pageopacity="0"
     inkscape:pageshadow="2"
     inkscape:window-width="640"
     inkscape:window-height="480"
     id="namedview4160"
     showgrid="false"
     inkscape:zoom="14.9375"
     inkscape:cx="19.514644"
     inkscape:cy="24.535565"
     inkscape:current-layer="svg4149" />
  <path
     style="opacity:.65;fill:#fff;stroke:none"
     id="rect4154"
     d="m 3,1.959 0,9.342 42,0 0,-6.9866 -22,0 0,-2.3555 z" />
  <rect
     style="stroke:none;fill:#444444;fill-opacity:1"
     width="18"
     x="4"
     y="2.9586298"
     height="11.773318"
     id="folderTab" />
  <rect
     style="stroke:none;fill:#444444;fill-opacity:1"
     width="40"
     x="4"
     y="5.313652"
     height="35.319954"
     id="folderBackground" />
  <rect
     width="35.999992"
     x="6"
     y="7.6680799"
     height="32.965004"
     style="fill:#ffffff;stroke:none"
     id="folderPaper" />
  <rect
     width="43.999996"
     x="2"
     y="10.022959"
     height="32.965298"
     style="fill:#f0544c;stroke:none;fill-opacity:1"
     id="folderFront" />
  <path
     style="fill:#ffffff"
     id="path3856"
     d="m 19.792203,36.954888 c -0.241398,-0.03009 -0.552473,-0.157265 -0.639001,-0.269602 l 0.0028,-4.641288 -0.285694,-1.474687 -0.285695,-1.474688 -1.577456,3.600974 c -0.867606,1.980537 -1.662252,3.716726 -1.765877,3.858192 -0.263051,0.359111 -0.415946,0.343013 -0.869482,-0.09154 -0.388366,-0.372111 -0.475448,-0.557217 -0.424805,-0.902991 0.04563,-0.31155 0.006,-0.216862 1.856747,-4.438829 0.91721,-2.092383 1.677421,-3.870648 1.689356,-3.9517 0.01857,-0.126093 -0.05986,-0.203898 -0.54345,-0.53907 -0.558422,-0.387044 -0.566069,-0.390015 -0.641928,-0.249442 -0.134743,0.249683 -0.327914,0.17702 -0.704936,-0.265168 -0.517371,-0.606801 -0.5353,-0.509159 0.605249,-3.29643 0.517134,-1.263771 0.997297,-2.374933 1.067032,-2.469242 l 0.126782,-0.17149 2.265426,-0.01992 2.265426,-0.01992 -0.07732,-0.323065 c -0.180137,-0.752533 0.0029,-1.674845 0.441095,-2.222671 0.743558,-0.929583 1.938122,-0.620861 2.406663,0.621974 0.176608,0.468467 0.193658,1.219447 0.03976,1.751386 -0.231774,0.801127 -0.771674,1.287409 -1.429356,1.287409 -0.346317,0 -0.363552,0.0075 -0.340029,0.148276 0.01363,0.08155 0.09982,1.861313 0.191529,3.955025 0.125519,2.865485 0.153054,3.87414 0.11136,4.079286 -0.03047,0.149906 -0.04753,0.2888 -0.03793,0.308654 0.479359,0.354645 0.971673,0.718957 1.493725,0.923808 0.406941,-0.749277 1.156462,-1.887393 1.302004,-1.977034 1.010475,-0.184415 2.08703,-0.195144 3.094157,0.0091 1.722932,2.618092 3.406164,5.49347 4.932761,8.318927 l -12.557557,0.03293 2.653662,-5.481498 c -0.01087,-0.01189 -0.861792,-0.598439 -1.890948,-1.303453 -1.673994,-1.146753 -2.015945,-1.343513 -2.011809,-1.157608 6.7e-4,0.02948 0.129671,0.747265 0.286699,1.595078 l 0.36241,1.541495 0.0058,2.245735 c 0.0056,2.172361 0.0023,2.25028 -0.101738,2.385301 -0.114339,0.148404 -0.345437,0.161166 -1.015338,0.07768 z m 2.046823,-9.900651 c -0.03837,-0.952622 -0.08436,-1.803121 -0.102196,-1.889995 -0.02517,-0.122592 -0.143577,0.169163 -0.528911,1.303213 -0.273065,0.803641 -0.504316,1.481041 -0.513888,1.505334 -0.01853,0.04703 1.155758,0.867675 1.192852,0.833613 0.01205,-0.01107 -0.0095,-0.799539 -0.04786,-1.752161 z m -3.398733,-2.745319 c 0.325396,-0.951688 0.607682,-1.785433 0.627307,-1.852775 0.03308,-0.113517 -0.0057,-0.121013 -0.532608,-0.102886 l -0.568283,0.01956 -0.60026,1.469539 c -0.330137,0.80825 -0.589455,1.483555 -0.576262,1.50068 0.03366,0.04369 0.9998,0.69488 1.032049,0.695619 0.01453,3.26e-4 0.292654,-0.778047 0.618048,-1.729736 z"
     inkscape:connector-curvature="0" />
</svg>
