<?xml version="1.0" encoding="UTF-8" standalone="no"?>
<svg
   xmlns:dc="http://purl.org/dc/elements/1.1/"
   xmlns:cc="http://creativecommons.org/ns#"
   xmlns:rdf="http://www.w3.org/1999/02/22-rdf-syntax-ns#"
   xmlns:svg="http://www.w3.org/2000/svg"
   xmlns="http://www.w3.org/2000/svg"
   xmlns:sodipodi="http://sodipodi.sourceforge.net/DTD/sodipodi-0.dtd"
   xmlns:inkscape="http://www.inkscape.org/namespaces/inkscape"
   width="48"
   version="1.1"
   height="48"
   id="svg9776"
   inkscape:version="0.91 r13725"
   sodipodi:docname="folder-gnome.svg">
  <metadata
     id="metadata9796">
    <rdf:RDF>
      <cc:Work
         rdf:about="">
        <dc:format>image/svg+xml</dc:format>
        <dc:type
           rdf:resource="http://purl.org/dc/dcmitype/StillImage" />
      </cc:Work>
    </rdf:RDF>
  </metadata>
  <defs
     id="defs9794" />
  <sodipodi:namedview
     pagecolor="#ffffff"
     bordercolor="#666666"
     borderopacity="1"
     objecttolerance="10"
     gridtolerance="10"
     guidetolerance="10"
     inkscape:pageopacity="0"
     inkscape:pageshadow="2"
     inkscape:window-width="640"
     inkscape:window-height="480"
     id="namedview9792"
     showgrid="false"
     inkscape:zoom="14.9375"
     inkscape:cx="23.665272"
     inkscape:cy="27.079498"
     inkscape:current-layer="svg9776" />
  <path
     style="opacity:.65;fill:#fff;stroke:none"
     id="rect4154"
     d="m 3,1.959 0,9.342 42,0 0,-6.9866 -22,0 0,-2.3555 z" />
  <rect
     style="stroke:none;fill:#444444;fill-opacity:1"
     id="folderTab"
     height="11.773318"
     y="2.9586298"
     x="4"
     width="18" />
  <rect
     style="stroke:none;fill:#444444;fill-opacity:1"
     id="folderBackground"
     height="35.319954"
     y="5.313652"
     x="4"
     width="40" />
  <rect
     id="folderPaper"
     style="fill:#ffffff;stroke:none"
     height="32.965004"
     y="7.6680799"
     x="6"
     width="35.999992" />
  <rect
     id="folderFront"
     style="fill:#3498db;stroke:none"
     height="32.965298"
     y="10.022959"
     x="2"
     width="43.999996" />
  <rect
     width="35.999992"
     x="6"
     y="7.6680799"
     height="32.965004"
     style="fill:#ffffff;stroke:none"
     id="rect3849" />
  <rect
     width="43.999996"
     x="2"
     y="10.022959"
     height="32.965298"
     style="fill:#f0544c;stroke:none;fill-opacity:1"
     id="rect3851" />
  <rect
     width="30"
     x="9.380971"
     y="11.101083"
     height="30"
     style="fill:none;stroke:none"
     id="rect3265" />
  <path
     style="fill:#ffffff;stroke:none"
     id="path2999"
     d="m 32.019559,13.629021 c -5.19697,0 -6.17359,7.375 -3.25,7.375 2.92316,0 8.44718,-7.375 3.25,-7.375 z m -8.3125,0.9062 c -2.92464,0.379601 -1.90102,5.46744 -0.34375,5.5625 1.55664,0.09506 3.26945,-5.9421 0.34375,-5.5625 z m -4.9062,2 c -0.128254,0.01361 -0.259358,0.06439 -0.40625,0.125 -2.3507,0.970023 -0.348131,4.95662 0.96875,4.6875 1.23557,-0.251906 1.3613,-5.01668 -0.5625,-4.8125 z m -3.625,3.125 c -0.204381,-0.0069 -0.420927,0.0875 -0.65625,0.25 -1.88174,1.30019 0.611632,4.42462 1.71875,3.9375 0.968729,-0.426418 0.368167,-4.13935 -1.0625,-4.1875 z m 10.75,2.4062 c -4.03421,-0.06825 -9.3737,1.96696 -10.2812,6.03125 -0.982909,4.39827 4.034,10.5 9.28125,10.5 2.58138,0 5.56796,-2.32851 6.125,-5.28125 0.425441,-2.25163 -5.00769,-1.36489 -4.8125,0.125 0.233844,1.78584 -1.30043,2.68252 -2.8125,1.53125 -4.81357,-3.66483 7.96764,-5.49315 7.125,-10.5 -0.262283,-1.55849 -2.20448,-2.3653 -4.625,-2.40625 z"
     inkscape:connector-curvature="0" />
</svg>
