<?xml version="1.0" encoding="UTF-8" standalone="no"?>
<svg
   xmlns:dc="http://purl.org/dc/elements/1.1/"
   xmlns:cc="http://creativecommons.org/ns#"
   xmlns:rdf="http://www.w3.org/1999/02/22-rdf-syntax-ns#"
   xmlns:svg="http://www.w3.org/2000/svg"
   xmlns="http://www.w3.org/2000/svg"
   xmlns:sodipodi="http://sodipodi.sourceforge.net/DTD/sodipodi-0.dtd"
   xmlns:inkscape="http://www.inkscape.org/namespaces/inkscape"
   width="48"
   version="1.1"
   height="48"
   id="svg2"
   inkscape:version="0.91 r13725"
   sodipodi:docname="network-server.svg">
  <metadata
     id="metadata40">
    <rdf:RDF>
      <cc:Work
         rdf:about="">
        <dc:format>image/svg+xml</dc:format>
        <dc:type
           rdf:resource="http://purl.org/dc/dcmitype/StillImage" />
      </cc:Work>
    </rdf:RDF>
  </metadata>
  <defs
     id="defs38" />
  <sodipodi:namedview
     pagecolor="#ffffff"
     bordercolor="#666666"
     borderopacity="1"
     objecttolerance="10"
     gridtolerance="10"
     guidetolerance="10"
     inkscape:pageopacity="0"
     inkscape:pageshadow="2"
     inkscape:window-width="640"
     inkscape:window-height="480"
     id="namedview36"
     showgrid="false"
     inkscape:zoom="10.562408"
     inkscape:cx="30.560807"
     inkscape:cy="20.633977"
     inkscape:current-layer="svg2" />
  <path
     style="fill:none;fill-rule:evenodd;stroke:none"
     id="path3265"
     d="m 27.5,44.5 c 0,1.933 -1.56809,3.5001 -3.50242,3.5001 -1.93434,0 -3.50242,-1.5671 -3.50242,-3.5001 0,-1.9331 1.56809,-3.5001 3.50242,-3.5001 1.93434,0 3.50242,1.567 3.50242,3.5001 z"
     inkscape:connector-curvature="0" />
  <path
     style="fill:none;fill-rule:evenodd;stroke:none"
     id="path3267"
     d="m 27.5,3.5 c 0,1.933 -1.56809,3.5001 -3.50242,3.5001 -1.93434,0 -3.50242,-1.5671 -3.50242,-3.5001 0,-1.9331 1.56809,-3.5001 3.50242,-3.5001 1.93434,0 3.50242,1.567 3.50242,3.5001 z"
     inkscape:connector-curvature="0" />
  <path
     style="fill:none;fill-rule:evenodd;stroke:none"
     id="path3269"
     d="m 11,24 c 0,3.0376 -2.46414,5.5002 -5.50381,5.5002 -3.03967,0 -5.50381,-2.4626 -5.50381,-5.5002 0,-3.0377 2.46414,-5.5002 5.50381,-5.5002 C 8.53586,18.4998 11,20.9623 11,24 Z"
     inkscape:connector-curvature="0" />
  <path
     style="fill:none;fill-rule:evenodd;stroke:none"
     id="path3271"
     d="m 48,24 c 0,3.0376 -2.46414,5.5002 -5.50381,5.5002 -3.03967,0 -5.50381,-2.4626 -5.50381,-5.5002 0,-3.0377 2.46414,-5.5002 5.50381,-5.5002 C 45.53586,18.4998 48,20.9623 48,24 Z"
     inkscape:connector-curvature="0" />
  <path
     style="fill:none;fill-rule:evenodd;stroke:none"
     id="path3293"
     d="m 27.5,44.5 c 0,1.933 -1.56809,3.5001 -3.50242,3.5001 -1.93434,0 -3.50242,-1.5671 -3.50242,-3.5001 0,-1.9331 1.56809,-3.5001 3.50242,-3.5001 1.93434,0 3.50242,1.567 3.50242,3.5001 z"
     inkscape:connector-curvature="0" />
  <path
     style="fill:none;fill-rule:evenodd;stroke:none"
     id="path3295"
     d="m 27.5,3.5 c 0,1.933 -1.56809,3.5001 -3.50242,3.5001 -1.93434,0 -3.50242,-1.5671 -3.50242,-3.5001 0,-1.9331 1.56809,-3.5001 3.50242,-3.5001 1.93434,0 3.50242,1.567 3.50242,3.5001 z"
     inkscape:connector-curvature="0" />
  <path
     style="fill:none;fill-rule:evenodd;stroke:none"
     id="path3297"
     d="m 11,24 c 0,3.0376 -2.46414,5.5002 -5.50381,5.5002 -3.03967,0 -5.50381,-2.4626 -5.50381,-5.5002 0,-3.0377 2.46414,-5.5002 5.50381,-5.5002 C 8.53586,18.4998 11,20.9623 11,24 Z"
     inkscape:connector-curvature="0" />
  <path
     style="fill:none;fill-rule:evenodd;stroke:none"
     id="path3299"
     d="m 48,24 c 0,3.0376 -2.46414,5.5002 -5.50381,5.5002 -3.03967,0 -5.50381,-2.4626 -5.50381,-5.5002 0,-3.0377 2.46414,-5.5002 5.50381,-5.5002 C 45.53586,18.4998 48,20.9623 48,24 Z"
     inkscape:connector-curvature="0" />
  <g
     style="fill:#444444;fill-rule:evenodd;stroke:#003bc3;stroke-width:0;stroke-linecap:square;stroke-miterlimit:2;fill-opacity:1"
     id="g17"
     transform="translate(0,-1004.3622)">
    <rect
       width="27.522352"
       x="10.136148"
       y="1041.9908"
       height="3.3550119"
       id="shape1"
       style="fill:#444444;fill-opacity:1" />
    <rect
       width="14.182549"
       x="1031.1123"
       y="-25.7756"
       height="3.6105692"
       id="shape2"
       transform="matrix(0,1,-1,0,0,0)"
       style="fill:#444444;fill-opacity:1" />
  </g>
  <g
     style="fill:#f0544c;fill-rule:evenodd;stroke:#003bc3;stroke-width:0;stroke-linecap:square;stroke-miterlimit:2;fill-opacity:1"
     id="g21"
     transform="translate(0,-1004.3622)">
    <rect
       width="8.658843"
       x="23.957609"
       y="1011.4441"
       height="7.9474607"
       id="shape11"
       style="fill:#f0544c;fill-opacity:1" />
    <rect
       width="8.658843"
       x="23.957609"
       y="1020.3849"
       height="7.9474607"
       id="shape21"
       style="fill:#f0544c;fill-opacity:1" />
    <rect
       width="8.658843"
       x="23.957609"
       y="1029.3258"
       height="7.9474607"
       id="shape3"
       style="fill:#f0544c;fill-opacity:1" />
  </g>
  <g
     style="fill:#ff544c;fill-rule:evenodd;stroke:#003bc3;stroke-width:0;stroke-linecap:square;stroke-miterlimit:2;fill-opacity:1"
     id="g26"
     transform="translate(0,-1004.3622)">
    <rect
       width="8.6444492"
       x="15.340664"
       y="1011.4442"
       height="7.947464"
       id="rect15"
       style="fill:#ff544c;fill-opacity:1" />
    <rect
       width="8.6444492"
       x="15.340664"
       y="1020.3853"
       height="7.947464"
       id="rect17"
       style="fill:#ff544c;fill-opacity:1" />
    <rect
       width="8.6444492"
       x="15.340664"
       y="1029.326"
       height="7.947464"
       id="shape31"
       style="fill:#ff544c;fill-opacity:1" />
  </g>
  <g
     style="fill:#ecf0f1;fill-opacity:0.875;fill-rule:evenodd;stroke:#003bc3;stroke-width:0;stroke-linecap:square;stroke-miterlimit:2"
     id="g31"
     transform="translate(0,-1004.3622)">
    <rect
       width="1.3798267"
       x="15.937337"
       y="1012.6362"
       height="4.7605386"
       id="shape4" />
    <rect
       width="1.3798267"
       x="15.937337"
       y="1021.5771"
       height="4.7605386"
       id="shape5" />
    <rect
       width="1.3798267"
       x="15.974936"
       y="1030.5181"
       height="4.7605386"
       id="shape6" />
  </g>
</svg>
