<?xml version="1.0" encoding="UTF-8" standalone="no"?>
<svg
   xmlns:dc="http://purl.org/dc/elements/1.1/"
   xmlns:cc="http://creativecommons.org/ns#"
   xmlns:rdf="http://www.w3.org/1999/02/22-rdf-syntax-ns#"
   xmlns:svg="http://www.w3.org/2000/svg"
   xmlns="http://www.w3.org/2000/svg"
   xmlns:sodipodi="http://sodipodi.sourceforge.net/DTD/sodipodi-0.dtd"
   xmlns:inkscape="http://www.inkscape.org/namespaces/inkscape"
   width="48"
   version="1.1"
   height="48"
   id="svg2"
   inkscape:version="0.91 r13725"
   sodipodi:docname="desktop.svg">
  <metadata
     id="metadata39">
    <rdf:RDF>
      <cc:Work
         rdf:about="">
        <dc:format>image/svg+xml</dc:format>
        <dc:type
           rdf:resource="http://purl.org/dc/dcmitype/StillImage" />
      </cc:Work>
    </rdf:RDF>
  </metadata>
  <defs
     id="defs37" />
  <sodipodi:namedview
     pagecolor="#ffffff"
     bordercolor="#666666"
     borderopacity="1"
     objecttolerance="10"
     gridtolerance="10"
     guidetolerance="10"
     inkscape:pageopacity="0"
     inkscape:pageshadow="2"
     inkscape:window-width="640"
     inkscape:window-height="480"
     id="namedview35"
     showgrid="false"
     inkscape:zoom="14.9375"
     inkscape:cx="23.437811"
     inkscape:cy="24.049057"
     inkscape:current-layer="svg2" />
  <rect
     width="43.999992"
     x="1.9631437"
     y="7.0368686"
     height="35.98143"
     style="line-height:100%;fill:#f0544c;stroke:none;fill-opacity:1"
     id="rect907" />
  <rect
     width="43.999981"
     x="1.9631486"
     y="39.06493"
     height="4"
     style="line-height:100%;fill:#444444;stroke:none;fill-opacity:1"
     id="rect920" />
  <rect
     width="1.3556478"
     x="35.924175"
     y="40.654221"
     height="1.0939896"
     style="line-height:100%;fill:#ffffff;stroke:none"
     id="rect827" />
  <rect
     width="1.6121296"
     x="9.0183496"
     y="40.165852"
     height="1.6728451"
     style="line-height:100%;fill:#d45500;stroke:none"
     id="rect5248" />
  <rect
     width="1.6121296"
     x="6.1215057"
     y="40.165852"
     height="1.6728451"
     style="line-height:100%;fill:#cccccc;stroke:none"
     id="rect5252" />
  <rect
     width="1.6121296"
     x="14.720151"
     y="40.165852"
     height="1.6728451"
     style="line-height:100%;fill:#008000;stroke:none"
     id="rect5254" />
  <g
     id="g16"
     style="font-size:9px;line-height:100%;font-family:'Liberation Sans';text-align:start;fill:#ffffff;stroke:none"
     transform="translate(-0.86192477,0.13389122)">
    <path
       inkscape:connector-curvature="0"
       d="m 39.7503,41.6369 0,-0.1952 c 0.03915,-0.07007 0.08687,-0.133126 0.143151,-0.189182 0.05629,-0.05672 0.11501,-0.108435 0.176187,-0.155147 0.06199,-0.04738 0.123166,-0.09109 0.183527,-0.131125 0.06118,-0.04071 0.115826,-0.07974 0.163951,-0.117111 0.04894,-0.03803 0.0885,-0.07608 0.118681,-0.114109 0.03018,-0.03803 0.04527,-0.07841 0.04527,-0.121116 -3e-6,-0.06272 -0.01917,-0.109102 -0.05751,-0.139132 -0.03833,-0.03002 -0.09462,-0.04504 -0.168843,-0.04504 -0.07341,10e-7 -0.129694,0.01636 -0.168846,0.04904 -0.03834,0.03202 -0.06322,0.08041 -0.07464,0.145138 l -0.3463,-0.016 c 0.0082,-0.05538 0.02488,-0.107435 0.05016,-0.156149 0.02528,-0.04872 0.06118,-0.09142 0.10767,-0.128121 0.04731,-0.0367 0.106038,-0.06539 0.176186,-0.08608 0.07096,-0.02135 0.155386,-0.03202 0.253268,-0.03202 0.09298,1e-6 0.17537,0.009 0.247151,0.02703 0.07178,0.01735 0.132137,0.04304 0.181081,0.07707 0.04894,0.03403 0.08605,0.07574 0.111339,0.125119 0.02528,0.04872 0.03793,0.104435 0.03793,0.167159 -3e-6,0.06607 -0.01591,0.125789 -0.04771,0.179172 -0.03182,0.05339 -0.0726,0.102765 -0.122351,0.148141 -0.04976,0.04471 -0.105223,0.08675 -0.1664,0.12612 -0.06036,0.03937 -0.119087,0.07774 -0.176185,0.11511 -0.0571,0.03737 -0.109302,0.07507 -0.15661,0.113108 -0.0465,0.03803 -0.08116,0.07874 -0.103999,0.122116 l 0.80018,0 0,0.23122 -1.20639,0"
       id="text3830"
       style="font-weight:bold" />
    <path
       inkscape:connector-curvature="0"
       d="m 42.2909,41.2316 c 0,0.06285 -0.0118,0.119483 -0.0354,0.169895 -0.02287,0.04977 -0.05752,0.09231 -0.103982,0.127667 -0.04646,0.03536 -0.104352,0.06252 -0.173672,0.08151 -0.06858,0.01833 -0.148595,0.0275 -0.240041,0.0275 -0.10177,0 -0.187685,-0.01146 -0.257741,-0.03437 -0.06932,-0.02291 -0.126474,-0.05303 -0.171459,-0.09035 -0.04424,-0.03797 -0.0778,-0.08085 -0.100663,-0.128649 -0.02213,-0.04779 -0.0365,-0.09624 -0.04315,-0.145343 l 0.3164,-0.0245 c 0.0044,0.02946 0.01253,0.05663 0.02433,0.08151 0.01253,0.02423 0.02913,0.04517 0.04978,0.06285 0.02065,0.01768 0.04572,0.03143 0.07522,0.04125 0.03024,0.0091 0.06563,0.01375 0.106192,0.01375 0.07448,0 0.132376,-0.01637 0.173671,-0.0491 0.0413,-0.03273 0.06195,-0.08282 0.06195,-0.150254 -3e-6,-0.04124 -0.01,-0.07431 -0.02987,-0.09919 -0.01917,-0.02488 -0.04387,-0.04386 -0.07411,-0.05696 -0.0295,-0.01375 -0.06158,-0.02291 -0.09624,-0.0275 -0.03466,-0.0046 -0.06748,-0.007 -0.09845,-0.007 l -0.108403,0 0,-0.222927 0.10177,0 c 0.03097,10e-7 0.06231,-0.0025 0.09402,-0.0077 0.03244,-0.0052 0.06158,-0.01473 0.08739,-0.02848 0.02581,-0.01375 0.04683,-0.03273 0.06305,-0.05696 0.01622,-0.02488 0.02433,-0.0563 0.02433,-0.09428 0,-0.05696 -0.01806,-0.101481 -0.0542,-0.13356 -0.0354,-0.03273 -0.08739,-0.0491 -0.155971,-0.0491 -0.06416,1e-6 -0.116151,0.01571 -0.155973,0.04714 -0.03909,0.03143 -0.06158,0.07595 -0.06748,0.133559 l -0.3108,-0.0196 c 0.0088,-0.06481 0.02877,-0.121121 0.05973,-0.168916 0.03171,-0.04779 0.07116,-0.0874 0.118364,-0.118828 0.04794,-0.03143 0.102875,-0.05467 0.16482,-0.06972 0.06195,-0.01571 0.127582,-0.02357 0.196903,-0.02357 0.09144,3e-6 0.169983,0.0098 0.23562,0.02946 0.06563,0.01964 0.119465,0.04616 0.161502,0.07955 0.04204,0.03339 0.073,0.07235 0.09292,0.116865 0.01991,0.04452 0.02987,0.092 0.02987,0.142399 0,0.04059 -0.0067,0.07857 -0.01991,0.113918 -0.01328,0.0347 -0.03355,0.06613 -0.06084,0.09428 -0.02655,0.0275 -0.06084,0.05139 -0.102874,0.07169 -0.04204,0.01964 -0.09182,0.03437 -0.149336,0.04419 l 0,0.0039 c 0.06415,0.0065 0.119838,0.01964 0.167034,0.03928 0.0472,0.01898 0.08591,0.04288 0.116148,0.07169 0.03023,0.02881 0.05273,0.06154 0.06748,0.09821 0.01475,0.03601 0.02213,0.07431 0.02213,0.114901"
       id="text3834"
       style="font-weight:bold" />
  </g>
  <rect
     style="line-height:100%;text-align:start;fill:#ffffff;stroke:none"
     id="rect5274"
     height="0.23658361"
     y="40.707745"
     x="41.75338"
     width="0.22939412" />
  <rect
     style="line-height:100%;text-align:start;fill:#ffffff;stroke:none"
     id="rect5276"
     height="0.23658361"
     y="41.20911"
     x="41.760647"
     width="0.22939412" />
  <g
     id="g22"
     style="font-size:9px;line-height:100%;font-family:'Liberation Sans';text-align:start;fill:#ffffff;stroke:none"
     transform="translate(-0.86192477,0.13389122)">
    <path
       inkscape:connector-curvature="0"
       d="m 43.1326,41.6223 0,-0.1952 c 0.03915,-0.07007 0.08687,-0.133126 0.143151,-0.189182 0.05629,-0.05672 0.11501,-0.108435 0.176187,-0.155147 0.06199,-0.04738 0.123166,-0.09109 0.183527,-0.131125 0.06118,-0.04071 0.115826,-0.07974 0.163951,-0.117111 0.04894,-0.03803 0.0885,-0.07608 0.118681,-0.114109 0.03018,-0.03803 0.04527,-0.07841 0.04527,-0.121116 -3e-6,-0.06272 -0.01917,-0.109102 -0.05751,-0.139132 -0.03833,-0.03002 -0.09462,-0.04504 -0.168843,-0.04504 -0.07341,1e-6 -0.129694,0.01636 -0.168846,0.04904 -0.03834,0.03202 -0.06322,0.08041 -0.07464,0.145138 l -0.3463,-0.016 c 0.0082,-0.05538 0.02488,-0.107435 0.05016,-0.156149 0.02528,-0.04872 0.06118,-0.09142 0.10767,-0.128121 0.04731,-0.0367 0.106038,-0.06539 0.176186,-0.08608 0.07096,-0.02135 0.155386,-0.03202 0.253268,-0.03202 0.09298,1e-6 0.17537,0.009 0.247151,0.02703 0.07178,0.01735 0.132137,0.04304 0.181081,0.07707 0.04894,0.03403 0.08605,0.07574 0.111339,0.125119 0.02528,0.04872 0.03793,0.104435 0.03793,0.167159 -3e-6,0.06607 -0.01591,0.125789 -0.04771,0.179172 -0.03182,0.05339 -0.0726,0.102765 -0.122351,0.148141 -0.04976,0.04471 -0.105223,0.08675 -0.1664,0.12612 -0.06036,0.03937 -0.119087,0.07774 -0.176185,0.11511 -0.0571,0.03737 -0.109302,0.07507 -0.15661,0.113108 -0.0465,0.03803 -0.08116,0.07874 -0.103999,0.122116 l 0.80018,0 0,0.23122 -1.20639,0"
       id="path5278"
       style="font-weight:bold" />
    <path
       inkscape:connector-curvature="0"
       d="m 45.7789,41.2333 c 0,0.06285 -0.0118,0.119483 -0.0354,0.169895 -0.02287,0.04977 -0.05752,0.09231 -0.103982,0.127667 -0.04646,0.03536 -0.104352,0.06252 -0.173672,0.08151 -0.06858,0.01833 -0.148595,0.0275 -0.240041,0.0275 -0.10177,0 -0.187685,-0.01146 -0.257741,-0.03437 -0.06932,-0.02291 -0.126474,-0.05303 -0.171459,-0.09035 -0.04424,-0.03797 -0.0778,-0.08085 -0.100663,-0.128649 -0.02213,-0.04779 -0.0365,-0.09624 -0.04315,-0.145343 l 0.3164,-0.0245 c 0.0044,0.02946 0.01253,0.05663 0.02433,0.08151 0.01253,0.02423 0.02913,0.04517 0.04978,0.06285 0.02065,0.01768 0.04572,0.03143 0.07522,0.04125 0.03024,0.0091 0.06563,0.01375 0.106192,0.01375 0.07448,0 0.132376,-0.01637 0.173671,-0.0491 0.0413,-0.03273 0.06195,-0.08282 0.06195,-0.150254 -3e-6,-0.04124 -0.01,-0.07431 -0.02987,-0.09919 -0.01917,-0.02488 -0.04387,-0.04386 -0.07411,-0.05696 -0.0295,-0.01375 -0.06158,-0.02291 -0.09624,-0.0275 -0.03466,-0.0046 -0.06748,-0.007 -0.09845,-0.007 l -0.108403,0 0,-0.222927 0.10177,0 c 0.03097,10e-7 0.06231,-0.0025 0.09402,-0.0077 0.03244,-0.0052 0.06158,-0.01473 0.08739,-0.02848 0.02581,-0.01375 0.04683,-0.03273 0.06305,-0.05696 0.01622,-0.02488 0.02433,-0.0563 0.02433,-0.09428 0,-0.05696 -0.01806,-0.101481 -0.0542,-0.13356 -0.0354,-0.03273 -0.08739,-0.0491 -0.155971,-0.0491 -0.06416,1e-6 -0.116151,0.01571 -0.155973,0.04714 -0.03909,0.03143 -0.06158,0.07595 -0.06748,0.133559 l -0.3108,-0.0196 c 0.0088,-0.06481 0.02877,-0.121121 0.05973,-0.168916 0.03171,-0.04779 0.07116,-0.0874 0.118364,-0.118828 0.04794,-0.03143 0.102875,-0.05467 0.16482,-0.06972 0.06195,-0.01571 0.127582,-0.02357 0.196903,-0.02357 0.09144,3e-6 0.169983,0.0098 0.23562,0.02946 0.06563,0.01964 0.119465,0.04616 0.161502,0.07955 0.04204,0.03339 0.073,0.07235 0.09292,0.116865 0.01991,0.04452 0.02987,0.092 0.02987,0.142399 0,0.04059 -0.0067,0.07857 -0.01991,0.113918 -0.01328,0.0347 -0.03355,0.06613 -0.06084,0.09428 -0.02655,0.0275 -0.06084,0.05139 -0.102874,0.07169 -0.04204,0.01964 -0.09182,0.03437 -0.149336,0.04419 l 0,0.0039 c 0.06415,0.0065 0.119838,0.01964 0.167034,0.03928 0.0472,0.01898 0.08591,0.04288 0.116148,0.07169 0.03023,0.02881 0.05273,0.06154 0.06748,0.09821 0.01475,0.03601 0.02213,0.07431 0.02213,0.114901"
       id="path5280"
       style="font-weight:bold" />
  </g>
  <rect
     style="line-height:100%;text-align:start;fill:#ffffff;stroke:none"
     id="rect5282"
     height="1.0939896"
     y="40.667007"
     x="33.911388"
     width="1.3556478" />
  <rect
     style="line-height:100%;text-align:start;fill:#ffffff;stroke:none"
     id="rect5284"
     height="1.0939896"
     y="40.679794"
     x="31.936991"
     width="1.3556478" />
  <path
     inkscape:connector-curvature="0"
     d="m 37.982968,41.260247 0.200055,-0.313125 0.199223,0.313578 z"
     id="path5286"
     style="line-height:100%;text-align:start;fill:#ffffff;fill-rule:evenodd;stroke:none" />
  <path
     inkscape:connector-curvature="0"
     d="m 3.8954912,39.939092 c -0.0097,0 -0.017242,0.0062 -0.019532,0.01563 l -0.0859,0.3457 c -0.07103,0.0191 -0.137269,0.04762 -0.199219,0.08398 l -0.1523,-0.0996 -0.1504,-0.0977 c -0.0084,-0.0054 -0.020244,-0.005 -0.027344,0.002 l -0.1621,0.1621 c -0.0069,0.0069 -0.00891,0.01712 -0.00391,0.02539 l 0.1113,0.1816 0.0801,0.1328 c -0.033799,0.05665 -0.060758,0.117213 -0.080078,0.181641 l -0.3496,0.0723 c -0.0097,0.002 -0.017578,0.01153 -0.017578,0.02148 l 0,0.228515 c 0,0.0097 0.00811,0.0192 0.017578,0.02148 l 0.3379,0.082 c 0.01813,0.07459 0.046914,0.145923 0.083984,0.210937 l -0.1973,0.2988 c -0.0055,0.0083 -0.00309,0.01835 0.00391,0.02539 l 0.1621,0.1621 c 0.0069,0.0068 0.017101,0.009 0.025391,0.0039 l 0.3086,-0.1875 c 0.06042,0.03479 0.126399,0.06347 0.195313,0.08203 l 0.0703,0.3438 c 0.002,0.0097 0.011525,0.01758 0.021485,0.01758 l 0.230468,0 c 0.0097,0 0.017242,-0.0062 0.019532,-0.01563 l 0.0859,-0.3457 c 0.07105,-0.0191 0.137257,-0.04761 0.199219,-0.08398 l 0.1523,0.0977 0.1504,0.0996 c 0.0084,0.0054 0.020254,0.005 0.027344,-0.002 l 0.1621,-0.1621 c 0.0018,-0.0018 0.00291,-0.0037 0.00391,-0.0059 0.0029,-0.0061 0.00364,-0.01347 0,-0.01953 l -0.1113,-0.1816 -0.0801,-0.1328 c 0.033789,-0.05665 0.060758,-0.117213 0.080078,-0.181641 l 0.3496,-0.0723 c 0.0097,-0.002 0.017578,-0.01154 0.017578,-0.02148 l 0,-0.230468 c 0,-0.0097 -0.00811,-0.01724 -0.017578,-0.01953 l -0.3379,-0.082 c -0.01813,-0.07459 -0.046914,-0.145924 -0.083984,-0.210937 l 0.1973,-0.2988 c 0.0055,-0.0083 0.00309,-0.01835 -0.00391,-0.02539 l -0.1621,-0.1621 c -0.0069,-0.0068 -0.017111,-0.009 -0.025391,-0.0039 l -0.3086,0.1875 c -0.06042,-0.03479 -0.126399,-0.06348 -0.195313,-0.08203 l -0.0703,-0.3438 c -0.002,-0.0097 -0.011525,-0.01758 -0.021485,-0.01758 l -0.230468,0 z m 0.1016,0.6582 a 0.49998,0.49998 0 0 1 0.5,0.5 0.49998,0.49998 0 0 1 -0.5,0.5 0.49998,0.49998 0 0 1 -0.5,-0.5 0.49998,0.49998 0 0 1 0.5,-0.5 z"
     id="path4197"
     style="fill:#ffffff" />
  <rect
     width="1.6121296"
     x="12.100949"
     y="40.165852"
     height="1.6728451"
     style="line-height:100%;fill:#f0824c;fill-opacity:1;stroke:none"
     id="rect5250" />
  <rect
     style="line-height:100%;fill:#444444;fill-opacity:1;stroke:none"
     id="rect5288"
     height="2.0151093"
     y="8.41362"
     x="3.4918098"
     width="2.0166237" />
  <rect
     style="line-height:100%;fill:#444444;fill-opacity:1;stroke:none"
     id="rect5290"
     height="2.0151093"
     y="12.41362"
     x="3.4918098"
     width="2.0166237" />
  <rect
     style="line-height:100%;fill:#444444;fill-opacity:1;stroke:none"
     id="rect5292"
     height="2.0151093"
     y="16.413618"
     x="3.4918098"
     width="2.0166237" />
</svg>
