<?xml version="1.0" encoding="UTF-8" standalone="no"?>
<!-- Created with Inkscape (http://www.inkscape.org/) -->

<svg
   xmlns:dc="http://purl.org/dc/elements/1.1/"
   xmlns:cc="http://creativecommons.org/ns#"
   xmlns:rdf="http://www.w3.org/1999/02/22-rdf-syntax-ns#"
   xmlns:svg="http://www.w3.org/2000/svg"
   xmlns="http://www.w3.org/2000/svg"
   xmlns:xlink="http://www.w3.org/1999/xlink"
   xmlns:sodipodi="http://sodipodi.sourceforge.net/DTD/sodipodi-0.dtd"
   xmlns:inkscape="http://www.inkscape.org/namespaces/inkscape"
   width="48px"
   height="48px"
   id="svg3039"
   version="1.1"
   inkscape:version="0.91 r13725"
   sodipodi:docname="distributor-logo-kubuntu.svg">
  <defs
     id="defs3041">
    <linearGradient
       id="linearGradient4239">
      <stop
         style="stop-color:#505050;stop-opacity:1;"
         offset="0"
         id="stop4241" />
      <stop
         style="stop-color:#ffffff;stop-opacity:0.15422885;"
         offset="1"
         id="stop4243" />
    </linearGradient>
    <linearGradient
       inkscape:collect="always"
       xlink:href="#linearGradient4239"
       id="linearGradient4245"
       x1="44"
       y1="28.00672"
       x2="57.993282"
       y2="13"
       gradientUnits="userSpaceOnUse" />
  </defs>
  <sodipodi:namedview
     id="base"
     pagecolor="#ffffff"
     bordercolor="#666666"
     borderopacity="1.0"
     inkscape:pageopacity="0.0"
     inkscape:pageshadow="2"
     inkscape:zoom="8.0000004"
     inkscape:cx="19.193097"
     inkscape:cy="19.951465"
     inkscape:current-layer="layer1"
     showgrid="false"
     inkscape:grid-bbox="true"
     inkscape:document-units="px"
     showguides="false"
     inkscape:guide-bbox="true"
     inkscape:window-width="1366"
     inkscape:window-height="698"
     inkscape:window-x="-4"
     inkscape:window-y="-5"
     inkscape:window-maximized="1"
     inkscape:snap-global="true">
    <inkscape:grid
       type="xygrid"
       id="grid3047" />
    <sodipodi:guide
       orientation="1,0"
       position="3,4"
       id="guide3051" />
    <sodipodi:guide
       orientation="1,0"
       position="45,4"
       id="guide3053" />
    <sodipodi:guide
       orientation="0,1"
       position="-2,45"
       id="guide3055" />
    <sodipodi:guide
       orientation="0,1"
       position="2,3"
       id="guide3057" />
    <sodipodi:guide
       orientation="1,0"
       position="24,31"
       id="guide3059" />
    <sodipodi:guide
       orientation="0,1"
       position="14,24"
       id="guide3061" />
    <sodipodi:guide
       orientation="0,1"
       position="29,38"
       id="guide3108" />
    <sodipodi:guide
       orientation="0,1"
       position="30,10"
       id="guide3110" />
  </sodipodi:namedview>
  <metadata
     id="metadata3044">
    <rdf:RDF>
      <cc:Work
         rdf:about="">
        <dc:format>image/svg+xml</dc:format>
        <dc:type
           rdf:resource="http://purl.org/dc/dcmitype/StillImage" />
        <dc:title />
      </cc:Work>
    </rdf:RDF>
  </metadata>
  <g
     id="layer1"
     inkscape:label="Layer 1"
     inkscape:groupmode="layer">
    <g
       id="g4214"
       transform="translate(-92.993284,0)"
       style="fill:url(#linearGradient4245);fill-opacity:1" />
    <g
       transform="matrix(0.99968028,0,0,0.99968008,-19.471772,0.20183635)"
       id="g4231"
       style="fill:#3771c8;fill-opacity:1">
      <ellipse
         style="fill:#3771c8;fill-opacity:1;stroke:none"
         id="path4233"
         transform="matrix(1.0772675,0,0,1.1354984,14.938086,-2.8784328)"
         cx="26.5"
         cy="23.5"
         rx="19.5"
         ry="18.5" />
    </g>
    <g
       style="fill:#e6e6e6;fill-opacity:1"
       id="g3068"
       transform="matrix(0.90447263,0,0,0.90447245,-15.331604,2.4683275)">
      <path
         style="fill:#e6e6e6;fill-opacity:1;stroke:none"
         d="M 24,5 C 13.50659,5 5,13.50659 5,24 5,34.49341 13.50659,43 24,43 34.49341,43 43,34.49341 43,24 43,13.50659 34.49341,5 24,5 Z m 0,1 c 9.941125,0 18,8.058875 18,18 0,9.941125 -8.058875,18 -18,18 C 14.058875,42 6,33.941125 6,24 6,14.058875 14.058875,6 24,6 Z"
         transform="matrix(1.1056167,0,0,1.1056169,16.950876,-2.7290252)"
         id="path3070"
         inkscape:connector-curvature="0" />
    </g>
    <g
       transform="matrix(0.84972825,0,0,0.84972807,-12.951007,3.7715608)"
       id="g3056"
       style="fill:#c837ab;fill-opacity:1" />
    <g
       style="fill:#ececec;fill-opacity:1"
       id="g3047"
       transform="matrix(0.66645353,0,0,0.66645337,-4.9811812,8.1345576)" />
    <g
       transform="matrix(0.85686881,0,0,0.85686864,-13.261519,3.6015739)"
       id="g3081"
       style="fill:#e6e6e6;fill-opacity:1" />
    <g
       id="g3123"
       transform="matrix(0.38276091,0,0,0.38858211,11.746877,12.722387)">
      <path
         style="fill:#ffffff;fill-opacity:1"
         d="M 22.75,10.15625 20.3125,10.75 c -0.102886,0.02556 -0.186942,0.110457 -0.1875,0.21875 l 1.09375,5.0625 0.46875,0.28125 C 22.420533,16.092463 23.193441,16 24,16 c 3.985277,0 7.28418,2.883543 7.90625,6.6875 L 32,22.75 37.0625,21.625 c 0.09887,-0.04797 0.151266,-0.173454 0.125,-0.28125 L 36.59375,18.875 C 36.56845,18.770292 36.481502,18.687592 36.375,18.6875 l -4.03125,0 c -0.339491,-0.649617 -0.755238,-1.254977 -1.25,-1.8125 l 1.3125,-3.75 c 0.03652,-0.104171 -2.47e-4,-0.223519 -0.09375,-0.28125 l -2.15625,-1.3125 C 30.06513,11.47499 29.949617,11.48647 29.875,11.5625 l -2.71875,2.75 c -0.803762,-0.260533 -1.615881,-0.413008 -2.4375,-0.4375 l -1.6875,-3.59375 C 22.98408,10.180747 22.85638,10.129707 22.75,10.15625 Z m -7.90625,3.65625 c -0.05129,0.0054 -0.08646,0.0231 -0.125,0.0625 l -1.78125,1.8125 c -0.07498,0.07635 -0.08651,0.188823 -0.03125,0.28125 l 2.0625,3.5 c -0.370302,0.632019 -0.662876,1.312398 -0.875,2.03125 l -3.8125,0.8125 c -0.106644,0.02246 -0.1875,0.107647 -0.1875,0.21875 l 0,2.5625 c 0,0.108266 0.05349,0.193536 0.15625,0.21875 l 3.71875,0.9375 c 0.198385,0.832555 0.531185,1.618357 0.9375,2.34375 L 12.75,31.90625 c -0.06007,0.09314 -0.04636,0.234019 0.03125,0.3125 l 1.78125,1.8125 c 0.07498,0.07596 0.18982,0.08704 0.28125,0.03125 l 3.4375,-3.875 0.03125,-0.5625 C 16.884689,28.181486 16,26.200184 16,24 c 0,-2.461369 1.105974,-4.659762 2.84375,-6.125 L 18.875,17.40625 15,13.84375 C 14.95413,13.81334 14.895044,13.8071 14.84375,13.8125 Z M 31.8125,25.78125 C 31.008624,29.35252 27.820971,32 24,32 23.086785,32 22.222444,31.841816 21.40625,31.5625 l -0.5,0.28125 -1.3125,5.03125 c -0.0061,0.111068 0.05052,0.221539 0.15625,0.25 l 2.4375,0.65625 c 0.102596,0.02784 0.229952,10e-4 0.28125,-0.09375 l 1.9375,-3.59375 c 0.724288,0.01022 1.436816,-0.04648 2.15625,-0.21875 l 2.59375,2.96875 c 0.0724,0.0826 0.217674,0.08671 0.3125,0.03125 l 2.1875,-1.28125 c 0.0924,-0.05405 0.12353,-0.147017 0.09375,-0.25 l -1.0625,-3.75 c 0.611544,-0.590137 1.11497,-1.249203 1.53125,-1.96875 l 3.9375,0.21875 c 0.109482,0.0063 0.190514,-0.0488 0.21875,-0.15625 l 0.65625,-2.46875 c 0.0274,-0.103873 -4.93e-4,-0.228673 -0.09375,-0.28125 l -5.125,-1.15625 z"
         transform="matrix(2.612597,0,0,2.5734587,-29.759753,-32.664574)"
         id="path79-9-8-1"
         inkscape:connector-curvature="0" />
    </g>
  </g>
</svg>
