<?xml version="1.0" encoding="UTF-8" standalone="no"?>
<!-- Created with Inkscape (http://www.inkscape.org/) -->

<svg
   xmlns:dc="http://purl.org/dc/elements/1.1/"
   xmlns:cc="http://creativecommons.org/ns#"
   xmlns:rdf="http://www.w3.org/1999/02/22-rdf-syntax-ns#"
   xmlns:svg="http://www.w3.org/2000/svg"
   xmlns="http://www.w3.org/2000/svg"
   xmlns:xlink="http://www.w3.org/1999/xlink"
   xmlns:sodipodi="http://sodipodi.sourceforge.net/DTD/sodipodi-0.dtd"
   xmlns:inkscape="http://www.inkscape.org/namespaces/inkscape"
   width="48px"
   height="48px"
   id="svg3039"
   version="1.1"
   inkscape:version="0.91 r13725"
   sodipodi:docname="distributor-logo-openmandriva.svg">
  <defs
     id="defs3041">
    <linearGradient
       id="linearGradient4239">
      <stop
         style="stop-color:#505050;stop-opacity:1;"
         offset="0"
         id="stop4241" />
      <stop
         style="stop-color:#ffffff;stop-opacity:0.15422885;"
         offset="1"
         id="stop4243" />
    </linearGradient>
    <linearGradient
       inkscape:collect="always"
       xlink:href="#linearGradient4239"
       id="linearGradient4245"
       x1="44"
       y1="28.00672"
       x2="57.993282"
       y2="13"
       gradientUnits="userSpaceOnUse" />
  </defs>
  <sodipodi:namedview
     id="base"
     pagecolor="#ffffff"
     bordercolor="#666666"
     borderopacity="1.0"
     inkscape:pageopacity="0.0"
     inkscape:pageshadow="2"
     inkscape:zoom="8.0000004"
     inkscape:cx="14.953936"
     inkscape:cy="25.050018"
     inkscape:current-layer="layer1"
     showgrid="false"
     inkscape:grid-bbox="true"
     inkscape:document-units="px"
     showguides="false"
     inkscape:guide-bbox="true"
     inkscape:window-width="1366"
     inkscape:window-height="698"
     inkscape:window-x="-4"
     inkscape:window-y="-5"
     inkscape:window-maximized="1"
     inkscape:snap-global="true">
    <inkscape:grid
       type="xygrid"
       id="grid3047" />
    <sodipodi:guide
       orientation="1,0"
       position="3,4"
       id="guide3051" />
    <sodipodi:guide
       orientation="1,0"
       position="45,4"
       id="guide3053" />
    <sodipodi:guide
       orientation="0,1"
       position="-2,45"
       id="guide3055" />
    <sodipodi:guide
       orientation="0,1"
       position="2,3"
       id="guide3057" />
    <sodipodi:guide
       orientation="1,0"
       position="24,31"
       id="guide3059" />
    <sodipodi:guide
       orientation="0,1"
       position="10,24"
       id="guide3061" />
  </sodipodi:namedview>
  <metadata
     id="metadata3044">
    <rdf:RDF>
      <cc:Work
         rdf:about="">
        <dc:format>image/svg+xml</dc:format>
        <dc:type
           rdf:resource="http://purl.org/dc/dcmitype/StillImage" />
        <dc:title />
      </cc:Work>
    </rdf:RDF>
  </metadata>
  <g
     id="layer1"
     inkscape:label="Layer 1"
     inkscape:groupmode="layer">
    <path
       style="fill:#2e89c2;fill-opacity:1;stroke:none"
       d="M 24,3 C 12.39831,3 2.9932826,12.402019 2.9932826,24.000001 2.9932826,35.59798 12.39831,45 24,45 35.601689,45 45.006717,35.59798 45.006717,24.000001 45.006717,12.402019 35.601689,3 24,3 Z m 0,3.3157894 c 9.769844,0 17.689867,7.9174906 17.689867,17.6842116 0,9.766718 -7.920023,17.684208 -17.689867,17.684208 -9.769845,0 -17.6898672,-7.91749 -17.6898672,-17.684208 C 6.3101328,14.23328 14.230155,6.3157894 24,6.3157894 Z"
       id="path4080-7"
       inkscape:connector-curvature="0" />
    <g
       id="g4214"
       transform="translate(-92.993284,0)"
       style="fill:url(#linearGradient4245);fill-opacity:1" />
    <g
       style="fill:#5fd35f;fill-opacity:1"
       id="g3845"
       transform="matrix(0.95207646,0,0,0.95207627,38.915163,1.3350822)" />
    <g
       style="fill:#ececec;fill-opacity:1"
       id="g3095"
       transform="matrix(0.95207645,0,0,0.95207629,-17.401687,1.3350822)">
      <path
         style="fill:#ececec;fill-opacity:1;stroke:none"
         d="M 24,6 C 14.058874,6 6,14.058875 6,24 6,33.941125 14.058874,42 24,42 33.941126,42 42,33.941125 42,24 42,14.058875 33.941126,6 24,6 Z"
         transform="matrix(1.1670398,0,0,1.16704,15.47672,-4.2031809)"
         id="path3097"
         inkscape:connector-curvature="0"
         sodipodi:nodetypes="sssss" />
    </g>
    <g
       transform="matrix(0.95207639,0,0,0.95207625,-17.401684,2.3350823)"
       id="g4231"
       style="fill:#2e89c2;fill-opacity:1">
      <ellipse
         style="fill:#2e89c2;fill-opacity:1;stroke:none"
         id="path4233"
         transform="matrix(1.0234042,0,0,1.0787235,16.365463,-2.5945583)"
         cx="26.5"
         cy="23.5"
         rx="19.5"
         ry="18.5" />
    </g>
    <g
       transform="matrix(0.80926498,0,0,0.80926483,-11.191434,4.7348198)"
       id="g3099"
       style="fill:#00000f;fill-opacity:1" />
    <g
       transform="matrix(0.85686881,0,0,0.85686866,-13.261519,3.601574)"
       id="g3080"
       style="fill:#ececec;fill-opacity:1">
      <path
         sodipodi:nodetypes="sssss"
         inkscape:connector-curvature="0"
         id="path3082"
         transform="matrix(1.1670398,0,0,1.16704,15.47672,-4.2031809)"
         d="M 24,6 C 14.058874,6 6,14.058875 6,24 6,33.941125 14.058874,42 24,42 33.941126,42 42,33.941125 42,24 42,14.058875 33.941126,6 24,6 Z"
         style="fill:#ececec;fill-opacity:1;stroke:none" />
    </g>
    <g
       transform="matrix(0.8661884,0,0,0.8661884,4.2942139,3.2114784)"
       id="g4005"
       style="fill:#2e89c2;fill-opacity:1">
      <path
         inkscape:connector-curvature="0"
         id="rect3988"
         d="M 22.9375,9 C 14.668786,9 8,15.69 8,24 c 0,8.31 6.668786,15 14.9375,15 l 0.125,0 C 30.006076,39 35.817118,34.276623 37.5,27.84375 35.463428,31.518024 31.56074,34 27.0625,34 l -0.125,0 C 20.322529,34 15,28.648 15,22 15,15.352 20.322529,10 26.9375,10 l 0.125,0 c 0.588308,0 1.153681,0.07444 1.71875,0.15625 C 27.025864,9.430351 25.084412,9 23.0625,9 l -0.125,0 z"
         style="fill:#2e89c2;fill-opacity:1;stroke:none" />
      <path
         inkscape:connector-curvature="0"
         id="rect3990"
         d="M 26.9375,12 C 21.425023,12 17,16.46 17,22 c 0,5.54 4.425023,10 9.9375,10 l 0.125,0 C 32.574977,32 37,27.54 37,22 37,16.46 32.574977,12 27.0625,12 l -0.125,0 z m 0.03125,2 0.0625,0 C 31.441231,14 35,17.568 35,22 c 0,4.432 -3.558769,8 -7.96875,8 l -0.0625,0 C 22.558769,30 19,26.432 19,22 c 0,-4.432 3.558769,-8 7.96875,-8 z"
         style="fill:#2e89c2;fill-opacity:1;stroke:none" />
    </g>
  </g>
</svg>
