<?xml version="1.0" encoding="UTF-8" standalone="no"?>
<!-- Created with Inkscape (http://www.inkscape.org/) -->

<svg
   xmlns:dc="http://purl.org/dc/elements/1.1/"
   xmlns:cc="http://creativecommons.org/ns#"
   xmlns:rdf="http://www.w3.org/1999/02/22-rdf-syntax-ns#"
   xmlns:svg="http://www.w3.org/2000/svg"
   xmlns="http://www.w3.org/2000/svg"
   xmlns:xlink="http://www.w3.org/1999/xlink"
   xmlns:sodipodi="http://sodipodi.sourceforge.net/DTD/sodipodi-0.dtd"
   xmlns:inkscape="http://www.inkscape.org/namespaces/inkscape"
   width="48px"
   height="48px"
   id="svg3039"
   version="1.1"
   inkscape:version="0.91 r13725"
   sodipodi:docname="distributor-logo-debian4.svg">
  <defs
     id="defs3041">
    <linearGradient
       id="linearGradient4239">
      <stop
         style="stop-color:#505050;stop-opacity:1;"
         offset="0"
         id="stop4241" />
      <stop
         style="stop-color:#ffffff;stop-opacity:0.15422885;"
         offset="1"
         id="stop4243" />
    </linearGradient>
    <linearGradient
       inkscape:collect="always"
       xlink:href="#linearGradient4239"
       id="linearGradient4245"
       x1="44"
       y1="28.00672"
       x2="57.993282"
       y2="13"
       gradientUnits="userSpaceOnUse" />
  </defs>
  <sodipodi:namedview
     id="base"
     pagecolor="#ffffff"
     bordercolor="#666666"
     borderopacity="1.0"
     inkscape:pageopacity="0.0"
     inkscape:pageshadow="2"
     inkscape:zoom="5.6568545"
     inkscape:cx="-2.4975808"
     inkscape:cy="21.168066"
     inkscape:current-layer="layer1"
     showgrid="false"
     inkscape:grid-bbox="true"
     inkscape:document-units="px"
     showguides="false"
     inkscape:guide-bbox="true"
     inkscape:window-width="1366"
     inkscape:window-height="698"
     inkscape:window-x="-4"
     inkscape:window-y="-5"
     inkscape:window-maximized="1"
     inkscape:snap-global="true">
    <inkscape:grid
       type="xygrid"
       id="grid3047" />
    <sodipodi:guide
       orientation="1,0"
       position="3,4"
       id="guide3051" />
    <sodipodi:guide
       orientation="1,0"
       position="45,4"
       id="guide3053" />
    <sodipodi:guide
       orientation="0,1"
       position="-2,45"
       id="guide3055" />
    <sodipodi:guide
       orientation="0,1"
       position="2,3"
       id="guide3057" />
    <sodipodi:guide
       orientation="1,0"
       position="24,31"
       id="guide3059" />
    <sodipodi:guide
       orientation="0,1"
       position="10,24"
       id="guide3061" />
  </sodipodi:namedview>
  <metadata
     id="metadata3044">
    <rdf:RDF>
      <cc:Work
         rdf:about="">
        <dc:format>image/svg+xml</dc:format>
        <dc:type
           rdf:resource="http://purl.org/dc/dcmitype/StillImage" />
        <dc:title />
      </cc:Work>
    </rdf:RDF>
  </metadata>
  <g
     id="layer1"
     inkscape:label="Layer 1"
     inkscape:groupmode="layer">
    <g
       transform="matrix(1.1024043,0,0,1.1024041,-23.938797,-2.2435893)"
       id="g4231"
       style="fill:#808080;fill-opacity:1">
      <ellipse
         style="fill:#b3b3b3;fill-opacity:1;stroke:none"
         id="path4233"
         transform="matrix(1.0234042,0,0,1.0787235,16.365465,-1.5442224)"
         cx="26.5"
         cy="23.5"
         rx="19.5"
         ry="18.5" />
    </g>
    <g
       id="g4214"
       transform="translate(-92.993284,0)"
       style="fill:url(#linearGradient4245);fill-opacity:1" />
    <g
       style="fill:#5fd35f;fill-opacity:1"
       id="g3845"
       transform="matrix(0.95207646,0,0,0.95207627,38.915163,1.3350822)" />
    <g
       style="fill:#e6e6e6;fill-opacity:1"
       id="g3095"
       transform="matrix(0.90447263,0,0,0.90447247,-15.331603,2.4683281)" />
    <g
       transform="matrix(0.80926498,0,0,0.80926483,-11.191434,4.7348198)"
       id="g3099"
       style="fill:#00000f;fill-opacity:1" />
    <g
       id="g3123"
       transform="matrix(0.31264419,0,0,0.31264419,6.2114765,13.070877)"
       style="fill:#444444;fill-opacity:1">
      <path
         id="path4"
         d="m 63.969864,37.51401 c -1.493969,0.02 0.280994,0.767984 2.231953,1.068978 0.540989,-0.421992 1.026979,-0.845983 1.46297,-1.259974 -1.212975,0.296994 -2.448949,0.303994 -3.694923,0.190996"
         inkscape:connector-curvature="0"
         style="fill:#444444;fill-opacity:1" />
      <path
         id="path6"
         d="m 71.986697,35.515051 c 0.892982,-1.228974 1.540968,-2.572946 1.769963,-3.962917 -0.200995,0.989979 -0.735984,1.844961 -1.243974,2.748943 -2.792942,1.758963 -0.263994,-1.043979 -0.002,-2.110956 -3.001937,3.782921 -0.413991,2.267952 -0.523989,3.32493"
         inkscape:connector-curvature="0"
         style="fill:#444444;fill-opacity:1" />
      <path
         id="path8"
         d="m 74.949636,27.811212 c 0.181996,-2.690945 -0.528989,-1.838962 -0.767984,-0.813984 0.277994,0.145997 0.498989,1.897961 0.767984,0.813984"
         inkscape:connector-curvature="0"
         style="fill:#444444;fill-opacity:1" />
      <path
         id="path10"
         d="m 58.301982,-8.9670242 c 0.797983,0.1419971 1.723964,0.2519948 1.590967,0.4429908 0.875981,-0.192996 1.072977,-0.3669923 -1.590967,-0.4429908"
         inkscape:connector-curvature="0"
         style="fill:#444444;fill-opacity:1" />
      <path
         id="path12"
         d="m 59.893948,-8.5240334 -0.560988,0.1169976 0.522989,-0.047999 0.038,-0.068999"
         inkscape:connector-curvature="0"
         style="fill:#444444;fill-opacity:1" />
      <path
         id="path14"
         d="m 84.762432,28.83119 c 0.09,2.41595 -0.704986,3.589926 -1.423971,5.665883 l -1.292973,0.642986 c -1.056978,2.053958 0.104998,1.303973 -0.651986,2.936939 -1.651966,1.46697 -5.005896,4.588905 -6.079874,4.874899 -0.784984,-0.017 0.530989,-0.925981 0.702985,-1.280973 -2.208954,1.515968 -1.772963,2.275952 -5.151892,3.198933 l -0.098,-0.220995 c -8.329827,3.919918 -19.901587,-3.84692 -19.74959,-14.4427 -0.088,0.671986 -0.252995,0.503989 -0.436991,0.773984 -0.429991,-5.450887 2.517948,-10.925773 7.489844,-13.164727 4.862899,-2.40595 10.563781,-1.41997 14.044709,1.828962 -1.911961,-2.505948 -5.720882,-5.162892 -10.231788,-4.916898 -4.420908,0.072 -8.557822,2.880941 -9.937793,5.931877 -2.263953,1.424971 -2.527948,5.495886 -3.513927,6.24187 -1.328973,9.759798 2.496948,13.97471 8.969813,18.935607 1.015979,0.685986 0.285994,0.790984 0.421992,1.312973 -2.149956,-1.005979 -4.117915,-2.525948 -5.737881,-4.386909 0.859982,1.256974 1.786963,2.478948 2.985938,3.438928 -2.028958,-0.684985 -4.737902,-4.912898 -5.526885,-5.084894 3.494927,6.25787 14.177705,10.974772 19.774589,8.633821 -2.589947,0.096 -5.878878,0.053 -8.786818,-1.021979 -1.224974,-0.628987 -2.88394,-1.92996 -2.586946,-2.172955 7.635841,2.850941 15.521677,2.157955 22.12754,-3.136935 1.681965,-1.309973 3.517927,-3.536926 4.048916,-3.566926 -0.798983,1.201975 0.136997,0.577988 -0.47699,1.638966 1.671965,-2.700944 -0.728985,-1.099977 1.729964,-4.663903 l 0.907981,1.249974 c -0.339993,-2.243953 2.784942,-4.965897 2.466949,-8.511823 0.716985,-1.083977 0.798983,1.167976 0.039,3.661924 1.054978,-2.766942 0.278994,-3.211933 0.548989,-5.495886 0.290994,0.767984 0.677986,1.582967 0.874981,2.39395 -0.687985,-2.674944 0.702986,-4.502906 1.048979,-6.057874 -0.341993,-0.149997 -1.060978,1.181976 -1.226975,-1.975959 0.025,-1.371971 0.382992,-0.718985 0.519989,-1.056978 -0.267994,-0.154996 -0.974979,-1.206975 -1.40397,-3.223933 0.308993,-0.47499 0.831982,1.228975 1.255973,1.297973 -0.272994,-1.602966 -0.741984,-2.825941 -0.761984,-4.056915 -1.239974,-2.589946 -0.438991,0.345993 -1.44297,-1.111977 -1.319972,-4.113915 1.093978,-0.95498 1.257974,-2.822942 1.997959,2.89494 3.136935,7.384847 3.661924,9.243808 -0.399992,-2.266952 -1.044978,-4.463907 -1.833962,-6.588863 0.608987,0.256995 -0.97898,-4.662903 0.790984,-1.40497 -1.88896,-6.944856 -8.077831,-13.4347213 -13.772713,-16.4786581 0.694985,0.6369868 1.573967,1.4369702 1.259974,1.5629676 -2.833941,-1.684965 -2.335952,-1.8179623 -2.741943,-2.5299475 -2.304952,-0.9389804 -2.458949,0.076998 -3.983918,0.002 -4.349909,-2.307952 -5.187892,-2.0629571 -9.190809,-3.5069271 l 0.181997,0.8519823 c -2.88094,-0.9599801 -3.356931,0.3619924 -6.469866,0.002 -0.188996,-0.146997 0.997979,-0.5359889 1.975959,-0.676986 -2.785942,0.3679923 -2.655945,-0.5499886 -5.381888,0.1009979 0.670986,-0.4709902 1.382971,-0.7839837 2.098956,-1.1839754 -2.270953,0.1379971 -5.423887,1.3219725 -4.450907,0.2439949 -3.704923,1.6539657 -10.285786,3.9749174 -13.97871,7.4378455 L 37.508414,-2.5841568 C 35.816449,-0.553199 30.129567,3.481717 29.676576,6.114662 l -0.45299,0.104998 c -0.878982,1.490969 -1.44997,3.179934 -2.147955,4.712902 -1.150977,1.96296 -1.687965,0.755985 -1.523969,1.063978 -2.264953,4.591905 -3.391929,8.449825 -4.362909,11.615759 0.691985,1.034978 0.017,6.23187 0.277994,10.390784 -1.135976,20.543573 14.4177,40.488159 31.419347,45.092063 2.491948,0.892981 6.196871,0.860982 9.348806,0.94898 -3.717923,-1.063978 -4.197913,-0.562988 -7.821838,-1.825962 -2.612945,-1.231974 -3.184933,-2.636945 -5.036895,-4.243912 l 0.732985,1.294973 c -3.629925,-1.284973 -2.110956,-1.589967 -5.064895,-2.524947 l 0.782984,-1.020979 c -1.176976,-0.09 -3.116935,-1.981959 -3.646924,-3.032937 l -1.287974,0.051 c -1.545968,-1.90596 -2.37095,-3.282932 -2.309952,-4.34991 L 38.1664,65.133437 c -0.47099,-0.808983 -5.690882,-7.157851 -2.982938,-5.679882 -0.50299,-0.45799 -1.171976,-0.746984 -1.896961,-2.065957 l 0.550989,-0.628987 c -1.300973,-1.676965 -2.39795,-3.82592 -2.313952,-4.541906 0.694986,0.937981 1.176976,1.113977 1.654966,1.274974 -3.290932,-8.16383 -3.475928,-0.448991 -5.966876,-8.309827 l 0.525989,-0.042 c -0.402992,-0.610988 -0.649987,-1.269974 -0.97398,-1.918961 l 0.229995,-2.284952 C 24.625681,38.199996 26.331646,29.291181 26.674639,24.406282 26.909634,22.420324 28.651598,20.305368 29.97457,16.988436 L 29.168587,16.850439 C 30.710555,14.162495 37.970404,6.051664 41.334334,6.467655 42.9633,4.421698 41.010341,6.459655 40.691348,5.945666 44.270273,2.242743 45.39525,3.32972 47.8102,2.662734 50.413145,1.117766 45.575246,3.266722 46.80922,2.073746 c 4.502907,-1.148976 3.189934,-2.6139453 9.062812,-3.1969332 0.619987,0.3519927 -1.43697,0.5439887 -1.952959,1.0009792 3.749922,-1.8359618 11.868753,-1.4169705 17.144643,1.017979 6.116873,2.86094 12.99373,11.313765 13.265725,19.2666 l 0.308993,0.083 c -0.155996,3.161934 0.48399,6.818858 -0.626987,10.176788 l 0.750985,-1.590967"
         inkscape:connector-curvature="0"
         style="fill:#444444;fill-opacity:1" />
      <path
         id="path16"
         d="m 47.659203,39.563967 -0.210996,1.046979 c 0.98298,1.334972 1.762963,2.780942 3.015937,3.82092 -0.901981,-1.758963 -1.570967,-2.485948 -2.804941,-4.867899"
         inkscape:connector-curvature="0"
         style="fill:#444444;fill-opacity:1" />
      <path
         id="path18"
         d="m 49.980154,39.473969 c -0.519989,-0.575988 -0.825982,-1.267973 -1.171975,-1.955959 0.329993,1.210975 1.005979,2.251953 1.632966,3.311931 l -0.460991,-1.355972"
         inkscape:connector-curvature="0"
         style="fill:#444444;fill-opacity:1" />
      <path
         id="path20"
         d="m 91.063301,30.544155 -0.218996,0.551988 c -0.401991,2.857941 -1.272973,5.685882 -2.604946,8.308828 1.47197,-2.766943 2.42095,-5.79388 2.823942,-8.860816"
         inkscape:connector-curvature="0"
         style="fill:#444444;fill-opacity:1" />
      <path
         id="path22"
         d="m 58.598975,-9.6840093 c 1.008979,-0.3689927 2.481949,-0.2029957 3.555926,-0.4459907 -1.39797,0.116998 -2.788942,0.1869961 -4.161913,0.3619925 l 0.605987,0.083998"
         inkscape:connector-curvature="0"
         style="fill:#444444;fill-opacity:1" />
      <path
         id="path24"
         d="m 23.128713,9.177599 c 0.232995,2.153955 -1.619967,2.990938 0.409991,1.568967 1.089977,-2.453949 -0.423991,-0.676986 -0.409991,-1.568967"
         inkscape:connector-curvature="0"
         style="fill:#444444;fill-opacity:1" />
      <path
         id="path26"
         d="m 20.740762,19.151392 c 0.46899,-1.436971 0.552989,-2.298953 0.731985,-3.131935 -1.292973,1.653965 -0.595988,2.006958 -0.731985,3.131935"
         inkscape:connector-curvature="0"
         style="fill:#444444;fill-opacity:1" />
    </g>
    <g
       style="fill:#1a1a1a;fill-opacity:1"
       id="g3068"
       transform="matrix(1.0021857,0,0,1.0021855,-19.580722,0.14219182)" />
    <g
       transform="matrix(0.90196711,0,0,0.90196698,-15.22265,2.5279727)"
       id="g3072"
       style="fill:#666666;fill-opacity:1" />
  </g>
</svg>
