<?xml version="1.0" encoding="UTF-8" standalone="no"?>
<!-- Created with Inkscape (http://www.inkscape.org/) -->

<svg
   xmlns:dc="http://purl.org/dc/elements/1.1/"
   xmlns:cc="http://creativecommons.org/ns#"
   xmlns:rdf="http://www.w3.org/1999/02/22-rdf-syntax-ns#"
   xmlns:svg="http://www.w3.org/2000/svg"
   xmlns="http://www.w3.org/2000/svg"
   xmlns:xlink="http://www.w3.org/1999/xlink"
   xmlns:sodipodi="http://sodipodi.sourceforge.net/DTD/sodipodi-0.dtd"
   xmlns:inkscape="http://www.inkscape.org/namespaces/inkscape"
   width="48px"
   height="48px"
   id="svg3039"
   version="1.1"
   inkscape:version="0.91 r13725"
   sodipodi:docname="distributor-logo-fedora.svg">
  <defs
     id="defs3041">
    <linearGradient
       id="linearGradient4239">
      <stop
         style="stop-color:#505050;stop-opacity:1;"
         offset="0"
         id="stop4241" />
      <stop
         style="stop-color:#ffffff;stop-opacity:0.15422885;"
         offset="1"
         id="stop4243" />
    </linearGradient>
    <linearGradient
       inkscape:collect="always"
       xlink:href="#linearGradient4239"
       id="linearGradient4245"
       x1="44"
       y1="28.00672"
       x2="57.993282"
       y2="13"
       gradientUnits="userSpaceOnUse" />
  </defs>
  <sodipodi:namedview
     id="base"
     pagecolor="#ffffff"
     bordercolor="#666666"
     borderopacity="1.0"
     inkscape:pageopacity="0.0"
     inkscape:pageshadow="2"
     inkscape:zoom="5.6568545"
     inkscape:cx="26.482114"
     inkscape:cy="22.388565"
     inkscape:current-layer="layer1"
     showgrid="false"
     inkscape:grid-bbox="true"
     inkscape:document-units="px"
     showguides="false"
     inkscape:guide-bbox="true"
     inkscape:window-width="1366"
     inkscape:window-height="698"
     inkscape:window-x="-4"
     inkscape:window-y="-5"
     inkscape:window-maximized="1"
     inkscape:snap-global="true">
    <inkscape:grid
       type="xygrid"
       id="grid3047" />
    <sodipodi:guide
       orientation="1,0"
       position="3,4"
       id="guide3051" />
    <sodipodi:guide
       orientation="1,0"
       position="45,4"
       id="guide3053" />
    <sodipodi:guide
       orientation="0,1"
       position="-2,45"
       id="guide3055" />
    <sodipodi:guide
       orientation="0,1"
       position="2,3"
       id="guide3057" />
    <sodipodi:guide
       orientation="1,0"
       position="24,31"
       id="guide3059" />
    <sodipodi:guide
       orientation="0,1"
       position="10,24"
       id="guide3061" />
  </sodipodi:namedview>
  <metadata
     id="metadata3044">
    <rdf:RDF>
      <cc:Work
         rdf:about="">
        <dc:format>image/svg+xml</dc:format>
        <dc:type
           rdf:resource="http://purl.org/dc/dcmitype/StillImage" />
        <dc:title />
      </cc:Work>
    </rdf:RDF>
  </metadata>
  <g
     id="layer1"
     inkscape:label="Layer 1"
     inkscape:groupmode="layer">
    <path
       style="fill:#5f5fd3;fill-opacity:1;stroke:none"
       d="m 24,2.9932824 c -11.60169,0 -21.0067173,9.4050266 -21.0067173,21.0067186 0,11.60169 9.4050273,21.006717 21.0067173,21.006717 11.601689,0 21.006717,-9.405027 21.006717,-21.006717 C 45.006717,12.398309 35.601689,2.9932824 24,2.9932824 Z m 0,3.3168501 c 9.769844,0 17.689867,7.9200235 17.689867,17.6898685 0,9.769843 -7.920023,17.689866 -17.689867,17.689866 -9.769845,0 -17.6898672,-7.920023 -17.6898672,-17.689866 C 6.3101328,14.230156 14.230155,6.3101325 24,6.3101325 Z"
       id="path4080-7"
       inkscape:connector-curvature="0" />
    <g
       transform="matrix(0.95207646,0,0,0.95207627,-17.401689,1.3350819)"
       id="g4231"
       style="fill:#5f5fd3;fill-opacity:1">
      <ellipse
         style="fill:#ffffff;fill-opacity:1;stroke:none"
         id="path4233"
         transform="matrix(1.0234042,0,0,1.0787235,16.365465,-1.5442224)"
         cx="26.5"
         cy="23.5"
         rx="19.5"
         ry="18.5" />
    </g>
    <g
       id="g4214"
       transform="translate(-92.993284,0)"
       style="fill:url(#linearGradient4245);fill-opacity:1" />
    <g
       style="fill:#5fd35f;fill-opacity:1"
       id="g3845"
       transform="matrix(0.95207646,0,0,0.95207627,38.915163,1.3350822)" />
    <g
       style="fill:#dbdee3;fill-opacity:1"
       id="g3095"
       transform="matrix(0.85686882,0,0,0.85686864,-13.261519,3.6015744)">
      <path
         style="fill:#5f5fd3;fill-opacity:1;stroke:none"
         d="M 24,6 C 14.058874,6 6,14.058875 6,24 6,33.941125 14.058874,42 24,42 33.941126,42 42,33.941125 42,24 42,14.058875 33.941126,6 24,6 Z"
         transform="matrix(1.1670398,0,0,1.16704,15.47672,-4.2031809)"
         id="path3097"
         inkscape:connector-curvature="0"
         sodipodi:nodetypes="sssss" />
    </g>
    <g
       transform="matrix(0.80926498,0,0,0.80926483,-11.191434,4.7348198)"
       id="g3099"
       style="fill:#00000f;fill-opacity:1" />
    <g
       id="g3071"
       transform="matrix(0.70561077,0,0,0.70561077,6.8792296,7.7350014)">
      <path
         d="m 31.58976,6.1218 c -5.2967,0 -9.5901,4.2937 -9.5901,9.5902 l 0,5.0858 -5.0614,0 c -5.2966,0 -9.59,4.2727 -9.59,9.569 0,5.297 4.2936,9.5905 9.59,9.5905 5.2959,0 9.5895,-4.2935 9.5895,-9.5905 l 0,-5.1068 5.062,0 c 5.2959,0 9.5895,-4.2518 9.5895,-9.548 0,-5.2965 -4.2936,-9.5902 -9.5895,-9.5902 z m -9.5901,24.251 c -0.004,2.7908 -2.2691,5.0533 -5.0614,5.0533 -2.7953,0 -5.0823,-2.2662 -5.0823,-5.0615 0,-2.7963 2.287,-5.1045 5.0823,-5.1045 l 4.347,0 c 0.39486,0 0.71505,0.3196 0.71505,0.7138 0,7e-4 -4.86e-4,7e-4 -4.86e-4,0 l 0,4.3972 -1.62e-4,0 z m 9.5896,-9.578 -4.3473,0 c -0.39486,0 -0.71424,-0.3194 -0.71424,-0.7146 l 0,-4.3761 c 0.0047,-2.7925 2.2691,-5.0541 5.0616,-5.0541 2.7953,0 5.0828,2.2663 5.0828,5.0622 0,2.7955 -2.2875,5.0826 -5.0828,5.0826 z"
         id="path4070"
         inkscape:connector-curvature="0"
         style="opacity:1;fill:#8787de" />
      <path
         d="m 21.99976,20.8218 0,-5.086 c 0,-5.2966 4.2934,-9.5903 9.5901,-9.5903 0.80348,0 1.3744,0.091 2.1181,0.2852 1.0846,0.2845 1.9704,1.173 1.9709,2.2073 4.83e-4,1.2504 -0.90714,2.1593 -2.2636,2.1593 -0.64622,0 -0.87976,-0.1237 -1.8259,-0.1237 -2.7925,0 -5.0569,2.2616 -5.0616,5.0541 l 0,4.3759 c 0,0.3952 0.31938,0.7146 0.71424,0.7146 l 3.3263,0 c 1.2387,0 2.2389,0.9917 2.2399,2.2336 0,1.2425 -1.0017,2.2319 -2.2399,2.2319 l -4.0406,0 0,5.1069 c 0,5.296 -4.2936,9.5895 -9.5895,9.5895 -0.80364,0 -1.3746,-0.091 -2.1183,-0.2853 -1.0846,-0.2843 -1.9707,-1.1733 -1.9712,-2.2073 0,-1.25 0.90698,-2.1593 2.264,-2.1593 0.64557,0 0.87976,0.1239 1.8254,0.1239 2.7925,0 5.0575,-2.2618 5.0619,-5.0533 L 22,26 c 0,-0.3943 -0.3202,-0.7137 -0.71505,-0.7137 l -3.3254,0 c -1.239,0 -2.2401,-0.9885 -2.2401,-2.2313 -3.24e-4,-1.2497 1.0114,-2.2341 2.2636,-2.2341 l 4.0164,0 0,-1e-4 z"
         id="path6794"
         inkscape:connector-curvature="0"
         style="fill:#ffffff" />
    </g>
  </g>
</svg>
