<?xml version="1.0" encoding="UTF-8" standalone="no"?>
<!-- Created with Inkscape (http://www.inkscape.org/) -->

<svg
   xmlns:dc="http://purl.org/dc/elements/1.1/"
   xmlns:cc="http://creativecommons.org/ns#"
   xmlns:rdf="http://www.w3.org/1999/02/22-rdf-syntax-ns#"
   xmlns:svg="http://www.w3.org/2000/svg"
   xmlns="http://www.w3.org/2000/svg"
   xmlns:xlink="http://www.w3.org/1999/xlink"
   xmlns:sodipodi="http://sodipodi.sourceforge.net/DTD/sodipodi-0.dtd"
   xmlns:inkscape="http://www.inkscape.org/namespaces/inkscape"
   width="48px"
   height="48px"
   id="svg3039"
   version="1.1"
   inkscape:version="0.91 r13725"
   sodipodi:docname="distributor-logo-manjaro.svg">
  <defs
     id="defs3041">
    <linearGradient
       id="linearGradient4239">
      <stop
         style="stop-color:#505050;stop-opacity:1;"
         offset="0"
         id="stop4241" />
      <stop
         style="stop-color:#ffffff;stop-opacity:0.15422885;"
         offset="1"
         id="stop4243" />
    </linearGradient>
    <linearGradient
       inkscape:collect="always"
       xlink:href="#linearGradient4239"
       id="linearGradient4245"
       x1="44"
       y1="28.00672"
       x2="57.993282"
       y2="13"
       gradientUnits="userSpaceOnUse" />
  </defs>
  <sodipodi:namedview
     id="base"
     pagecolor="#ffffff"
     bordercolor="#666666"
     borderopacity="1.0"
     inkscape:pageopacity="0.0"
     inkscape:pageshadow="2"
     inkscape:zoom="5.6568545"
     inkscape:cx="-1.1310487"
     inkscape:cy="26.594452"
     inkscape:current-layer="layer1"
     showgrid="false"
     inkscape:grid-bbox="true"
     inkscape:document-units="px"
     showguides="false"
     inkscape:guide-bbox="true"
     inkscape:window-width="1366"
     inkscape:window-height="698"
     inkscape:window-x="-4"
     inkscape:window-y="-5"
     inkscape:window-maximized="1"
     inkscape:snap-global="true">
    <inkscape:grid
       type="xygrid"
       id="grid3047" />
    <sodipodi:guide
       orientation="1,0"
       position="3,4"
       id="guide3051" />
    <sodipodi:guide
       orientation="1,0"
       position="45,4"
       id="guide3053" />
    <sodipodi:guide
       orientation="0,1"
       position="-2,45"
       id="guide3055" />
    <sodipodi:guide
       orientation="0,1"
       position="2,3"
       id="guide3057" />
    <sodipodi:guide
       orientation="1,0"
       position="24,31"
       id="guide3059" />
    <sodipodi:guide
       orientation="0,1"
       position="10,24"
       id="guide3061" />
  </sodipodi:namedview>
  <metadata
     id="metadata3044">
    <rdf:RDF>
      <cc:Work
         rdf:about="">
        <dc:format>image/svg+xml</dc:format>
        <dc:type
           rdf:resource="http://purl.org/dc/dcmitype/StillImage" />
        <dc:title />
      </cc:Work>
    </rdf:RDF>
  </metadata>
  <g
     id="layer1"
     inkscape:label="Layer 1"
     inkscape:groupmode="layer">
    <path
       style="opacity:1;fill:#666666;fill-opacity:1;stroke:none;stroke-width:0.2;stroke-miterlimit:4;stroke-dasharray:none"
       d="M 24,2.9932825 C 12.39831,2.9932825 2.9932827,12.398308 2.9932827,24 2.9932826,35.60169 12.39831,45.006717 24,45.006717 35.601689,45.006717 45.006717,35.60169 45.006717,24 45.006717,12.398308 35.601689,2.9932825 24,2.9932825 Z m 0,3.3168501 C 33.769844,6.3101326 41.689867,14.230155 41.689867,24 41.689867,33.769843 33.769844,41.689866 24,41.689866 14.230155,41.689866 6.3101328,33.769843 6.3101328,24 6.3101328,14.230155 14.230155,6.3101326 24,6.3101326 Z"
       id="path4080-7"
       inkscape:connector-curvature="0" />
    <g
       transform="matrix(1.0021857,0,0,1.0021855,-19.580723,0.14219262)"
       id="g4231"
       style="fill:#f2f2f2;fill-opacity:1">
      <ellipse
         style="fill:#ececec;fill-opacity:1;stroke:none"
         id="path4233"
         transform="matrix(1.0234042,0,0,1.0787235,16.365465,-1.5442224)"
         cx="26.5"
         cy="23.5"
         rx="19.5"
         ry="18.5" />
    </g>
    <g
       id="g4214"
       transform="translate(-92.993284,0)"
       style="fill:url(#linearGradient4245);fill-opacity:1" />
    <g
       style="fill:#5fd35f;fill-opacity:1"
       id="g3845"
       transform="matrix(0.95207646,0,0,0.95207627,38.915163,1.3350822)" />
    <g
       style="fill:#35bf5c;fill-opacity:1"
       id="g3095"
       transform="matrix(0.90447263,0,0,0.90447247,-15.331603,2.4683282)">
      <path
         style="fill:#35bf5c;fill-opacity:1;stroke:none"
         d="M 24,6 C 14.058874,6 6,14.058875 6,24 6,33.941125 14.058874,42 24,42 33.941126,42 42,33.941125 42,24 42,14.058875 33.941126,6 24,6 Z m 0,1 c 9.388841,0 17,7.611159 17,17 0,9.388841 -7.611159,17 -17,17 C 14.611159,41 7,33.388841 7,24 7,14.611159 14.611159,7 24,7 Z"
         transform="matrix(1.1670398,0,0,1.16704,15.47672,-4.2031809)"
         id="path3097"
         inkscape:connector-curvature="0" />
    </g>
    <g
       transform="matrix(0.80926498,0,0,0.80926483,-11.191434,4.7348198)"
       id="g3099"
       style="fill:#00000f;fill-opacity:1" />
    <g
       id="g12886"
       transform="translate(0,0.5)">
      <rect
         ry="0"
         rx="0"
         y="26"
         x="13"
         height="7"
         width="6"
         id="rect3911"
         style="fill:#35bf5c;fill-opacity:1;stroke:none" />
      <rect
         style="fill:#35bf5c;fill-opacity:1;stroke:none"
         id="rect3913"
         width="6"
         height="11"
         x="21"
         y="22"
         rx="0"
         ry="0" />
      <rect
         ry="0"
         rx="0"
         y="14"
         x="29"
         height="19"
         width="6"
         id="rect3915"
         style="fill:#35bf5c;fill-opacity:1;stroke:none" />
      <rect
         transform="matrix(0,-1,-1,0,0,0)"
         ry="0"
         rx="0"
         y="-27"
         x="-20"
         height="14"
         width="6"
         id="rect3917"
         style="fill:#35bf5c;fill-opacity:1;stroke:none" />
      <rect
         style="fill:#35bf5c;fill-opacity:1;stroke:none"
         id="rect3919"
         width="6"
         height="9"
         x="13"
         y="15"
         rx="0"
         ry="0" />
    </g>
  </g>
</svg>
