<?xml version="1.0" encoding="UTF-8" standalone="no"?>
<!-- Created with Inkscape (http://www.inkscape.org/) -->

<svg
   xmlns:dc="http://purl.org/dc/elements/1.1/"
   xmlns:cc="http://creativecommons.org/ns#"
   xmlns:rdf="http://www.w3.org/1999/02/22-rdf-syntax-ns#"
   xmlns:svg="http://www.w3.org/2000/svg"
   xmlns="http://www.w3.org/2000/svg"
   xmlns:xlink="http://www.w3.org/1999/xlink"
   xmlns:sodipodi="http://sodipodi.sourceforge.net/DTD/sodipodi-0.dtd"
   xmlns:inkscape="http://www.inkscape.org/namespaces/inkscape"
   width="48px"
   height="48px"
   id="svg3039"
   version="1.1"
   inkscape:version="0.91 r13725"
   sodipodi:docname="distributor-logo-ubuntu.svg">
  <defs
     id="defs3041">
    <linearGradient
       id="linearGradient4239">
      <stop
         style="stop-color:#505050;stop-opacity:1;"
         offset="0"
         id="stop4241" />
      <stop
         style="stop-color:#ffffff;stop-opacity:0.15422885;"
         offset="1"
         id="stop4243" />
    </linearGradient>
    <linearGradient
       inkscape:collect="always"
       xlink:href="#linearGradient4239"
       id="linearGradient4245"
       x1="44"
       y1="28.00672"
       x2="57.993282"
       y2="13"
       gradientUnits="userSpaceOnUse" />
  </defs>
  <sodipodi:namedview
     id="base"
     pagecolor="#ffffff"
     bordercolor="#666666"
     borderopacity="1.0"
     inkscape:pageopacity="0.0"
     inkscape:pageshadow="2"
     inkscape:zoom="5.6568545"
     inkscape:cx="-10.672439"
     inkscape:cy="14.164783"
     inkscape:current-layer="layer1"
     showgrid="false"
     inkscape:grid-bbox="true"
     inkscape:document-units="px"
     showguides="false"
     inkscape:guide-bbox="true"
     inkscape:window-width="1366"
     inkscape:window-height="698"
     inkscape:window-x="-4"
     inkscape:window-y="-5"
     inkscape:window-maximized="1"
     inkscape:snap-global="true">
    <inkscape:grid
       type="xygrid"
       id="grid3047" />
    <sodipodi:guide
       orientation="1,0"
       position="3,4"
       id="guide3051" />
    <sodipodi:guide
       orientation="1,0"
       position="45,4"
       id="guide3053" />
    <sodipodi:guide
       orientation="0,1"
       position="-2,45"
       id="guide3055" />
    <sodipodi:guide
       orientation="0,1"
       position="2,3"
       id="guide3057" />
    <sodipodi:guide
       orientation="1,0"
       position="24,31"
       id="guide3059" />
    <sodipodi:guide
       orientation="0,1"
       position="14,24"
       id="guide3061" />
  </sodipodi:namedview>
  <metadata
     id="metadata3044">
    <rdf:RDF>
      <cc:Work
         rdf:about="">
        <dc:format>image/svg+xml</dc:format>
        <dc:type
           rdf:resource="http://purl.org/dc/dcmitype/StillImage" />
        <dc:title />
      </cc:Work>
    </rdf:RDF>
  </metadata>
  <g
     id="layer1"
     inkscape:label="Layer 1"
     inkscape:groupmode="layer">
    <g
       id="g4214"
       transform="translate(-92.993284,0)"
       style="fill:url(#linearGradient4245);fill-opacity:1" />
    <g
       transform="matrix(0.99968028,0,0,0.99968008,-19.471771,0.20183635)"
       id="g4231"
       style="fill:#e46d43;fill-opacity:1">
      <ellipse
         style="fill:#e46d43;fill-opacity:1;stroke:none"
         id="path4233"
         transform="matrix(1.0772675,0,0,1.1354984,14.938086,-2.8784328)"
         sodipodi:type="arc"
         sodipodi:ry="18.5"
         sodipodi:rx="19.5"
         sodipodi:cy="23.5"
         sodipodi:cx="26.5" />
    </g>
    <g
       style="fill:#e6e6e6;fill-opacity:1"
       id="g3068"
       transform="matrix(0.90447263,0,0,0.90447245,-15.331603,2.4683281)">
      <path
         style="fill:#e6e6e6;fill-opacity:1;stroke:none"
         d="M 24 5 C 13.50659 5 5 13.50659 5 24 C 5 34.49341 13.50659 43 24 43 C 34.49341 43 43 34.49341 43 24 C 43 13.50659 34.49341 5 24 5 z M 24 6 C 33.941125 6 42 14.058875 42 24 C 42 33.941125 33.941125 42 24 42 C 14.058875 42 6 33.941125 6 24 C 6 14.058875 14.058875 6 24 6 z "
         transform="matrix(1.1056167,0,0,1.1056169,16.950876,-2.7290252)"
         id="path3070" />
    </g>
    <g
       transform="matrix(0.84972825,0,0,0.84972807,-12.951007,3.7715608)"
       id="g3056"
       style="fill:#c837ab;fill-opacity:1" />
    <g
       style="fill:#ececec;fill-opacity:1"
       id="g3047"
       transform="matrix(0.66645353,0,0,0.66645337,-4.9811812,8.1345576)" />
    <path
       style="fill:#ffffff"
       inkscape:connector-curvature="0"
       id="rect4244"
       d="m 31.2187,9.1227774 c -0.13607,-0.0085 -0.2702,-0.0073 -0.40234,0.002 -0.88096,0.0622 -1.6968,0.55025 -2.1719,1.3729996 -0.75742,1.315 -0.30403,2.9859 1.0137,3.7461 1.315,0.7574 2.9887,0.31715 3.7461,-1.002 0.76009,-1.3109 0.32479,-3.0128 -0.99023,-3.7714996 -0.3706,-0.21315 -0.78711,-0.3221 -1.1953,-0.34766 z m -7.2168,2.9140996 c -1.901,0 -3.6789,0.44903 -5.2734,1.2402 l 1.9102,3.4492 c 1.0288,-0.4804 2.1563,-0.76367 3.3633,-0.76367 4.2016,0 7.6694,3.2151 8.0312,7.3262 l 3.9004,-0.04883 c -0.19444,-3.0297 -1.52,-5.755 -3.5547,-7.7559 -1.0477,0.393 -2.2376,0.33276 -3.2812,-0.27344 -1.0436,-0.6035 -1.7038,-1.6122 -1.8848,-2.7207 -1.018,-0.2795 -2.1052,-0.45312 -3.2109,-0.45312 z m -6.6211,2.0156 c -2.4086,1.608 -4.1824,4.0758 -4.9277,6.957 0.87218,0.7088 1.3965,1.7686 1.3965,2.9824 0,1.2056 -0.52296,2.3048 -1.3965,3.0176 0.74529,2.8798 2.5191,5.3373 4.9277,6.9453 l 2.015,-3.389 c -2.067,-1.4527 -3.4121,-3.8551 -3.4121,-6.5742 10e-7,-2.7219 1.3451,-5.1214 3.4121,-6.5742 z m -7.3867,7.1953 c -1.5216,0 -2.7441,1.2225 -2.7441,2.7441 0,1.5162 1.2225,2.7441 2.7441,2.7441 1.5229,0 2.7578,-1.2279 2.7578,-2.7441 0,-1.5216 -1.2349,-2.7441 -2.7578,-2.7441 z m 22.039,3.4727 c -0.36183,4.1044 -3.8296,7.3262 -8.0312,7.3262 -1.2084,0 -2.3345,-0.27125 -3.3633,-0.75195 l -1.9102,3.4238 c 1.5945,0.7939 3.3725,1.2285 5.2734,1.2285 1.1058,0 2.1929,-0.14759 3.2109,-0.42969 0.18092,-1.1071 0.83978,-2.1126 1.8848,-2.7188 1.0464,-0.6034 2.2336,-0.66197 3.2812,-0.26367 2.0347,-2.0036 3.3601,-4.7235 3.5547,-7.7559 z m -1.2051,8.6738 c -0.39816,0.0339 -0.80006,0.16636 -1.1699,0.38086 -1.3176,0.7548 -1.7711,2.4221 -1.0137,3.7344 0.76015,1.3191 2.4532,1.7613 3.7695,1.0039 1.3166,-0.7588 1.7503,-2.433 0.99023,-3.748 -0.47508,-0.8227 -1.3025,-1.3091 -2.1836,-1.3711 -0.1323,-0.011 -0.25998,-0.011 -0.39258,0 z" />
    <g
       transform="matrix(0.85686881,0,0,0.85686864,-13.261519,3.6015739)"
       id="g3081"
       style="fill:#e6e6e6;fill-opacity:1" />
  </g>
</svg>
