<?xml version="1.0" encoding="UTF-8" standalone="no"?>
<!-- Created with Inkscape (http://www.inkscape.org/) -->

<svg
   xmlns:dc="http://purl.org/dc/elements/1.1/"
   xmlns:cc="http://creativecommons.org/ns#"
   xmlns:rdf="http://www.w3.org/1999/02/22-rdf-syntax-ns#"
   xmlns:svg="http://www.w3.org/2000/svg"
   xmlns="http://www.w3.org/2000/svg"
   xmlns:xlink="http://www.w3.org/1999/xlink"
   xmlns:sodipodi="http://sodipodi.sourceforge.net/DTD/sodipodi-0.dtd"
   xmlns:inkscape="http://www.inkscape.org/namespaces/inkscape"
   width="48px"
   height="48px"
   id="svg3039"
   version="1.1"
   inkscape:version="0.91 r13725"
   sodipodi:docname="distributor-logo-mageia.svg">
  <defs
     id="defs3041">
    <linearGradient
       id="linearGradient4239">
      <stop
         style="stop-color:#505050;stop-opacity:1;"
         offset="0"
         id="stop4241" />
      <stop
         style="stop-color:#ffffff;stop-opacity:0.15422885;"
         offset="1"
         id="stop4243" />
    </linearGradient>
    <linearGradient
       inkscape:collect="always"
       xlink:href="#linearGradient4239"
       id="linearGradient4245"
       x1="44"
       y1="28.00672"
       x2="57.993282"
       y2="13"
       gradientUnits="userSpaceOnUse" />
  </defs>
  <sodipodi:namedview
     id="base"
     pagecolor="#ffffff"
     bordercolor="#666666"
     borderopacity="1.0"
     inkscape:pageopacity="0.0"
     inkscape:pageshadow="2"
     inkscape:zoom="8.0000004"
     inkscape:cx="16.044781"
     inkscape:cy="21.78064"
     inkscape:current-layer="layer1"
     showgrid="false"
     inkscape:grid-bbox="true"
     inkscape:document-units="px"
     showguides="false"
     inkscape:guide-bbox="true"
     inkscape:window-width="1366"
     inkscape:window-height="698"
     inkscape:window-x="-4"
     inkscape:window-y="-5"
     inkscape:window-maximized="1"
     inkscape:snap-global="true">
    <inkscape:grid
       type="xygrid"
       id="grid3047" />
    <sodipodi:guide
       orientation="1,0"
       position="3,4"
       id="guide3051" />
    <sodipodi:guide
       orientation="1,0"
       position="45,4"
       id="guide3053" />
    <sodipodi:guide
       orientation="0,1"
       position="-2,45"
       id="guide3055" />
    <sodipodi:guide
       orientation="0,1"
       position="2,3"
       id="guide3057" />
    <sodipodi:guide
       orientation="1,0"
       position="24,31"
       id="guide3059" />
    <sodipodi:guide
       orientation="0,1"
       position="10,24"
       id="guide3061" />
  </sodipodi:namedview>
  <metadata
     id="metadata3044">
    <rdf:RDF>
      <cc:Work
         rdf:about="">
        <dc:format>image/svg+xml</dc:format>
        <dc:type
           rdf:resource="http://purl.org/dc/dcmitype/StillImage" />
        <dc:title />
      </cc:Work>
    </rdf:RDF>
  </metadata>
  <g
     id="layer1"
     inkscape:label="Layer 1"
     inkscape:groupmode="layer">
    <path
       style="opacity:1;fill:#214478;fill-opacity:1;stroke:none;stroke-width:0.20000000000000001;stroke-miterlimit:4;stroke-dasharray:none"
       d="m 23.993283,2.9865651 c -11.60169,0 -21.0067177,9.4050259 -21.0067177,21.0067179 C 2.9865653,35.594973 12.391593,45 23.993283,45 35.594972,45 45,35.594973 45,23.993283 45,12.391591 35.594972,2.9865651 23.993283,2.9865651 z m 0,3.3168501 c 9.769844,0 17.689867,7.9200228 17.689867,17.6898678 0,9.769843 -7.920023,17.689866 -17.689867,17.689866 -9.769845,0 -17.6898675,-7.920023 -17.6898675,-17.689866 0,-9.769845 7.9200225,-17.6898678 17.6898675,-17.6898678 z"
       id="path4080-7"
       inkscape:connector-curvature="0" />
    <g
       transform="matrix(1.0021857,0,0,1.0021855,-19.580722,0.14219194)"
       id="g4231"
       style="fill:#f2f2f2;fill-opacity:1">
      <path
         sodipodi:type="arc"
         style="fill:#ececec;fill-opacity:1;stroke:none"
         id="path4233"
         sodipodi:cx="26.5"
         sodipodi:cy="23.5"
         sodipodi:rx="19.5"
         sodipodi:ry="18.5"
         d="M 46,23.5 A 19.5,18.5 0 0 1 26.5,42 19.5,18.5 0 0 1 7,23.5 19.5,18.5 0 0 1 26.5,5 19.5,18.5 0 0 1 46,23.5 Z"
         transform="matrix(1.0234042,0,0,1.0787235,16.365465,-1.5442224)" />
    </g>
    <g
       id="g4214"
       transform="translate(-92.993284,0)"
       style="fill:url(#linearGradient4245);fill-opacity:1" />
    <g
       style="fill:#5fd35f;fill-opacity:1"
       id="g3845"
       transform="matrix(0.95207646,0,0,0.95207627,38.915163,1.3350822)" />
    <g
       style="fill:#3771c8;fill-opacity:1"
       id="g3095"
       transform="matrix(0.90447263,0,0,0.90447247,-15.331603,2.4683281)">
      <path
         style="fill:#2397d4;fill-opacity:1;stroke:none"
         d="M 24,6 C 14.058874,6 6,14.058875 6,24 6,33.941125 14.058874,42 24,42 33.941126,42 42,33.941125 42,24 42,14.058875 33.941126,6 24,6 z m 0,1 c 9.388841,0 17,7.611159 17,17 0,9.388841 -7.611159,17 -17,17 C 14.611159,41 7,33.388841 7,24 7,14.611159 14.611159,7 24,7 z"
         transform="matrix(1.1670398,0,0,1.16704,15.47672,-4.2031809)"
         id="path3097"
         inkscape:connector-curvature="0" />
    </g>
    <g
       transform="matrix(0.80926498,0,0,0.80926483,-11.191434,4.7348198)"
       id="g3099"
       style="fill:#00000f;fill-opacity:1" />
    <g
       id="g5423"
       transform="matrix(0.16028978,0,0,0.16028978,-6.5706542,-73.579535)">
      <path
         id="path3042-0-6-4"
         d="m 177.89056,597.12767 h -0.01 c -6.6729,0 -12.10712,-5.42671 -12.11419,-12.09501 -0.01,-6.69051 5.42514,-12.12528 12.1041,-12.13236 6.68298,0 12.1162,5.42671 12.12426,12.09501 0,6.69052 -5.42512,12.1263 -12.10408,12.13337 h 0 z"
         inkscape:connector-curvature="0"
         style="fill:#2397d4;fill-opacity:1" />
      <path
         id="path3056-6-4-1"
         d="m 210.60812,588.24494 c -6.23094,0 -11.30246,-5.06615 -11.30657,-11.29167 -0.01,-6.24198 5.06123,-11.31635 11.2963,-11.32148 6.23916,0 11.31068,5.0651 11.31683,11.29063 0,6.24197 -5.06224,11.31635 -11.29628,11.32252 h -0.01 z"
         inkscape:connector-curvature="0"
         style="fill:#2397d4;fill-opacity:1" />
      <path
         sodipodi:type="arc"
         style="fill:#2397d4;fill-opacity:1"
         id="path4104"
         sodipodi:cx="-17"
         sodipodi:cy="-15.700835"
         sodipodi:rx="7"
         sodipodi:ry="7"
         d="m -10,-15.700835 a 7,7 0 0 1 -7,6.9999998 7,7 0 0 1 -7,-6.9999998 7,7 0 0 1 7,-7 7,7 0 0 1 7,7 z"
         transform="matrix(1.4421651,0,0,1.4421651,215.7232,578.60266)" />
      <path
         sodipodi:type="arc"
         style="fill:#2397d4;fill-opacity:1"
         id="path4106"
         sodipodi:cx="82.5"
         sodipodi:cy="-16.522263"
         sodipodi:rx="11.5"
         sodipodi:ry="11.5"
         d="M 94,-16.522263 A 11.5,11.5 0 0 1 82.5,-5.0222626 11.5,11.5 0 0 1 71,-16.522263 a 11.5,11.5 0 0 1 11.5,-11.5 11.5,11.5 0 0 1 11.5,11.5 z"
         transform="matrix(0.80761247,0,0,0.80761247,140.73061,552.34319)" />
      <path
         transform="matrix(0.76915473,0,0,0.76915473,187.18756,551.30398)"
         d="m 11,-37.522263 a 10.5,10.5 0 0 1 -10.5,10.5 10.5,10.5 0 0 1 -10.5,-10.5 10.5,10.5 0 0 1 10.5,-10.5 10.5,10.5 0 0 1 10.5,10.5 z"
         sodipodi:ry="10.5"
         sodipodi:rx="10.5"
         sodipodi:cy="-37.522263"
         sodipodi:cx="0.5"
         id="path4132"
         style="fill:#2397d4;fill-opacity:1"
         sodipodi:type="arc" />
    </g>
    <path
       style="fill:#214478;fill-opacity:1"
       d="m 28,24 c 1.077469,-0.545781 1.186625,-0.813375 2,0 1.62675,1.62675 3,3.507 3,6 0,4.986 -4.014,9 -9,9 -4.986,0 -9,-4.014 -9,-9 0,-2.493 1.37325,-4.37325 3,-6 0.813375,-0.813375 0.922531,-0.545781 2,0 3,2 5,2 8,0 z m -9,2 c -1.26525,1.26525 -2,2.061 -2,4 0,3.878 3.122,7 7,7 3.878,0 7,-3.122 7,-7 0,-1.939 -0.73475,-2.73475 -2,-4 -4,2 -6,2 -10,0 z"
       id="rect3113"
       inkscape:connector-curvature="0"
       sodipodi:nodetypes="cssssscccssscc" />
  </g>
</svg>
