<?xml version="1.0" encoding="UTF-8" standalone="no"?>
<!-- Created with Inkscape (http://www.inkscape.org/) -->

<svg
   xmlns:dc="http://purl.org/dc/elements/1.1/"
   xmlns:cc="http://creativecommons.org/ns#"
   xmlns:rdf="http://www.w3.org/1999/02/22-rdf-syntax-ns#"
   xmlns:svg="http://www.w3.org/2000/svg"
   xmlns="http://www.w3.org/2000/svg"
   xmlns:xlink="http://www.w3.org/1999/xlink"
   xmlns:sodipodi="http://sodipodi.sourceforge.net/DTD/sodipodi-0.dtd"
   xmlns:inkscape="http://www.inkscape.org/namespaces/inkscape"
   width="48px"
   height="48px"
   id="svg3039"
   version="1.1"
   inkscape:version="0.91 r13725"
   sodipodi:docname="distributor-logo-centos.svg">
  <defs
     id="defs3041">
    <linearGradient
       id="linearGradient4239">
      <stop
         style="stop-color:#505050;stop-opacity:1;"
         offset="0"
         id="stop4241" />
      <stop
         style="stop-color:#ffffff;stop-opacity:0.15422885;"
         offset="1"
         id="stop4243" />
    </linearGradient>
    <linearGradient
       inkscape:collect="always"
       xlink:href="#linearGradient4239"
       id="linearGradient4245"
       x1="44"
       y1="28.00672"
       x2="57.993282"
       y2="13"
       gradientUnits="userSpaceOnUse" />
  </defs>
  <sodipodi:namedview
     id="base"
     pagecolor="#ffffff"
     bordercolor="#666666"
     borderopacity="1.0"
     inkscape:pageopacity="0.0"
     inkscape:pageshadow="2"
     inkscape:zoom="5.6568545"
     inkscape:cx="18.969439"
     inkscape:cy="27.246962"
     inkscape:current-layer="layer1"
     showgrid="false"
     inkscape:grid-bbox="true"
     inkscape:document-units="px"
     showguides="false"
     inkscape:guide-bbox="true"
     inkscape:window-width="1366"
     inkscape:window-height="698"
     inkscape:window-x="-4"
     inkscape:window-y="-5"
     inkscape:window-maximized="1"
     inkscape:snap-global="true">
    <inkscape:grid
       type="xygrid"
       id="grid3047" />
    <sodipodi:guide
       orientation="1,0"
       position="3,4"
       id="guide3051" />
    <sodipodi:guide
       orientation="1,0"
       position="45,4"
       id="guide3053" />
    <sodipodi:guide
       orientation="0,1"
       position="-2,45"
       id="guide3055" />
    <sodipodi:guide
       orientation="0,1"
       position="2,3"
       id="guide3057" />
    <sodipodi:guide
       orientation="1,0"
       position="24,31"
       id="guide3059" />
    <sodipodi:guide
       orientation="0,1"
       position="10,24"
       id="guide3061" />
  </sodipodi:namedview>
  <metadata
     id="metadata3044">
    <rdf:RDF>
      <cc:Work
         rdf:about="">
        <dc:format>image/svg+xml</dc:format>
        <dc:type
           rdf:resource="http://purl.org/dc/dcmitype/StillImage" />
        <dc:title />
      </cc:Work>
    </rdf:RDF>
  </metadata>
  <g
     id="layer1"
     inkscape:label="Layer 1"
     inkscape:groupmode="layer">
    <path
       style="opacity:1;fill:#71c837;fill-opacity:1;stroke:none;stroke-width:0.20000000000000001;stroke-miterlimit:4;stroke-dasharray:none"
       d="m 23.993283,2.9865651 c -11.60169,0 -21.0067177,9.4050259 -21.0067177,21.0067179 C 2.9865653,35.594973 12.391593,45 23.993283,45 35.594972,45 45,35.594973 45,23.993283 45,12.391591 35.594972,2.9865651 23.993283,2.9865651 z m 0,3.3168501 c 9.769844,0 17.689867,7.9200228 17.689867,17.6898678 0,9.769843 -7.920023,17.689866 -17.689867,17.689866 -9.769845,0 -17.6898675,-7.920023 -17.6898675,-17.689866 0,-9.769845 7.9200225,-17.6898678 17.6898675,-17.6898678 z"
       id="path4080-7"
       inkscape:connector-curvature="0" />
    <g
       style="fill:#f2f2f2;fill-opacity:1"
       id="g3132"
       transform="matrix(1.0021857,0,0,1.0021855,-19.580722,0.14219194)">
      <path
         transform="matrix(1.0234042,0,0,1.0787235,16.365465,-1.5442224)"
         d="M 46,23.5 A 19.5,18.5 0 0 1 26.5,42 19.5,18.5 0 0 1 7,23.5 19.5,18.5 0 0 1 26.5,5 19.5,18.5 0 0 1 46,23.5 Z"
         sodipodi:ry="18.5"
         sodipodi:rx="19.5"
         sodipodi:cy="23.5"
         sodipodi:cx="26.5"
         id="path3134"
         style="fill:#a02c89;fill-opacity:1;stroke:none"
         sodipodi:type="arc" />
    </g>
    <g
       transform="matrix(0.9520764,0,0,0.95207625,-17.401686,1.3350824)"
       id="g4231"
       style="fill:#f2f2f2;fill-opacity:1">
      <path
         sodipodi:type="arc"
         style="fill:#e6e6e6;fill-opacity:1;stroke:none"
         id="path4233"
         sodipodi:cx="26.5"
         sodipodi:cy="23.5"
         sodipodi:rx="19.5"
         sodipodi:ry="18.5"
         d="M 46,23.5 A 19.5,18.5 0 0 1 26.5,42 19.5,18.5 0 0 1 7,23.5 19.5,18.5 0 0 1 26.5,5 19.5,18.5 0 0 1 46,23.5 Z"
         transform="matrix(1.0234042,0,0,1.0787235,16.365465,-1.5442224)" />
    </g>
    <g
       id="g4214"
       transform="translate(-92.993284,0)"
       style="fill:url(#linearGradient4245);fill-opacity:1" />
    <g
       style="fill:#5fd35f;fill-opacity:1"
       id="g3845"
       transform="matrix(0.95207646,0,0,0.95207627,38.915163,1.3350822)" />
    <g
       style="fill:#c83771;fill-opacity:1"
       id="g3095"
       transform="matrix(0.90447263,0,0,0.90447247,-15.331603,2.4683281)">
      <path
         style="fill:#d4aa00;fill-opacity:1;stroke:none"
         d="M 24,6 C 14.058874,6 6,14.058875 6,24 6,33.941125 14.058874,42 24,42 33.941126,42 42,33.941125 42,24 42,14.058875 33.941126,6 24,6 z m 0,1 c 9.388841,0 17,7.611159 17,17 0,9.388841 -7.611159,17 -17,17 C 14.611159,41 7,33.388841 7,24 7,14.611159 14.611159,7 24,7 z"
         transform="matrix(1.1670398,0,0,1.16704,15.47672,-4.2031809)"
         id="path3097"
         inkscape:connector-curvature="0" />
    </g>
    <g
       transform="matrix(0.80926498,0,0,0.80926483,-11.191434,4.7348198)"
       id="g3099"
       style="fill:#00000f;fill-opacity:1" />
    <g
       id="g3097"
       transform="matrix(0.16820097,0,0,0.16820097,14.712451,19.810342)">
      <path
         style="fill:#a02c89;fill-opacity:1;fill-rule:evenodd;stroke:none;stroke-width:30;marker:none;visibility:visible;display:inline;overflow:visible"
         id="path12808"
         d="m 42.064105,21.271709 6.169778,6.133712 -6.169778,6.133711 -43.42522,0 0,20.437528 -26.48298,-26.571239 26.48298,-26.123516 0,19.989793 43.42522,1.1e-5 z"
         inkscape:connector-curvature="0" />
      <path
         style="fill:#d4aa00;fill-opacity:1;fill-rule:evenodd;stroke:none;stroke-width:30;marker:none;visibility:visible;display:inline;overflow:visible"
         id="path12774"
         d="m 61.728094,14.063856 -6.133686,6.169803 -6.133687,-6.169803 0,-43.425391 -20.437448,0 26.571135,-26.483085 26.123412,26.483085 -19.989715,0 -1.1e-5,43.425391 z"
         inkscape:connector-curvature="0" />
      <path
         style="fill:#262577;fill-opacity:1;fill-rule:evenodd;stroke:none;stroke-width:30;marker:none;visibility:visible;display:inline;overflow:visible"
         id="path12784"
         d="m 68.935887,33.728011 -6.169778,-6.133712 6.169778,-6.133711 43.425223,0 0,-20.437532 26.48298,26.571243 -26.48298,26.123511 0,-19.989788 -43.425223,-1.1e-5 z"
         inkscape:connector-curvature="0" />
      <path
         style="fill:#71c837;fill-opacity:1;fill-rule:evenodd;stroke:none;stroke-width:30;marker:none;visibility:visible;display:inline;overflow:visible"
         id="path12796"
         d="m 49.271718,40.935934 6.133686,-6.169803 6.133687,6.169803 0,43.425396 20.437449,0 -26.571136,26.48308 -26.123409,-26.48308 19.989712,0 1.1e-5,-43.425396 z"
         inkscape:connector-curvature="0" />
      <path
         style="fill:#71c837;fill-opacity:1;stroke:#ffffff;stroke-width:3.76889276999999989;stroke-linecap:butt;stroke-linejoin:miter;stroke-miterlimit:4;stroke-opacity:1;stroke-dashoffset:0"
         id="rect12744"
         d="m -2.917949,-30.918143 52.764556,0 0,52.764817 -52.764556,0 0,-52.764817 z"
         inkscape:connector-curvature="0" />
      <path
         style="fill:#a02c89;fill-opacity:1;stroke:#ffffff;stroke-width:3.76889276999999989;stroke-linecap:butt;stroke-linejoin:miter;stroke-miterlimit:4;stroke-opacity:1;stroke-dashoffset:0"
         id="rect12746"
         d="m 61.153283,-30.918143 52.764557,0 0,52.764817 -52.764557,0 0,-52.764817 z"
         inkscape:connector-curvature="0" />
      <path
         style="fill:#d4aa00;fill-opacity:1;stroke:#ffffff;stroke-width:3.76889276999999989;stroke-linecap:butt;stroke-linejoin:miter;stroke-miterlimit:4;stroke-opacity:1;stroke-dashoffset:0"
         id="rect12748"
         d="m 61.153283,33.153245 52.764557,0 0,52.764815 -52.764557,0 0,-52.764815 z"
         inkscape:connector-curvature="0" />
      <path
         style="fill:#262577;fill-opacity:1;stroke:#ffffff;stroke-width:3.76889277;stroke-linecap:butt;stroke-linejoin:miter;stroke-miterlimit:4;stroke-opacity:1;stroke-dashoffset:0"
         id="rect12750"
         d="m -2.917949,33.153245 52.764556,0 0,52.764815 -52.764556,0 0,-52.764815 z"
         inkscape:connector-curvature="0" />
      <path
         style="fill:none;stroke:#ffffff;stroke-width:3.76889277;stroke-linecap:butt;stroke-linejoin:miter;stroke-miterlimit:4;stroke-opacity:1;stroke-dashoffset:0"
         id="rect12760"
         d="M -27.115564,27.500071 10.194603,-9.810245 47.504778,27.500078 10.194611,64.81039 -27.115564,27.500071 z"
         inkscape:connector-curvature="0" />
      <path
         style="fill:none;stroke:#ffffff;stroke-width:3.76863837;stroke-linecap:butt;stroke-linejoin:miter;stroke-miterlimit:4;stroke-opacity:1;stroke-dasharray:none;stroke-dashoffset:0"
         id="rect12762"
         d="M 18.189683,-17.805357 55.499857,-55.115681 92.81003,-17.805357 55.499857,19.504966 18.189683,-17.805357 z"
         inkscape:connector-curvature="0" />
      <path
         style="fill:none;stroke:#ffffff;stroke-width:3.76889277;stroke-linecap:butt;stroke-linejoin:miter;stroke-miterlimit:4;stroke-opacity:1;stroke-dashoffset:0"
         id="rect12764"
         d="M 63.494844,27.500015 100.80502,-9.810353 138.1152,27.500015 100.80502,64.81028 63.494844,27.500015 z"
         inkscape:connector-curvature="0" />
      <path
         style="fill:none;stroke:#ffffff;stroke-width:3.76889277;stroke-linecap:butt;stroke-linejoin:miter;stroke-miterlimit:4;stroke-opacity:1;stroke-dashoffset:0"
         id="rect12766"
         d="M 18.189593,72.80541 55.49976,35.495092 92.80993,72.80542 55.499767,110.11573 18.189593,72.80541 z"
         inkscape:connector-curvature="0" />
    </g>
  </g>
</svg>
