<?xml version="1.0" encoding="UTF-8" standalone="no"?>
<!-- Created with Inkscape (http://www.inkscape.org/) -->

<svg
   xmlns:dc="http://purl.org/dc/elements/1.1/"
   xmlns:cc="http://creativecommons.org/ns#"
   xmlns:rdf="http://www.w3.org/1999/02/22-rdf-syntax-ns#"
   xmlns:svg="http://www.w3.org/2000/svg"
   xmlns="http://www.w3.org/2000/svg"
   xmlns:sodipodi="http://sodipodi.sourceforge.net/DTD/sodipodi-0.dtd"
   xmlns:inkscape="http://www.inkscape.org/namespaces/inkscape"
   width="256"
   height="256"
   id="svg2"
   version="1.1"
   inkscape:version="0.91 r13725"
   sodipodi:docname="folder-software.svg">
  <defs
     id="defs4" />
  <sodipodi:namedview
     id="base"
     pagecolor="#ffffff"
     bordercolor="#666666"
     borderopacity="1.0"
     inkscape:pageopacity="0.0"
     inkscape:pageshadow="2"
     inkscape:zoom="1.4"
     inkscape:cx="60.978018"
     inkscape:cy="118.22596"
     inkscape:document-units="px"
     inkscape:current-layer="layer1"
     showgrid="false"
     showguides="false"
     inkscape:guide-bbox="true"
     inkscape:window-width="1366"
     inkscape:window-height="698"
     inkscape:window-x="-4"
     inkscape:window-y="-5"
     inkscape:window-maximized="1"
     inkscape:snap-global="true">
    <inkscape:grid
       type="xygrid"
       id="grid2985"
       empspacing="5"
       visible="true"
       enabled="true"
       snapvisiblegridlinesonly="true" />
    <sodipodi:guide
       orientation="0,1"
       position="125,235"
       id="guide2987" />
    <sodipodi:guide
       orientation="1,0"
       position="15,0"
       id="guide2991" />
    <sodipodi:guide
       orientation="1,0"
       position="240,-5"
       id="guide2993" />
    <sodipodi:guide
       orientation="0,1"
       position="300,110"
       id="guide2997" />
    <sodipodi:guide
       orientation="0,1"
       position="135,150"
       id="guide3887" />
    <sodipodi:guide
       orientation="0,1"
       position="180,70"
       id="guide3889" />
    <sodipodi:guide
       orientation="1,0"
       position="130,120"
       id="guide3891" />
    <sodipodi:guide
       orientation="1,0"
       position="90,110"
       id="guide3787" />
    <sodipodi:guide
       orientation="0.70710678,0.70710678"
       position="398.0001,284.35794"
       id="guide3791" />
    <sodipodi:guide
       orientation="1,0"
       position="170,110"
       id="guide4457" />
    <sodipodi:guide
       orientation="-0.70710678,0.70710678"
       position="130,110"
       id="guide4558" />
  </sodipodi:namedview>
  <metadata
     id="metadata7">
    <rdf:RDF>
      <cc:Work
         rdf:about="">
        <dc:format>image/svg+xml</dc:format>
        <dc:type
           rdf:resource="http://purl.org/dc/dcmitype/StillImage" />
        <dc:title></dc:title>
      </cc:Work>
    </rdf:RDF>
  </metadata>
  <g
     inkscape:label="Layer 1"
     inkscape:groupmode="layer"
     id="layer1"
     transform="translate(0,-796.36218)">
    <g
       style="fill:#1a1a1a;fill-opacity:1"
       id="g3027"
       transform="translate(75,45.000003)">
      <g
         style="fill:#1a1a1a;fill-opacity:1"
         transform="translate(0,9.9999974)"
         id="g4009">
        <g
           style="fill:#1a1a1a;fill-opacity:1"
           id="g3865"
           transform="translate(10,0)" />
        <g
           style="fill:#1a1a1a;fill-opacity:1"
           transform="translate(40,0)"
           id="g3869" />
        <g
           style="fill:#1a1a1a;fill-opacity:1"
           id="g3875"
           transform="translate(70,0)" />
        <g
           style="fill:#1a1a1a;fill-opacity:1"
           transform="translate(70,-25.000003)"
           id="g3881" />
      </g>
    </g>
    <g
       style="fill:#1a1a1a;fill-opacity:1"
       transform="translate(75,25.000003)"
       id="g4724">
      <g
         style="fill:#1a1a1a;fill-opacity:1"
         id="g4726"
         transform="translate(0,9.9999974)">
        <g
           style="fill:#1a1a1a;fill-opacity:1"
           transform="translate(10,0)"
           id="g4728" />
        <g
           style="fill:#1a1a1a;fill-opacity:1"
           id="g4730"
           transform="translate(40,0)" />
        <g
           style="fill:#1a1a1a;fill-opacity:1"
           transform="translate(70,0)"
           id="g4732" />
        <g
           style="fill:#1a1a1a;fill-opacity:1"
           id="g4734"
           transform="translate(70,-25.000003)" />
      </g>
    </g>
    <g
       style="fill:#1a1a1a;fill-opacity:1"
       id="g4738"
       transform="translate(75,5.000003)">
      <g
         style="fill:#1a1a1a;fill-opacity:1"
         transform="translate(0,9.9999974)"
         id="g4740">
        <g
           style="fill:#1a1a1a;fill-opacity:1"
           id="g4742"
           transform="translate(10,0)" />
        <g
           style="fill:#1a1a1a;fill-opacity:1"
           transform="translate(40,0)"
           id="g4744" />
        <g
           style="fill:#1a1a1a;fill-opacity:1"
           id="g4746"
           transform="translate(70,0)" />
        <g
           style="fill:#1a1a1a;fill-opacity:1"
           transform="translate(70,-25.000003)"
           id="g4748" />
      </g>
    </g>
    <g
       style="fill:#1a1a1a;fill-opacity:1"
       transform="translate(75,-14.999997)"
       id="g4752">
      <g
         style="fill:#1a1a1a;fill-opacity:1"
         id="g4754"
         transform="translate(0,9.9999974)">
        <g
           style="fill:#1a1a1a;fill-opacity:1"
           transform="translate(10,0)"
           id="g4756" />
        <g
           style="fill:#1a1a1a;fill-opacity:1"
           id="g4758"
           transform="translate(40,0)" />
        <g
           style="fill:#1a1a1a;fill-opacity:1"
           transform="translate(70,0)"
           id="g4760" />
        <g
           style="fill:#1a1a1a;fill-opacity:1"
           id="g4762"
           transform="translate(70,-25.000003)" />
      </g>
    </g>
    <g
       id="g15435"
       transform="translate(0,-8.00001)">
      <path
         sodipodi:nodetypes="ccccccc"
         inkscape:connector-curvature="0"
         id="rect3053"
         d="m 20.5,837.36218 85,0 10,-10 120,0 0,135.21423 -215,-0.21423 z"
         style="fill:#444444;fill-opacity:1;stroke:none" />
      <path
         sodipodi:nodetypes="ccccccc"
         inkscape:connector-curvature="0"
         id="rect2999"
         d="m 15.4746,847.36218 90,0 20,20 115,0 0.0508,170.00002 -225.05077,0 z"
         style="fill:#f0544c;fill-opacity:1;stroke:none" />
      <rect
         ry="0"
         y="1035.3622"
         x="15.5"
         height="1.9998806"
         width="225"
         id="rect3799"
         style="fill:#444444;fill-opacity:1;stroke:none"
         rx="0" />
      <g
         transform="translate(0.5,0)"
         id="g10870">
        <path
           style="opacity:0.65966384;fill:#444444;fill-opacity:1;stroke:none"
           d="m 15,847.36218 90,0 0,2 -90,0 z"
           id="rect3940"
           inkscape:connector-curvature="0"
           sodipodi:nodetypes="ccccc" />
        <path
           sodipodi:nodetypes="ccccc"
           inkscape:connector-curvature="0"
           id="path3797"
           d="m 125,867.36218 115,0 0,2 -115,0 z"
           style="opacity:0.65966384;fill:#444444;fill-opacity:1;stroke:none" />
        <path
           style="opacity:0.65966384;fill:#444444;fill-opacity:1;stroke:none"
           d="m 125,867.36218 -20,-20 0,2 20,20 z"
           id="path3803"
           inkscape:connector-curvature="0"
           sodipodi:nodetypes="ccccc" />
      </g>
      <g
         transform="translate(-2,0)"
         id="g15102">
        <rect
           style="fill:#444444;fill-opacity:1;stroke:none"
           id="rect3781"
           width="10"
           height="10"
           x="100"
           y="1017.3622"
           ry="5"
           rx="5" />
        <rect
           rx="5"
           ry="4.9999986"
           y="1017.3622"
           x="150"
           height="9.9999971"
           width="10"
           id="rect3783"
           style="fill:#444444;fill-opacity:1;stroke:none" />
        <rect
           rx="5"
           ry="5"
           y="1017.3622"
           x="125"
           height="10"
           width="10"
           id="rect3785"
           style="fill:#444444;fill-opacity:1;stroke:none" />
      </g>
      <g
         style="fill:#444444;fill-opacity:1"
         id="g3411"
         transform="matrix(1.110913,0,0,1.1069827,33.135875,-92.199382)">
        <g
           style="fill:#444444;fill-opacity:1"
           id="g3306"
           transform="translate(4.99998,0)">
          <path
             id="rect3271"
             transform="translate(0,796.36218)"
             d="m 95,141 c -8.31,0 -15,6.69 -15,15 0,8.31 6.69,15 15,15 8.31,0 15,-6.69 15,-15 0,-8.31 -6.69,-15 -15,-15 z m 0,4 c 6.094,0 11,4.906 11,11 0,6.094 -4.906,11 -11,11 -6.094,0 -11,-4.906 -11,-11 0,-6.094 4.906,-11 11,-11 z"
             style="fill:#444444;fill-opacity:1;stroke:none"
             inkscape:connector-curvature="0" />
          <g
             style="fill:#444444;fill-opacity:1"
             id="g3284">
            <path
               style="fill:#444444;fill-opacity:1;stroke:none"
               d="m 92,131 c -0.554,0 -0.93129,0.45028 -1,1 l -0.96875,7.71875 C 91.602727,139.24203 93.26875,139 95,139 c 1.73125,0 3.397273,0.24203 4.96875,0.71875 L 99,132 c -0.06871,-0.54972 -0.446,-1 -1,-1 l -6,0 z"
               transform="translate(0,796.36218)"
               id="rect3278"
               inkscape:connector-curvature="0" />
            <path
               id="path3282"
               d="m 92,977.36218 c -0.554,0 -0.93129,-0.45028 -1,-1 l -0.96875,-7.71875 c 1.571477,0.47672 3.2375,0.71875 4.96875,0.71875 1.73125,0 3.397273,-0.24203 4.96875,-0.71875 L 99,976.36218 c -0.06871,0.54972 -0.446,1 -1,1 l -6,0 z"
               style="fill:#444444;fill-opacity:1;stroke:none"
               inkscape:connector-curvature="0" />
          </g>
          <g
             style="fill:#444444;fill-opacity:1"
             transform="matrix(0,1,-1,0,1047.3622,857.36218)"
             id="g3288">
            <path
               inkscape:connector-curvature="0"
               id="path3290"
               transform="translate(0,796.36218)"
               d="m 92,131 c -0.554,0 -0.93129,0.45028 -1,1 l -0.96875,7.71875 C 91.602727,139.24203 93.26875,139 95,139 c 1.73125,0 3.397273,0.24203 4.96875,0.71875 L 99,132 c -0.06871,-0.54972 -0.446,-1 -1,-1 l -6,0 z"
               style="fill:#444444;fill-opacity:1;stroke:none" />
            <path
               inkscape:connector-curvature="0"
               style="fill:#444444;fill-opacity:1;stroke:none"
               d="m 92,977.36218 c -0.554,0 -0.93129,-0.45028 -1,-1 l -0.96875,-7.71875 c 1.571477,0.47672 3.2375,0.71875 4.96875,0.71875 1.73125,0 3.397273,-0.24203 4.96875,-0.71875 L 99,976.36218 c -0.06871,0.54972 -0.446,1 -1,1 l -6,0 z"
               id="path3292" />
          </g>
          <g
             style="fill:#444444;fill-opacity:1"
             id="g3294"
             transform="matrix(0.70710678,0.70710678,-0.70710678,0.70710678,701.24663,211.76528)">
            <path
               style="fill:#444444;fill-opacity:1;stroke:none"
               d="m 92,131 c -0.554,0 -0.93129,0.45028 -1,1 l -0.96875,7.71875 C 91.602727,139.24203 93.26875,139 95,139 c 1.73125,0 3.397273,0.24203 4.96875,0.71875 L 99,132 c -0.06871,-0.54972 -0.446,-1 -1,-1 l -6,0 z"
               transform="translate(0,796.36218)"
               id="path3296"
               inkscape:connector-curvature="0" />
            <path
               id="path3298"
               d="m 92,977.36218 c -0.554,0 -0.93129,-0.45028 -1,-1 l -0.96875,-7.71875 c 1.571477,0.47672 3.2375,0.71875 4.96875,0.71875 1.73125,0 3.397273,-0.24203 4.96875,-0.71875 L 99,976.36218 c -0.06871,0.54972 -0.446,1 -1,1 l -6,0 z"
               style="fill:#444444;fill-opacity:1;stroke:none"
               inkscape:connector-curvature="0" />
          </g>
          <g
             style="fill:#444444;fill-opacity:1"
             transform="matrix(-0.70710678,0.70710678,0.70710678,0.70710678,-511.24659,211.76528)"
             id="g3300">
            <path
               inkscape:connector-curvature="0"
               id="path3302"
               transform="translate(0,796.36218)"
               d="m 92,131 c -0.554,0 -0.93129,0.45028 -1,1 l -0.96875,7.71875 C 91.602727,139.24203 93.26875,139 95,139 c 1.73125,0 3.397273,0.24203 4.96875,0.71875 L 99,132 c -0.06871,-0.54972 -0.446,-1 -1,-1 l -6,0 z"
               style="fill:#444444;fill-opacity:1;stroke:none" />
            <path
               inkscape:connector-curvature="0"
               style="fill:#444444;fill-opacity:1;stroke:none"
               d="m 92,977.36218 c -0.554,0 -0.93129,-0.45028 -1,-1 l -0.96875,-7.71875 c 1.571477,0.47672 3.2375,0.71875 4.96875,0.71875 1.73125,0 3.397273,-0.24203 4.96875,-0.71875 L 99,976.36218 c -0.06871,0.54972 -0.446,1 -1,1 l -6,0 z"
               id="path3304" />
          </g>
        </g>
        <g
           style="fill:#444444;fill-opacity:1"
           transform="matrix(0.91234881,0.4094138,-0.4094138,0.91234881,373.51831,14.581363)"
           id="g3321">
          <path
             style="fill:#444444;fill-opacity:1;stroke:none"
             d="m 69.5,111 c -5.441043,0.2723 -10.514058,3.51293 -12.90625,8.84375 -3.402229,7.58162 -0.05037,16.44152 7.53125,19.84375 2.875441,1.29035 5.936793,1.60873 8.8125,1.09375 2.827275,-5.03466 7.030686,-9.18595 12.09375,-11.96875 1.279048,-6.67782 -2.111808,-13.59125 -8.59375,-16.5 -1.895405,-0.85056 -3.895432,-1.26796 -5.84375,-1.3125 -0.36531,-0.008 -0.731014,-0.0182 -1.09375,0 z m 0.21875,4 c 0.266113,-0.0134 0.544606,-0.006 0.8125,0 1.428766,0.0327 2.860037,0.34501 4.25,0.96875 5.559854,2.49497 8.026218,8.9714 5.53125,14.53125 -2.494968,5.55985 -8.971396,8.02622 -14.53125,5.53125 -5.559854,-2.49497 -8.026218,-8.9714 -5.53125,-14.53125 1.754274,-3.90927 5.47705,-6.29871 9.46875,-6.5 z"
             transform="matrix(0.9123488,-0.4094138,0.4094138,0.9123488,-20.70713,866.18034)"
             id="path3323"
             inkscape:connector-curvature="0"
             sodipodi:nodetypes="sssccsssscsssss" />
          <g
             style="fill:#444444;fill-opacity:1"
             id="g3325">
            <path
               inkscape:connector-curvature="0"
               id="path3327"
               transform="translate(0,796.36218)"
               d="m 92,131 c -0.554,0 -0.93129,0.45028 -1,1 l -0.96875,7.71875 C 91.602727,139.24203 93.26875,139 95,139 c 1.73125,0 3.397273,0.24203 4.96875,0.71875 L 99,132 c -0.06871,-0.54972 -0.446,-1 -1,-1 l -6,0 z"
               style="fill:#444444;fill-opacity:1;stroke:none" />
            <path
               inkscape:connector-curvature="0"
               style="fill:#444444;fill-opacity:1;stroke:none"
               d="m 92,977.36218 c -0.554,0 -0.93129,-0.45028 -1,-1 l -0.96875,-7.71875 c 1.571477,0.47672 3.2375,0.71875 4.96875,0.71875 1.73125,0 3.397273,-0.24203 4.96875,-0.71875 L 99,976.36218 c -0.06871,0.54972 -0.446,1 -1,1 l -6,0 z"
               id="path3329" />
          </g>
          <g
             style="fill:#444444;fill-opacity:1"
             id="g3331"
             transform="matrix(0,1,-1,0,1047.3622,857.36218)">
            <path
               id="path3335"
               d="m 92,977.36218 c -0.554,0 -0.93129,-0.45028 -1,-1 l -0.96875,-7.71875 c 1.571477,0.47672 3.2375,0.71875 4.96875,0.71875 1.73125,0 3.397273,-0.24203 4.96875,-0.71875 L 99,976.36218 c -0.06871,0.54972 -0.446,1 -1,1 l -6,0 z"
               style="fill:#444444;fill-opacity:1;stroke:none"
               inkscape:connector-curvature="0" />
          </g>
          <g
             style="fill:#444444;fill-opacity:1"
             transform="matrix(0.70710678,0.70710678,-0.70710678,0.70710678,701.24663,211.76528)"
             id="g3337">
            <path
               inkscape:connector-curvature="0"
               id="path3339"
               transform="translate(0,796.36218)"
               d="m 92,131 c -0.554,0 -0.93129,0.45028 -1,1 l -0.96875,7.71875 C 91.602727,139.24203 93.26875,139 95,139 c 1.73125,0 3.397273,0.24203 4.96875,0.71875 L 99,132 c -0.06871,-0.54972 -0.446,-1 -1,-1 l -6,0 z"
               style="fill:#444444;fill-opacity:1;stroke:none" />
            <path
               inkscape:connector-curvature="0"
               style="fill:#444444;fill-opacity:1;stroke:none"
               d="m 92,977.36218 c -0.554,0 -0.93129,-0.45028 -1,-1 l -0.96875,-7.71875 c 1.571477,0.47672 3.2375,0.71875 4.96875,0.71875 1.73125,0 3.397273,-0.24203 4.96875,-0.71875 L 99,976.36218 c -0.06871,0.54972 -0.446,1 -1,1 l -6,0 z"
               id="path3341" />
          </g>
          <g
             style="fill:#444444;fill-opacity:1"
             id="g3343"
             transform="matrix(-0.70710678,0.70710678,0.70710678,0.70710678,-511.24659,211.76528)">
            <path
               style="fill:#444444;fill-opacity:1;stroke:none"
               d="m 92,131 c -0.554,0 -0.93129,0.45028 -1,1 l -0.96875,7.71875 C 91.602727,139.24203 93.26875,139 95,139 c 1.73125,0 3.397273,0.24203 4.96875,0.71875 L 99,132 c -0.06871,-0.54972 -0.446,-1 -1,-1 l -6,0 z"
               transform="translate(0,796.36218)"
               id="path3345"
               inkscape:connector-curvature="0" />
          </g>
        </g>
      </g>
    </g>
  </g>
</svg>
