<?xml version="1.0" encoding="UTF-8" standalone="no"?>
<!-- Created with Inkscape (http://www.inkscape.org/) -->

<svg
   xmlns:dc="http://purl.org/dc/elements/1.1/"
   xmlns:cc="http://creativecommons.org/ns#"
   xmlns:rdf="http://www.w3.org/1999/02/22-rdf-syntax-ns#"
   xmlns:svg="http://www.w3.org/2000/svg"
   xmlns="http://www.w3.org/2000/svg"
   xmlns:sodipodi="http://sodipodi.sourceforge.net/DTD/sodipodi-0.dtd"
   xmlns:inkscape="http://www.inkscape.org/namespaces/inkscape"
   width="256"
   height="256"
   id="svg2"
   version="1.1"
   inkscape:version="0.91 r13725"
   sodipodi:docname="folder-yandex-disk.svg">
  <defs
     id="defs4" />
  <sodipodi:namedview
     id="base"
     pagecolor="#ffffff"
     bordercolor="#666666"
     borderopacity="1.0"
     inkscape:pageopacity="0.0"
     inkscape:pageshadow="2"
     inkscape:zoom="1.4"
     inkscape:cx="201.98785"
     inkscape:cy="101.64675"
     inkscape:document-units="px"
     inkscape:current-layer="layer1"
     showgrid="false"
     showguides="false"
     inkscape:guide-bbox="true"
     inkscape:window-width="1366"
     inkscape:window-height="698"
     inkscape:window-x="-4"
     inkscape:window-y="-5"
     inkscape:window-maximized="1"
     inkscape:snap-global="true">
    <inkscape:grid
       type="xygrid"
       id="grid2985"
       empspacing="5"
       visible="true"
       enabled="true"
       snapvisiblegridlinesonly="true" />
    <sodipodi:guide
       orientation="0,1"
       position="-80,240"
       id="guide2987" />
    <sodipodi:guide
       orientation="1,0"
       position="15,0"
       id="guide2991" />
    <sodipodi:guide
       orientation="1,0"
       position="240,-5"
       id="guide2993" />
    <sodipodi:guide
       orientation="0,1"
       position="300,110"
       id="guide2997" />
    <sodipodi:guide
       orientation="0,1"
       position="135,150"
       id="guide3887" />
    <sodipodi:guide
       orientation="0,1"
       position="180,70"
       id="guide3889" />
    <sodipodi:guide
       orientation="1,0"
       position="130,110"
       id="guide3891" />
    <sodipodi:guide
       orientation="1,0"
       position="90,110"
       id="guide3787" />
    <sodipodi:guide
       orientation="0.70710678,0.70710678"
       position="398.0001,284.35794"
       id="guide3791" />
    <sodipodi:guide
       orientation="1,0"
       position="170,110"
       id="guide4457" />
    <sodipodi:guide
       orientation="-0.70710678,0.70710678"
       position="130,110"
       id="guide4558" />
  </sodipodi:namedview>
  <metadata
     id="metadata7">
    <rdf:RDF>
      <cc:Work
         rdf:about="">
        <dc:format>image/svg+xml</dc:format>
        <dc:type
           rdf:resource="http://purl.org/dc/dcmitype/StillImage" />
        <dc:title />
      </cc:Work>
    </rdf:RDF>
  </metadata>
  <g
     inkscape:label="Layer 1"
     inkscape:groupmode="layer"
     id="layer1"
     transform="translate(0,-796.36218)">
    <g
       style="fill:#1a1a1a;fill-opacity:1"
       id="g3027"
       transform="translate(75,45.000003)">
      <g
         style="fill:#1a1a1a;fill-opacity:1"
         transform="translate(0,9.9999974)"
         id="g4009">
        <g
           style="fill:#1a1a1a;fill-opacity:1"
           id="g3865"
           transform="translate(10,0)" />
        <g
           style="fill:#1a1a1a;fill-opacity:1"
           transform="translate(40,0)"
           id="g3869" />
        <g
           style="fill:#1a1a1a;fill-opacity:1"
           id="g3875"
           transform="translate(70,0)" />
        <g
           style="fill:#1a1a1a;fill-opacity:1"
           transform="translate(70,-25.000003)"
           id="g3881" />
      </g>
    </g>
    <g
       style="fill:#1a1a1a;fill-opacity:1"
       transform="translate(75,25.000003)"
       id="g4724">
      <g
         style="fill:#1a1a1a;fill-opacity:1"
         id="g4726"
         transform="translate(0,9.9999974)">
        <g
           style="fill:#1a1a1a;fill-opacity:1"
           transform="translate(10,0)"
           id="g4728" />
        <g
           style="fill:#1a1a1a;fill-opacity:1"
           id="g4730"
           transform="translate(40,0)" />
        <g
           style="fill:#1a1a1a;fill-opacity:1"
           transform="translate(70,0)"
           id="g4732" />
        <g
           style="fill:#1a1a1a;fill-opacity:1"
           id="g4734"
           transform="translate(70,-25.000003)" />
      </g>
    </g>
    <g
       style="fill:#1a1a1a;fill-opacity:1"
       id="g4738"
       transform="translate(75,5.000003)">
      <g
         style="fill:#1a1a1a;fill-opacity:1"
         transform="translate(0,9.9999974)"
         id="g4740">
        <g
           style="fill:#1a1a1a;fill-opacity:1"
           id="g4742"
           transform="translate(10,0)" />
        <g
           style="fill:#1a1a1a;fill-opacity:1"
           transform="translate(40,0)"
           id="g4744" />
        <g
           style="fill:#1a1a1a;fill-opacity:1"
           id="g4746"
           transform="translate(70,0)" />
        <g
           style="fill:#1a1a1a;fill-opacity:1"
           transform="translate(70,-25.000003)"
           id="g4748" />
      </g>
    </g>
    <g
       style="fill:#1a1a1a;fill-opacity:1"
       transform="translate(75,-14.999997)"
       id="g4752">
      <g
         style="fill:#1a1a1a;fill-opacity:1"
         id="g4754"
         transform="translate(0,9.9999974)">
        <g
           style="fill:#1a1a1a;fill-opacity:1"
           transform="translate(10,0)"
           id="g4756" />
        <g
           style="fill:#1a1a1a;fill-opacity:1"
           id="g4758"
           transform="translate(40,0)" />
        <g
           style="fill:#1a1a1a;fill-opacity:1"
           transform="translate(70,0)"
           id="g4760" />
        <g
           style="fill:#1a1a1a;fill-opacity:1"
           id="g4762"
           transform="translate(70,-25.000003)" />
      </g>
    </g>
    <g
       transform="matrix(1.1142857,0,0,1.1142858,39.857143,-97.555747)"
       id="g3259" />
    <g
       id="g14392"
       transform="translate(0,-8.00001)">
      <path
         sodipodi:nodetypes="ccccccc"
         inkscape:connector-curvature="0"
         id="rect3053"
         d="m 20.5,837.36218 85,0 10,-10 120,0 0,135.21423 -215,-0.21423 z"
         style="fill:#444444;fill-opacity:1;stroke:none" />
      <path
         sodipodi:nodetypes="ccccccc"
         inkscape:connector-curvature="0"
         id="rect2999"
         d="m 15.4746,847.36218 90,0 20,20 115,0 0.0508,170.00002 -225.05077,0 z"
         style="fill:#f0544c;fill-opacity:1;stroke:none" />
      <rect
         ry="0"
         y="1035.3622"
         x="15.5"
         height="1.9998806"
         width="225"
         id="rect3799"
         style="fill:#444444;fill-opacity:1;stroke:none"
         rx="0" />
      <g
         transform="translate(0.5,0)"
         id="g11326">
        <path
           style="opacity:0.65966384;fill:#444444;fill-opacity:1;stroke:none"
           d="m 15,847.36218 90,0 0,2 -90,0 z"
           id="rect3940"
           inkscape:connector-curvature="0"
           sodipodi:nodetypes="ccccc" />
        <path
           sodipodi:nodetypes="ccccc"
           inkscape:connector-curvature="0"
           id="path3797"
           d="m 125,867.36218 115,0 0,2 -115,0 z"
           style="opacity:0.65966384;fill:#444444;fill-opacity:1;stroke:none" />
        <path
           style="opacity:0.65966384;fill:#444444;fill-opacity:1;stroke:none"
           d="m 125,867.36218 -20,-20 0,2 20,20 z"
           id="path3803"
           inkscape:connector-curvature="0"
           sodipodi:nodetypes="ccccc" />
      </g>
      <g
         transform="translate(-2,0)"
         id="g16093">
        <rect
           style="fill:#444444;fill-opacity:1;stroke:none"
           id="rect3781"
           width="10"
           height="10"
           x="100"
           y="1017.3622"
           ry="5"
           rx="5" />
        <rect
           rx="5"
           ry="4.9999986"
           y="1017.3622"
           x="150"
           height="9.9999971"
           width="10"
           id="rect3783"
           style="fill:#444444;fill-opacity:1;stroke:none" />
        <rect
           rx="5"
           ry="5"
           y="1017.3622"
           x="125"
           height="10"
           width="10"
           id="rect3785"
           style="fill:#444444;fill-opacity:1;stroke:none" />
      </g>
      <path
         sodipodi:nodetypes="cccccccccccccccccccccccccccccccccccccccc"
         d="m 118.38649,931.61661 c 24.00592,-17.51917 38.45881,-21.17451 44.63339,-21.25164 -6.79347,0.0697 -18.5738,3.80227 -25.929,2.26271 -7.03047,-1.47138 -17.62307,-7.42423 -31.58865,2.76617 -13.962719,10.18959 -9.119171,19.9264 -10.476161,27.93281 -1.108353,6.5652 -8.203458,16.62123 -11.026071,23.69957 2.719735,-6.60706 11.465852,-18.6802 34.385682,-35.4106 z m 2.64395,-19.197 c 1.31349,-0.95798 3.76371,-1.31515 6.00902,-0.63412 3.19001,0.96488 4.92309,3.59523 2.40947,5.42923 -2.51658,1.83523 -6.77349,1.05131 -8.65289,-0.87052 -1.32462,-1.35758 -1.07792,-2.96973 0.2343,-3.92468 z m -10.67282,6.31593 c 2.15255,-1.56691 4.90475,-1.26067 6.15352,0.68956 1.24433,1.94665 0.51218,4.80017 -1.63994,6.36764 -2.15226,1.56939 -4.90375,1.2638 -6.15314,-0.68612 -1.24425,-1.94659 -0.51188,-4.79854 1.63942,-6.37078 z m -12.127492,14.07207 c 0.225127,-2.48447 1.426666,-4.79016 2.736502,-5.74933 1.31002,-0.95579 2.80825,-0.61734 3.50766,1.19286 0.99247,2.5693 0.12824,7.08987 -2.38743,8.9272 -2.511489,1.83323 -4.173595,-0.84607 -3.856732,-4.37075 z m 72.948032,-14.62559 c -4.37683,-6.87143 -26.1058,1.72007 -48.98633,18.46893 -22.873359,16.74885 -38.244948,35.3155 -33.862508,42.18229 2.961889,4.64748 14.724668,3.52775 29.101868,-2.86367 6.32015,-1.7309 14.2283,-5.73541 22.15989,-11.52445 7.81796,-5.70378 14.12303,-12.01662 17.95024,-17.61166 11.17568,-12.26815 16.65512,-23.92329 13.63937,-28.65247 z m -33.65779,43.02417 c -9.95724,7.26748 -19.0236,11.60926 -20.74871,8.90781 -1.72627,-2.69777 5.02448,-10.65387 14.98465,-17.92041 9.95498,-7.26998 19.35433,-11.08866 21.08255,-8.38997 1.72578,2.69614 -5.36176,10.1372 -15.31852,17.40247 z"
         id="yandex-ufo"
         inkscape:connector-curvature="0"
         style="fill:#444444;fill-opacity:1;stroke:none" />
    </g>
  </g>
</svg>
