<?xml version="1.0" encoding="UTF-8" standalone="no"?>
<!-- Created with Inkscape (http://www.inkscape.org/) -->

<svg
   xmlns:dc="http://purl.org/dc/elements/1.1/"
   xmlns:cc="http://creativecommons.org/ns#"
   xmlns:rdf="http://www.w3.org/1999/02/22-rdf-syntax-ns#"
   xmlns:svg="http://www.w3.org/2000/svg"
   xmlns="http://www.w3.org/2000/svg"
   xmlns:sodipodi="http://sodipodi.sourceforge.net/DTD/sodipodi-0.dtd"
   xmlns:inkscape="http://www.inkscape.org/namespaces/inkscape"
   width="256"
   height="256"
   id="svg2"
   version="1.1"
   inkscape:version="0.91 r13725"
   sodipodi:docname="folder-kdenlive.svg">
  <defs
     id="defs4" />
  <sodipodi:namedview
     id="base"
     pagecolor="#ffffff"
     bordercolor="#666666"
     borderopacity="1.0"
     inkscape:pageopacity="0.0"
     inkscape:pageshadow="2"
     inkscape:zoom="1.4"
     inkscape:cx="99.314334"
     inkscape:cy="112.7625"
     inkscape:document-units="px"
     inkscape:current-layer="layer1"
     showgrid="false"
     showguides="false"
     inkscape:guide-bbox="true"
     inkscape:window-width="1366"
     inkscape:window-height="698"
     inkscape:window-x="-4"
     inkscape:window-y="-5"
     inkscape:window-maximized="1"
     inkscape:snap-global="true">
    <inkscape:grid
       type="xygrid"
       id="grid2985"
       empspacing="5"
       visible="true"
       enabled="true"
       snapvisiblegridlinesonly="true" />
    <sodipodi:guide
       orientation="0,1"
       position="-80,240"
       id="guide2987" />
    <sodipodi:guide
       orientation="1,0"
       position="15,0"
       id="guide2991" />
    <sodipodi:guide
       orientation="1,0"
       position="240,-5"
       id="guide2993" />
    <sodipodi:guide
       orientation="0,1"
       position="300,110"
       id="guide2997" />
    <sodipodi:guide
       orientation="0,1"
       position="135,150"
       id="guide3887" />
    <sodipodi:guide
       orientation="0,1"
       position="180,70"
       id="guide3889" />
    <sodipodi:guide
       orientation="1,0"
       position="130,110"
       id="guide3891" />
    <sodipodi:guide
       orientation="1,0"
       position="90,110"
       id="guide3787" />
    <sodipodi:guide
       orientation="0.70710678,0.70710678"
       position="398.0001,284.35794"
       id="guide3791" />
    <sodipodi:guide
       orientation="1,0"
       position="170,110"
       id="guide4457" />
    <sodipodi:guide
       orientation="-0.70710678,0.70710678"
       position="130,110"
       id="guide4558" />
  </sodipodi:namedview>
  <metadata
     id="metadata7">
    <rdf:RDF>
      <cc:Work
         rdf:about="">
        <dc:format>image/svg+xml</dc:format>
        <dc:type
           rdf:resource="http://purl.org/dc/dcmitype/StillImage" />
        <dc:title />
      </cc:Work>
    </rdf:RDF>
  </metadata>
  <g
     inkscape:label="Layer 1"
     inkscape:groupmode="layer"
     id="layer1"
     transform="translate(0,-796.36218)">
    <g
       style="fill:#1a1a1a;fill-opacity:1"
       id="g3027"
       transform="translate(75,45.000003)">
      <g
         style="fill:#1a1a1a;fill-opacity:1"
         transform="translate(0,9.9999974)"
         id="g4009">
        <g
           style="fill:#1a1a1a;fill-opacity:1"
           id="g3865"
           transform="translate(10,0)" />
        <g
           style="fill:#1a1a1a;fill-opacity:1"
           transform="translate(40,0)"
           id="g3869" />
        <g
           style="fill:#1a1a1a;fill-opacity:1"
           id="g3875"
           transform="translate(70,0)" />
        <g
           style="fill:#1a1a1a;fill-opacity:1"
           transform="translate(70,-25.000003)"
           id="g3881" />
      </g>
    </g>
    <g
       style="fill:#1a1a1a;fill-opacity:1"
       transform="translate(75,25.000003)"
       id="g4724">
      <g
         style="fill:#1a1a1a;fill-opacity:1"
         id="g4726"
         transform="translate(0,9.9999974)">
        <g
           style="fill:#1a1a1a;fill-opacity:1"
           transform="translate(10,0)"
           id="g4728" />
        <g
           style="fill:#1a1a1a;fill-opacity:1"
           id="g4730"
           transform="translate(40,0)" />
        <g
           style="fill:#1a1a1a;fill-opacity:1"
           transform="translate(70,0)"
           id="g4732" />
        <g
           style="fill:#1a1a1a;fill-opacity:1"
           id="g4734"
           transform="translate(70,-25.000003)" />
      </g>
    </g>
    <g
       style="fill:#1a1a1a;fill-opacity:1"
       id="g4738"
       transform="translate(75,5.000003)">
      <g
         style="fill:#1a1a1a;fill-opacity:1"
         transform="translate(0,9.9999974)"
         id="g4740">
        <g
           style="fill:#1a1a1a;fill-opacity:1"
           id="g4742"
           transform="translate(10,0)" />
        <g
           style="fill:#1a1a1a;fill-opacity:1"
           transform="translate(40,0)"
           id="g4744" />
        <g
           style="fill:#1a1a1a;fill-opacity:1"
           id="g4746"
           transform="translate(70,0)" />
        <g
           style="fill:#1a1a1a;fill-opacity:1"
           transform="translate(70,-25.000003)"
           id="g4748" />
      </g>
    </g>
    <g
       style="fill:#1a1a1a;fill-opacity:1"
       transform="translate(75,-14.999997)"
       id="g4752">
      <g
         style="fill:#1a1a1a;fill-opacity:1"
         id="g4754"
         transform="translate(0,9.9999974)">
        <g
           style="fill:#1a1a1a;fill-opacity:1"
           transform="translate(10,0)"
           id="g4756" />
        <g
           style="fill:#1a1a1a;fill-opacity:1"
           id="g4758"
           transform="translate(40,0)" />
        <g
           style="fill:#1a1a1a;fill-opacity:1"
           transform="translate(70,0)"
           id="g4760" />
        <g
           style="fill:#1a1a1a;fill-opacity:1"
           id="g4762"
           transform="translate(70,-25.000003)" />
      </g>
    </g>
    <g
       transform="matrix(1.1142857,0,0,1.1142858,39.857143,-97.555747)"
       id="g3259" />
    <g
       id="g15109"
       transform="translate(0,-8.00001)">
      <path
         sodipodi:nodetypes="ccccccc"
         inkscape:connector-curvature="0"
         id="rect3053"
         d="m 20.5,837.36218 85,0 10,-10 120,0 0,135.21423 -215,-0.21423 z"
         style="fill:#444444;fill-opacity:1;stroke:none" />
      <path
         sodipodi:nodetypes="ccccccc"
         inkscape:connector-curvature="0"
         id="rect2999"
         d="m 15.4746,847.36218 90,0 20,20 115,0 0.0508,170.00002 -225.05077,0 z"
         style="fill:#f0544c;fill-opacity:1;stroke:none" />
      <rect
         ry="0"
         y="1035.3622"
         x="15.5"
         height="1.9998806"
         width="225"
         id="rect3799"
         style="fill:#444444;fill-opacity:1;stroke:none"
         rx="0" />
      <g
         transform="translate(0.5,0)"
         id="g11921">
        <path
           style="opacity:0.65966384;fill:#444444;fill-opacity:1;stroke:none"
           d="m 15,847.36218 90,0 0,2 -90,0 z"
           id="rect3940"
           inkscape:connector-curvature="0"
           sodipodi:nodetypes="ccccc" />
        <path
           sodipodi:nodetypes="ccccc"
           inkscape:connector-curvature="0"
           id="path3797"
           d="m 125,867.36218 115,0 0,2 -115,0 z"
           style="opacity:0.65966384;fill:#444444;fill-opacity:1;stroke:none" />
        <path
           style="opacity:0.65966384;fill:#444444;fill-opacity:1;stroke:none"
           d="m 125,867.36218 -20,-20 0,2 20,20 z"
           id="path3803"
           inkscape:connector-curvature="0"
           sodipodi:nodetypes="ccccc" />
      </g>
      <g
         transform="translate(-2,0)"
         id="g11926">
        <rect
           style="fill:#444444;fill-opacity:1;stroke:none"
           id="rect3781"
           width="10"
           height="10"
           x="100"
           y="1017.3622"
           ry="5"
           rx="5" />
        <rect
           rx="5"
           ry="4.9999986"
           y="1017.3622"
           x="150"
           height="9.9999971"
           width="10"
           id="rect3783"
           style="fill:#444444;fill-opacity:1;stroke:none" />
        <rect
           rx="5"
           ry="5"
           y="1017.3622"
           x="125"
           height="10"
           width="10"
           id="rect3785"
           style="fill:#444444;fill-opacity:1;stroke:none" />
      </g>
      <g
         transform="matrix(1.1,0,0,1.1064256,-15,-98.28767)"
         id="g11931">
        <rect
           style="fill:#444444;fill-opacity:1;stroke:none"
           id="rect5791"
           width="80"
           height="50.000008"
           x="90"
           y="932.36218"
           rx="1"
           ry="0.7692309" />
        <path
           d="m 133.48726,938.58307 -6.44481,0.6197 0,26.55043 6.37596,-0.96398 0,-11.31973 8.57931,12.5591 6.72022,-2.13448 -8.78587,-12.07714 8.85473,-11.38858 -6.85794,-1.5699 -8.51045,11.3886 0.0689,-11.66402 z m -14.611,6.47235 c -0.0729,0.008 -0.15169,0.0278 -0.20656,0.0827 l -2.53386,2.53384 c -0.10642,0.10681 -0.11941,0.27013 -0.0413,0.39936 l 2.96076,4.88868 c -0.52571,0.88378 -0.95262,1.83179 -1.25316,2.83683 l -5.43953,1.12922 c -0.15136,0.0314 -0.26165,0.17539 -0.26165,0.33051 l 0,3.58044 c 0,0.15135 0.11513,0.28102 0.26165,0.31674 l 5.27428,1.28069 c 0.28203,1.1636 0.71775,2.27709 1.29447,3.29126 l -3.05715,4.65458 c -0.0853,0.12998 -0.0686,0.30342 0.0413,0.41314 l 2.53385,2.53385 c 0.10675,0.1065 0.27047,0.1198 0.39936,0.0413 l 4.7923,-2.90563 c 0.93995,0.54266 1.95758,0.97738 3.02961,1.26691 l 1.11545,5.3707 c 0.0313,0.15183 0.16174,0.26164 0.31673,0.26164 l 3.58046,0 c 0.15026,0 0.28104,-0.10085 0.31673,-0.24787 l 1.32201,-5.39825 c 1.10564,-0.2981 2.14805,-0.74065 3.11223,-1.30825 l 4.72345,3.09849 c 0.13022,0.0848 0.30274,0.0685 0.41313,-0.0413 l 2.52009,-2.53392 c 0.10707,-0.10681 0.13351,-0.27044 0.0551,-0.39934 l -1.72138,-2.83681 -0.56461,0.17902 c -0.0815,0.0251 -0.17186,-0.0115 -0.22033,-0.0827 0,0 -1.08736,-1.59954 -2.50632,-3.67684 -1.69701,3.32066 -5.15785,5.59099 -9.14391,5.59099 -5.66414,0 -10.25938,-4.59521 -10.25938,-10.25935 0,-4.16642 2.49147,-7.74492 6.05923,-9.35049 l 0,-2.64403 c -0.64933,0.22727 -1.27662,0.50149 -1.87285,0.82626 -0.002,-2.3e-4 0.001,-0.0131 0,-0.0131 l -4.83361,-3.16733 c -0.065,-0.0424 -0.1337,-0.0488 -0.20657,-0.0413 z"
           style="fill:#f0544c;fill-opacity:1;stroke:none"
           id="path3097"
           inkscape:connector-curvature="0" />
        <rect
           style="fill:#444444;fill-opacity:1;stroke:none"
           id="rect5794"
           width="80"
           height="10"
           x="-123.15619"
           y="917.0611"
           transform="matrix(0.97349857,-0.22869311,0.22869311,0.97349857,0,0)"
           rx="1"
           ry="0.92307693"
           inkscape:transform-center-y="-4.3793487"
           inkscape:transform-center-x="0.85650582" />
      </g>
    </g>
  </g>
</svg>
