<svg width="48" version="1.1" xmlns="http://www.w3.org/2000/svg" height="48">
<defs id="defs17">
<clipPath id="clipPath4248-9" clipPathUnits="userSpaceOnUse">
<path style="opacity:.79;fill:#666;stroke:none;stroke-linejoin:round;stroke-width:7.2" id="path4250-5" d="m 372.8438,260.9375 c -117.497,0 -212.844,95.3466 -212.844,212.844 0,117.497 95.3466,212.875 212.844,212.875 117.497,0 212.875,-95.3778 212.875,-212.875 0,-117.497 -95.3779,-212.844 -212.875,-212.844 z  m 0,160 c 29.1771,0 52.875,23.6666 52.875,52.8438 0,29.1771 -23.6979,52.875 -52.875,52.875 -29.1771,0 -52.8438,-23.6979 -52.8438,-52.875 0,-29.1771 23.6666,-52.8438 52.8438,-52.8438 z "/>
</clipPath>
<clipPath id="clipPath4244" clipPathUnits="userSpaceOnUse">
<path style="opacity:.79;fill:#666;stroke:none;stroke-linejoin:round;stroke-width:7.2" id="path4246" d="m 372.8438,260.9375 c -117.497,0 -212.844,95.3466 -212.844,212.844 0,117.497 95.3466,212.875 212.844,212.875 117.497,0 212.875,-95.3778 212.875,-212.875 0,-117.497 -95.3779,-212.844 -212.875,-212.844 z  m 0,160 c 29.1771,0 52.875,23.6666 52.875,52.8438 0,29.1771 -23.6979,52.875 -52.875,52.875 -29.1771,0 -52.8438,-23.6979 -52.8438,-52.875 0,-29.1771 23.6666,-52.8438 52.8438,-52.8438 z "/>
</clipPath>
<clipPath id="clipPath4240" clipPathUnits="userSpaceOnUse">
<path style="opacity:.79;fill:#666;stroke:none;stroke-linejoin:round;stroke-width:7.2" id="path4242" d="m 372.8438,260.9375 c -117.497,0 -212.844,95.3466 -212.844,212.844 0,117.497 95.3466,212.875 212.844,212.875 117.497,0 212.875,-95.3778 212.875,-212.875 0,-117.497 -95.3779,-212.844 -212.875,-212.844 z  m 0,160 c 29.1771,0 52.875,23.6666 52.875,52.8438 0,29.1771 -23.6979,52.875 -52.875,52.875 -29.1771,0 -52.8438,-23.6979 -52.8438,-52.875 0,-29.1771 23.6666,-52.8438 52.8438,-52.8438 z "/>
</clipPath>
<clipPath id="clipPath4100" clipPathUnits="userSpaceOnUse">
<path style="opacity:.46;stroke:none" id="path4102" d="m 664.3347,-117.7067 0,281.0887 282.3088,0 0,-281.0887 -282.3088,0 z  m 140.7691,29.4767 c 64.0792,0 115.98,51.9664 115.98,116.045 0,64.0782 -51.9012,116.045 -115.98,116.045 -64.0792,0 -116.045,-51.9654 -116.045,-116.045 0,-64.0791 51.9654,-116.045 116.045,-116.045 z  m -.3211,100.8246 c -8.54055,0 -15.4769,6.93509 -15.4769,15.4769 0,8.54279 6.93634,15.4769 15.4769,15.4769 8.54056,0 15.4769,-6.93411 15.4769,-15.4769 0,-8.54181 -6.93634,-15.4769 -15.4769,-15.4769 z "/>
</clipPath>
<clipPath id="clipPath4248" clipPathUnits="userSpaceOnUse">
<path style="opacity:.79;fill:#666;stroke:none;stroke-linejoin:round;stroke-width:7.2" id="path4250" d="m 372.8438,260.9375 c -117.497,0 -212.844,95.3466 -212.844,212.844 0,117.497 95.3466,212.875 212.844,212.875 117.497,0 212.875,-95.3778 212.875,-212.875 0,-117.497 -95.3779,-212.844 -212.875,-212.844 z  m 0,160 c 29.1771,0 52.875,23.6666 52.875,52.8438 0,29.1771 -23.6979,52.875 -52.875,52.875 -29.1771,0 -52.8438,-23.6979 -52.8438,-52.875 0,-29.1771 23.6666,-52.8438 52.8438,-52.8438 z "/>
</clipPath>
<clipPath id="clipPath4244-5" clipPathUnits="userSpaceOnUse">
<path style="opacity:.79;fill:#666;stroke:none;stroke-linejoin:round;stroke-width:7.2" id="path4246-3" d="m 372.8438,260.9375 c -117.497,0 -212.844,95.3466 -212.844,212.844 0,117.497 95.3466,212.875 212.844,212.875 117.497,0 212.875,-95.3778 212.875,-212.875 0,-117.497 -95.3779,-212.844 -212.875,-212.844 z  m 0,160 c 29.1771,0 52.875,23.6666 52.875,52.8438 0,29.1771 -23.6979,52.875 -52.875,52.875 -29.1771,0 -52.8438,-23.6979 -52.8438,-52.875 0,-29.1771 23.6666,-52.8438 52.8438,-52.8438 z "/>
</clipPath>
<clipPath id="clipPath4232" clipPathUnits="userSpaceOnUse">
<path style="opacity:.79;fill:#666;stroke:none;stroke-linejoin:round;stroke-width:7.2" id="path4234" d="m 372.8438,260.9375 c -117.497,0 -212.844,95.3466 -212.844,212.844 0,117.497 95.3466,212.875 212.844,212.875 117.497,0 212.875,-95.3778 212.875,-212.875 0,-117.497 -95.3779,-212.844 -212.875,-212.844 z  m 0,160 c 29.1771,0 52.875,23.6666 52.875,52.8438 0,29.1771 -23.6979,52.875 -52.875,52.875 -29.1771,0 -52.8438,-23.6979 -52.8438,-52.875 0,-29.1771 23.6666,-52.8438 52.8438,-52.8438 z "/>
</clipPath>
<clipPath id="clipPath3987" clipPathUnits="userSpaceOnUse">
<path style="fill:#0266c4;stroke:none;fill-opacity:.677" id="path3989" d="m 233.7182,-86.1948 c -63.3459,0 -114.702,51.3559 -114.702,114.702 0,63.3459 51.3559,114.702 114.702,114.702 63.3459,0 114.702,-51.3559 114.702,-114.702 0,-63.3459 -51.3559,-114.702 -114.702,-114.702 z  m 0,69.063 c 25.2057,0 45.6389,20.4332 45.6389,45.6389 0,25.2057 -20.4332,45.6389 -45.6389,45.6389 -25.2057,0 -45.6388,-20.4332 -45.6388,-45.6389 0,-25.2057 20.4332,-45.6389 45.6388,-45.6389 z "/>
</clipPath>
<clipPath id="clipPath4232-3" clipPathUnits="userSpaceOnUse">
<path style="opacity:.79;fill:#666;stroke:none;stroke-linejoin:round;stroke-width:7.2" id="path4234-6" d="m 372.8438,260.9375 c -117.497,0 -212.844,95.3466 -212.844,212.844 0,117.497 95.3466,212.875 212.844,212.875 117.497,0 212.875,-95.3778 212.875,-212.875 0,-117.497 -95.3779,-212.844 -212.875,-212.844 z  m 0,160 c 29.1771,0 52.875,23.6666 52.875,52.8438 0,29.1771 -23.6979,52.875 -52.875,52.875 -29.1771,0 -52.8438,-23.6979 -52.8438,-52.875 0,-29.1771 23.6666,-52.8438 52.8438,-52.8438 z "/>
</clipPath>
<clipPath id="clipPath4236-0" clipPathUnits="userSpaceOnUse">
<path style="opacity:.79;fill:#666;stroke:none;stroke-linejoin:round;stroke-width:7.2" id="path4238-3" d="m 372.8438,260.9375 c -117.497,0 -212.844,95.3466 -212.844,212.844 0,117.497 95.3466,212.875 212.844,212.875 117.497,0 212.875,-95.3778 212.875,-212.875 0,-117.497 -95.3779,-212.844 -212.875,-212.844 z  m 0,160 c 29.1771,0 52.875,23.6666 52.875,52.8438 0,29.1771 -23.6979,52.875 -52.875,52.875 -29.1771,0 -52.8438,-23.6979 -52.8438,-52.875 0,-29.1771 23.6666,-52.8438 52.8438,-52.8438 z "/>
</clipPath>
<clipPath id="clipPath4240-8" clipPathUnits="userSpaceOnUse">
<path style="opacity:.79;fill:#666;stroke:none;stroke-linejoin:round;stroke-width:7.2" id="path4242-6" d="m 372.8438,260.9375 c -117.497,0 -212.844,95.3466 -212.844,212.844 0,117.497 95.3466,212.875 212.844,212.875 117.497,0 212.875,-95.3778 212.875,-212.875 0,-117.497 -95.3779,-212.844 -212.875,-212.844 z  m 0,160 c 29.1771,0 52.875,23.6666 52.875,52.8438 0,29.1771 -23.6979,52.875 -52.875,52.875 -29.1771,0 -52.8438,-23.6979 -52.8438,-52.875 0,-29.1771 23.6666,-52.8438 52.8438,-52.8438 z "/>
</clipPath>
<clipPath id="clipPath4236" clipPathUnits="userSpaceOnUse">
<path style="opacity:.79;fill:#666;stroke:none;stroke-linejoin:round;stroke-width:7.2" id="path4238" d="m 372.8438,260.9375 c -117.497,0 -212.844,95.3466 -212.844,212.844 0,117.497 95.3466,212.875 212.844,212.875 117.497,0 212.875,-95.3778 212.875,-212.875 0,-117.497 -95.3779,-212.844 -212.875,-212.844 z  m 0,160 c 29.1771,0 52.875,23.6666 52.875,52.8438 0,29.1771 -23.6979,52.875 -52.875,52.875 -29.1771,0 -52.8438,-23.6979 -52.8438,-52.875 0,-29.1771 23.6666,-52.8438 52.8438,-52.8438 z "/>
</clipPath>
</defs>
<g style="stroke:#003bc3;stroke-linecap:square;fill-rule:evenodd;stroke-width:0">
<g style="stroke-miterlimit:2">
<path style="fill:#708c94" id="path4157" d="m 24,2 c -12.7071,0 -23,10.2929 -23,23 0,12.7072 10.2929,23 23,23 12.7072,0 23,-10.2928 23,-23 0,-12.7071 -10.2928,-23 -23,-23 Z  m 0,19.2266 c 2.09091,0 3.77332,1.68236 3.77332,3.77347 0,2.09091 -1.68241,3.77332 -3.77332,3.77332 -2.09111,0 -3.77345,-1.68241 -3.77345,-3.77332 0,-2.09111 1.68236,-3.77347 3.77345,-3.77347 z "/>
<path style="fill:#ecf0f1" id="shape011" d="m 24,1 c -12.7071,0 -23,10.2929 -23,23 1.55431e-15,12.7072 10.2929,23 23,23 12.7072,0 23,-10.2928 23,-23 0,-12.7071 -10.2928,-23 -23,-23 Z  m 0,19.2266 c 2.09091,0 3.77332,1.68236 3.77332,3.77347 0,2.09091 -1.68241,3.77332 -3.77332,3.77332 -2.09111,0 -3.77345,-1.68241 -3.77345,-3.77332 0,-2.09111 1.68236,-3.77347 3.77345,-3.77347 z "/>
<path style="fill:#b2b2b2" id="shape11" d="m 23.9891,15.0741 c -4.91681,0 -8.91488,3.99807 -8.91488,8.91489 0,4.9167 3.99807,8.91489 8.91488,8.91489 4.9167,0 8.91489,-3.99819 8.91489,-8.91489 0,-4.91681 -3.99819,-8.91488 -8.91489,-8.91488 z  m 0,5.0785 c 2.12591,0 3.83626,1.7104 3.83626,3.83633 0,2.12591 -1.71035,3.83626 -3.83626,3.83626 -2.12593,0 -3.83633,-1.71035 -3.83633,-3.83626 0,-2.12593 1.7104,-3.83633 3.83633,-3.83633 z "/>
</g>
<path style="fill:#8196ab;stroke-linejoin:bevel" id="shape1" d="m 18.2212,15.3972 c -1.61128,1.13621 -2.06871,1.86205 -2.70549,2.66951 l -9.4986,-6.8861 c 1.43564,-2.26058 3.13184,-4.23102 5.46983,-5.5817 Z "/>
</g>
<g style="fill:#1e72aa;stroke:none">
<path id="path4641" d="m 24.2843,33.6187 c 0.06882,-0.03785 0.273001,-0.0012 1.19034,0 3.79849,0.0074 7.19484,0.441436 9.48433,1.22874 2.28634,0.786197 3.55719,1.90028 3.83981,3.34063 0.02064,0.10604 0.03963,0.288065 0.0384,0.575971 0,0.480179 -0.06571,0.733127 -0.19199,1.11355 -0.981726,2.95018 -5.88174,4.84268 -14.2458,5.41413 -0.537143,0.03674 -1.10104,0.07274 -1.9967,0.115133 -0.584659,0.02752 -4.46477,0.06181 -4.76136,0.03834 -0.174456,-0.01364 -0.224245,-0.06377 -0.230388,-0.115133 -0.0049,-0.0306 -0.01266,-0.06574 0,-0.0768 0.0113,-0.01106 0.554738,-0.02482 1.19034,-0.03834 1.17815,-0.02421 2.09673,-0.05062 2.95665,-0.115133 3.41404,-0.255639 6.29612,-0.819802 8.56277,-1.68952 3.67704,-1.41085 5.48685,-3.56568 4.64617,-5.60612 -0.537598,-1.30482 -2.21719,-2.44011 -4.76136,-3.18704 -1.59345,-0.467817 -3.34069,-0.738656 -5.10694,-0.806359 -0.616642,-0.02371 -0.651686,-0.03662 -0.652767,-0.115133 0,-0.02187 0.01542,-0.06414 0.0384,-0.0768 z "/>
<path id="path4639" d="m 14.2635,33.7187 -.2304,.4784 -2.4575,4.9275 c -0.15691,0.390217 -0.15272,0.597512 0.0384,0.861111 0.526244,0.725707 2.23376,1.25682 4.68457,1.53086 0.499974,0.05603 1.61432,0.172987 2.0735,0.191357 0.574926,0.0222 2.95386,0.02588 3.41743,0 3.60195,-0.200344 6.23014,-0.960418 6.83486,-1.91358 0.116669,-0.18424 0.127236,-0.298243 0.115194,-0.526234 -0.0086,-0.151709 -0.0068,-0.251215 -0.0768,-0.382717 -0.206575,-0.387599 -0.825811,-0.745745 -1.68952,-1.05247 -1.20175,-0.42682 -3.06444,-0.739713 -5.06855,-0.861111 -1.75326,-0.106087 -3.10769,-0.00046 -4.53097,0.239197 -0.237171,0.0401 -0.416358,0.05542 -0.422379,0.04777 -0.01978,-0.02464 0.4725,-0.927244 1.42073,-2.53549 0.314901,-0.534103 0.545682,-0.987483 0.537573,-1.00463 -0.0098,-0.01945 -0.773307,0 -2.30389,0 h -2.34228 z  m 6.2973,4.8317 c 1.27321,0.02725 2.47269,0.172636 3.18704,0.430556 0.350068,0.126448 0.553056,0.275249 0.499175,0.382715 -0.134485,0.269463 -1.05718,0.527077 -2.38068,0.669753 -0.408482,0.04317 -2.45496,0.07701 -2.87986,0.04777 -1.61995,-0.110834 -2.83479,-0.412889 -2.99505,-0.717592 -0.036,-0.06873 -0.04141,-0.08665 0,-0.143442 0.107884,-0.1488 0.47707,-0.262849 0.99835,-0.382717 0.966354,-0.222128 2.29783,-0.314286 3.57102,-0.287036 z "/>
</g>
</svg>
