/* XPM */
static char * maximize_prelight_xpm[] = {
"24 24 4 1",
" 	c None",
".	c #878787",
"+	c #FFFFFF",
"@	c #FDFDFD",
"........................",
"........................",
"........................",
"........................",
"........................",
"........................",
"........................",
"...........++++@@.......",
"............++@@@.......",
".............++++.......",
"............+++++.......",
"...........+++.++.......",
"..........+++...+.......",
".........+++............",
"........+++.............",
".......@@@..............",
".......@@...............",
"........................",
"........................",
"........................",
"........................",
"........................",
"........................",
"........................"};
