<?xml version="1.0" encoding="UTF-8" standalone="no"?>
<svg
   xmlns:dc="http://purl.org/dc/elements/1.1/"
   xmlns:cc="http://creativecommons.org/ns#"
   xmlns:rdf="http://www.w3.org/1999/02/22-rdf-syntax-ns#"
   xmlns:svg="http://www.w3.org/2000/svg"
   xmlns="http://www.w3.org/2000/svg"
   xmlns:xlink="http://www.w3.org/1999/xlink"
   xmlns:sodipodi="http://sodipodi.sourceforge.net/DTD/sodipodi-0.dtd"
   xmlns:inkscape="http://www.inkscape.org/namespaces/inkscape"
   width="96"
   version="1.0"
   height="96"
   id="svg2"
   inkscape:version="0.91 r13725"
   sodipodi:docname="gnome-calculator.svg">
  <metadata
     id="metadata62">
    <rdf:RDF>
      <cc:Work
         rdf:about="">
        <dc:format>image/svg+xml</dc:format>
        <dc:type
           rdf:resource="http://purl.org/dc/dcmitype/StillImage" />
        <dc:title></dc:title>
      </cc:Work>
    </rdf:RDF>
  </metadata>
  <sodipodi:namedview
     pagecolor="#ffffff"
     bordercolor="#666666"
     borderopacity="1"
     objecttolerance="10"
     gridtolerance="10"
     guidetolerance="10"
     inkscape:pageopacity="0"
     inkscape:pageshadow="2"
     inkscape:window-width="640"
     inkscape:window-height="480"
     id="namedview60"
     showgrid="false"
     inkscape:zoom="3.1666667"
     inkscape:cx="46.587069"
     inkscape:cy="33.222259"
     inkscape:current-layer="svg2" />
  <defs
     id="defs4">
    <linearGradient
       id="linearGradient4183">
      <stop
         offset="0"
         style="stop-color:#2f6004"
         id="stop4185" />
      <stop
         offset="1"
         style="stop-color:#4d9a06"
         id="stop4187" />
    </linearGradient>
    <linearGradient
       xlink:href="#linearGradient4183"
       id="linearGradient4189"
       y1="7.0124922"
       x1="8.7636805"
       y2="15.652658"
       x2="8.8049879"
       gradientUnits="userSpaceOnUse" />
  </defs>
  <rect
     style="opacity:1;fill:#666666;fill-opacity:1;fill-rule:evenodd;stroke:none;stroke-width:1;stroke-linecap:butt;stroke-linejoin:miter;stroke-miterlimit:4;stroke-dasharray:none;stroke-opacity:1"
     id="rect4306"
     width="84"
     height="84"
     x="6"
     y="6" />
  <g
     id="g4264"
     transform="matrix(2.2917958,0,0,2.1128369,-6.8002409,-3.8236635)">
    <path
       style="color:#000000;opacity:0.6;fill:#c0ffc8;stroke:none"
       id="path4196"
       d="m 10.176,7.1159 28.3479,0 c 0.77387,0 1.53213,0.583686 1.53213,1.33214 l 0,6.64693 c 0,0.773869 -0.783686,1.502 -1.53213,1.502 l -28.3479,0 c -0.773869,0 -1.33214,-0.702708 -1.33214,-1.502 l 0,-6.64693 c 0,-0.621327 0.710805,-1.33214 1.33214,-1.33214 z"
       inkscape:connector-curvature="0" />
    <path
       style="color:#000000;fill:url(#linearGradient4189);stroke:none"
       id="path4179"
       d="m 9.8765,7.016 28.2471,0 c 0.621328,0 1.13227,0.51094 1.13227,1.13227 l 0,6.34666 c 0,0.621327 -0.51094,1.10247 -1.13227,1.10247 l -28.2471,0 c -0.621327,0 -1.13227,-0.481144 -1.13227,-1.10247 l 0,-6.34666 C 8.74423,7.526943 9.25517,7.016 9.8765,7.016 Z"
       inkscape:connector-curvature="0" />
    <path
       style="color:#000000;opacity:0.5;fill:#a4efff;stroke:none"
       id="path4201"
       d="m 8.9499,20.1633 2.0475,0 c 0.536931,0 0.983285,0.646419 0.983285,1.18335 l 0,2.04736 c 0,0.536931 -0.446354,0.983285 -0.983285,0.983285 l -2.04749,0 c -0.53693,0 -1.18287,-0.446354 -1.18287,-0.983285 l 0,-2.04736 c 0,-0.536931 0.645942,-1.18335 1.18287,-1.18335 z"
       inkscape:connector-curvature="0" />
    <path
       style="color:#000000;fill:#00687e;stroke:none"
       id="path4177"
       d="m 9.2507,20.6628 1.8474,0 c 0.536931,0 0.983285,0.446354 0.983285,0.983285 l 0,1.84738 c 0,0.536931 -0.446354,0.983285 -0.983285,0.983285 l -1.84738,0 c -0.53693,0 -0.983285,-0.446354 -0.983285,-0.983285 l 0,-1.84738 c 0,-0.536931 0.446354,-0.983285 0.983285,-0.983285 z"
       inkscape:connector-curvature="0" />
    <path
       inkscape:connector-curvature="0"
       d="m 15.40106,21.06325 2.7413,0 c 0.552994,0 1.01308,0.460087 1.01308,1.01308 l 0,1.78779 c 0,0.552993 -0.460088,1.01308 -1.01308,1.01308 l -2.74128,0 c -0.552993,0 -1.01308,-0.460088 -1.01308,-1.01308 l 0,-1.78779 c 0,-0.552994 0.460088,-1.01308 1.01308,-1.01308 z"
       id="path4211"
       style="color:#000000;stroke:none" />
    <path
       inkscape:connector-curvature="0"
       d="m 22.04566,21.06325 2.7711,0 c 0.552994,0 1.01308,0.460087 1.01308,1.01308 l 0,1.78779 c 0,0.552993 -0.460087,1.01308 -1.01308,1.01308 l -2.77108,0 c -0.552993,0 -0.983284,-0.460088 -0.983284,-1.01308 l 0,-1.78779 c 0,-0.552994 0.430291,-1.01308 0.983284,-1.01308 z"
       id="path4213"
       style="color:#000000;stroke:none" />
    <path
       inkscape:connector-curvature="0"
       d="m 28.74986,21.06325 2.7413,0 c 0.552993,0 1.01308,0.460087 1.01308,1.01308 l 0,1.78779 c 0,0.552993 -0.460088,1.01308 -1.01308,1.01308 l -2.74128,0 c -0.552994,0 -1.01308,-0.460088 -1.01308,-1.01308 l 0,-1.78779 c 0,-0.552994 0.460088,-1.01308 1.01308,-1.01308 z"
       id="path4215"
       style="color:#000000;stroke:none" />
    <path
       inkscape:connector-curvature="0"
       d="m 15.0015,20.6628 2.7413,0 c 0.552994,0 1.01308,0.460087 1.01308,1.01308 l 0,1.78779 c 0,0.552993 -0.460088,1.01308 -1.01308,1.01308 l -2.74128,0 c -0.552993,0 -1.01308,-0.460088 -1.01308,-1.01308 l 0,-1.78779 c 0,-0.552994 0.460088,-1.01308 1.01308,-1.01308 z"
       id="path4175"
       style="color:#000000;fill:#ffffff;stroke:none" />
    <path
       inkscape:connector-curvature="0"
       d="m 21.6461,20.6628 2.7711,0 c 0.552994,0 1.01308,0.460087 1.01308,1.01308 l 0,1.78779 c 0,0.552993 -0.460087,1.01308 -1.01308,1.01308 l -2.77108,0 c -0.552993,0 -0.983284,-0.460088 -0.983284,-1.01308 l 0,-1.78779 c 0,-0.552994 0.430291,-1.01308 0.983284,-1.01308 z"
       id="path4173"
       style="color:#000000;fill:#ffffff;stroke:none" />
    <path
       inkscape:connector-curvature="0"
       d="m 28.3503,20.6628 2.7413,0 c 0.552993,0 1.01308,0.460087 1.01308,1.01308 l 0,1.78779 c 0,0.552993 -0.460088,1.01308 -1.01308,1.01308 l -2.74128,0 c -0.552994,0 -1.01308,-0.460088 -1.01308,-1.01308 l 0,-1.78779 c 0,-0.552994 0.460088,-1.01308 1.01308,-1.01308 z"
       id="path4171"
       style="color:#000000;fill:#ffffff;stroke:none" />
    <path
       style="color:#000000;opacity:0.5;fill:#ffe9c6;stroke:none"
       id="path4195"
       d="m 34.726,20.1635 3.8935,0 c 0.552993,0 1.01308,0.660547 1.01308,1.21354 l 0,1.987 c 0,0.552993 -0.460088,1.01308 -1.01308,1.01308 l -3.89344,0 c -0.552994,0 -1.21355,-0.460088 -1.21355,-1.01308 l 0,-1.987 c 0,-0.552994 0.660562,-1.21354 1.21355,-1.21354 z"
       inkscape:connector-curvature="0" />
    <path
       style="color:#000000;fill:#c07600;stroke:none"
       id="path4169"
       d="m 35.0247,20.6628 3.6948,0 c 0.552993,0 1.01308,0.460087 1.01308,1.01308 l 0,1.78779 c 0,0.552993 -0.460088,1.01308 -1.01308,1.01308 l -3.69477,0 c -0.552994,0 -1.01308,-0.460088 -1.01308,-1.01308 l 0,-1.78779 c 0,-0.552994 0.460087,-1.01308 1.01308,-1.01308 z"
       inkscape:connector-curvature="0" />
    <path
       style="color:#000000;opacity:0.5;fill:#a4efff;stroke:none"
       id="path4203"
       d="m 8.9499,25.8842 2.0475,0 c 0.536931,0 0.983285,0.64642 0.983285,1.18335 l 0,2.04736 c 0,0.53693 -0.446354,0.983284 -0.983285,0.983284 l -2.04749,0 c -0.53693,0 -1.18287,-0.446354 -1.18287,-0.983284 l 0,-2.04736 c 0,-0.53693 0.645942,-1.18335 1.18287,-1.18335 z"
       inkscape:connector-curvature="0" />
    <path
       style="color:#000000;fill:#00687e;stroke:none"
       id="path4167"
       d="m 9.2507,26.3837 1.8474,0 c 0.536931,0 0.983285,0.446355 0.983285,0.983285 l 0,1.84738 c 0,0.53693 -0.446354,0.983284 -0.983285,0.983284 l -1.84738,0 c -0.53693,0 -0.983285,-0.446354 -0.983285,-0.983284 l 0,-1.84738 c 0,-0.53693 0.446354,-0.983285 0.983285,-0.983285 z"
       inkscape:connector-curvature="0" />
    <path
       inkscape:connector-curvature="0"
       d="m 15.37126,26.78415 2.7711,0 c 0.552994,0 1.01308,0.460088 1.01308,1.01308 l 0,1.78779 c 0,0.552994 -0.460088,1.01308 -1.01308,1.01308 l -2.77107,0 c -0.552994,0 -0.983285,-0.460087 -0.983285,-1.01308 l 0,-1.78779 c 0,-0.552993 0.430291,-1.01308 0.983285,-1.01308 z"
       id="path4219"
       style="color:#000000;stroke:none" />
    <path
       inkscape:connector-curvature="0"
       d="m 22.04566,26.78415 2.7711,0 c 0.552994,0 1.01308,0.460088 1.01308,1.01308 l 0,1.78779 c 0,0.552994 -0.460087,1.01308 -1.01308,1.01308 l -2.77108,0 c -0.552993,0 -0.983284,-0.460087 -0.983284,-1.01308 l 0,-1.78779 c 0,-0.552993 0.430291,-1.01308 0.983284,-1.01308 z"
       id="path4221"
       style="color:#000000;stroke:none" />
    <path
       inkscape:connector-curvature="0"
       d="m 28.74986,26.78415 2.7413,0 c 0.552993,0 1.01308,0.460088 1.01308,1.01308 l 0,1.78779 c 0,0.552994 -0.460088,1.01308 -1.01308,1.01308 l -2.74128,0 c -0.552994,0 -1.01308,-0.460087 -1.01308,-1.01308 l 0,-1.78779 c 0,-0.552993 0.460088,-1.01308 1.01308,-1.01308 z"
       id="path4223"
       style="color:#000000;stroke:none" />
    <path
       inkscape:connector-curvature="0"
       d="m 14.9717,26.3837 2.7711,0 c 0.552994,0 1.01308,0.460088 1.01308,1.01308 l 0,1.78779 c 0,0.552994 -0.460088,1.01308 -1.01308,1.01308 l -2.77107,0 c -0.552994,0 -0.983285,-0.460087 -0.983285,-1.01308 l 0,-1.78779 c 0,-0.552993 0.430291,-1.01308 0.983285,-1.01308 z"
       id="path4165"
       style="color:#000000;fill:#ffffff;stroke:none" />
    <path
       inkscape:connector-curvature="0"
       d="m 21.6461,26.3837 2.7711,0 c 0.552994,0 1.01308,0.460088 1.01308,1.01308 l 0,1.78779 c 0,0.552994 -0.460087,1.01308 -1.01308,1.01308 l -2.77108,0 c -0.552993,0 -0.983284,-0.460087 -0.983284,-1.01308 l 0,-1.78779 c 0,-0.552993 0.430291,-1.01308 0.983284,-1.01308 z"
       id="path4163"
       style="color:#000000;fill:#ffffff;stroke:none" />
    <path
       inkscape:connector-curvature="0"
       d="m 28.3503,26.3837 2.7413,0 c 0.552993,0 1.01308,0.460088 1.01308,1.01308 l 0,1.78779 c 0,0.552994 -0.460088,1.01308 -1.01308,1.01308 l -2.74128,0 c -0.552994,0 -1.01308,-0.460087 -1.01308,-1.01308 l 0,-1.78779 c 0,-0.552993 0.460088,-1.01308 1.01308,-1.01308 z"
       id="path4161"
       style="color:#000000;fill:#ffffff;stroke:none" />
    <path
       style="color:#000000;opacity:0.5;fill:#ffe9c6;stroke:none"
       id="path4197"
       d="m 34.726,25.8844 3.8935,0 c 0.552993,0 1.01308,0.660593 1.01308,1.21358 l 0,1.987 c 0,0.552994 -0.460088,1.01308 -1.01308,1.01308 l -3.89344,0 c -0.552994,0 -1.21355,-0.460087 -1.21355,-1.01308 l 0,-1.987 c 0,-0.552993 0.660562,-1.21358 1.21355,-1.21358 z"
       inkscape:connector-curvature="0" />
    <path
       style="color:#000000;fill:#c07600;stroke:none"
       id="path4159"
       d="m 35.0247,26.3837 3.6948,0 c 0.552993,0 1.01308,0.460088 1.01308,1.01308 l 0,1.78779 c 0,0.552994 -0.460088,1.01308 -1.01308,1.01308 l -3.69477,0 c -0.552994,0 -1.01308,-0.460087 -1.01308,-1.01308 l 0,-1.78779 c 0,-0.552993 0.460087,-1.01308 1.01308,-1.01308 z"
       inkscape:connector-curvature="0" />
    <path
       style="color:#000000;opacity:0.5;fill:#a4efff;stroke:none"
       id="path4205"
       d="m 8.9499,31.6051 2.0475,0 c 0.536931,0 0.983285,0.64642 0.983285,1.18335 l 0,2.04736 c 0,0.53693 -0.446354,0.983285 -0.983285,0.983285 l -2.04721,0 c -0.53693,0 -1.18315,-0.446355 -1.18315,-0.983285 l 0,-2.04736 c 0,-0.53693 0.645942,-1.18335 1.18287,-1.18335 z"
       inkscape:connector-curvature="0" />
    <path
       style="color:#000000;fill:#00687e;stroke:none"
       id="path4157"
       d="m 9.2507,32.1047 1.8474,0 c 0.536931,0 0.983285,0.446355 0.983285,0.983285 l 0,1.84738 c 0,0.53693 -0.446354,0.983285 -0.983285,0.983285 l -1.84738,0 c -0.53693,0 -0.983285,-0.446355 -0.983285,-0.983285 l 0,-1.84738 c 0,-0.53693 0.446354,-0.983285 0.983285,-0.983285 z"
       inkscape:connector-curvature="0" />
    <path
       inkscape:connector-curvature="0"
       d="m 15.37126,32.50515 2.7711,0 c 0.552994,0 1.01308,0.460088 1.01308,1.01308 l 0,1.78779 c 0,0.552994 -0.460088,1.01308 -1.01308,1.01308 l -2.77107,0 c -0.552994,0 -0.983285,-0.460088 -0.983285,-1.01308 l 0,-1.78779 c 0,-0.552994 0.430291,-1.01308 0.983285,-1.01308 z"
       id="path4227"
       style="color:#000000;stroke:none" />
    <path
       inkscape:connector-curvature="0"
       d="m 22.04566,32.50515 2.7711,0 c 0.552994,0 1.01308,0.460088 1.01308,1.01308 l 0,1.78779 c 0,0.552994 -0.460087,1.01308 -1.01308,1.01308 l -2.77108,0 c -0.552993,0 -0.983284,-0.460088 -0.983284,-1.01308 l 0,-1.78779 c 0,-0.552994 0.430291,-1.01308 0.983284,-1.01308 z"
       id="path4229"
       style="color:#000000;stroke:none" />
    <path
       inkscape:connector-curvature="0"
       d="m 28.74986,32.50515 2.7413,0 c 0.552993,0 1.01308,0.460088 1.01308,1.01308 l 0,1.78779 c 0,0.552994 -0.460088,1.01308 -1.01308,1.01308 l -2.74128,0 c -0.552994,0 -1.01308,-0.460088 -1.01308,-1.01308 l 0,-1.78779 c 0,-0.552994 0.460088,-1.01308 1.01308,-1.01308 z"
       id="path4231"
       style="color:#000000;stroke:none" />
    <path
       inkscape:connector-curvature="0"
       d="m 14.9717,32.1047 2.7711,0 c 0.552994,0 1.01308,0.460088 1.01308,1.01308 l 0,1.78779 c 0,0.552994 -0.460088,1.01308 -1.01308,1.01308 l -2.77107,0 c -0.552994,0 -0.983285,-0.460088 -0.983285,-1.01308 l 0,-1.78779 c 0,-0.552994 0.430291,-1.01308 0.983285,-1.01308 z"
       id="path4155"
       style="color:#000000;fill:#ffffff;stroke:none" />
    <path
       inkscape:connector-curvature="0"
       d="m 21.6461,32.1047 2.7711,0 c 0.552994,0 1.01308,0.460088 1.01308,1.01308 l 0,1.78779 c 0,0.552994 -0.460087,1.01308 -1.01308,1.01308 l -2.77108,0 c -0.552993,0 -0.983284,-0.460088 -0.983284,-1.01308 l 0,-1.78779 c 0,-0.552994 0.430291,-1.01308 0.983284,-1.01308 z"
       id="path4153"
       style="color:#000000;fill:#ffffff;stroke:none" />
    <path
       inkscape:connector-curvature="0"
       d="m 28.3503,32.1047 2.7413,0 c 0.552993,0 1.01308,0.460088 1.01308,1.01308 l 0,1.78779 c 0,0.552994 -0.460088,1.01308 -1.01308,1.01308 l -2.74128,0 c -0.552994,0 -1.01308,-0.460088 -1.01308,-1.01308 l 0,-1.78779 c 0,-0.552994 0.460088,-1.01308 1.01308,-1.01308 z"
       id="path4151"
       style="color:#000000;fill:#ffffff;stroke:none" />
    <path
       style="color:#000000;opacity:0.5;fill:#ffe9c6;stroke:none"
       id="path4199"
       d="m 34.726,31.6054 3.8935,0 c 0.552993,0 1.01308,0.660548 1.01308,1.21354 l 0,7.70793 c 0,0.552994 -0.460088,1.01308 -1.01308,1.01308 l -3.89344,0 c -0.552994,0 -1.21355,-0.460088 -1.21355,-1.01308 l 0,-7.70793 c 0,-0.552994 0.660562,-1.21354 1.21355,-1.21354 z"
       inkscape:connector-curvature="0" />
    <path
       style="color:#000000;fill:#c07600;stroke:none"
       id="path4149"
       d="m 35.0247,32.1047 3.6948,0 c 0.552993,0 1.01308,0.460088 1.01308,1.01308 l 0,7.50872 c 0,0.552994 -0.460088,1.01308 -1.01308,1.01308 l -3.69477,0 c -0.552994,0 -1.01308,-0.460088 -1.01308,-1.01308 l 0,-7.50872 c 0,-0.552994 0.460087,-1.01308 1.01308,-1.01308 z"
       inkscape:connector-curvature="0" />
    <path
       style="color:#000000;opacity:0.5;fill:#a4efff;stroke:none"
       id="path4207"
       d="m 8.9501,37.3261 2.0472,0 c 0.536931,0 0.983285,0.64642 0.983285,1.18335 l 0,2.04736 c 0,0.53693 -0.446354,0.983284 -0.983285,0.983284 l -2.04721,0 c -0.53693,0 -1.18315,-0.446355 -1.18315,-0.983285 l 0,-2.04736 c 0,-0.53693 0.646217,-1.18335 1.18315,-1.18335 z"
       inkscape:connector-curvature="0" />
    <path
       style="color:#000000;fill:#00687e;stroke:none"
       id="path4147"
       d="m 9.2507,37.8256 1.8474,0 c 0.536931,0 0.983285,0.446355 0.983285,0.983285 l 0,1.84738 c 0,0.53693 -0.446354,0.983285 -0.983285,0.983285 l -1.84738,0 c -0.53693,0 -0.983285,-0.446355 -0.983285,-0.983285 l 0,-1.84738 c 0,-0.53693 0.446354,-0.983285 0.983285,-0.983285 z"
       inkscape:connector-curvature="0" />
    <path
       inkscape:connector-curvature="0"
       d="m 15.37126,38.22605 2.7711,0 c 0.552994,0 1.01308,0.460088 1.01308,1.01308 l 0,1.78779 c 0,0.552994 -0.460088,1.01308 -1.01308,1.01308 l -2.77107,0 c -0.552994,0 -0.983285,-0.460088 -0.983285,-1.01308 l 0,-1.78779 c 0,-0.552994 0.430291,-1.01308 0.983285,-1.01308 z"
       id="path4235"
       style="color:#000000;stroke:none" />
    <path
       inkscape:connector-curvature="0"
       d="m 22.04566,38.22605 2.7711,0 c 0.552994,0 1.01308,0.460088 1.01308,1.01308 l 0,1.78779 c 0,0.552994 -0.460087,1.01308 -1.01308,1.01308 l -2.77108,0 c -0.552993,0 -0.983284,-0.460088 -0.983284,-1.01308 l 0,-1.78779 c 0,-0.552994 0.430291,-1.01308 0.983284,-1.01308 z"
       id="path4237"
       style="color:#000000;stroke:none" />
    <path
       inkscape:connector-curvature="0"
       d="m 28.72006,38.22605 2.7711,0 c 0.552993,0 1.01308,0.460088 1.01308,1.01308 l 0,1.78779 c 0,0.552994 -0.460088,1.01308 -1.01308,1.01308 l -2.77108,0 c -0.552994,0 -0.983285,-0.460088 -0.983285,-1.01308 l 0,-1.78779 c 0,-0.552994 0.430291,-1.01308 0.983285,-1.01308 z"
       id="path4239"
       style="color:#000000;stroke:none" />
    <path
       inkscape:connector-curvature="0"
       d="m 14.9717,37.8256 2.7711,0 c 0.552994,0 1.01308,0.460088 1.01308,1.01308 l 0,1.78779 c 0,0.552994 -0.460088,1.01308 -1.01308,1.01308 l -2.77107,0 c -0.552994,0 -0.983285,-0.460088 -0.983285,-1.01308 l 0,-1.78779 c 0,-0.552994 0.430291,-1.01308 0.983285,-1.01308 z"
       id="path4145"
       style="color:#000000;fill:#ffffff;stroke:none" />
    <path
       inkscape:connector-curvature="0"
       d="m 21.6461,37.8256 2.7711,0 c 0.552994,0 1.01308,0.460088 1.01308,1.01308 l 0,1.78779 c 0,0.552994 -0.460087,1.01308 -1.01308,1.01308 l -2.77108,0 c -0.552993,0 -0.983284,-0.460088 -0.983284,-1.01308 l 0,-1.78779 c 0,-0.552994 0.430291,-1.01308 0.983284,-1.01308 z"
       id="path4143"
       style="color:#000000;fill:#ffffff;stroke:none" />
    <path
       inkscape:connector-curvature="0"
       d="m 28.3205,37.8256 2.7711,0 c 0.552993,0 1.01308,0.460088 1.01308,1.01308 l 0,1.78779 c 0,0.552994 -0.460088,1.01308 -1.01308,1.01308 l -2.77108,0 c -0.552994,0 -0.983285,-0.460088 -0.983285,-1.01308 l 0,-1.78779 c 0,-0.552994 0.430291,-1.01308 0.983285,-1.01308 z"
       id="rect2157"
       style="color:#000000;fill:#ffffff;stroke:none" />
  </g>
</svg>
