<?xml version="1.0" encoding="UTF-8" standalone="no"?>
<svg
   xmlns:dc="http://purl.org/dc/elements/1.1/"
   xmlns:cc="http://creativecommons.org/ns#"
   xmlns:rdf="http://www.w3.org/1999/02/22-rdf-syntax-ns#"
   xmlns:svg="http://www.w3.org/2000/svg"
   xmlns="http://www.w3.org/2000/svg"
   xmlns:sodipodi="http://sodipodi.sourceforge.net/DTD/sodipodi-0.dtd"
   xmlns:inkscape="http://www.inkscape.org/namespaces/inkscape"
   width="96"
   version="1.0"
   height="96"
   id="svg4808"
   inkscape:version="0.91 r13725"
   sodipodi:docname="akonadi.svg">
  <metadata
     id="metadata4820">
    <rdf:RDF>
      <cc:Work
         rdf:about="">
        <dc:format>image/svg+xml</dc:format>
        <dc:type
           rdf:resource="http://purl.org/dc/dcmitype/StillImage" />
        <dc:title></dc:title>
      </cc:Work>
    </rdf:RDF>
  </metadata>
  <sodipodi:namedview
     pagecolor="#ffffff"
     bordercolor="#666666"
     borderopacity="1"
     objecttolerance="10"
     gridtolerance="10"
     guidetolerance="10"
     inkscape:pageopacity="0"
     inkscape:pageshadow="2"
     inkscape:window-width="640"
     inkscape:window-height="480"
     id="namedview4818"
     showgrid="false"
     inkscape:zoom="1.65625"
     inkscape:cx="20.803267"
     inkscape:cy="35.495548"
     inkscape:current-layer="svg4808" />
  <defs
     id="defs2410" />
  <rect
     style="opacity:1;fill:#3771c8;fill-opacity:1;fill-rule:evenodd;stroke:none;stroke-width:1;stroke-linecap:butt;stroke-linejoin:miter;stroke-miterlimit:4;stroke-dasharray:none;stroke-opacity:1"
     id="rect15939"
     width="84"
     height="84"
     x="6"
     y="6" />
  <g
     style="stroke:none"
     id="g16">
    <path
       style="opacity:.3"
       id="path3038"
       d="m 48.4366,22.4713 c -14.1672,0 -25.5725,11.9409 -25.5725,26.7734 0,0.164955 0.01931,0.323834 0.02217,0.488055 -0.0046,0.183428 -0.02217,0.361519 -0.02217,0.54616 0,2.4119 0.410406,4.71774 1.12657,6.86766 3.20629,10.9501 12.9092,18.8715 24.4459,18.8715 14.1672,0 25.5725,-11.9409 25.5725,-26.7734 0,-14.8325 -11.4053,-26.7734 -25.5725,-26.7734 z  m 0,5.9496 c 11.0189,0 19.8897,9.2874 19.8897,20.8238 0,11.446 -8.73563,20.6682 -19.6345,20.8122 6.72991,-2.22526 11.8902,-8.07992 13.3801,-15.4029 -3.62962,4.38141 -8.97845,7.15817 -14.9783,7.15817 -8.48552,0 -15.6685,-5.5359 -18.5079,-13.3518 0.395093,-11.1664 9.08534,-20.0394 19.8509,-20.0394 z " />
    <path
       style="fill:#ecf0f1"
       id="rect4192"
       d="m 48.3565,22.4713 c -13.6793,0 -24.6918,11.2982 -24.6918,25.3323 0,0.156076 0.01865,0.306403 0.0214,0.461785 -0.0044,0.173555 -0.0214,0.34206 -0.0214,0.516763 0,2.28208 0.396272,4.46381 1.08777,6.49801 3.09587,10.3607 12.4647,17.8558 23.6041,17.8558 13.6793,0 24.6918,-11.2982 24.6918,-25.3323 0,-14.0341 -11.0126,-25.3323 -24.6918,-25.3323 z  m 0,5.6294 c 10.6394,0 19.2048,8.7875 19.2048,19.7029 0,10.8299 -8.43479,19.5558 -18.9583,19.6919 6.49815,-2.10548 11.4807,-7.64501 12.9193,-14.5738 -3.50462,4.14558 -8.66925,6.77288 -14.4625,6.77288 -8.1933,0 -15.1289,-5.23793 -17.8705,-12.6332 0.381487,-10.5654 8.77246,-18.9608 19.1673,-18.9608 z " />
  </g>
</svg>
