<?xml version="1.0" encoding="UTF-8" standalone="no"?>
<svg
   xmlns:dc="http://purl.org/dc/elements/1.1/"
   xmlns:cc="http://creativecommons.org/ns#"
   xmlns:rdf="http://www.w3.org/1999/02/22-rdf-syntax-ns#"
   xmlns:svg="http://www.w3.org/2000/svg"
   xmlns="http://www.w3.org/2000/svg"
   xmlns:sodipodi="http://sodipodi.sourceforge.net/DTD/sodipodi-0.dtd"
   xmlns:inkscape="http://www.inkscape.org/namespaces/inkscape"
   width="96"
   version="1.0"
   height="96"
   id="svg5362"
   inkscape:version="0.91 r13725"
   sodipodi:docname="akregator.svg">
  <metadata
     id="metadata5376">
    <rdf:RDF>
      <cc:Work
         rdf:about="">
        <dc:format>image/svg+xml</dc:format>
        <dc:type
           rdf:resource="http://purl.org/dc/dcmitype/StillImage" />
        <dc:title></dc:title>
      </cc:Work>
    </rdf:RDF>
  </metadata>
  <sodipodi:namedview
     pagecolor="#ffffff"
     bordercolor="#666666"
     borderopacity="1"
     objecttolerance="10"
     gridtolerance="10"
     guidetolerance="10"
     inkscape:pageopacity="0"
     inkscape:pageshadow="2"
     inkscape:window-width="640"
     inkscape:window-height="480"
     id="namedview5374"
     showgrid="false"
     inkscape:zoom="1.65625"
     inkscape:cx="130.96439"
     inkscape:cy="-5.9490218"
     inkscape:current-layer="svg5362" />
  <defs
     id="defs2410" />
  <rect
     style="opacity:1;fill:#ff7f2a;fill-opacity:1;fill-rule:evenodd;stroke:none;stroke-width:1;stroke-linecap:butt;stroke-linejoin:miter;stroke-miterlimit:4;stroke-dasharray:none;stroke-opacity:1"
     id="rect15937"
     width="84"
     height="84"
     x="6"
     y="6" />
  <g
     id="g15933"
     transform="matrix(1.2773332,0,0,1.2773332,-16.935852,-9.8539972)">
    <path
       d="m 24.023,16.3262 -1.5,1.5008 c 24.3571,0 55.129,31.4984 55.129,56.432 l 1.4991,-1.5 c 0,-31.167 -24.6817,-56.4328 -55.1281,-56.4328 z m 0,19.0259 -1.5,1.4999 c 14.2663,0 36.543,22.803 36.543,37.407 l 1.4991,-1.5 c 0,-20.6593 -16.3605,-37.4069 -36.5421,-37.4069 z m 7.5604,21.9282 c -4.17551,0 -7.56042,3.46503 -7.56042,7.73935 0,4.27433 3.38492,7.73935 7.56042,7.73935 4.17551,0 7.56043,-3.46503 7.56043,-7.73935 0,-4.27433 -3.38492,-7.73935 -7.56043,-7.73935 z"
       id="path4158"
       style="opacity:0.4"
       inkscape:connector-curvature="0" />
    <path
       d="m 22.5235,17.827 0,11.2862 c 24.3571,0 44.1025,20.2126 44.1025,45.1462 l 11.026,0 C 77.652,43.0924 52.9699,17.827 22.5235,17.827 Z m -5e-4,19.025 5e-4,10.9646 c 14.2663,0 25.8315,11.8388 25.8315,26.4428 l 10.711,-4e-4 c 0,-20.6593 -16.3614,-37.407 -36.543,-37.407 z m 7.5609,21.9287 c -4.17551,0 -7.56042,3.46503 -7.56042,7.73935 0,4.27433 3.38492,7.73935 7.56042,7.73935 4.17551,0 7.56043,-3.46503 7.56043,-7.73935 0,-4.27433 -3.38492,-7.73935 -7.56043,-7.73935 z"
       id="circle3643"
       style="fill:#ffffff"
       inkscape:connector-curvature="0" />
  </g>
</svg>
