<?xml version="1.0" encoding="UTF-8" standalone="no"?>
<!-- Created with Inkscape (http://www.inkscape.org/) -->

<svg
   xmlns:dc="http://purl.org/dc/elements/1.1/"
   xmlns:cc="http://creativecommons.org/ns#"
   xmlns:rdf="http://www.w3.org/1999/02/22-rdf-syntax-ns#"
   xmlns:svg="http://www.w3.org/2000/svg"
   xmlns="http://www.w3.org/2000/svg"
   xmlns:sodipodi="http://sodipodi.sourceforge.net/DTD/sodipodi-0.dtd"
   xmlns:inkscape="http://www.inkscape.org/namespaces/inkscape"
   width="96"
   height="96"
   viewBox="0 0 96 96.000005"
   id="svg2"
   version="1.1"
   inkscape:version="0.91 r13725"
   sodipodi:docname="oceanaudio.svg">
  <defs
     id="defs4" />
  <sodipodi:namedview
     id="base"
     pagecolor="#ffffff"
     bordercolor="#666666"
     borderopacity="1.0"
     inkscape:pageopacity="0.0"
     inkscape:pageshadow="2"
     inkscape:zoom="5.590563"
     inkscape:cx="25.109972"
     inkscape:cy="32.378219"
     inkscape:document-units="px"
     inkscape:current-layer="layer1"
     showgrid="false"
     units="px"
     inkscape:showpageshadow="false"
     borderlayer="true"
     inkscape:window-width="2560"
     inkscape:window-height="957"
     inkscape:window-x="-4"
     inkscape:window-y="29"
     inkscape:window-maximized="1">
    <inkscape:grid
       type="xygrid"
       id="grid4136"
       empspacing="2" />
    <sodipodi:guide
       position="5,59.000069"
       orientation="54,0"
       id="guide4142" />
    <sodipodi:guide
       position="5,5.0000688"
       orientation="0,54"
       id="guide4144" />
    <sodipodi:guide
       position="59,5.0000688"
       orientation="-54,0"
       id="guide4146" />
    <sodipodi:guide
       position="59,59.000069"
       orientation="0,-54"
       id="guide4148" />
    <sodipodi:guide
       position="0,64.000069"
       orientation="64,0"
       id="guide4150" />
    <sodipodi:guide
       position="0,6.875e-05"
       orientation="0,64"
       id="guide4152" />
    <sodipodi:guide
       position="64,6.875e-05"
       orientation="-64,0"
       id="guide4154" />
    <sodipodi:guide
       position="64,64.000069"
       orientation="0,-64"
       id="guide4156" />
    <sodipodi:guide
       position="15,48.999949"
       orientation="34,0"
       id="guide4168" />
    <sodipodi:guide
       position="15,14.999947"
       orientation="0,34"
       id="guide4170" />
    <sodipodi:guide
       position="49,14.999947"
       orientation="-34,0"
       id="guide4172" />
    <sodipodi:guide
       position="49,48.999949"
       orientation="0,-34"
       id="guide4174" />
    <sodipodi:guide
       position="15,32.000436"
       orientation="17,0"
       id="guide4175" />
    <sodipodi:guide
       position="15,15.000436"
       orientation="0,17"
       id="guide4177" />
    <sodipodi:guide
       position="32,15.000436"
       orientation="-17,0"
       id="guide4179" />
    <sodipodi:guide
       position="32,32.000436"
       orientation="0,-17"
       id="guide4181" />
  </sodipodi:namedview>
  <metadata
     id="metadata7">
    <rdf:RDF>
      <cc:Work
         rdf:about="">
        <dc:format>image/svg+xml</dc:format>
        <dc:type
           rdf:resource="http://purl.org/dc/dcmitype/StillImage" />
        <dc:title></dc:title>
      </cc:Work>
    </rdf:RDF>
  </metadata>
  <g
     inkscape:label="Capa 1"
     inkscape:groupmode="layer"
     id="layer1"
     transform="translate(0,-1026.5196)">
    <g
       id="g4178"
       transform="matrix(1.6153846,0,0,1.6153867,-3.6923082,-685.4759)">
      <rect
         ry="0.99994665"
         y="1063.5197"
         x="6"
         height="51.999931"
         width="52"
         id="rect4158"
         style="fill:#4a4541;fill-opacity:1;stroke:none" />
      <rect
         y="1064.5197"
         x="7"
         height="49.999947"
         width="50"
         id="rect4211"
         style="opacity:1;fill:#dadfe1;fill-opacity:1;stroke:none;stroke-width:0.1;stroke-linecap:round;stroke-linejoin:miter;stroke-miterlimit:4;stroke-dasharray:none;stroke-opacity:0.29943501" />
      <rect
         style="fill:#252525;fill-opacity:1;stroke:none"
         id="rect4173"
         width="48"
         height="38.000053"
         x="8"
         y="1075.5197"
         ry="0" />
      <rect
         y="1065.5197"
         x="8"
         height="8.9999466"
         width="48"
         id="rect4194"
         style="opacity:1;fill:#111111;fill-opacity:1;stroke:none;stroke-width:0.1;stroke-linecap:round;stroke-linejoin:miter;stroke-miterlimit:4;stroke-dasharray:none;stroke-opacity:0.29943501" />
      <circle
         style="fill:#181818;fill-opacity:1;stroke:none;stroke-opacity:1"
         id="circle4196"
         cx="32"
         cy="1094.5197"
         r="10" />
      <circle
         r="4"
         cy="1094.5197"
         cx="32"
         id="circle4198"
         style="fill:#080808;fill-opacity:1;stroke:none;stroke-opacity:1" />
      <circle
         style="fill:#252525;fill-opacity:1;stroke:none;stroke-opacity:1"
         id="circle4306"
         cx="13"
         cy="1069.5197"
         r="2.0000005" />
      <circle
         r="1"
         cy="1069.5197"
         cx="13"
         id="circle4308"
         style="fill:#dadfe1;fill-opacity:1;stroke:none;stroke-opacity:1" />
      <path
         id="path4310"
         d="M 13.316406,1068.5722 13,1069.5195 l 0.707031,-0.707 a 1,1 0 0 0 -0.390625,-0.2403 z"
         style="fill:#bdc3c7;fill-opacity:1;stroke:none;stroke-opacity:1"
         inkscape:connector-curvature="0" />
      <path
         id="path4312"
         d="m 13.947267,1069.205 -0.947266,0.3145 0.96875,0.2422 a 1,1 0 0 0 0.03125,-0.2422 1,1 0 0 0 -0.05273,-0.3145 z"
         style="fill:#bdc3c7;fill-opacity:1;stroke:none;stroke-opacity:1"
         inkscape:connector-curvature="0" />
      <path
         id="path4314"
         d="m 12.052735,1069.2031 a 1,1 0 0 0 -0.05273,0.3164 1,1 0 0 0 0.03125,0.2422 L 13,1069.5195 l -0.947265,-0.3164 z"
         style="fill:#bdc3c7;fill-opacity:1;stroke:none;stroke-opacity:1"
         inkscape:connector-curvature="0" />
      <path
         id="path4316"
         d="m 12.697267,1068.5683 a 1,1 0 0 0 -0.396486,0.2383 l 0.712892,0.7129 -0.316406,-0.9512 z"
         style="fill:#bdc3c7;fill-opacity:1;stroke:none;stroke-opacity:1"
         inkscape:connector-curvature="0" />
      <path
         id="path4318"
         d="m 13.013673,1069.623 -0.660156,0.6602 a 1,1 0 0 0 0.373046,0.1972 l 0.28711,-0.8574 z"
         style="fill:#bdc3c7;fill-opacity:1;stroke:none;stroke-opacity:1"
         inkscape:connector-curvature="0" />
      <rect
         style="opacity:1;fill:#2f2f2f;fill-opacity:1;stroke:none;stroke-width:0.1;stroke-linecap:round;stroke-linejoin:miter;stroke-miterlimit:4;stroke-dasharray:none;stroke-opacity:0.29943501"
         id="rect4231"
         width="48"
         height="1.0000533"
         x="8"
         y="1073.5197" />
      <circle
         r="2.0000005"
         cy="1069.5197"
         cx="19"
         id="circle4233"
         style="fill:#252525;fill-opacity:1;stroke:none;stroke-opacity:1" />
      <circle
         style="fill:#dadfe1;fill-opacity:1;stroke:none;stroke-opacity:1"
         id="circle4235"
         cx="19"
         cy="1069.5197"
         r="1" />
      <path
         inkscape:connector-curvature="0"
         style="fill:#bdc3c7;fill-opacity:1;stroke:none;stroke-opacity:1"
         d="M 19.316406,1068.5722 19,1069.5195 l 0.707031,-0.707 a 1,1 0 0 0 -0.390625,-0.2403 z"
         id="path4237" />
      <path
         inkscape:connector-curvature="0"
         style="fill:#bdc3c7;fill-opacity:1;stroke:none;stroke-opacity:1"
         d="m 19.947267,1069.205 -0.947266,0.3145 0.96875,0.2422 a 1,1 0 0 0 0.03125,-0.2422 1,1 0 0 0 -0.05273,-0.3145 z"
         id="path4239" />
      <path
         inkscape:connector-curvature="0"
         style="fill:#bdc3c7;fill-opacity:1;stroke:none;stroke-opacity:1"
         d="m 18.052735,1069.2031 a 1,1 0 0 0 -0.05273,0.3164 1,1 0 0 0 0.03125,0.2422 L 19,1069.5195 l -0.947265,-0.3164 z"
         id="path4241" />
      <path
         inkscape:connector-curvature="0"
         style="fill:#bdc3c7;fill-opacity:1;stroke:none;stroke-opacity:1"
         d="m 18.697267,1068.5683 a 1,1 0 0 0 -0.396486,0.2383 l 0.712892,0.7129 -0.316406,-0.9512 z"
         id="path4243" />
      <path
         inkscape:connector-curvature="0"
         style="fill:#bdc3c7;fill-opacity:1;stroke:none;stroke-opacity:1"
         d="m 19.013673,1069.623 -0.660156,0.6602 a 1,1 0 0 0 0.373046,0.1972 l 0.28711,-0.8574 z"
         id="path4245" />
      <rect
         y="1066.5197"
         x="49"
         height="5.9999466"
         width="5"
         id="rect4179"
         style="fill:#232323;fill-opacity:1;stroke:none;stroke-opacity:1" />
      <rect
         y="1067.5197"
         x="50"
         height="3.9999466"
         width="3"
         id="rect4181"
         style="fill:#d24d57;fill-opacity:1;stroke:none;stroke-opacity:1" />
      <rect
         style="fill:#bc313b;fill-opacity:1;stroke:none;stroke-opacity:1"
         id="rect4183"
         width="3"
         height="1.0000533"
         x="50"
         y="1070.5195" />
      <path
         inkscape:connector-curvature="0"
         id="path4271"
         d="m 50.000442,1095.5197 0,11.9973 c -0.447414,2e-4 -0.778803,0.01 -1.064357,0.016 -5.24e-4,0 -0.0014,0 -0.002,0 -0.0019,0 -0.004,1e-4 -0.0059,0 -0.06283,0 -0.125838,0.01 -0.181624,0.01 -0.14119,0 -0.28439,0.014 -0.429649,0.037 -0.119282,0.016 -0.241649,0.032 -0.296849,0.057 -0.0229,0.01 -0.04544,0.01 -0.06835,0.014 -1.333545,0.3572 -2.182181,1.4112 -1.896315,2.4779 0.285865,1.0667 1.599787,1.6421 2.933331,1.2848 1.07248,-0.2873 1.81812,-1.0905 1.925609,-1.9487 0.0017,-0.01 0.0022,-0.019 0.0039,-0.027 0.05149,-0.253 0.08202,-0.5548 0.08202,-0.9178 l 0,-8.998 c 1.999821,0 2.999732,2.9993 2.999732,4.9989 0,-2.9993 -1.193785,-5.2283 -2.999732,-6.9984 -0.999911,-0.9998 -0.999911,-0.9998 -0.999911,-1.9996 z"
         style="opacity:1;fill:#dadfe1;fill-opacity:1;stroke:none;stroke-width:1;stroke-linecap:round;stroke-linejoin:miter;stroke-miterlimit:4;stroke-dasharray:none;stroke-opacity:0.29943501" />
      <path
         id="rect4182"
         transform="translate(0,1058.5196)"
         d="m 52.263672,40.472656 -0.376953,0.753906 c 0.380174,0.195688 0.706937,0.511316 0.984375,0.902344 l 0.232422,-0.232422 C 52.863993,41.393979 52.583439,40.919463 52.263672,40.472656 Z M 51,43 l -1,2 1,-1 0,-1 z m -1,2 1,0.888672 0,-0.615234 L 50,45 Z m -0.445312,4.003906 c -0.210924,0.0034 -0.453046,0.0063 -0.619141,0.0098 l -0.002,0 c -0.0019,0 -0.004,1e-4 -0.0059,0 -0.06283,0 -0.125854,0.0098 -0.18164,0.0098 -0.14119,0 -0.284429,0.01411 -0.429688,0.03711 -0.119282,0.016 -0.241675,0.03164 -0.296875,0.05664 -0.0229,0.01 -0.04545,0.0097 -0.06836,0.01367 -1.333545,0.3572 -2.18235,1.411816 -1.896484,2.478516 0.04628,0.172692 0.128719,0.327591 0.224609,0.472656 0.797488,0.417317 1.674074,0.70307 2.603515,0.832031 0.03542,-0.0082 0.07001,-0.01003 0.105469,-0.01953 0.04868,-0.01304 0.09333,-0.03175 0.140625,-0.04687 l 0.425782,-3.84375 z"
         style="opacity:1;fill:#eff2f2;fill-opacity:1;stroke:none;stroke-width:1.41421354;stroke-linecap:round;stroke-linejoin:miter;stroke-miterlimit:4;stroke-dasharray:none;stroke-opacity:0.29943501"
         inkscape:connector-curvature="0" />
    </g>
  </g>
</svg>
