<?xml version="1.0" encoding="UTF-8" standalone="no"?>
<!-- Created with Inkscape (http://www.inkscape.org/) -->

<svg
   xmlns:dc="http://purl.org/dc/elements/1.1/"
   xmlns:cc="http://creativecommons.org/ns#"
   xmlns:rdf="http://www.w3.org/1999/02/22-rdf-syntax-ns#"
   xmlns:svg="http://www.w3.org/2000/svg"
   xmlns="http://www.w3.org/2000/svg"
   xmlns:sodipodi="http://sodipodi.sourceforge.net/DTD/sodipodi-0.dtd"
   xmlns:inkscape="http://www.inkscape.org/namespaces/inkscape"
   width="96"
   height="96"
   id="svg13094"
   version="1.1"
   inkscape:version="0.91 r13725"
   sodipodi:docname="distributor-logo-debian.svg">
  <sodipodi:namedview
     id="base"
     pagecolor="#ffffff"
     bordercolor="#666666"
     borderopacity="1.0"
     inkscape:pageopacity="1"
     inkscape:pageshadow="2"
     inkscape:zoom="2.8173786"
     inkscape:cx="13.020813"
     inkscape:cy="57.959046"
     inkscape:document-units="px"
     inkscape:current-layer="svg13094"
     showgrid="false"
     inkscape:snap-bbox="true"
     inkscape:bbox-paths="true"
     inkscape:bbox-nodes="true"
     inkscape:snap-bbox-edge-midpoints="true"
     inkscape:snap-bbox-midpoints="true"
     inkscape:object-paths="true"
     inkscape:snap-intersection-paths="true"
     inkscape:object-nodes="true"
     inkscape:snap-smooth-nodes="true"
     inkscape:snap-midpoints="true"
     inkscape:snap-object-midpoints="true"
     inkscape:snap-center="true"
     showguides="false"
     inkscape:guide-bbox="true"
     inkscape:window-width="1366"
     inkscape:window-height="744"
     inkscape:window-x="0"
     inkscape:window-y="24"
     inkscape:window-maximized="1"
     inkscape:snap-global="true"
     fit-margin-top="0"
     fit-margin-left="0"
     fit-margin-right="0"
     fit-margin-bottom="0"
     showborder="true"
     inkscape:showpageshadow="false"
     inkscape:snap-page="true">
    <inkscape:grid
       type="xygrid"
       id="grid3075"
       empspacing="5"
       visible="true"
       enabled="true"
       snapvisiblegridlinesonly="true"
       originx="1.6362304e-08px"
       originy="18px" />
  </sodipodi:namedview>
  <defs
     id="defs13096" />
  <metadata
     id="metadata13099">
    <rdf:RDF>
      <cc:Work
         rdf:about="">
        <dc:format>image/svg+xml</dc:format>
        <dc:type
           rdf:resource="http://purl.org/dc/dcmitype/StillImage" />
        <dc:title></dc:title>
      </cc:Work>
    </rdf:RDF>
  </metadata>
  <rect
     style="opacity:1;fill:#ff5555;fill-opacity:1;fill-rule:evenodd;stroke:none;stroke-width:1;stroke-linecap:butt;stroke-linejoin:miter;stroke-miterlimit:4;stroke-dasharray:none;stroke-opacity:1"
     id="rect18255"
     width="84"
     height="84"
     x="6"
     y="6"
     ry="0" />
  <g
     id="g3043"
     inkscape:export-filename="folder.png"
     inkscape:export-xdpi="90"
     inkscape:export-ydpi="90"
     transform="translate(-0.62500009,32.082283)" />
  <g
     id="scalable"
     transform="matrix(1.0385892,0,0,1.0385892,1214.7222,1910.8121)"
     inkscape:label="#g3701"
     style="fill:#ffffff" />
  <path
     inkscape:connector-curvature="0"
     id="path3968"
     d="m 52.313941,11.000017 c -1.147306,0.09606 -2.286835,0.154167 -3.4136,0.297769 l 0.49392,0.06535 c 0.82803,-0.302818 2.038279,-0.163747 2.91968,-0.363132 z m -5.004025,0.522925 c -1.863685,0.113238 -4.451677,1.087968 -3.653237,0.203421 -3.040411,1.35731 -8.444527,3.258846 -11.475116,6.10065 l -0.09446,-0.631805 c -1.388467,1.666672 -6.055767,4.978512 -6.427538,7.13922 l -0.370415,0.08713 c -0.721261,1.223615 -1.192016,2.605788 -1.764807,3.863798 -0.944557,1.610898 -1.383733,0.618768 -1.249172,0.871527 -1.858701,3.768353 -2.783712,6.937818 -3.580579,9.535977 0.5679,0.849352 0.0185,5.113469 0.23244,8.526474 -0.932269,16.859089 11.830286,33.225415 25.7827,37.003621 2.045053,0.732839 5.082835,0.704878 7.669409,0.777044 -3.051077,-0.873104 -3.446227,-0.459637 -6.420176,-1.496111 -2.14435,-1.010971 -2.612689,-2.167285 -4.132499,-3.486082 l 0.60279,1.067642 C 39.45037,80.030913 40.699079,79.782797 38.275014,79.015555 l 0.63904,-0.84244 C 37.948217,78.099245 36.356796,76.544437 35.92181,75.68196 l -1.053096,0.04353 c -1.268674,-1.56411 -1.945542,-2.690352 -1.89558,-3.565936 l -0.341306,0.61004 C 32.245342,72.105693 27.95475,66.893982 30.177067,68.106879 29.764266,67.731037 29.2178,67.489897 28.622843,66.407428 l 0.450307,-0.515662 c -1.067648,-1.376169 -1.964555,-3.138252 -1.895626,-3.72581 0.570368,0.769783 0.965893,0.913717 1.35821,1.045862 -2.700748,-6.699605 -2.850961,-0.368741 -4.895118,-6.819665 l 0.428511,-0.03648 C 23.738485,55.854254 23.536132,55.319516 23.27023,54.786927 l 0.188828,-1.881064 c -1.943229,-2.245245 -0.54289,-9.550704 -0.26149,-13.559525 0.192892,-1.629782 1.623314,-3.371379 2.708993,-6.093434 l -0.660899,-0.108963 c 1.265419,-2.205831 7.225664,-8.860532 9.986253,-8.519163 1.33682,-1.679017 -0.268321,-0.0065 -0.530122,-0.428496 2.937069,-3.038796 3.857401,-2.147126 5.8392,-2.694473 2.136151,-1.267853 -1.833322,0.492415 -0.820727,-0.486632 3.695425,-0.942891 2.617529,-2.143422 7.437085,-2.621829 0.508747,0.288888 -1.174363,0.44566 -1.597834,0.820707 3.077457,-1.506709 9.738317,-1.163034 14.067892,0.835219 5.019845,2.347841 10.663653,9.284488 10.886839,15.810951 l 0.254248,0.06536 c -0.127903,2.59486 0.396098,5.596439 -0.51563,8.352144 l 0.617351,-1.300013 c 0.07198,1.977582 -0.580092,2.946656 -1.169382,4.64815 l -1.060288,0.523048 c -0.867482,1.68558 0.08373,1.071118 -0.537493,2.411216 -1.355672,1.203886 -4.108119,3.767063 -4.989522,4.001801 -0.644134,-0.01382 0.432663,-0.761794 0.573733,-1.053117 -1.812721,1.244097 -1.453982,1.871664 -4.226813,2.629085 l -0.07998,-0.181501 c -6.835819,3.21689 -16.327834,-3.157393 -16.203103,-11.852796 -0.07227,0.551473 -0.2121,0.410261 -0.363111,0.631856 -0.35291,-4.473283 2.071262,-8.962291 6.151491,-10.799706 3.990695,-1.974441 8.669395,-1.170094 11.525921,1.496129 -1.569047,-2.056562 -4.701087,-4.232728 -8.402973,-4.030818 -3.628013,0.05906 -7.02354,2.362287 -8.155977,4.866045 -1.857961,1.169376 -2.074212,4.508043 -2.883373,5.120215 -1.090566,8.00942 2.052456,11.471105 7.36442,15.542261 0.416953,0.281497 0.474643,0.442793 0.443062,0.588281 6.266294,2.339582 12.743005,1.774221 18.164045,-2.57104 1.380315,-1.074991 2.883321,-2.902236 3.319079,-2.926869 -0.655687,0.986384 0.111697,0.472928 -0.39216,1.343609 1.372072,-2.216548 -0.594485,-0.902743 1.423516,-3.827451 l 0.740751,1.024013 c -0.279019,-1.841478 2.287264,-4.076754 2.026346,-6.98673 0.588398,-0.889586 0.660006,0.96011 0.03689,3.006774 0.86575,-2.270682 0.228684,-2.635807 0.450286,-4.510156 0.238832,0.630229 0.550134,1.302645 0.711739,1.968193 -0.564538,-2.195212 0.580297,-3.698893 0.864271,-4.975006 -0.280687,-0.123025 -0.87331,0.972042 -1.00959,-1.619542 0.02054,-1.125918 0.316117,-0.594189 0.428561,-0.871538 -0.219892,-0.127187 -0.802704,-0.988461 -1.154777,-2.643616 0.253597,-0.389829 0.683333,1.010963 1.031306,1.067567 -0.224091,-1.315439 -0.608192,-2.323368 -0.624593,-3.333537 -1.017576,-2.125468 -0.359887,0.288594 -1.183823,-0.907858 -1.083194,-3.376065 0.896752,-0.783899 1.031356,-2.316825 1.639606,2.375733 2.575912,6.056724 3.006731,7.582291 -0.328245,-1.860361 -0.855913,-3.659599 -1.503356,-5.403466 0.499692,0.210915 -0.80618,-3.828403 0.646326,-1.154752 -1.550177,-5.699327 -6.627288,-11.025238 -11.300784,-13.52325 0.570366,0.522796 1.289003,1.182147 1.031307,1.285519 -2.325666,-1.382763 -1.910976,-1.492854 -2.244189,-2.077144 -1.891524,-0.770538 -2.024024,0.06087 -3.275522,0 -3.56969,-1.894015 -4.253706,-1.691042 -7.538691,-2.876038 l 0.145221,0.69726 c -2.36423,-0.787855 -2.75444,0.294699 -5.309074,0 -0.154658,-0.120308 0.818411,-0.435417 1.619587,-0.551981 -2.278485,0.299322 -2.173873,-0.453772 -4.40849,0.07984 0.550718,-0.386521 1.133699,-0.644906 1.721354,-0.973215 z m 1.844666,0.428512 c 0.65485,0.11651 1.41646,0.206458 1.307287,0.363157 0.718898,-0.158392 0.878881,-0.300804 -1.307287,-0.363157 z m 1.307287,0.363157 -0.457516,0.101703 0.421214,-0.04353 0.03686,-0.05808 z M 20.285233,26.847337 c 0.191139,1.767644 -1.324571,2.452445 0.341346,1.285485 0.894485,-2.013843 -0.352865,-0.553525 -0.341346,-1.285485 z m -1.358149,5.614074 c -1.061032,1.3573 -0.48394,1.647785 -0.595587,2.570999 0.384955,-1.179252 0.448689,-1.887386 0.595587,-2.570999 z m 43.69991,8.199627 c -0.151751,0.0044 -0.344997,0.385598 -0.443071,0.806152 0.228114,0.11983 0.411067,1.557745 0.631842,0.668188 0.0747,-1.104203 -0.03686,-1.478224 -0.188763,-1.47434 z m 13.41425,3.718514 -0.181578,0.450294 c -0.329921,2.345366 -1.042169,4.667187 -2.135256,6.819721 1.207939,-2.270709 1.9861,-4.75314 2.316834,-7.270015 z m -14.205926,0.827966 c -0.164897,0.812379 -0.607141,1.509559 -1.024045,2.251428 -2.292036,1.443474 -0.21438,-0.852941 0,-1.72849 -2.463583,3.104428 -0.338235,1.863372 -0.428511,2.730776 0.732821,-1.008549 1.26463,-2.113053 1.452556,-3.253714 z m -4.99677,4.735311 c -0.995466,0.243696 -2.013318,0.245214 -3.035792,0.152514 -1.22601,0.01589 0.229104,0.631774 1.83016,0.878765 0.444014,-0.3463 0.847837,-0.69157 1.205632,-1.031281 z m -15.476905,0.159745 c 0.270897,0.993753 0.829076,1.846374 1.34365,2.716286 L 42.320332,51.707643 C 41.893611,51.234954 41.645628,50.66719 41.361643,50.102574 Z m -0.944136,1.677719 -0.174271,0.856982 c 0.806698,1.095544 1.448357,2.284028 2.47661,3.1375 -0.740227,-1.44348 -1.289581,-2.039748 -2.302281,-3.994482 z m 1.547028,1.278223 c 2.868029,5.135501 11.639095,9.002258 16.232101,7.081177 -2.125432,0.07897 -4.825441,0.04688 -7.211842,-0.835212 -0.93557,-0.480421 -2.178134,-1.437243 -2.149763,-1.728559 -0.04414,0.123454 -0.120895,0.243365 -0.07258,0.428513 -1.764386,-0.825539 -3.384126,-2.06787 -4.713594,-3.595031 0.705769,1.031524 1.470898,2.030095 2.454862,2.81795 -1.665084,-0.56219 -3.891767,-4.027708 -4.539159,-4.168838 z"
     style="color:#000000;display:inline;overflow:visible;visibility:visible;fill:#ffffff;fill-opacity:1;fill-rule:nonzero;stroke:none;stroke-width:77.51100159;marker:none;enable-background:accumulate" />
</svg>
