<?xml version="1.0" encoding="UTF-8" standalone="no"?>
<svg
   xmlns:dc="http://purl.org/dc/elements/1.1/"
   xmlns:cc="http://creativecommons.org/ns#"
   xmlns:rdf="http://www.w3.org/1999/02/22-rdf-syntax-ns#"
   xmlns:svg="http://www.w3.org/2000/svg"
   xmlns="http://www.w3.org/2000/svg"
   xmlns:sodipodi="http://sodipodi.sourceforge.net/DTD/sodipodi-0.dtd"
   xmlns:inkscape="http://www.inkscape.org/namespaces/inkscape"
   width="96"
   version="1.1"
   height="96"
   id="svg17260"
   inkscape:version="0.91 r13725"
   sodipodi:docname="dosbox.svg">
  <metadata
     id="metadata17346">
    <rdf:RDF>
      <cc:Work
         rdf:about="">
        <dc:format>image/svg+xml</dc:format>
        <dc:type
           rdf:resource="http://purl.org/dc/dcmitype/StillImage" />
        <dc:title></dc:title>
      </cc:Work>
    </rdf:RDF>
  </metadata>
  <defs
     id="defs17344" />
  <sodipodi:namedview
     pagecolor="#ffffff"
     bordercolor="#666666"
     borderopacity="1"
     objecttolerance="10"
     gridtolerance="10"
     guidetolerance="10"
     inkscape:pageopacity="0"
     inkscape:pageshadow="2"
     inkscape:window-width="640"
     inkscape:window-height="480"
     id="namedview17342"
     showgrid="false"
     showguides="false"
     inkscape:zoom="2.375"
     inkscape:cx="42.547915"
     inkscape:cy="27.508286"
     inkscape:current-layer="svg17260" />
  <g
     id="g18275"
     transform="translate(5.6653011,28)">
    <g
       transform="matrix(1.326373,0,0,1.4,-0.10923705,-24.8)"
       id="g17262"
       style="fill-rule:evenodd;stroke:none">
      <path
         inkscape:connector-curvature="0"
         d="m 0.3347,2 63.3306,0 0,60 -63.3306,0 z"
         id="rect677"
         style="font-size:12px;fill:#fd9e46;stroke:none;stroke-width:0.66900003" />
      <g
         style="stroke:none"
         transform="matrix(0.231676,-0.02948936,0.02948936,0.231676,19.951582,0.75557761)"
         id="g1257">
        <g
           id="g17266"
           style="font-size:12px;stroke:none">
          <path
             inkscape:connector-curvature="0"
             style="stroke:none"
             d="M 64.338,75.2242 C 6.3565,120.8344 6.5543,120.7593 6.5543,120.7593 L 48.7575,113.5388 64.338,75.2242 Z"
             id="path643" />
          <path
             inkscape:connector-curvature="0"
             style="stroke:none"
             d="m 121.8901,88.4266 c 43.8736,65.5649 43.2285,65.3177 43.2285,65.3177 l -38.3328,-22.9529 -4.8957,-42.3648 z"
             id="path644" />
          <g
             id="g17270"
             style="fill:#fd9e46;stroke:none;stroke-width:2.5">
            <path
               inkscape:connector-curvature="0"
               style="stroke:none"
               d="m 96.354,153.0267 c -5.28601,31.3909 -5.28601,31.3909 -5.28601,31.3909 l 6.8097,2.42 16.2972,23.2292 -11.7343,1.1075 -12.5859,-2.4076 -12.9505,-0.2428 4.557,-27.0614 4.1953,0.8027 10.6976,-29.2385 z"
               id="path646" />
            <path
               inkscape:connector-curvature="0"
               style="stroke:none"
               d="m 67.6744,148.8658 c -5.28606,31.3911 -5.28606,31.3911 -5.28606,31.3911 l -7.1745,-0.2553 -22.8591,15.739 10.6407,5.3875 12.586,2.4074 12.2214,4.5727 4.5569,-27.0611 -4.1953,-0.8027 -0.49,-31.3786 z"
               id="path645" />
          </g>
          <path
             inkscape:connector-curvature="0"
             d="m 128.3766,121.9492 c -6.6182,36.6162 -25.0704,49.8784 -48.6248,44.8641 C 57.1494,162.0017 41.3779,144.4615 44.9709,107.1783 47.33405,82.6546 72.1183,73.7889 75.173,60.1335 76.43642,42.7154 79.63872,21.0033 103.9055,26.704 c 20.8862,4.90644 15.5149,23.6576 13.1274,40.1022 -1.0651,15.7416 15.9114,29.8718 11.3437,55.143 z"
             id="path620"
             style="stroke:none;stroke-width:0.77899998" />
          <path
             inkscape:connector-curvature="0"
             d="M 81.5908,52.4333 113.7549,58.586 95.8201,70.7977 81.5907,52.4333 Z"
             id="path625"
             style="fill:#fd9e46;stroke:none" />
        </g>
        <g
           id="g17276"
           style="fill:#ffffff;stroke:none">
          <g
             id="g17278"
             style="stroke:none;stroke-width:1.25">
            <ellipse
               style="stroke:none"
               transform="matrix(0.769144,0.14713,-0.0729114,0.432979,-45.28405,-187.4172)"
               id="path627"
               ry="15"
               rx="10"
               cy="464.86218"
               cx="242.5" />
            <ellipse
               style="stroke:none"
               transform="matrix(0.769144,0.14713,-0.0729114,0.432979,-62.06543,-190.6275)"
               id="path630"
               ry="15"
               rx="10"
               cy="464.86218"
               cx="242.5" />
          </g>
          <path
             inkscape:connector-curvature="0"
             d="m 114.1418,129.3689 c -5.1077,12.4226 -7.849,34.72 -33.8329,28.856 -26.1081,-5.8922 -23.8353,-28.3573 -24.6991,-42.0656 -0.82745,-13.1307 9.36379,-32.7091 19.6256,-38.4515 7.91924,-4.43161 29.1938,0.32964 34.9176,7.92963 7.245,9.62035 8.8292,31.9584 3.9888,43.7314 z"
             id="path632"
             style="font-size:12px;stroke:none;stroke-width:0.59399998" />
        </g>
        <g
           id="g17283"
           style="stroke:none;stroke-width:1.25">
          <ellipse
             style="stroke:none"
             transform="matrix(0.567131,0.108487,-0.07430256,0.441233,41.74643,-175.1887)"
             id="path652"
             ry="5.625"
             rx="5"
             cy="466.73718"
             cx="176.25" />
          <ellipse
             style="stroke:none"
             transform="matrix(0.567131,0.108487,-0.07430256,0.441233,24.936,-178.4043)"
             id="path656"
             ry="5.625"
             rx="5"
             cy="466.73718"
             cx="176.25" />
        </g>
      </g>
    </g>
    <g
       transform="matrix(0.35610939,-0.040148,0.0396377,0.56769097,0.30111691,18.254207)"
       id="g1162">
      <g
         id="g17288"
         style="font-size:12px;fill-rule:evenodd">
        <rect
           transform="matrix(0.994704,0.102779,0.00108982,0.999999,0,0)"
           id="rect963"
           height="41.6992"
           y="20.62958"
           x="10.442021"
           width="207.31488" />
        <rect
           transform="matrix(1.005174,0.100224,0.00112368,0.994965,-33.27739,-51.71037)"
           id="rect971"
           style="fill:#fffffe"
           height="20.589088"
           y="77.50309"
           x="186.77238"
           width="19.853752" />
        <rect
           transform="matrix(1.005174,0.100224,0.00112368,0.994965,-33.27739,-51.71037)"
           id="rect970"
           style="fill:#ffff00"
           height="22.059738"
           y="76.767761"
           x="81.62101"
           width="20.589073" />
      </g>
      <g
         id="g17293"
         style="font-size:72px;font-family:'Outlands Truetype'">
        <path
           inkscape:connector-curvature="0"
           transform="matrix(1.005174,0.100224,0.00112368,0.994965,-33.27739,-51.71037)"
           d="m 82.0625,98.625 20.5625,0"
           id="path935" />
        <path
           inkscape:connector-curvature="0"
           transform="matrix(1.005174,0.100224,0.00112368,0.994965,-33.27739,-51.71037)"
           d="M 77.0625,77 81.75,77"
           id="path936" />
        <path
           inkscape:connector-curvature="0"
           transform="matrix(1.005174,0.100224,0.00112368,0.994965,-33.27739,-51.71037)"
           d="m 87.125,84.5625 10.0625,0 0,6.5 -10.0625,0 0,-6.5 z"
           id="path937" />
        <path
           inkscape:connector-curvature="0"
           transform="matrix(1.005174,0.100224,0.00112368,0.994965,-33.27739,-51.71037)"
           d="m 112.125,70.25 0,34.3489 30.25,0 0,-34.3489 -30.25,0 z"
           id="path938" />
        <g
           id="g17299"
           style="fill:#ff0000">
          <path
             inkscape:connector-curvature="0"
             transform="matrix(1.005174,0.100224,0.00112368,0.994965,-33.27739,-51.71037)"
             d="m 117.125,98.375 9.75,0 0,-6.8125 10.4375,0 0,13.6875 -20.1875,0 0,-6.875 z"
             id="path939" />
          <path
             inkscape:connector-curvature="0"
             transform="matrix(1.005174,0.100224,0.00112368,0.994965,-33.27739,-51.71037)"
             d="m 117.125,77.4375 20.1875,0 0,6.8125 -10.4375,0 0,6.875 -9.75,0 0,-13.6875 z"
             id="path940" />
        </g>
        <path
           inkscape:connector-curvature="0"
           transform="matrix(1.005174,0.100224,0.00112368,0.994965,-33.27739,-51.71037)"
           d="m 147.0625,56.5 14.75,0 0,13.3125 15.4375,0 0,35.625 -30.1875,0 0,-48.9375 z"
           id="path941" />
        <path
           inkscape:connector-curvature="0"
           transform="matrix(1.005174,0.100224,0.00112368,0.994965,-33.27739,-51.71037)"
           d="m 152.0625,62.9375 0,35.3125 19.4375,0 0,-21.25 -14.75,0 0,-14.0625 -4.6875,0 z"
           id="path942"
           style="fill:#ffffff" />
        <path
           inkscape:connector-curvature="0"
           transform="matrix(1.005174,0.100224,0.00112368,0.994965,-33.27739,-51.71037)"
           d="m 187.0625,98.625 20.5,0"
           id="path944" />
        <path
           inkscape:connector-curvature="0"
           transform="matrix(1.005174,0.100224,0.00112368,0.994965,-33.27739,-51.71037)"
           d="m 182,77 4.6875,0"
           id="path945" />
        <path
           inkscape:connector-curvature="0"
           transform="matrix(1.005174,0.100224,0.00112368,0.994965,-33.27739,-51.71037)"
           d="m 192.125,84.5625 10.0625,0 0,6.5 -10.0625,0 0,-6.5 z"
           id="path946" />
        <path
           inkscape:connector-curvature="0"
           transform="matrix(1.005174,0.100224,0.00112368,0.994965,-33.27739,-51.71037)"
           d="m 217.9229,70.1875 15.4375,0 0,6.4375 5.0625,0 0,-6.4375 9.6875,0 0,35.25 -14.75,0 0,-6.5 -5,0 0,6.5 -10.4375,0 0,-35.25 z"
           id="path947" />
        <path
           inkscape:connector-curvature="0"
           transform="matrix(1.005174,0.100224,0.00112368,0.994965,-33.27739,-51.71037)"
           d="m 222.9375,91.375 0,6.875 4.6875,0 0,-6.875"
           id="path948"
           style="fill:#ffffff" />
        <path
           inkscape:connector-curvature="0"
           transform="matrix(1.005174,0.100224,0.00112368,0.994965,-33.27739,-51.71037)"
           d="m 157.125,84.5625 9.375,0 0,6.5 -9.375,0 0,-6.5 z"
           id="path943" />
        <g
           id="g17311"
           style="fill:#ffffff">
          <path
             inkscape:connector-curvature="0"
             transform="matrix(1.005174,0.100224,0.00112368,0.994965,-33.27739,-51.71037)"
             d="m 222.9375,77.375 0,6.5 4.3125,0 0,-6.5 -4.3125,0 z"
             id="path949" />
          <path
             inkscape:connector-curvature="0"
             transform="matrix(1.005174,0.100224,0.00112368,0.994965,-33.27739,-51.71037)"
             d="m 237.8125,91.75 0,6.5 4.5625,0 0,-6.5 -4.5625,0 z"
             id="path950" />
        </g>
        <path
           inkscape:connector-curvature="0"
           transform="matrix(1.005174,0.100224,0.00112368,0.994965,-33.27739,-51.71037)"
           d="m 102.625,98.625 0,-21.25 4.6875,0 0,21.25 -4.6875,0 z"
           id="path951" />
        <path
           inkscape:connector-curvature="0"
           transform="matrix(1.005174,0.100224,0.00112368,0.994965,-33.27739,-51.71037)"
           d="m 102.625,98.625 0,6.8125 -20.5625,0 0,-6.8125"
           id="path952" />
        <path
           inkscape:connector-curvature="0"
           transform="matrix(1.005174,0.100224,0.00112368,0.994965,-33.27739,-51.71037)"
           d="m 81.75,77 0,-6.8125 20.5,0 0,6.8125 -20.5,0 z"
           id="path953" />
        <path
           inkscape:connector-curvature="0"
           transform="matrix(1.005174,0.100224,0.00112368,0.994965,-33.27739,-51.71037)"
           d="m 81.75,77 0,21.25 -4.6875,0 0,-21.25"
           id="path954" />
        <path
           inkscape:connector-curvature="0"
           transform="matrix(1.005174,0.100224,0.00112368,0.994965,-33.27739,-51.71037)"
           d="m 207.5625,98.625 0,6.8125 -20.5,0 0,-6.8125"
           id="path956" />
        <path
           inkscape:connector-curvature="0"
           transform="matrix(1.005174,0.100224,0.00112368,0.994965,-33.27739,-51.71037)"
           d="m 186.6875,77 0,-6.8125 20.5625,0 0,6.8125 -20.5625,0 z"
           id="path957" />
        <path
           inkscape:connector-curvature="0"
           transform="matrix(1.005174,0.100224,0.00112368,0.994965,-33.27739,-51.71037)"
           d="m 186.6875,77 0,21.25 -4.6875,0 0,-21.25"
           id="path958" />
        <path
           inkscape:connector-curvature="0"
           transform="matrix(1.005174,0.100224,0.00112368,0.994965,-33.27739,-51.71037)"
           d="m 227.625,91.375 10.0625,0 0,-7.1875"
           id="path959"
           style="fill:#ffffff" />
        <path
           inkscape:connector-curvature="0"
           transform="matrix(1.005174,0.100224,0.00112368,0.994965,-33.27739,-51.71037)"
           d="m 227.625,91.375 -4.6875,0"
           id="path960" />
        <g
           id="g17324"
           style="fill:#ffffff">
          <path
             inkscape:connector-curvature="0"
             transform="matrix(1.005174,0.100224,0.00112368,0.994965,-33.27739,-51.71037)"
             d="m 237.6875,84.1875 4.6875,0 0,-6.8125 -4.6875,0 0,6.8125 z"
             id="path961" />
          <path
             inkscape:connector-curvature="0"
             transform="matrix(1.005174,0.100224,0.00112368,0.994965,-33.27739,-51.71037)"
             d="m 237.6875,84.1875 -10.0625,0 0,7.1875"
             id="path962" />
        </g>
      </g>
      <rect
         transform="matrix(1.005174,0.100224,0.00112368,0.994965,-33.27739,-51.71037)"
         id="rect969"
         style="font-size:12px;fill:#ff00ff;fill-rule:evenodd"
         height="35.295563"
         y="64.267258"
         x="48.53141"
         width="19.85376" />
      <g
         id="g17329"
         style="font-size:72px;font-family:'Outlands Truetype'">
        <path
           inkscape:connector-curvature="0"
           transform="matrix(1.005174,0.100224,0.00112368,0.994965,-33.27739,-51.71037)"
           d="m 53.4228,70.9228 9.375,0 0,20.875 -9.375,0 0,-20.875 z"
           id="path967" />
        <path
           inkscape:connector-curvature="0"
           transform="matrix(1.005174,0.100224,0.00112368,0.994965,-33.27739,-51.71037)"
           d="m 43.3603,57.9706 24.5,0 0,6.125 -19.4375,0 0,35.625 19.8125,0 0,-35.3125 4.625,0 0,35.6874 -4.625,0 0,6.8125 -24.875,0 0,-48.9374 z"
           id="path968" />
      </g>
    </g>
    <g
       transform="matrix(0.95379551,0,0,1.2180025,2.9464358,-34.605405)"
       id="g17333"
       style="font-size:12px;fill-rule:evenodd;stroke:#000000">
      <path
         inkscape:connector-curvature="0"
         d="m 11.0949,38.477 0.5292,4.4289 16.2839,0.7805 -0.6879,-5.5587 -16.1253,0.3494 z"
         id="path678"
         style="fill:#fdfad7;stroke-width:0.71499997" />
      <path
         inkscape:connector-curvature="0"
         d="m 15.5908,36.2169 0.0767,4.3521 c 2.2615,0.55448 5.3296,0.739262 7.85832,-0.146373 l -0.0767,-4.3521 -7.8583,0.1464 z"
         id="path680"
         style="fill:#b4a70a;stroke-width:0.71799999" />
      <g
         id="g17337"
         style="stroke-width:0.70099998">
        <rect
           transform="matrix(0.99969125,-0.02484773,0.02484773,0.99969125,0,0)"
           id="rect657"
           style="fill:#fdfad7"
           height="21.043873"
           y="15.763398"
           x="3.5284913"
           width="28.058498" />
        <rect
           transform="matrix(0.99915331,-0.04114192,0.04114192,0.99915331,0,0)"
           id="rect660"
           height="12.486033"
           y="20.409105"
           x="7.1712728"
           width="19.50066" />
      </g>
    </g>
    <path
       inkscape:connector-curvature="0"
       d="m 18.332016,-2.3055621 0.863853,0.2225291 c -0.07756,0.612313 -0.253427,1.0840771 -0.52758,1.41530671 -0.27243,0.32847583 -0.637569,0.52440367 -1.095415,0.58779217 -0.566492,0.07841565 -1.053029,-0.10361564 -1.459603,-0.54613158 -0.406791,-0.4449912 -0.646575,-1.0960854 -0.719347,-1.9532741 -0.07698,-0.9067383 0.04663,-1.6357043 0.370804,-2.1869113 0.323968,-0.553676 0.784718,-0.8718767 1.38225,-0.9546095 0.521867,-0.072252 0.962485,0.066028 1.321856,0.414809 0.21377,0.2060252 0.387667,0.5203331 0.521688,0.9429288 l -0.830564,0.3781898 c -0.07442,-0.2754378 -0.199082,-0.4837674 -0.373983,-0.6249911 -0.172966,-0.1414808 -0.373911,-0.1963798 -0.602832,-0.164691 -0.316226,0.043787 -0.560976,0.2243024 -0.73425,0.5415543 -0.171336,0.3169912 -0.229452,0.8000267 -0.174346,1.4491063 0.05847,0.6887269 0.197115,1.1658258 0.415939,1.4313113 0.218819,0.2654795 0.483433,0.37672942 0.793839,0.333757 0.228921,-0.031692 0.417947,-0.1518557 0.567079,-0.3604958 0.149126,-0.2086364 0.24265,-0.5173564 0.28057,-0.9261606 m 1.640625,-1.1370054 -0.08861,-1.0441934 0.817689,-0.113152 0.08861,1.0441936 -0.817688,0.113152 m 0.246365,2.90225638 -0.08861,-1.04419348 0.817689,-0.1131519 0.08861,1.04419358 -0.817688,0.11315192 m 0.914784,-5.7325288 0.602418,-0.083434 1.546293,5.48588334 -0.614053,0.0850161 L 21.13375,-6.272821"
       id="text662"
       style="font-weight:bold;font-size:28px;line-height:100%;font-family:Arial;fill:#ffffff;stroke:none;stroke-width:2.75" />
  </g>
</svg>
