<?xml version="1.0" encoding="UTF-8" standalone="no"?>
<svg
   xmlns:dc="http://purl.org/dc/elements/1.1/"
   xmlns:cc="http://creativecommons.org/ns#"
   xmlns:rdf="http://www.w3.org/1999/02/22-rdf-syntax-ns#"
   xmlns:svg="http://www.w3.org/2000/svg"
   xmlns="http://www.w3.org/2000/svg"
   xmlns:sodipodi="http://sodipodi.sourceforge.net/DTD/sodipodi-0.dtd"
   xmlns:inkscape="http://www.inkscape.org/namespaces/inkscape"
   width="96"
   version="1.1"
   height="96"
   id="svg2"
   inkscape:version="0.91 r13725"
   sodipodi:docname="dragonplayer.svg">
  <metadata
     id="metadata37">
    <rdf:RDF>
      <cc:Work
         rdf:about="">
        <dc:format>image/svg+xml</dc:format>
        <dc:type
           rdf:resource="http://purl.org/dc/dcmitype/StillImage" />
        <dc:title></dc:title>
      </cc:Work>
    </rdf:RDF>
  </metadata>
  <defs
     id="defs35" />
  <sodipodi:namedview
     pagecolor="#ffffff"
     bordercolor="#666666"
     borderopacity="1"
     objecttolerance="10"
     gridtolerance="10"
     guidetolerance="10"
     inkscape:pageopacity="0"
     inkscape:pageshadow="2"
     inkscape:window-width="640"
     inkscape:window-height="480"
     id="namedview33"
     showgrid="false"
     inkscape:zoom="6.3333333"
     inkscape:cx="32.284495"
     inkscape:cy="42.940989"
     inkscape:current-layer="svg2" />
  <g
     id="g13750"
     transform="matrix(1.7499974,0,0,1.75,6.0001236,6)">
    <g
       id="g4"
       style="stroke:none">
      <path
         d="M 46.7744,4e-5 48,8.07744 l -34.271,5.3543 0,-3.59294 -2.719,-0.0283 -5.6364,0.0283 -3.58344,0 -0.3565,-2.7936 z"
         id="path3799"
         style="fill:#ffffff"
         inkscape:connector-curvature="0" />
      <path
         d="M 46.7744,4e-5 48,8.07744 l -34.271,5.3543 0,-3.59294 -2.71952,0 -2.5685,-2.8343 -4.4297,0.6804 1.3623,2.1539 -3.61502,0 L 1.43356,7.0453 46.77436,0 Z m -5.1996,2.0933 -4.4297,0.6804 4.4079,5.008 4.4297,-0.6804 z m -10.589,1.7773 -4.4297,0.6804 4.4079,5.008 4.4297,-0.6804 z m -10.9681,1.6952 -4.4332,0.7166 4.4079,5.008 4.4332,-0.7167 -4.4079,-5.008 z"
         id="rect1316"
         style="fill:#0b3b2c"
         inkscape:connector-curvature="0" />
      <g
         id="g8"
         style="fill-rule:evenodd">
        <path
           d="M 0,10.83823 0,48 l 48,0 0,-32.512 -35.180136,0 0,-4.64983 z"
           id="path4161"
           style="fill:#26637a"
           inkscape:connector-curvature="0" />
        <g
           id="g11"
           style="fill:#7cff55">
          <path
             d="M 15.1282,35.2407 C 9.26667,33.32477 11.44419,28.44408 14.07305,26.10236 l 0.0742,-0.2227 C 11.8636,19.74056 6.65222,14.95556 2.53885,13.69886 l -0.127,0.1617 0.138,0.2141 c 3.86301,1.95952 7.17893,5.1055 8.29518,8.31873 C 7.09017,19.58301 3.72566,20.18854 -7e-5,22.732736 l 2e-4,0.166 c 4.48266,-2.04194 8.70648,-1.60279 10.6598,1.36909 l 0.0879,0.3159 c -3.51725,0.10467 -6.68234,1.91558 -8.37975,5.81719 l 0.146,-0.0267 c 2.15779,-2.11445 5.77891,-5.19152 8.05628,-4.20416 -2.31835,6.27216 -1.09781,9.42315 3.99923,11.3071 l 0.5814,-2.2424"
             id="path638"
             style="stroke-width:2.5"
             inkscape:connector-curvature="0" />
          <path
             d="m 31.6129,40.7234 c 2.94928,0.70752 6.25455,-3.45004 6.74294,-6.32294 l 0.2659,0.231 c 1.21594,3.81086 -1.76816,8.49204 -1.90378,10.8524 2.84463,-3.4648 4.52289,-6.88 3.00246,-11.3638 2.95997,4.64023 2.7202,8.51576 2.58713,13.6035 l 0.1099,0.2764 0.0765,-0.014 0.1784,-0.6455 c 1.09267,-4.74078 0.543135,-10.451 -1.71902,-13.5053 3.33906,1.66895 5.17191,6.90524 6.94403,9.86071 l 0.1026,0.0207 c -1.53842,-4.32393 -4.83783,-13.7404 -10.2954,-12.5098 l -0.2156,0.1185 -0.2032,0.2942 c -0.619045,3.97958 -4.01111,6.99781 -7.12877,7.45688"
             id="path648"
             style="stroke-width:1.25"
             inkscape:connector-curvature="0" />
        </g>
        <g
           transform="matrix(1.1215318,0.16016844,-0.16016844,1.1215318,2.3139024,-8.0969483)"
           id="g15"
           style="stroke-width:3.75">
          <g
             id="g17"
             style="fill:#fff845">
            <path
               d="m 25.2107,24.6213 0.1387,-0.8962 c -0.02247,-0.72904 0.336652,-2.89558 -0.26372,-3.29359 -0.344828,0.868406 -0.961459,1.65403 -1.39496,2.27891 l -0.3036,0.5861 0.731,0.4228 0.6132,0.4374 z"
               id="path595"
               inkscape:connector-curvature="0" />
            <path
               d="m 18.1353,23.9768 c 0.0758,-0.996229 -1.07177,-3.47656 -0.122834,-4.18985 0.466946,1.1176 1.34355,1.90706 1.865,2.7596 l -0.7047,0.4653 -0.5863,0.4729 z"
               id="path575"
               inkscape:connector-curvature="0" />
          </g>
          <path
             d="m 14.8603,34.4141 c -0.138728,-0.181976 -0.180327,-0.365933 -0.147466,-0.583648 0.318794,-2.11213 1.6243,-4.11959 2.51864,-6.03771 0.244414,-0.524209 0.278679,-1.06958 0.270471,-1.63709 -0.0323,-2.2333 1.32353,-5.10347 3.7887,-4.46056 0.837529,0.218425 1.29302,0.730836 1.77945,1.426 0.409253,-0.512959 1.27641,-0.861664 1.82004,-0.780004 2.07953,0.312373 2.99892,2.73829 2.74564,5.13617 l -0.1388,0.7989 c 0.974144,0.219158 1.68927,0.361087 2.65787,0.28729 0.726917,0.464232 0.992978,1.13148 0.965519,1.94021 -0.04323,1.27326 0.07556,1.68959 0.268007,2.80055 0.252855,1.45969 0.449236,3.25045 -0.849556,3.21558 -2.60388,-0.06991 -9.27913,0.367006 -12.5623,-1.9836 -0.639102,-0.457562 -0.535253,-1.04617 -0.324226,-1.77256 -0.506342,-0.400356 -1.46899,1.28614 -2.38517,1.66306"
             id="path581"
             style="fill:#76e254"
             inkscape:connector-curvature="0" />
        </g>
        <path
           d="m 21.9785,20.1719 c -1.18992,-0.124905 -2.70282,1.06861 -2.96094,2.88086 -0.173793,1.22022 0.175544,2.33803 1.22266,3.11914 0.197473,-0.02757 0.310402,-0.191114 0.464844,-0.3125 0.596757,-0.175592 0.865054,-0.119085 1.39648,0.285156 l 1.6387,0.4238 4.4766,1.3457 0.2617,-0.7324 c 0.449757,-1.93671 0.341686,-4.1443 -1.5918,-5.44922 -0.687535,-0.464019 -2.17116,-0.01067 -2.70703,0.75 -0.252116,-0.916053 -0.780035,-1.72024 -1.7168,-2.17383 -0.152266,-0.07373 -0.314387,-0.118875 -0.484375,-0.136719 z"
           id="path618"
           style="fill:#ffffff;stroke-width:2.5"
           inkscape:connector-curvature="0" />
        <g
           transform="matrix(1.1215318,0.16016844,-0.16016844,1.1215318,2.3139024,-8.0969483)"
           id="g26"
           style="fill:#b75500;stroke-linecap:round;stroke-linejoin:round;stroke-miterlimit:0">
          <path
             d="m 20.7569,24.3775 a 1.41515,1.75807 3 0 0 -1.19881,1.56958 1.41515,1.75807 3 0 0 0.586121,1.62285 c 0.0553,-0.06099 0.104587,-0.131404 0.164248,-0.193822 0.499539,-0.227909 0.740559,-0.211209 1.25538,0.0757 l 0.2418,0.0301 a 1.41515,1.75807 3 0 0 0.565553,-1.21869 1.41515,1.75807 3 0 0 -1.2316,-1.9071 1.41515,1.75807 3 0 0 -0.382689,0.02139 z"
             id="path4245"
             inkscape:connector-curvature="0" />
          <path
             d="m 24.8839,25.108 a 1.28549,1.75015 2 0 0 -1.16186,1.47021 1.28549,1.75015 2 0 0 0.132465,1.15623 l 2.0328,0.3105 a 1.28549,1.75015 2 0 0 0.362887,-0.934212 1.28549,1.75015 2 0 0 -1.01914,-1.99445 1.28549,1.75015 2 0 0 -0.347136,-0.0082 z"
             id="ellipse4259"
             inkscape:connector-curvature="0" />
        </g>
        <g
           transform="matrix(1.1215318,0.16016844,-0.16016844,1.1215318,2.3139024,-8.0969483)"
           id="g30"
           style="stroke-width:2.5">
          <path
             d="m 22.9538,35.6739 -2.3247,-0.2465 -0.8097,-0.1979 -0.6439,-0.1265 -0.6897,-0.2097 -0.102,1.7793 c -0.06008,1.31978 0.09163,2.10559 0.524767,2.59075 2.13921,2.39619 5.64917,2.70178 8.32009,0.808675 l 0.3783,-0.4356 0.1027,-0.2732 c -0.182769,-1.06131 -0.137898,-2.03359 -0.333694,-3.10402 l -1.8708,-0.2684 -2.5235,-0.3168"
             id="path655"
             style="fill:#74e14b"
             inkscape:connector-curvature="0" />
          <path
             d="m 18.6593,35.0224 0.4291,0.099 0.5722,0.0872 0.7722,0.1251 0.6025,0.0733 1.3114,0.1553 1.4122,0.1691 1.4896,0.1992 1.4435,0.1904 0.4642,0.0568 0.1021,0.9183 0.0789,0.8845 -0.0025,1.0958 c -2.18727,2.25909 -6.22383,1.91879 -8.07979,-0.365612 -0.57228,-0.704378 -0.534941,-1.77881 -0.526404,-2.67502 z"
             id="path656"
             style="fill:#ff937a"
             inkscape:connector-curvature="0" />
          <path
             d="m 20.0874,35.3224 6.26,0.7044 c 0.165167,1.3651 -0.442994,2.17649 -1.10448,3.3252 l -0.2309,0.1934 -0.1994,0.0509 -0.1539,-0.015 c -0.611049,-0.647032 -1.16276,-1.33087 -1.88685,-1.85692 -0.510407,0.278438 -0.330271,0.751651 -0.241185,1.23869 l -0.1802,0.2345 -0.2552,-0.0181 c -1.19849,-0.909886 -2.31059,-2.30884 -2.008,-3.85691 z"
             id="path661"
             style="fill:#d70000"
             inkscape:connector-curvature="0" />
          <g
             id="g35"
             style="fill:#ffffff">
            <path
               d="m 20.6025,35.2853 0.4169,0.0815 c 0.622256,0.117775 1.25344,0.173057 1.87751,0.277377 -0.697652,1.40122 -1.48494,2.43388 -2.64717,3.47116 0.444657,-1.25249 0.461597,-2.52473 0.352754,-3.83003 z"
               id="path666"
               inkscape:connector-curvature="0" />
            <path
               d="m 28.7873,36.371 c -0.645832,-0.03806 -1.28764,-0.120571 -1.92705,-0.216398 l -0.3813,-0.038 0.0731,0.3345 c 0.300317,1.38979 0.802275,2.52534 1.57287,3.70863 -0.101217,-1.32523 0.215525,-2.55752 0.662326,-3.78878 z"
               id="path668"
               inkscape:connector-curvature="0" />
          </g>
        </g>
        <g
           transform="matrix(1.1215318,0.16016844,-0.16016844,1.1215318,2.3139024,-8.0969483)"
           id="g39"
           style="stroke-linecap:round;stroke-linejoin:round;stroke-miterlimit:0">
          <ellipse
             transform="matrix(0.97927067,0.20255605,-0.14340674,0.98966384,0,0)"
             id="ellipse4266"
             ry="0.97661555"
             rx="0.72852373"
             cy="21.478565"
             cx="24.59374" />
          <path
             d="m 24.9997,25.9716 a 0.725589,0.978797 3 0 0 -0.657543,0.82321 0.725589,0.978797 3 0 0 0.489466,1.08891 l 0.2259,0.0345 a 0.725589,0.978797 3 0 0 0.711508,-0.828254 0.725589,0.978797 3 0 0 -0.573433,-1.11408 0.725589,0.978797 3 0 0 -0.195874,-0.0042 z"
             id="ellipse4270"
             inkscape:connector-curvature="0" />
          <path
             d="m 22.4636,29.6118 c -0.05505,0.396419 -0.887474,1.08565 -1.22342,1.0694 -0.335953,-0.01626 -1.45427,-1.18212 -1.41556,-1.64101 0.03867,-0.458891 0.926486,-1.06219 1.22343,-1.0694 0.296938,-0.0072 1.47061,1.2446 1.41556,1.64101 z"
             id="rect4175"
             style="opacity:0.5"
             inkscape:connector-curvature="0" />
          <path
             d="m 30.5502,31.3369 c -0.194051,0.350032 -1.21877,0.693437 -1.52635,0.557342 -0.307582,-0.136096 -0.931288,-1.62636 -0.729993,-2.04055 0.201256,-0.414213 1.24672,-0.657499 1.52635,-0.557342 0.279627,0.100166 0.924048,1.69052 0.729991,2.04055 z"
             id="path4259"
             style="opacity:0.5"
             inkscape:connector-curvature="0" />
        </g>
      </g>
    </g>
  </g>
</svg>
