<?xml version="1.0" encoding="UTF-8" standalone="no"?>
<svg
   xmlns:dc="http://purl.org/dc/elements/1.1/"
   xmlns:cc="http://creativecommons.org/ns#"
   xmlns:rdf="http://www.w3.org/1999/02/22-rdf-syntax-ns#"
   xmlns:svg="http://www.w3.org/2000/svg"
   xmlns="http://www.w3.org/2000/svg"
   xmlns:sodipodi="http://sodipodi.sourceforge.net/DTD/sodipodi-0.dtd"
   xmlns:inkscape="http://www.inkscape.org/namespaces/inkscape"
   width="96"
   version="1.1"
   height="96"
   id="svg2"
   inkscape:version="0.91 r13725"
   sodipodi:docname="evernote.svg">
  <metadata
     id="metadata30">
    <rdf:RDF>
      <cc:Work
         rdf:about="">
        <dc:format>image/svg+xml</dc:format>
        <dc:type
           rdf:resource="http://purl.org/dc/dcmitype/StillImage" />
        <dc:title></dc:title>
      </cc:Work>
    </rdf:RDF>
  </metadata>
  <defs
     id="defs28" />
  <sodipodi:namedview
     pagecolor="#ffffff"
     bordercolor="#666666"
     borderopacity="1"
     objecttolerance="10"
     gridtolerance="10"
     guidetolerance="10"
     inkscape:pageopacity="0"
     inkscape:pageshadow="2"
     inkscape:window-width="640"
     inkscape:window-height="480"
     id="namedview26"
     showgrid="false"
     inkscape:zoom="3.3125"
     inkscape:cx="25.926009"
     inkscape:cy="53.840549"
     inkscape:current-layer="svg2" />
  <path
     style="fill:#8ae234"
     id="path3001"
     d="M 6,6.113613 6,90 89.840615,90 90,6 62.715723,6.113613 Z"
     inkscape:connector-curvature="0" />
  <path
     inkscape:connector-curvature="0"
     d="m 20.691296,25.332628 c 0,0 0,0 0.0025,0 l 7.656023,0 c 0.438713,0 0.791502,-0.32411 0.792347,-0.719027 0,-0.0015 -0.09311,-5.954764 -0.09311,-7.610035 l 0,-0.02161 c 0,-1.359411 0.314435,-2.544685 0.862345,-3.537896 l 0.261895,-0.446065 c -0.02857,0.0071 -0.05848,0.01928 -0.08785,0.04397 L 15.209742,26.423339 c -0.02857,0.02161 -0.04735,0.04949 -0.05555,0.0793 0.307951,-0.137909 0.728436,-0.327069 0.787905,-0.350757 1.295475,-0.530203 2.866278,-0.820776 4.746675,-0.820776 z M 80.264823,23.87562 c -0.60812,-2.953128 -2.54365,-4.408477 -4.2936,-4.980681 -1.88801,-0.61903 -5.71637,-1.260231 -10.52651,-1.774531 -3.869809,-0.413392 -8.418242,-0.380476 -11.165691,-0.303403 -0.329879,-2.048764 -1.913884,-3.920437 -3.686483,-4.568419 -4.722817,-1.724393 -12.019648,-1.307805 -13.89322,-0.831539 -1.488667,0.377449 -3.136482,1.150916 -4.053637,2.342918 -0.615028,0.796173 -1.012947,1.81622 -1.016043,3.241224 0,0.806505 0.02385,2.706407 0.04735,4.394422 0.02385,1.693279 0.04735,3.207707 0.04735,3.218042 -8.2e-4,1.507555 -1.347774,2.734491 -3.016987,2.736411 l -7.657295,0 c -1.633368,0 -2.881331,0.249016 -3.834677,0.641832 -0.954772,0.393231 -1.630963,0.923342 -2.144777,1.550513 -1.02268,1.245434 -1.200265,2.782303 -1.196031,4.350697 0,0 0.0159,1.281642 0.355485,3.762299 0.283162,1.919409 2.57772,15.327993 4.757233,19.405967 0.845096,1.586657 1.407954,2.247514 3.068203,2.946835 3.699126,1.436634 12.148425,3.03489 16.108572,3.492536 3.952979,0.458799 6.433879,1.423252 7.912497,-1.388896 0.008,-0.0072 0.296148,-0.699684 0.696717,-1.715741 1.283699,-3.528455 1.462238,-6.659252 1.462238,-8.92483 0,-0.230179 0.37255,-0.240837 0.37255,0 0,1.599481 -0.336785,7.259662 4.376719,8.778176 1.860717,0.598584 5.720867,1.132273 9.643002,1.549219 3.546437,0.369639 6.120055,1.635592 6.120055,9.889021 0,5.021377 -1.16272,5.709913 -7.240881,5.709913 -4.92709,0 -6.805002,0.115823 -6.805002,-3.435111 0,-2.869831 3.128944,-2.569052 5.447946,-2.569052 1.035751,0 0.283982,-0.698866 0.283982,-2.469411 0,-1.761249 1.214342,-2.779374 0.06561,-2.805154 -8.018919,-0.200143 -12.73724,-0.0072 -12.73724,9.08888 0,8.258663 3.484139,9.792243 14.865165,9.792243 8.92332,0 12.06885,-0.26491 15.75335,-10.635505 0.72938,-2.047157 2.49254,-8.294846 3.55961,-18.784731 0.67486,-6.632635 -0.6358,-26.651506 -1.67551,-31.704122 z M 64.709745,46.002796 c -1.102417,-0.03339 -2.162793,0.02954 -3.151586,0.172517 0.278297,-2.038703 1.205875,-4.540239 4.492029,-4.435531 3.637675,0.113164 4.147415,3.232285 4.160375,5.344841 -1.53382,-0.620424 -3.43268,-1.015724 -5.500818,-1.08165 z"
     id="path4194"
     style="fill:#000000;fill-opacity:0.54901961" />
</svg>
