<?xml version="1.0" encoding="UTF-8" standalone="no"?>
<!-- Created with Inkscape (http://www.inkscape.org/) -->

<svg
   xmlns:dc="http://purl.org/dc/elements/1.1/"
   xmlns:cc="http://creativecommons.org/ns#"
   xmlns:rdf="http://www.w3.org/1999/02/22-rdf-syntax-ns#"
   xmlns:svg="http://www.w3.org/2000/svg"
   xmlns="http://www.w3.org/2000/svg"
   xmlns:sodipodi="http://sodipodi.sourceforge.net/DTD/sodipodi-0.dtd"
   xmlns:inkscape="http://www.inkscape.org/namespaces/inkscape"
   width="96"
   height="96"
   viewBox="0 0 96.000001 96.000002"
   id="svg2"
   version="1.1"
   inkscape:version="0.91 r13725"
   sodipodi:docname="far2l.svg">
  <defs
     id="defs4" />
  <sodipodi:namedview
     id="base"
     pagecolor="#ffffff"
     bordercolor="#666666"
     borderopacity="1.0"
     inkscape:pageopacity="0.0"
     inkscape:pageshadow="2"
     inkscape:zoom="2.8"
     inkscape:cx="98.249778"
     inkscape:cy="15.057628"
     inkscape:document-units="px"
     inkscape:current-layer="layer1"
     showgrid="false"
     units="px" />
  <metadata
     id="metadata7">
    <rdf:RDF>
      <cc:Work
         rdf:about="">
        <dc:format>image/svg+xml</dc:format>
        <dc:type
           rdf:resource="http://purl.org/dc/dcmitype/StillImage" />
        <dc:title></dc:title>
      </cc:Work>
    </rdf:RDF>
  </metadata>
  <g
     inkscape:label="Layer 1"
     inkscape:groupmode="layer"
     id="layer1"
     transform="translate(0,-956.36216)">
    <g
       id="g4232"
       transform="translate(10e-7,6.8e-4)">
      <path
         style="fill:#4cdce4"
         d="m 6.0023161,1043.5515 0,-2.8099 2.6593723,0 2.6593726,0 0,-1.3309 0,-1.331 -1.3296865,0 -1.3296861,0 0,-1.2684 0,-1.2685 -1.2558131,0.011 -1.2558163,0.011 -0.07503,-36.6017 -0.07503,-36.60174 41.960144,0 41.960143,0 0,41.99954 0,41.9996 -41.958985,0 -41.9589854,0 0,-2.8098 z"
         id="path4179"
         inkscape:connector-curvature="0" />
      <path
         style="fill:#ddff55"
         d="m 6.0023161,1043.5515 0,-2.8099 2.6593723,0 2.6593726,0 0,-1.3309 0,-1.331 -1.3296865,0 -1.3296861,0 0,-1.4789 0,-1.4788 40.6292986,0 40.629299,0 0,5.6196 0,5.6197 -41.958985,0 -41.9589849,0 0,-2.8098 z m 0,-44.95732 0,-36.23202 41.9988399,0 41.998843,0 -0.189631,7.61612 c -0.104297,4.18887 -0.245138,8.14851 -0.312978,8.79921 -0.06784,0.65069 -0.133415,1.86938 -0.145713,2.70819 -0.01989,1.35655 -0.08547,1.50859 -0.593315,1.37566 -0.462787,-0.12114 -0.539918,-0.0307 -0.407135,0.47758 0.129062,0.49402 0.250182,0.55528 0.570949,0.28882 0.679027,-0.56409 0.457944,-0.13353 -0.459716,0.89531 l -0.866855,0.97188 -0.02739,-6.44747 c -0.01507,-3.54612 -0.09038,-6.51052 -0.167348,-6.58757 -0.07697,-0.077 -0.139951,10.86262 -0.139951,24.31037 l 0,24.45044 -5.614231,0 -5.61423,0 -0.07088,-25.80606 c -0.03898,-14.19334 -0.106783,-19.58378 -0.150665,-11.97875 -0.05648,9.78837 -0.174479,13.82732 -0.403965,13.82732 -0.178296,0 -0.249274,-0.19538 -0.157724,-0.43418 0.09155,-0.23881 0.01873,-0.52556 -0.161785,-0.63725 -0.199473,-0.1234 -0.245023,-0.0683 -0.116111,0.14051 0.120006,0.19435 0.0021,0.42428 -0.271811,0.52944 -0.34144,0.13115 -0.431392,0.39545 -0.305479,0.89761 0.115003,0.45865 0.0079,0.88238 -0.301024,1.19167 -0.442318,0.44275 -0.474813,0.42459 -0.419256,-0.23421 0.03312,-0.39279 0.03017,-0.84726 -0.0066,-1.00993 -0.03673,-0.16268 -0.09768,-0.42887 -0.135444,-0.59155 -0.03776,-0.16267 -0.0889,-7.51629 -0.113659,-16.34138 l -0.04501,-16.04561 -11.376205,0 -11.376203,0 0.0717,19.44699 0.07169,19.44698 0.07819,-19.2991 0.07819,-19.29909 11.078577,0 11.078579,0 0,28.10186 0,28.10183 -11.154592,-0.077 -11.154587,-0.077 -0.155976,-1.4788 -0.155975,-1.4789 -0.149426,1.2791 c -0.08219,0.7036 -0.06111,1.3338 0.04682,1.4006 0.260085,0.1609 0.519507,1.5532 0.325567,1.7474 -0.08366,0.084 -0.330569,0 -0.548667,-0.1772 -0.270807,-0.225 -0.396544,-0.2297 -0.396544,-0.015 0,0.173 0.132971,0.3968 0.295486,0.4974 0.371124,0.2295 0.39129,1.6267 0.02348,1.6267 -0.149603,0 -0.363513,-0.417 -0.475347,-0.9267 -0.134363,-0.6123 -0.281479,-0.8001 -0.433672,-0.5536 -0.126682,0.2051 -0.391431,0.2733 -0.58833,0.1515 -0.274233,-0.1696 -0.281965,-0.079 -0.03304,0.3863 0.401747,0.7515 0.40772,0.9425 0.02947,0.9425 -0.162516,0 -0.295486,-0.1997 -0.295486,-0.4437 0,-0.3906 -2.323817,-0.435 -19.42819,-0.3719 l -19.4281936,0.072 19.2804506,0.078 19.280447,0.078 0,4.2866 0,4.2865 -19.723676,0.07 -19.723679,0.07 16.842691,0.1515 c 9.263482,0.083 15.911912,0.2185 14.77429,0.3002 -2.036229,0.1464 -2.052316,0.154 -1.0342,0.491 0.789128,0.2611 0.876652,0.3486 0.369359,0.3689 -1.16527,0.047 -0.713576,0.5798 0.590971,0.6974 0.690696,0.062 -6.689061,0.1365 -16.399462,0.1649 l -17.6552784,0.052 0,-36.23202 z m 31.9124669,35.64052 c 0,-0.1627 -0.273785,-0.2958 -0.608411,-0.2958 -0.334625,0 -0.526232,0.1331 -0.425789,0.2958 0.100443,0.1626 0.374225,0.2957 0.608411,0.2957 0.234185,0 0.425789,-0.1331 0.425789,-0.2957 z m -9.455546,-6.0634 0,-1.3309 -8.495215,0.069 -8.495218,0.069 8.347475,0.083 8.347473,0.083 0,1.0259 0,1.026 -8.347473,0.083 -8.347475,0.083 8.495218,0.069 8.495215,0.069 0,-1.331 z m 5.614231,0 0,-1.3309 -1.477429,0 -1.477429,0 0,1.3309 0,1.331 1.477429,0 1.477429,0 0,-1.331 z m -2.659373,0 c 0,-1.0105 0.02815,-1.0352 1.181944,-1.0352 1.1538,0 1.181943,0.025 1.181943,1.0352 0,1.0106 -0.02811,1.0352 -1.181943,1.0352 -1.153801,0 -1.181944,-0.025 -1.181944,-1.0352 z m 13.638595,0 0.105754,-1.3309 -4.212802,0 -4.212802,0 0,1.3309 0,1.331 4.107048,0 4.107048,0 0.105754,-1.331 z m -8.024364,0 0,-1.0352 3.848902,0 3.848905,0 -0.439034,0.8499 c -0.241466,0.4674 -0.355686,0.9332 -0.253824,1.0352 0.101861,0.1019 0.03007,0.1853 -0.159528,0.1853 -0.189603,0 -0.344734,-0.1996 -0.344734,-0.4436 0,-0.2594 -0.268931,-0.4437 -0.647446,-0.4437 -0.63273,0 -0.63441,0.01 -0.07387,0.4343 0.515983,0.3906 0.254628,0.4352 -2.602894,0.4436 l -3.176474,0.01 0,-1.0352 z m -2.954631,-6.8766 c 2.08e-4,-0.202 -8.485924,-0.1973 -18.615833,0.01 -2.193983,0.045 1.096991,0.1109 7.313275,0.1466 6.216281,0.036 11.302435,-0.035 11.302558,-0.157 z m 14.098824,-0.2958 c 0.127605,-0.2847 0.162197,-4.0447 0.07687,-8.3556 l -0.155147,-7.8379 -0.06647,8.2013 -0.06647,8.2012 -5.688101,0.087 -5.688103,0.087 5.677705,0.067 c 5.160308,0.061 5.698848,0.02 5.909717,-0.4504 z m 2.152668,0.3872 c 0,-0.072 -0.132967,-0.2127 -0.295486,-0.3133 -0.162515,-0.1005 -0.295486,-0.042 -0.295486,0.1305 0,0.1722 0.132971,0.3132 0.295486,0.3132 0.162519,0 0.295486,-0.059 0.295486,-0.1304 z m -35.975395,-20.178 c -0.20315,-0.082 -0.535569,-0.082 -0.738715,0 -0.203149,0.082 -0.03694,0.1492 0.369356,0.1492 0.406292,0 0.572505,-0.067 0.369359,-0.1492 z m 1.323527,0.017 c -0.09819,-0.098 -0.353042,-0.1088 -0.566346,-0.023 -0.235721,0.094 -0.165702,0.1645 0.178524,0.1787 0.311491,0.013 0.486012,-0.057 0.387822,-0.1554 z m 11.825591,-0.042 c -2.072095,-0.051 -5.462797,-0.051 -7.534888,0 -2.072095,0.051 -0.376747,0.092 3.767442,0.092 4.14419,0 5.839538,-0.042 3.767446,-0.092 z m 17.803018,-1.1099 0,-1.33102 -3.028728,0.0619 -3.028731,0.0619 2.880988,0.0967 2.880986,0.0967 0,1.01342 0,1.0134 -2.733243,0.098 -2.733245,0.098 2.880988,0.061 2.880985,0.061 0,-1.3309 z m -18.246247,-4.50989 c -2.315871,-0.05 -6.105477,-0.05 -8.421345,0 -2.315871,0.05 -0.421068,0.0909 4.210671,0.0909 4.631739,0 6.526542,-0.0409 4.210674,-0.0909 z m 18.246247,-1.10982 c 0,-0.73203 -0.103238,-1.33097 -0.229423,-1.33097 -0.126181,0 -0.179192,0.52721 -0.117803,1.17159 l 0.111622,1.17159 -2.763184,0.098 -2.763185,0.098 2.880988,0.0614 2.880985,0.0614 0,-1.33097 z m -16.753471,-4.50886 c -1.494843,-0.0536 -4.021245,-0.0538 -5.614231,-6.3e-4 -1.592985,0.0533 -0.369929,0.0971 2.717896,0.0974 3.087828,2.8e-4 4.391178,-0.0433 2.896335,-0.0969 z m 16.753471,-1.1108 c 0,-0.73203 -0.103238,-1.33097 -0.229423,-1.33097 -0.126181,0 -0.179192,0.52721 -0.117803,1.17159 l 0.111622,1.17159 -2.763184,0.098 -2.763185,0.098 2.880988,0.0614 2.880985,0.0614 0,-1.33097 z m 25.116295,0 0,-1.33097 -8.49522,0.0692 -8.495215,0.0692 8.347472,0.0833 8.347477,0.0833 0,1.02599 0,1.02599 -8.347477,0.0833 -8.347472,0.0833 8.495215,0.0692 8.49522,0.0692 0,-1.33097 z m 13.887833,0 0,-1.33097 -2.807115,0 -2.807116,0 0,1.33097 0,1.33097 2.807116,0 2.807115,0 0,-1.33097 z m -5.318745,0 0,-1.0352 2.505294,0 2.505294,0 -0.334014,0.73379 c -0.272766,0.59923 -0.474798,0.69871 -1.101736,0.54248 -0.689694,-0.17186 -0.726505,-0.14123 -0.362186,0.30141 0.370648,0.45033 0.249889,0.49272 -1.403558,0.49272 l -1.809094,0 0,-1.0352 z M 19.81012,984.36634 c -0.09819,-0.0983 -0.353041,-0.10879 -0.566346,-0.0233 -0.23572,0.0944 -0.165702,0.1645 0.178524,0.17869 0.311491,0.0128 0.486012,-0.0571 0.387822,-0.15534 z m 9.018476,-0.0414 c -1.340768,-0.0548 -3.534751,-0.0548 -4.875516,0 -1.340768,0.0548 -0.243776,0.0996 2.437757,0.0996 2.681533,0 3.778524,-0.0448 2.437759,-0.0996 z m 16.421708,-1.18487 -0.05162,-1.40491 -0.112581,1.24615 -0.112577,1.24615 -2.716784,0.0974 -2.716786,0.0974 2.880988,0.0614 2.880985,0.0614 -0.05162,-1.40492 z m 25.167919,0.0739 0,-1.33097 -4.949387,0.0661 -4.949389,0.0661 4.801646,0.0891 4.801644,0.0891 0,1.02327 0,1.02327 -8.347477,0.0833 -8.347472,0.0833 8.495215,0.0692 8.49522,0.0691 0,-1.33097 z m 13.887833,0 0,-1.33097 -2.807115,0 -2.807116,0 0,1.33097 0,1.33097 2.807116,0 2.807115,0 0,-1.33097 z m -5.318745,0 0,-1.0352 2.51163,0 2.511629,0 0,1.0352 0,1.0352 -2.511629,0 -2.51163,0 0,-1.0352 z m -19.582089,-1.2139 c -0.09819,-0.0983 -0.353048,-0.10879 -0.56635,-0.0233 -0.235717,0.0944 -0.165702,0.1645 0.178524,0.17869 0.311488,0.0128 0.486012,-0.0571 0.387826,-0.15535 z m -36.344758,-3.25349 c -0.09819,-0.0983 -0.353041,-0.10879 -0.566346,-0.0233 -0.23572,0.0944 -0.165702,0.1645 0.178524,0.17869 0.311491,0.0128 0.486012,-0.0571 0.387822,-0.15534 z m 6.518423,-0.0395 c -0.928102,-0.0585 -2.523726,-0.059 -3.545829,-9.4e-4 -1.022101,0.0579 -0.262741,0.10579 1.687465,0.10637 1.950206,6.3e-4 2.78647,-0.0468 1.858364,-0.10531 z m 15.671417,-1.18669 -0.05162,-1.40491 -0.114081,1.2769 -0.114078,1.27691 -2.761877,-0.0938 c -1.51903,-0.0516 -2.699823,0.006 -2.623973,0.12801 0.07585,0.12201 1.393258,0.22183 2.927578,0.22183 l 2.789676,0 -0.05162,-1.40492 z m 21.123065,1.18388 c -2.30593,-0.0499 -6.162018,-0.05 -8.569091,-2.6e-4 -2.407067,0.0498 -0.520402,0.0906 4.192598,0.0908 4.713001,1.4e-4 6.682421,-0.0406 4.376493,-0.0905 z m 15.347186,6.3e-4 -2.733244,-0.0976 0,-1.01301 0,-1.013 2.733244,-0.0976 2.733244,-0.0976 -2.880987,-0.0614 -2.880987,-0.0614 0,1.33097 0,1.33098 2.880987,-0.0614 2.880987,-0.0614 -2.733244,-0.0976 z m -11.395969,-1.60972 c -0.09432,-0.23595 -0.164343,-0.16586 -0.17852,0.1787 -0.01283,0.31179 0.057,0.48648 0.155195,0.38819 0.09819,-0.0983 0.108682,-0.35338 0.02331,-0.56689 z m -0.127978,-0.73197 c -0.203146,-0.082 -0.535568,-0.082 -0.738713,0 -0.203147,0.082 -0.03694,0.14918 0.369356,0.14918 0.406293,0 0.572504,-0.0671 0.369357,-0.14918 z M 27.666642,964.80266 c -3.442496,-0.0473 -9.160148,-0.0473 -12.70589,-1.3e-4 -3.545744,0.0472 -0.729155,0.0859 6.259083,0.086 6.988241,7e-5 9.889303,-0.0386 6.446807,-0.0858 z m 17.561416,9.4e-4 c -1.584544,-0.0532 -4.177431,-0.0532 -5.761973,0 -1.584544,0.0532 -0.288101,0.0967 2.880985,0.0967 3.169086,0 4.46553,-0.0435 2.880988,-0.0967 z m 39.299612,0 c -1.584543,-0.0532 -4.17743,-0.0532 -5.761973,0 -1.584543,0.0532 -0.288099,0.0967 2.880986,0.0967 3.169086,0 4.46553,-0.0435 2.880987,-0.0967 z m -33.77779,67.2711 c -0.08125,-0.212 -0.110321,-2.1086 -0.0646,-4.2148 l 0.08314,-3.8294 18.24625,-0.076 18.246248,-0.076 0,4.291 0,4.2909 -18.181651,0 c -14.666343,0 -18.210215,-0.074 -18.329383,-0.3853 z m 16.713484,-3.9034 0,-1.3309 -6.943917,0 -6.943916,0 0,1.3309 0,1.331 6.943916,0 6.943917,0 0,-1.331 z m 5.614231,0 0,-1.3309 -1.329686,0 -1.329686,0 0,1.3309 0,1.331 1.329686,0 1.329686,0 0,-1.331 z m 11.228461,0 0,-1.3309 -4.136802,0 -4.136801,0 0,1.3309 0,1.331 4.136801,0 4.136802,0 0,-1.331 z m -35.162812,-2.3345 c 0,-0.064 0.199452,-0.1928 0.443229,-0.2865 0.243776,-0.094 0.443228,-0.041 0.443228,0.1163 0,0.1575 -0.199452,0.2865 -0.443228,0.2865 -0.243777,0 -0.443229,-0.052 -0.443229,-0.1163 z m 1.772915,-2.5457 c 0,-0.1627 0.13297,-0.2958 0.295485,-0.2958 0.162519,0 0.295486,0.1331 0.295486,0.2958 0,0.1627 -0.132967,0.2958 -0.295486,0.2958 -0.162515,0 -0.295485,-0.1331 -0.295485,-0.2958 z m 0.443228,-0.8873 c 0.100443,-0.1627 0.241259,-0.2958 0.312925,-0.2958 0.07167,0 0.130304,0.1331 0.130304,0.2958 0,0.1627 -0.140815,0.2958 -0.312925,0.2958 -0.17211,0 -0.230747,-0.1331 -0.130304,-0.2958 z m 0.818211,-0.7965 c 0.287496,-0.075 0.686403,-0.07 0.886457,0.011 0.200051,0.081 -0.03517,0.1423 -0.522724,0.1363 -0.48755,-0.01 -0.651232,-0.072 -0.363733,-0.1473 z m 22.584955,-23.55537 c -0.08315,-0.21689 0.03559,-0.39436 0.263871,-0.39436 0.228281,0 0.415058,0.17747 0.415058,0.39436 0,0.2169 -0.118744,0.39437 -0.263872,0.39437 -0.145131,0 -0.331905,-0.17747 -0.415057,-0.39437 z"
         id="path4177"
         inkscape:connector-curvature="0" />
      <path
         style="fill:#4cdce4;fill-opacity:1"
         d="m 6.0023161,1043.5515 0,-2.8099 2.6593723,0 2.6593726,0 0,-1.3309 0,-1.331 -1.3296865,0 -1.3296861,0 0,-1.4789 0,-1.4788 40.6292986,0 40.629299,0 0,5.6196 0,5.6197 -41.958985,0 -41.9589849,0 0,-2.8098 z m 0,-44.95732 0,-36.23202 41.9988399,0 41.998843,0 -0.189631,7.61612 c -0.104297,4.18887 -0.245138,8.14851 -0.312978,8.79921 -0.06784,0.65069 -0.133415,1.86938 -0.145713,2.70819 -0.01989,1.35655 -0.08547,1.50859 -0.593315,1.37566 -0.462787,-0.12114 -0.539918,-0.0307 -0.407135,0.47758 0.129062,0.49402 0.250182,0.55528 0.570949,0.28882 0.679027,-0.56409 0.457944,-0.13353 -0.459716,0.89531 l -0.866855,0.97188 -0.02739,-6.44747 c -0.01507,-3.54612 -0.09038,-6.51052 -0.167348,-6.58757 -0.07697,-0.077 -0.139951,10.86262 -0.139951,24.31037 l 0,24.45044 -5.614231,0 -5.61423,0 -0.07088,-25.80606 c -0.03898,-14.19334 -0.106783,-19.58378 -0.150665,-11.97875 -0.05648,9.78837 -0.174479,13.82732 -0.403965,13.82732 -0.178296,0 -0.249274,-0.19538 -0.157724,-0.43418 0.09155,-0.23881 0.01873,-0.52556 -0.161785,-0.63725 -0.199473,-0.1234 -0.245023,-0.0683 -0.116111,0.14051 0.120006,0.19435 0.0021,0.42428 -0.271811,0.52944 -0.34144,0.13115 -0.431392,0.39545 -0.305479,0.89761 0.115003,0.45865 0.0079,0.88238 -0.301024,1.19167 -0.442318,0.44275 -0.474813,0.42459 -0.419256,-0.23421 0.03312,-0.39279 0.03017,-0.84726 -0.0066,-1.00993 -0.03673,-0.16268 -0.09768,-0.42887 -0.135444,-0.59155 -0.03776,-0.16267 -0.0889,-7.51629 -0.113659,-16.34138 l -0.04501,-16.04561 -11.376205,0 -11.376203,0 0.0717,19.44699 0.07169,19.44698 0.07819,-19.2991 0.07819,-19.29909 11.078577,0 11.078579,0 0,28.10186 0,28.10183 -11.154592,-0.077 -11.154587,-0.077 -0.155976,-1.4788 -0.155975,-1.4789 -0.149426,1.2791 c -0.08219,0.7036 -0.06111,1.3338 0.04682,1.4006 0.260085,0.1609 0.519507,1.5532 0.325567,1.7474 -0.08366,0.084 -0.330569,0 -0.548667,-0.1772 -0.270807,-0.225 -0.396544,-0.2297 -0.396544,-0.015 0,0.173 0.132971,0.3968 0.295486,0.4974 0.371124,0.2295 0.39129,1.6267 0.02348,1.6267 -0.149603,0 -0.363513,-0.417 -0.475347,-0.9267 -0.134363,-0.6123 -0.281479,-0.8001 -0.433672,-0.5536 -0.126682,0.2051 -0.391431,0.2733 -0.58833,0.1515 -0.274233,-0.1696 -0.281965,-0.079 -0.03304,0.3863 0.401747,0.7515 0.40772,0.9425 0.02947,0.9425 -0.162516,0 -0.295486,-0.1997 -0.295486,-0.4437 0,-0.3906 -2.323817,-0.435 -19.42819,-0.3719 l -19.4281936,0.072 19.2804506,0.078 19.280447,0.078 0,4.2866 0,4.2865 -19.723676,0.07 -19.723679,0.07 16.842691,0.1515 c 9.263482,0.083 15.911912,0.2185 14.77429,0.3002 -2.036229,0.1464 -2.052316,0.154 -1.0342,0.491 0.789128,0.2611 0.876652,0.3486 0.369359,0.3689 -1.16527,0.047 -0.713576,0.5798 0.590971,0.6974 0.690696,0.062 -6.689061,0.1365 -16.399462,0.1649 l -17.6552784,0.052 0,-36.23202 z m 31.9124669,35.64052 c 0,-0.1627 -0.273785,-0.2958 -0.608411,-0.2958 -0.334625,0 -0.526232,0.1331 -0.425789,0.2958 0.100443,0.1626 0.374225,0.2957 0.608411,0.2957 0.234185,0 0.425789,-0.1331 0.425789,-0.2957 z m -9.455546,-6.0634 0,-1.3309 -8.495215,0.069 -8.495218,0.069 8.347475,0.083 8.347473,0.083 0,1.0259 0,1.026 -8.347473,0.083 -8.347475,0.083 8.495218,0.069 8.495215,0.069 0,-1.331 z m 5.614231,0 0,-1.3309 -1.477429,0 -1.477429,0 0,1.3309 0,1.331 1.477429,0 1.477429,0 0,-1.331 z m -2.659373,0 c 0,-1.0105 0.02815,-1.0352 1.181944,-1.0352 1.1538,0 1.181943,0.025 1.181943,1.0352 0,1.0106 -0.02811,1.0352 -1.181943,1.0352 -1.153801,0 -1.181944,-0.025 -1.181944,-1.0352 z m 13.638595,0 0.105754,-1.3309 -4.212802,0 -4.212802,0 0,1.3309 0,1.331 4.107048,0 4.107048,0 0.105754,-1.331 z m -8.024364,0 0,-1.0352 3.848902,0 3.848905,0 -0.439034,0.8499 c -0.241466,0.4674 -0.355686,0.9332 -0.253824,1.0352 0.101861,0.1019 0.03007,0.1853 -0.159528,0.1853 -0.189603,0 -0.344734,-0.1996 -0.344734,-0.4436 0,-0.2594 -0.268931,-0.4437 -0.647446,-0.4437 -0.63273,0 -0.63441,0.01 -0.07387,0.4343 0.515983,0.3906 0.254628,0.4352 -2.602894,0.4436 l -3.176474,0.01 0,-1.0352 z m -2.954631,-6.8766 c 2.08e-4,-0.202 -8.485924,-0.1973 -18.615833,0.01 -2.193983,0.045 1.096991,0.1109 7.313275,0.1466 6.216281,0.036 11.302435,-0.035 11.302558,-0.157 z m 14.098824,-0.2958 c 0.127605,-0.2847 0.162197,-4.0447 0.07687,-8.3556 l -0.155147,-7.8379 -0.06647,8.2013 -0.06647,8.2012 -5.688101,0.087 -5.688103,0.087 5.677705,0.067 c 5.160308,0.061 5.698848,0.02 5.909717,-0.4504 z m 2.152668,0.3872 c 0,-0.072 -0.132967,-0.2127 -0.295486,-0.3133 -0.162515,-0.1005 -0.295486,-0.042 -0.295486,0.1305 0,0.1722 0.132971,0.3132 0.295486,0.3132 0.162519,0 0.295486,-0.059 0.295486,-0.1304 z m -35.975395,-20.178 c -0.20315,-0.082 -0.535569,-0.082 -0.738715,0 -0.203149,0.082 -0.03694,0.1492 0.369356,0.1492 0.406292,0 0.572505,-0.067 0.369359,-0.1492 z m 1.323527,0.017 c -0.09819,-0.098 -0.353042,-0.1088 -0.566346,-0.023 -0.235721,0.094 -0.165702,0.1645 0.178524,0.1787 0.311491,0.013 0.486012,-0.057 0.387822,-0.1554 z m 11.825591,-0.042 c -2.072095,-0.051 -5.462797,-0.051 -7.534888,0 -2.072095,0.051 -0.376747,0.092 3.767442,0.092 4.14419,0 5.839538,-0.042 3.767446,-0.092 z m 17.803018,-1.1099 0,-1.33102 -3.028728,0.0619 -3.028731,0.0619 2.880988,0.0967 2.880986,0.0967 0,1.01342 0,1.0134 -2.733243,0.098 -2.733245,0.098 2.880988,0.061 2.880985,0.061 0,-1.3309 z m -18.246247,-4.50989 c -2.315871,-0.05 -6.105477,-0.05 -8.421345,0 -2.315871,0.05 -0.421068,0.0909 4.210671,0.0909 4.631739,0 6.526542,-0.0409 4.210674,-0.0909 z m 18.246247,-1.10982 c 0,-0.73203 -0.103238,-1.33097 -0.229423,-1.33097 -0.126181,0 -0.179192,0.52721 -0.117803,1.17159 l 0.111622,1.17159 -2.763184,0.098 -2.763185,0.098 2.880988,0.0614 2.880985,0.0614 0,-1.33097 z m -16.753471,-4.50886 c -1.494843,-0.0536 -4.021245,-0.0538 -5.614231,-6.3e-4 -1.592985,0.0533 -0.369929,0.0971 2.717896,0.0974 3.087828,2.8e-4 4.391178,-0.0433 2.896335,-0.0969 z m 16.753471,-1.1108 c 0,-0.73203 -0.103238,-1.33097 -0.229423,-1.33097 -0.126181,0 -0.179192,0.52721 -0.117803,1.17159 l 0.111622,1.17159 -2.763184,0.098 -2.763185,0.098 2.880988,0.0614 2.880985,0.0614 0,-1.33097 z m 25.116295,0 0,-1.33097 -8.49522,0.0692 -8.495215,0.0692 8.347472,0.0833 8.347477,0.0833 0,1.02599 0,1.02599 -8.347477,0.0833 -8.347472,0.0833 8.495215,0.0692 8.49522,0.0692 0,-1.33097 z m 13.887833,0 0,-1.33097 -2.807115,0 -2.807116,0 0,1.33097 0,1.33097 2.807116,0 2.807115,0 0,-1.33097 z m -5.318745,0 0,-1.0352 2.505294,0 2.505294,0 -0.334014,0.73379 c -0.272766,0.59923 -0.474798,0.69871 -1.101736,0.54248 -0.689694,-0.17186 -0.726505,-0.14123 -0.362186,0.30141 0.370648,0.45033 0.249889,0.49272 -1.403558,0.49272 l -1.809094,0 0,-1.0352 z M 19.81012,984.36634 c -0.09819,-0.0983 -0.353041,-0.10879 -0.566346,-0.0233 -0.23572,0.0944 -0.165702,0.1645 0.178524,0.17869 0.311491,0.0128 0.486012,-0.0571 0.387822,-0.15534 z m 9.018476,-0.0414 c -1.340768,-0.0548 -3.534751,-0.0548 -4.875516,0 -1.340768,0.0548 -0.243776,0.0996 2.437757,0.0996 2.681533,0 3.778524,-0.0448 2.437759,-0.0996 z m 16.421708,-1.18487 -0.05162,-1.40491 -0.112581,1.24615 -0.112577,1.24615 -2.716784,0.0974 -2.716786,0.0974 2.880988,0.0614 2.880985,0.0614 -0.05162,-1.40492 z m 25.167919,0.0739 0,-1.33097 -4.949387,0.0661 -4.949389,0.0661 4.801646,0.0891 4.801644,0.0891 0,1.02327 0,1.02327 -8.347477,0.0833 -8.347472,0.0833 8.495215,0.0692 8.49522,0.0691 0,-1.33097 z m 13.887833,0 0,-1.33097 -2.807115,0 -2.807116,0 0,1.33097 0,1.33097 2.807116,0 2.807115,0 0,-1.33097 z m -5.318745,0 0,-1.0352 2.51163,0 2.511629,0 0,1.0352 0,1.0352 -2.511629,0 -2.51163,0 0,-1.0352 z m -19.582089,-1.2139 c -0.09819,-0.0983 -0.353048,-0.10879 -0.56635,-0.0233 -0.235717,0.0944 -0.165702,0.1645 0.178524,0.17869 0.311488,0.0128 0.486012,-0.0571 0.387826,-0.15535 z m -36.344758,-3.25349 c -0.09819,-0.0983 -0.353041,-0.10879 -0.566346,-0.0233 -0.23572,0.0944 -0.165702,0.1645 0.178524,0.17869 0.311491,0.0128 0.486012,-0.0571 0.387822,-0.15534 z m 6.518423,-0.0395 c -0.928102,-0.0585 -2.523726,-0.059 -3.545829,-9.4e-4 -1.022101,0.0579 -0.262741,0.10579 1.687465,0.10637 1.950206,6.3e-4 2.78647,-0.0468 1.858364,-0.10531 z m 15.671417,-1.18669 -0.05162,-1.40491 -0.114081,1.2769 -0.114078,1.27691 -2.761877,-0.0938 c -1.51903,-0.0516 -2.699823,0.006 -2.623973,0.12801 0.07585,0.12201 1.393258,0.22183 2.927578,0.22183 l 2.789676,0 -0.05162,-1.40492 z m 21.123065,1.18388 c -2.30593,-0.0499 -6.162018,-0.05 -8.569091,-2.6e-4 -2.407067,0.0498 -0.520402,0.0906 4.192598,0.0908 4.713001,1.4e-4 6.682421,-0.0406 4.376493,-0.0905 z m 15.347186,6.3e-4 -2.733244,-0.0976 0,-1.01301 0,-1.013 2.733244,-0.0976 2.733244,-0.0976 -2.880987,-0.0614 -2.880987,-0.0614 0,1.33097 0,1.33098 2.880987,-0.0614 2.880987,-0.0614 -2.733244,-0.0976 z m -11.395969,-1.60972 c -0.09432,-0.23595 -0.164343,-0.16586 -0.17852,0.1787 -0.01283,0.31179 0.057,0.48648 0.155195,0.38819 0.09819,-0.0983 0.108682,-0.35338 0.02331,-0.56689 z m -0.127978,-0.73197 c -0.203146,-0.082 -0.535568,-0.082 -0.738713,0 -0.203147,0.082 -0.03694,0.14918 0.369356,0.14918 0.406293,0 0.572504,-0.0671 0.369357,-0.14918 z m -41.920559,-7.33569 0.03544,-1.34203 -7.017786,2.3e-4 -7.017789,2.3e-4 0,1.32552 0,1.32552 6.870046,0.0794 c 3.778525,0.0437 6.920577,0.051 6.982341,0.0163 0.06176,-0.0347 0.128249,-0.66703 0.147743,-1.40515 z m 16.730394,0.0633 0,-1.40491 -2.659373,0 -2.659372,0 0,1.40491 0,1.40492 2.659372,0 2.659373,0 0,-1.40492 z m 22.456921,0 0,-1.40491 -5.466488,0 -5.466487,0 0,1.40491 0,1.40492 5.466487,0 5.466488,0 0,-1.40492 z m 16.842692,0 0,-1.40491 -2.753703,0 -2.753704,0 0.0713,1.40491 c 0.03921,0.7727 0.08166,1.40492 0.09433,1.40492 0.01268,0 1.219754,0 2.682408,0 l 2.659373,0 0,-1.40492 z m -56.639414,-4.28831 c -3.442496,-0.0473 -9.160148,-0.0473 -12.70589,-1.2e-4 -3.545744,0.0472 -0.729155,0.0859 6.259083,0.086 6.988241,7e-5 9.889303,-0.0386 6.446807,-0.0858 z m 17.561416,9.5e-4 c -1.584544,-0.0532 -4.177431,-0.0532 -5.761973,0 -1.584544,0.0532 -0.288101,0.0967 2.880985,0.0967 3.169086,0 4.46553,-0.0435 2.880988,-0.0967 z m 39.299612,0 c -1.584543,-0.0532 -4.17743,-0.0532 -5.761973,0 -1.584543,0.0532 -0.288099,0.0967 2.880986,0.0967 3.169086,0 4.46553,-0.0435 2.880987,-0.0967 z m -33.77779,67.27114 c -0.08125,-0.212 -0.110321,-2.1086 -0.0646,-4.2148 l 0.08314,-3.8294 18.24625,-0.076 18.246248,-0.076 0,4.291 0,4.2909 -18.181651,0 c -14.666343,0 -18.210215,-0.074 -18.329383,-0.3853 z m 16.713484,-3.9034 0,-1.3309 -6.943917,0 -6.943916,0 0,1.3309 0,1.331 6.943916,0 6.943917,0 0,-1.331 z m 5.614231,0 0,-1.3309 -1.329686,0 -1.329686,0 0,1.3309 0,1.331 1.329686,0 1.329686,0 0,-1.331 z m 11.228461,0 0,-1.3309 -4.136802,0 -4.136801,0 0,1.3309 0,1.331 4.136801,0 4.136802,0 0,-1.331 z m -35.162812,-2.3345 c 0,-0.064 0.199452,-0.1928 0.443229,-0.2865 0.243776,-0.094 0.443228,-0.041 0.443228,0.1163 0,0.1575 -0.199452,0.2865 -0.443228,0.2865 -0.243777,0 -0.443229,-0.052 -0.443229,-0.1163 z m 1.772915,-2.5457 c 0,-0.1627 0.13297,-0.2958 0.295485,-0.2958 0.162519,0 0.295486,0.1331 0.295486,0.2958 0,0.1627 -0.132967,0.2958 -0.295486,0.2958 -0.162515,0 -0.295485,-0.1331 -0.295485,-0.2958 z m 0.443228,-0.8873 c 0.100443,-0.1627 0.241259,-0.2958 0.312925,-0.2958 0.07167,0 0.130304,0.1331 0.130304,0.2958 0,0.1627 -0.140815,0.2958 -0.312925,0.2958 -0.17211,0 -0.230747,-0.1331 -0.130304,-0.2958 z m 0.818211,-0.7965 c 0.287496,-0.075 0.686403,-0.07 0.886457,0.011 0.200051,0.081 -0.03517,0.1423 -0.522724,0.1363 -0.48755,-0.01 -0.651232,-0.072 -0.363733,-0.1473 z m 22.584955,-23.55538 c -0.08315,-0.21689 0.03559,-0.39436 0.263871,-0.39436 0.228281,0 0.415058,0.17747 0.415058,0.39436 0,0.2169 -0.118744,0.39437 -0.263872,0.39437 -0.145131,0 -0.331905,-0.17747 -0.415057,-0.39437 z"
         id="path4175"
         inkscape:connector-curvature="0" />
      <path
         style="fill:#216778"
         d="m 6.0023161,1043.5515 0,-2.8099 2.6593723,0 2.6593726,0 0,-1.3309 0,-1.331 -1.3296865,0 -1.3296861,0 0,-1.4789 0,-1.4788 40.6292986,0 40.629299,0 0,5.6196 0,5.6197 -41.958985,0 -41.9589849,0 0,-2.8098 z m 2.6593723,-15.3802 0,-4.2886 19.6498056,0 19.649807,0 0,4.2886 0,4.2887 -19.649807,0 -19.6498056,0 0,-4.2887 z m 19.7975486,0 0,-1.3309 -8.421345,0 -8.421346,0 0,1.3309 0,1.331 8.421346,0 8.421345,0 0,-1.331 z m 5.614231,0 0,-1.3309 -1.477429,0 -1.477429,0 0,1.3309 0,1.331 1.477429,0 1.477429,0 0,-1.331 z m 10.979222,0 0.105754,-1.3309 -4.212802,0 -4.212802,0 0,1.3309 0,1.331 4.107048,0 4.107048,0 0.105754,-1.331 z m 5.69719,3.9034 c -0.08125,-0.212 -0.110321,-2.1086 -0.0646,-4.2148 l 0.08314,-3.8294 18.24625,-0.076 18.246248,-0.076 0,4.291 0,4.2909 -18.181651,0 c -14.666343,0 -18.210215,-0.074 -18.329383,-0.3853 z m 16.713484,-3.9034 0,-1.3309 -6.943917,0 -6.943916,0 0,1.3309 0,1.331 6.943916,0 6.943917,0 0,-1.331 z m 5.614231,0 0,-1.3309 -1.329686,0 -1.329686,0 0,1.3309 0,1.331 1.329686,0 1.329686,0 0,-1.331 z m 11.228461,0 0,-1.3309 -4.136802,0 -4.136801,0 0,1.3309 0,1.331 4.136801,0 4.136802,0 0,-1.331 z m -75.6443676,-35.04571 0,-28.10148 12.7073896,0 12.70739,0 -0.07537,28.02435 -0.07537,28.02434 -12.632017,0.077 -12.6320196,0.077 0,-28.10151 z m 22.4569216,6.94741 0,-1.33093 -9.751032,0 -9.751032,0 0,1.33093 0,1.331 9.751032,0 9.751032,0 0,-1.331 z m 0,-5.61962 0,-1.33097 -9.751032,0 -9.751032,0 0,1.33097 0,1.33097 9.751032,0 9.751032,0 0,-1.33097 z m 0,-5.61966 0,-1.33097 -9.751032,0 -9.751032,0 0,1.33097 0,1.33097 9.751032,0 9.751032,0 0,-1.33097 z m 0,-5.61966 0,-1.33097 -9.751032,0 -9.751032,0 0,1.33097 0,1.33097 9.751032,0 9.751032,0 0,-1.33097 z m 0,-5.61966 0,-1.33097 -9.751032,0 -9.751032,0 0,1.33097 0,1.33097 9.751032,0 9.751032,0 0,-1.33097 z m -2.842561,-8.56677 0.03544,-1.34204 -7.017786,2.3e-4 -7.017789,2.3e-4 0,1.32552 0,1.32552 6.870046,0.0794 c 3.778525,0.0437 6.920577,0.051 6.982341,0.0163 0.06176,-0.0347 0.128249,-0.66703 0.147743,-1.40515 z m 8.456791,24.09478 0,-28.0983 5.61423,0 5.614231,0 0,28.0983 0,28.09829 -5.614231,0 -5.61423,0 0,-28.09829 z m 8.569088,6.95059 0,-1.33093 -2.883115,0 -2.883116,0 0.105754,1.33093 0.105754,1.331 2.777362,0 2.777361,0 0,-1.331 z m 0,-5.61962 0,-1.33097 -2.807115,0 -2.807115,0 0,1.33097 0,1.33097 2.807115,0 2.807115,0 0,-1.33097 z m 0,-5.61966 0,-1.33097 -2.883115,0 -2.883116,0 0.105754,1.33097 0.105754,1.33097 2.777362,0 2.777361,0 0,-1.33097 z m 0,-5.61966 0,-1.33097 -2.883115,0 -2.883116,0 0.105754,1.33097 0.105754,1.33097 2.777362,0 2.777361,0 0,-1.33097 z m 0,-5.61966 0,-1.33097 -2.893665,0 -2.893668,0 0.05597,1.25702 c 0.03076,0.69137 0.06972,1.29031 0.08655,1.33098 0.0168,0.0407 1.29379,0.0739 2.837704,0.0739 l 2.807115,0 0,-1.33097 z m -0.295485,-8.50344 0,-1.40491 -2.659373,0 -2.659372,0 0,1.40491 0,1.40492 2.659372,0 2.659373,0 0,-1.40492 z m 5.787011,51.87454 c -0.08667,-0.1404 -0.07269,-12.7846 0.03105,-28.09831 l 0.188635,-27.84308 11.032223,0 11.032228,0 0,28.0983 0,28.09829 -11.06328,0 c -6.084804,0 -11.134192,-0.1148 -11.220861,-0.2552 z m 19.624769,-32.13178 0,-1.33097 -8.421347,0 -8.421345,0 0,1.33097 0,1.33097 8.421345,0 8.421347,0 0,-1.33097 z m 0,-5.61966 0,-1.33097 -8.421347,0 -8.421345,0 0,1.33097 0,1.33097 8.421345,0 8.421347,0 0,-1.33097 z m 0,-5.61966 0,-1.33097 -8.421347,0 -8.421345,0 0,1.33097 0,1.33097 8.421345,0 8.421347,0 0,-1.33097 z m -2.954859,-8.50344 0,-1.40491 -5.466488,0 -5.466487,0 0,1.40491 0,1.40492 5.466487,0 5.466488,0 0,-1.40492 z m 8.569089,24.03145 0,-28.0983 5.61423,0 5.614231,0 0,28.0983 0,28.09829 -5.614231,0 -5.61423,0 0,-28.09829 z m 8.273603,-4.28869 0,-1.33097 -2.807115,0 -2.807116,0 0,1.33097 0,1.33097 2.807116,0 2.807115,0 0,-1.33097 z m 0,-5.61966 0,-1.33097 -2.807115,0 -2.807116,0 0,1.33097 0,1.33097 2.807116,0 2.807115,0 0,-1.33097 z m 0,-5.61966 0,-1.33097 -2.807115,0 -2.807116,0 0,1.33097 0,1.33097 2.807116,0 2.807115,0 0,-1.33097 z m 0,-8.50344 0,-1.40491 -2.753703,0 -2.753704,0 0.0713,1.40491 c 0.03921,0.77271 0.08166,1.40492 0.09433,1.40492 0.01268,0 1.219754,0 2.682408,0 l 2.659373,0 0,-1.40492 z"
         id="path4173"
         inkscape:connector-curvature="0" />
      <path
         style="fill:#0066ff"
         d="m 6.0023161,1043.6994 0,-2.662 1.3296861,0 1.3296862,0 0,2.662 0,2.6619 -1.3296862,0 -1.3296861,0 0,-2.6619 z m 13.8878329,-0.1479 0,-2.8099 -4.12061,0 -4.120614,0 -0.09006,-1.4049 -0.09006,-1.4049 -1.329687,-0.028 -1.3296857,-0.028 -0.090862,-1.2294 -0.090861,-1.2294 40.6462867,0 40.646291,0 0,2.6554 0,2.6554 -5.540359,0.081 -5.540359,0.08 -0.08496,2.7359 -0.08496,2.7359 -1.318599,0 -1.318597,0 0,-2.8098 0,-2.8099 -5.61423,0 -5.614231,0 0,2.8099 0,2.8098 -1.477429,0 c -0.812588,0 -1.461683,-0.1 -1.442438,-0.2218 0.01923,-0.122 0.01923,-1.3894 0,-2.8164 l -0.03499,-2.5945 -5.54036,0.081 -5.540357,0.08 0,2.7363 0,2.7364 -1.403556,-3e-4 -1.403559,-7e-4 0,-2.8098 0,-2.8098 -5.614231,0 -5.61423,0 0,2.8098 0,2.8098 -1.318598,0 -1.318598,0 -0.08496,-2.7359 -0.08496,-2.7358 -5.540358,-0.081 -5.54036,-0.081 0,2.8164 0,2.8163 -1.477429,0 -1.477429,0 0,-2.8098 z M 8.7917116,1032.0768 c -0.081702,-0.2131 -0.1111405,-2.1107 -0.065414,-4.2169 l 0.083133,-3.8294 17.7291484,0 c 9.751031,0 18.563874,0.045 19.584099,0.1007 l 1.854951,0.1006 -0.08204,4.0402 -0.08204,4.0401 -19.43665,0.076 c -15.806004,0.062 -19.4643952,0 -19.5851961,-0.3114 z m 19.5197824,-3.8397 c 0,-0.7682 -0.09973,-1.3967 -0.221612,-1.3967 -0.121889,0 -3.878252,0 -8.347476,0 l -8.12586,0 0,1.3256 0,1.3256 7.01779,0.079 c 3.859782,0.044 7.616146,0.076 8.347472,0.071 l 1.329686,-0.01 0,-1.3967 z m 5.614231,0.01 c 0,-0.7727 -0.09973,-1.4049 -0.221613,-1.4049 -0.121888,0 -0.75349,0 -1.403559,0 l -1.181943,0 0,1.2816 c 0,0.705 0.05921,1.341 0.131574,1.4134 0.07236,0.072 0.703965,0.1279 1.403556,0.1233 l 1.271985,-0.01 0,-1.4049 z m 11.22846,-0.074 0,-1.4788 -4.136801,0 -4.136801,0 -0.09356,1.1402 c -0.157964,1.9251 -0.221716,1.8975 4.281204,1.8556 l 4.085958,-0.038 0,-1.4788 z m 5.761974,0.121 0,-4.1139 18.172377,0 18.172378,0 0,3.9929 0,3.993 -12.779761,0.035 c -7.028868,0.019 -15.20644,0.074 -18.17238,0.1209 l -5.392614,0.086 0,-4.1138 z m 16.694948,-0.121 0,-1.4788 -6.943917,0.014 -6.943916,0.014 -0.0895,1.544 -0.0895,1.544 7.033416,-0.079 7.033417,-0.079 0,-1.4788 z m 5.614231,0 0,-1.4788 -1.403558,-0.09 -1.403557,-0.09 0,1.6591 0,1.6592 1.403557,-0.09 1.403558,-0.09 0,-1.4789 z m 11.228461,0 0,-1.4788 -4.210673,-0.082 -4.210673,-0.082 0,1.6429 0,1.643 4.210673,-0.082 4.210673,-0.082 0,-1.4789 z m -75.5951201,-7.1478 c -0.1083448,-0.1084 -0.1969905,-12.7526 -0.1969905,-28.09826 l 0,-27.90112 12.7058896,0 12.70589,0 0,25.83539 c 0,14.20949 -0.08599,26.85369 -0.191103,28.09829 l -0.1911,2.2629 -12.317796,0 c -6.774792,0 -12.4064453,-0.089 -12.5147901,-0.1972 z m 22.2022491,-21.0244 -0.09006,-1.4049 -9.677008,0 -9.67701,0 -1.51e-4,1.4049 -1.52e-4,1.4049 9.767223,0 9.76722,0 -0.09006,-1.4049 z m 0,-5.5679 -0.09006,-1.35317 -9.677036,-0.0517 -9.677036,-0.0518 -1.26e-4,1.40492 -1.23e-4,1.40492 9.767223,0 9.76722,0 -0.09006,-1.35317 z m 0,-5.67141 -0.09006,-1.40492 -9.677159,-0.078 -9.677162,-0.078 0,1.4829 0,1.48289 9.767223,0 9.76722,0 -0.09006,-1.40491 z m 0,-5.61966 -0.09006,-1.40492 -9.677159,-0.078 -9.677162,-0.078 0,1.48289 0,1.4829 9.767223,0 9.76722,0 -0.09006,-1.40491 z m 0,-5.61966 -0.09006,-1.40492 -9.677159,-0.0632 -9.677162,-0.0632 0,1.46808 0,1.46808 9.767223,0 9.76722,0 -0.09006,-1.40491 z m -2.601691,-8.35555 0,-1.47886 -7.091659,0 -7.091659,0 0,1.47886 0,1.47886 7.091659,0 7.091659,0 0,-1.47886 z m 8.484884,51.87288 c -0.116206,-0.1163 -0.211281,-12.7669 -0.211281,-28.11256 l 0,-27.90112 5.615727,0 5.615734,0 -0.07537,28.02436 -0.07537,28.02432 -5.329077,0.088 c -2.930992,0.048 -5.424155,-0.01 -5.54036,-0.1233 z m 8.300125,-21.0387 -0.09006,-1.4049 -2.486928,-0.0867 c -1.367814,-0.0477 -2.63325,-0.0305 -2.812086,0.0382 -0.194595,0.0747 -0.281551,0.67367 -0.21656,1.4916 l 0.108594,1.3667 2.79355,0 2.793552,0 -0.09006,-1.4049 z m 0,-5.61965 -0.09006,-1.40492 -2.733242,-0.02 -2.733245,-0.02 0,1.42488 0,1.42488 2.823306,0 2.823303,0 -0.09006,-1.40491 z m 0,-5.61966 -0.09006,-1.40492 -2.486928,-0.0867 c -1.367814,-0.0477 -2.63325,-0.0305 -2.812086,0.0382 -0.194595,0.0747 -0.281551,0.67367 -0.21656,1.49161 l 0.108594,1.36672 2.79355,0 2.793552,0 -0.09006,-1.40491 z m 0,-5.61966 -0.09006,-1.40492 -2.486928,-0.0867 c -1.367814,-0.0477 -2.63325,-0.0305 -2.812086,0.0382 -0.194595,0.0747 -0.281551,0.67367 -0.21656,1.49161 l 0.108594,1.36672 2.79355,0 2.793552,0 -0.09006,-1.40491 z m 0,-5.61966 -0.09006,-1.40492 -2.804143,0 -2.804146,0 -0.01815,1.18309 c -0.01,0.6507 0.02978,1.28291 0.08834,1.40491 0.05855,0.12201 1.369106,0.22183 2.912333,0.22183 l 2.805864,0 -0.09006,-1.40491 z m 0.05768,-8.35555 0,-1.47886 -2.954858,0 -2.954858,0 0,1.28168 c 0,0.70492 0.08865,1.37041 0.196991,1.47886 0.108345,0.10845 1.438031,0.19718 2.954858,0.19718 l 2.757867,0 0,-1.47886 z m 5.614231,23.97022 0,-28.11102 11.080717,0 11.080719,0 0,27.95041 0,27.95047 -2.290015,0.01 c -1.25951,0 -6.245832,0.077 -11.08072,0.1606 l -8.790701,0.152 0,-28.11105 z m 19.444382,-4.37535 -0.09006,-1.40492 -8.273604,0 -8.273602,0 -0.09006,1.40492 -0.09006,1.40491 8.453724,0 8.453726,0 -0.09006,-1.40491 z m 0,-5.61966 -0.09006,-1.40492 -8.347477,-0.0785 -8.347472,-0.0785 0,1.48346 0,1.48346 8.437536,0 8.437535,0 -0.09006,-1.40491 z m 0,-5.61966 -0.09006,-1.40492 -8.273604,0 -8.273602,0 -0.09006,1.40492 -0.09006,1.40491 8.453724,0 8.453726,0 -0.09006,-1.40491 z m -2.659373,-8.42949 0.09006,-1.40492 -5.778162,0 -5.778164,0 0,1.48525 0,1.48524 5.6881,-0.0803 5.688104,-0.0803 0.09006,-1.40491 z m 8.331285,23.88355 0,-27.95041 5.61423,0 5.614231,0 0,27.95041 0,27.95047 -5.614231,0 -5.61423,0 0,-27.95047 z m 8.273603,-4.29978 0,-1.48996 -2.733244,0.085 -2.733244,0.085 -0.09006,1.40492 -0.09006,1.40491 2.823305,0 2.823305,0 0,-1.48995 z m 0,-5.61966 0,-1.48996 -2.733244,0.085 -2.733244,0.085 -0.09006,1.40492 -0.09006,1.40491 2.823305,0 2.823305,0 0,-1.48995 z m 0,-5.61966 0,-1.48996 -2.733244,0.085 -2.733244,0.085 -0.09006,1.40492 -0.09006,1.40491 2.823305,0 2.823305,0 0,-1.48995 z m 0.237804,-8.34445 0.09006,-1.40492 -2.971048,0 -2.971048,0 0,1.48957 0,1.48957 2.880987,-0.0847 2.880987,-0.0847 0.09006,-1.40491 z"
         id="path4171"
         inkscape:connector-curvature="0" />
      <path
         style="fill:#333333"
         d="m 6.0023161,1043.6994 0,-2.662 1.3296861,0 1.3296862,0 0,2.662 0,2.6619 -1.3296862,0 -1.3296861,0 0,-2.6619 z m 13.8878329,-0.1479 0,-2.8099 -4.12061,0 -4.120614,0 -0.09006,-1.4049 -0.09006,-1.4049 -1.329687,-0.028 -1.3296857,-0.028 -0.090862,-1.2294 -0.090861,-1.2294 40.6462867,0 40.646291,0 0,2.6554 0,2.6554 -5.540359,0.081 -5.540359,0.08 -0.08496,2.7359 -0.08496,2.7359 -1.318599,0 -1.318597,0 0,-2.8098 0,-2.8099 -5.61423,0 -5.614231,0 0,2.8099 0,2.8098 -1.477429,0 c -0.812588,0 -1.461683,-0.1 -1.442438,-0.2218 0.01923,-0.122 0.01923,-1.3894 0,-2.8164 l -0.03499,-2.5945 -5.54036,0.081 -5.540357,0.08 0,2.7363 0,2.7364 -1.403556,-3e-4 -1.403559,-7e-4 0,-2.8098 0,-2.8098 -5.614231,0 -5.61423,0 0,2.8098 0,2.8098 -1.318598,0 -1.318598,0 -0.08496,-2.7359 -0.08496,-2.7358 -5.540358,-0.081 -5.54036,-0.081 0,2.8164 0,2.8163 -1.477429,0 -1.477429,0 0,-2.8098 z"
         id="path4167"
         inkscape:connector-curvature="0" />
    </g>
  </g>
</svg>
