<?xml version="1.0" encoding="UTF-8" standalone="no"?>
<!-- Created with Inkscape (http://www.inkscape.org/) -->

<svg
   xmlns:dc="http://purl.org/dc/elements/1.1/"
   xmlns:cc="http://creativecommons.org/ns#"
   xmlns:rdf="http://www.w3.org/1999/02/22-rdf-syntax-ns#"
   xmlns:svg="http://www.w3.org/2000/svg"
   xmlns="http://www.w3.org/2000/svg"
   xmlns:sodipodi="http://sodipodi.sourceforge.net/DTD/sodipodi-0.dtd"
   xmlns:inkscape="http://www.inkscape.org/namespaces/inkscape"
   width="96"
   height="96"
   id="svg2"
   version="1.1"
   inkscape:version="0.91 r13725"
   sodipodi:docname="flareget.svg">
  <defs
     id="defs4" />
  <sodipodi:namedview
     id="base"
     pagecolor="#ffffff"
     bordercolor="#666666"
     borderopacity="1.0"
     inkscape:pageopacity="0.0"
     inkscape:pageshadow="2"
     inkscape:zoom="3.2714128"
     inkscape:cx="12.815819"
     inkscape:cy="49.681152"
     inkscape:document-units="px"
     inkscape:current-layer="layer1"
     showgrid="false"
     inkscape:snap-page="true"
     inkscape:snap-global="false"
     inkscape:snap-center="true"
     inkscape:snap-object-midpoints="false"
     showguides="false"
     inkscape:guide-bbox="true"
     inkscape:snap-bbox="true"
     inkscape:object-paths="true"
     inkscape:object-nodes="true"
     inkscape:window-width="1366"
     inkscape:window-height="744"
     inkscape:window-x="0"
     inkscape:window-y="24"
     inkscape:window-maximized="1"
     inkscape:snap-midpoints="true"
     inkscape:snap-grids="true"
     inkscape:snap-to-guides="false">
    <inkscape:grid
       type="xygrid"
       id="grid3002"
       empspacing="5"
       visible="true"
       enabled="true"
       snapvisiblegridlinesonly="true" />
  </sodipodi:namedview>
  <metadata
     id="metadata7">
    <rdf:RDF>
      <cc:Work
         rdf:about="">
        <dc:format>image/svg+xml</dc:format>
        <dc:type
           rdf:resource="http://purl.org/dc/dcmitype/StillImage" />
        <dc:title></dc:title>
      </cc:Work>
    </rdf:RDF>
  </metadata>
  <g
     inkscape:label="Layer 1"
     inkscape:groupmode="layer"
     id="layer1"
     transform="translate(0,-956.36218)">
    <rect
       style="opacity:1;fill:#ff5555;fill-opacity:1;fill-rule:evenodd;stroke:none;stroke-width:1;stroke-linecap:butt;stroke-linejoin:miter;stroke-miterlimit:4;stroke-dasharray:none;stroke-opacity:1"
       id="rect4141"
       width="84"
       height="84"
       x="6"
       y="962.36218" />
    <path
       style="fill:#f2f2f2"
       d="m 55.616297,1037.2006 c 6.616435,-4.4934 12.032126,-9.7422 14.022386,-13.591 1.662798,-3.2155 1.669034,-3.2136 -4.941328,-1.4544 -2.731594,0.7271 -5.25905,1.1411 -5.616575,0.9199 -0.736371,-8.3522 -1.467452,-18.3667 -6.863106,-24.9658 -3.461284,-4.04384 -5.798914,-5.23551 -4.121446,-2.10106 1.254194,2.34356 1.198306,2.80948 -0.336834,2.80948 -7.376315,-5.62121 -11.53113,-18.33141 -9.803738,-26.01099 0.571916,-2.47758 0.785458,-4.75234 0.47456,-5.05493 -7.104534,4.06291 -8.594918,12.86072 -8.629834,19.94627 0,4.12054 -0.370542,6.53763 -1.002199,6.53763 -0.551226,0 -1.217896,-0.82477 -1.481493,-1.83283 -0.919307,-3.5154 -2.348808,-1.93417 -1.732976,1.91687 0.724801,4.53261 2.596797,8.03996 9.737781,18.24406 6.588397,9.4146 6.965764,11.3499 2.039237,10.4578 -1.890096,-0.3421 -4.5706,-1.1963 -5.956642,-1.8979 -4.718111,-2.3883 -2.198175,3.474 4.050308,9.4222 3.301159,3.1424 13.302232,10.4267 14.315849,10.4267 0.160417,0 2.791162,-1.6975 5.84617,-3.772 z"
       id="path3009"
       inkscape:connector-curvature="0"
       sodipodi:nodetypes="cscccsccccsssscccscc" />
  </g>
</svg>
