<?xml version="1.0" encoding="UTF-8" standalone="no"?>
<!-- Created with Inkscape (http://www.inkscape.org/) -->

<svg
   xmlns:dc="http://purl.org/dc/elements/1.1/"
   xmlns:cc="http://creativecommons.org/ns#"
   xmlns:rdf="http://www.w3.org/1999/02/22-rdf-syntax-ns#"
   xmlns:svg="http://www.w3.org/2000/svg"
   xmlns="http://www.w3.org/2000/svg"
   xmlns:sodipodi="http://sodipodi.sourceforge.net/DTD/sodipodi-0.dtd"
   xmlns:inkscape="http://www.inkscape.org/namespaces/inkscape"
   width="96"
   height="96"
   id="svg2"
   sodipodi:version="0.32"
   inkscape:version="0.91 r13725"
   version="1.0"
   sodipodi:docname="fonts.svg"
   inkscape:output_extension="org.inkscape.output.svg.inkscape"
   viewBox="0 0 96 96">
  <defs
     id="defs4" />
  <sodipodi:namedview
     id="base"
     pagecolor="#ffffff"
     bordercolor="#666666"
     borderopacity="1.0"
     inkscape:pageopacity="1"
     inkscape:pageshadow="2"
     inkscape:zoom="2.8"
     inkscape:cx="26.066653"
     inkscape:cy="35.503159"
     inkscape:document-units="px"
     inkscape:current-layer="layer1"
     showgrid="true"
     width="128px"
     height="128px"
     showguides="true"
     inkscape:guide-bbox="true"
     inkscape:window-width="3840"
     inkscape:window-height="2040"
     inkscape:window-x="0"
     inkscape:window-y="64"
     inkscape:window-maximized="1" />
  <metadata
     id="metadata7">
    <rdf:RDF>
      <cc:Work
         rdf:about="">
        <dc:format>image/svg+xml</dc:format>
        <dc:type
           rdf:resource="http://purl.org/dc/dcmitype/StillImage" />
        <dc:title></dc:title>
      </cc:Work>
    </rdf:RDF>
  </metadata>
  <g
     inkscape:label="Livello 1"
     inkscape:groupmode="layer"
     id="layer1"
     transform="translate(0,-32)">
    <rect
       style="opacity:1;fill:#0088aa;fill-opacity:1;fill-rule:evenodd;stroke:none;stroke-width:1;stroke-linecap:butt;stroke-linejoin:miter;stroke-miterlimit:4;stroke-dasharray:none;stroke-opacity:1"
       id="rect4164"
       width="84"
       height="84"
       x="6"
       y="38"
       rx="0" />
    <g
       style="font-style:normal;font-weight:normal;font-size:230.9047699px;line-height:125%;font-family:Sans;letter-spacing:0px;word-spacing:0px;fill:#ffffff;fill-opacity:1;stroke:none;stroke-width:5.77261877px;stroke-linecap:butt;stroke-linejoin:miter;stroke-opacity:1"
       id="text4163"
       transform="matrix(0.2566742,0,0,0.2566742,-17.708594,112.8543)">
      <path
         d="m 277.73571,-45.682449 -69.04053,-167.867771 -18.93419,0 -69.50233,167.867771 23.78319,0 21.47414,-55.186241 66.26967,0 21.93595,55.186241 24.0141,0 z m -54.26262,-73.889531 -49.87543,0 25.63043,-68.80962 24.245,68.80962 z"
         style="font-style:normal;font-variant:normal;font-weight:bold;font-stretch:normal;font-size:230.9047699px;line-height:125%;font-family:Laksaman;-inkscape-font-specification:'Laksaman, Bold';text-align:start;writing-mode:lr-tb;text-anchor:start;fill:#ffffff;fill-opacity:1;stroke-width:5.77261877px"
         id="path4163"
         inkscape:connector-curvature="0" />
      <path
         d="m 328.01161,-42.449783 c 14.77791,0 28.17038,-5.310809 39.94653,-15.470619 l 3.46357,15.470619 20.31962,-4.38719 c -3.23267,-11.545239 -4.849,-21.705049 -4.849,-30.47943 l 0,-39.253807 c 0,-33.7121 -16.16334,-50.56815 -49.18272,-50.56815 -14.08519,0 -29.094,2.30905 -44.79552,6.92714 l 2.30904,19.62691 c 15.00881,-5.77262 28.8631,-8.54348 41.33196,-8.54348 16.85605,0 26.32314,8.77439 28.63219,26.09224 -52.64629,0.69272 -78.96943,15.70153 -78.96943,45.026433 0,22.166858 18.70328,35.559334 41.79376,35.559334 z m 37.17567,-40.639239 c 0,12.699762 -21.93595,21.474144 -36.25205,21.474144 -13.62338,0 -20.55052,-6.234429 -20.55052,-18.472382 0,-15.239715 19.16509,-23.32138 56.80257,-24.0141 l 0,21.012338 z"
         style="font-style:normal;font-variant:normal;font-weight:bold;font-stretch:normal;font-size:230.9047699px;line-height:125%;font-family:Laksaman;-inkscape-font-specification:'Laksaman, Bold';text-align:start;writing-mode:lr-tb;text-anchor:start;fill:#ffffff;fill-opacity:1;stroke-width:5.77261877px"
         id="path4165"
         inkscape:connector-curvature="0" />
    </g>
  </g>
</svg>
