<?xml version="1.0" encoding="UTF-8" standalone="no"?>
<svg
   xmlns:dc="http://purl.org/dc/elements/1.1/"
   xmlns:cc="http://creativecommons.org/ns#"
   xmlns:rdf="http://www.w3.org/1999/02/22-rdf-syntax-ns#"
   xmlns:svg="http://www.w3.org/2000/svg"
   xmlns="http://www.w3.org/2000/svg"
   xmlns:sodipodi="http://sodipodi.sourceforge.net/DTD/sodipodi-0.dtd"
   xmlns:inkscape="http://www.inkscape.org/namespaces/inkscape"
   width="96"
   height="96"
   viewBox="0 0 96 96"
   id="svg22826"
   version="1.1"
   inkscape:version="0.91 r13725"
   sodipodi:docname="gnome-panel-force-quit.svg">
  <metadata
     id="metadata22836">
    <rdf:RDF>
      <cc:Work
         rdf:about="">
        <dc:format>image/svg+xml</dc:format>
        <dc:type
           rdf:resource="http://purl.org/dc/dcmitype/StillImage" />
        <dc:title></dc:title>
      </cc:Work>
    </rdf:RDF>
  </metadata>
  <defs
     id="defs22834" />
  <sodipodi:namedview
     pagecolor="#ffffff"
     bordercolor="#666666"
     borderopacity="1"
     objecttolerance="10"
     gridtolerance="10"
     guidetolerance="10"
     inkscape:pageopacity="0"
     inkscape:pageshadow="2"
     inkscape:window-width="640"
     inkscape:window-height="480"
     id="namedview22832"
     showgrid="false"
     inkscape:zoom="3.1666667"
     inkscape:cx="39.218706"
     inkscape:cy="32.920711"
     inkscape:current-layer="svg22826" />
  <g
     id="g27796"
     transform="matrix(2.1,0,0,2.1,-2.4,-2.4)">
    <path
       id="path22828"
       d="M 13.394531,38.847656 9.152344,34.605469 34.605469,9.152344 l 4.242187,4.242187 z"
       style="fill:#dc322f"
       inkscape:connector-curvature="0" />
    <path
       id="path22830"
       d="m 9.859375,38.140625 c 7.808594,7.8125 20.472656,7.8125 28.28125,0 7.8125,-7.808594 7.8125,-20.472656 0,-28.28125 -7.808594,-7.8125 -20.472656,-7.8125 -28.28125,0 -7.8125,7.808594 -7.8125,20.472656 0,28.28125 z m 4.242187,-4.242187 c -5.46875,-5.464844 -5.46875,-14.332032 0,-19.796876 5.464844,-5.46875 14.332032,-5.46875 19.796876,0 5.46875,5.464844 5.46875,14.332032 0,19.796876 -5.464844,5.46875 -14.332032,5.46875 -19.796876,0 z"
       style="fill:#dc322f;fill-rule:evenodd"
       inkscape:connector-curvature="0" />
  </g>
</svg>
