<?xml version="1.0" encoding="UTF-8" standalone="no"?>
<!-- Created with Inkscape (http://www.inkscape.org/) -->

<svg
   xmlns:dc="http://purl.org/dc/elements/1.1/"
   xmlns:cc="http://creativecommons.org/ns#"
   xmlns:rdf="http://www.w3.org/1999/02/22-rdf-syntax-ns#"
   xmlns:svg="http://www.w3.org/2000/svg"
   xmlns="http://www.w3.org/2000/svg"
   xmlns:sodipodi="http://sodipodi.sourceforge.net/DTD/sodipodi-0.dtd"
   xmlns:inkscape="http://www.inkscape.org/namespaces/inkscape"
   width="96"
   height="96"
   viewBox="0 0 96 96.000005"
   id="svg2"
   version="1.1"
   inkscape:version="0.91 r13725"
   sodipodi:docname="qgit.svg">
  <defs
     id="defs4" />
  <sodipodi:namedview
     id="base"
     pagecolor="#ffffff"
     bordercolor="#666666"
     borderopacity="1.0"
     inkscape:pageopacity="0.0"
     inkscape:pageshadow="2"
     inkscape:zoom="2.828427"
     inkscape:cx="104.39615"
     inkscape:cy="68.055819"
     inkscape:document-units="px"
     inkscape:current-layer="layer1"
     showgrid="false"
     units="px"
     inkscape:showpageshadow="false"
     borderlayer="true"
     inkscape:window-width="1366"
     inkscape:window-height="670"
     inkscape:window-x="-4"
     inkscape:window-y="29"
     inkscape:window-maximized="1">
    <inkscape:grid
       type="xygrid"
       id="grid4136" />
    <sodipodi:guide
       position="5,59.000069"
       orientation="54,0"
       id="guide4142" />
    <sodipodi:guide
       position="5,5.0000688"
       orientation="0,54"
       id="guide4144" />
    <sodipodi:guide
       position="59,5.0000688"
       orientation="-54,0"
       id="guide4146" />
    <sodipodi:guide
       position="59,59.000069"
       orientation="0,-54"
       id="guide4148" />
    <sodipodi:guide
       position="0,64.000069"
       orientation="64,0"
       id="guide4150" />
    <sodipodi:guide
       position="0,6.875e-05"
       orientation="0,64"
       id="guide4152" />
    <sodipodi:guide
       position="64,6.875e-05"
       orientation="-64,0"
       id="guide4154" />
    <sodipodi:guide
       position="64,64.000069"
       orientation="0,-64"
       id="guide4156" />
  </sodipodi:namedview>
  <metadata
     id="metadata7">
    <rdf:RDF>
      <cc:Work
         rdf:about="">
        <dc:format>image/svg+xml</dc:format>
        <dc:type
           rdf:resource="http://purl.org/dc/dcmitype/StillImage" />
        <dc:title></dc:title>
      </cc:Work>
    </rdf:RDF>
  </metadata>
  <g
     inkscape:label="Capa 1"
     inkscape:groupmode="layer"
     id="layer1"
     transform="translate(0,-1026.5196)">
    <g
       id="g4150">
      <path
         inkscape:connector-curvature="0"
         id="path4162"
         d="m 89.999995,1116.5196 -83.999996,0 0,-84 84,0 z"
         style="fill:#e74c3c;fill-opacity:1;stroke:none;stroke-width:1.35000002px;stroke-linecap:butt;stroke-linejoin:miter;stroke-opacity:1" />
      <path
         id="path4192"
         d="m 25.53905,1111.5188 5.207626,0 -0.0036,-18.5283 a 7.8014963,7.8014963 0 0 0 2.546351,-1.6986 7.8014963,7.8014963 0 0 0 1.51919,-8.8747 l 30.060564,-30.0605 a 7.8014963,7.8014963 0 0 0 8.874512,-1.5192 7.8014963,7.8014963 0 0 0 0,-11.0329 7.8014963,7.8014963 0 0 0 -11.032983,0 7.8014963,7.8014963 0 0 0 -1.515599,8.8708 l -30.064155,30.0641 a 7.8014963,7.8014963 0 0 0 -0.387873,-0.1716 l 0,-26.0307 a 7.8014963,7.8014963 0 0 0 2.546344,-1.6989 7.8014963,7.8014963 0 0 0 0,-11.0329 7.8014963,7.8014963 0 0 0 -11.032983,0 7.8014963,7.8014963 0 0 0 0,11.0329 7.8014963,7.8014963 0 0 0 3.282599,1.9537 l 3e-6,22.1594 0.0036,3.3507 a 7.8014963,7.8014963 0 0 0 -3.286191,1.9574 7.8014963,7.8014963 0 0 0 0,11.0332 7.8014963,7.8014963 0 0 0 3.286191,1.9501 l -0.0036,18.2768 z"
         style="opacity:1;fill:#fce7e5;fill-opacity:1;stroke:none;stroke-width:1;stroke-linecap:round;stroke-linejoin:miter;stroke-miterlimit:4;stroke-dasharray:none;stroke-opacity:0.29943501"
         inkscape:connector-curvature="0" />
    </g>
  </g>
</svg>
