<?xml version="1.0" encoding="UTF-8" standalone="no"?>
<!-- Created with Inkscape (http://www.inkscape.org/) -->

<svg
   xmlns:dc="http://purl.org/dc/elements/1.1/"
   xmlns:cc="http://creativecommons.org/ns#"
   xmlns:rdf="http://www.w3.org/1999/02/22-rdf-syntax-ns#"
   xmlns:svg="http://www.w3.org/2000/svg"
   xmlns="http://www.w3.org/2000/svg"
   xmlns:sodipodi="http://sodipodi.sourceforge.net/DTD/sodipodi-0.dtd"
   xmlns:inkscape="http://www.inkscape.org/namespaces/inkscape"
   width="96"
   height="96"
   id="svg859"
   version="1.1"
   inkscape:version="0.91 r13725"
   sodipodi:docname="gnome-window-manager.svg">
  <defs
     id="defs861" />
  <sodipodi:namedview
     id="base"
     pagecolor="#ffffff"
     bordercolor="#666666"
     borderopacity="1.0"
     inkscape:pageopacity="0.0"
     inkscape:pageshadow="2"
     inkscape:zoom="2"
     inkscape:cx="55.176431"
     inkscape:cy="20.418897"
     inkscape:document-units="px"
     inkscape:current-layer="layer1"
     showgrid="false"
     width="0px"
     height="0px"
     fit-margin-top="0"
     fit-margin-left="0"
     fit-margin-right="0"
     fit-margin-bottom="0"
     inkscape:window-width="1366"
     inkscape:window-height="744"
     inkscape:window-x="0"
     inkscape:window-y="24"
     inkscape:window-maximized="1"
     showguides="false">
    <sodipodi:guide
       position="2,41.000017"
       orientation="34,0"
       id="guide3353" />
    <sodipodi:guide
       position="2,7.0000174"
       orientation="0,43.999992"
       id="guide3355" />
    <sodipodi:guide
       position="45.999992,7.0000174"
       orientation="-34,0"
       id="guide3357" />
    <sodipodi:guide
       position="45.999992,41.000017"
       orientation="0,-43.999992"
       id="guide3359" />
    <sodipodi:guide
       position="2,41.000017"
       orientation="4,0"
       id="guide3361" />
    <sodipodi:guide
       position="2,37.000017"
       orientation="0,43.999981"
       id="guide3363" />
    <sodipodi:guide
       position="45.999981,37.000017"
       orientation="-4,0"
       id="guide3365" />
    <sodipodi:guide
       position="45.999981,41.000017"
       orientation="0,-43.999981"
       id="guide3367" />
  </sodipodi:namedview>
  <metadata
     id="metadata864">
    <rdf:RDF>
      <cc:Work
         rdf:about="">
        <dc:format>image/svg+xml</dc:format>
        <dc:type
           rdf:resource="http://purl.org/dc/dcmitype/StillImage" />
        <dc:title></dc:title>
      </cc:Work>
    </rdf:RDF>
  </metadata>
  <g
     inkscape:label="Capa 1"
     inkscape:groupmode="layer"
     id="layer1"
     transform="translate(0,-956.3622)">
    <g
       id="g4269">
      <rect
         y="962.36218"
         x="6.0032835"
         height="84"
         width="83.996719"
         id="rect907"
         style="fill:#808080;fill-opacity:1;stroke:none" />
      <rect
         style="fill:#37353a;fill-opacity:1;stroke:none"
         id="rect920"
         width="83.996719"
         height="10"
         x="6"
         y="962.36865" />
      <rect
         style="fill:#ffffff;fill-opacity:1;stroke:none"
         id="rect827"
         width="5.9997654"
         height="6"
         x="81.516998"
         y="964.27618" />
      <rect
         style="fill:#ffffff;fill-opacity:1;stroke:none"
         id="rect827-3"
         width="5.9997654"
         height="6"
         x="64.962158"
         y="964.27618" />
      <rect
         style="fill:#ffffff;fill-opacity:1;stroke:none"
         id="rect827-3-7"
         width="5.9997654"
         height="6"
         x="73.237389"
         y="964.27618" />
      <ellipse
         id="path3012"
         style="fill:#d2d2d2;fill-opacity:1;fill-rule:nonzero;stroke:#4169e1;stroke-width:0;stroke-linecap:round;stroke-linejoin:miter;stroke-miterlimit:4;stroke-dasharray:none;stroke-opacity:1"
         cx="48.115776"
         cy="1008.8638"
         rx="17.734598"
         ry="17.31567" />
      <path
         style="fill:#d2d2d2;fill-opacity:1"
         d="m 44.31374,1035.7798 c -0.476764,-0.2128 -0.983879,-0.7574 -1.210164,-1.2996 -0.116624,-0.2794 -0.233011,-1.3535 -0.33266,-3.07 -0.0843,-1.4521 -0.195304,-2.756 -0.246678,-2.8976 -0.06814,-0.1877 -0.40128,-0.3648 -1.231721,-0.6548 -0.626073,-0.2186 -1.568888,-0.614 -2.095144,-0.8786 -0.526256,-0.2646 -1.071481,-0.4811 -1.211611,-0.4811 -0.157168,0 -1.016846,0.6991 -2.243844,1.8247 -1.093982,1.0036 -2.165912,1.9154 -2.382065,2.0262 -0.44493,0.2282 -1.44598,0.2653 -1.962919,0.073 -0.411031,-0.153 -4.759162,-4.4379 -5.03795,-4.9646 -0.276512,-0.5224 -0.24694,-1.4996 0.0633,-2.0917 0.141223,-0.2695 1.060914,-1.3617 2.043759,-2.4271 1.057994,-1.1469 1.786991,-2.0372 1.786991,-2.1824 0,-0.135 -0.216489,-0.6759 -0.481084,-1.2022 -0.264597,-0.5262 -0.659104,-1.4666 -0.876683,-2.0897 -0.21758,-0.6231 -0.484621,-1.179 -0.593425,-1.2354 -0.108804,-0.056 -1.385924,-0.1681 -2.838045,-0.2481 -1.688816,-0.093 -2.825476,-0.2119 -3.154317,-0.3296 -0.626673,-0.2244 -1.348659,-0.9928 -1.450663,-1.5439 -0.04137,-0.2236 -0.05831,-1.8797 -0.03764,-3.6802 l 0.03758,-3.2738 0.376291,-0.4717 c 0.664984,-0.8335 0.977567,-0.9172 4.153746,-1.1126 1.797718,-0.1105 2.89055,-0.2276 2.981326,-0.3194 0.07882,-0.08 0.348208,-0.6974 0.598644,-1.3728 0.250435,-0.6754 0.641846,-1.5997 0.869801,-2.05389 0.227956,-0.45421 0.414465,-0.92567 0.414465,-1.04769 0,-0.12202 -0.75193,-1.04663 -1.670955,-2.05471 -0.919025,-1.00807 -1.798099,-2.00101 -1.953496,-2.20653 -0.437066,-0.57805 -0.584864,-1.29385 -0.411947,-1.9951 0.130565,-0.52949 0.369723,-0.81653 2.36712,-2.84101 1.222035,-1.23861 2.426907,-2.35763 2.677493,-2.48672 0.581505,-0.29956 1.506134,-0.30371 2.083512,-0.009 0.243122,0.12395 1.309738,1.02193 2.370259,1.99551 1.060522,0.97358 2.000077,1.81096 2.087905,1.86083 0.09256,0.0526 0.663823,-0.14813 1.358949,-0.47742 0.659597,-0.31245 1.646519,-0.71883 2.193161,-0.90307 0.741192,-0.2498 1.028781,-0.40942 1.131114,-0.62779 0.07547,-0.16105 0.204907,-1.48091 0.287633,-2.93303 0.159098,-2.79269 0.254694,-3.23414 0.830556,-3.83535 0.640564,-0.66877 1.00896,-0.72363 4.589352,-0.68347 l 3.261117,0.0366 0.510175,0.33784 c 0.877755,0.58126 0.984005,0.94264 1.190725,4.04992 0.100062,1.50408 0.209254,2.85184 0.242649,2.99502 0.047,0.20151 0.315792,0.3494 1.18963,0.65454 0.620903,0.21682 1.615238,0.63846 2.209634,0.93698 0.594397,0.29853 1.128347,0.54277 1.186556,0.54277 0.05821,0 1.012556,-0.83225 2.120771,-1.84946 1.108214,-1.0172 2.219959,-1.95663 2.470545,-2.08761 0.592353,-0.30963 1.474039,-0.30681 2.121851,0.007 0.307585,0.1489 1.352518,1.0999 2.664882,2.42532 2.252746,2.27516 2.430281,2.53546 2.43203,3.56583 0.0012,0.72876 -0.323192,1.20682 -2.259905,3.33007 -1.053053,1.15448 -1.914642,2.14801 -1.914642,2.20783 0,0.0598 0.274855,0.68171 0.610791,1.38196 0.335934,0.7002 0.736573,1.6809 0.890307,2.1793 0.190986,0.6191 0.357305,0.9391 0.525117,1.0104 0.135082,0.057 1.492822,0.1822 3.017201,0.2774 3.025155,0.1889 3.512442,0.3134 4.019649,1.0268 0.479485,0.6744 0.535252,1.1798 0.493729,4.4748 l -0.03972,3.1519 -0.370103,0.5262 c -0.660869,0.9397 -0.827775,0.9879 -4.183881,1.2069 -1.639867,0.107 -3.01034,0.2233 -3.045498,0.2584 -0.03516,0.035 -0.238739,0.5593 -0.452402,1.1648 -0.213664,0.6054 -0.633822,1.5893 -0.933684,2.1865 -0.299865,0.5971 -0.528308,1.1593 -0.507656,1.2494 0.02065,0.09 0.838826,1.0372 1.818165,2.1049 0.979337,1.0677 1.904949,2.1865 2.056915,2.4862 0.322794,0.6365 0.352733,1.3106 0.08652,1.9478 -0.234935,0.5622 -4.222693,4.6156 -4.870861,4.951 -0.541959,0.2804 -1.529183,0.3105 -2.096453,0.064 -0.217337,-0.094 -1.306955,-1.006 -2.421374,-2.0256 -1.114419,-1.0197 -2.114849,-1.8542 -2.22318,-1.8545 -0.10833,-3e-4 -0.736085,0.2514 -1.395011,0.5593 -0.658926,0.3079 -1.635305,0.7039 -2.169729,0.88 -0.738663,0.2433 -0.985978,0.3815 -1.031294,0.576 -0.03279,0.1408 -0.141483,1.4866 -0.241545,2.9907 -0.220085,3.3082 -0.346528,3.6668 -1.498508,4.2501 -0.334037,0.1692 -0.88681,0.1983 -3.684029,0.1942 -2.475646,-0 -3.382299,-0.046 -3.659427,-0.1692 z m 4.850637,-14.6886 c 2.968777,-0.3112 5.449171,-1.4952 7.560882,-3.6092 1.609481,-1.6113 2.647999,-3.4192 3.273328,-5.6984 0.392025,-1.4289 0.389714,-4.5841 -0.0044,-6.0304 -1.196075,-4.3892 -4.338061,-7.62076 -8.680775,-8.92833 -1.011892,-0.30468 -1.286655,-0.33357 -3.254225,-0.34217 -1.884577,-0.008 -2.277459,0.0257 -3.192824,0.27557 -4.570476,1.24771 -8.06603,4.92013 -9.021194,9.47773 -0.858161,4.0947 0.396611,8.2741 3.386065,11.2784 1.565254,1.573 3.596185,2.7272 5.796457,3.2941 0.627416,0.1617 1.517785,0.2863 2.785895,0.3899 0.101311,0.01 0.709175,-0.04 1.35081,-0.1072 z m -3.045253,-5.1484 c -3.131271,-0.8492 -5.322688,-3.5141 -5.516718,-6.7086 -0.135664,-2.2336 0.583122,-4.1234 2.169247,-5.7032 2.888579,-2.8772 7.501046,-2.9042 10.353029,-0.061 2.349048,2.3422 2.912685,5.6733 1.454681,8.5973 -1.241841,2.4904 -3.529588,3.9601 -6.335566,4.07 -0.955266,0.038 -1.427735,-0.01 -2.124673,-0.1949 z m 3.503189,-3.0966 c 0.864861,-0.3236 1.896456,-1.2825 2.33032,-2.166 0.306158,-0.6235 0.343122,-0.8311 0.343144,-1.9268 2.4e-5,-1.1656 -0.02135,-1.2674 -0.42083,-2.0042 -0.806381,-1.4873 -2.002853,-2.2409 -3.692977,-2.3261 -1.357692,-0.068 -2.170336,0.2191 -3.150462,1.1149 -1.242677,1.1357 -1.73713,2.7146 -1.338008,4.2725 0.345463,1.3485 1.077356,2.2641 2.308459,2.888 1.148505,0.5819 2.330733,0.6302 3.620354,0.1477 z"
         id="path2986"
         inkscape:connector-curvature="0" />
      <circle
         r="12.5"
         cy="1008.9998"
         cx="48.013252"
         id="path3790"
         style="fill:#808080;fill-opacity:1;fill-rule:nonzero;stroke:none" />
    </g>
  </g>
</svg>
