<?xml version="1.0" encoding="UTF-8" standalone="no"?>
<svg
   xmlns:dc="http://purl.org/dc/elements/1.1/"
   xmlns:cc="http://creativecommons.org/ns#"
   xmlns:rdf="http://www.w3.org/1999/02/22-rdf-syntax-ns#"
   xmlns:svg="http://www.w3.org/2000/svg"
   xmlns="http://www.w3.org/2000/svg"
   xmlns:sodipodi="http://sodipodi.sourceforge.net/DTD/sodipodi-0.dtd"
   xmlns:inkscape="http://www.inkscape.org/namespaces/inkscape"
   width="96"
   version="1.1"
   height="96"
   id="svg25078"
   inkscape:version="0.91 r13725"
   sodipodi:docname="gnome-sound-recorder.svg">
  <metadata
     id="metadata25101">
    <rdf:RDF>
      <cc:Work
         rdf:about="">
        <dc:format>image/svg+xml</dc:format>
        <dc:type
           rdf:resource="http://purl.org/dc/dcmitype/StillImage" />
        <dc:title></dc:title>
      </cc:Work>
    </rdf:RDF>
  </metadata>
  <sodipodi:namedview
     pagecolor="#ffffff"
     bordercolor="#666666"
     borderopacity="1"
     objecttolerance="10"
     gridtolerance="10"
     guidetolerance="10"
     inkscape:pageopacity="0"
     inkscape:pageshadow="2"
     inkscape:window-width="640"
     inkscape:window-height="480"
     id="namedview25099"
     showgrid="false"
     inkscape:zoom="1.5833333"
     inkscape:cx="20.230138"
     inkscape:cy="42.540281"
     inkscape:current-layer="svg25078" />
  <defs
     id="defs7386" />
  <g
     id="g27959">
    <rect
       y="6"
       x="6"
       height="84"
       width="84"
       id="rect27924"
       style="opacity:1;fill:#8dd35f;fill-opacity:1;fill-rule:evenodd;stroke:none;stroke-width:1;stroke-linecap:butt;stroke-linejoin:miter;stroke-miterlimit:4;stroke-dasharray:none;stroke-opacity:1" />
    <path
       d="m 56.653757,65.259052 0,9.870535 -8.521161,0 c -4.977701,0 -5.234752,6.478643 -5.216244,9.870413 l 3.932444,0 9.804912,0 13.737339,0 9.752467,0 3.984889,0 c 0.245647,-4.156383 -0.0504,-9.870413 -5.111648,-9.870413 l -8.625708,0 0,-9.870412 z"
       id="path12335-8"
       style="color:#bebebe;line-height:normal;font-family:'Bitstream Vera Sans';text-indent:0;text-align:start;text-decoration:none;text-decoration-line:none;text-transform:none;fill:#666666;stroke:none;stroke-width:2"
       inkscape:connector-curvature="0" />
    <path
       d="m 63.522279,11 c -6.345492,0 -11.482741,5.469812 -11.482741,12.295708 l 0,24.704177 c 0,6.825914 5.137249,12.352107 11.482741,12.352107 6.345493,0 11.430312,-5.526193 11.430312,-12.352107 l 0,-24.704177 C 74.952591,16.469812 69.867772,11 63.522279,11 Z"
       id="path4157"
       style="color:#bebebe;text-indent:0;text-decoration:none;text-decoration-line:none;text-transform:none;fill:#c29242;stroke:none;stroke-width:2"
       inkscape:connector-curvature="0" />
    <path
       inkscape:connector-curvature="0"
       id="path4155"
       d="m 56.706105,21.03969 13.527566,0 c 1.025743,0 1.83512,0.905597 1.83512,2.030491 0,1.124878 -0.809377,2.030492 -1.83512,2.030492 l -13.527625,0 c -1.025758,0 -1.83515,-0.905614 -1.83515,-2.030492 0,-1.124894 0.809392,-2.030491 1.83515,-2.030491 z"
       style="color:#bebebe;text-indent:0;text-decoration:none;text-decoration-line:none;text-transform:none;fill:#ffffff;stroke:none;stroke-width:2" />
    <path
       inkscape:connector-curvature="0"
       id="path4153"
       d="m 56.706105,28.935955 13.527566,0 c 1.025743,0 1.83512,0.905598 1.83512,2.030492 0,1.124878 -0.809377,2.030475 -1.83512,2.030475 l -13.527625,0 c -1.025758,0 -1.83515,-0.905597 -1.83515,-2.030475 0,-1.124894 0.809392,-2.030492 1.83515,-2.030492 z"
       style="color:#bebebe;text-indent:0;text-decoration:none;text-decoration-line:none;text-transform:none;fill:#ffffff;stroke:none;stroke-width:2" />
    <path
       inkscape:connector-curvature="0"
       id="path4151"
       d="m 56.706105,36.888686 13.527566,0 c 1.025743,0 1.83512,0.905597 1.83512,2.030491 0,1.124878 -0.809377,2.030475 -1.83512,2.030475 l -13.527625,0 c -1.025758,0 -1.83515,-0.905597 -1.83515,-2.030475 0,-1.124894 0.809392,-2.030491 1.83515,-2.030491 z"
       style="color:#bebebe;text-indent:0;text-decoration:none;text-decoration-line:none;text-transform:none;fill:#ffffff;stroke:none;stroke-width:2" />
    <path
       inkscape:connector-curvature="0"
       id="rect12327-3"
       d="m 56.706105,44.841416 13.527566,0 c 1.025743,0 1.83512,0.905581 1.83512,2.030475 0,1.124894 -0.809377,2.030491 -1.83512,2.030491 l -13.527625,0 c -1.025758,0 -1.83515,-0.905597 -1.83515,-2.030491 0,-1.124894 0.809392,-2.030475 1.83515,-2.030475 z"
       style="color:#bebebe;text-indent:0;text-decoration:none;text-decoration-line:none;text-transform:none;fill:#ffffff;stroke:none;stroke-width:2" />
    <path
       inkscape:connector-curvature="0"
       style="color:#bebebe;line-height:normal;font-family:'Bitstream Vera Sans';text-indent:0;text-align:start;text-decoration:none;text-decoration-line:none;text-transform:none;fill:#e6e6e6;stroke:#646464;stroke-width:1.69876921"
       id="path4179"
       d="m 45.187493,31.127633 c -1.106468,9.01e-4 -2.054185,0.852399 -2.252125,2.023423 l -0.02555,0.175662 0,0.176199 c -0.009,0.08912 -0.01343,0.179321 -0.01343,0.268974 8.24e-4,0.07818 0.0044,0.15621 0.01343,0.234 l 0,13.935441 c 0,12.33336 9.240721,22.330013 20.63685,22.330013 11.396113,0 20.633575,-9.996671 20.633575,-22.330013 l 8.19e-4,-14.438447 0,-0.17619 c -0.190418,-1.151212 -1.064729,-2.178506 -2.194782,-2.178506 -1.265166,0 -2.366762,1.065099 -2.366762,2.426053 0,0.186561 -0.02991,0.368455 0.0061,0.543706 l 0,13.823366 c 0,9.680215 -7.133633,17.40218 -16.078239,17.40218 -8.944606,0 -16.081383,-7.722 -16.081383,-17.40218 l 0,-13.925133 c 0.0075,-0.08124 0.01196,-0.162695 0.01343,-0.244329 -7.02e-4,-0.0793 -0.0044,-0.160069 -0.01343,-0.23902 l 0,-0.206137 -0.02555,-0.17619 c -0.19791,-1.171032 -1.145633,-2.022067 -2.252092,-2.022965 z" />
    <path
       inkscape:connector-curvature="0"
       style="fill:#9d1100;stroke:none;stroke-width:0.52700001"
       id="path7968-3"
       d="m 40.071403,70.464228 a 14.535717,14.511386 0 1 1 -29.071393,0 14.535717,14.511386 0 1 1 29.071393,0 z" />
  </g>
</svg>
