<?xml version="1.0" encoding="UTF-8" standalone="no"?>
<!-- Created with Inkscape (http://www.inkscape.org/) -->

<svg
   xmlns:dc="http://purl.org/dc/elements/1.1/"
   xmlns:cc="http://creativecommons.org/ns#"
   xmlns:rdf="http://www.w3.org/1999/02/22-rdf-syntax-ns#"
   xmlns:svg="http://www.w3.org/2000/svg"
   xmlns="http://www.w3.org/2000/svg"
   xmlns:sodipodi="http://sodipodi.sourceforge.net/DTD/sodipodi-0.dtd"
   xmlns:inkscape="http://www.inkscape.org/namespaces/inkscape"
   id="svg2"
   version="1.1"
   inkscape:version="0.91 r13725"
   width="96"
   height="96"
   sodipodi:docname="gnome-mahjongg.svg"
   viewBox="0 0 96 96">
  <metadata
     id="metadata8">
    <rdf:RDF>
      <cc:Work
         rdf:about="">
        <dc:format>image/svg+xml</dc:format>
        <dc:type
           rdf:resource="http://purl.org/dc/dcmitype/StillImage" />
        <dc:title />
      </cc:Work>
    </rdf:RDF>
  </metadata>
  <defs
     id="defs6" />
  <sodipodi:namedview
     pagecolor="#ffffff"
     bordercolor="#666666"
     borderopacity="1"
     objecttolerance="10"
     gridtolerance="10"
     guidetolerance="10"
     inkscape:pageopacity="0"
     inkscape:pageshadow="2"
     inkscape:window-width="960"
     inkscape:window-height="1011"
     id="namedview4"
     showgrid="false"
     inkscape:zoom="1.9887378"
     inkscape:cx="84.690461"
     inkscape:cy="6.119995"
     inkscape:window-x="0"
     inkscape:window-y="27"
     inkscape:window-maximized="0"
     inkscape:current-layer="svg2"
     showguides="false"
     inkscape:guide-bbox="true"
     inkscape:document-units="px">
    <sodipodi:guide
       orientation="0,1"
       position="139.98317,148.037"
       id="guide3786" />
    <sodipodi:guide
       orientation="0,1"
       position="165.2952,101.63162"
       id="guide3788" />
    <sodipodi:guide
       orientation="1,0"
       position="128.86122,133.07989"
       id="guide3790" />
    <sodipodi:guide
       orientation="1,0"
       position="230.10933,101.63162"
       id="guide3792" />
  </sodipodi:namedview>
  <rect
     style="opacity:1;fill:#782167;fill-opacity:1;fill-rule:evenodd;stroke:none;stroke-width:1;stroke-linecap:butt;stroke-linejoin:miter;stroke-miterlimit:4;stroke-dasharray:none;stroke-opacity:1"
     id="rect27527"
     width="84"
     height="84"
     x="6"
     y="6" />
  <g
     transform="matrix(0.84090909,0,0,0.84090909,-432.51948,-445.31753)"
     id="layer1"
     inkscape:label="Layer 1">
    <g
       transform="translate(539.42857,542.64788)"
       id="use217">
      <path
         d="M 9,0 C 8.47,0 7.96,0.21 7.59,0.59 l -7,7 C 0.21,7.96 0,8.47 0,9 l 0,77 c 0,1.1 0.9,2 2,2 l 53,0 c 0.53,0 1.04,-0.21 1.41,-0.59 l 7,-7 C 63.79,80.04 64,79.53 64,79 L 64,2 C 64,0.9 63.1,0 62,0 L 9,0 Z"
         id="path4264"
         inkscape:connector-curvature="0" />
      <path
         d="m 11.75,78.25 -9,9 9,0 43.25,0 c 0.33,0 0.65,-0.13 0.88,-0.37 l 7,-7 c 0.23,-0.23 0.37,-1.3 0.37,-1.63 l -51.5,0 z"
         id="path4266"
         style="fill:#9f9f9f"
         inkscape:connector-curvature="0" />
      <path
         d="m 8.12,1.12 -7,7 C 0.88,8.35 0.75,8.67 0.75,9 l 0,66.25 0,1 0,9 2,2 7,-7 0,-4 0,-1 0,-74.5 c -0.33,0 -1.4,0.13 -1.63,0.37 z"
         id="path4268"
         style="fill:#d7d7d7"
         inkscape:connector-curvature="0" />
      <path
         d="m 1.61,86.89 10.14,-10.14 0,-0.5 -10.41,10.41 c 0.08,0.09 0.17,0.16 0.27,0.23 z"
         id="path4270"
         style="fill:#bfbfbf"
         inkscape:connector-curvature="0" />
      <path
         d="m 1.93,87.07 9.82,-9.82 0,-0.5 -10.14,10.14 c 0.1,0.07 0.21,0.13 0.32,0.18 z"
         id="path4272"
         style="fill:#b7b7b7"
         inkscape:connector-curvature="0" />
      <path
         d="m 2.3,87.2 9.45,-9.45 0,-0.5 -9.82,9.82 c 0.12,0.05 0.24,0.1 0.37,0.13 z"
         id="path4274"
         style="fill:#afafaf"
         inkscape:connector-curvature="0" />
      <path
         d="M 11.75,77.75 2.3,87.2 c 0.14,0.03 0.29,0.05 0.45,0.05 l 9,-9 0,-0.5 z"
         id="path4276"
         style="fill:#a7a7a7"
         inkscape:connector-curvature="0" />
      <path
         d="m 1.34,86.66 10.41,-10.41 -0.5,0 -10.14,10.14 c 0.07,0.1 0.14,0.19 0.23,0.27 z"
         id="path4278"
         style="fill:#c7c7c7"
         inkscape:connector-curvature="0" />
      <path
         d="m 1.11,86.39 10.14,-10.14 -0.5,0 -9.82,9.82 c 0.05,0.11 0.11,0.22 0.18,0.32 z"
         id="path4280"
         style="fill:#cdcdcd"
         inkscape:connector-curvature="0" />
      <path
         d="m 0.93,86.07 9.82,-9.82 -0.5,0 -9.45,9.45 c 0.03,0.13 0.08,0.25 0.13,0.37 z"
         id="path4282"
         style="fill:#d2d2d2"
         inkscape:connector-curvature="0" />
      <path
         d="m 10.25,76.25 -0.5,0 -9,9 c 0,0.15 0.02,0.3 0.05,0.45 l 9.45,-9.45 z"
         id="path4284"
         style="fill:#d7d7d7"
         inkscape:connector-curvature="0" />
      <path
         d="m 63.25,78.25 0,-75.5 c 0,-1.1 -0.9,-2 -2,-2 l -50.5,0 c -1.1,0 -2,0.9 -2,2 l 0,75.5 c 0,1.1 0.9,2 2,2 l 50.5,0 c 1.1,0 2,-0.9 2,-2 z"
         id="path4286"
         style="fill:#f6f6f6"
         inkscape:connector-curvature="0" />
      <path
         d="m 8.75,78.25 0,-75.5 c 0,-1.1 0.9,-2 2,-2 l -1,0 c -1.1,0 -2,0.9 -2,2 l 0,75.5 c 0,1.1 0.9,2 2,2 l 1,0 c -1.1,0 -2,-0.9 -2,-2 z"
         id="path4288"
         style="fill:#ffffff"
         inkscape:connector-curvature="0" />
    </g>
    <path
       id="path903"
       d="m 568.42857,590.44788 c 0,0.1 -1.4,5.1 -5.1,7.1 -0.5,-0.6 -3.1,-4.2 -3.1,-4.2 l -0.9,0.5 4.4,11.4 1,-0.2 c 0,-2.2 1.1,-3.5 2.4,-4.9 1.8,-2.1 3.8,-4.5 2.3,-9.7 l -0.5,-1.7 -0.5,1.7 z"
       style="fill:#004c00"
       inkscape:connector-curvature="0" />
    <path
       id="path905"
       d="m 572.92857,579.64788 c 0,0 -0.5,4.9 -1.9,7.8 l -0.3,0.7 0.7,0.1 c 1.8,0.1 3.5,-3.7 4.1,-5.4 0.4,0 1.4,0.1 2,0.1 -0.3,1.2 -0.7,2.8 -0.7,3.8 0,0.4 0,0.7 0.2,0.9 l 0.5,0.3 c 0.8,0.1 5.2,-0.2 6.1,-0.3 l 0,-1 c -1.5,-0.2 -3.3,-0.7 -3.5,-1.2 -0.2,-0.6 0.6,-3 1.5,-5 l 0.3,-0.7 -9,-0.6 0,0.5 z"
       style="fill:#004c00"
       inkscape:connector-curvature="0" />
    <path
       id="path907"
       d="m 585.42857,589.24788 -14.7,0.4 c 0,0 4.9,6.3 5.4,6.9 -2.6,2.4 -4.9,4.2 -7,5.4 l -0.6,0.4 0.6,0.5 c 1.4,1.1 4.2,-0.2 8.6,-4.2 2.3,3.2 3.8,5.5 4.3,6.9 l 0.2,0.7 2.7,-2.2 0,-0.2 0,-0.3 c 0,-0.5 0,-2.1 -4.7,-7.3 3,-3.1 5.6,-6 5.6,-6.1 l 0.7,-0.9 -1.1,0 z m -4.7,2.8 c -0.8,0.9 -1.7,1.8 -2.1,2.3 -0.4,-0.4 -1.2,-1.2 -1.9,-1.9 1.1,-0.2 2.7,-0.3 4,-0.4 z"
       style="fill:#004c00"
       inkscape:connector-curvature="0" />
    <path
       id="path909"
       d="m 574.52857,567.84788 -1.7,1.7 -4.5,-5.2 -0.2,0 c -0.7,0 -4.3,0.1 -5.2,1.4 -0.1,0.1 -0.1,0.3 -0.1,0.4 0,0.1 0,0.1 0,0.2 0.1,0.5 0.7,0.7 1.8,1.1 0.5,0.2 1.2,0.5 1.5,0.7 -1.1,2.3 -2.3,4.4 -3.7,6.4 -0.7,-0.4 -4.1,-2.5 -4.1,-2.5 l -0.6,0.8 c 0,0 2.8,3.1 3.3,3.6 -2.8,3.5 -6.2,6.6 -10.4,9.5 l 0.4,0.9 c 12.8,-3.3 21.9,-16.2 22.1,-16.5 l 2.3,2.2 c -3.2,2 -6.2,3.8 -6.2,3.8 l 0.5,0.9 c 2,-0.8 4.8,-1.9 7.6,-3 l 11.1,10.8 10.8,-3.8 -0.1,-1 c -5.1,-0.2 -12,-4.4 -17.1,-7.9 2.9,-1 5.3,-1.7 6.4,-1.6 0.7,0 0.9,-0.3 1,-0.5 0.4,-1.1 -3.5,-4.4 -11.4,-9.7 l -0.5,-0.3 -0.2,0.6 m 1,8.8 c 0.7,-1.2 1.6,-2.9 1.9,-3.3 0.5,0.3 1.8,1.1 2.5,1.6 -0.4,0.2 -1.9,1.1 -3.7,2.3 -0.2,-0.2 -0.4,-0.4 -0.7,-0.6 z"
       style="fill:#004c00"
       inkscape:connector-curvature="0" />
    <path
       id="path911"
       d="m 570.32857,578.04788 -6.2,3.5 0.3,0.9 c 0,0 1.1,-0.1 1.8,-0.1 -0.2,0.7 -0.6,1.8 -1.1,3.2 -0.6,0 -5,-0.2 -5,-0.2 l 0.8,0.9 c 0.3,0.3 1.6,1.7 2.7,1.7 0,0 0.3,-0.1 0.6,-0.1 -0.8,2 -1.7,3.7 -2.6,5 l 0.7,0.7 c 1.5,-1.2 3.2,-3.4 4.8,-6.4 0.3,-0.1 1.2,-0.4 1.2,-0.4 l -0.1,-1 c 0,0 -0.2,0 -0.4,0 1.8,-3.6 3.1,-7.1 3.1,-7.1 l 0.5,-1.3 -1.1,0.7 z"
       style="fill:#004c00"
       inkscape:connector-curvature="0" />
  </g>
</svg>
