<?xml version="1.0" encoding="UTF-8" standalone="no"?>
<!-- Created with Inkscape (http://www.inkscape.org/) -->

<svg
   xmlns:dc="http://purl.org/dc/elements/1.1/"
   xmlns:cc="http://creativecommons.org/ns#"
   xmlns:rdf="http://www.w3.org/1999/02/22-rdf-syntax-ns#"
   xmlns:svg="http://www.w3.org/2000/svg"
   xmlns="http://www.w3.org/2000/svg"
   xmlns:sodipodi="http://sodipodi.sourceforge.net/DTD/sodipodi-0.dtd"
   xmlns:inkscape="http://www.inkscape.org/namespaces/inkscape"
   width="96"
   height="96"
   viewBox="0 0 96.000001 96.000002"
   id="svg4147"
   version="1.1"
   inkscape:version="0.91 r13725"
   sodipodi:docname="gnome-subtitles.svg">
  <defs
     id="defs4149" />
  <sodipodi:namedview
     id="base"
     pagecolor="#ffffff"
     bordercolor="#666666"
     borderopacity="1.0"
     inkscape:pageopacity="0.0"
     inkscape:pageshadow="2"
     inkscape:zoom="3.959798"
     inkscape:cx="-1.7092061"
     inkscape:cy="56.402224"
     inkscape:document-units="px"
     inkscape:current-layer="layer1"
     showgrid="false"
     units="px" />
  <metadata
     id="metadata4152">
    <rdf:RDF>
      <cc:Work
         rdf:about="">
        <dc:format>image/svg+xml</dc:format>
        <dc:type
           rdf:resource="http://purl.org/dc/dcmitype/StillImage" />
        <dc:title />
      </cc:Work>
    </rdf:RDF>
  </metadata>
  <g
     inkscape:label="Layer 1"
     inkscape:groupmode="layer"
     id="layer1"
     transform="translate(0,-956.36216)">
    <g
       id="g4209"
       transform="matrix(1,0,0,0.92161015,4.9999926e-8,963.41725)"
       style="fill:#ff7f2a">
      <path
         inkscape:connector-curvature="0"
         id="rect4156"
         d="m 6.0566409,-1.144829 c -0.031364,0 -0.056641,0.025277 -0.056641,0.056641 l 0,69.886719 c 0,0.03136 0.025277,0.05664 0.056641,0.05664 l 83.8867181,0 c 0.03136,0 0.05664,-0.02528 0.05664,-0.05664 L 90,-1.0881884 c 0,-0.031364 -0.02528,-0.056641 -0.05664,-0.056641 l -83.8867181,0 z m 5.1718751,5.0957036 73.896484,0 c 0.02881,0 0.05273,0.02393 0.05273,0.05273 l 0,16.1445314 c 0,0.02881 -0.02393,0.05078 -0.05273,0.05078 l -73.896484,0 c -0.02881,0 -0.05078,-0.02197 -0.05078,-0.05078 l 0,-16.1445314 c 0,-0.02881 0.02197,-0.05274 0.05078,-0.05273 z m -0.0293,21.6855464 73.896484,0 c 0.02881,0 0.05078,0.02392 0.05078,0.05273 l 0,16.144531 c 0,0.02881 -0.02197,0.05273 -0.05078,0.05273 l -73.896484,0 c -0.02881,0 -0.05274,-0.02392 -0.05274,-0.05273 l 0,-16.144531 c 0,-0.02881 0.02393,-0.05273 0.05274,-0.05273 z m 0,21.978516 73.896484,0 c 0.02881,0 0.05078,0.02197 0.05078,0.05078 l 0,16.144531 c 0,0.02881 -0.02197,0.05273 -0.05078,0.05273 l -73.896484,0 c -0.02881,0 -0.05274,-0.02393 -0.05274,-0.05273 l 0,-16.144531 c 0,-0.02881 0.02393,-0.05078 0.05274,-0.05078 z"
         style="opacity:1;fill:#ff7f2a;fill-opacity:1;fill-rule:evenodd;stroke:none;stroke-width:1;stroke-linecap:butt;stroke-linejoin:miter;stroke-miterlimit:4;stroke-dasharray:none;stroke-opacity:1" />
      <path
         d="m 79.484689,64.153846 -52.483815,0 L 16.501312,90 M 79.498687,64.153846"
         id="path57"
         inkscape:connector-curvature="0"
         style="fill:#ff7f2a;fill-opacity:1;fill-rule:nonzero;stroke:none" />
    </g>
  </g>
</svg>
