<?xml version="1.0" encoding="UTF-8" standalone="no"?>
<svg
   xmlns:dc="http://purl.org/dc/elements/1.1/"
   xmlns:cc="http://creativecommons.org/ns#"
   xmlns:rdf="http://www.w3.org/1999/02/22-rdf-syntax-ns#"
   xmlns:svg="http://www.w3.org/2000/svg"
   xmlns="http://www.w3.org/2000/svg"
   xmlns:sodipodi="http://sodipodi.sourceforge.net/DTD/sodipodi-0.dtd"
   xmlns:inkscape="http://www.inkscape.org/namespaces/inkscape"
   width="96"
   version="1.1"
   viewBox="0 0 96 96"
   height="96"
   id="svg2"
   inkscape:version="0.91 r13725"
   sodipodi:docname="google-earth.svg">
  <metadata
     id="metadata13">
    <rdf:RDF>
      <cc:Work
         rdf:about="">
        <dc:format>image/svg+xml</dc:format>
        <dc:type
           rdf:resource="http://purl.org/dc/dcmitype/StillImage" />
        <dc:title></dc:title>
      </cc:Work>
    </rdf:RDF>
  </metadata>
  <sodipodi:namedview
     pagecolor="#ffffff"
     bordercolor="#666666"
     borderopacity="1"
     objecttolerance="10"
     gridtolerance="10"
     guidetolerance="10"
     inkscape:pageopacity="0"
     inkscape:pageshadow="2"
     inkscape:window-width="640"
     inkscape:window-height="480"
     id="namedview11"
     showgrid="false"
     inkscape:zoom="2.2391715"
     inkscape:cx="13.394042"
     inkscape:cy="50.895239"
     inkscape:current-layer="svg2" />
  <defs
     id="defs27" />
  <g
     id="g4141"
     transform="matrix(1.9090909,0,0,1.9090909,2.1818184,2.1818184)">
    <path
       d="M 46,24 A 22,22 0 0 1 2,24 22,22 0 1 1 46,24 Z"
       id="path3840"
       style="fill:#2853c8;stroke:none"
       inkscape:connector-curvature="0" />
    <g
       id="g6"
       style="fill:#ffffff">
      <path
         d="m 24,2.825 c -2.66421,0 -5.2129,0.49335 -7.56141,1.39168 0.90145,-0.123567 1.98074,-0.200017 3.27599,-0.200017 7.38724,0 11.5762,3.21495 14.6209,6.62293 2.03189,2.27445 5.56069,9.0521 8.18125,9.0521 0.762485,-0.066 1.36162,-0.657251 1.83297,-1.56255 C 41.80429,9.290633 33.6577,2.825043 24,2.825043 Z"
         id="path71"
         inkscape:connector-curvature="0" />
      <path
         d="m 11.0444,13.7944 c 7.15386,0 19.7423,15.1575 33.1154,16.6969 0.341183,-1.0604 0.602252,-2.15692 0.773483,-3.28259 -6.08008,-1.3244 -13.7234,-8.41923 -16.4725,-11.0921 -4.29715,-4.17835 -8.30793,-8.37229 -13.8111,-8.37229 -1.87734,0 -3.60049,0.323034 -5.09153,0.771468 -2.76155,2.57675 -4.83341,5.88262 -5.90757,9.61181 2.20698,-2.20606 4.72909,-4.33327 7.39367,-4.33327 z"
         id="path82"
         inkscape:connector-curvature="0" />
      <path
         d="m 32.2729,37.5896 c -12.2833,0 -21.5646,-6.62293 -24.8647,-6.62293 -1.34567,0 -2.12209,0.940132 -2.56996,2.05352 2.12007,4.49553 5.7752,8.12423 10.29,10.2108 -0.636534,-1.6357 -1.02043,-3.80032 1.40837,-3.80032 2.14647,0 4.28542,1.84855 12.2069,1.84855 3.61699,0 6.94817,-0.754602 9.3973,-1.51929 1.29653,-1.16417 2.44916,-2.48545 3.42669,-3.93471 -2.33969,0.833068 -5.74714,1.7644 -9.29463,1.7644 z"
         id="path93"
         inkscape:connector-curvature="0" />
    </g>
  </g>
</svg>
