<?xml version="1.0" encoding="UTF-8" standalone="no"?>
<svg
   xmlns:dc="http://purl.org/dc/elements/1.1/"
   xmlns:cc="http://creativecommons.org/ns#"
   xmlns:rdf="http://www.w3.org/1999/02/22-rdf-syntax-ns#"
   xmlns:svg="http://www.w3.org/2000/svg"
   xmlns="http://www.w3.org/2000/svg"
   xmlns:sodipodi="http://sodipodi.sourceforge.net/DTD/sodipodi-0.dtd"
   xmlns:inkscape="http://www.inkscape.org/namespaces/inkscape"
   width="96"
   version="1.1"
   height="96"
   id="svg4744"
   inkscape:version="0.91 r13725"
   sodipodi:docname="gufw.svg">
  <metadata
     id="metadata4755">
    <rdf:RDF>
      <cc:Work
         rdf:about="">
        <dc:format>image/svg+xml</dc:format>
        <dc:type
           rdf:resource="http://purl.org/dc/dcmitype/StillImage" />
        <dc:title></dc:title>
      </cc:Work>
    </rdf:RDF>
  </metadata>
  <defs
     id="defs4753" />
  <sodipodi:namedview
     pagecolor="#ffffff"
     bordercolor="#666666"
     borderopacity="1"
     objecttolerance="10"
     gridtolerance="10"
     guidetolerance="10"
     inkscape:pageopacity="0"
     inkscape:pageshadow="2"
     inkscape:window-width="640"
     inkscape:window-height="480"
     id="namedview4751"
     showgrid="false"
     inkscape:zoom="3.3125"
     inkscape:cx="56.53794"
     inkscape:cy="40.530763"
     inkscape:current-layer="svg4744" />
  <rect
     style="opacity:1;fill:#ffdd55;fill-opacity:1;fill-rule:nonzero;stroke:none;stroke-width:6;stroke-linecap:square;stroke-linejoin:miter;stroke-miterlimit:4;stroke-dasharray:none;stroke-opacity:1"
     id="rect8150"
     width="84"
     height="84"
     x="6"
     y="6" />
  <path
     inkscape:connector-curvature="0"
     d="m 16.657559,11.000053 0,5.241837 0,31.339852 c 0,10.826454 7.806111,19.300591 14.778931,25.540371 6.97282,6.239674 13.886615,10.316489 13.886615,10.316489 L 48.055817,85 l 2.67686,-1.617251 c 0,0 6.87602,-4.144154 13.830851,-10.428017 6.95483,-6.283862 14.778931,-14.689585 14.778931,-25.37299 l 0,-31.339852 0,-5.24189 -5.186567,0 -52.311784,0 -5.186567,0 z"
     id="path4162"
     style="color:#bebebe;line-height:normal;font-family:Sans;text-indent:0;text-align:start;text-decoration:none;text-decoration-line:none;text-transform:none;fill:#ff5555;stroke:none;stroke-width:5.85699987" />
  <path
     inkscape:connector-curvature="0"
     d="m 27.086439,21.428052 41.827228,0 0,26.15369 c 0,4.806225 -5.265818,12.100081 -11.376996,17.621674 -3.985549,3.601048 -7.286527,5.924839 -9.592365,7.472495 C 45.63424,71.157246 42.336503,68.88641 38.407706,65.370726 32.314517,59.9182 27.086492,52.698027 27.086492,47.581671 l 0,-26.153689 z"
     id="path4160"
     style="color:#bebebe;line-height:normal;font-family:Sans;text-indent:0;text-align:start;text-decoration:none;text-decoration-line:none;text-transform:none;fill:#ffdd55;stroke:none;stroke-width:5.85699987" />
  <path
     inkscape:connector-curvature="0"
     d="m 52.96351,23.993207 -23.200211,21.246437 0,1.505722 c 0,4.046775 3.807067,9.621084 8.476974,14.164274 l 27.996287,-25.596047 0,-11.320263 -13.273156,0 z"
     id="rect3259-2-8"
     style="color:#bebebe;line-height:normal;font-family:Sans;text-indent:0;text-align:start;text-decoration:none;text-decoration-line:none;text-transform:none;fill:#ff5555;stroke:none;stroke-width:5.85699987" />
</svg>
