<?xml version="1.0" encoding="UTF-8" standalone="no"?>
<svg
   xmlns:dc="http://purl.org/dc/elements/1.1/"
   xmlns:cc="http://creativecommons.org/ns#"
   xmlns:rdf="http://www.w3.org/1999/02/22-rdf-syntax-ns#"
   xmlns:svg="http://www.w3.org/2000/svg"
   xmlns="http://www.w3.org/2000/svg"
   xmlns:xlink="http://www.w3.org/1999/xlink"
   xmlns:sodipodi="http://sodipodi.sourceforge.net/DTD/sodipodi-0.dtd"
   xmlns:inkscape="http://www.inkscape.org/namespaces/inkscape"
   width="96"
   version="1.1"
   height="96"
   id="svg4161"
   inkscape:version="0.91 r13725"
   sodipodi:docname="gnochm.svg">
  <metadata
     id="metadata4178">
    <rdf:RDF>
      <cc:Work
         rdf:about="">
        <dc:format>image/svg+xml</dc:format>
        <dc:type
           rdf:resource="http://purl.org/dc/dcmitype/StillImage" />
        <dc:title></dc:title>
      </cc:Work>
    </rdf:RDF>
  </metadata>
  <sodipodi:namedview
     pagecolor="#ffffff"
     bordercolor="#666666"
     borderopacity="1"
     objecttolerance="10"
     gridtolerance="10"
     guidetolerance="10"
     inkscape:pageopacity="0"
     inkscape:pageshadow="2"
     inkscape:window-width="640"
     inkscape:window-height="480"
     id="namedview4176"
     showgrid="false"
     inkscape:zoom="4.478343"
     inkscape:cx="33.647488"
     inkscape:cy="44.782285"
     inkscape:current-layer="svg4161" />
  <defs
     id="defs5455">
    <linearGradient
       id="linearGradient4168">
      <stop
         offset="0"
         style="stop-color:#cea476"
         id="stop4170" />
      <stop
         offset="1"
         style="stop-color:#dab58b"
         id="stop4172" />
    </linearGradient>
    <linearGradient
       gradientTransform="matrix(0.91667077,0,0,0.92523272,33.977845,39.457493)"
       xlink:href="#linearGradient4168"
       id="linearGradient4385"
       y1="44"
       x1="24.000011"
       y2="4.0000038"
       gradientUnits="userSpaceOnUse"
       x2="24.000011" />
  </defs>
  <g
     id="g26215"
     transform="matrix(2.0999984,0,0,2.1,-2.3999301,-2.4)">
    <g
       transform="translate(-384.57143,-499.798)"
       id="layer1"
       style="stroke:none">
      <g
         id="g10"
         style="stroke-width:2.79999995;stroke-opacity:0.55">
        <path
           d="m 408.5714,503.798 c -11.08,0 -20,8.92 -20,20 0,11.08 8.92,20 20,20 11.08,0 20,-8.92 20,-20 0,-11.08 -8.92,-20 -20,-20 z m 0,11.1111 c 4.92444,0 8.88888,3.96444 8.88888,8.88888 0,4.92444 -3.96444,8.88888 -8.88888,8.88888 -4.92444,0 -8.88888,-3.96444 -8.88888,-8.88888 0,-4.92444 3.96444,-8.88888 8.88888,-8.88888 z"
           id="rect4152"
           style="fill:#c61423"
           inkscape:connector-curvature="0" />
        <path
           transform="translate(384.57143,499.798)"
           d="M 4.0117188,23.5 C 4.007647,23.666859 4,23.832126 4,24 4,35.08 12.92,44 24,44 35.08,44 44,35.08 44,24 44,23.832126 43.9924,23.666859 43.98828,23.5 43.72361,34.346137 34.912126,43 24,43 13.087874,43 4.2763904,34.346137 4.0117188,23.5 Z"
           id="path4180"
           style="opacity:0.4"
           inkscape:connector-curvature="0" />
      </g>
      <path
         transform="translate(384.57143,499.798)"
         d="M 15.9375,7.5 C 11.79807,9.51843 8.54528,13.03458 6.875,17.36328 l 6.9746,3.9844 c 0.832771,-3.21533 3.1335,-5.82389 6.16016,-7.0625 l -4.0723,-6.7852 z m 16.125,0 -4.0723,6.7852 c 3.02665,1.23861 5.32739,3.84717 6.16016,7.0625 l 6.9746,-3.9844 C 39.45468,13.0346 36.20189,9.51845 32.06246,7.50002 Z M 13.8496,26.6523 6.875,30.6367 c 1.67028,4.3287 4.92307,7.84485 9.0625,9.86328 l 4.0723,-6.7852 c -3.02665,-1.23862 -5.32739,-3.84717 -6.16016,-7.0625 z m 20.3008,0 c -0.832771,3.21533 -3.1335,5.82388 -6.16016,7.0625 l 4.0723,6.7852 c 4.13943,-2.01843 7.39222,-5.53458 9.0625,-9.86328 l -6.9746,-3.9844 z"
         id="path4412"
         style="fill:#ffffff;fill-rule:evenodd"
         inkscape:connector-curvature="0" />
      <g
         id="g15"
         style="stroke-width:2.79999995;stroke-opacity:0.55">
        <path
           d="m 396.1709,510.9382 c -0.76331,0 -1.37784,0.61453 -1.37784,1.37785 0,0.76331 0.61453,1.37784 1.37784,1.37784 0.76332,0 1.37785,-0.61453 1.37785,-1.37784 0,-0.76332 -0.61453,-1.37785 -1.37785,-1.37785 z m 24.8011,0 c -0.76332,0 -1.37785,0.61453 -1.37785,1.37785 0,0.76331 0.61453,1.37784 1.37785,1.37784 0.76331,0 1.37784,-0.61453 1.37784,-1.37784 0,-0.76332 -0.61453,-1.37785 -1.37784,-1.37785 z m -24.8011,0.9186 c 0.25444,0 0.45929,0.20484 0.45929,0.45928 0,0.25443 -0.20485,0.45928 -0.45929,0.45928 -0.25443,0 -0.45928,-0.20485 -0.45928,-0.45928 0,-0.25444 0.20485,-0.45928 0.45928,-0.45928 z m 24.8011,0 c 0.25443,0 0.45928,0.20484 0.45928,0.45928 0,0.25443 -0.20485,0.45928 -0.45928,0.45928 -0.25444,0 -0.45928,-0.20485 -0.45928,-0.45928 0,-0.25444 0.20484,-0.45928 0.45928,-0.45928 z m -24.8011,22.0454 c -0.76331,0 -1.37784,0.61453 -1.37784,1.37785 0,0.76331 0.61453,1.37784 1.37784,1.37784 0.76332,0 1.37785,-0.61453 1.37785,-1.37784 0,-0.76332 -0.61453,-1.37785 -1.37785,-1.37785 z m 24.8011,0 c -0.76332,0 -1.37785,0.61453 -1.37785,1.37785 0,0.76331 0.61453,1.37784 1.37785,1.37784 0.76331,0 1.37784,-0.61453 1.37784,-1.37784 0,-0.76332 -0.61453,-1.37785 -1.37784,-1.37785 z m -24.8011,0.9186 c 0.25444,0 0.45929,0.20485 0.45929,0.45929 0,0.25443 -0.20485,0.45928 -0.45929,0.45928 -0.25443,0 -0.45928,-0.20485 -0.45928,-0.45928 0,-0.25444 0.20485,-0.45929 0.45928,-0.45929 z m 24.8011,0 c 0.25443,0 0.45928,0.20485 0.45928,0.45929 0,0.25443 -0.20485,0.45928 -0.45928,0.45928 -0.25444,0 -0.45928,-0.20485 -0.45928,-0.45928 0,-0.25444 0.20484,-0.45929 0.45928,-0.45929 z"
           id="rect4393"
           style="fill:#7e1722"
           inkscape:connector-curvature="0" />
        <path
           d="m 396.1709,511.8567 c -0.25444,0 -0.45928,0.20484 -0.45928,0.45928 0,0.15948 0.0854,0.29268 0.20811,0.37496 -2.44086,3.13987 -3.91643,7.08273 -3.91643,11.4013 0,4.19514 1.40508,8.02565 3.72268,11.1196 -0.004,0.0232 -0.0144,0.0439 -0.0144,0.0682 0,0.25445 0.20484,0.45928 0.45928,0.45928 0.25445,0 0.45928,-0.20483 0.45928,-0.45928 0,-0.0298 -0.0107,-0.0561 -0.0161,-0.0843 l 0.14711,0 c -0.0422,-0.12697 -0.0995,-0.23874 -0.17403,-0.31396 -2.29167,-2.97597 -3.66706,-6.71157 -3.66706,-10.7895 0,-0.50973 0.0225,-1.01418 0.0646,-1.51239 0.29451,-3.48738 1.59726,-6.67133 3.60247,-9.27531 0.31153,-0.31443 0.35662,-1.23999 0,-1.44781 -0.0358,0.041 -0.0668,0.0861 -0.10226,0.12738 -0.0822,-0.0777 -0.19142,-0.12738 -0.31396,-0.12738 z m 24.3167,0 c -0.35662,0.20782 -0.31153,1.13338 0,1.44781 2.00521,2.60398 3.30796,5.78793 3.60248,9.27531 0.0421,0.49821 0.0646,1.00266 0.0646,1.5124 0,4.07793 -1.3754,7.81352 -3.66707,10.7895 -0.0745,0.0752 -0.13184,0.18699 -0.17402,0.31396 l 0.10585,0 0.0951,0.0969 c 0.007,0.2426 0.19928,0.43432 0.44134,0.44314 l 0.004,0.004 c 0,0 0.002,-0.002 0.002,-0.002 0.004,9e-5 0.007,0.002 0.0108,0.002 0.25444,0 0.45928,-0.20483 0.45928,-0.45928 0,-0.0497 -0.0143,-0.0952 -0.0287,-0.13993 2.28553,-3.08145 3.66886,-6.88511 3.66886,-11.0478 0,-4.30465 -1.46639,-8.23581 -3.89311,-11.3708 0.14882,-0.0758 0.25291,-0.22634 0.25291,-0.40546 0,-0.25444 -0.20483,-0.45928 -0.45928,-0.45928 -0.14271,0 -0.26393,0.0689 -0.34804,0.17044 -0.0472,-0.0553 -0.0885,-0.11568 -0.13635,-0.17044 z"
           id="path4379"
           style="fill:url(#linearGradient4385)"
           inkscape:connector-curvature="0" />
      </g>
    </g>
  </g>
</svg>
