<svg width="48" version="1.0" xmlns="http://www.w3.org/2000/svg" viewBox="0 0 56.25 53.625" height="48" style="overflow:visible">
<g style="fill-rule:evenodd;stroke:none" id="g4">
<path style="opacity:.7" id="path3834" d="m 4.5854,12.8866 c 0.012576,8.95969 11.0655,5.42324 11.479,9.40303 0.66836,6.4322 -17.6565,24.9942 7.89695,29.8373 14.0986,2.67207 29.104,-6.23212 27.5985,-23.9756 -1.35395,-15.9572 -14.5503,-26.3882 -27.7613,-26.3771 -12.7005,0.0106237 -19.2222,4.69978 -19.2131,11.1125 Z  m 14.4099,-5.9024 c 3.59514,0 6.51295,2.04246 6.51295,4.55906 3e-06,2.5166 -2.9178,4.55905 -6.51295,4.55905 -3.59514,0 -6.51295,-2.04246 -6.51295,-4.55905 0,-2.5166 2.9178,-4.55906 6.51295,-4.55906 z "/>
<path style="fill:#e8be44" id="path2193" d="m 4.5854,12.1437 c 0.012576,8.95969 12.1371,5.4563 11.479,9.40303 -1.09337,6.55803 -18.034,24.4908 7.89695,29.8373 14.054,2.89764 29.104,-6.23212 27.5985,-23.9756 -1.35395,-15.9572 -14.5503,-26.3882 -27.7613,-26.3771 -12.7005,0.0106236 -19.2222,4.69978 -19.2131,11.1125 Z  m 14.4099,-5.9024 c 3.59514,0 6.51295,2.04246 6.51295,4.55905 3e-06,2.5166 -2.9178,4.55905 -6.51295,4.55905 -3.59514,0 -6.51295,-2.04246 -6.51295,-4.55905 0,-2.5166 2.9178,-4.55905 6.51295,-4.55905 z "/>
<path style="opacity:.7" id="path3787" d="m 31.0267,48.5891 c -0.828552,0.500689 0.06041,1.07585 0.460246,1.41091 0.31711,0.265738 -0.159113,1.55006 -0.727018,0.982493 -0.654466,-0.654081 -1.07584,-1.56405 -1.33254,-1.58736 -1.47539,-0.134052 -0.339405,1.81394 -1.52667,1.38551 -0.710457,-0.256367 0.173497,-1.33259 -0.775222,-1.66289 -0.753699,-0.262403 -0.678812,0.543948 -1.11463,0.15105 -2.05169,-1.8497 -0.973268,-3.45648 -0.02377,-4.71131 0.949507,-1.25485 2.82523,-1.38941 4.21617,-0.276695 1.39092,1.11272 1.75983,3.04282 0.823427,4.30825 z "/>
<path style="fill:#4f8b14" id="path1937" d="m 30.8292,48.194 c -0.828552,0.500689 0.06041,1.07585 0.460245,1.41092 0.31711,0.265737 -0.159113,1.55006 -0.727018,0.982492 -0.654465,-0.654082 -1.07584,-1.56405 -1.33254,-1.58736 -1.47539,-0.13405 -0.339404,1.81394 -1.52666,1.38551 -0.710457,-0.256367 0.173496,-1.33259 -0.775223,-1.66289 -0.7537,-0.262405 -0.678813,0.543947 -1.11463,0.151047 -2.05169,-1.84969 -0.973268,-3.45648 -0.02377,-4.71131 0.949505,-1.25485 2.82523,-1.38941 4.21616,-0.276693 1.39092,1.11272 1.75983,3.04282 0.823428,4.30825 z "/>
<path style="opacity:.7" id="path3789" d="m 46.5757,28.3297 c -0.74401,0 -0.89302,0.513455 -1.24362,0.844237 -0.27806,0.262337 -1.4501,-0.257127 -0.86557,-0.720106 0.673622,-0.533551 0.821593,-1.16382 0.86557,-1.39048 0.252782,-1.30275 -2.24322,-0.669402 -1.72977,-1.69004 0.373872,-0.743194 1.73347,-0.03558 1.72977,-0.420547 -0.0057,-0.593588 -0.354803,-1.49034 0.389046,-1.637 1.56513,-0.308568 3.3668,0.770389 4.21544,1.63526 0.811399,0.826921 0.361342,2.27293 -0.118404,3.30014 -0.293121,0.627596 -0.964786,1.9049 -1.74364,1.75113 -0.883769,-0.17448 0.374682,-1.67257 -1.49883,-1.67257 z "/>
<path style="fill:#429eff" id="path2876" d="m 46.3782,27.9346 c -0.74401,0 -0.89302,0.513456 -1.24362,0.844237 -0.27806,0.262337 -1.4501,-0.257127 -0.865572,-0.720107 0.673622,-0.533548 0.821595,-1.16382 0.865572,-1.39048 0.252781,-1.30275 -2.24322,-0.669403 -1.72977,-1.69004 0.373874,-0.743195 1.73348,-0.03557 1.72977,-0.420546 -0.0057,-0.593588 -0.354804,-1.49034 0.389045,-1.637 1.56512,-0.308569 3.3668,0.770387 4.21544,1.63526 0.811398,0.82692 0.361343,2.27293 -0.118404,3.30014 -0.293121,0.627598 -0.964787,1.9049 -1.74364,1.75113 -0.88377,-0.17448 0.374682,-1.67257 -1.49883,-1.67257 z "/>
<path style="opacity:.7" id="path3791" d="m 42.8999,43.7226 c 0.711811,0 1.90641,0.120151 2.22079,0.489877 0.735108,0.864529 1.38734,-0.272646 0.828114,-0.763569 -0.644471,-0.565756 -1.50103,-0.891376 -1.54311,-1.13171 -0.241841,-1.38137 1.61098,-0.463599 1.12678,-1.54986 -0.289746,-0.650018 -1.18969,0.269023 -1.56573,-0.599938 -0.298737,-0.690332 0.435872,-0.683433 0.04525,-1.06353 -1.83895,-1.78945 -3.20231,-0.645005 -4.25823,0.349986 -1.05595,0.995013 -1.02403,2.77531 0.09504,3.99961 0.459598,0.502822 0.685441,1.71147 1.27158,1.85681 0.841055,0.208561 -0.01288,-1.5877 1.77953,-1.5877 z "/>
<path style="fill:#ef2929" id="path2852" d="m 42.7138,43.3503 c 0.711812,0 1.90641,0.120151 2.22079,0.489877 0.735107,0.864529 1.38734,-0.272645 0.828114,-0.763569 -0.644471,-0.565755 -1.50103,-0.891377 -1.54311,-1.13171 -0.24184,-1.38137 1.61098,-0.463599 1.12678,-1.54986 -0.289747,-0.650015 -1.18969,0.269023 -1.56573,-0.599936 -0.298736,-0.690333 0.435873,-0.683435 0.04525,-1.06354 -1.83895,-1.78945 -3.2023,-0.645003 -4.25823,0.349987 -1.05595,0.995012 -1.02403,2.77531 0.09505,3.99961 0.459598,0.50282 0.68544,1.71147 1.27158,1.85682 0.841056,0.20856 -0.01288,-1.5877 1.77953,-1.5877 z "/>
</g>
<g style="fill:#002978" id="g4173" transform="matrix(0.86423816,0,0,0.86423824,9.3382535,7.8132966)">
<path id="path4162" d="m 26.4747,7.3375 -.056,9.4846 6.9203,-9.2607 5.5766,1.2766 -7.2003,9.2607 7.1443,9.8206 -5.4646,1.7357 -6.9763,-10.2125 0,9.2047 -5.1846,.7839 0,-21.5896 5.2406,-.5039 z "/>
<path id="path35" d="m 14.5938,12.6005 c 0.05926,-0.0061 0.115115,-0.000968 0.167969,0.03359 l 3.9305,2.5755 c 0.000896,0.000538 -0.000895,0.01066 0,0.0112 0.484823,-0.264091 0.994916,-0.487066 1.52292,-0.671875 v 2.15 c -2.90114,1.30558 -4.92708,4.21545 -4.92708,7.60339 0,4.60581 3.73664,8.34245 8.34245,8.34245 3.24129,0 6.05548,-1.84615 7.43542,-4.54635 1.15383,1.68917 2.03802,2.98984 2.03802,2.98984 0.03942,0.05769 0.112875,0.08761 0.179167,0.06719 l .4591,-.1456 1.3997,2.3068 c 0.06378,0.104812 0.04228,0.237845 -0.04479,0.324739 l -2.0492,2.0604 c -0.08976,0.08921 -0.230051,0.102573 -0.335938,0.03359 l -3.8409,-2.5195 c -0.78403,0.46153 -1.63168,0.821391 -2.53073,1.0638 l -1.075,4.3896 c -0.02903,0.119504 -0.135361,0.201562 -0.257553,0.201562 h -2.91146 c -0.126043,0 -0.23211,-0.08931 -0.257552,-0.21276 l -.907,-4.3672 c -0.87173,-0.235425 -1.69922,-0.588923 -2.46354,-1.03021 l -3.8969,2.3628 c -0.104812,0.0638 -0.237935,0.05294 -0.324739,-0.03359 l -2.0604,-2.0604 c -0.0894,-0.08922 -0.102931,-0.230229 -0.03359,-0.335937 l 2.4859,-3.7849 c -0.468966,-0.8247 -0.823273,-1.73013 -1.0526,-2.6763 l -4.2888,-1.0414 c -0.119146,-0.02903 -0.21276,-0.134465 -0.21276,-0.257552 v -2.91146 c 0,-0.126133 0.08967,-0.243308 0.21276,-0.26875 l 4.4232,-.9182 c 0.244381,-0.817265 0.59152,-1.58814 1.01901,-2.30677 l -2.4076,-3.9753 c -0.06351,-0.105081 -0.05294,-0.237935 0.03359,-0.32474 l 2.0604,-2.0604 c 0.04461,-0.0447 0.10871,-0.06107 0.167969,-0.06719 z "/>
</g>
<g style="fill-rule:evenodd;stroke:none">
<path style="opacity:.7" id="path4191" d="m 16.2659,45.5366 c -0.840763,-0.479899 -0.910285,0.57662 -1.00825,1.089 -0.07769,0.406372 -1.43137,0.615782 -1.21215,-0.156614 0.252631,-0.890126 0.84226,-1.70126 0.737636,-1.93682 -0.601314,-1.35395 -1.74964,0.586794 -1.95353,-0.658826 -0.122014,-0.745376 1.24842,-0.497325 1.07497,-1.48681 -0.137797,-0.786086 -0.805638,-0.328048 -0.67467,-0.900017 0.616597,-2.6927 2.54514,-2.53313 4.1035,-2.3148 1.55838,0.218329 2.58924,1.79116 2.29462,3.54786 -0.294629,1.7567 -1.80084,3.01873 -3.36208,2.817 z "/>
<path style="fill:#a600ff" id="path4193" d="m 16.3066,45.0468 c -0.840765,-0.479899 -0.910285,0.576621 -1.00825,1.08901 -0.07771,0.406371 -1.43137,0.61578 -1.21215,-0.156615 0.252632,-0.890127 0.84226,-1.70126 0.737636,-1.93682 -0.601315,-1.35395 -1.74964,0.586793 -1.95353,-0.658824 -0.122014,-0.745376 1.24842,-0.497328 1.07497,-1.48681 -0.137795,-0.786087 -0.805637,-0.328047 -0.674667,-0.900017 0.616596,-2.6927 2.54514,-2.53313 4.1035,-2.3148 1.55838,0.218329 2.58924,1.79116 2.29462,3.54786 -0.294628,1.7567 -1.80084,3.01873 -3.36208,2.817 z"/>
</g>
</svg>
