<?xml version="1.0" encoding="UTF-8" standalone="no"?>
<svg
   xmlns:dc="http://purl.org/dc/elements/1.1/"
   xmlns:cc="http://creativecommons.org/ns#"
   xmlns:rdf="http://www.w3.org/1999/02/22-rdf-syntax-ns#"
   xmlns:svg="http://www.w3.org/2000/svg"
   xmlns="http://www.w3.org/2000/svg"
   xmlns:sodipodi="http://sodipodi.sourceforge.net/DTD/sodipodi-0.dtd"
   xmlns:inkscape="http://www.inkscape.org/namespaces/inkscape"
   width="96"
   version="1.0"
   height="96"
   id="svg2"
   inkscape:version="0.91 r13725"
   sodipodi:docname="system-users.svg">
  <metadata
     id="metadata11">
    <rdf:RDF>
      <cc:Work
         rdf:about="">
        <dc:format>image/svg+xml</dc:format>
        <dc:type
           rdf:resource="http://purl.org/dc/dcmitype/StillImage" />
        <dc:title></dc:title>
      </cc:Work>
    </rdf:RDF>
  </metadata>
  <defs
     id="defs9" />
  <sodipodi:namedview
     pagecolor="#ffffff"
     bordercolor="#666666"
     borderopacity="1"
     objecttolerance="10"
     gridtolerance="10"
     guidetolerance="10"
     inkscape:pageopacity="0"
     inkscape:pageshadow="2"
     inkscape:window-width="640"
     inkscape:window-height="480"
     id="namedview7"
     showgrid="false"
     inkscape:zoom="3.25"
     inkscape:cx="48.228505"
     inkscape:cy="34.897969"
     inkscape:current-layer="svg2" />
  <g
     id="layer1">
    <rect
       width="84"
       x="6"
       y="6"
       rx="6"
       height="84"
       ry="0.036197715"
       style="fill:#e19c2b;stroke:none"
       id="rect2419" />
  </g>
  <path
     style="stroke:none;fill:#2e3436"
     id="path3813"
     d="m 48.00002,21.206919 c -5.455265,0 -9.887924,4.11462 -9.887924,9.210121 0.01323,0.583949 0.01907,1.2672 0.07975,1.993535 -0.863339,0.460597 -0.969442,2.250967 -0.199354,4.066803 0.296951,0.700205 0.707114,1.293519 1.116378,1.754304 0.01364,0.01531 0.02616,0.02481 0.03987,0.03987 0.09769,0.479763 0.16095,0.854304 0.279094,1.395479 0.366001,1.098848 1.897705,3.167112 3.229519,4.943962 0.132816,1.370701 0.147608,2.707017 -0.119609,4.266159 -2.158011,1.791786 -6.164406,3.059479 -9.289868,4.385768 -1.124238,-0.516927 -2.143507,-1.081624 -2.870693,-1.714444 -0.114983,-0.94665 -0.09842,-1.898419 -0.03987,-2.830819 0.908156,-1.401966 2.088353,-3.194306 2.392246,-4.106677 0.11169,-0.472489 0.152483,-0.790396 0.239224,-1.196119 0.268179,-0.328037 0.519706,-0.729321 0.717673,-1.19612 0.548481,-1.29331 0.479273,-2.530515 -0.07975,-2.950428 0.03906,-0.561953 0.103279,-1.074671 0.119608,-1.554961 0,-3.821629 -3.324497,-6.937496 -7.415943,-6.937496 -4.091445,0 -7.415942,3.115879 -7.415942,6.937496 0.01,0.437965 0.03425,0.930459 0.07973,1.475214 -0.647504,0.345439 -0.737048,1.668279 -0.159483,3.030175 0.222713,0.525144 0.530336,0.970139 0.837284,1.315731 0.01024,0.01147 0.02959,0.02864 0.03987,0.03987 0.07327,0.359818 0.110728,0.630761 0.199353,1.036637 0.274501,0.82413 1.39337,2.375337 2.392234,3.707977 0.0996,1.028025 0.120681,2.060159 -0.07975,3.229519 -2.875071,2.387164 -10.217914,3.429552 -10.206888,5.900855 L 11,63.908416 c 0,1.316447 1.975355,2.49481 5.103444,3.309266 l 0.438573,1.754292 a 1.0757731,1.0765995 0 0 0 0.677801,0.717673 c 0.138844,0.05371 0.217538,0.168541 0.598061,0.279094 2.004498,0.582392 5.060536,0.996767 8.492457,0.996767 3.233823,0 6.129799,-0.388145 8.133619,-0.917025 l 0.518369,2.113192 a 1.4343658,1.4354635 0 0 0 0.877155,0.956896 c 0.185125,0.07171 0.32992,0.211424 0.837285,0.358836 2.672656,0.776528 6.747378,1.315732 11.323264,1.315732 4.575886,0 8.690481,-0.539204 11.363137,-1.315732 0.507365,-0.147412 0.652159,-0.287184 0.837284,-0.358836 a 1.4343658,1.4354635 0 0 0 0.837285,-0.917025 l 0.598043,-2.113192 c 1.998652,0.5213 4.848415,0.877154 8.053871,0.877154 3.431921,0 6.527832,-0.414375 8.532319,-0.996767 0.380523,-0.110617 0.459217,-0.225355 0.59806,-0.279094 a 1.0757731,1.0765995 0 0 0 0.637931,-0.677801 l 0.558207,-1.834089 C 83.067824,66.364574 85,65.206274 85,63.908364 l -0.996779,-6.459086 c -0.01172,-2.115104 -7.40694,-3.429552 -10.246762,-5.900855 -0.114984,-0.946651 -0.09842,-1.89842 -0.03987,-2.830819 0.908156,-1.401966 2.088353,-3.194307 2.392246,-4.106677 0.111691,-0.47249 0.152482,-0.790396 0.239225,-1.196119 0.268178,-0.328037 0.519705,-0.729322 0.717671,-1.196121 0.548483,-1.293309 0.479274,-2.530515 -0.07975,-2.950427 0.03906,-0.561954 0.103279,-1.074671 0.119608,-1.554961 0,-3.82163 -3.324497,-6.937496 -7.415942,-6.937496 -4.091446,0 -7.415943,3.115879 -7.415943,6.937496 0.01,0.437965 0.03425,0.930459 0.07975,1.475213 -0.647503,0.34544 -0.737048,1.66828 -0.159482,3.030175 0.222713,0.525145 0.530336,0.97014 0.837284,1.315732 0.01024,0.01147 0.02959,0.02864 0.03987,0.03987 0.07327,0.359818 0.110741,0.63076 0.199354,1.036637 0.274499,0.82413 1.39337,2.375336 2.392246,3.707977 0.0996,1.028025 0.120681,2.060159 -0.07973,3.229518 -0.820826,0.681529 -1.994151,1.223931 -3.269392,1.754305 -3.075981,-1.297947 -6.852569,-2.651603 -8.891157,-4.425641 -0.153306,-1.262205 -0.157799,-2.50464 -0.07975,-3.747839 1.210874,-1.869276 2.824332,-4.245785 3.229518,-5.462282 0.148919,-0.629995 0.203309,-1.053862 0.318966,-1.594823 0.35757,-0.43739 0.692942,-0.972423 0.956896,-1.594822 0.731311,-1.724409 0.665611,-3.387311 -0.07975,-3.947195 0.05208,-0.749275 0.09784,-1.472772 0.119608,-2.113143 0,-5.095501 -4.432659,-9.21012 -9.887923,-9.21012 z"
     inkscape:connector-curvature="0" />
</svg>
