<?xml version="1.0" encoding="UTF-8" standalone="no"?>
<svg
   xmlns:dc="http://purl.org/dc/elements/1.1/"
   xmlns:cc="http://creativecommons.org/ns#"
   xmlns:rdf="http://www.w3.org/1999/02/22-rdf-syntax-ns#"
   xmlns:svg="http://www.w3.org/2000/svg"
   xmlns="http://www.w3.org/2000/svg"
   xmlns:sodipodi="http://sodipodi.sourceforge.net/DTD/sodipodi-0.dtd"
   xmlns:inkscape="http://www.inkscape.org/namespaces/inkscape"
   width="96"
   version="1.0"
   height="96"
   id="svg19997"
   inkscape:version="0.91 r13725"
   sodipodi:docname="gnome-mplayer-dbg.svg">
  <metadata
     id="metadata20030">
    <rdf:RDF>
      <cc:Work
         rdf:about="">
        <dc:format>image/svg+xml</dc:format>
        <dc:type
           rdf:resource="http://purl.org/dc/dcmitype/StillImage" />
        <dc:title></dc:title>
      </cc:Work>
    </rdf:RDF>
  </metadata>
  <defs
     id="defs20028" />
  <sodipodi:namedview
     pagecolor="#ffffff"
     bordercolor="#666666"
     borderopacity="1"
     objecttolerance="10"
     gridtolerance="10"
     guidetolerance="10"
     inkscape:pageopacity="0"
     inkscape:pageshadow="2"
     inkscape:window-width="640"
     inkscape:window-height="480"
     id="namedview20026"
     showgrid="false"
     inkscape:zoom="3.1666667"
     inkscape:cx="39.976304"
     inkscape:cy="29.501127"
     inkscape:current-layer="svg19997" />
  <g
     id="g27694"
     transform="matrix(1.7956124,0,0,1.7999081,4.9053024,4.8022056)">
    <rect
       y="0.66547585"
       x="0.60965157"
       height="46.669048"
       width="46.780697"
       id="rect27624"
       style="opacity:1;fill:#5f8dd3;fill-opacity:1;fill-rule:evenodd;stroke:none;stroke-width:1;stroke-linecap:butt;stroke-linejoin:miter;stroke-miterlimit:4;stroke-dasharray:none;stroke-opacity:1" />
    <g
       transform="translate(0,-0.76219452)"
       id="g27672">
      <g
         style="fill:#1a4f72;fill-rule:evenodd;stroke:none"
         id="g9"
         transform="matrix(0.95038065,0,0,0.95038065,0.60394379,-2.3721977)">
        <path
           id="path4182"
           d="m 4.3482,7.4982 2.2954,0 2.8419,9.4455 2.8783,-9.4455 2.259,0 2.0768,13.5864 -2.259,0 -1.3116,-8.5899 -2.6233,8.5899 -2.0768,0 -2.5868,-8.5899 -1.3116,8.5899 -2.2954,0 z"
           inkscape:connector-curvature="0" />
        <path
           id="path4184"
           d="m 17.5666,7.499 0,13.5852 2.1033,0 0,-5.7839 c 1.07397,0 1.82685,-0.06407 2.23337,-0.205617 0.692557,-0.246129 1.23987,-0.671361 1.64136,-1.29902 0.406496,-0.627638 0.591994,-1.41333 0.592004,-2.36096 -10e-6,-0.855313 -0.148531,-1.58243 -0.459674,-2.19163 C 23.37082,8.627745 22.964922,8.178533 22.42795,7.907783 21.895978,7.630896 21.00939,7.498981 19.79991,7.498969 l -2.23337,0 z m 2.1033,2.5327 0.5897,0 c 0.652412,1.3e-5 1.10563,0.06105 1.34652,0.239483 0.331231,0.239994 0.49217,0.640519 0.492177,1.16355 -7e-6,0.301524 -0.04207,0.570825 -0.162512,0.786181 -0.115442,0.209224 -0.286422,0.352804 -0.492177,0.4451 -0.205766,0.09231 -0.557235,0.137894 -1.08418,0.137884 l -0.689512,0 0,-2.7722 z"
           inkscape:connector-curvature="0" />
        <path
           id="path4186"
           d="m 26.6648,13.6583 0.4598,0 10e-5,0.8666 -1.0511,4.8486 c -0.05921,0.298192 -0.09854,0.547251 -0.09854,0.752901 0,0.318757 0.16716,0.513341 0.394132,0.513341 0.226972,0 0.515193,-0.03407 0.82111,-0.13689 l -2e-4,0.8673 c -1.01697,0.422161 -2.0629,0.248737 -2.38854,0.248737 -0.08889,-0.358014 -0.04173,-0.588327 -0.04173,-1.08189 0,-0.133672 0.02621,-0.311069 0.06569,-0.547565 l 0.8669,-5.1043 -0.7025,0.0161 -2e-4,-0.8666 z"
           inkscape:connector-curvature="0" />
        <path
           id="path4188"
           d="m 30.4097,16.1227 c -0.878279,9e-6 -1.70745,0.483677 -2.20086,1.26514 -0.394735,0.627232 -0.592005,1.27955 -0.592005,2.01988 0,1.18249 -0.06528,0.787274 0.179352,1.71779 0.483549,0 2.50063,0.444819 3.05326,-0.100148 l 0,0.06774 c 0,0.493559 0.02855,0.162764 0.512105,0.162764 0.374998,0 0.546627,0.525847 1.47942,0.149037 l -6e-4,-0.8675 c -0.236841,0.07197 -0.459641,0.101598 -0.657009,0.101598 -0.226972,0 -0.39467,-0.197093 -0.39467,-0.546699 0,-0.133672 0.0058,-0.379129 0.06501,-0.718449 l 0.6569,-2.3496 c 0,0 -0.05899,-0.682515 2.09e-4,-0.867603 l -0.589684,0 -0.3622,0.2395 c -0.404604,-0.164521 -0.78406,-0.273352 -1.14919,-0.273352 z m 0.1625,1.008 0.1323,0 0.3946,0.1216 -0.4597,2.7359 c -0.375,0.318759 -0.713258,0.481385 -1.01918,0.481385 -0.483547,0 -0.722014,-0.418365 -0.722014,-1.19984 0,-1.56294 0.75611,-2.13917 1.67386,-2.13917 z"
           inkscape:connector-curvature="0" />
        <path
           id="path4190"
           d="m 34.4818,16.1224 c 0.424336,0.08226 0.607395,0.621351 0.75542,1.60846 l 0.3284,2.2245 c 0.404601,-1.0591 0.899001,-2.31805 1.51084,-3.79872 l 0.295599,0 0.7883,0.2395 -2e-4,0.9699 -0.591,-0.1065 c -0.76973,1.06938 -1.17796,2.30348 -1.93781,3.72247 -0.868415,1.62463 -1.48732,2.75915 -3.20193,2.88011 -0.185803,-0.488642 -0.115347,-0.826116 -0.115347,-1.23742 0,-0.349605 0.235939,-0.612472 0.591198,-0.684456 l 0.6568,0.6502 c 0.444074,-0.04113 0.945106,-0.583593 1.47799,-1.6427 l -0.394132,0 -0.5912,-3.2512 c -0.04934,-0.287912 -0.121361,-0.07623 -0.229912,-0.292159 l -0.8869,-0.0384 0,-0.86729 z"
           inkscape:connector-curvature="0" />
        <path
           id="path4192"
           d="m 40.9845,16.1567 c -0.5921,3e-6 -1.20308,0.242435 -1.70637,0.684583 -0.730256,0.647796 -1.11668,1.5323 -1.11668,2.49885 0,1.22362 0.142023,1.28208 0.420207,2.15293 0.5921,0 2.35586,0.331184 3.35484,-0.806455 l -1e-4,-0.8675 c -0.592099,0.483277 -1.11719,0.718449 -1.54154,0.718449 -0.661175,0 -1.05168,6.5e-5 -1.05168,-0.873947 0,-0.09254 -0.0099,-0.194111 0,-0.307214 0.108548,-2e-6 0.228694,0.03644 0.327345,0.03386 2.61984,-0.06842 2.56303,-0.791774 2.56303,-2.10387 0,-0.678644 -0.479284,-1.12968 -1.249,-1.12968 z m -0.2299,1.0087 c 0.296047,0 0.459674,0.194077 0.459674,0.512833 0,0.596385 -0.668438,0.720329 -1.7737,0.771745 0.276314,-1.16192 0.800867,-1.28458 1.31402,-1.28458 z"
           inkscape:connector-curvature="0" />
        <path
           id="path4194"
           d="m 44.4994,16.1566 0.3612,0 -0.2956,1.369 c 0.631575,-0.915141 1.24409,-1.36891 1.7079,-1.36891 0.424338,0 0.71496,0.300539 0.722576,0.7529 0.0093,0.551617 0.0043,0.461689 -0.01456,0.991035 l -0.9708,-0.1355 -0.0957,-0.313 c -0.799337,0.349603 -1.50006,1.06835 -1.64808,1.9835 l -1.4099,2.6531 5e-4,-0.867 0.6699,-3.8036 -0.7027,0.0161 0,-0.866919 z"
           inkscape:connector-curvature="0" />
      </g>
      <path
         style="fill:#ffffff;fill-rule:evenodd;stroke:none"
         id="path4162"
         d="m 4.7363889,5.5779265 2.1815038,0 2.7008867,8.9768205 2.7354806,-8.9768205 2.14691,0 1.97375,12.9122515 -2.146909,0 -1.24652,-8.163675 -2.493133,8.163675 -1.9737507,0 -2.4584447,-8.163675 -1.2465193,8.163675 -2.1815037,0 z"
         inkscape:connector-curvature="0" />
      <path
         style="fill:#ffffff;fill-rule:evenodd;stroke:none"
         id="path4160"
         d="m 17.298901,5.5787819 0,12.9111111 1.998935,0 0,-5.496907 c 1.02068,0 1.736203,-0.06089 2.122552,-0.195414 0.658193,-0.233916 1.178348,-0.638049 1.559917,-1.234563 0.386325,-0.596495 0.562619,-1.343202 0.562629,-2.2438112 C 23.542924,8.5063249 23.401773,7.815287 23.106068,7.2363151 22.815119,6.6515193 22.429361,6.2245969 21.919033,5.9672813 21.413458,5.7041342 20.570862,5.5787638 19.421395,5.5787524 l -2.122552,0 z m 1.998935,2.407029 0.56044,0 c 0.620039,1.14e-5 1.050769,0.058021 1.279706,0.2276 0.314796,0.2280857 0.467749,0.6087369 0.467756,1.1058154 -7e-6,0.2865626 -0.03998,0.5425011 -0.154449,0.7471717 -0.109713,0.198842 -0.27221,0.335298 -0.467755,0.423014 -0.195556,0.08773 -0.529585,0.131052 -1.030384,0.131042 l -0.655299,0 0,-2.634645 z"
         inkscape:connector-curvature="0" />
      <path
         style="fill:#ffffff;fill-rule:evenodd;stroke:none"
         id="path4156"
         d="m 25.945654,11.432461 0.43708,-4.75e-4 -0.998945,5.432091 c -0.05627,0.283396 -0.09365,0.520097 -0.09365,0.715542 0,0.302941 0.158866,0.48787 0.374576,0.48787 0.215709,0 0.489629,-0.03208 0.780367,-0.129795 l 0,0.357469 c -0.675264,0.254078 -1.157602,0.390295 -1.467084,0.390295 -0.534585,0 -0.842795,-0.246472 -0.842795,-0.715542 0,-0.127039 0.02491,-0.295634 0.06243,-0.520396 l 0.93641,-5.203999 -0.780358,-0.130108 0,-0.325661 z"
         inkscape:connector-curvature="0" />
      <path
         style="fill:#ffffff;fill-rule:evenodd;stroke:none"
         id="path4154"
         d="m 29.504734,13.774579 c -0.834699,9e-6 -1.622727,0.459678 -2.091655,1.202365 -0.375148,0.596109 -0.56263,1.21606 -0.56263,1.919655 0,1.123816 0.499611,1.788616 1.343687,1.788616 0.459554,0 0.972933,-0.261427 1.498142,-0.779357 l 0,0.06438 c 0,0.469069 0.25752,0.6828 0.717076,0.6828 0.356391,0 0.814617,-0.101688 1.40547,-0.326455 l 0,-0.355934 c -0.225089,0.0684 -0.436833,0.09614 -0.624408,0.09614 -0.21571,0 -0.375088,-0.187312 -0.375088,-0.519572 0,-0.127038 0.0055,-0.360317 0.06178,-0.6828 l 0.282454,-1.593218 c 0.140679,-0.811099 0.285522,-1.288032 0.341792,-1.463938 l -0.56025,-4.75e-4 -0.344228,0.227616 c -0.384527,-0.156358 -0.745155,-0.259787 -1.092168,-0.259787 z m 0.154437,0.487451 0.125735,0 0.375021,0.586194 -0.43689,2.600147 c -0.356393,0.302942 -0.677867,0.4575 -0.968609,0.4575 -0.459554,0 -0.686188,-0.397606 -0.686188,-1.140305 0,-1.485388 0.718592,-2.503597 1.590804,-2.503597 z"
         inkscape:connector-curvature="0" />
      <path
         style="fill:#ffffff;fill-rule:evenodd;stroke:none"
         id="path4152"
         d="m 33.374779,13.774199 c 0.403281,0.07818 0.577257,0.590521 0.717937,1.528659 l 0.312105,2.114122 c 0.384525,-1.006548 0.854393,-2.20303 1.435873,-3.61023 l 0.280932,0 0.749185,0.227616 0,0.260172 -0.561865,0.325221 c -0.731537,1.016318 -1.119511,2.424288 -1.841658,3.772859 -0.825324,1.544017 -1.603263,2.341776 -2.372311,2.341776 -0.450177,0 -0.780366,-0.389699 -0.780366,-0.780593 0,-0.332257 0.224232,-0.582081 0.561863,-0.650493 l 0.62421,0.617937 c 0.422039,-0.03909 0.898211,-0.554635 1.404653,-1.56119 l -0.374576,0 -0.561865,-3.089878 c -0.04689,-0.273626 -0.115339,-0.54285 -0.218503,-0.748068 l -0.842893,-0.0651 0,-0.325023 z"
         inkscape:connector-curvature="0" />
      <path
         style="fill:#ffffff;fill-rule:evenodd;stroke:none"
         id="path4150"
         d="m 39.55482,13.806797 c -0.562721,2e-6 -1.143384,0.230406 -1.621701,0.650614 -0.694022,0.615654 -1.061272,1.456268 -1.061272,2.374859 0,1.162904 0.611557,1.852985 1.652589,1.852985 0.56272,0 1.250368,-0.256821 1.935003,-0.813842 l 0,-0.583513 c -0.562719,0.459297 -1.061755,0.682369 -1.465049,0.682369 -0.628369,0 -0.999497,-0.470586 -0.999497,-1.301233 0,-0.08795 -0.0094,-0.184479 0,-0.291971 0.103161,-1e-6 0.217316,0.03218 0.311102,0.03218 1.566236,0 2.435854,-0.600462 2.435854,-1.52883 0,-0.64497 -0.455502,-1.073626 -1.187026,-1.073626 z m -0.218493,0.487451 c 0.281357,0 0.436865,0.184446 0.436865,0.487386 0,0.566793 -0.63527,1.155815 -1.68569,1.204674 0.262604,-1.104266 0.761129,-1.692058 1.248819,-1.692058 z"
         inkscape:connector-curvature="0" />
      <path
         style="fill:#ffffff;fill-rule:evenodd;stroke:none"
         id="path4148"
         d="m 42.895312,13.806702 0.343278,0 -0.280933,1.301071 c 0.600237,-0.869732 1.18236,-1.300985 1.623156,-1.300985 0.403282,0 0.686722,0.28556 0.686722,0.715541 0,0.46907 -0.351884,0.813118 -0.905225,0.813118 l -0.03121,0 -0.24976,-0.748045 c -0.759675,0.332256 -1.107906,0.886599 -1.248582,1.756322 l -0.37464,2.276732 -1.124138,0 0.74966,-3.968029 -0.780358,-0.130107 0,-0.325374 z"
         inkscape:connector-curvature="0" />
      <g
         id="g27666"
         transform="translate(1.786375,1.5243904)">
        <path
           style="color:#000000;opacity:0.5;stroke:none;stroke-width:6"
           id="path4189"
           d="m 32.797803,20.726804 a 10.929377,10.929377 0 0 0 -11.250986,10.92415 l 0,0.02724 A 10.929377,10.929377 0 1 0 32.797803,20.726766 Z"
           inkscape:connector-curvature="0" />
        <path
           inkscape:connector-curvature="0"
           d="M 32.797803,21.39207 A 10.929377,10.929377 0 0 0 21.546817,32.316221 l 0,0.02724 A 10.929377,10.929377 0 1 0 32.797803,21.392032 Z"
           id="path4171"
           style="color:#000000;fill:#ff8a2c;stroke:none;stroke-width:6" />
        <path
           inkscape:connector-curvature="0"
           d="m 28.003228,24.538971 12.926507,7.464385 -3.8e-4,0.694443 -12.926507,-7.464955 5.7e-4,-0.693873 -9.5e-5,-9.5e-5 z"
           id="path4169"
           style="color:#000000;fill:#8c4100;stroke:none;stroke-width:6" />
        <path
           inkscape:connector-curvature="0"
           d="m 28.002753,25.232844 12.926602,7.464955 -12.939718,7.069216 0.01331,-14.534076 z"
           id="path5443"
           style="color:#000000;fill:#ffffff;stroke:none;stroke-width:6" />
      </g>
    </g>
  </g>
</svg>
