<?xml version="1.0" encoding="UTF-8" standalone="no"?>
<svg
   xmlns:dc="http://purl.org/dc/elements/1.1/"
   xmlns:cc="http://creativecommons.org/ns#"
   xmlns:rdf="http://www.w3.org/1999/02/22-rdf-syntax-ns#"
   xmlns:svg="http://www.w3.org/2000/svg"
   xmlns="http://www.w3.org/2000/svg"
   xmlns:sodipodi="http://sodipodi.sourceforge.net/DTD/sodipodi-0.dtd"
   xmlns:inkscape="http://www.inkscape.org/namespaces/inkscape"
   height="96"
   width="96"
   viewBox="0 0 96 96"
   id="svg2"
   version="1.1"
   inkscape:version="0.91 r13725"
   sodipodi:docname="multimedia-photo-viewer.svg">
  <metadata
     id="metadata16">
    <rdf:RDF>
      <cc:Work
         rdf:about="">
        <dc:format>image/svg+xml</dc:format>
        <dc:type
           rdf:resource="http://purl.org/dc/dcmitype/StillImage" />
        <dc:title></dc:title>
      </cc:Work>
    </rdf:RDF>
  </metadata>
  <defs
     id="defs14">
    <filter
       inkscape:collect="always"
       style="color-interpolation-filters:sRGB"
       id="filter4181"
       x="-0.011373369"
       width="1.0227467"
       y="-0.012699707"
       height="1.0253994">
      <feGaussianBlur
         inkscape:collect="always"
         stdDeviation="0.12699707"
         id="feGaussianBlur4183" />
    </filter>
    <filter
       inkscape:collect="always"
       style="color-interpolation-filters:sRGB"
       id="filter4166"
       x="-0.027319964"
       width="1.0546399"
       y="-0.0213995"
       height="1.042799">
      <feGaussianBlur
         inkscape:collect="always"
         stdDeviation="0.213995"
         id="feGaussianBlur4168" />
    </filter>
  </defs>
  <sodipodi:namedview
     pagecolor="#ffffff"
     bordercolor="#666666"
     borderopacity="1"
     objecttolerance="10"
     gridtolerance="10"
     guidetolerance="10"
     inkscape:pageopacity="0"
     inkscape:pageshadow="2"
     inkscape:window-width="1920"
     inkscape:window-height="1008"
     id="namedview12"
     showgrid="false"
     inkscape:zoom="4.4083688"
     inkscape:cx="33.88658"
     inkscape:cy="46.711121"
     inkscape:window-x="0"
     inkscape:window-y="32"
     inkscape:window-maximized="1"
     inkscape:current-layer="svg2" />
  <g
     id="g4155"
     transform="matrix(0.21795876,0,0,0.28061532,-7.7049346,-23.872754)">
    <rect
       y="106.45442"
       x="63.727276"
       height="299.09091"
       width="384.54544"
       id="rect4156"
       style="opacity:1;fill:#424242;fill-opacity:1;stroke:none;stroke-width:21.36363602;stroke-linecap:round;stroke-linejoin:round;stroke-miterlimit:4;stroke-dasharray:none;stroke-opacity:0.55" />
    <path
       transform="matrix(10.681818,0,0,10.681818,2.2027801,-3.571644)"
       id="rect4162"
       d="m 6.0000002,12.5 0,0.5 0,1.5 0,23.500001 12.7988278,0 2,-2 9.5,-9.5 2,-2 -12,-12.000001 -14.2988278,0 z"
       style="opacity:1;fill:#000000;fill-opacity:0.2;stroke:none;stroke-width:2;stroke-linecap:round;stroke-linejoin:round;stroke-miterlimit:4;stroke-dasharray:none;stroke-opacity:0.55;filter:url(#filter4181)"
       inkscape:connector-curvature="0" />
    <path
       id="rect4164"
       d="m 63.727275,106.45451 0,299.09099 126.032925,0 21.36364,-21.36363 L 317.94203,277.36363 339.30566,256 317.94203,234.63638 211.12384,127.81813 189.7602,106.45451 l -126.032925,0 z"
       style="opacity:1;fill:#ffc831;fill-opacity:1;stroke:none;stroke-width:21.36363602;stroke-linecap:round;stroke-linejoin:round;stroke-miterlimit:4;stroke-dasharray:none;stroke-opacity:0.55"
       inkscape:connector-curvature="0" />
    <path
       transform="matrix(10.681818,0,0,10.681818,4.1275921,-6.13806)"
       id="rect4160"
       d="m 6.0000002,12.5 0,2 0,23.500001 4.7988278,0 2,-2 9.5,-9.5 2,-2 -12,-12.000001 -6.2988278,0 z"
       style="opacity:1;fill:#000000;fill-opacity:0.3;stroke:none;stroke-width:2;stroke-linecap:round;stroke-linejoin:round;stroke-miterlimit:4;stroke-dasharray:none;stroke-opacity:0.55;filter:url(#filter4166)"
       inkscape:connector-curvature="0" />
    <path
       id="rect4158"
       d="m 63.727275,106.45451 0,299.09099 40.578395,0 L 125.6693,384.18187 232.48748,277.36363 253.85112,256 232.48748,234.63638 125.6693,127.81813 l -21.36363,-21.36362 -40.578395,0 z"
       style="opacity:1;fill:#26bcc2;fill-opacity:1;stroke:none;stroke-width:21.36363602;stroke-linecap:round;stroke-linejoin:round;stroke-miterlimit:4;stroke-dasharray:none;stroke-opacity:0.55"
       inkscape:connector-curvature="0" />
    <path
       id="rect4166"
       d="m 448.27273,258.14891 -21.36364,21.36363 -104.66929,104.66933 -21.36364,21.36363 21.36364,0 104.66929,0 21.36364,0 0,-21.36363 0,-104.66933 0,-21.36363 z"
       style="opacity:1;fill:#f64747;fill-opacity:0.99607843;stroke:none;stroke-width:21.36363602;stroke-linecap:round;stroke-linejoin:round;stroke-miterlimit:4;stroke-dasharray:none;stroke-opacity:0.55"
       inkscape:connector-curvature="0" />
  </g>
</svg>
