<?xml version="1.0" encoding="UTF-8" standalone="no"?>
<svg
   xmlns:dc="http://purl.org/dc/elements/1.1/"
   xmlns:cc="http://creativecommons.org/ns#"
   xmlns:rdf="http://www.w3.org/1999/02/22-rdf-syntax-ns#"
   xmlns:svg="http://www.w3.org/2000/svg"
   xmlns="http://www.w3.org/2000/svg"
   xmlns:sodipodi="http://sodipodi.sourceforge.net/DTD/sodipodi-0.dtd"
   xmlns:inkscape="http://www.inkscape.org/namespaces/inkscape"
   width="96"
   version="1.0"
   height="96"
   id="svg2"
   inkscape:version="0.91 r13725"
   sodipodi:docname="gnome-commander.svg">
  <metadata
     id="metadata34">
    <rdf:RDF>
      <cc:Work
         rdf:about="">
        <dc:format>image/svg+xml</dc:format>
        <dc:type
           rdf:resource="http://purl.org/dc/dcmitype/StillImage" />
        <dc:title />
      </cc:Work>
    </rdf:RDF>
  </metadata>
  <sodipodi:namedview
     pagecolor="#ffffff"
     bordercolor="#666666"
     borderopacity="1"
     objecttolerance="10"
     gridtolerance="10"
     guidetolerance="10"
     inkscape:pageopacity="0"
     inkscape:pageshadow="2"
     inkscape:window-width="640"
     inkscape:window-height="480"
     id="namedview32"
     showgrid="false"
     inkscape:zoom="3.3125"
     inkscape:cx="5.4034094"
     inkscape:cy="52.619206"
     inkscape:current-layer="svg2" />
  <defs
     id="defs2410" />
  <rect
     style="opacity:1;fill:#d38d5f;fill-opacity:1;fill-rule:evenodd;stroke:none;stroke-width:1;stroke-linecap:butt;stroke-linejoin:miter;stroke-miterlimit:4;stroke-dasharray:none;stroke-opacity:1"
     id="rect4184"
     width="84"
     height="84"
     x="6"
     y="6"
     rx="0"
     ry="0" />
  <g
     id="g4174"
     transform="translate(154.56609,44.575722)">
    <path
       style="color:#000000;opacity:0.5;fill:#333333;stroke:none"
       id="path3846"
       d="m -138.56644,-30.106972 c -1.10119,0 -2.03125,0.93006 -2.03125,2.03125 l 0,26.0000003 c 0,1.10119003 0.93006,2.03125003 2.03125,2.03125003 l 64.000702,0 c 1.10119,0 2.03125,-0.93006 2.03125,-2.03125003 l 0,-26.0000003 c 0,-1.10119 -0.93006,-2.03125 -2.03125,-2.03125 z"
       inkscape:connector-curvature="0" />
    <path
       style="color:#000000;fill:#dfd0b1;stroke:none"
       id="rect3830"
       d="m -138.56644,-29.075772 64.000702,0 c 0.554,0 1,0.446 1,1 l 0,26.0000003 c 0,0.554 -0.446,1 -1,1 l -64.000702,0 c -0.554,0 -1,-0.446 -1,-1 l 0,-26.0000003 c 0,-0.554 0.446,-1 1,-1 z"
       inkscape:connector-curvature="0" />
    <path
       style="color:#000000;fill:#878787;stroke:none"
       id="path3994"
       d="m -117.56604,-19.106972 c -1.11432,0 -2.03125,0.916934 -2.03125,2.03125 l 0,1 0,1 0,2 0,1 c 0,1.11432 0.91694,2.03125 2.03125,2.03125 l 22.000002,0 c 1.11432,0 2.03125,-0.916934 2.03125,-2.03125 l 0,-1 0,-2 0,-1 0,-1 c 0,-1.11432 -0.916934,-2.03125 -2.03125,-2.03125 l -2,0 c -1.11432,0 -2.03125,0.916934 -2.03125,2.03125 l 0,0.96875 -0.968752,0 -12.9688,0 0,-0.96875 c 0,-1.11432 -0.91693,-2.03125 -2.03125,-2.03125 l -2,0 z"
       inkscape:connector-curvature="0" />
    <path
       style="color:#000000;fill:#333333;stroke:none"
       id="rect3934"
       d="m -117.56604,-18.075772 c -0.554,0 -1,0.446 -1,1 l 0,1 0,1 0,2 0,1 c 0,0.554 0.446,1 1,1 l 22.000002,0 c 0.554,0 1,-0.446 1,-1 l 0,-1 0,-2 0,-1 0,-1 c 0,-0.554 -0.446,-1 -1,-1 l -2,0 c -0.554,0 -1,0.446 -1,1 l 0,1 c 0,0.554 -0.446,1 -1,1 l -1.000002,0 -13,0 c -0.554,0 -1,-0.446 -1,-1 l 0,-1 c 0,-0.554 -0.446,-1 -1,-1 z"
       inkscape:connector-curvature="0" />
    <path
       style="color:#000000;opacity:0.5;fill:#333333;stroke:none"
       id="path4272"
       d="m -138.56644,6.8930283 c -1.10119,0 -2.03125,0.93006 -2.03125,2.03125 l 0,25.9999997 c 0,1.10119 0.93006,2.03125 2.03125,2.03125 l 64.000702,0 c 1.10119,0 2.03125,-0.93006 2.03125,-2.03125 l 0,-25.9999997 c 0,-1.10119 -0.93006,-2.03125 -2.03125,-2.03125 z"
       inkscape:connector-curvature="0" />
    <path
       style="color:#000000;fill:#dfd0b1;stroke:none"
       id="path4274"
       d="m -138.56644,7.9242283 64.000702,0 c 0.554,0 1,0.446 1,1 l 0,25.9999997 c 0,0.554 -0.446,1 -1,1 l -64.000702,0 c -0.554,0 -1,-0.446 -1,-1 l 0,-25.9999997 c 0,-0.554 0.446,-1 1,-1 z"
       inkscape:connector-curvature="0" />
    <path
       style="color:#000000;fill:#878787;stroke:none"
       id="path4276"
       d="m -117.56604,17.893028 c -1.11432,0 -2.03125,0.916934 -2.03125,2.03125 l 0,1 0,1 0,2 0,1 c 0,1.11432 0.91694,2.03125 2.03125,2.03125 l 22.000002,0 c 1.11432,0 2.03125,-0.916934 2.03125,-2.03125 l 0,-1 0,-2 0,-1 0,-1 c 0,-1.11432 -0.916934,-2.03125 -2.03125,-2.03125 l -2,0 c -1.11432,0 -2.03125,0.916934 -2.03125,2.03125 l 0,0.96875 -0.968752,0 -12.9688,0 0,-0.96875 c 0,-1.11432 -0.91693,-2.03125 -2.03125,-2.03125 l -2,0 z"
       inkscape:connector-curvature="0" />
    <path
       style="color:#000000;fill:#333333;stroke:none"
       id="path4278"
       d="m -117.56604,18.924228 c -0.554,0 -1,0.446 -1,1 l 0,1 0,1 0,2 0,1 c 0,0.554 0.446,1 1,1 l 22.000002,0 c 0.554,0 1,-0.446 1,-1 l 0,-1 0,-2 0,-1 0,-1 c 0,-0.554 -0.446,-1 -1,-1 l -2,0 c -0.554,0 -1,0.446 -1,1 l 0,1 c 0,0.554 -0.446,1 -1,1 l -1.000002,0 -13,0 c -0.554,0 -1,-0.446 -1,-1 l 0,-1 c 0,-0.554 -0.446,-1 -1,-1 z"
       inkscape:connector-curvature="0" />
  </g>
</svg>
