<?xml version="1.0" encoding="UTF-8" standalone="no"?>
<svg
   xmlns:dc="http://purl.org/dc/elements/1.1/"
   xmlns:cc="http://creativecommons.org/ns#"
   xmlns:rdf="http://www.w3.org/1999/02/22-rdf-syntax-ns#"
   xmlns:svg="http://www.w3.org/2000/svg"
   xmlns="http://www.w3.org/2000/svg"
   xmlns:sodipodi="http://sodipodi.sourceforge.net/DTD/sodipodi-0.dtd"
   xmlns:inkscape="http://www.inkscape.org/namespaces/inkscape"
   width="96"
   version="1.1"
   height="96"
   id="svg2"
   inkscape:version="0.91 r13725"
   sodipodi:docname="cs-universal-access.svg">
  <metadata
     id="metadata13">
    <rdf:RDF>
      <cc:Work
         rdf:about="">
        <dc:format>image/svg+xml</dc:format>
        <dc:type
           rdf:resource="http://purl.org/dc/dcmitype/StillImage" />
        <dc:title></dc:title>
      </cc:Work>
    </rdf:RDF>
  </metadata>
  <defs
     id="defs11" />
  <sodipodi:namedview
     pagecolor="#ffffff"
     bordercolor="#666666"
     borderopacity="1"
     objecttolerance="10"
     gridtolerance="10"
     guidetolerance="10"
     inkscape:pageopacity="0"
     inkscape:pageshadow="2"
     inkscape:window-width="640"
     inkscape:window-height="480"
     id="namedview9"
     showgrid="false"
     inkscape:zoom="2.298097"
     inkscape:cx="17.545023"
     inkscape:cy="40.977312"
     inkscape:current-layer="svg2" />
  <g
     id="g4170">
    <rect
       ry="0"
       y="6"
       x="6"
       height="84"
       width="84"
       id="rect4168"
       style="opacity:1;fill:#9955ff;fill-opacity:1;fill-rule:nonzero;stroke:none;stroke-width:0.5;stroke-miterlimit:4;stroke-dasharray:none;stroke-opacity:1" />
    <g
       style="opacity:0.3;fill:#000000;stroke:none"
       id="layer1-1-3"
       transform="matrix(2.2911956,0,0,2.2911956,-5.3809577,-3.7812613)">
      <path
         style="fill:#000000"
         id="path6668-6"
         d="m 12.4084,7.1447 c 0,0.723658 -0.586641,1.3103 -1.3103,1.3103 -0.723658,0 -1.3103,-0.586641 -1.3103,-1.3103 0,-0.723658 0.586641,-1.3103 1.3103,-1.3103 0.723658,0 1.3103,0.586641 1.3103,1.3103 z"
         transform="matrix(3.3510962,0,0,3.3510966,-13.190707,-12.720468)"
         inkscape:connector-curvature="0" />
      <path
         style="fill:#000000;fill-rule:evenodd"
         id="path6670-7"
         d="m 12.629,17.566 c -0.783085,0 -0.994426,0.2835 -1.12897,0.625 -0.134544,0.3415 0.02041,0.934583 0.52902,1.121 l 8.5969,3.151 -3.192,15.2141 c -0.103327,0.492487 -0.13334,1.00679 0.40583,1.33092 0.53917,0.324129 1.25926,-0.06353 1.48117,-0.530998 l 4.6955,-9.8902 4.6904,9.8902 c 0.298719,0.629887 0.878809,0.773965 1.40601,0.557149 0.5272,-0.216816 0.55623,-0.761352 0.45219,-1.26004 l -3.1943,-15.3111 8.6173,-3.151 c 0.400659,-0.146505 0.556336,-0.71366 0.45308,-1.121 -0.103256,-0.40734 -0.440604,-0.625 -0.99927,-0.625 z"
         inkscape:connector-curvature="0" />
    </g>
    <g
       style="fill:#ececec;stroke:none"
       id="layer1-1"
       transform="matrix(2.2911956,0,0,2.2911956,-6.9039568,-4.6515465)">
      <path
         style="fill:#ececec"
         id="path6668"
         d="m 12.4084,7.1447 c 0,0.723658 -0.586641,1.3103 -1.3103,1.3103 -0.723658,0 -1.3103,-0.586641 -1.3103,-1.3103 0,-0.723658 0.586641,-1.3103 1.3103,-1.3103 0.723658,0 1.3103,0.586641 1.3103,1.3103 z"
         transform="matrix(3.3510962,0,0,3.3510966,-13.190707,-12.720468)"
         inkscape:connector-curvature="0" />
      <path
         style="fill:#ececec;fill-rule:evenodd"
         id="path6670"
         d="m 12.629,17.566 c -0.783085,0 -0.994426,0.2835 -1.12897,0.625 -0.134544,0.3415 0.02041,0.934583 0.52902,1.121 l 8.5969,3.151 -3.192,15.2141 c -0.103327,0.492487 -0.13334,1.00679 0.40583,1.33092 0.53917,0.324129 1.25926,-0.06353 1.48117,-0.530998 l 4.6955,-9.8902 4.6904,9.8902 c 0.298719,0.629887 0.878809,0.773965 1.40601,0.557149 0.5272,-0.216816 0.55623,-0.761352 0.45219,-1.26004 l -3.1943,-15.3111 8.6173,-3.151 c 0.400659,-0.146505 0.556336,-0.71366 0.45308,-1.121 -0.103256,-0.40734 -0.440604,-0.625 -0.99927,-0.625 z"
         inkscape:connector-curvature="0" />
    </g>
  </g>
</svg>
