<?xml version="1.0" encoding="UTF-8" standalone="no"?>
<svg
   xmlns:dc="http://purl.org/dc/elements/1.1/"
   xmlns:cc="http://creativecommons.org/ns#"
   xmlns:rdf="http://www.w3.org/1999/02/22-rdf-syntax-ns#"
   xmlns:svg="http://www.w3.org/2000/svg"
   xmlns="http://www.w3.org/2000/svg"
   xmlns:sodipodi="http://sodipodi.sourceforge.net/DTD/sodipodi-0.dtd"
   xmlns:inkscape="http://www.inkscape.org/namespaces/inkscape"
   width="96"
   version="1.1"
   height="96"
   id="svg4146"
   inkscape:version="0.91 r13725"
   sodipodi:docname="qt4logo.svg">
  <metadata
     id="metadata4155">
    <rdf:RDF>
      <cc:Work
         rdf:about="">
        <dc:format>image/svg+xml</dc:format>
        <dc:type
           rdf:resource="http://purl.org/dc/dcmitype/StillImage" />
        <dc:title></dc:title>
      </cc:Work>
    </rdf:RDF>
  </metadata>
  <sodipodi:namedview
     pagecolor="#ffffff"
     bordercolor="#666666"
     borderopacity="1"
     objecttolerance="10"
     gridtolerance="10"
     guidetolerance="10"
     inkscape:pageopacity="0"
     inkscape:pageshadow="2"
     inkscape:window-width="640"
     inkscape:window-height="480"
     id="namedview4153"
     showgrid="false"
     inkscape:zoom="2.2391715"
     inkscape:cx="87.236096"
     inkscape:cy="12.229119"
     inkscape:current-layer="svg4146" />
  <defs
     id="defs14" />
  <g
     id="g5812">
    <rect
       y="6"
       x="6"
       height="84"
       width="84"
       id="rect5810"
       style="opacity:1;fill:#559c2c;fill-opacity:1;fill-rule:evenodd;stroke:none;stroke-opacity:1" />
    <g
       transform="matrix(2.0378201,0,0,2.0378489,-0.90778429,0.11085653)"
       id="g5806">
      <path
         inkscape:connector-curvature="0"
         d="m 23.8438,5.3435 c -9.61748,0 -17.5,7.88252 -17.5,17.5 0,9.61748 7.88252,17.5 17.5,17.5 3.7259,0 7.18752,-1.21402 10.0312,-3.21875 l 3.5,3.5312 4.281,-3.281 3e-4,-1.0003 -3.5312,-3.5 c 2.00473,-2.84373 3.21875,-6.30535 3.21875,-10.0312 0,-9.61748 -7.88252,-17.5 -17.5,-17.5 z m 0,6.0625 c 6.36019,0 11.4375,5.07731 11.4375,11.4375 0,2.07589 -0.548153,4.01486 -1.5,5.6875 l -5.6875,-5.6875 3.6872,-2.6555 3e-4,-1.0008 -4.2812,-4.2812 -11.5938,11.5937 -2e-4,1.0003 4.2815,3.281 3.6562,-3.6875 5.6875,5.6875 c -1.67264,0.951847 -3.61161,1.5 -5.6875,1.5 -6.36019,0 -11.4375,-5.07731 -11.4375,-11.4375 0,-6.36019 5.07731,-11.4375 11.4375,-11.4375 z"
         id="path2990"
         style="opacity:0.5;stroke:none" />
      <path
         inkscape:connector-curvature="0"
         d="m 23.8438,6.3438 c -9.61748,0 -17.5,7.88252 -17.5,17.5 0,9.61748 7.88252,17.5 17.5,17.5 3.7259,0 7.18752,-1.21402 10.0312,-3.21875 l 3.5,3.5312 4.281,-4.2812 -3.531,-3.5 c 2.00473,-2.84373 3.21875,-6.30535 3.21875,-10.0312 0,-9.61748 -7.88252,-17.5 -17.5,-17.5 z m 0,6.0625 c 6.36019,0 11.4375,5.07731 11.4375,11.4375 0,2.07589 -0.548153,4.01486 -1.5,5.6875 L 28.0938,23.8438 31.781,20.188 27.5,15.9063 15.906,27.5001 l 4.2815,4.2812 3.6562,-3.6875 5.6875,5.6875 c -1.67264,0.951847 -3.61161,1.5 -5.6875,1.5 -6.36019,0 -11.4375,-5.07731 -11.4375,-11.4375 0,-6.36019 5.07731,-11.4375 11.4375,-11.4375 z"
         id="path3759"
         style="fill:#ffffff;stroke:none" />
    </g>
  </g>
</svg>
