<?xml version="1.0" encoding="UTF-8" standalone="no"?>
<svg
   xmlns:dc="http://purl.org/dc/elements/1.1/"
   xmlns:cc="http://creativecommons.org/ns#"
   xmlns:rdf="http://www.w3.org/1999/02/22-rdf-syntax-ns#"
   xmlns:svg="http://www.w3.org/2000/svg"
   xmlns="http://www.w3.org/2000/svg"
   xmlns:sodipodi="http://sodipodi.sourceforge.net/DTD/sodipodi-0.dtd"
   xmlns:inkscape="http://www.inkscape.org/namespaces/inkscape"
   viewBox="-12288 0 0 128"
   id="svg2"
   version="1.1"
   inkscape:version="0.91 r13725"
   width="96"
   height="96"
   sodipodi:docname="selene.svg">
  <metadata
     id="metadata61">
    <rdf:RDF>
      <cc:Work
         rdf:about="">
        <dc:format>image/svg+xml</dc:format>
        <dc:type
           rdf:resource="http://purl.org/dc/dcmitype/StillImage" />
        <dc:title></dc:title>
      </cc:Work>
    </rdf:RDF>
  </metadata>
  <sodipodi:namedview
     pagecolor="#ffffff"
     bordercolor="#666666"
     borderopacity="1"
     objecttolerance="10"
     gridtolerance="10"
     guidetolerance="10"
     inkscape:pageopacity="0"
     inkscape:pageshadow="2"
     inkscape:window-width="943"
     inkscape:window-height="618"
     id="namedview59"
     showgrid="false"
     inkscape:zoom="2.4583333"
     inkscape:cx="4.9388481"
     inkscape:cy="70.299841"
     inkscape:window-x="203"
     inkscape:window-y="49"
     inkscape:window-maximized="0"
     inkscape:current-layer="svg2" />
  <defs
     id="defs4">
    <clipPath
       id="clipPath-783883865">
      <g
         transform="translate(0,-1004.3622)"
         id="g12">
        <path
           d="m -24,13 c 0,1.105 -0.672,2 -1.5,2 -0.828,0 -1.5,-0.895 -1.5,-2 0,-1.105 0.672,-2 1.5,-2 0.828,0 1.5,0.895 1.5,2 z"
           transform="matrix(15.333333,0,0,11.5,414.99999,878.8622)"
           id="path14"
           inkscape:connector-curvature="0"
           style="fill:#1890d0" />
      </g>
    </clipPath>
    <clipPath
       id="clipPath-790773971">
      <g
         transform="translate(0,-1004.3622)"
         id="g17">
        <path
           d="m -24,13 c 0,1.105 -0.672,2 -1.5,2 -0.828,0 -1.5,-0.895 -1.5,-2 0,-1.105 0.672,-2 1.5,-2 0.828,0 1.5,0.895 1.5,2 z"
           transform="matrix(15.333333,0,0,11.5,414.99999,878.8622)"
           id="path19"
           inkscape:connector-curvature="0"
           style="fill:#1890d0" />
      </g>
    </clipPath>
  </defs>
  <rect
     style="opacity:1;fill:#ffd42a;fill-opacity:1;fill-rule:evenodd;stroke:none;stroke-width:1;stroke-linecap:butt;stroke-linejoin:miter;stroke-miterlimit:4;stroke-dasharray:none;stroke-opacity:1"
     id="rect15765"
     width="84"
     height="84"
     x="6"
     y="6"
     ry="0" />
  <g
     id="g33"
     transform="translate(0,48)" />
  <g
     id="g15767"
     transform="translate(1.4381833,0)">
    <g
       transform="matrix(0.85495518,0,0,0.85495518,-7.8550333,18.476721)"
       id="g15753">
      <g
         id="g35"
         transform="matrix(3.4621698,0,0,3.4621698,-19.492211,-50.291199)">
        <g
           clip-path="url(#clipPath-783883865)"
           id="g37">
          <g
             transform="translate(1,1)"
             id="g39">
            <g
               id="g41"
               style="opacity:0.1">
              <!-- color: #f2f2b3 -->
              <g
                 id="g43">
                <path
                   d="m 24,12 c -6.629,0 -12,5.371 -12,12 l 7,0 c 0,-2.762 2.238,-5 5,-5 l 10,0 c 1.109,0 2,-0.891 2,-2 l 0,-3 c 0,-1.109 -0.891,-2 -2,-2 m -5,12 c 0,2.762 -2.238,5 -5,5 l -10,0 c -1.109,0 -2,0.891 -2,2 l 0,3 c 0,1.109 0.891,2 2,2 l 10,0 c 6.629,0 12,-5.371 12,-12 m -7,0"
                   id="path45"
                   inkscape:connector-curvature="0"
                   style="fill:#000000;fill-opacity:0.83499995;fill-rule:nonzero;stroke:none" />
              </g>
            </g>
          </g>
        </g>
      </g>
      <g
         id="g47"
         transform="matrix(3.4621698,0,0,3.4621698,-19.492211,-50.291199)"
         style="fill:#000000">
        <g
           clip-path="url(#clipPath-790773971)"
           id="g49"
           style="fill:#000000">
          <!-- color: #f2f2b3 -->
          <g
             id="g51"
             style="fill:#000000">
            <path
               d="m 24,12 c -6.629,0 -12,5.371 -12,12 l 7,0 c 0,-2.762 2.238,-5 5,-5 l 10,0 c 1.109,0 2,-0.891 2,-2 l 0,-3 c 0,-1.109 -0.891,-2 -2,-2 m -5,12 c 0,2.762 -2.238,5 -5,5 l -10,0 c -1.109,0 -2,0.891 -2,2 l 0,3 c 0,1.109 0.891,2 2,2 l 10,0 c 6.629,0 12,-5.371 12,-12 m -7,0"
               id="path53"
               inkscape:connector-curvature="0"
               style="fill:#000000;fill-opacity:0.83499995;fill-rule:nonzero;stroke:none" />
          </g>
        </g>
      </g>
    </g>
  </g>
</svg>
