<?xml version="1.0" encoding="UTF-8" standalone="no"?>
<!-- Created with Inkscape (http://www.inkscape.org/) -->

<svg
   xmlns:dc="http://purl.org/dc/elements/1.1/"
   xmlns:cc="http://creativecommons.org/ns#"
   xmlns:rdf="http://www.w3.org/1999/02/22-rdf-syntax-ns#"
   xmlns:svg="http://www.w3.org/2000/svg"
   xmlns="http://www.w3.org/2000/svg"
   xmlns:sodipodi="http://sodipodi.sourceforge.net/DTD/sodipodi-0.dtd"
   xmlns:inkscape="http://www.inkscape.org/namespaces/inkscape"
   id="svg2"
   version="1.1"
   inkscape:version="0.91 r13725"
   width="96"
   height="96"
   sodipodi:docname="simple-ccsm.svg">
  <metadata
     id="metadata8">
    <rdf:RDF>
      <cc:Work
         rdf:about="">
        <dc:format>image/svg+xml</dc:format>
        <dc:type
           rdf:resource="http://purl.org/dc/dcmitype/StillImage" />
        <dc:title></dc:title>
      </cc:Work>
    </rdf:RDF>
  </metadata>
  <defs
     id="defs6" />
  <sodipodi:namedview
     pagecolor="#ffffff"
     bordercolor="#666666"
     borderopacity="1"
     objecttolerance="10"
     gridtolerance="10"
     guidetolerance="10"
     inkscape:pageopacity="0"
     inkscape:pageshadow="2"
     inkscape:window-width="1260"
     inkscape:window-height="716"
     id="namedview4"
     showgrid="false"
     inkscape:zoom="3.6875"
     inkscape:cx="40.223209"
     inkscape:cy="41.065315"
     inkscape:window-x="15"
     inkscape:window-y="24"
     inkscape:window-maximized="0"
     inkscape:current-layer="svg2" />
  <rect
     style="opacity:1;fill:#e6e6e6;fill-opacity:1;fill-rule:evenodd;stroke:none;stroke-width:1;stroke-linecap:butt;stroke-linejoin:miter;stroke-miterlimit:4;stroke-dasharray:none;stroke-opacity:1"
     id="rect15720"
     width="84"
     height="84"
     x="6"
     y="6" />
  <path
     inkscape:connector-curvature="0"
     id="path2984"
     d="m 42.833331,84.647861 c -0.875219,-0.740573 -0.909117,-0.95731 -0.909117,-5.812573 l 0,-4.459957 -1.129474,-0.32888 c -2.312313,-0.673301 -3.099189,-0.976874 -5.083505,-1.96119 -1.118319,-0.554741 -2.082914,-1.008619 -2.143543,-1.008619 -0.06063,0 -1.55809,1.443247 -3.327689,3.207215 -3.376958,3.366213 -3.310288,3.319541 -4.59579,3.217187 -0.76069,-0.06057 -1.263444,-0.473469 -4.142469,-3.402123 -4.093651,-4.164223 -4.102553,-3.942378 0.337861,-8.421185 1.706956,-1.721715 3.103557,-3.17879 3.103557,-3.237947 0,-0.05916 -0.251396,-0.538316 -0.558659,-1.0648 -0.84118,-1.441337 -1.901291,-3.935404 -2.352634,-5.534922 -0.221202,-0.783915 -0.471448,-1.513303 -0.556102,-1.620862 -0.116446,-0.147955 -1.195972,-0.195562 -4.434454,-0.195562 -4.738906,0 -5.020663,-0.04934 -5.693852,-0.997098 -0.340232,-0.479 -0.347457,-0.583524 -0.347457,-5.026209 0,-5.105788 0.0014,-5.112513 1.186011,-5.719421 0.544596,-0.279009 0.942821,-0.303886 4.864495,-0.303886 3.229262,0 4.309744,-0.04771 4.42875,-0.195562 0.08657,-0.107559 0.30829,-0.752269 0.4927,-1.43269 0.408084,-1.505717 1.526277,-4.171825 2.357623,-5.621281 0.337468,-0.588379 0.613579,-1.115767 0.613579,-1.171975 0,-0.05621 -1.396601,-1.51087 -3.103556,-3.232585 -3.680042,-3.71186 -3.809938,-3.962503 -2.924326,-5.64272 0.332419,-0.630678 5.363229,-5.6104 5.981198,-5.92046 0.274219,-0.137585 0.864765,-0.250156 1.312327,-0.250156 l 0.813745,0 3.217453,3.207215 c 1.769599,1.763968 3.271572,3.207215 3.337716,3.207215 0.06614,0 1.112376,-0.490801 2.324957,-1.090669 1.409849,-0.697457 2.878687,-1.284119 4.07417,-1.627244 l 1.869473,-0.536575 0.07789,-4.591625 c 0.06661,-3.926659 0.116225,-4.661894 0.342564,-5.076852 0.543585,-0.996577 0.568977,-1.001042 5.693078,-1.001042 5.11359,0 5.011635,-0.01802 5.635789,0.99616 0.308711,0.50162 0.324357,0.741674 0.324357,4.976599 0,3.329169 0.04903,4.509124 0.194736,4.686133 0.107106,0.130119 0.755579,0.40467 1.441053,0.610115 1.691025,0.506823 3.122443,1.10285 4.879508,2.031773 0.81112,0.428823 1.551703,0.779677 1.645741,0.779677 0.09404,0 1.622123,-1.456054 3.395745,-3.235674 l 3.224766,-3.235675 0.935245,-0.06794 c 0.75268,-0.05467 1.03578,-0.0051 1.450277,0.254036 0.283269,0.177085 1.75304,1.575708 3.26616,3.10805 4.130927,4.183404 4.143254,3.928563 -0.410869,8.495051 -1.902119,1.907286 -3.1971,3.32539 -3.1971,3.501072 0,0.162407 0.212446,0.668174 0.4721,1.123927 0.74448,1.306727 1.771128,3.780687 2.171497,5.232753 0.201663,0.731402 0.434045,1.417824 0.516397,1.525383 0.11385,0.148693 1.259768,0.195562 4.781307,0.195562 4.55132,0 4.640743,0.0061 5.160926,0.354077 0.291144,0.19474 0.669563,0.634754 0.840931,0.977809 0.287664,0.57586 0.31158,0.935944 0.31158,4.691421 0,3.755477 -0.02392,4.115561 -0.31158,4.691421 -0.171368,0.343054 -0.549787,0.783069 -0.840931,0.977809 -0.519606,0.347554 -0.613041,0.354077 -5.07233,0.354077 -3.400302,0 -4.60439,0.04919 -4.787141,0.195562 -0.134291,0.107559 -0.3949,0.770423 -0.579129,1.473033 -0.353754,1.349129 -1.431896,3.957213 -2.203405,5.330151 -0.253122,0.450445 -0.460223,0.941158 -0.460223,1.090475 0,0.149319 1.464931,1.752036 3.255401,3.561597 4.537746,4.58613 4.537849,4.286739 -0.003,8.787137 -3.090986,3.063433 -3.394487,3.260857 -4.656645,3.029077 -0.59699,-0.10963 -0.976275,-0.437106 -3.875366,-3.346003 -1.767488,-1.773464 -3.271856,-3.22448 -3.343044,-3.22448 -0.07119,0 -1.192262,0.523466 -2.491272,1.163259 -1.299012,0.639792 -3.027839,1.35518 -3.841839,1.589751 -0.814,0.234569 -1.567631,0.534186 -1.674737,0.665811 -0.145638,0.178983 -0.194736,1.361172 -0.194736,4.688879 0,4.234924 -0.01565,4.474977 -0.324357,4.976598 -0.624562,1.014845 -0.518592,0.996238 -5.669255,0.995382 -4.620487,-7.82e-4 -4.683066,-0.0051 -5.093059,-0.352011 z M 50.914947,65.67841 c 1.241295,-0.236467 2.969087,-0.813157 4.562949,-1.522986 3.121761,-1.390281 6.906583,-5.153939 8.284583,-8.238255 1.50923,-3.378038 1.767724,-4.581376 1.751057,-8.151507 -0.01133,-2.42613 -0.05864,-2.909802 -0.415574,-4.24791 -0.8557,-3.207973 -2.789965,-6.465596 -5.157353,-8.685843 -2.30501,-2.161746 -5.414664,-3.81888 -8.357449,-4.453682 -2.297227,-0.495546 -5.494217,-0.495332 -7.789472,4.69e-4 -4.138272,0.894008 -8.37093,3.756289 -10.861592,7.345015 -1.052573,1.516623 -2.28197,4.29037 -2.717272,6.130661 -0.508304,2.148917 -0.50608,6.164709 0.0046,8.2419 0.436441,1.77536 1.531683,4.308149 2.490911,5.760333 1.587843,2.403847 4.823842,5.247483 7.149766,6.282861 1.524599,0.678669 3.362368,1.304738 4.490151,1.529651 1.488066,0.296764 5.029262,0.301749 6.564733,0.0092 z"
     style="fill:#4acd35;fill-opacity:1" />
</svg>
