<?xml version="1.0" encoding="UTF-8" standalone="no"?>
<!-- Created with Inkscape (http://www.inkscape.org/) -->

<svg
   xmlns:dc="http://purl.org/dc/elements/1.1/"
   xmlns:cc="http://creativecommons.org/ns#"
   xmlns:rdf="http://www.w3.org/1999/02/22-rdf-syntax-ns#"
   xmlns:svg="http://www.w3.org/2000/svg"
   xmlns="http://www.w3.org/2000/svg"
   xmlns:sodipodi="http://sodipodi.sourceforge.net/DTD/sodipodi-0.dtd"
   xmlns:inkscape="http://www.inkscape.org/namespaces/inkscape"
   width="96"
   height="96"
   viewBox="0 0 96 96.000005"
   id="svg2"
   version="1.1"
   inkscape:version="0.91 r13725"
   sodipodi:docname="texmaker.svg">
  <defs
     id="defs4" />
  <sodipodi:namedview
     id="base"
     pagecolor="#ffffff"
     bordercolor="#666666"
     borderopacity="1.0"
     inkscape:pageopacity="0.0"
     inkscape:pageshadow="2"
     inkscape:zoom="1.9999999"
     inkscape:cx="39.960668"
     inkscape:cy="20.246432"
     inkscape:document-units="px"
     inkscape:current-layer="layer1"
     showgrid="false"
     units="px"
     inkscape:showpageshadow="false"
     borderlayer="true"
     inkscape:window-width="2560"
     inkscape:window-height="957"
     inkscape:window-x="-4"
     inkscape:window-y="29"
     inkscape:window-maximized="1">
    <inkscape:grid
       type="xygrid"
       id="grid4136" />
    <sodipodi:guide
       position="5,59.000069"
       orientation="54,0"
       id="guide4142" />
    <sodipodi:guide
       position="5,5.0000688"
       orientation="0,54"
       id="guide4144" />
    <sodipodi:guide
       position="59,5.0000688"
       orientation="-54,0"
       id="guide4146" />
    <sodipodi:guide
       position="59,59.000069"
       orientation="0,-54"
       id="guide4148" />
    <sodipodi:guide
       position="0,64.000069"
       orientation="64,0"
       id="guide4150" />
    <sodipodi:guide
       position="0,6.875e-05"
       orientation="0,64"
       id="guide4152" />
    <sodipodi:guide
       position="64,6.875e-05"
       orientation="-64,0"
       id="guide4154" />
    <sodipodi:guide
       position="64,64.000069"
       orientation="0,-64"
       id="guide4156" />
    <sodipodi:guide
       position="10,35"
       orientation="38,0"
       id="guide4155" />
    <sodipodi:guide
       position="54,37"
       orientation="-38,0"
       id="guide4159" />
    <sodipodi:guide
       position="51,50.999947"
       orientation="0,-38"
       id="guide4161" />
  </sodipodi:namedview>
  <metadata
     id="metadata7">
    <rdf:RDF>
      <cc:Work
         rdf:about="">
        <dc:format>image/svg+xml</dc:format>
        <dc:type
           rdf:resource="http://purl.org/dc/dcmitype/StillImage" />
        <dc:title></dc:title>
      </cc:Work>
    </rdf:RDF>
  </metadata>
  <g
     inkscape:label="Capa 1"
     inkscape:groupmode="layer"
     id="layer1"
     transform="translate(0,-1026.5196)">
    <g
       id="g4207"
       transform="matrix(1,0,0,1.0346016,0,-38.572038)">
      <rect
         ry="0"
         y="1114.9603"
         x="5.9999952"
         height="1.5000002"
         width="84.000008"
         id="rect4205"
         style="opacity:1;fill:#bfb8a7;fill-opacity:1;fill-rule:evenodd;stroke:none;stroke-width:1;stroke-linecap:butt;stroke-linejoin:miter;stroke-miterlimit:4;stroke-dasharray:none;stroke-opacity:1" />
      <rect
         y="1044.9641"
         x="6.0000048"
         height="68.444366"
         width="83.999992"
         id="rect4148-4"
         style="fill:#fdf9ee;fill-opacity:1;stroke:none" />
      <rect
         style="fill:#dbd7ce;fill-opacity:1;stroke:none"
         id="rect4310-5"
         width="83.999992"
         height="1.5555556"
         x="6.0000048"
         y="1113.4089" />
      <path
         id="rect4338-8"
         d="m 5.9999983,1048.0752 0,1.5555 83.9999957,0 0,-1.5555 -83.9999957,0 z m 0,6.2222 0,1.5555 83.9999957,0 0,-1.5555 -83.9999957,0 z m 0,6.2222 0,1.5556 83.9999957,0 0,-1.5556 -83.9999957,0 z m 0,6.2222 0,1.5556 83.9999957,0 0,-1.5556 -83.9999957,0 z m 0,6.2222 0,1.5556 83.9999957,0 0,-1.5556 -83.9999957,0 z m 0,6.2223 0,1.5555 83.9999957,0 0,-1.5555 -83.9999957,0 z m 0,6.2222 0,1.5555 83.9999957,0 0,-1.5555 -83.9999957,0 z m 0,6.2222 0,1.5556 83.9999957,0 0,-1.5556 -83.9999957,0 z m 0,6.2222 0,1.5556 83.9999957,0 0,-1.5556 -83.9999957,0 z m 0,6.2223 0,1.5555 83.9999957,0 0,-1.5555 -83.9999957,0 z m 0,6.2222 0,1.5555 83.9999957,0 0,-1.5555 -83.9999957,0 z"
         style="fill:#eceae4;fill-opacity:1;stroke:none"
         inkscape:connector-curvature="0" />
      <rect
         y="1044.9641"
         x="19.363632"
         height="68.444366"
         width="1.9090908"
         id="rect4336-3"
         style="fill:#ffdbdb;fill-opacity:1;stroke:none" />
      <path
         id="path14"
         d="m 39.630026,1062.1046 -19.690809,0 -0.575577,7.1413 0.612756,0 c 0.440633,-5.3485 0.92533,-6.2846 6.212932,-6.2846 0.612756,0 1.608312,0 1.882331,0 0.651311,0.097 0.651311,0.4889 0.651311,1.2321 l 0,17.5763 c 0,1.1669 -0.103273,1.5229 -2.975652,1.5229 l -0.968017,0 0,0.7797 c 1.635851,-0.031 3.340552,-0.061 5.013583,-0.061 1.667522,0 3.377731,0.032 5.012206,0.061 l 0,-0.7797 -0.951494,0 c -2.829692,0 -2.931589,-0.356 -2.931589,-1.5229 l 0,-17.5763 c 0,-0.7132 0,-1.1005 0.614133,-1.2321 l 1.871315,0 c 5.217376,0 5.728235,0.9308 6.168869,6.2847 l 0.614133,0"
         inkscape:connector-curvature="0"
         style="fill:#b5ac96;fill-opacity:1" />
      <path
         id="path16"
         d="m 56.740375,1082.947 -0.612756,0 c -0.747699,4.7878 -1.188333,7.3905 -7.186456,7.3905 l -4.73268,0 c -1.361832,0 -1.426551,-0.1631 -1.426551,-1.2739 l 0,-9.0256 3.216625,0 c 3.216624,0 3.523691,1.1162 3.523691,3.8413 l 0.548038,0 0,-8.3996 -0.548038,0 c 0,2.6795 -0.307066,3.7747 -3.523691,3.7747 l -3.216624,0 0,-8.0019 c 0,-1.09 0.06472,-1.253 1.426551,-1.253 l 4.662453,0 c 5.276586,0 5.890719,1.9857 6.368531,6.2546 l 0.614133,0 -0.817926,-7.1412 -17.265948,0 0,0.8866 c 2.415222,0 2.802153,0 2.802153,1.4513 l 0,17.425 c 0,1.4511 -0.381423,1.4511 -2.802153,1.4511 l 0,0.7799 17.745137,0"
         inkscape:connector-curvature="0"
         style="fill:#b5ac96;fill-opacity:1" />
      <path
         id="path18"
         d="m 65.933092,1071.8536 5.045253,-6.9066 c 0.505351,-0.678 1.532579,-2.0731 4.330601,-2.1084 l 0,-0.7797 c -0.780747,0.061 -2.076485,0.061 -2.894411,0.061 -1.123615,0 -2.522627,0 -3.372223,-0.061 l 0,0.7797 c 1.091945,0.097 1.360456,0.7432 1.360456,1.2635 0,0.386 -0.166615,0.6467 -0.408963,0.9675 l -4.501347,6.1829 -5.045253,-6.9926 c -0.236841,-0.3521 -0.269888,-0.4538 -0.269888,-0.5503 0,-0.2907 0.371784,-0.841 1.500907,-0.871 l 0,-0.7797 c -1.091944,0.061 -2.759467,0.061 -3.883082,0.061 -0.882644,0 -2.587345,0 -3.410778,-0.061 l 0,0.7797 c 1.872691,0 2.485448,0.066 3.238655,1.0692 l 6.577832,9.1481 -5.932028,8.2053 c -1.46373,2.0066 -3.67929,2.0418 -4.330601,2.0418 l 0,0.7797 c 0.77937,-0.061 2.076485,-0.061 2.894411,-0.061 0.919822,0 2.522627,0 3.372223,0.061 l 0,-0.7797 c -1.054766,-0.097 -1.360456,-0.7432 -1.360456,-1.2635 0,-0.4173 0.166615,-0.6467 0.338737,-0.8761 l 5.454216,-7.5378 5.932029,8.2562 c 0.268511,0.3573 0.268511,0.4537 0.268511,0.5502 0,0.2543 -0.305689,0.8097 -1.49953,0.8763 l 0,0.7796 c 1.091944,-0.061 2.759466,-0.061 3.883082,-0.061 0.882644,0 2.587345,0 3.414908,0.061 l 0,-0.7796 c -2.183889,0 -2.528133,-0.1578 -3.205608,-1.0692"
         inkscape:connector-curvature="0"
         style="fill:#b5ac96;fill-opacity:1" />
      <rect
         ry="0"
         y="1060.2435"
         x="70.909088"
         height="34.494411"
         width="7.636363"
         id="rect4312"
         style="fill:#7eceae;fill-opacity:1;stroke:none" />
      <path
         inkscape:connector-curvature="0"
         id="path4316"
         d="m 74.72727,1105.6307 -3.818182,-10.8929 7.636363,0 z"
         style="fill:#e8bb3e;fill-opacity:1;fill-rule:evenodd;stroke:none;stroke-width:1px;stroke-linecap:butt;stroke-linejoin:miter;stroke-opacity:1" />
      <path
         inkscape:connector-curvature="0"
         id="path4318"
         d="m 73.455785,1101.9997 1.271485,3.631 1.271485,-3.631 -2.54297,0 z"
         style="fill:#5b450b;fill-opacity:1;fill-rule:evenodd;stroke:none;stroke-width:1px;stroke-linecap:butt;stroke-linejoin:miter;stroke-opacity:1" />
      <path
         inkscape:connector-curvature="0"
         id="rect4325"
         d="m 74.72727,1054.7969 c -2.115244,0 -3.818182,1.6195 -3.818182,3.631 l 7.636363,0 c 0,-2.0115 -1.702937,-3.631 -3.818181,-3.631 z"
         style="fill:#ffaaaa;fill-opacity:1;stroke:none" />
      <rect
         y="1058.4281"
         x="70.909088"
         height="1.8154902"
         width="7.636363"
         id="rect4332"
         style="fill:#bdc3c7;fill-opacity:1;stroke:none" />
      <rect
         y="1035.2697"
         x="5.9999952"
         height="9.8125"
         width="84.000008"
         id="rect4203"
         style="opacity:1;fill:#90675a;fill-opacity:1;fill-rule:evenodd;stroke:none;stroke-width:1;stroke-linecap:butt;stroke-linejoin:miter;stroke-miterlimit:4;stroke-dasharray:none;stroke-opacity:1" />
    </g>
  </g>
</svg>
