<?xml version="1.0" encoding="UTF-8" standalone="no"?>
<!-- Created with Inkscape (http://www.inkscape.org/) -->

<svg
   xmlns:dc="http://purl.org/dc/elements/1.1/"
   xmlns:cc="http://creativecommons.org/ns#"
   xmlns:rdf="http://www.w3.org/1999/02/22-rdf-syntax-ns#"
   xmlns:svg="http://www.w3.org/2000/svg"
   xmlns="http://www.w3.org/2000/svg"
   xmlns:sodipodi="http://sodipodi.sourceforge.net/DTD/sodipodi-0.dtd"
   xmlns:inkscape="http://www.inkscape.org/namespaces/inkscape"
   width="96"
   height="96"
   viewBox="0 0 96 96.000005"
   id="svg2"
   version="1.1"
   inkscape:version="0.91 r13725"
   sodipodi:docname="utilities-terminal_su.svg">
  <defs
     id="defs4" />
  <sodipodi:namedview
     id="base"
     pagecolor="#ffffff"
     bordercolor="#666666"
     borderopacity="1.0"
     inkscape:pageopacity="0.0"
     inkscape:pageshadow="2"
     inkscape:zoom="1.4142135"
     inkscape:cx="160.95373"
     inkscape:cy="3.4525173"
     inkscape:document-units="px"
     inkscape:current-layer="layer1"
     showgrid="false"
     units="px"
     inkscape:showpageshadow="false"
     borderlayer="true"
     inkscape:window-width="2560"
     inkscape:window-height="957"
     inkscape:window-x="-4"
     inkscape:window-y="29"
     inkscape:window-maximized="1"
     showguides="false">
    <inkscape:grid
       type="xygrid"
       id="grid4136" />
    <sodipodi:guide
       position="5,59.000069"
       orientation="54,0"
       id="guide4142" />
    <sodipodi:guide
       position="5,5.0000688"
       orientation="0,54"
       id="guide4144" />
    <sodipodi:guide
       position="59,5.0000688"
       orientation="-54,0"
       id="guide4146" />
    <sodipodi:guide
       position="59,59.000069"
       orientation="0,-54"
       id="guide4148" />
    <sodipodi:guide
       position="0,64.000069"
       orientation="64,0"
       id="guide4150" />
    <sodipodi:guide
       position="0,6.875e-05"
       orientation="0,64"
       id="guide4152" />
    <sodipodi:guide
       position="64,6.875e-05"
       orientation="-64,0"
       id="guide4154" />
    <sodipodi:guide
       position="64,64.000069"
       orientation="0,-64"
       id="guide4156" />
  </sodipodi:namedview>
  <metadata
     id="metadata7">
    <rdf:RDF>
      <cc:Work
         rdf:about="">
        <dc:format>image/svg+xml</dc:format>
        <dc:type
           rdf:resource="http://purl.org/dc/dcmitype/StillImage" />
        <dc:title></dc:title>
      </cc:Work>
    </rdf:RDF>
  </metadata>
  <g
     inkscape:label="Capa 1"
     inkscape:groupmode="layer"
     id="layer1"
     transform="translate(0,-1026.5196)">
    <g
       id="g4164"
       transform="matrix(1.6799997,0,0,1.6799977,-5.7599817,-754.19076)">
      <g
         id="g4161">
        <rect
           style="fill:#b3b3b3;fill-opacity:1;stroke:none;stroke-width:0.96225029"
           id="rect4148"
           width="50.000008"
           height="50.000069"
           x="6.9999905"
           y="1063.5195"
           ry="1.0000688" />
      </g>
      <rect
         ry="0.99994665"
         y="1066.5197"
         x="10"
         height="32.000053"
         width="44"
         id="rect4349"
         style="opacity:1;fill:#aa0000;fill-opacity:1;stroke:none;stroke-width:7.652174;stroke-linecap:round;stroke-linejoin:round;stroke-miterlimit:4;stroke-dasharray:none;stroke-opacity:1" />
      <path
         id="rect4171"
         transform="translate(0,1058.5196)"
         d="m 46,46 c -0.55397,0 -1,0.44603 -1,1 l 0,1 -14,0 0,1 14,0 0,1 c 0,0.55397 0.44603,1 1,1 l 6,0 c 0.55397,0 1,-0.44603 1,-1 l 0,-3 c 0,-0.55397 -0.44603,-1 -1,-1 l -6,0 z"
         style="opacity:1;fill:#212921;fill-opacity:1;stroke:none;stroke-width:8;stroke-linecap:round;stroke-linejoin:round;stroke-miterlimit:4;stroke-dasharray:none;stroke-opacity:1"
         inkscape:connector-curvature="0" />
    </g>
    <g
       style="overflow:visible;fill:#ffffff"
       id="g66"
       transform="matrix(1.4869167,0,0,1.4869167,4.5932797,1014.5695)">
      <path
         id="path641"
         d="M 11.2109,32.7134 C 10.28722,32.649661 9.444,32.370677 8.68019,31.876446 l 0.768,-1.8568 c 0.82128,0.586181 1.62898,0.877704 2.42205,0.877704 1.22043,0 1.83064,-0.420044 1.83064,-1.26222 0,-0.420044 -0.155689,-0.815011 -0.46811,-1.18595 C 12.920349,28.079289 12.328943,27.675963 11.45646,27.2392 10.583979,26.802437 9.99048,26.440906 9.67597,26.15356 9.361459,25.867261 9.119045,25.523493 8.951863,25.12644 8.783637,24.728339 8.699001,24.284262 8.699001,23.79525 c 0,-0.723062 0.227785,-1.36044 0.681266,-1.91319 0.454526,-0.551699 1.06474,-0.921589 1.8296,-1.10758 l 0,-1.44926 1.82542,0 -0.0083,1.3678 c 0.986374,0.09509 1.72197,0.333319 2.20471,0.713658 l -0.6311,1.7962 c -0.730376,-0.530803 -1.49941,-0.796203 -2.30815,-0.796203 -0.478558,0 -0.850538,0.129566 -1.11385,0.387652 -0.263311,0.259133 -0.394967,0.584093 -0.394967,0.97906 0,0.671861 0.741869,1.3688 2.22665,2.09186 0.781575,0.382429 1.34581,0.7356 1.69167,1.05743 0.345856,0.321825 0.609168,0.695895 0.789934,1.1243 0.180765,0.427359 0.27167,0.904872 0.27167,1.43149 0,0.743959 -0.241369,1.39388 -0.724106,1.94871 -0.482738,0.555879 -1.15356,0.937262 -2.01141,1.14519 l 0,1.83796 -1.81601,0 0,-1.69689 -10e-4,0 z"
         inkscape:connector-curvature="0" />
      <path
         id="polygon642"
         d="m 19.595,25.651 0,-1.737 6.095,2.93 0,1.23 -6.095,2.949 0,-1.738 4.024,-1.826 z"
         transform="matrix(1.0448867,0,0,1.0448867,-1.3496335,-1.2328694)"
         inkscape:connector-curvature="0" />
    </g>
  </g>
</svg>
