<?xml version="1.0" encoding="UTF-8" standalone="no"?>
<svg
   xmlns:dc="http://purl.org/dc/elements/1.1/"
   xmlns:cc="http://creativecommons.org/ns#"
   xmlns:rdf="http://www.w3.org/1999/02/22-rdf-syntax-ns#"
   xmlns:svg="http://www.w3.org/2000/svg"
   xmlns="http://www.w3.org/2000/svg"
   xmlns:sodipodi="http://sodipodi.sourceforge.net/DTD/sodipodi-0.dtd"
   xmlns:inkscape="http://www.inkscape.org/namespaces/inkscape"
   height="96"
   width="96"
   id="svg29"
   version="1.1"
   viewBox="0 0 96 96"
   inkscape:version="0.91 r13725"
   sodipodi:docname="vivaldi.svg">
  <sodipodi:namedview
     pagecolor="#ffffff"
     bordercolor="#666666"
     borderopacity="1"
     objecttolerance="10"
     gridtolerance="10"
     guidetolerance="10"
     inkscape:pageopacity="0"
     inkscape:pageshadow="2"
     inkscape:window-width="640"
     inkscape:window-height="480"
     id="namedview37"
     showgrid="false"
     inkscape:zoom="2.484375"
     inkscape:cx="53.116582"
     inkscape:cy="31.090433"
     inkscape:current-layer="svg29" />
  <metadata
     id="metadata33">
    <rdf:RDF>
      <cc:Work
         rdf:about="">
        <dc:format>image/svg+xml</dc:format>
        <dc:type
           rdf:resource="http://purl.org/dc/dcmitype/StillImage" />
        <dc:title></dc:title>
      </cc:Work>
    </rdf:RDF>
  </metadata>
  <defs
     id="defs7" />
  <g
     id="g4169"
     transform="matrix(0.19071653,0,0,0.19071652,-0.8234312,-0.82342941)">
    <path
       inkscape:connector-curvature="0"
       style="fill:#f64747;fill-opacity:0.99607843;stroke-width:9.57487583"
       id="path17"
       d="M 256,35.777863 C 377.62964,35.777863 476.22213,134.37036 476.22213,256 476.22213,377.62965 377.62964,476.22214 256,476.22214 134.37036,476.22214 35.777865,377.62965 35.777865,256 35.777865,134.37036 134.37036,35.777863 256,35.777863 Z" />
    <g
       transform="translate(5.0082457,11.437068)"
       id="g4165">
      <path
         inkscape:connector-curvature="0"
         id="path25"
         style="opacity:0.3;fill:#000000;fill-rule:evenodd;stroke:none;stroke-width:9.57487583"
         d="m 130.93872,200.89545 100.12447,176.89582 c 0,0 5.41938,9.46955 19.06358,9.46955 13.63462,0 19.06358,-9.46955 19.06358,-9.46955 0,0 69.59019,-106.58751 97.9797,-163.44312 2.85331,-5.70663 5.92685,-11.48028 7.21946,-17.74225 0.88088,-4.25124 1.30218,-8.80888 0.28724,-13.0314 -1.23516,-5.15129 -3.6193,-10.41747 -7.5067,-14.00805 -4.49062,-4.14592 -10.72386,-6.69283 -16.79433,-7.32478 -6.53007,-0.68939 -13.491,0.88089 -19.34125,3.93528 -4.10762,2.16392 -7.75565,5.62045 -10.05362,9.67062 -2.27882,4.01188 -2.86289,8.87591 -3.12141,13.48143 -0.17235,3.16928 0.45002,6.35772 1.10111,9.45997 0.22022,1.06282 0.58407,2.0969 0.94791,3.11184 0.92877,2.59479 2.19265,5.05553 3.14056,7.64075 0.78514,2.12562 1.87668,4.21295 2.12563,6.47262 0.40214,3.63845 0.30639,7.52585 -1.03409,10.92493 -6.53964,16.54538 -17.78054,32.45883 -32.64075,42.17733 -6.15665,4.02144 -14.03677,5.02681 -21.3807,5.34278 -8.37801,0.35427 -18.02949,-0.3064 -24.82765,-4.0023 -6.79816,-3.6959 -9.99617,-10.11107 -14.25699,-15.76982 -19.5519,-25.94791 -51.51283,-82.78438 -51.51283,-82.78438 0,0 -13.89315,-24.55955 -38.89315,-9.67062 -24.99042,14.89851 -9.71849,38.6825 -9.71849,38.6825 z" />
      <path
         inkscape:connector-curvature="0"
         id="path27"
         style="fill:#f9f9f9;fill-rule:evenodd;stroke:none;stroke-width:9.57487583"
         d="M 131.36385,189.32057 231.48832,366.2164 c 0,0 5.41938,9.46955 19.06358,9.46955 13.63462,0 19.06357,-9.46955 19.06357,-9.46955 0,0 69.5902,-106.58752 97.9797,-163.44313 2.85332,-5.70662 5.92685,-11.48027 7.21946,-17.74224 0.88089,-4.25125 1.30218,-8.80889 0.28725,-13.03141 -1.23516,-5.15128 -3.61931,-10.41746 -7.50671,-14.00804 -4.49061,-4.14592 -10.72386,-6.69284 -16.79433,-7.32478 -6.53006,-0.68939 -13.491,0.88089 -19.34125,3.93527 -4.10762,2.16393 -7.75565,5.62046 -10.05362,9.67063 -2.27882,4.01187 -2.86288,8.87591 -3.1214,13.48142 -0.17235,3.16929 0.45001,6.35772 1.10111,9.45998 0.22022,1.06281 0.58406,2.0969 0.94791,3.11183 0.92876,2.5948 2.19265,5.05554 3.14056,7.64075 0.78514,2.12563 1.87667,4.21295 2.12562,6.47262 0.40214,3.63845 0.3064,7.52585 -1.03409,10.92493 -6.53964,16.54539 -17.78054,32.45883 -32.64075,42.17733 -6.15664,4.02145 -14.03676,5.02681 -21.38069,5.34278 -8.37802,0.35427 -18.02949,-0.3064 -24.82766,-4.0023 -6.79816,-3.6959 -9.99617,-10.11107 -14.25699,-15.76982 -19.55189,-25.94791 -51.51283,-82.78437 -51.51283,-82.78437 0,0 -13.89314,-24.55956 -38.89314,-9.67063 -24.99043,14.89851 -9.7185,38.6825 -9.7185,38.6825 z" />
    </g>
  </g>
</svg>
