<?xml version="1.0" encoding="UTF-8" standalone="no"?>
<svg
   xmlns:dc="http://purl.org/dc/elements/1.1/"
   xmlns:cc="http://creativecommons.org/ns#"
   xmlns:rdf="http://www.w3.org/1999/02/22-rdf-syntax-ns#"
   xmlns:svg="http://www.w3.org/2000/svg"
   xmlns="http://www.w3.org/2000/svg"
   xmlns:sodipodi="http://sodipodi.sourceforge.net/DTD/sodipodi-0.dtd"
   xmlns:inkscape="http://www.inkscape.org/namespaces/inkscape"
   width="96"
   version="1.0"
   height="96"
   id="svg2"
   inkscape:version="0.91 r13725"
   sodipodi:docname="vmware-netcfg.svg">
  <metadata
     id="metadata28">
    <rdf:RDF>
      <cc:Work
         rdf:about="">
        <dc:format>image/svg+xml</dc:format>
        <dc:type
           rdf:resource="http://purl.org/dc/dcmitype/StillImage" />
        <dc:title></dc:title>
      </cc:Work>
    </rdf:RDF>
  </metadata>
  <sodipodi:namedview
     pagecolor="#ffffff"
     bordercolor="#666666"
     borderopacity="1"
     objecttolerance="10"
     gridtolerance="10"
     guidetolerance="10"
     inkscape:pageopacity="0"
     inkscape:pageshadow="2"
     inkscape:window-width="640"
     inkscape:window-height="480"
     id="namedview26"
     showgrid="false"
     inkscape:zoom="4"
     inkscape:cx="66.084352"
     inkscape:cy="60.238093"
     inkscape:current-layer="svg2" />
  <defs
     id="defs2410">
    <clipPath
       id="clipPath3613">
      <rect
         width="84"
         x="6"
         y="6"
         rx="6"
         height="84"
         ry="6"
         style="fill:#fff;stroke:none"
         id="rect3615" />
    </clipPath>
    <filter
       style="color-interpolation-filters:sRGB"
       id="filter3174">
      <feGaussianBlur
         stdDeviation="1.71"
         id="feGaussianBlur3176" />
    </filter>
    <linearGradient
       gradientTransform="scale(1.0058652,0.994169)"
       id="ButtonShadow"
       y1="92.539597"
       x1="45.447727"
       y2="7.0165396"
       x2="45.447727"
       gradientUnits="userSpaceOnUse">
      <stop
         offset="0"
         id="stop3750" />
      <stop
         offset="1"
         style="stop-opacity:.588"
         id="stop3752" />
    </linearGradient>
  </defs>
  <g
     style="display:none"
     id="layer2">
    <rect
       width="86"
       x="5"
       y="7"
       rx="6"
       height="85"
       ry="6"
       style="opacity:.9;fill:url(#ButtonShadow);filter:url(#filter3174);stroke:none"
       id="rect3745" />
  </g>
  <rect
     id="rect2419"
     style="text-align:start;fill:#6495ed;stroke:none"
     ry="0.056761779"
     height="84"
     rx="6"
     y="6"
     x="6"
     width="84" />
  <path
     style="color:#000000;display:inline;overflow:visible;visibility:visible;fill:#fce94f;fill-opacity:1;fill-rule:nonzero;stroke:none;stroke-width:1;marker:none;enable-background:accumulate"
     id="rect2986"
     inkscape:connector-curvature="0"
     d="m 36.51923,23.125 0,19.134615 7.653846,0 0,3.826923 -26.788461,0 0,3.826924 11.480769,0 0,3.826923 -7.653846,0 0,19.134615 22.961538,0 0,-19.134615 -7.653846,0 0,-3.826923 22.961539,0 0,3.826923 -7.653846,0 0,19.134615 22.961539,0 0,-19.134615 -7.653847,0 0,-3.826923 11.48077,0 0,-3.826924 -26.788462,0 0,-3.826923 7.653846,0 0,-19.134615 z m 3.826923,3.826923 15.307693,0 0,11.480769 -15.307693,0 z m -15.307692,30.615385 15.307692,0 0,11.480769 -15.307692,0 z m 30.615385,0 15.307692,0 0,11.480769 -15.307692,0 z" />
</svg>
