<?xml version="1.0" encoding="UTF-8" standalone="no"?>
<svg
   xmlns:dc="http://purl.org/dc/elements/1.1/"
   xmlns:cc="http://creativecommons.org/ns#"
   xmlns:rdf="http://www.w3.org/1999/02/22-rdf-syntax-ns#"
   xmlns:svg="http://www.w3.org/2000/svg"
   xmlns="http://www.w3.org/2000/svg"
   xmlns:sodipodi="http://sodipodi.sourceforge.net/DTD/sodipodi-0.dtd"
   xmlns:inkscape="http://www.inkscape.org/namespaces/inkscape"
   width="96"
   version="1.0"
   height="96"
   id="svg2"
   inkscape:version="0.91 r13725"
   sodipodi:docname="vmware-workstation.svg">
  <metadata
     id="metadata28">
    <rdf:RDF>
      <cc:Work
         rdf:about="">
        <dc:format>image/svg+xml</dc:format>
        <dc:type
           rdf:resource="http://purl.org/dc/dcmitype/StillImage" />
        <dc:title></dc:title>
      </cc:Work>
    </rdf:RDF>
  </metadata>
  <sodipodi:namedview
     pagecolor="#ffffff"
     bordercolor="#666666"
     borderopacity="1"
     objecttolerance="10"
     gridtolerance="10"
     guidetolerance="10"
     inkscape:pageopacity="0"
     inkscape:pageshadow="2"
     inkscape:window-width="640"
     inkscape:window-height="480"
     id="namedview26"
     showgrid="false"
     inkscape:zoom="4"
     inkscape:cx="36.199605"
     inkscape:cy="56.03226"
     inkscape:current-layer="svg2" />
  <defs
     id="defs2410">
    <clipPath
       id="clipPath3613">
      <rect
         width="84"
         x="6"
         y="6"
         rx="6"
         height="84"
         ry="6"
         style="fill:#fff;stroke:none"
         id="rect3615" />
    </clipPath>
    <filter
       style="color-interpolation-filters:sRGB"
       id="filter3174">
      <feGaussianBlur
         stdDeviation="1.71"
         id="feGaussianBlur3176" />
    </filter>
    <linearGradient
       gradientTransform="scale(1.0058652,0.994169)"
       id="ButtonShadow"
       y1="92.539597"
       x1="45.447727"
       y2="7.0165396"
       x2="45.447727"
       gradientUnits="userSpaceOnUse">
      <stop
         offset="0"
         id="stop3750" />
      <stop
         offset="1"
         style="stop-opacity:.588"
         id="stop3752" />
    </linearGradient>
  </defs>
  <g
     style="display:none"
     id="layer2">
    <rect
       width="86"
       x="5"
       y="7"
       rx="6"
       height="85"
       ry="6"
       style="opacity:.9;fill:url(#ButtonShadow);filter:url(#filter3174);stroke:none"
       id="rect3745" />
  </g>
  <rect
     id="rect2419"
     style="text-align:start;fill:#6495ed;stroke:none"
     ry="0.056761779"
     height="84"
     rx="6"
     y="6"
     x="6"
     width="84" />
  <path
     id="path4419"
     d="m 62.44523,78.641391 c 2.910057,0 5.25281,-2.342753 5.25281,-5.25281 l 0,-39.833808 c 0,-2.910057 -2.342753,-5.252811 -5.25281,-5.252811 l -39.83381,0 c -2.910057,0 -5.25281,2.342754 -5.25281,5.252811 l 0,39.833808 c 0,2.910057 2.342753,5.25281 5.25281,5.25281 z m -5.690544,-10.943355 -28.452722,0 0,-28.452719 28.452722,0 z"
     style="fill:#ffad53;fill-opacity:1;stroke:none"
     inkscape:connector-curvature="0"
     sodipodi:nodetypes="sssssssssccccc" />
  <path
     style="fill:#87ceeb;fill-opacity:1;stroke:none"
     d="m 73.38858,67.698036 c 2.910057,0 5.25281,-2.342753 5.25281,-5.25281 l 0,-39.833807 c 0,-2.910058 -2.342753,-5.25281 -5.25281,-5.25281 l -39.833806,0 c -2.910057,0 -5.25281,2.342752 -5.25281,5.25281 l 0,5.690544 39.396076,0 0,28.452719 -28.452721,0 0,-17.509365 -10.943355,0 0,23.199909 c 0,2.910057 2.342753,5.25281 5.25281,5.25281 z"
     id="path4421"
     inkscape:connector-curvature="0"
     sodipodi:nodetypes="ssssssccccccsss" />
</svg>
