<?xml version="1.0" encoding="UTF-8" standalone="no"?>
<!-- Created with Inkscape (http://www.inkscape.org/) -->

<svg
   xmlns:dc="http://purl.org/dc/elements/1.1/"
   xmlns:cc="http://creativecommons.org/ns#"
   xmlns:rdf="http://www.w3.org/1999/02/22-rdf-syntax-ns#"
   xmlns:svg="http://www.w3.org/2000/svg"
   xmlns="http://www.w3.org/2000/svg"
   xmlns:sodipodi="http://sodipodi.sourceforge.net/DTD/sodipodi-0.dtd"
   xmlns:inkscape="http://www.inkscape.org/namespaces/inkscape"
   width="96"
   height="96"
   viewBox="0 0 96 96.000005"
   id="svg2"
   version="1.1"
   inkscape:version="0.91 r13725"
   sodipodi:docname="desktop-environment-xfce.svg">
  <defs
     id="defs4" />
  <sodipodi:namedview
     id="base"
     pagecolor="#ffffff"
     bordercolor="#666666"
     borderopacity="1.0"
     inkscape:pageopacity="0.0"
     inkscape:pageshadow="2"
     inkscape:zoom="5.59"
     inkscape:cx="42.680097"
     inkscape:cy="44.871911"
     inkscape:document-units="px"
     inkscape:current-layer="layer1"
     showgrid="false"
     units="px"
     inkscape:showpageshadow="false"
     borderlayer="true"
     inkscape:window-width="1366"
     inkscape:window-height="670"
     inkscape:window-x="-4"
     inkscape:window-y="29"
     inkscape:window-maximized="1">
    <inkscape:grid
       type="xygrid"
       id="grid4136" />
    <sodipodi:guide
       position="5,59.000069"
       orientation="54,0"
       id="guide4142" />
    <sodipodi:guide
       position="5,5.0000688"
       orientation="0,54"
       id="guide4144" />
    <sodipodi:guide
       position="59,5.0000688"
       orientation="-54,0"
       id="guide4146" />
    <sodipodi:guide
       position="59,59.000069"
       orientation="0,-54"
       id="guide4148" />
    <sodipodi:guide
       position="0,64.000069"
       orientation="64,0"
       id="guide4150" />
    <sodipodi:guide
       position="0,6.875e-05"
       orientation="0,64"
       id="guide4152" />
    <sodipodi:guide
       position="64,6.875e-05"
       orientation="-64,0"
       id="guide4154" />
    <sodipodi:guide
       position="64,64.000069"
       orientation="0,-64"
       id="guide4156" />
    <sodipodi:guide
       position="15,48.999949"
       orientation="34,0"
       id="guide4168" />
    <sodipodi:guide
       position="15,14.999947"
       orientation="0,34"
       id="guide4170" />
    <sodipodi:guide
       position="49,14.999947"
       orientation="-34,0"
       id="guide4172" />
    <sodipodi:guide
       position="49,48.999949"
       orientation="0,-34"
       id="guide4174" />
    <sodipodi:guide
       position="15,32.000436"
       orientation="17,0"
       id="guide4175" />
    <sodipodi:guide
       position="15,15.000436"
       orientation="0,17"
       id="guide4177" />
    <sodipodi:guide
       position="32,15.000436"
       orientation="-17,0"
       id="guide4179" />
    <sodipodi:guide
       position="32,32.000436"
       orientation="0,-17"
       id="guide4181" />
  </sodipodi:namedview>
  <metadata
     id="metadata7">
    <rdf:RDF>
      <cc:Work
         rdf:about="">
        <dc:format>image/svg+xml</dc:format>
        <dc:type
           rdf:resource="http://purl.org/dc/dcmitype/StillImage" />
        <dc:title></dc:title>
      </cc:Work>
    </rdf:RDF>
  </metadata>
  <g
     inkscape:label="Capa 1"
     inkscape:groupmode="layer"
     id="layer1"
     transform="translate(0,-1026.5196)">
    <rect
       style="opacity:1;fill:#8787de;fill-opacity:1;fill-rule:evenodd;stroke:none;stroke-width:1;stroke-linecap:butt;stroke-linejoin:miter;stroke-miterlimit:4;stroke-dasharray:none;stroke-opacity:1"
       id="rect17906"
       width="84.000008"
       height="84.000008"
       x="5.9999952"
       y="1032.5197" />
    <path
       style="fill:#dbdee3;fill-opacity:1;stroke-width:0.04241677"
       d="m 33.239191,1094.8469 c -0.09636,-0.1295 -0.174887,-0.3631 -0.174681,-0.5172 5.08e-4,-0.3914 0.256856,-1.4726 0.748267,-3.1594 0.509634,-1.7495 0.582288,-2.1121 0.422919,-2.1109 -0.06329,0 -0.533532,0.185 -1.044989,0.4132 -1.803849,0.8 -2.364529,0.9149 -2.778296,0.5686 -0.190303,-0.1604 -0.22273,-0.2553 -0.22273,-0.6611 0,-0.7924 0.315489,-1.3117 1.842296,-3.0326 1.106323,-1.2467 1.150635,-1.3402 1.03095,-2.171 -0.149315,-1.0365 -0.204918,-4.4733 -0.08987,-5.5513 0.281911,-2.6424 1.115676,-5.1323 2.383802,-7.1188 0.345292,-0.5408 0.347424,-0.549 0.215708,-0.843 -0.454163,-1.0131 -3.572131,-3.762 -6.904491,-6.0873 -3.116488,-2.1748 -5.170293,-3.3561 -8.416407,-4.841 -5.452203,-2.4938 -9.25167,-4.7447 -9.25167,-5.481 0,-0.092 0.06473,-0.2072 0.144053,-0.254 0.176305,-0.1069 0.406788,-0.021 2.391958,0.9776 3.243536,1.615 5.815495,2.7074 7.715492,3.2766 1.96839,0.5901 3.29858,1.1387 5.140611,2.1201 3.340983,1.7801 7.050267,4.5989 10.129097,7.697 l 0.878968,0.8845 0.684948,-0.3928 c 1.575175,-0.903 2.898464,-1.355 3.971028,-1.3561 0.748085,0 1.712751,0.1542 5.33662,0.8533 5.05905,0.9774 7.175812,1.2376 8.573703,1.0545 1.331365,-0.1747 1.526645,-0.3626 2.159876,-2.0815 0.360125,-0.9776 0.640982,-1.4783 1.037889,-1.8504 l 0.191927,-0.1788 -0.302647,-1.3039 c -0.5945,-2.5614 -0.486199,-4.1253 0.354587,-5.1199 0.737595,-0.8728 1.358957,-1.0237 2.148309,-0.5221 0.791504,0.5027 1.550341,1.7556 2.654839,4.383 0.259919,0.6183 0.53615,1.1746 0.613875,1.2366 0.192133,0.1522 0.694647,0.1439 0.751333,-0.023 0.02475,-0.07 -0.08886,-0.6458 -0.253103,-1.2816 -0.690038,-2.6737 -0.78781,-4.4215 -0.31139,-5.5673 0.207736,-0.4995 0.701826,-0.9885 1.170374,-1.1585 0.549175,-0.1994 1.385354,-0.1829 1.785345,0.035 1.200301,0.6516 1.869544,2.976 1.869544,6.4939 0,1.1815 0.01624,1.3283 0.147898,1.3718 0.08136,0.029 0.889741,0.1727 1.796401,0.324 6.247848,1.0426 9.635271,2.3699 11.558235,4.5282 0.920945,1.0339 1.45468,2.348 1.346846,3.3166 -0.107732,0.967 -1.025595,2.2007 -2.492528,3.3502 -1.519058,1.1903 -4.588353,2.9721 -8.112645,4.7101 -0.711078,0.3504 -1.462632,0.7616 -1.670126,0.9135 -0.652849,0.4779 -0.90723,1.2629 -0.679347,2.0968 0.112809,0.4124 0.27477,0.6588 0.959108,1.4589 1.936354,2.2633 2.583118,3.251 2.694381,4.1146 0.04625,0.3595 0.02617,0.4333 -0.176099,0.6485 -0.214573,0.2284 -0.259148,0.2391 -0.743377,0.1809 -0.532114,-0.066 -1.341937,-0.3092 -3.848567,-1.1645 -1.686904,-0.5755 -2.301978,-0.7001 -2.301978,-0.4662 0,0.2923 0.253041,0.6629 1.268371,1.858 1.14907,1.3528 1.574788,1.9826 1.744057,2.581 0.299137,1.0574 -0.08399,1.998 -0.813455,1.998 -0.753341,0 -3.317347,-1.0399 -7.469389,-3.0297 l -1.593112,-0.7636 -1.196586,0.185 c -3.280583,0.5114 -5.918624,0.676 -9.839071,0.6138 -3.944349,-0.062 -6.336874,-0.3522 -9.178674,-1.1119 l -1.169704,-0.3127 -0.301652,0.2447 c -0.165966,0.1336 -1.12367,1.0148 -2.128327,1.9558 -2.687442,2.5175 -3.640869,3.2963 -4.035018,3.2963 -0.103682,0 -0.267487,-0.1089 -0.363858,-0.237 z m 41.036227,-17.3288 c 0.616492,-0.4426 1.453889,-1.2759 1.614921,-1.6068 0.267364,-0.5501 0.07649,-0.8229 -0.394474,-0.5637 -0.568815,0.3129 -2.695456,2.7086 -2.699008,3.0406 -0.001,0.092 0.776389,-0.3661 1.478561,-0.8701 z m -1.732982,-2.19 c 0.952455,-0.3731 2.510994,-1.1453 2.72368,-1.3503 0.611602,-0.5887 -0.690141,-0.3028 -2.134759,0.4691 -0.882701,0.4715 -2.165495,1.2685 -2.23537,1.3889 -0.06169,0.1069 0.594562,-0.094 1.646449,-0.5077 z m -1.198898,-4.3894 c 0.49908,-0.2473 0.509124,-0.4052 0.02576,-0.4052 -0.689857,0 -1.558256,-0.4105 -1.978697,-0.9357 -0.209523,-0.2616 -0.47995,-0.8222 -0.654351,-1.3564 -0.143437,-0.4391 -0.14872,-0.4442 -0.210294,-0.1974 -0.158463,0.6393 0.180766,1.7765 0.727412,2.4386 0.563559,0.6828 1.303874,0.844 2.090184,0.4542 z m 0.555158,-1.8519 c 0.640232,-0.5356 0.641753,-1.6796 0.002,-2.1939 -0.08927,-0.074 -0.333465,-0.1315 -0.542702,-0.1315 -0.412063,0 -0.619292,0.1233 -0.859146,0.51 -0.189296,0.3052 -0.204919,1.0097 -0.03024,1.3692 0.298547,0.6142 0.975218,0.8251 1.429097,0.4452 z m 10.128713,-2.9776 c -0.348257,-0.3705 0.191331,-1.8558 1.391825,-3.832 0.756323,-1.2451 1.443461,-1.9098 1.573836,-1.5232 0.148309,0.4401 -2.127899,5.0791 -2.633272,5.3667 -0.209966,0.1192 -0.209054,0.1192 -0.332389,-0.023 z m -1.54673,-0.6728 c -0.224697,-0.6126 0.443248,-5.0193 0.822179,-5.4244 0.218876,-0.2338 0.369499,0.1151 0.369499,0.8518 0,1.1745 -0.33034,3.5364 -0.616655,4.4089 -0.151145,0.4611 -0.436228,0.5423 -0.575023,0.1645 z"
       id="path4168"
       inkscape:connector-curvature="0" />
  </g>
</svg>
