<?xml version="1.0" encoding="UTF-8" standalone="no"?>
<!-- Created with Inkscape (http://www.inkscape.org/) -->

<svg
   xmlns:dc="http://purl.org/dc/elements/1.1/"
   xmlns:cc="http://creativecommons.org/ns#"
   xmlns:rdf="http://www.w3.org/1999/02/22-rdf-syntax-ns#"
   xmlns:svg="http://www.w3.org/2000/svg"
   xmlns="http://www.w3.org/2000/svg"
   xmlns:sodipodi="http://sodipodi.sourceforge.net/DTD/sodipodi-0.dtd"
   xmlns:inkscape="http://www.inkscape.org/namespaces/inkscape"
   width="48"
   height="48"
   id="svg6828"
   version="1.1"
   inkscape:version="0.92.1 r"
   sodipodi:docname="preferences-desktop-font.svg">
  <defs
     id="defs6830" />
  <sodipodi:namedview
     id="base"
     pagecolor="#ffffff"
     bordercolor="#666666"
     borderopacity="1.0"
     inkscape:pageopacity="0.0"
     inkscape:pageshadow="2"
     inkscape:zoom="5.598901"
     inkscape:cx="27.930675"
     inkscape:cy="16.833801"
     inkscape:current-layer="layer1"
     showgrid="true"
     inkscape:grid-bbox="true"
     inkscape:document-units="px"
     inkscape:window-width="1366"
     inkscape:window-height="698"
     inkscape:window-x="-4"
     inkscape:window-y="-5"
     inkscape:window-maximized="1"
     showguides="false"
     inkscape:guide-bbox="true"
     inkscape:snap-global="true">
    <inkscape:grid
       type="xygrid"
       id="grid7354" />
    <sodipodi:guide
       orientation="0,1"
       position="29,3"
       id="guide7496"
       inkscape:locked="false" />
    <sodipodi:guide
       orientation="0,1"
       position="26,29"
       id="guide7498"
       inkscape:locked="false" />
    <sodipodi:guide
       orientation="1,0"
       position="3,21"
       id="guide7500"
       inkscape:locked="false" />
    <sodipodi:guide
       orientation="1,0"
       position="29,17"
       id="guide7502"
       inkscape:locked="false" />
    <sodipodi:guide
       orientation="0,1"
       position="34,16"
       id="guide7504"
       inkscape:locked="false" />
  </sodipodi:namedview>
  <metadata
     id="metadata6833">
    <rdf:RDF>
      <cc:Work
         rdf:about="">
        <dc:format>image/svg+xml</dc:format>
        <dc:type
           rdf:resource="http://purl.org/dc/dcmitype/StillImage" />
        <dc:title />
      </cc:Work>
    </rdf:RDF>
  </metadata>
  <g
     id="layer1"
     inkscape:label="Layer 1"
     inkscape:groupmode="layer"
     transform="translate(0,16)">
    <circle
       style="fill:#1a1a1a;fill-opacity:1;stroke:none;stroke-width:0.32307693;stroke-linecap:square;stroke-linejoin:miter;stroke-miterlimit:4;stroke-dasharray:none;stroke-opacity:0.24705882"
       id="path6007"
       cx="24"
       cy="8"
       r="21" />
    <g
       transform="matrix(1.4723854,0,0,1.4723854,-565.79554,-775.36886)"
       style="font-style:normal;font-variant:normal;font-weight:normal;font-stretch:normal;font-size:16.25px;line-height:125%;font-family:Oxygen;-inkscape-font-specification:Oxygen;letter-spacing:0px;word-spacing:0px;fill:#e6e6e6;fill-opacity:1;stroke:none"
       id="text4228">
      <path
         inkscape:connector-curvature="0"
         d="m 395.02473,532.78927 1.99875,-5.655 1.80375,5.655 z m 5.57375,4.8425 h 1.43 l -4.17625,-11.8625 h -1.69 l -4.42,11.8625 h 1.43 l 1.41375,-3.75375 h 4.7125 z"
         style="fill:#e6e6e6;fill-opacity:1"
         id="path4233" />
      <path
         inkscape:connector-curvature="0"
         d="m 405.53315,536.78677 c -0.82875,0 -1.44625,-0.40625 -1.44625,-1.38125 0,-1.21875 0.73125,-1.60875 3.20125,-1.93375 0.0163,0 0.79625,-0.11375 0.79625,-0.11375 v 2.145 c -0.56875,0.78 -1.7225,1.28375 -2.55125,1.28375 z m 2.58375,-0.11375 0.195,0.95875 h 1.08875 v -6.4025 c 0,-1.95 -1.34875,-2.51875 -3.07125,-2.51875 -1.235,0 -2.38875,0.30875 -3.055,0.66625 l 0.37375,1.04 c 0.715,-0.34125 1.755,-0.585 2.71375,-0.585 1.2025,0 1.7225,0.5525 1.7225,1.60875 v 0.99125 l -0.8775,0.0975 c -2.2425,0.325 -4.4525,0.63375 -4.4525,2.925 0,1.625 1.21875,2.3725 2.64875,2.3725 0.91,0 1.95,-0.2925 2.71375,-1.15375 z"
         style="fill:#e6e6e6;fill-opacity:1"
         id="path4235" />
    </g>
  </g>
</svg>
