<?xml version="1.0" encoding="UTF-8" standalone="no"?>
<!-- Created with Inkscape (http://www.inkscape.org/) -->

<svg
   xmlns:dc="http://purl.org/dc/elements/1.1/"
   xmlns:cc="http://creativecommons.org/ns#"
   xmlns:rdf="http://www.w3.org/1999/02/22-rdf-syntax-ns#"
   xmlns:svg="http://www.w3.org/2000/svg"
   xmlns="http://www.w3.org/2000/svg"
   xmlns:xlink="http://www.w3.org/1999/xlink"
   xmlns:sodipodi="http://sodipodi.sourceforge.net/DTD/sodipodi-0.dtd"
   xmlns:inkscape="http://www.inkscape.org/namespaces/inkscape"
   width="48px"
   height="48px"
   id="svg3039"
   version="1.1"
   inkscape:version="0.48.5 r10040"
   sodipodi:docname="inkscape.svg">
  <defs
     id="defs3041">
    <linearGradient
       id="linearGradient3842">
      <stop
         id="stop3844"
         offset="0"
         style="stop-color:#ff0000;stop-opacity:1" />
      <stop
         id="stop3846"
         offset="1"
         style="stop-color:#b57474;stop-opacity:1" />
    </linearGradient>
    <linearGradient
       id="linearGradient3867">
      <stop
         id="stop3869"
         offset="0"
         style="stop-color:#e36565;stop-opacity:1;" />
      <stop
         id="stop3871"
         offset="1"
         style="stop-color:#c03c3c;stop-opacity:1" />
    </linearGradient>
    <linearGradient
       id="linearGradient3824">
      <stop
         style="stop-color:#ebebeb;stop-opacity:1;"
         offset="0"
         id="stop3826" />
      <stop
         style="stop-color:#bebebe;stop-opacity:1;"
         offset="1"
         id="stop3830" />
    </linearGradient>
    <linearGradient
       id="linearGradient4279">
      <stop
         style="stop-color:#f9f9f9;stop-opacity:1;"
         offset="0"
         id="stop4281" />
      <stop
         id="stop4283"
         offset="0.81130701"
         style="stop-color:#c4c4c4;stop-opacity:1;" />
      <stop
         style="stop-color:#565656;stop-opacity:1;"
         offset="1"
         id="stop4285" />
    </linearGradient>
    <linearGradient
       id="linearGradient4239">
      <stop
         style="stop-color:#505050;stop-opacity:1;"
         offset="0"
         id="stop4241" />
      <stop
         style="stop-color:#ffffff;stop-opacity:0.15422885;"
         offset="1"
         id="stop4243" />
    </linearGradient>
    <linearGradient
       id="linearGradient4223">
      <stop
         id="stop4227"
         offset="0"
         style="stop-color:#e9e9e9;stop-opacity:0;" />
      <stop
         style="stop-color:#929292;stop-opacity:1"
         offset="1"
         id="stop4229" />
    </linearGradient>
    <linearGradient
       id="linearGradient4169">
      <stop
         id="stop4171"
         offset="0"
         style="stop-color:#f9f9f9;stop-opacity:1;" />
      <stop
         style="stop-color:#c4c4c4;stop-opacity:1;"
         offset="0.71567649"
         id="stop4175" />
      <stop
         id="stop4173"
         offset="1"
         style="stop-color:#565656;stop-opacity:1;" />
    </linearGradient>
    <linearGradient
       id="linearGradient4153">
      <stop
         style="stop-color:#ffffff;stop-opacity:1;"
         offset="0"
         id="stop4155" />
      <stop
         style="stop-color:#000000;stop-opacity:1;"
         offset="1"
         id="stop4157" />
    </linearGradient>
    <linearGradient
       id="linearGradient4145">
      <stop
         id="stop4147"
         offset="0"
         style="stop-color:#a0a0a0;stop-opacity:1;" />
      <stop
         id="stop4149"
         offset="1"
         style="stop-color:#202020;stop-opacity:1;" />
    </linearGradient>
    <linearGradient
       id="linearGradient4048">
      <stop
         id="stop4309"
         offset="0"
         style="stop-color:#333333;stop-opacity:1;" />
      <stop
         id="stop4054"
         offset="1"
         style="stop-color:#848484;stop-opacity:1;" />
    </linearGradient>
    <linearGradient
       id="linearGradient3886">
      <stop
         style="stop-color:#f9f9f9;stop-opacity:1;"
         offset="0"
         id="stop3888" />
      <stop
         style="stop-color:#afafaf;stop-opacity:1;"
         offset="1"
         id="stop3890" />
    </linearGradient>
    <linearGradient
       id="linearGradient3839">
      <stop
         style="stop-color:#85bcc3;stop-opacity:1;"
         offset="0"
         id="stop3841" />
      <stop
         style="stop-color:#0153fa;stop-opacity:1;"
         offset="1"
         id="stop3843" />
    </linearGradient>
    <linearGradient
       y2="17"
       x2="40"
       y1="31"
       x1="54"
       gradientTransform="matrix(0,-1,-1,0,71,73)"
       gradientUnits="userSpaceOnUse"
       id="linearGradient3029"
       xlink:href="#linearGradient4410"
       inkscape:collect="always" />
    <linearGradient
       inkscape:collect="always"
       id="linearGradient4410">
      <stop
         style="stop-color:#383e51;stop-opacity:1"
         offset="0"
         id="stop4412" />
      <stop
         style="stop-color:#655c6f;stop-opacity:0"
         offset="1"
         id="stop4414" />
    </linearGradient>
    <linearGradient
       y2="17"
       x2="40"
       y1="31"
       x1="54"
       gradientTransform="matrix(0,-1,1,0,4,78)"
       gradientUnits="userSpaceOnUse"
       id="linearGradient3028-7"
       xlink:href="#linearGradient4410-0"
       inkscape:collect="always" />
    <linearGradient
       inkscape:collect="always"
       id="linearGradient4410-0">
      <stop
         style="stop-color:#383e51;stop-opacity:1"
         offset="0"
         id="stop4412-9" />
      <stop
         style="stop-color:#655c6f;stop-opacity:0"
         offset="1"
         id="stop4414-1" />
    </linearGradient>
    <radialGradient
       inkscape:collect="always"
       xlink:href="#linearGradient3886-5"
       id="radialGradient3892-5"
       cx="24.061937"
       cy="23.872463"
       fx="24.061937"
       fy="23.872463"
       r="17.025761"
       gradientTransform="matrix(1,0,0,0.99900396,0,0.02377793)"
       gradientUnits="userSpaceOnUse" />
    <linearGradient
       id="linearGradient3886-5">
      <stop
         style="stop-color:#f9f9f9;stop-opacity:1;"
         offset="0"
         id="stop3888-9" />
      <stop
         style="stop-color:#afafaf;stop-opacity:1;"
         offset="1"
         id="stop3890-3" />
    </linearGradient>
    <radialGradient
       inkscape:collect="always"
       xlink:href="#linearGradient4169-1"
       id="radialGradient4099-4"
       cx="26.5"
       cy="23.5"
       fx="26.5"
       fy="23.5"
       r="19.5"
       gradientTransform="matrix(0.9473684,0,0,0.79892039,1.3947374,4.725371)"
       gradientUnits="userSpaceOnUse" />
    <linearGradient
       id="linearGradient4169-1">
      <stop
         id="stop4171-2"
         offset="0"
         style="stop-color:#f9f9f9;stop-opacity:1;" />
      <stop
         style="stop-color:#c4c4c4;stop-opacity:1;"
         offset="0.76923078"
         id="stop4175-4" />
      <stop
         id="stop4173-4"
         offset="1"
         style="stop-color:#565656;stop-opacity:1;" />
    </linearGradient>
    <linearGradient
       inkscape:collect="always"
       xlink:href="#linearGradient4239"
       id="linearGradient4245"
       x1="44"
       y1="28.00672"
       x2="57.993282"
       y2="13"
       gradientUnits="userSpaceOnUse" />
    <linearGradient
       inkscape:collect="always"
       xlink:href="#linearGradient4223"
       id="linearGradient4249"
       x1="24.643452"
       y1="23.494081"
       x2="39.495842"
       y2="9.4033527"
       gradientUnits="userSpaceOnUse" />
    <linearGradient
       y2="19.773825"
       x2="50.593132"
       y1="29.238647"
       x1="62.956341"
       gradientTransform="matrix(0,-1.1056167,1.1056167,0,-5.326737,93.730581)"
       gradientUnits="userSpaceOnUse"
       id="linearGradient4436"
       xlink:href="#linearGradient4410-7"
       inkscape:collect="always" />
    <linearGradient
       inkscape:collect="always"
       id="linearGradient4410-7">
      <stop
         style="stop-color:#383e51;stop-opacity:1"
         offset="0"
         id="stop4412-7" />
      <stop
         style="stop-color:#655c6f;stop-opacity:0"
         offset="1"
         id="stop4414-3" />
    </linearGradient>
    <linearGradient
       id="linearGradient3839-3">
      <stop
         style="stop-color:#85bcc3;stop-opacity:1;"
         offset="0"
         id="stop3841-6" />
      <stop
         style="stop-color:#0153fa;stop-opacity:1;"
         offset="1"
         id="stop3843-8" />
    </linearGradient>
    <linearGradient
       y2="17"
       x2="40"
       y1="28.286581"
       x1="51.286583"
       gradientTransform="matrix(0,-1.1056167,1.1056167,0,-2.2741174,86.703301)"
       gradientUnits="userSpaceOnUse"
       id="linearGradient3028"
       xlink:href="#linearGradient4410-4"
       inkscape:collect="always" />
    <linearGradient
       inkscape:collect="always"
       id="linearGradient4410-4">
      <stop
         style="stop-color:#383e51;stop-opacity:1"
         offset="0"
         id="stop4412-2" />
      <stop
         style="stop-color:#655c6f;stop-opacity:0"
         offset="1"
         id="stop4414-8" />
    </linearGradient>
    <linearGradient
       y2="13.815021"
       x2="36.815022"
       y1="22.859747"
       x1="46.764217"
       gradientTransform="matrix(0,-1.1056167,1.1056167,0,7.725883,68.703301)"
       gradientUnits="userSpaceOnUse"
       id="linearGradient3889"
       xlink:href="#linearGradient4410-7-0"
       inkscape:collect="always" />
    <linearGradient
       inkscape:collect="always"
       id="linearGradient4410-7-0">
      <stop
         style="stop-color:#383e51;stop-opacity:1"
         offset="0"
         id="stop4412-95" />
      <stop
         style="stop-color:#655c6f;stop-opacity:0"
         offset="1"
         id="stop4414-9" />
    </linearGradient>
    <linearGradient
       inkscape:collect="always"
       xlink:href="#linearGradient3839-8"
       id="linearGradient3872"
       x1="26"
       y1="11"
       x2="26"
       y2="34"
       gradientUnits="userSpaceOnUse" />
    <linearGradient
       id="linearGradient3839-8">
      <stop
         style="stop-color:#e36565;stop-opacity:1;"
         offset="0"
         id="stop3841-5" />
      <stop
         style="stop-color:#c03c3c;stop-opacity:1;"
         offset="1"
         id="stop3843-4" />
    </linearGradient>
    <linearGradient
       inkscape:collect="always"
       xlink:href="#linearGradient4410-7-0"
       id="linearGradient4193"
       gradientUnits="userSpaceOnUse"
       gradientTransform="matrix(0,-1.1056167,1.1056167,0,6.538383,69.297051)"
       x1="46.764217"
       y1="22.859747"
       x2="36.815022"
       y2="13.815021" />
    <linearGradient
       inkscape:collect="always"
       xlink:href="#linearGradient4410-4"
       id="linearGradient4196"
       gradientUnits="userSpaceOnUse"
       gradientTransform="matrix(0,-1.1056167,1.1056167,0,-3.4616174,87.297051)"
       x1="51.286583"
       y1="28.286581"
       x2="40"
       y2="17" />
    <filter
       color-interpolation-filters="sRGB"
       id="filter4423"
       y="-0.15025"
       width="1.1998"
       x="-0.099890001"
       height="1.3005">
      <feGaussianBlur
         id="feGaussianBlur4425"
         stdDeviation="0.71452459" />
    </filter>
  </defs>
  <sodipodi:namedview
     id="base"
     pagecolor="#ffffff"
     bordercolor="#666666"
     borderopacity="1.0"
     inkscape:pageopacity="0.0"
     inkscape:pageshadow="2"
     inkscape:zoom="8.0000005"
     inkscape:cx="42.516828"
     inkscape:cy="26.322034"
     inkscape:current-layer="layer1"
     showgrid="true"
     inkscape:grid-bbox="true"
     inkscape:document-units="px"
     showguides="true"
     inkscape:guide-bbox="true"
     inkscape:window-width="1366"
     inkscape:window-height="698"
     inkscape:window-x="-4"
     inkscape:window-y="-5"
     inkscape:window-maximized="1"
     inkscape:snap-global="false">
    <inkscape:grid
       type="xygrid"
       id="grid3047" />
    <sodipodi:guide
       orientation="1,0"
       position="3,4"
       id="guide3051" />
    <sodipodi:guide
       orientation="1,0"
       position="45,4"
       id="guide3053" />
    <sodipodi:guide
       orientation="0,1"
       position="-2,45"
       id="guide3055" />
    <sodipodi:guide
       orientation="0,1"
       position="2,3"
       id="guide3057" />
    <sodipodi:guide
       orientation="1,0"
       position="24,31"
       id="guide3059" />
    <sodipodi:guide
       orientation="0,1"
       position="20.624999,23.999999"
       id="guide3061" />
  </sodipodi:namedview>
  <metadata
     id="metadata3044">
    <rdf:RDF>
      <cc:Work
         rdf:about="">
        <dc:format>image/svg+xml</dc:format>
        <dc:type
           rdf:resource="http://purl.org/dc/dcmitype/StillImage" />
        <dc:title />
      </cc:Work>
    </rdf:RDF>
  </metadata>
  <g
     id="layer1"
     inkscape:label="Layer 1"
     inkscape:groupmode="layer">
    <g
       id="g4214"
       transform="translate(-92.993284,0)"
       style="fill:url(#linearGradient4245);fill-opacity:1" />
    <path
       style="opacity:1;fill:#b3b3b3;fill-opacity:1;stroke:none;stroke-width:0.20000000000000001;stroke-miterlimit:4;stroke-dasharray:none"
       d="m 23.993283,2.9865651 c -11.60169,0 -21.0067177,9.4050259 -21.0067177,21.0067179 C 2.9865653,35.594973 12.391593,45 23.993283,45 35.594972,45 45,35.594973 45,23.993283 45,12.391591 35.594972,2.9865651 23.993283,2.9865651 z m 0,3.3168501 c 9.769844,0 17.689867,7.9200228 17.689867,17.6898678 0,9.769843 -7.920023,17.689866 -17.689867,17.689866 -9.769845,0 -17.6898675,-7.920023 -17.6898675,-17.689866 0,-9.769845 7.9200225,-17.6898678 17.6898675,-17.6898678 z"
       id="path4080-7"
       inkscape:connector-curvature="0" />
    <g
       transform="matrix(0.95207646,0,0,0.95207627,-17.401687,1.3350822)"
       id="g4231"
       style="fill:#b3b3b3;fill-opacity:1">
      <path
         sodipodi:type="arc"
         style="fill:#b3b3b3;fill-opacity:1;stroke:none"
         id="path4233"
         sodipodi:cx="26.5"
         sodipodi:cy="23.5"
         sodipodi:rx="19.5"
         sodipodi:ry="18.5"
         d="M 46,23.5 C 46,33.717268 37.269553,42 26.5,42 15.730447,42 7,33.717268 7,23.5 7,13.282732 15.730447,5 26.5,5 37.269553,5 46,13.282732 46,23.5 z"
         transform="matrix(1.0772675,0,0,1.1354984,14.938086,-2.8784328)" />
    </g>
    <g
       id="g3878"
       transform="matrix(0.58871734,0,0,0.58871734,9.3311485,10.645312)"
       style="fill:#000000;fill-opacity:0.18039216">
      <path
         id="path3880"
         style="opacity:0.2;fill:#000000;fill-opacity:0.18039216;fill-rule:evenodd;filter:url(#filter4423);enable-background:new"
         d="m 24.312,6.3948 c 1.1747,0.01 4.3936,3.9825 7.2655,6.9575 0.80782,1.081 -0.31247,2.1889 -0.31247,2.1889 l -6.0156,-3.2833 -2.6562,3.596 -2.3436,-3.5179 -1.4063,5.4722 -4.1406,-2.5016 1.0937,-1.4071 6.4842,-6.6448 c 0.497,-0.5054 0.878,-0.8687 2.031,-0.8597 z"
         inkscape:connector-curvature="0" />
      <path
         id="path3884"
         style="fill:#000000;fill-opacity:0.18039216;fill-rule:evenodd;enable-background:new"
         d="m 24.429702,3.9546606 c 1.2317,0.010479 4.6067,4.1871 7.6179,7.3150004 0.847,1.1365 -0.32762,2.3013 -0.32762,2.3013 l -6.307,-3.452 -2.785,3.781 -2.457,-3.698 -1.475,5.753 -4.341,-2.63 1.147,-1.48 6.798,-6.9857004 c 0.52145,-0.53156 0.92076,-0.91351 2.1297,-0.9041 z"
         inkscape:connector-curvature="0" />
    </g>
    <g
       transform="matrix(0.58871734,0,0,0.58871734,9.8716139,10.139269)"
       id="g3210">
      <path
         inkscape:connector-curvature="0"
         d="m 24.312,6.3948 c 1.1747,0.01 4.3936,3.9825 7.2655,6.9575 0.80782,1.081 -0.31247,2.1889 -0.31247,2.1889 l -6.0156,-3.2833 -2.6562,3.596 -2.3436,-3.5179 -1.4063,5.4722 -4.1406,-2.5016 1.0937,-1.4071 6.4842,-6.6448 c 0.497,-0.5054 0.878,-0.8687 2.031,-0.8597 z"
         style="opacity:0.2;fill-rule:evenodd;filter:url(#filter4423);enable-background:new"
         id="path4421" />
      <path
         inkscape:connector-curvature="0"
         d="m 24,2.0004 c -1.1976,0 -2.3634,0.4493 -3.2812,1.4 l -16.324,16.883 c -0.8995,0.93183 -1.3766,2.1605 -1.3945,3.3766 -2.691e-4,0.0185 0,0.062 0,0.0822 -1.694e-4,3.6181 9.6297,0.10588 10.5,4.5295 0.47092,2.3941 -5.2499,1.2972 -5.2499,3.706 0,2.8256 8.0976,0.88249 10.418,3.2118 0.9531,2.3293 -3.1,1.9534 -2.3788,4.1177 1.3591,1.408 4.4165,0.60958 5.0038,2.8824 0.67083,2.5962 5.0647,2.1483 7.6288,0.24656 1.3591,-1.408 -2.0974,-2.0509 -0.73821,-3.4588 1.3591,-1.408 8.0724,-1.1232 8.1209,-4.2001 -0.64154,-1.9329 -3.1605,-2.245 -3.1992,-4.5295 -0.13514,-1.9347 2.0628,-1.3688 9.0233,-3.2942 2.7832,-1.3094 2.8817,-2.0059 2.8711,-3.2118 -2.2e-4,-0.0239 0,-0.0566 0,-0.0821 -0.01585,-1.216 -0.57709,-2.4447 -1.4765,-3.3765 l -16.244,-16.883 c -0.918,-0.9508 -2.084,-1.4 -3.281,-1.4 z m 19.031,28.906 c -0.33172,-0.0105 -0.6663,0.0159 -0.90233,0.0821 -0.4449,0.12867 -2.5525,0.20393 -2.3788,1.8118 1.9095,0.80356 4.8209,1.4432 5.1679,-0.16448 0.26052,-1.2056 -0.89139,-1.6925 -1.8867,-1.7294 z m -32.566,5.353 c -0.18529,0.0212 -0.31107,0.0953 -0.49216,0.16447 -1.4481,0.5528 -2.4193,1.7155 -1.0664,2.2236 1.3531,0.50798 2.2591,-0.0289 3.4452,-0.65885 1.1863,-0.63025 1.1522,-0.7451 1.0664,-0.98822 -0.16444,0.033 -1.2431,-0.64103 -2.3788,-0.74124 -0.18925,-0.0159 -0.389,-0.0212 -0.57424,0 z"
         style="fill:#1a1a1a;fill-rule:evenodd;enable-background:new;fill-opacity:1"
         id="path3158" />
      <path
         inkscape:connector-curvature="0"
         d="m 24.429702,3.9546606 c 1.2317,0.010479 4.6067,4.1871 7.6179,7.3150004 0.847,1.1365 -0.32762,2.3013 -0.32762,2.3013 l -6.307,-3.452 -2.785,3.781 -2.457,-3.698 -1.475,5.753 -4.341,-2.63 1.147,-1.48 6.798,-6.9857004 c 0.52145,-0.53156 0.92076,-0.91351 2.1297,-0.9041 z"
         style="fill:#b3b3b3;fill-opacity:1;fill-rule:evenodd;enable-background:new"
         id="path4409" />
    </g>
  </g>
</svg>
