<?xml version="1.0" encoding="UTF-8" standalone="no"?>
<!-- Created with Inkscape (http://www.inkscape.org/) -->

<svg
   xmlns:dc="http://purl.org/dc/elements/1.1/"
   xmlns:cc="http://creativecommons.org/ns#"
   xmlns:rdf="http://www.w3.org/1999/02/22-rdf-syntax-ns#"
   xmlns:svg="http://www.w3.org/2000/svg"
   xmlns="http://www.w3.org/2000/svg"
   xmlns:xlink="http://www.w3.org/1999/xlink"
   xmlns:sodipodi="http://sodipodi.sourceforge.net/DTD/sodipodi-0.dtd"
   xmlns:inkscape="http://www.inkscape.org/namespaces/inkscape"
   width="48px"
   height="48px"
   id="svg3039"
   version="1.1"
   inkscape:version="0.48.5 r10040"
   sodipodi:docname="kdenlive.svg">
  <defs
     id="defs3041">
    <linearGradient
       id="linearGradient3935">
      <stop
         style="stop-color:#969696;stop-opacity:1;"
         offset="0"
         id="stop3937" />
      <stop
         style="stop-color:#2b2b2b;stop-opacity:1;"
         offset="1"
         id="stop3941" />
    </linearGradient>
    <linearGradient
       id="linearGradient4279">
      <stop
         style="stop-color:#f9f9f9;stop-opacity:1;"
         offset="0"
         id="stop4281" />
      <stop
         id="stop4283"
         offset="0.81130701"
         style="stop-color:#c4c4c4;stop-opacity:1;" />
      <stop
         style="stop-color:#565656;stop-opacity:1;"
         offset="1"
         id="stop4285" />
    </linearGradient>
    <linearGradient
       id="linearGradient4239">
      <stop
         style="stop-color:#505050;stop-opacity:1;"
         offset="0"
         id="stop4241" />
      <stop
         style="stop-color:#ffffff;stop-opacity:0.15422885;"
         offset="1"
         id="stop4243" />
    </linearGradient>
    <linearGradient
       id="linearGradient4223">
      <stop
         id="stop4227"
         offset="0"
         style="stop-color:#e9e9e9;stop-opacity:0;" />
      <stop
         style="stop-color:#929292;stop-opacity:1"
         offset="1"
         id="stop4229" />
    </linearGradient>
    <linearGradient
       id="linearGradient4169">
      <stop
         id="stop4171"
         offset="0"
         style="stop-color:#f9f9f9;stop-opacity:1;" />
      <stop
         style="stop-color:#c4c4c4;stop-opacity:1;"
         offset="0.71567649"
         id="stop4175" />
      <stop
         id="stop4173"
         offset="1"
         style="stop-color:#565656;stop-opacity:1;" />
    </linearGradient>
    <linearGradient
       id="linearGradient4153">
      <stop
         style="stop-color:#ffffff;stop-opacity:1;"
         offset="0"
         id="stop4155" />
      <stop
         style="stop-color:#000000;stop-opacity:1;"
         offset="1"
         id="stop4157" />
    </linearGradient>
    <linearGradient
       id="linearGradient4145">
      <stop
         id="stop4147"
         offset="0"
         style="stop-color:#a0a0a0;stop-opacity:1;" />
      <stop
         id="stop4149"
         offset="1"
         style="stop-color:#202020;stop-opacity:1;" />
    </linearGradient>
    <linearGradient
       id="linearGradient4048">
      <stop
         style="stop-color:#e0e0e0;stop-opacity:1;"
         offset="0"
         id="stop4299" />
      <stop
         style="stop-color:#818181;stop-opacity:1;"
         offset="0.86432886"
         id="stop4056" />
      <stop
         id="stop4305"
         offset="0.89051455"
         style="stop-color:#606060;stop-opacity:1" />
      <stop
         style="stop-color:#575757;stop-opacity:1"
         offset="0.95148641"
         id="stop4307" />
      <stop
         id="stop4309"
         offset="0.96247357"
         style="stop-color:#565656;stop-opacity:1;" />
      <stop
         id="stop4054"
         offset="1"
         style="stop-color:#aaaaaa;stop-opacity:1" />
    </linearGradient>
    <linearGradient
       id="linearGradient3886">
      <stop
         style="stop-color:#f9f9f9;stop-opacity:1;"
         offset="0"
         id="stop3888" />
      <stop
         style="stop-color:#afafaf;stop-opacity:1;"
         offset="1"
         id="stop3890" />
    </linearGradient>
    <linearGradient
       id="linearGradient3839">
      <stop
         style="stop-color:#ec8322;stop-opacity:1;"
         offset="0"
         id="stop3860" />
      <stop
         style="stop-color:#fa6f01;stop-opacity:1;"
         offset="1"
         id="stop3843" />
    </linearGradient>
    <linearGradient
       y2="17"
       x2="40"
       y1="31"
       x1="54"
       gradientTransform="matrix(0,-1,-1,0,71,73)"
       gradientUnits="userSpaceOnUse"
       id="linearGradient3029"
       xlink:href="#linearGradient4410"
       inkscape:collect="always" />
    <linearGradient
       inkscape:collect="always"
       id="linearGradient4410">
      <stop
         style="stop-color:#383e51;stop-opacity:1"
         offset="0"
         id="stop4412" />
      <stop
         style="stop-color:#655c6f;stop-opacity:0"
         offset="1"
         id="stop4414" />
    </linearGradient>
    <linearGradient
       y2="17"
       x2="40"
       y1="31"
       x1="54"
       gradientTransform="matrix(0,-1,1,0,4,78)"
       gradientUnits="userSpaceOnUse"
       id="linearGradient3028-7"
       xlink:href="#linearGradient4410-0"
       inkscape:collect="always" />
    <linearGradient
       inkscape:collect="always"
       id="linearGradient4410-0">
      <stop
         style="stop-color:#383e51;stop-opacity:1"
         offset="0"
         id="stop4412-9" />
      <stop
         style="stop-color:#655c6f;stop-opacity:0"
         offset="1"
         id="stop4414-1" />
    </linearGradient>
    <radialGradient
       inkscape:collect="always"
       xlink:href="#linearGradient3886-5"
       id="radialGradient3892-5"
       cx="24.061937"
       cy="23.872463"
       fx="24.061937"
       fy="23.872463"
       r="17.025761"
       gradientTransform="matrix(1,0,0,0.99900396,0,0.02377793)"
       gradientUnits="userSpaceOnUse" />
    <linearGradient
       id="linearGradient3886-5">
      <stop
         style="stop-color:#ebebeb;stop-opacity:1;"
         offset="0"
         id="stop3888-9" />
      <stop
         style="stop-color:#bebebe;stop-opacity:1;"
         offset="1"
         id="stop3890-3" />
    </linearGradient>
    <radialGradient
       inkscape:collect="always"
       xlink:href="#linearGradient4169-1"
       id="radialGradient4099-4"
       cx="26.5"
       cy="23.5"
       fx="26.5"
       fy="23.5"
       r="19.5"
       gradientTransform="matrix(0.9473684,0,0,0.79892039,1.3947374,4.725371)"
       gradientUnits="userSpaceOnUse" />
    <linearGradient
       id="linearGradient4169-1">
      <stop
         id="stop4171-2"
         offset="0"
         style="stop-color:#f9f9f9;stop-opacity:1;" />
      <stop
         style="stop-color:#c4c4c4;stop-opacity:1;"
         offset="0.76923078"
         id="stop4175-4" />
      <stop
         id="stop4173-4"
         offset="1"
         style="stop-color:#565656;stop-opacity:1;" />
    </linearGradient>
    <linearGradient
       inkscape:collect="always"
       xlink:href="#linearGradient4239"
       id="linearGradient4245"
       x1="44"
       y1="28.00672"
       x2="57.993282"
       y2="13"
       gradientUnits="userSpaceOnUse" />
    <linearGradient
       inkscape:collect="always"
       xlink:href="#linearGradient4223"
       id="linearGradient4249"
       x1="24.643452"
       y1="23.494081"
       x2="39.495842"
       y2="9.4033527"
       gradientUnits="userSpaceOnUse" />
    <radialGradient
       inkscape:collect="always"
       xlink:href="#linearGradient4169"
       id="radialGradient4295"
       cx="60.986568"
       cy="23.99328"
       fx="60.986568"
       fy="23.99328"
       r="21.006716"
       gradientTransform="translate(0,-4.7400131e-6)"
       gradientUnits="userSpaceOnUse" />
    <linearGradient
       inkscape:collect="always"
       xlink:href="#linearGradient3935"
       id="linearGradient3933"
       x1="25"
       y1="3"
       x2="25"
       y2="42"
       gradientUnits="userSpaceOnUse" />
    <linearGradient
       inkscape:collect="always"
       xlink:href="#linearGradient4410"
       id="linearGradient4040"
       gradientUnits="userSpaceOnUse"
       gradientTransform="matrix(0,-0.91040707,0.89132666,0,5.5948245,77.65501)"
       x1="61.132004"
       y1="25.136885"
       x2="36.251213"
       y2="11.920761" />
    <linearGradient
       inkscape:collect="always"
       xlink:href="#linearGradient3935"
       id="linearGradient4171"
       gradientUnits="userSpaceOnUse"
       x1="25"
       y1="3"
       x2="25"
       y2="42" />
    <linearGradient
       inkscape:collect="always"
       xlink:href="#linearGradient3935"
       id="linearGradient4174"
       gradientUnits="userSpaceOnUse"
       x1="25"
       y1="3"
       x2="25"
       y2="42" />
    <linearGradient
       inkscape:collect="always"
       xlink:href="#linearGradient3935"
       id="linearGradient4177"
       gradientUnits="userSpaceOnUse"
       x1="25"
       y1="3"
       x2="25"
       y2="42" />
    <linearGradient
       inkscape:collect="always"
       xlink:href="#linearGradient3935"
       id="linearGradient4180"
       gradientUnits="userSpaceOnUse"
       x1="25"
       y1="3"
       x2="25"
       y2="42" />
    <linearGradient
       y2="42"
       x2="25"
       y1="0"
       x1="25"
       gradientUnits="userSpaceOnUse"
       id="linearGradient3945"
       xlink:href="#linearGradient3935-2"
       inkscape:collect="always" />
    <linearGradient
       id="linearGradient3935-2">
      <stop
         style="stop-color:#969696;stop-opacity:1;"
         offset="0"
         id="stop3937-1" />
      <stop
         style="stop-color:#2b2b2b;stop-opacity:1;"
         offset="1"
         id="stop3941-6" />
    </linearGradient>
  </defs>
  <sodipodi:namedview
     id="base"
     pagecolor="#ffffff"
     bordercolor="#666666"
     borderopacity="1.0"
     inkscape:pageopacity="0.0"
     inkscape:pageshadow="2"
     inkscape:zoom="11.313709"
     inkscape:cx="16.266232"
     inkscape:cy="16.323509"
     inkscape:current-layer="layer1"
     showgrid="true"
     inkscape:grid-bbox="true"
     inkscape:document-units="px"
     showguides="false"
     inkscape:guide-bbox="true"
     inkscape:window-width="1366"
     inkscape:window-height="698"
     inkscape:window-x="-4"
     inkscape:window-y="-5"
     inkscape:window-maximized="1"
     inkscape:snap-global="true">
    <inkscape:grid
       type="xygrid"
       id="grid3047" />
    <sodipodi:guide
       orientation="1,0"
       position="3,4"
       id="guide3051" />
    <sodipodi:guide
       orientation="1,0"
       position="45,4"
       id="guide3053" />
    <sodipodi:guide
       orientation="0,1"
       position="-2,45"
       id="guide3055" />
    <sodipodi:guide
       orientation="0,1"
       position="2,3"
       id="guide3057" />
    <sodipodi:guide
       orientation="1,0"
       position="24,31"
       id="guide3059" />
    <sodipodi:guide
       orientation="0,1"
       position="10,24"
       id="guide3061" />
    <sodipodi:guide
       orientation="0,1"
       position="51,42"
       id="guide3058" />
    <sodipodi:guide
       orientation="0,1"
       position="52,6"
       id="guide3060" />
  </sodipodi:namedview>
  <metadata
     id="metadata3044">
    <rdf:RDF>
      <cc:Work
         rdf:about="">
        <dc:format>image/svg+xml</dc:format>
        <dc:type
           rdf:resource="http://purl.org/dc/dcmitype/StillImage" />
        <dc:title></dc:title>
      </cc:Work>
    </rdf:RDF>
  </metadata>
  <g
     id="layer1"
     inkscape:label="Layer 1"
     inkscape:groupmode="layer">
    <g
       id="g3066">
      <rect
         ry="0"
         y="6"
         x="3"
         height="39"
         width="42"
         id="rect3056"
         style="fill:#b3b3b3;fill-opacity:1;stroke:none" />
      <g
         style="fill:url(#linearGradient4245);fill-opacity:1"
         transform="translate(-92.993284,0)"
         id="g4214" />
      <g
         id="g3065">
        <rect
           style="fill:#2662da;fill-opacity:1;stroke:#999999;stroke-width:0;stroke-linecap:square;stroke-miterlimit:4;stroke-opacity:1;stroke-dasharray:none"
           id="rect4160"
           width="38"
           height="8"
           x="5"
           y="4" />
        <g
           id="g4012"
           transform="matrix(0.80618053,0,0,0.82343824,4.0784404,8.7360422)"
           style="fill:#ff7f2a" />
      </g>
      <path
         id="rect3856"
         d="M 3 3 L 3 13 L 4 13 L 44 13 L 45 13 L 45 3 L 3 3 z M 8 5 C 8.552285 5 9 5.447715 9 6 C 9 6.552285 8.552285 7 8 7 C 7.447715 7 7 6.552285 7 6 C 7 5.447715 7.447715 5 8 5 z M 18 5 L 23 5 L 21 8 L 23 11 L 18 11 L 16 8 L 18 5 z M 28 5 L 33 5 L 31 8 L 33 11 L 28 11 L 26 8 L 28 5 z M 38 5 L 43 5 L 41 8 L 43 11 L 38 11 L 36 8 L 38 5 z M 8 9 C 8.552285 9 9 9.447715 9 10 C 9 10.552285 8.552285 11 8 11 C 7.447715 11 7 10.552285 7 10 C 7 9.447715 7.447715 9 8 9 z M 3 44 L 3 45 L 45 45 L 45 44 L 44 44 L 4 44 L 3 44 z "
         style="fill:#1a1a1a;fill-opacity:1;stroke:#999999;stroke-width:0;stroke-miterlimit:4;stroke-dasharray:none" />
      <path
         sodipodi:nodetypes="ccccc"
         inkscape:connector-curvature="0"
         id="path3141"
         d="M 2.999024,3 45,3 45.004768,3.4452199 2.9934556,3.444591 z"
         style="opacity:0.65966384;fill:#ffffff;fill-opacity:0.67942583;stroke:none" />
    </g>
    <path
       style="fill:#1a1a1a;fill-opacity:1;stroke:none"
       d="m 7,17 0,13 16,0 0,-13 -16,0 z m 1,1 2,0 0,2 -2,0 0,-2 z m 4,0 2,0 0,2 -2,0 0,-2 z m 4,0 2,0 0,2 -2,0 0,-2 z m 4,0 2,0 0,2 -2,0 0,-2 z m -12,9 2,0 0,2 -2,0 0,-2 z m 4,0 2,0 0,2 -2,0 0,-2 z m 4,0 2,0 0,2 -2,0 0,-2 z m 4,0 2,0 0,2 -2,0 0,-2 z"
       id="rect3067"
       inkscape:connector-curvature="0" />
    <path
       inkscape:connector-curvature="0"
       id="path3100"
       d="m 25,27 0,13 16,0 0,-13 -16,0 z m 1,1 2,0 0,2 -2,0 0,-2 z m 4,0 2,0 0,2 -2,0 0,-2 z m 4,0 2,0 0,2 -2,0 0,-2 z m 4,0 2,0 0,2 -2,0 0,-2 z m -12,9 2,0 0,2 -2,0 0,-2 z m 4,0 2,0 0,2 -2,0 0,-2 z m 4,0 2,0 0,2 -2,0 0,-2 z m 4,0 2,0 0,2 -2,0 0,-2 z"
       style="fill:#1a1a1a;fill-opacity:1;stroke:none" />
  </g>
</svg>
