<?xml version="1.0" encoding="UTF-8" standalone="no"?>
<!-- Created with Inkscape (http://www.inkscape.org/) -->

<svg
   xmlns:dc="http://purl.org/dc/elements/1.1/"
   xmlns:cc="http://creativecommons.org/ns#"
   xmlns:rdf="http://www.w3.org/1999/02/22-rdf-syntax-ns#"
   xmlns:svg="http://www.w3.org/2000/svg"
   xmlns="http://www.w3.org/2000/svg"
   xmlns:xlink="http://www.w3.org/1999/xlink"
   xmlns:sodipodi="http://sodipodi.sourceforge.net/DTD/sodipodi-0.dtd"
   xmlns:inkscape="http://www.inkscape.org/namespaces/inkscape"
   width="48px"
   height="48px"
   id="svg3039"
   version="1.1"
   inkscape:version="0.48.5 r10040"
   sodipodi:docname="korganizer.svg">
  <defs
     id="defs3041">
    <linearGradient
       id="linearGradient4175">
      <stop
         style="stop-color:#614623;stop-opacity:1;"
         offset="0"
         id="stop4177" />
      <stop
         style="stop-color:#9b5b2d;stop-opacity:1;"
         offset="1"
         id="stop4179" />
    </linearGradient>
    <linearGradient
       id="linearGradient4111">
      <stop
         style="stop-color:#fbd1a5;stop-opacity:1;"
         offset="0"
         id="stop4113" />
      <stop
         style="stop-color:#976e55;stop-opacity:1;"
         offset="1"
         id="stop4115" />
    </linearGradient>
    <linearGradient
       id="linearGradient4101">
      <stop
         style="stop-color:#c7c7c7;stop-opacity:1;"
         offset="0"
         id="stop4103" />
      <stop
         id="stop4105"
         offset="0.39742428"
         style="stop-color:#717171;stop-opacity:1;" />
      <stop
         style="stop-color:#6c6c6c;stop-opacity:1;"
         offset="1"
         id="stop4107" />
    </linearGradient>
    <linearGradient
       id="linearGradient4056">
      <stop
         id="stop4058"
         offset="0"
         style="stop-color:#d0d0d0;stop-opacity:1;" />
      <stop
         id="stop4060"
         offset="1"
         style="stop-color:#171717;stop-opacity:1;" />
    </linearGradient>
    <linearGradient
       id="linearGradient3923">
      <stop
         style="stop-color:#7b7b7b;stop-opacity:1;"
         offset="0"
         id="stop3925" />
      <stop
         id="stop3927"
         offset="0.04819375"
         style="stop-color:#969696;stop-opacity:1;" />
      <stop
         style="stop-color:#626262;stop-opacity:1;"
         offset="1"
         id="stop3929" />
    </linearGradient>
    <linearGradient
       id="linearGradient3863">
      <stop
         id="stop3865"
         offset="0"
         style="stop-color:#a5a5a5;stop-opacity:1;" />
      <stop
         style="stop-color:#9c9c9c;stop-opacity:1;"
         offset="0.13136874"
         id="stop3867" />
      <stop
         id="stop3869"
         offset="1"
         style="stop-color:#222222;stop-opacity:1;" />
    </linearGradient>
    <linearGradient
       id="linearGradient3852">
      <stop
         style="stop-color:#f9f9f9;stop-opacity:1;"
         offset="0"
         id="stop3854" />
      <stop
         id="stop3856"
         offset="0.44444445"
         style="stop-color:#c4c4c4;stop-opacity:1;" />
      <stop
         style="stop-color:#565656;stop-opacity:1;"
         offset="1"
         id="stop3858" />
    </linearGradient>
    <linearGradient
       id="linearGradient3846">
      <stop
         style="stop-color:#e3c69a;stop-opacity:1"
         offset="0"
         id="stop3848" />
      <stop
         style="stop-color:#54411d;stop-opacity:1"
         offset="1"
         id="stop3850" />
    </linearGradient>
    <linearGradient
       id="linearGradient3840">
      <stop
         id="stop3842"
         offset="0"
         style="stop-color:#7a7a7a;stop-opacity:1;" />
      <stop
         id="stop3844"
         offset="1"
         style="stop-color:#373737;stop-opacity:1;" />
    </linearGradient>
    <linearGradient
       id="linearGradient3935">
      <stop
         style="stop-color:#969696;stop-opacity:1;"
         offset="0"
         id="stop3937" />
      <stop
         style="stop-color:#2b2b2b;stop-opacity:1;"
         offset="1"
         id="stop3941" />
    </linearGradient>
    <linearGradient
       id="linearGradient4279">
      <stop
         style="stop-color:#f9f9f9;stop-opacity:1;"
         offset="0"
         id="stop4281" />
      <stop
         id="stop4283"
         offset="0.81130701"
         style="stop-color:#c4c4c4;stop-opacity:1;" />
      <stop
         style="stop-color:#565656;stop-opacity:1;"
         offset="1"
         id="stop4285" />
    </linearGradient>
    <linearGradient
       id="linearGradient4239">
      <stop
         style="stop-color:#505050;stop-opacity:1;"
         offset="0"
         id="stop4241" />
      <stop
         style="stop-color:#ffffff;stop-opacity:0.15422885;"
         offset="1"
         id="stop4243" />
    </linearGradient>
    <linearGradient
       id="linearGradient4223">
      <stop
         id="stop4227"
         offset="0"
         style="stop-color:#e9e9e9;stop-opacity:0;" />
      <stop
         style="stop-color:#929292;stop-opacity:1"
         offset="1"
         id="stop4229" />
    </linearGradient>
    <linearGradient
       id="linearGradient4169">
      <stop
         id="stop4171"
         offset="0"
         style="stop-color:#f9f9f9;stop-opacity:1;" />
      <stop
         style="stop-color:#c4c4c4;stop-opacity:1;"
         offset="0.71567649"
         id="stop4175" />
      <stop
         id="stop4173"
         offset="1"
         style="stop-color:#565656;stop-opacity:1;" />
    </linearGradient>
    <linearGradient
       id="linearGradient4153">
      <stop
         style="stop-color:#ffffff;stop-opacity:1;"
         offset="0"
         id="stop4155" />
      <stop
         style="stop-color:#000000;stop-opacity:1;"
         offset="1"
         id="stop4157" />
    </linearGradient>
    <linearGradient
       id="linearGradient4145">
      <stop
         id="stop4147"
         offset="0"
         style="stop-color:#a0a0a0;stop-opacity:1;" />
      <stop
         id="stop4149"
         offset="1"
         style="stop-color:#202020;stop-opacity:1;" />
    </linearGradient>
    <linearGradient
       id="linearGradient4048">
      <stop
         style="stop-color:#e0e0e0;stop-opacity:1;"
         offset="0"
         id="stop4299" />
      <stop
         style="stop-color:#818181;stop-opacity:1;"
         offset="0.86432886"
         id="stop4056" />
      <stop
         id="stop4305"
         offset="0.89051455"
         style="stop-color:#606060;stop-opacity:1" />
      <stop
         style="stop-color:#575757;stop-opacity:1"
         offset="0.95148641"
         id="stop4307" />
      <stop
         id="stop4309"
         offset="0.96247357"
         style="stop-color:#565656;stop-opacity:1;" />
      <stop
         id="stop4054"
         offset="1"
         style="stop-color:#aaaaaa;stop-opacity:1" />
    </linearGradient>
    <linearGradient
       id="linearGradient3886">
      <stop
         style="stop-color:#f9f9f9;stop-opacity:1;"
         offset="0"
         id="stop3888" />
      <stop
         style="stop-color:#afafaf;stop-opacity:1;"
         offset="1"
         id="stop3890" />
    </linearGradient>
    <linearGradient
       id="linearGradient3839">
      <stop
         style="stop-color:#c3c085;stop-opacity:1;"
         offset="0"
         id="stop3841" />
      <stop
         style="stop-color:#fa4b01;stop-opacity:1;"
         offset="1"
         id="stop3843" />
    </linearGradient>
    <linearGradient
       y2="17"
       x2="40"
       y1="31"
       x1="54"
       gradientTransform="matrix(0,-1,-1,0,71,73)"
       gradientUnits="userSpaceOnUse"
       id="linearGradient3029"
       xlink:href="#linearGradient4410"
       inkscape:collect="always" />
    <linearGradient
       inkscape:collect="always"
       id="linearGradient4410">
      <stop
         style="stop-color:#383e51;stop-opacity:1"
         offset="0"
         id="stop4412" />
      <stop
         style="stop-color:#655c6f;stop-opacity:0"
         offset="1"
         id="stop4414" />
    </linearGradient>
    <linearGradient
       y2="17"
       x2="40"
       y1="31"
       x1="54"
       gradientTransform="matrix(0,-1,1,0,4,78)"
       gradientUnits="userSpaceOnUse"
       id="linearGradient3028-7"
       xlink:href="#linearGradient4410-0"
       inkscape:collect="always" />
    <linearGradient
       inkscape:collect="always"
       id="linearGradient4410-0">
      <stop
         style="stop-color:#383e51;stop-opacity:1"
         offset="0"
         id="stop4412-9" />
      <stop
         style="stop-color:#655c6f;stop-opacity:0"
         offset="1"
         id="stop4414-1" />
    </linearGradient>
    <radialGradient
       inkscape:collect="always"
       xlink:href="#linearGradient3886-5"
       id="radialGradient3892-5"
       cx="24.061937"
       cy="23.872463"
       fx="24.061937"
       fy="23.872463"
       r="17.025761"
       gradientTransform="matrix(1,0,0,0.99900396,0,0.02377793)"
       gradientUnits="userSpaceOnUse" />
    <linearGradient
       id="linearGradient3886-5">
      <stop
         style="stop-color:#ebebeb;stop-opacity:1;"
         offset="0"
         id="stop3888-9" />
      <stop
         style="stop-color:#bebebe;stop-opacity:1;"
         offset="1"
         id="stop3890-3" />
    </linearGradient>
    <radialGradient
       inkscape:collect="always"
       xlink:href="#linearGradient4169-1"
       id="radialGradient4099-4"
       cx="26.5"
       cy="23.5"
       fx="26.5"
       fy="23.5"
       r="19.5"
       gradientTransform="matrix(0.9473684,0,0,0.79892039,1.3947374,4.725371)"
       gradientUnits="userSpaceOnUse" />
    <linearGradient
       id="linearGradient4169-1">
      <stop
         id="stop4171-2"
         offset="0"
         style="stop-color:#f9f9f9;stop-opacity:1;" />
      <stop
         style="stop-color:#c4c4c4;stop-opacity:1;"
         offset="0.76923078"
         id="stop4175-4" />
      <stop
         id="stop4173-4"
         offset="1"
         style="stop-color:#565656;stop-opacity:1;" />
    </linearGradient>
    <linearGradient
       inkscape:collect="always"
       xlink:href="#linearGradient4239"
       id="linearGradient4245"
       x1="44"
       y1="28.00672"
       x2="57.993282"
       y2="13"
       gradientUnits="userSpaceOnUse" />
    <linearGradient
       inkscape:collect="always"
       xlink:href="#linearGradient4223"
       id="linearGradient4249"
       x1="24.643452"
       y1="23.494081"
       x2="39.495842"
       y2="9.4033527"
       gradientUnits="userSpaceOnUse" />
    <radialGradient
       inkscape:collect="always"
       xlink:href="#linearGradient4169"
       id="radialGradient4295"
       cx="60.986568"
       cy="23.99328"
       fx="60.986568"
       fy="23.99328"
       r="21.006716"
       gradientTransform="translate(0,-4.7400131e-6)"
       gradientUnits="userSpaceOnUse" />
    <linearGradient
       inkscape:collect="always"
       xlink:href="#linearGradient3935"
       id="linearGradient3933"
       x1="25"
       y1="3"
       x2="25"
       y2="42"
       gradientUnits="userSpaceOnUse" />
    <linearGradient
       inkscape:collect="always"
       xlink:href="#linearGradient3935"
       id="linearGradient4171"
       gradientUnits="userSpaceOnUse"
       x1="25"
       y1="3"
       x2="25"
       y2="42" />
    <linearGradient
       inkscape:collect="always"
       xlink:href="#linearGradient3935"
       id="linearGradient4174"
       gradientUnits="userSpaceOnUse"
       x1="25"
       y1="3"
       x2="25"
       y2="42" />
    <linearGradient
       inkscape:collect="always"
       xlink:href="#linearGradient3935"
       id="linearGradient4177"
       gradientUnits="userSpaceOnUse"
       x1="25"
       y1="3"
       x2="25"
       y2="42" />
    <linearGradient
       id="linearGradient3923-8">
      <stop
         style="stop-color:#7b7b7b;stop-opacity:1;"
         offset="0"
         id="stop3925-1" />
      <stop
         id="stop3927-2"
         offset="0.04819375"
         style="stop-color:#969696;stop-opacity:1;" />
      <stop
         style="stop-color:#626262;stop-opacity:1;"
         offset="1"
         id="stop3929-8" />
    </linearGradient>
    <linearGradient
       id="linearGradient3863-3">
      <stop
         id="stop3865-2"
         offset="0"
         style="stop-color:#a5a5a5;stop-opacity:1;" />
      <stop
         style="stop-color:#9c9c9c;stop-opacity:1;"
         offset="0.13136874"
         id="stop3867-0" />
      <stop
         id="stop3869-1"
         offset="1"
         style="stop-color:#222222;stop-opacity:1;" />
    </linearGradient>
  </defs>
  <sodipodi:namedview
     id="base"
     pagecolor="#ffffff"
     bordercolor="#666666"
     borderopacity="1.0"
     inkscape:pageopacity="0.0"
     inkscape:pageshadow="2"
     inkscape:zoom="5.6568545"
     inkscape:cx="36.954608"
     inkscape:cy="25.16325"
     inkscape:current-layer="layer1"
     showgrid="true"
     inkscape:grid-bbox="true"
     inkscape:document-units="px"
     showguides="false"
     inkscape:guide-bbox="true"
     inkscape:window-width="1366"
     inkscape:window-height="698"
     inkscape:window-x="-4"
     inkscape:window-y="-5"
     inkscape:window-maximized="1"
     inkscape:snap-global="true">
    <inkscape:grid
       type="xygrid"
       id="grid3047" />
    <sodipodi:guide
       orientation="1,0"
       position="3,4"
       id="guide3051" />
    <sodipodi:guide
       orientation="1,0"
       position="45,4"
       id="guide3053" />
    <sodipodi:guide
       orientation="0,1"
       position="-2,45"
       id="guide3055" />
    <sodipodi:guide
       orientation="0,1"
       position="2,3"
       id="guide3057" />
    <sodipodi:guide
       orientation="1,0"
       position="24,31"
       id="guide3059" />
    <sodipodi:guide
       orientation="0,1"
       position="10,24"
       id="guide3061" />
    <sodipodi:guide
       orientation="0,1"
       position="51,42"
       id="guide3058" />
    <sodipodi:guide
       orientation="0,1"
       position="52,6"
       id="guide3060" />
  </sodipodi:namedview>
  <metadata
     id="metadata3044">
    <rdf:RDF>
      <cc:Work
         rdf:about="">
        <dc:format>image/svg+xml</dc:format>
        <dc:type
           rdf:resource="http://purl.org/dc/dcmitype/StillImage" />
        <dc:title />
      </cc:Work>
    </rdf:RDF>
  </metadata>
  <g
     id="layer1"
     inkscape:label="Layer 1"
     inkscape:groupmode="layer">
    <g
       id="g4214"
       transform="translate(-92.993284,0)"
       style="fill:url(#linearGradient4245);fill-opacity:1" />
    <g
       id="g4012"
       transform="matrix(0.80618053,0,0,0.82343824,-61.668937,8.7360422)" />
    <path
       sodipodi:nodetypes="ccccc"
       inkscape:connector-curvature="0"
       id="path4001"
       d="m 9.96875,7.9375 30.0625,0 -1.0625,34.0625 -30,0 z"
       style="fill:#000000;fill-opacity:0.10526315;stroke:none" />
    <rect
       style="fill:#266dda;fill-opacity:1;stroke:none"
       id="rect3056"
       width="34"
       height="38"
       x="7"
       y="6"
       ry="0" />
    <path
       sodipodi:type="arc"
       style="opacity:0.59838712;fill:#333333;fill-opacity:1;stroke:none"
       id="path4246"
       sodipodi:cx="14"
       sodipodi:cy="11"
       sodipodi:rx="2"
       sodipodi:ry="2"
       d="m 16,11 a 2,2 0 1 1 -4,0 2,2 0 1 1 4,0 z"
       transform="matrix(0.75,0,0,0.75,5.5371505,2.25)" />
    <path
       sodipodi:type="arc"
       style="opacity:0.59838712;fill:#333333;fill-opacity:1;stroke:none"
       id="path4248"
       sodipodi:cx="14"
       sodipodi:cy="11"
       sodipodi:rx="2"
       sodipodi:ry="2"
       d="m 16,11 a 2,2 0 1 1 -4,0 2,2 0 1 1 4,0 z"
       transform="matrix(0.75,0,0,0.75,21.53715,2.25)" />
    <path
       sodipodi:nodetypes="ccccc"
       inkscape:connector-curvature="0"
       id="path4255"
       d="m 9.3223039,7.9375 28.5657621,0 L 38,12.771185 l -28.5063747,0 z"
       style="fill:#000000;fill-opacity:0.10526315;stroke:none" />
    <path
       transform="matrix(0.75,0,0,0.75,13.53715,2.25)"
       d="m 16,11 a 2,2 0 1 1 -4,0 2,2 0 1 1 4,0 z"
       sodipodi:ry="2"
       sodipodi:rx="2"
       sodipodi:cy="11"
       sodipodi:cx="14"
       id="path4250"
       style="opacity:0.59838712;fill:#333333;fill-opacity:1;stroke:none"
       sodipodi:type="arc" />
    <path
       style="fill:#666666;fill-opacity:1;stroke:none"
       d="m 9.3223039,7.9375 28.5657621,0 L 38,12.771185 l -28.5063747,0 z"
       id="path4259"
       inkscape:connector-curvature="0"
       sodipodi:nodetypes="ccccc" />
    <rect
       y="33"
       x="15"
       height="1"
       width="11"
       id="rect4013"
       style="fill:#808080;fill-opacity:1;stroke:none" />
    <path
       style="opacity:0.65966384;fill:#ffffff;fill-opacity:0.67942583;stroke:none"
       d="M 7,6 41,6 41.0039,6.308594 6.995532,6.308158 z"
       id="path3141"
       inkscape:connector-curvature="0"
       sodipodi:nodetypes="ccccc" />
    <rect
       style="fill:#808080;fill-opacity:1;stroke:none"
       id="rect4339"
       width="6.9999995"
       height="1"
       x="23"
       y="15" />
    <rect
       y="18"
       x="20"
       height="1"
       width="14"
       id="rect4341"
       style="fill:#808080;fill-opacity:1;stroke:none" />
    <rect
       style="fill:#808080;fill-opacity:1;stroke:none"
       id="rect4343"
       width="19"
       height="1"
       x="13"
       y="21" />
    <rect
       y="24"
       x="21"
       height="1"
       width="13.911613"
       id="rect4345"
       style="fill:#808080;fill-opacity:1;stroke:none" />
    <rect
       style="fill:#808080;fill-opacity:1;stroke:none"
       id="rect4347"
       width="20"
       height="1"
       x="13"
       y="27" />
    <rect
       y="30"
       x="15"
       height="1"
       width="20"
       id="rect4349"
       style="fill:#808080;fill-opacity:1;stroke:none" />
    <path
       inkscape:connector-curvature="0"
       style="fill:#b3b3b3;fill-opacity:1;stroke:none"
       d="m 8,8 0,35 32,0 0,-35 z m 8,1 c 0.828427,0 1.5,0.671573 1.5,1.5 0,0.828427 -0.671573,1.5 -1.5,1.5 -0.828427,0 -1.5,-0.671573 -1.5,-1.5 C 14.5,9.671573 15.171573,9 16,9 z m 8,0 c 0.828427,0 1.5,0.671573 1.5,1.5 0,0.828427 -0.671573,1.5 -1.5,1.5 -0.828427,0 -1.5,-0.671573 -1.5,-1.5 C 22.5,9.671573 23.171573,9 24,9 z m 8,0 c 0.828427,0 1.5,0.671573 1.5,1.5 0,0.828427 -0.671573,1.5 -1.5,1.5 -0.828427,0 -1.5,-0.671573 -1.5,-1.5 C 30.5,9.671573 31.171573,9 32,9 z"
       id="rect4017-3"
       sodipodi:nodetypes="cccccsssssssssssssss" />
    <path
       id="path3123"
       d="m 8,8 0,33 32,0 0,-33 z m 8,1 c 0.828427,0 1.5,0.671573 1.5,1.5 0,0.828427 -0.671573,1.5 -1.5,1.5 -0.828427,0 -1.5,-0.671573 -1.5,-1.5 C 14.5,9.671573 15.171573,9 16,9 z m 8,0 c 0.828427,0 1.5,0.671573 1.5,1.5 0,0.828427 -0.671573,1.5 -1.5,1.5 -0.828427,0 -1.5,-0.671573 -1.5,-1.5 C 22.5,9.671573 23.171573,9 24,9 z m 8,0 c 0.828427,0 1.5,0.671573 1.5,1.5 0,0.828427 -0.671573,1.5 -1.5,1.5 -0.828427,0 -1.5,-0.671573 -1.5,-1.5 C 30.5,9.671573 31.171573,9 32,9 z"
       style="fill:#da2626;fill-opacity:1;stroke:none"
       inkscape:connector-curvature="0"
       sodipodi:nodetypes="cccccsssssssssssssss" />
    <path
       sodipodi:nodetypes="ccccccsssssssssssssss"
       inkscape:connector-curvature="0"
       style="fill:#b7da26;fill-opacity:1;stroke:none"
       d="m 8,8 0,31 21,0 11,0 0,-31 z m 8,1 c 0.828427,0 1.5,0.671573 1.5,1.5 0,0.828427 -0.671573,1.5 -1.5,1.5 -0.828427,0 -1.5,-0.671573 -1.5,-1.5 C 14.5,9.671573 15.171573,9 16,9 z m 8,0 c 0.828427,0 1.5,0.671573 1.5,1.5 0,0.828427 -0.671573,1.5 -1.5,1.5 -0.828427,0 -1.5,-0.671573 -1.5,-1.5 C 22.5,9.671573 23.171573,9 24,9 z m 8,0 c 0.828427,0 1.5,0.671573 1.5,1.5 0,0.828427 -0.671573,1.5 -1.5,1.5 -0.828427,0 -1.5,-0.671573 -1.5,-1.5 C 30.5,9.671573 31.171573,9 32,9 z"
       id="path3907" />
    <path
       id="path3927"
       d="m 8,8 0,29 22,0 10,-9 0,-20 z m 8,1 c 0.828427,0 1.5,0.671573 1.5,1.5 0,0.828427 -0.671573,1.5 -1.5,1.5 -0.828427,0 -1.5,-0.671573 -1.5,-1.5 C 14.5,9.671573 15.171573,9 16,9 z m 8,0 c 0.828427,0 1.5,0.671573 1.5,1.5 0,0.828427 -0.671573,1.5 -1.5,1.5 -0.828427,0 -1.5,-0.671573 -1.5,-1.5 C 22.5,9.671573 23.171573,9 24,9 z m 8,0 c 0.828427,0 1.5,0.671573 1.5,1.5 0,0.828427 -0.671573,1.5 -1.5,1.5 -0.828427,0 -1.5,-0.671573 -1.5,-1.5 C 30.5,9.671573 31.171573,9 32,9 z"
       style="fill:#4eb24e;fill-opacity:1;stroke:none"
       inkscape:connector-curvature="0"
       sodipodi:nodetypes="ccccccsssssssssssssss" />
    <path
       sodipodi:nodetypes="ccccccsssssssssssssss"
       inkscape:connector-curvature="0"
       style="fill:#1a1a1a;fill-opacity:1;stroke:none"
       d="m 30,28 0,9 0,0 10,-9 0,0 z M 16,9 c 0.828427,0 1.5,0.671573 1.5,1.5 0,0.828427 -0.671573,1.5 -1.5,1.5 -0.828427,0 -1.5,-0.671573 -1.5,-1.5 C 14.5,9.671573 15.171573,9 16,9 z m 8,0 c 0.828427,0 1.5,0.671573 1.5,1.5 0,0.828427 -0.671573,1.5 -1.5,1.5 -0.828427,0 -1.5,-0.671573 -1.5,-1.5 C 22.5,9.671573 23.171573,9 24,9 z m 8,0 c 0.828427,0 1.5,0.671573 1.5,1.5 0,0.828427 -0.671573,1.5 -1.5,1.5 -0.828427,0 -1.5,-0.671573 -1.5,-1.5 C 30.5,9.671573 31.171573,9 32,9 z"
       id="path3945" />
    <rect
       style="fill:#666666;fill-opacity:1;stroke:none"
       id="rect4183"
       width="2"
       height="8"
       x="15"
       y="3"
       ry="1"
       rx="1.5" />
    <rect
       rx="1.5"
       ry="1"
       y="3"
       x="31"
       height="8"
       width="2"
       id="rect4211"
       style="fill:#666666;fill-opacity:1;stroke:none" />
    <rect
       style="fill:#666666;fill-opacity:1;stroke:none"
       id="rect4215"
       width="2"
       height="8"
       x="23"
       y="3"
       ry="1"
       rx="1.5" />
  </g>
</svg>
