<?xml version="1.0" encoding="UTF-8" standalone="no"?>
<!-- Created with Inkscape (http://www.inkscape.org/) -->

<svg
   xmlns:dc="http://purl.org/dc/elements/1.1/"
   xmlns:cc="http://creativecommons.org/ns#"
   xmlns:rdf="http://www.w3.org/1999/02/22-rdf-syntax-ns#"
   xmlns:svg="http://www.w3.org/2000/svg"
   xmlns="http://www.w3.org/2000/svg"
   xmlns:xlink="http://www.w3.org/1999/xlink"
   xmlns:sodipodi="http://sodipodi.sourceforge.net/DTD/sodipodi-0.dtd"
   xmlns:inkscape="http://www.inkscape.org/namespaces/inkscape"
   width="32px"
   height="32px"
   id="svg6828"
   version="1.1"
   inkscape:version="0.48.5 r10040"
   sodipodi:docname="kronometr.svg">
  <defs
     id="defs6830">
    <linearGradient
       id="linearGradient7522">
      <stop
         id="stop7524"
         offset="0"
         style="stop-color:#9f9f9f;stop-opacity:0.1356784;" />
      <stop
         id="stop7526"
         offset="1"
         style="stop-color:#464646;stop-opacity:1;" />
    </linearGradient>
    <linearGradient
       id="linearGradient7488">
      <stop
         style="stop-color:#232323;stop-opacity:1;"
         offset="0"
         id="stop7490" />
      <stop
         style="stop-color:#969696;stop-opacity:0;"
         offset="1"
         id="stop7492" />
    </linearGradient>
    <linearGradient
       id="linearGradient7417">
      <stop
         style="stop-color:#5e5e5e;stop-opacity:1;"
         offset="0"
         id="stop7419" />
      <stop
         style="stop-color:#464646;stop-opacity:1;"
         offset="1"
         id="stop7421" />
    </linearGradient>
    <linearGradient
       inkscape:collect="always"
       xlink:href="#linearGradient3886-5"
       id="linearGradient6826"
       x1="3.9057889"
       y1="17"
       x2="29.094212"
       y2="17"
       gradientUnits="userSpaceOnUse" />
    <linearGradient
       id="linearGradient3886-5">
      <stop
         style="stop-color:#ebebeb;stop-opacity:1;"
         offset="0"
         id="stop3888-9" />
      <stop
         style="stop-color:#bebebe;stop-opacity:1;"
         offset="1"
         id="stop3890-3" />
    </linearGradient>
    <linearGradient
       id="linearGradient7371">
      <stop
         style="stop-color:#ebebeb;stop-opacity:1;"
         offset="0"
         id="stop7373" />
      <stop
         style="stop-color:#bebebe;stop-opacity:1;"
         offset="1"
         id="stop7375" />
    </linearGradient>
    <linearGradient
       inkscape:collect="always"
       xlink:href="#linearGradient7417"
       id="linearGradient7423"
       x1="21"
       y1="15"
       x2="21"
       y2="19"
       gradientUnits="userSpaceOnUse" />
    <linearGradient
       inkscape:collect="always"
       xlink:href="#linearGradient7417"
       id="linearGradient7425"
       x1="15"
       y1="12"
       x2="18"
       y2="12"
       gradientUnits="userSpaceOnUse"
       gradientTransform="matrix(1,0,0,0.95000868,0,0.87484805)" />
    <linearGradient
       inkscape:collect="always"
       xlink:href="#linearGradient4410"
       id="linearGradient4040"
       gradientUnits="userSpaceOnUse"
       gradientTransform="matrix(0,-0.91040707,0.89132666,0,5.5948245,77.65501)"
       x1="61.132004"
       y1="25.136885"
       x2="36.251213"
       y2="11.920761" />
    <linearGradient
       inkscape:collect="always"
       id="linearGradient4410">
      <stop
         style="stop-color:#383e51;stop-opacity:1"
         offset="0"
         id="stop4412" />
      <stop
         style="stop-color:#655c6f;stop-opacity:0"
         offset="1"
         id="stop4414" />
    </linearGradient>
    <linearGradient
       y2="18.405346"
       x2="40.262218"
       y1="29.305286"
       x1="60.957382"
       gradientTransform="matrix(0,-0.91040707,0.89132666,0,-4.4051755,61.65501)"
       gradientUnits="userSpaceOnUse"
       id="linearGradient3116"
       xlink:href="#linearGradient4410"
       inkscape:collect="always" />
  </defs>
  <sodipodi:namedview
     id="base"
     pagecolor="#ffffff"
     bordercolor="#666666"
     borderopacity="1.0"
     inkscape:pageopacity="0.0"
     inkscape:pageshadow="2"
     inkscape:zoom="11.197802"
     inkscape:cx="6.5980917"
     inkscape:cy="20.330541"
     inkscape:current-layer="layer1"
     showgrid="true"
     inkscape:grid-bbox="true"
     inkscape:document-units="px"
     inkscape:window-width="1366"
     inkscape:window-height="698"
     inkscape:window-x="-4"
     inkscape:window-y="-5"
     inkscape:window-maximized="1"
     showguides="true"
     inkscape:guide-bbox="true"
     inkscape:snap-global="true">
    <inkscape:grid
       type="xygrid"
       id="grid7354" />
    <sodipodi:guide
       orientation="0,1"
       position="29,3"
       id="guide7496" />
    <sodipodi:guide
       orientation="0,1"
       position="26,29"
       id="guide7498" />
    <sodipodi:guide
       orientation="1,0"
       position="3,21"
       id="guide7500" />
    <sodipodi:guide
       orientation="1,0"
       position="29,17"
       id="guide7502" />
    <sodipodi:guide
       orientation="0,1"
       position="34,16"
       id="guide7504" />
  </sodipodi:namedview>
  <metadata
     id="metadata6833">
    <rdf:RDF>
      <cc:Work
         rdf:about="">
        <dc:format>image/svg+xml</dc:format>
        <dc:type
           rdf:resource="http://purl.org/dc/dcmitype/StillImage" />
        <dc:title />
      </cc:Work>
    </rdf:RDF>
  </metadata>
  <g
     id="layer1"
     inkscape:label="Layer 1"
     inkscape:groupmode="layer">
    <path
       sodipodi:type="arc"
       style="fill:#e6e6e6;fill-opacity:1;stroke:none;stroke-width:0.18842228999999999;stroke-linecap:square;stroke-linejoin:miter;stroke-miterlimit:4;stroke-opacity:0.24705882000000001;stroke-dasharray:none"
       id="path6007"
       sodipodi:cx="16.5"
       sodipodi:cy="17"
       sodipodi:rx="12.5"
       sodipodi:ry="12"
       d="M 29,17 A 12.5,12 0 1 1 4,17 12.5,12 0 1 1 29,17 z"
       transform="matrix(1.04,0,0,1.0833333,-1.16,-2.416667)" />
    <g
       id="g3029"
       style="fill:#1a1a1a">
      <path
         inkscape:connector-curvature="0"
         id="path7536"
         d="m 28.60095,15.90299 a 0.50005,0.50005 0 0 0 -0.5,-0.40625 l -1,0 a 0.50005,0.50005 0 1 0 0,1 l 1,0 a 0.50005,0.50005 0 0 0 0.5,-0.59375 z"
         style="font-size:medium;font-style:normal;font-variant:normal;font-weight:normal;font-stretch:normal;text-indent:0;text-align:start;text-decoration:none;line-height:normal;letter-spacing:normal;word-spacing:normal;text-transform:none;direction:ltr;block-progression:tb;writing-mode:lr-tb;text-anchor:start;baseline-shift:baseline;color:#000000;fill:#1a1a1a;fill-opacity:1;stroke:none;stroke-width:0.10000000000000001;stroke-miterlimit:4;stroke-opacity:0.24705882000000001;stroke-dasharray:none;marker:none;visibility:visible;display:inline;overflow:visible;enable-background:accumulate;font-family:Sans;-inkscape-font-specification:Sans" />
      <path
         style="font-size:medium;font-style:normal;font-variant:normal;font-weight:normal;font-stretch:normal;text-indent:0;text-align:start;text-decoration:none;line-height:normal;letter-spacing:normal;word-spacing:normal;text-transform:none;direction:ltr;block-progression:tb;writing-mode:lr-tb;text-anchor:start;baseline-shift:baseline;color:#000000;fill:#1a1a1a;fill-opacity:1;stroke:#000000;stroke-width:0.10000000000000001;stroke-miterlimit:4;stroke-opacity:0.24705882000000001;stroke-dasharray:none;marker:none;visibility:visible;display:inline;overflow:visible;enable-background:accumulate;font-family:Sans;-inkscape-font-specification:Sans"
         d="m 5.4319382,15.901074 a 0.50005,0.50005 0 0 0 -0.5,-0.40625 l -1,0 a 0.50005,0.50005 0 1 0 0,1 l 1,0 a 0.50005,0.50005 0 0 0 0.5,-0.59375 z"
         id="path7532"
         inkscape:connector-curvature="0" />
      <path
         inkscape:connector-curvature="0"
         id="path7506"
         d="M 15.90625,26.5 A 0.50005,0.50005 0 0 0 15.5,27 l 0,1 a 0.50005,0.50005 0 1 0 1,0 l 0,-1 a 0.50005,0.50005 0 0 0 -0.59375,-0.5 z"
         style="font-size:medium;font-style:normal;font-variant:normal;font-weight:normal;font-stretch:normal;text-indent:0;text-align:start;text-decoration:none;line-height:normal;letter-spacing:normal;word-spacing:normal;text-transform:none;direction:ltr;block-progression:tb;writing-mode:lr-tb;text-anchor:start;baseline-shift:baseline;color:#000000;fill:#1a1a1a;fill-opacity:1;stroke:none;stroke-width:0.10000000000000001;marker:none;visibility:visible;display:inline;overflow:visible;enable-background:accumulate;font-family:Sans;-inkscape-font-specification:Sans;stroke-miterlimit:4;stroke-dasharray:none;stroke-opacity:0.24705882000000001" />
      <path
         style="font-size:medium;font-style:normal;font-variant:normal;font-weight:normal;font-stretch:normal;text-indent:0;text-align:start;text-decoration:none;line-height:normal;letter-spacing:normal;word-spacing:normal;text-transform:none;direction:ltr;block-progression:tb;writing-mode:lr-tb;text-anchor:start;baseline-shift:baseline;color:#000000;fill:#1a1a1a;fill-opacity:1;stroke:none;stroke-width:0.10000000000000001;stroke-miterlimit:4;stroke-opacity:0.24705882000000001;stroke-dasharray:none;marker:none;visibility:visible;display:inline;overflow:visible;enable-background:accumulate;font-family:Sans;-inkscape-font-specification:Sans"
         d="M 15.90625,3.5 A 0.50005,0.50005 0 0 0 15.5,4 l 0,1 a 0.50005,0.50005 0 1 0 1,0 l 0,-1 A 0.50005,0.50005 0 0 0 15.90625,3.5 z"
         id="path7528"
         inkscape:connector-curvature="0" />
    </g>
    <path
       inkscape:connector-curvature="0"
       style="fill:#1a1a1a;fill-opacity:1;stroke:none;stroke-width:0.20000000000000001;stroke-linecap:square;stroke-linejoin:miter;stroke-miterlimit:4;stroke-opacity:0.24705882000000001;stroke-dasharray:none"
       d="M 16,3 C 8.820298,3 3,8.8202985 3,16 3,23.179702 8.820298,29 16,29 23.179702,29 29,23.179702 29,16 29,8.8202985 23.179702,3 16,3 z m 0,1 C 22.627417,4 28,9.372583 28,16 28,22.627417 22.627417,28 16,28 9.372583,28 4,22.627417 4,16 4,9.372583 9.372583,4 16,4 z"
       id="path6021" />
    <g
       id="g3035"
       transform="matrix(0.70710678,-0.70710678,0.70710678,0.70710678,-6.6308781,15.989893)"
       style="fill:#1a1a1a">
      <path
         style="font-size:medium;font-style:normal;font-variant:normal;font-weight:normal;font-stretch:normal;text-indent:0;text-align:start;text-decoration:none;line-height:normal;letter-spacing:normal;word-spacing:normal;text-transform:none;direction:ltr;block-progression:tb;writing-mode:lr-tb;text-anchor:start;baseline-shift:baseline;color:#000000;fill:#1a1a1a;fill-opacity:1;stroke:none;stroke-width:0.10000000000000001;marker:none;visibility:visible;display:inline;overflow:visible;enable-background:accumulate;font-family:Sans;-inkscape-font-specification:Sans"
         d="m 28.60095,15.90299 a 0.50005,0.50005 0 0 0 -0.5,-0.40625 l -1,0 a 0.50005,0.50005 0 1 0 0,1 l 1,0 a 0.50005,0.50005 0 0 0 0.5,-0.59375 z"
         id="path3037"
         inkscape:connector-curvature="0" />
      <path
         inkscape:connector-curvature="0"
         id="path3039"
         d="m 5.4319382,15.901074 a 0.50005,0.50005 0 0 0 -0.5,-0.40625 l -1,0 a 0.50005,0.50005 0 1 0 0,1 l 1,0 a 0.50005,0.50005 0 0 0 0.5,-0.59375 z"
         style="font-size:medium;font-style:normal;font-variant:normal;font-weight:normal;font-stretch:normal;text-indent:0;text-align:start;text-decoration:none;line-height:normal;letter-spacing:normal;word-spacing:normal;text-transform:none;direction:ltr;block-progression:tb;writing-mode:lr-tb;text-anchor:start;baseline-shift:baseline;color:#000000;fill:#1a1a1a;fill-opacity:1;stroke:#000000;stroke-width:0.10000000000000001;stroke-miterlimit:4;stroke-opacity:0.24705882000000001;stroke-dasharray:none;marker:none;visibility:visible;display:inline;overflow:visible;enable-background:accumulate;font-family:Sans;-inkscape-font-specification:Sans" />
      <path
         style="font-size:medium;font-style:normal;font-variant:normal;font-weight:normal;font-stretch:normal;text-indent:0;text-align:start;text-decoration:none;line-height:normal;letter-spacing:normal;word-spacing:normal;text-transform:none;direction:ltr;block-progression:tb;writing-mode:lr-tb;text-anchor:start;baseline-shift:baseline;color:#000000;fill:#1a1a1a;fill-opacity:1;stroke:none;stroke-width:0.10000000000000001;marker:none;visibility:visible;display:inline;overflow:visible;enable-background:accumulate;font-family:Sans;-inkscape-font-specification:Sans"
         d="M 15.90625,26.5 A 0.50005,0.50005 0 0 0 15.5,27 l 0,1 a 0.50005,0.50005 0 1 0 1,0 l 0,-1 a 0.50005,0.50005 0 0 0 -0.59375,-0.5 z"
         id="path3041"
         inkscape:connector-curvature="0" />
      <path
         inkscape:connector-curvature="0"
         id="path3043"
         d="M 15.90625,3.5 A 0.50005,0.50005 0 0 0 15.5,4 l 0,1 a 0.50005,0.50005 0 1 0 1,0 l 0,-1 A 0.50005,0.50005 0 0 0 15.90625,3.5 z"
         style="font-size:medium;font-style:normal;font-variant:normal;font-weight:normal;font-stretch:normal;text-indent:0;text-align:start;text-decoration:none;line-height:normal;letter-spacing:normal;word-spacing:normal;text-transform:none;direction:ltr;block-progression:tb;writing-mode:lr-tb;text-anchor:start;baseline-shift:baseline;color:#000000;fill:#1a1a1a;fill-opacity:1;stroke:none;stroke-width:0.10000000000000001;marker:none;visibility:visible;display:inline;overflow:visible;enable-background:accumulate;font-family:Sans;-inkscape-font-specification:Sans" />
    </g>
    <path
       style="fill:#1a1a1a;fill-opacity:1;stroke:none"
       d="M 5,7 C 4.6082629,7.3917372 4.6082629,8.0224764 5,8.4142136 L 5.7071068,9.1213203 8.5355339,6.2928932 7.8284272,5.5857864 c -0.3917372,-0.3917371 -1.0224764,-0.3917371 -1.4142136,0 L 5,7 z"
       id="rect3019"
       inkscape:connector-curvature="0" />
    <path
       inkscape:connector-curvature="0"
       id="path3027"
       d="m 26.828427,6.4142136 c 0.391737,0.3917372 0.391737,1.0224764 0,1.4142136 L 26.12132,8.5355339 23.292893,5.7071068 24,5 c 0.391737,-0.3917371 1.022476,-0.3917371 1.414214,0 l 1.414213,1.4142136 z"
       style="fill:#1a1a1a;fill-opacity:1;stroke:none" />
    <path
       sodipodi:type="arc"
       style="fill:#da2626;fill-opacity:1;stroke:none"
       id="path3045"
       sodipodi:cx="18.5"
       sodipodi:cy="15"
       sodipodi:rx="9.5"
       sodipodi:ry="9"
       d="m 28,15 a 9.5,9 0 0 1 -9.590559,8.999591 L 18.5,15 z"
       transform="matrix(1.0526316,0,0,-1.1111111,-3.4736846,32.666667)"
       sodipodi:start="0"
       sodipodi:end="1.580329" />
  </g>
</svg>
