<?xml version="1.0" encoding="UTF-8" standalone="no"?>
<!-- Created with Inkscape (http://www.inkscape.org/) -->

<svg
   xmlns:dc="http://purl.org/dc/elements/1.1/"
   xmlns:cc="http://creativecommons.org/ns#"
   xmlns:rdf="http://www.w3.org/1999/02/22-rdf-syntax-ns#"
   xmlns:svg="http://www.w3.org/2000/svg"
   xmlns="http://www.w3.org/2000/svg"
   xmlns:xlink="http://www.w3.org/1999/xlink"
   xmlns:sodipodi="http://sodipodi.sourceforge.net/DTD/sodipodi-0.dtd"
   xmlns:inkscape="http://www.inkscape.org/namespaces/inkscape"
   width="48px"
   height="48px"
   id="svg3039"
   version="1.1"
   inkscape:version="0.48.5 r10040"
   sodipodi:docname="ktron.svg">
  <defs
     id="defs3041">
    <linearGradient
       id="linearGradient4380">
      <stop
         id="stop4382"
         offset="0"
         style="stop-color:#d8efdf;stop-opacity:1;" />
      <stop
         id="stop4384"
         offset="1"
         style="stop-color:#aad8b8;stop-opacity:1;" />
    </linearGradient>
    <linearGradient
       id="linearGradient4341">
      <stop
         style="stop-color:#959595;stop-opacity:1"
         offset="0"
         id="stop4343" />
      <stop
         style="stop-color:#5b5b5b;stop-opacity:1"
         offset="1"
         id="stop4345" />
    </linearGradient>
    <linearGradient
       id="linearGradient4325">
      <stop
         style="stop-color:#c1c1c1;stop-opacity:1"
         offset="0"
         id="stop4327" />
      <stop
         style="stop-color:#595959;stop-opacity:1"
         offset="1"
         id="stop4329" />
    </linearGradient>
    <linearGradient
       id="linearGradient4316">
      <stop
         id="stop4318"
         offset="0"
         style="stop-color:#6594e3;stop-opacity:1;" />
      <stop
         id="stop4320"
         offset="1"
         style="stop-color:#146ce7;stop-opacity:1;" />
    </linearGradient>
    <linearGradient
       id="linearGradient4310">
      <stop
         id="stop4312"
         offset="0"
         style="stop-color:#6fc455;stop-opacity:1;" />
      <stop
         id="stop4314"
         offset="1"
         style="stop-color:#45b92a;stop-opacity:1;" />
    </linearGradient>
    <linearGradient
       id="linearGradient4158">
      <stop
         style="stop-color:#f3df91;stop-opacity:1;"
         offset="0"
         id="stop4160" />
      <stop
         style="stop-color:#9d8628;stop-opacity:1;"
         offset="1"
         id="stop4162" />
    </linearGradient>
    <linearGradient
       id="linearGradient4152">
      <stop
         id="stop4154"
         offset="0"
         style="stop-color:#f3df91;stop-opacity:1;" />
      <stop
         id="stop4156"
         offset="1"
         style="stop-color:#9d8628;stop-opacity:1;" />
    </linearGradient>
    <linearGradient
       id="linearGradient3917">
      <stop
         style="stop-color:#39a54f;stop-opacity:1;"
         offset="0"
         id="stop3919" />
      <stop
         style="stop-color:#00cf30;stop-opacity:1;"
         offset="1"
         id="stop3922" />
    </linearGradient>
    <linearGradient
       id="linearGradient3985">
      <stop
         id="stop3987"
         offset="0"
         style="stop-color:#3962a5;stop-opacity:1;" />
      <stop
         id="stop3989"
         offset="1"
         style="stop-color:#2a6aff;stop-opacity:1;" />
    </linearGradient>
    <linearGradient
       id="linearGradient3971">
      <stop
         style="stop-color:#309d1b;stop-opacity:1;"
         offset="0"
         id="stop3973" />
      <stop
         style="stop-color:#3cd04a;stop-opacity:1;"
         offset="1"
         id="stop3975" />
    </linearGradient>
    <linearGradient
       id="linearGradient3957">
      <stop
         id="stop3959"
         offset="0"
         style="stop-color:#a58b39;stop-opacity:1;" />
      <stop
         id="stop3961"
         offset="1"
         style="stop-color:#ffad2a;stop-opacity:1;" />
    </linearGradient>
    <linearGradient
       id="linearGradient3941">
      <stop
         style="stop-color:#a53939;stop-opacity:1;"
         offset="0"
         id="stop3943" />
      <stop
         style="stop-color:#ff2a2a;stop-opacity:1;"
         offset="1"
         id="stop3945" />
    </linearGradient>
    <linearGradient
       id="linearGradient4028">
      <stop
         style="stop-color:#bc5fd3;stop-opacity:1;"
         offset="0"
         id="stop4030" />
      <stop
         style="stop-color:#9e33b8;stop-opacity:1;"
         offset="1"
         id="stop4032" />
    </linearGradient>
    <linearGradient
       id="linearGradient4020">
      <stop
         style="stop-color:#ffcc00;stop-opacity:1;"
         offset="0"
         id="stop4022" />
      <stop
         style="stop-color:#ebbc00;stop-opacity:1;"
         offset="1"
         id="stop4024" />
    </linearGradient>
    <linearGradient
       id="linearGradient3927">
      <stop
         style="stop-color:#3771c8;stop-opacity:1;"
         offset="0"
         id="stop3929" />
      <stop
         style="stop-color:#5f8dd3;stop-opacity:1;"
         offset="1"
         id="stop3931" />
    </linearGradient>
    <linearGradient
       id="linearGradient3919">
      <stop
         style="stop-color:#299554;stop-opacity:1;"
         offset="0"
         id="stop3921" />
      <stop
         style="stop-color:#2ca05a;stop-opacity:1;"
         offset="1"
         id="stop3923" />
    </linearGradient>
    <linearGradient
       id="linearGradient3911">
      <stop
         style="stop-color:#e00000;stop-opacity:1;"
         offset="0"
         id="stop3913" />
      <stop
         style="stop-color:#ff5555;stop-opacity:1;"
         offset="1"
         id="stop3915" />
    </linearGradient>
    <linearGradient
       id="linearGradient3903">
      <stop
         style="stop-color:#caac7c;stop-opacity:1;"
         offset="0"
         id="stop3905" />
      <stop
         style="stop-color:#f3ece2;stop-opacity:1;"
         offset="1"
         id="stop3907" />
    </linearGradient>
    <linearGradient
       id="linearGradient3896">
      <stop
         id="stop3898"
         offset="0"
         style="stop-color:#3b3b3b;stop-opacity:1;" />
      <stop
         style="stop-color:#959595;stop-opacity:1"
         offset="0.05888502"
         id="stop3900" />
      <stop
         id="stop3902"
         offset="1"
         style="stop-color:#565656;stop-opacity:1;" />
    </linearGradient>
    <linearGradient
       id="linearGradient3866">
      <stop
         style="stop-color:#f9f9f9;stop-opacity:1;"
         offset="0"
         id="stop3868" />
      <stop
         id="stop3870"
         offset="0.25"
         style="stop-color:#c4c4c4;stop-opacity:1;" />
      <stop
         style="stop-color:#565656;stop-opacity:1;"
         offset="1"
         id="stop3872" />
    </linearGradient>
    <linearGradient
       id="linearGradient3848">
      <stop
         style="stop-color:#f9f9f9;stop-opacity:1;"
         offset="0"
         id="stop3850" />
      <stop
         id="stop3852"
         offset="0.18623945"
         style="stop-color:#c4c4c4;stop-opacity:1;" />
      <stop
         style="stop-color:#565656;stop-opacity:1;"
         offset="1"
         id="stop3854" />
    </linearGradient>
    <linearGradient
       id="linearGradient3824">
      <stop
         style="stop-color:#fdfdfd;stop-opacity:1;"
         offset="0"
         id="stop3826" />
      <stop
         style="stop-color:#bcbcbc;stop-opacity:1;"
         offset="1"
         id="stop3830" />
    </linearGradient>
    <linearGradient
       id="linearGradient4279">
      <stop
         style="stop-color:#f9f9f9;stop-opacity:1;"
         offset="0"
         id="stop4281" />
      <stop
         id="stop4283"
         offset="0.81130701"
         style="stop-color:#c4c4c4;stop-opacity:1;" />
      <stop
         style="stop-color:#565656;stop-opacity:1;"
         offset="1"
         id="stop4285" />
    </linearGradient>
    <linearGradient
       id="linearGradient4239">
      <stop
         style="stop-color:#505050;stop-opacity:1;"
         offset="0"
         id="stop4241" />
      <stop
         style="stop-color:#ffffff;stop-opacity:0.15422885;"
         offset="1"
         id="stop4243" />
    </linearGradient>
    <linearGradient
       id="linearGradient4223">
      <stop
         id="stop4227"
         offset="0"
         style="stop-color:#e9e9e9;stop-opacity:0;" />
      <stop
         style="stop-color:#929292;stop-opacity:1"
         offset="1"
         id="stop4229" />
    </linearGradient>
    <linearGradient
       id="linearGradient4169">
      <stop
         id="stop4171"
         offset="0"
         style="stop-color:#f9f9f9;stop-opacity:1;" />
      <stop
         style="stop-color:#c4c4c4;stop-opacity:1;"
         offset="0.71567649"
         id="stop4175" />
      <stop
         id="stop4173"
         offset="1"
         style="stop-color:#565656;stop-opacity:1;" />
    </linearGradient>
    <linearGradient
       id="linearGradient4153">
      <stop
         style="stop-color:#ffffff;stop-opacity:1;"
         offset="0"
         id="stop4155" />
      <stop
         style="stop-color:#000000;stop-opacity:1;"
         offset="1"
         id="stop4157" />
    </linearGradient>
    <linearGradient
       id="linearGradient4145">
      <stop
         id="stop4147"
         offset="0"
         style="stop-color:#a0a0a0;stop-opacity:1;" />
      <stop
         id="stop4149"
         offset="1"
         style="stop-color:#202020;stop-opacity:1;" />
    </linearGradient>
    <linearGradient
       id="linearGradient4048">
      <stop
         id="stop4309"
         offset="0"
         style="stop-color:#89713a;stop-opacity:1;" />
      <stop
         id="stop4054"
         offset="1"
         style="stop-color:#dad3c1;stop-opacity:1;" />
    </linearGradient>
    <linearGradient
       id="linearGradient3886">
      <stop
         style="stop-color:#f9f9f9;stop-opacity:1;"
         offset="0"
         id="stop3888" />
      <stop
         style="stop-color:#afafaf;stop-opacity:1;"
         offset="1"
         id="stop3890" />
    </linearGradient>
    <linearGradient
       id="linearGradient3839">
      <stop
         style="stop-color:#e37665;stop-opacity:1;"
         offset="0"
         id="stop3841" />
      <stop
         style="stop-color:#e74914;stop-opacity:1;"
         offset="1"
         id="stop3843" />
    </linearGradient>
    <linearGradient
       y2="17"
       x2="40"
       y1="31"
       x1="54"
       gradientTransform="matrix(0,-1,-1,0,71,73)"
       gradientUnits="userSpaceOnUse"
       id="linearGradient3029"
       xlink:href="#linearGradient4410"
       inkscape:collect="always" />
    <linearGradient
       inkscape:collect="always"
       id="linearGradient4410">
      <stop
         style="stop-color:#383e51;stop-opacity:1"
         offset="0"
         id="stop4412" />
      <stop
         style="stop-color:#655c6f;stop-opacity:0"
         offset="1"
         id="stop4414" />
    </linearGradient>
    <linearGradient
       y2="17"
       x2="40"
       y1="31"
       x1="54"
       gradientTransform="matrix(0,-1,1,0,4,78)"
       gradientUnits="userSpaceOnUse"
       id="linearGradient3028-7"
       xlink:href="#linearGradient4410-0"
       inkscape:collect="always" />
    <linearGradient
       inkscape:collect="always"
       id="linearGradient4410-0">
      <stop
         style="stop-color:#383e51;stop-opacity:1"
         offset="0"
         id="stop4412-9" />
      <stop
         style="stop-color:#655c6f;stop-opacity:0"
         offset="1"
         id="stop4414-1" />
    </linearGradient>
    <linearGradient
       y2="17"
       x2="40"
       y1="31"
       x1="54"
       gradientTransform="matrix(0.92361896,-0.60771399,-0.60771399,-0.92361896,-13.529375,73.514474)"
       gradientUnits="userSpaceOnUse"
       id="linearGradient3943"
       xlink:href="#linearGradient4410-0"
       inkscape:collect="always" />
    <radialGradient
       inkscape:collect="always"
       xlink:href="#linearGradient3886-5"
       id="radialGradient3892-5"
       cx="24.061937"
       cy="23.872463"
       fx="24.061937"
       fy="23.872463"
       r="17.025761"
       gradientTransform="matrix(1,0,0,0.99900396,0,0.02377793)"
       gradientUnits="userSpaceOnUse" />
    <linearGradient
       id="linearGradient3886-5">
      <stop
         style="stop-color:#a1a1a1;stop-opacity:1;"
         offset="0"
         id="stop3888-9" />
      <stop
         style="stop-color:#b0b0b0;stop-opacity:1;"
         offset="1"
         id="stop3890-3" />
    </linearGradient>
    <radialGradient
       inkscape:collect="always"
       xlink:href="#linearGradient4169-1"
       id="radialGradient4099-4"
       cx="26.5"
       cy="23.5"
       fx="26.5"
       fy="23.5"
       r="19.5"
       gradientTransform="matrix(0.9473684,0,0,0.79892039,1.3947374,4.725371)"
       gradientUnits="userSpaceOnUse" />
    <linearGradient
       id="linearGradient4169-1">
      <stop
         id="stop4171-2"
         offset="0"
         style="stop-color:#f9f9f9;stop-opacity:1;" />
      <stop
         style="stop-color:#c4c4c4;stop-opacity:1;"
         offset="0.76923078"
         id="stop4175-4" />
      <stop
         id="stop4173-4"
         offset="1"
         style="stop-color:#565656;stop-opacity:1;" />
    </linearGradient>
    <linearGradient
       inkscape:collect="always"
       xlink:href="#linearGradient4239"
       id="linearGradient4245"
       x1="44"
       y1="28.00672"
       x2="57.993282"
       y2="13"
       gradientUnits="userSpaceOnUse" />
    <linearGradient
       inkscape:collect="always"
       xlink:href="#linearGradient4223"
       id="linearGradient4249"
       x1="24.643452"
       y1="23.494081"
       x2="39.495842"
       y2="9.4033527"
       gradientUnits="userSpaceOnUse" />
    <linearGradient
       inkscape:collect="always"
       xlink:href="#linearGradient4239-0"
       id="linearGradient4245-2"
       x1="44"
       y1="28.00672"
       x2="57.993282"
       y2="13"
       gradientUnits="userSpaceOnUse" />
    <linearGradient
       id="linearGradient4239-0">
      <stop
         style="stop-color:#505050;stop-opacity:1;"
         offset="0"
         id="stop4241-0" />
      <stop
         style="stop-color:#ffffff;stop-opacity:0.15422885;"
         offset="1"
         id="stop4243-4" />
    </linearGradient>
    <linearGradient
       id="linearGradient3839-2">
      <stop
         style="stop-color:#85b5c3;stop-opacity:1;"
         offset="0"
         id="stop3841-2" />
      <stop
         style="stop-color:#3b67c0;stop-opacity:1;"
         offset="1"
         id="stop3843-1" />
    </linearGradient>
    <linearGradient
       inkscape:collect="always"
       id="linearGradient3986">
      <stop
         style="stop-color:#ffffff;stop-opacity:1;"
         offset="0"
         id="stop3988" />
      <stop
         style="stop-color:#ffffff;stop-opacity:0;"
         offset="1"
         id="stop3990" />
    </linearGradient>
    <linearGradient
       inkscape:collect="always"
       id="linearGradient3978">
      <stop
         style="stop-color:#ffffff;stop-opacity:1;"
         offset="0"
         id="stop3980" />
      <stop
         style="stop-color:#ffffff;stop-opacity:0;"
         offset="1"
         id="stop3982" />
    </linearGradient>
    <linearGradient
       y2="13"
       x2="57.993282"
       y1="28.00672"
       x1="44"
       gradientUnits="userSpaceOnUse"
       id="linearGradient3117"
       xlink:href="#linearGradient4239-0"
       inkscape:collect="always" />
    <linearGradient
       inkscape:collect="always"
       xlink:href="#linearGradient3978"
       id="linearGradient3251"
       gradientUnits="userSpaceOnUse"
       gradientTransform="matrix(0.71344016,0,0,0.71344016,6.8774373,7.4327989)"
       x1="40"
       y1="26.9375"
       x2="31"
       y2="31" />
    <linearGradient
       inkscape:collect="always"
       xlink:href="#linearGradient4239-0"
       id="linearGradient3253"
       gradientUnits="userSpaceOnUse"
       x1="44"
       y1="28.00672"
       x2="57.993282"
       y2="13" />
    <linearGradient
       inkscape:collect="always"
       xlink:href="#linearGradient3986"
       id="linearGradient3259"
       gradientUnits="userSpaceOnUse"
       x1="18.625"
       y1="46.589149"
       x2="20.8125"
       y2="36.964149" />
    <linearGradient
       inkscape:collect="always"
       xlink:href="#linearGradient3986"
       id="linearGradient3922"
       gradientUnits="userSpaceOnUse"
       x1="18.625"
       y1="46.589149"
       x2="20.8125"
       y2="36.964149"
       gradientTransform="translate(-22.426548,-16.819911)" />
    <linearGradient
       inkscape:collect="always"
       xlink:href="#linearGradient3886-5"
       id="linearGradient3901"
       x1="44.536011"
       y1="1.7487231"
       x2="44.536011"
       y2="54.265526"
       gradientUnits="userSpaceOnUse" />
    <linearGradient
       inkscape:collect="always"
       xlink:href="#linearGradient3971"
       id="linearGradient3969"
       x1="4"
       y1="10"
       x2="16"
       y2="10"
       gradientUnits="userSpaceOnUse" />
    <linearGradient
       inkscape:collect="always"
       xlink:href="#linearGradient3886-5"
       id="linearGradient3999"
       x1="3"
       y1="10"
       x2="17"
       y2="10"
       gradientUnits="userSpaceOnUse" />
    <linearGradient
       inkscape:collect="always"
       xlink:href="#linearGradient3824"
       id="linearGradient4027"
       x1="4"
       y1="5"
       x2="18"
       y2="18"
       gradientUnits="userSpaceOnUse" />
    <linearGradient
       inkscape:collect="always"
       xlink:href="#linearGradient3824"
       id="linearGradient4039"
       gradientUnits="userSpaceOnUse"
       x1="4"
       y1="5"
       x2="18"
       y2="18" />
    <linearGradient
       inkscape:collect="always"
       xlink:href="#linearGradient3824"
       id="linearGradient4051"
       gradientUnits="userSpaceOnUse"
       x1="4"
       y1="5"
       x2="18"
       y2="18" />
    <linearGradient
       inkscape:collect="always"
       xlink:href="#linearGradient3824"
       id="linearGradient4055"
       gradientUnits="userSpaceOnUse"
       x1="4"
       y1="5"
       x2="18"
       y2="18" />
    <linearGradient
       inkscape:collect="always"
       xlink:href="#linearGradient3824"
       id="linearGradient4068"
       gradientUnits="userSpaceOnUse"
       x1="4"
       y1="5"
       x2="18"
       y2="18" />
    <linearGradient
       inkscape:collect="always"
       xlink:href="#linearGradient3824"
       id="linearGradient4072"
       gradientUnits="userSpaceOnUse"
       x1="4"
       y1="5"
       x2="18"
       y2="18" />
    <linearGradient
       inkscape:collect="always"
       xlink:href="#linearGradient3824"
       id="linearGradient4088"
       gradientUnits="userSpaceOnUse"
       x1="4"
       y1="5"
       x2="18"
       y2="18" />
    <linearGradient
       inkscape:collect="always"
       xlink:href="#linearGradient3824"
       id="linearGradient4092"
       gradientUnits="userSpaceOnUse"
       x1="4"
       y1="5"
       x2="18"
       y2="18" />
    <linearGradient
       inkscape:collect="always"
       xlink:href="#linearGradient3824"
       id="linearGradient4096"
       gradientUnits="userSpaceOnUse"
       x1="4"
       y1="5"
       x2="18"
       y2="18" />
    <linearGradient
       inkscape:collect="always"
       xlink:href="#linearGradient3824"
       id="linearGradient4211"
       gradientUnits="userSpaceOnUse"
       x1="4"
       y1="5"
       x2="18"
       y2="18" />
  </defs>
  <sodipodi:namedview
     id="base"
     pagecolor="#ffffff"
     bordercolor="#666666"
     borderopacity="1.0"
     inkscape:pageopacity="0.0"
     inkscape:pageshadow="2"
     inkscape:zoom="4.3166403"
     inkscape:cx="5.3931403"
     inkscape:cy="18.614097"
     inkscape:current-layer="layer1"
     showgrid="true"
     inkscape:grid-bbox="true"
     inkscape:document-units="px"
     showguides="true"
     inkscape:guide-bbox="true"
     inkscape:window-width="1366"
     inkscape:window-height="698"
     inkscape:window-x="-4"
     inkscape:window-y="-5"
     inkscape:window-maximized="1"
     inkscape:snap-global="true">
    <inkscape:grid
       type="xygrid"
       id="grid3047" />
    <sodipodi:guide
       orientation="1,0"
       position="3,4"
       id="guide3051" />
    <sodipodi:guide
       orientation="1,0"
       position="45,21"
       id="guide3053" />
    <sodipodi:guide
       orientation="0,1"
       position="-2,45"
       id="guide3055" />
    <sodipodi:guide
       orientation="0,1"
       position="2,3"
       id="guide3057" />
    <sodipodi:guide
       orientation="-1,1.2246468e-16"
       position="24,5"
       id="guide3059" />
    <sodipodi:guide
       orientation="0,1"
       position="40,25"
       id="guide3061" />
  </sodipodi:namedview>
  <metadata
     id="metadata3044">
    <rdf:RDF>
      <cc:Work
         rdf:about="">
        <dc:format>image/svg+xml</dc:format>
        <dc:type
           rdf:resource="http://purl.org/dc/dcmitype/StillImage" />
        <dc:title />
      </cc:Work>
    </rdf:RDF>
  </metadata>
  <g
     id="layer1"
     inkscape:label="Layer 1"
     inkscape:groupmode="layer">
    <rect
       rx="0"
       ry="0"
       transform="matrix(0,-1,1,0,0,0)"
       y="3"
       x="-45"
       height="42"
       width="42"
       id="rect4168"
       style="fill:#afe9c6;fill-opacity:1;stroke:none" />
    <rect
       style="fill:#afe9c6;fill-opacity:1;stroke:#808080;stroke-width:0;stroke-linecap:round;stroke-linejoin:round;stroke-miterlimit:4;stroke-opacity:1;stroke-dasharray:none"
       id="rect4032"
       width="40"
       height="40"
       x="-44"
       y="3.999999"
       transform="matrix(0,-1,1,0,0,0)"
       ry="0"
       rx="0" />
    <g
       id="g4359"
       style="fill:#26d939;fill-opacity:1">
      <g
         id="g4168"
         transform="translate(26,-2)"
         style="fill:#26d939;fill-opacity:1">
        <g
           transform="translate(0,19)"
           id="g4170"
           style="fill:#26d939;fill-opacity:1">
          <g
             id="g4172"
             style="fill:#26d939;fill-opacity:1">
            <path
               style="fill:#26d939;fill-opacity:1;stroke:none"
               d="M 11.414214,8.1715726 10,9.585786 8.5857864,8.1715726 7.8786797,8.8786794 9.2928932,10.292893 10,11 10.707107,10.292893 12.12132,8.8786794 11.414214,8.1715726 z"
               id="path4174"
               inkscape:connector-curvature="0" />
            <path
               inkscape:connector-curvature="0"
               id="path4176"
               d="M 17.414214,8.1715726 16,9.585786 14.585786,8.1715726 13.87868,8.8786794 15.292893,10.292893 16,11 16.707107,10.292893 18.12132,8.8786794 17.414214,8.1715726 z"
               style="fill:#26d939;fill-opacity:1;stroke:none" />
            <path
               inkscape:connector-curvature="0"
               id="path4312"
               d="M 11.414214,18.171573 10,19.585786 8.5857864,18.171573 7.8786797,18.878679 9.2928932,20.292893 10,21 10.707107,20.292893 12.12132,18.878679 11.414214,18.171573 z"
               style="fill:#26d939;fill-opacity:1;stroke:none" />
            <path
               style="fill:#26d939;fill-opacity:1;stroke:none"
               d="M 17.414214,18.171573 16,19.585786 14.585786,18.171573 13.87868,18.878679 15.292893,20.292893 16,21 16.707107,20.292893 18.12132,18.878679 17.414214,18.171573 z"
               id="path4314"
               inkscape:connector-curvature="0" />
          </g>
          <g
             transform="translate(0,5)"
             id="g4178"
             style="fill:#26d939;fill-opacity:1">
            <path
               inkscape:connector-curvature="0"
               id="path4180"
               d="M 11.414214,8.1715726 10,9.585786 8.5857864,8.1715726 7.8786797,8.8786794 9.2928932,10.292893 10,11 10.707107,10.292893 12.12132,8.8786794 11.414214,8.1715726 z"
               style="fill:#26d939;fill-opacity:1;stroke:none" />
            <path
               style="fill:#26d939;fill-opacity:1;stroke:none"
               d="M 17.414214,8.1715726 16,9.585786 14.585786,8.1715726 13.87868,8.8786794 15.292893,10.292893 16,11 16.707107,10.292893 18.12132,8.8786794 17.414214,8.1715726 z"
               id="path4182"
               inkscape:connector-curvature="0" />
            <path
               style="fill:#26d939;fill-opacity:1;stroke:none"
               d="M 11.414214,18.171573 10,19.585786 8.5857864,18.171573 7.8786797,18.878679 9.2928932,20.292893 10,21 10.707107,20.292893 12.12132,18.878679 11.414214,18.171573 z"
               id="path4316"
               inkscape:connector-curvature="0" />
            <path
               inkscape:connector-curvature="0"
               id="path4318"
               d="M 17.414214,18.171573 16,19.585786 14.585786,18.171573 13.87868,18.878679 15.292893,20.292893 16,21 16.707107,20.292893 18.12132,18.878679 17.414214,18.171573 z"
               style="fill:#26d939;fill-opacity:1;stroke:none" />
          </g>
        </g>
        <g
           id="g4184"
           transform="translate(0,9)"
           style="fill:#26d939;fill-opacity:1">
          <g
             id="g4186"
             style="fill:#26d939;fill-opacity:1">
            <path
               inkscape:connector-curvature="0"
               id="path4188"
               d="M 11.414214,8.1715726 10,9.585786 8.5857864,8.1715726 7.8786797,8.8786794 9.2928932,10.292893 10,11 10.707107,10.292893 12.12132,8.8786794 11.414214,8.1715726 z"
               style="fill:#26d939;fill-opacity:1;stroke:none" />
            <path
               style="fill:#26d939;fill-opacity:1;stroke:none"
               d="M 17.414214,8.1715726 16,9.585786 14.585786,8.1715726 13.87868,8.8786794 15.292893,10.292893 16,11 16.707107,10.292893 18.12132,8.8786794 17.414214,8.1715726 z"
               id="path4190"
               inkscape:connector-curvature="0" />
          </g>
          <g
             id="g4192"
             transform="translate(0,5)"
             style="fill:#26d939;fill-opacity:1">
            <path
               style="fill:#26d939;fill-opacity:1;stroke:none"
               d="M 11.414214,8.1715726 10,9.585786 8.5857864,8.1715726 7.8786797,8.8786794 9.2928932,10.292893 10,11 10.707107,10.292893 12.12132,8.8786794 11.414214,8.1715726 z"
               id="path4194"
               inkscape:connector-curvature="0" />
            <path
               inkscape:connector-curvature="0"
               id="path4196"
               d="M 17.414214,8.1715726 16,9.585786 14.585786,8.1715726 13.87868,8.8786794 15.292893,10.292893 16,11 16.707107,10.292893 18.12132,8.8786794 17.414214,8.1715726 z"
               style="fill:#26d939;fill-opacity:1;stroke:none" />
          </g>
        </g>
        <g
           id="g4198"
           transform="translate(0,-1)"
           style="fill:#26d939;fill-opacity:1">
          <g
             id="g4200"
             style="fill:#26d939;fill-opacity:1">
            <path
               style="fill:#26d939;fill-opacity:1;stroke:none"
               d="M 11.414214,8.1715726 10,9.585786 8.5857864,8.1715726 7.8786797,8.8786794 9.2928932,10.292893 10,11 10.707107,10.292893 12.12132,8.8786794 11.414214,8.1715726 z"
               id="path4202"
               inkscape:connector-curvature="0" />
            <path
               inkscape:connector-curvature="0"
               id="path4204"
               d="M 17.414214,8.1715726 16,9.585786 14.585786,8.1715726 13.87868,8.8786794 15.292893,10.292893 16,11 16.707107,10.292893 18.12132,8.8786794 17.414214,8.1715726 z"
               style="fill:#26d939;fill-opacity:1;stroke:none" />
          </g>
          <g
             transform="translate(0,5)"
             id="g4206"
             style="fill:#26d939;fill-opacity:1">
            <path
               inkscape:connector-curvature="0"
               id="path4208"
               d="M 11.414214,8.1715726 10,9.585786 8.5857864,8.1715726 7.8786797,8.8786794 9.2928932,10.292893 10,11 10.707107,10.292893 12.12132,8.8786794 11.414214,8.1715726 z"
               style="fill:#26d939;fill-opacity:1;stroke:none" />
            <path
               style="fill:#26d939;fill-opacity:1;stroke:none"
               d="M 17.414214,8.1715726 16,9.585786 14.585786,8.1715726 13.87868,8.8786794 15.292893,10.292893 16,11 16.707107,10.292893 18.12132,8.8786794 17.414214,8.1715726 z"
               id="path4210"
               inkscape:connector-curvature="0" />
          </g>
        </g>
      </g>
      <g
         transform="translate(14,-2)"
         id="g4212"
         style="fill:#26d939;fill-opacity:1">
        <g
           id="g4214"
           transform="translate(0,19)"
           style="fill:#26d939;fill-opacity:1">
          <g
             id="g4216"
             style="fill:#26d939;fill-opacity:1">
            <path
               inkscape:connector-curvature="0"
               id="path4218"
               d="M 11.414214,8.1715726 10,9.585786 8.5857864,8.1715726 7.8786797,8.8786794 9.2928932,10.292893 10,11 10.707107,10.292893 12.12132,8.8786794 11.414214,8.1715726 z"
               style="fill:#26d939;fill-opacity:1;stroke:none" />
            <path
               style="fill:#26d939;fill-opacity:1;stroke:none"
               d="M 17.414214,8.1715726 16,9.585786 14.585786,8.1715726 13.87868,8.8786794 15.292893,10.292893 16,11 16.707107,10.292893 18.12132,8.8786794 17.414214,8.1715726 z"
               id="path4220"
               inkscape:connector-curvature="0" />
            <path
               style="fill:#26d939;fill-opacity:1;stroke:none"
               d="M 11.414214,18.171573 10,19.585786 8.5857864,18.171573 7.8786797,18.878679 9.2928932,20.292893 10,21 10.707107,20.292893 12.12132,18.878679 11.414214,18.171573 z"
               id="path4320"
               inkscape:connector-curvature="0" />
            <path
               inkscape:connector-curvature="0"
               id="path4322"
               d="M 17.414214,18.171573 16,19.585786 14.585786,18.171573 13.87868,18.878679 15.292893,20.292893 16,21 16.707107,20.292893 18.12132,18.878679 17.414214,18.171573 z"
               style="fill:#26d939;fill-opacity:1;stroke:none" />
          </g>
          <g
             id="g4222"
             transform="translate(0,5)"
             style="fill:#26d939;fill-opacity:1">
            <path
               style="fill:#26d939;fill-opacity:1;stroke:none"
               d="M 11.414214,8.1715726 10,9.585786 8.5857864,8.1715726 7.8786797,8.8786794 9.2928932,10.292893 10,11 10.707107,10.292893 12.12132,8.8786794 11.414214,8.1715726 z"
               id="path4224"
               inkscape:connector-curvature="0" />
            <path
               inkscape:connector-curvature="0"
               id="path4226"
               d="M 17.414214,8.1715726 16,9.585786 14.585786,8.1715726 13.87868,8.8786794 15.292893,10.292893 16,11 16.707107,10.292893 18.12132,8.8786794 17.414214,8.1715726 z"
               style="fill:#26d939;fill-opacity:1;stroke:none" />
            <path
               inkscape:connector-curvature="0"
               id="path4324"
               d="M 11.414214,18.171573 10,19.585786 8.5857864,18.171573 7.8786797,18.878679 9.2928932,20.292893 10,21 10.707107,20.292893 12.12132,18.878679 11.414214,18.171573 z"
               style="fill:#26d939;fill-opacity:1;stroke:none" />
            <path
               style="fill:#26d939;fill-opacity:1;stroke:none"
               d="M 17.414214,18.171573 16,19.585786 14.585786,18.171573 13.87868,18.878679 15.292893,20.292893 16,21 16.707107,20.292893 18.12132,18.878679 17.414214,18.171573 z"
               id="path4326"
               inkscape:connector-curvature="0" />
          </g>
        </g>
        <g
           transform="translate(0,9)"
           id="g4228"
           style="fill:#26d939;fill-opacity:1">
          <g
             id="g4230"
             style="fill:#26d939;fill-opacity:1">
            <path
               style="fill:#26d939;fill-opacity:1;stroke:none"
               d="M 11.414214,8.1715726 10,9.585786 8.5857864,8.1715726 7.8786797,8.8786794 9.2928932,10.292893 10,11 10.707107,10.292893 12.12132,8.8786794 11.414214,8.1715726 z"
               id="path4232"
               inkscape:connector-curvature="0" />
            <path
               inkscape:connector-curvature="0"
               id="path4234"
               d="M 17.414214,8.1715726 16,9.585786 14.585786,8.1715726 13.87868,8.8786794 15.292893,10.292893 16,11 16.707107,10.292893 18.12132,8.8786794 17.414214,8.1715726 z"
               style="fill:#26d939;fill-opacity:1;stroke:none" />
          </g>
          <g
             transform="translate(0,5)"
             id="g4236"
             style="fill:#26d939;fill-opacity:1">
            <path
               inkscape:connector-curvature="0"
               id="path4238"
               d="M 11.414214,8.1715726 10,9.585786 8.5857864,8.1715726 7.8786797,8.8786794 9.2928932,10.292893 10,11 10.707107,10.292893 12.12132,8.8786794 11.414214,8.1715726 z"
               style="fill:#26d939;fill-opacity:1;stroke:none" />
            <path
               style="fill:#26d939;fill-opacity:1;stroke:none"
               d="M 17.414214,8.1715726 16,9.585786 14.585786,8.1715726 13.87868,8.8786794 15.292893,10.292893 16,11 16.707107,10.292893 18.12132,8.8786794 17.414214,8.1715726 z"
               id="path4240"
               inkscape:connector-curvature="0" />
          </g>
        </g>
        <g
           transform="translate(0,-1)"
           id="g4242"
           style="fill:#26d939;fill-opacity:1">
          <g
             id="g4244"
             style="fill:#26d939;fill-opacity:1">
            <path
               inkscape:connector-curvature="0"
               id="path4246"
               d="M 11.414214,8.1715726 10,9.585786 8.5857864,8.1715726 7.8786797,8.8786794 9.2928932,10.292893 10,11 10.707107,10.292893 12.12132,8.8786794 11.414214,8.1715726 z"
               style="fill:#26d939;fill-opacity:1;stroke:none" />
            <path
               style="fill:#26d939;fill-opacity:1;stroke:none"
               d="M 17.414214,8.1715726 16,9.585786 14.585786,8.1715726 13.87868,8.8786794 15.292893,10.292893 16,11 16.707107,10.292893 18.12132,8.8786794 17.414214,8.1715726 z"
               id="path4248"
               inkscape:connector-curvature="0" />
          </g>
          <g
             id="g4250"
             transform="translate(0,5)"
             style="fill:#26d939;fill-opacity:1">
            <path
               style="fill:#26d939;fill-opacity:1;stroke:none"
               d="M 11.414214,8.1715726 10,9.585786 8.5857864,8.1715726 7.8786797,8.8786794 9.2928932,10.292893 10,11 10.707107,10.292893 12.12132,8.8786794 11.414214,8.1715726 z"
               id="path4252"
               inkscape:connector-curvature="0" />
            <path
               inkscape:connector-curvature="0"
               id="path4254"
               d="M 17.414214,8.1715726 16,9.585786 14.585786,8.1715726 13.87868,8.8786794 15.292893,10.292893 16,11 16.707107,10.292893 18.12132,8.8786794 17.414214,8.1715726 z"
               style="fill:#26d939;fill-opacity:1;stroke:none" />
          </g>
        </g>
      </g>
      <g
         id="g4256"
         transform="translate(2.292893,-2)"
         style="fill:#26d939;fill-opacity:1">
        <g
           transform="translate(0,19)"
           id="g4258"
           style="fill:#26d939;fill-opacity:1">
          <g
             id="g4260"
             style="fill:#26d939;fill-opacity:1">
            <path
               style="fill:#26d939;fill-opacity:1;stroke:none"
               d="M 11.414214,8.1715726 10,9.585786 8.5857864,8.1715726 7.8786797,8.8786794 9.2928932,10.292893 10,11 10.707107,10.292893 12.12132,8.8786794 11.414214,8.1715726 z"
               id="path4262"
               inkscape:connector-curvature="0" />
            <path
               inkscape:connector-curvature="0"
               id="path4264"
               d="M 17.414214,8.1715726 16,9.585786 14.585786,8.1715726 13.87868,8.8786794 15.292893,10.292893 16,11 16.707107,10.292893 18.12132,8.8786794 17.414214,8.1715726 z"
               style="fill:#26d939;fill-opacity:1;stroke:none" />
            <path
               inkscape:connector-curvature="0"
               id="path4300"
               d="M 6.121321,8.1715726 4.707107,9.585786 3.2928934,8.1715726 2.5857867,8.8786794 4.0000002,10.292893 4.707107,11 5.414214,10.292893 6.828427,8.8786794 6.121321,8.1715726 z"
               style="fill:#26d939;fill-opacity:1;stroke:none" />
            <path
               inkscape:connector-curvature="0"
               id="path4328"
               d="M 11.414214,18.171573 10,19.585786 8.5857864,18.171573 7.8786797,18.878679 9.2928932,20.292893 10,21 10.707107,20.292893 12.12132,18.878679 11.414214,18.171573 z"
               style="fill:#26d939;fill-opacity:1;stroke:none" />
            <path
               style="fill:#26d939;fill-opacity:1;stroke:none"
               d="M 17.414214,18.171573 16,19.585786 14.585786,18.171573 13.87868,18.878679 15.292893,20.292893 16,21 16.707107,20.292893 18.12132,18.878679 17.414214,18.171573 z"
               id="path4330"
               inkscape:connector-curvature="0" />
            <path
               style="fill:#26d939;fill-opacity:1;stroke:none"
               d="M 6.121321,18.171573 4.707107,19.585786 3.2928934,18.171573 2.5857867,18.878679 4.0000002,20.292893 4.707107,21 5.414214,20.292893 6.828427,18.878679 6.121321,18.171573 z"
               id="path4332"
               inkscape:connector-curvature="0" />
          </g>
          <g
             transform="translate(0,5)"
             id="g4266"
             style="fill:#26d939;fill-opacity:1">
            <path
               inkscape:connector-curvature="0"
               id="path4268"
               d="M 11.414214,8.1715726 10,9.585786 8.5857864,8.1715726 7.8786797,8.8786794 9.2928932,10.292893 10,11 10.707107,10.292893 12.12132,8.8786794 11.414214,8.1715726 z"
               style="fill:#26d939;fill-opacity:1;stroke:none" />
            <path
               style="fill:#26d939;fill-opacity:1;stroke:none"
               d="M 17.414214,8.1715726 16,9.585786 14.585786,8.1715726 13.87868,8.8786794 15.292893,10.292893 16,11 16.707107,10.292893 18.12132,8.8786794 17.414214,8.1715726 z"
               id="path4270"
               inkscape:connector-curvature="0" />
            <path
               style="fill:#26d939;fill-opacity:1;stroke:none"
               d="M 6.121321,8.1715726 4.707107,9.585786 3.2928934,8.1715726 2.5857867,8.8786794 4.0000002,10.292893 4.707107,11 5.414214,10.292893 6.828427,8.8786794 6.121321,8.1715726 z"
               id="path4302"
               inkscape:connector-curvature="0" />
            <path
               style="fill:#26d939;fill-opacity:1;stroke:none"
               d="M 11.414214,18.171573 10,19.585786 8.5857864,18.171573 7.8786797,18.878679 9.2928932,20.292893 10,21 10.707107,20.292893 12.12132,18.878679 11.414214,18.171573 z"
               id="path4334"
               inkscape:connector-curvature="0" />
            <path
               inkscape:connector-curvature="0"
               id="path4336"
               d="M 17.414214,18.171573 16,19.585786 14.585786,18.171573 13.87868,18.878679 15.292893,20.292893 16,21 16.707107,20.292893 18.12132,18.878679 17.414214,18.171573 z"
               style="fill:#26d939;fill-opacity:1;stroke:none" />
            <path
               inkscape:connector-curvature="0"
               id="path4338"
               d="M 6.121321,18.171573 4.707107,19.585786 3.2928934,18.171573 2.5857867,18.878679 4.0000002,20.292893 4.707107,21 5.414214,20.292893 6.828427,18.878679 6.121321,18.171573 z"
               style="fill:#26d939;fill-opacity:1;stroke:none" />
          </g>
        </g>
        <g
           id="g4272"
           transform="translate(0,9)"
           style="fill:#26d939;fill-opacity:1">
          <g
             id="g4274"
             style="fill:#26d939;fill-opacity:1">
            <path
               inkscape:connector-curvature="0"
               id="path4276"
               d="M 11.414214,8.1715726 10,9.585786 8.5857864,8.1715726 7.8786797,8.8786794 9.2928932,10.292893 10,11 10.707107,10.292893 12.12132,8.8786794 11.414214,8.1715726 z"
               style="fill:#26d939;fill-opacity:1;stroke:none" />
            <path
               style="fill:#26d939;fill-opacity:1;stroke:none"
               d="M 17.414214,8.1715726 16,9.585786 14.585786,8.1715726 13.87868,8.8786794 15.292893,10.292893 16,11 16.707107,10.292893 18.12132,8.8786794 17.414214,8.1715726 z"
               id="path4278"
               inkscape:connector-curvature="0" />
            <path
               style="fill:#26d939;fill-opacity:1;stroke:none"
               d="M 6.121321,8.1715726 4.707107,9.585786 3.2928934,8.1715726 2.5857867,8.8786794 4.0000002,10.292893 4.707107,11 5.414214,10.292893 6.828427,8.8786794 6.121321,8.1715726 z"
               id="path4304"
               inkscape:connector-curvature="0" />
          </g>
          <g
             id="g4280"
             transform="translate(0,5)"
             style="fill:#26d939;fill-opacity:1">
            <path
               style="fill:#26d939;fill-opacity:1;stroke:none"
               d="M 11.414214,8.1715726 10,9.585786 8.5857864,8.1715726 7.8786797,8.8786794 9.2928932,10.292893 10,11 10.707107,10.292893 12.12132,8.8786794 11.414214,8.1715726 z"
               id="path4282"
               inkscape:connector-curvature="0" />
            <path
               inkscape:connector-curvature="0"
               id="path4284"
               d="M 17.414214,8.1715726 16,9.585786 14.585786,8.1715726 13.87868,8.8786794 15.292893,10.292893 16,11 16.707107,10.292893 18.12132,8.8786794 17.414214,8.1715726 z"
               style="fill:#26d939;fill-opacity:1;stroke:none" />
            <path
               inkscape:connector-curvature="0"
               id="path4306"
               d="M 6.121321,8.1715726 4.707107,9.585786 3.2928934,8.1715726 2.5857867,8.8786794 4.0000002,10.292893 4.707107,11 5.414214,10.292893 6.828427,8.8786794 6.121321,8.1715726 z"
               style="fill:#26d939;fill-opacity:1;stroke:none" />
          </g>
        </g>
        <g
           id="g4286"
           transform="translate(0,-1)"
           style="fill:#26d939;fill-opacity:1">
          <g
             id="g4288"
             style="fill:#26d939;fill-opacity:1">
            <path
               style="fill:#26d939;fill-opacity:1;stroke:none"
               d="M 11.414214,8.1715726 10,9.585786 8.5857864,8.1715726 7.8786797,8.8786794 9.2928932,10.292893 10,11 10.707107,10.292893 12.12132,8.8786794 11.414214,8.1715726 z"
               id="path4290"
               inkscape:connector-curvature="0" />
            <path
               inkscape:connector-curvature="0"
               id="path4292"
               d="M 17.414214,8.1715726 16,9.585786 14.585786,8.1715726 13.87868,8.8786794 15.292893,10.292893 16,11 16.707107,10.292893 18.12132,8.8786794 17.414214,8.1715726 z"
               style="fill:#26d939;fill-opacity:1;stroke:none" />
            <path
               inkscape:connector-curvature="0"
               id="path4308"
               d="M 6.121321,8.1715726 4.707107,9.585786 3.2928934,8.1715726 2.5857867,8.8786794 4.0000002,10.292893 4.707107,11 5.414214,10.292893 6.828427,8.8786794 6.121321,8.1715726 z"
               style="fill:#26d939;fill-opacity:1;stroke:none" />
          </g>
          <g
             transform="translate(0,5)"
             id="g4294"
             style="fill:#26d939;fill-opacity:1">
            <path
               inkscape:connector-curvature="0"
               id="path4296"
               d="M 11.414214,8.1715726 10,9.585786 8.5857864,8.1715726 7.8786797,8.8786794 9.2928932,10.292893 10,11 10.707107,10.292893 12.12132,8.8786794 11.414214,8.1715726 z"
               style="fill:#26d939;fill-opacity:1;stroke:none" />
            <path
               style="fill:#26d939;fill-opacity:1;stroke:none"
               d="M 17.414214,8.1715726 16,9.585786 14.585786,8.1715726 13.87868,8.8786794 15.292893,10.292893 16,11 16.707107,10.292893 18.12132,8.8786794 17.414214,8.1715726 z"
               id="path4298"
               inkscape:connector-curvature="0" />
            <path
               style="fill:#26d939;fill-opacity:1;stroke:none"
               d="M 6.121321,8.1715726 4.707107,9.585786 3.2928934,8.1715726 2.5857867,8.8786794 4.0000002,10.292893 4.707107,11 5.414214,10.292893 6.828427,8.8786794 6.121321,8.1715726 z"
               id="path4310"
               inkscape:connector-curvature="0" />
          </g>
        </g>
      </g>
    </g>
    <g
       transform="matrix(0,-1,1,0,27,21)"
       id="g3904" />
    <g
       id="g3910"
       transform="matrix(0,-1,1,0,1,21)" />
    <g
       transform="matrix(0,-1,1,0,27,34)"
       id="g4024" />
    <g
       id="g4055"
       transform="matrix(0,-1,1,0,1,47)" />
    <g
       transform="matrix(0,-1,1,0,27,47)"
       id="g4061" />
    <path
       style="fill:#266ed9;fill-opacity:1;stroke:none"
       d="M 25 8 C 24.446 8 24 8.669 24 9.5 C 24 10.331 24.446 11 25 11 L 37 11 L 37 31 C 37 31.554 37.669 32 38.5 32 C 39.331 32 40 31.554 40 31 L 40 9.5 L 40 9 C 40 8.7956968 39.875287 8.626726 39.71875 8.46875 C 39.713468 8.4634195 39.72418 8.4427578 39.71875 8.4375 C 39.675812 8.3730925 39.612688 8.3330839 39.5625 8.28125 C 39.554709 8.276056 39.539211 8.2863286 39.53125 8.28125 C 39.373274 8.124713 39.204303 8 39 8 L 38.5 8 L 25 8 z "
       id="rect3188" />
    <path
       id="path3193"
       d="m 23,40 c 0.554,0 1,-0.669 1,-1.5 C 24,37.669 23.554,37 23,37 L 11,37 11,17 C 11,16.446 10.331,16 9.5,16 8.669,16 8,16.446 8,17 L 8,38.5 8,39 c 0,0.204303 0.124713,0.373274 0.28125,0.53125 0.0053,0.0053 -0.0054,0.02599 0,0.03125 0.04294,0.06441 0.106062,0.104416 0.15625,0.15625 0.0078,0.0052 0.02329,-0.0051 0.03125,0 C 8.626726,39.875287 8.795697,40 9,40 l 0.5,0 13.5,0 z"
       style="fill:#da6e26;fill-opacity:1;stroke:none"
       inkscape:connector-curvature="0" />
  </g>
</svg>
