<?xml version="1.0" encoding="UTF-8" standalone="no"?>
<svg
   xmlns:dc="http://purl.org/dc/elements/1.1/"
   xmlns:cc="http://creativecommons.org/ns#"
   xmlns:rdf="http://www.w3.org/1999/02/22-rdf-syntax-ns#"
   xmlns:svg="http://www.w3.org/2000/svg"
   xmlns="http://www.w3.org/2000/svg"
   xmlns:sodipodi="http://sodipodi.sourceforge.net/DTD/sodipodi-0.dtd"
   xmlns:inkscape="http://www.inkscape.org/namespaces/inkscape"
   width="96"
   version="1.0"
   height="96"
   id="svg2"
   inkscape:version="0.91 r13725"
   sodipodi:docname="sunvox.svg">
  <metadata
     id="metadata28">
    <rdf:RDF>
      <cc:Work
         rdf:about="">
        <dc:format>image/svg+xml</dc:format>
        <dc:type
           rdf:resource="http://purl.org/dc/dcmitype/StillImage" />
        <dc:title></dc:title>
      </cc:Work>
    </rdf:RDF>
  </metadata>
  <sodipodi:namedview
     pagecolor="#ffffff"
     bordercolor="#666666"
     borderopacity="1"
     objecttolerance="10"
     gridtolerance="10"
     guidetolerance="10"
     inkscape:pageopacity="0"
     inkscape:pageshadow="2"
     inkscape:window-width="640"
     inkscape:window-height="480"
     id="namedview26"
     showgrid="false"
     inkscape:zoom="2.8284271"
     inkscape:cx="92.753103"
     inkscape:cy="49.16028"
     inkscape:current-layer="svg2" />
  <defs
     id="defs2410">
    <clipPath
       id="clipPath3613">
      <rect
         width="84"
         x="6"
         y="6"
         rx="6"
         height="84"
         ry="6"
         style="fill:#fff;stroke:none"
         id="rect3615" />
    </clipPath>
    <filter
       style="color-interpolation-filters:sRGB"
       id="filter3174">
      <feGaussianBlur
         stdDeviation="1.71"
         id="feGaussianBlur3176" />
    </filter>
    <linearGradient
       gradientTransform="scale(1.0058652,0.994169)"
       id="ButtonShadow"
       y1="92.539597"
       x1="45.447727"
       y2="7.0165396"
       x2="45.447727"
       gradientUnits="userSpaceOnUse">
      <stop
         offset="0"
         id="stop3750" />
      <stop
         offset="1"
         style="stop-opacity:.588"
         id="stop3752" />
    </linearGradient>
  </defs>
  <g
     style="display:none"
     id="layer2">
    <rect
       width="86"
       x="5"
       y="7"
       rx="6"
       height="85"
       ry="6"
       style="opacity:.9;fill:url(#ButtonShadow);filter:url(#filter3174);stroke:none"
       id="rect3745" />
  </g>
  <rect
     id="rect2419"
     style="text-align:start;fill:#484537;stroke:none"
     ry="0.056761779"
     height="84"
     rx="6"
     y="6"
     x="6"
     width="84" />
  <g
     id="g3353"
     transform="matrix(2.7987092,0,0,2.7987092,-109.67643,-59.01505)"
     style="fill:#ffdd55">
    <path
       inkscape:connector-curvature="0"
       id="path3340"
       d="m 53.847457,39.88983 0,-0.788136 0.838983,0 0.838983,0 0,-0.864406 0,-0.864407 -0.838983,0 -0.838983,0 0,-0.788136 0,-0.788135 2.466101,0 2.466102,0 0,0.788135 0,0.788136 -0.838983,0 -0.838983,0 0,0.864407 0,0.864406 0.838983,0 0.838983,0 0,0.788136 0,0.788136 -2.466102,0 -2.466101,0 0,-0.788136 z"
       style="fill:#ffdd55;fill-opacity:1" />
    <path
       inkscape:connector-curvature="0"
       id="path3342"
       d="m 50.542372,38.237288 0,-5.79661 5.79661,0 5.79661,0 0,5.79661 0,5.79661 -5.79661,0 -5.79661,0 0,-5.79661 z m 10.016949,0 0,-4.220339 -4.220339,0 -4.220339,0 0,4.220339 0,4.220339 4.220339,0 4.220339,0 0,-4.220339 z"
       style="fill:#ffdd55;fill-opacity:1" />
    <path
       inkscape:connector-curvature="0"
       id="path3344"
       d="m 43.830508,41.567796 0,-0.788135 0.838983,0 0.838983,0 0,-0.838983 0,-0.838984 1.627118,0 1.627119,0 0,0.786877 0,0.786876 -0.826271,0.01397 -0.826271,0.01397 -0.01397,0.826272 -0.01397,0.826271 -1.625859,0 -1.625859,0 0,-0.788136 z"
       style="fill:#ffdd55;fill-opacity:1" />
    <path
       inkscape:connector-curvature="0"
       id="path3346"
       d="m 45.508474,36.533898 0,-0.838983 -0.838983,0 -0.838983,0 0,-0.788136 0,-0.788135 1.625859,0 1.625859,0 0.01397,0.826271 0.01397,0.826271 0.826271,0.01397 0.826271,0.01397 0,0.786876 0,0.786876 -1.627119,0 -1.627118,0 0,-0.838983 z"
       style="fill:#ffdd55;fill-opacity:1" />
    <path
       inkscape:connector-curvature="0"
       id="path3348"
       d="m 63.915253,36.586005 0,-0.786876 0.826271,-0.01397 0.826272,-0.01397 0.01397,-0.826271 0.01397,-0.826271 1.62586,0 1.625859,0 0,0.788135 0,0.788136 -0.838983,0 -0.838983,0 0,0.838983 0,0.838983 -1.627119,0 -1.627119,0 0,-0.786876 z"
       style="fill:#ffdd55;fill-opacity:1" />
    <path
       inkscape:connector-curvature="0"
       id="path3350"
       d="m 65.593219,41.547813 c 0,-0.689993 -0.01176,-0.812631 -0.08043,-0.838983 -0.04424,-0.01698 -0.421778,-0.03086 -0.838983,-0.03086 l -0.758553,0 0,-0.788136 0,-0.788136 1.627119,0 1.627119,0 0,0.838984 0,0.838983 0.838983,0 0.838983,0 0,0.788135 0,0.788136 -1.627119,0 -1.627119,0 0,-0.808119 z"
       style="fill:#ffdd55;fill-opacity:1" />
  </g>
</svg>
