<?xml version="1.0" encoding="UTF-8" standalone="no"?>
<!-- Created with Inkscape (http://www.inkscape.org/) -->

<svg
   xmlns:dc="http://purl.org/dc/elements/1.1/"
   xmlns:cc="http://creativecommons.org/ns#"
   xmlns:rdf="http://www.w3.org/1999/02/22-rdf-syntax-ns#"
   xmlns:svg="http://www.w3.org/2000/svg"
   xmlns="http://www.w3.org/2000/svg"
   xmlns:xlink="http://www.w3.org/1999/xlink"
   xmlns:sodipodi="http://sodipodi.sourceforge.net/DTD/sodipodi-0.dtd"
   xmlns:inkscape="http://www.inkscape.org/namespaces/inkscape"
   width="256"
   height="256"
   id="svg2"
   version="1.1"
   inkscape:version="0.92.1 r"
   sodipodi:docname="utilities-terminal.svg">
  <defs
     id="defs4">
    <radialGradient
       inkscape:collect="always"
       xlink:href="#linearGradient4169"
       id="radialGradient4295"
       cx="44.192783"
       cy="25.761047"
       fx="44.192783"
       fy="25.761047"
       r="21.006716"
       gradientTransform="translate(0,-4.7400131e-6)"
       gradientUnits="userSpaceOnUse" />
    <linearGradient
       id="linearGradient4169">
      <stop
         style="stop-color:#4a4a4a;stop-opacity:1;"
         offset="0"
         id="stop4175" />
      <stop
         id="stop4173"
         offset="1"
         style="stop-color:#242424;stop-opacity:1;" />
    </linearGradient>
  </defs>
  <sodipodi:namedview
     id="base"
     pagecolor="#ffffff"
     bordercolor="#666666"
     borderopacity="1.0"
     inkscape:pageopacity="0.0"
     inkscape:pageshadow="2"
     inkscape:zoom="1.4142136"
     inkscape:cx="184.01656"
     inkscape:cy="203.44715"
     inkscape:document-units="px"
     inkscape:current-layer="layer1"
     showgrid="true"
     showguides="false"
     inkscape:guide-bbox="true"
     inkscape:window-width="1366"
     inkscape:window-height="698"
     inkscape:window-x="-4"
     inkscape:window-y="-5"
     inkscape:window-maximized="1"
     inkscape:snap-global="true">
    <inkscape:grid
       type="xygrid"
       id="grid2993"
       empspacing="5"
       visible="true"
       enabled="true"
       snapvisiblegridlinesonly="true" />
    <sodipodi:guide
       orientation="1,0"
       position="10,210"
       id="guide2995"
       inkscape:locked="false" />
    <sodipodi:guide
       orientation="0,1"
       position="135,245"
       id="guide2997"
       inkscape:locked="false" />
    <sodipodi:guide
       orientation="1,0"
       position="240,-10"
       id="guide2999"
       inkscape:locked="false" />
    <sodipodi:guide
       orientation="0,1"
       position="215,10"
       id="guide3001"
       inkscape:locked="false" />
    <sodipodi:guide
       orientation="0,1"
       position="185,110"
       id="guide4875"
       inkscape:locked="false" />
    <sodipodi:guide
       orientation="1,0"
       position="125,85"
       id="guide4877"
       inkscape:locked="false" />
    <sodipodi:guide
       orientation="1,0"
       position="30,170"
       id="guide4907"
       inkscape:locked="false" />
    <sodipodi:guide
       orientation="1,0"
       position="220,145"
       id="guide4909"
       inkscape:locked="false" />
    <sodipodi:guide
       orientation="0,1"
       position="260,35"
       id="guide4911"
       inkscape:locked="false" />
    <sodipodi:guide
       orientation="0,1"
       position="235,185"
       id="guide4913"
       inkscape:locked="false" />
    <sodipodi:guide
       orientation="0,1"
       position="145,150"
       id="guide3994"
       inkscape:locked="false" />
    <sodipodi:guide
       orientation="0,1"
       position="140,40"
       id="guide3996"
       inkscape:locked="false" />
    <sodipodi:guide
       orientation="0,1"
       position="180,130"
       id="guide3068"
       inkscape:locked="false" />
    <sodipodi:guide
       orientation="0,1"
       position="170,65"
       id="guide3070"
       inkscape:locked="false" />
  </sodipodi:namedview>
  <metadata
     id="metadata7">
    <rdf:RDF>
      <cc:Work
         rdf:about="">
        <dc:format>image/svg+xml</dc:format>
        <dc:type
           rdf:resource="http://purl.org/dc/dcmitype/StillImage" />
        <dc:title />
      </cc:Work>
    </rdf:RDF>
  </metadata>
  <g
     inkscape:label="Layer 1"
     inkscape:groupmode="layer"
     id="layer1"
     transform="translate(0,-796.36218)">
    <g
       transform="translate(278.75299,917.43962)"
       id="g4231"
       style="fill:url(#radialGradient4295);fill-opacity:1" />
    <g
       id="g165"
       transform="translate(3,-2.00001)">
      <path
         sodipodi:nodetypes="ccccccccc"
         inkscape:connector-curvature="0"
         id="rect4869-5"
         d="m 10,852.36218 h 40 l 12,29.5 126,1.09259 12,-30.59259 h 40 V 1035.3622 H 10 Z"
         style="fill:#4d4d4d;fill-opacity:1;stroke:none" />
      <path
         inkscape:connector-curvature="0"
         id="path3140"
         style="font-style:normal;font-weight:bold;font-size:45px;line-height:125%;font-family:Sans;-inkscape-font-specification:'Sans Bold';text-align:center;letter-spacing:0px;word-spacing:0px;text-anchor:middle;fill:#000000;fill-opacity:0.18039216;stroke:none"
         d="m 95.56898,913.9204 v 7.31236 c -2.117835,1.59835 -4.075794,2.74714 -5.873861,3.4464 -1.778186,0.67931 -3.626253,1.01895 -5.544213,1.01894 -2.137798,1e-5 -4.635186,-0.57939 -7.492171,-1.7382 -0.279733,-0.11988 -0.499504,-0.20975 -0.659312,-0.26971 -0.139878,-0.0599 -0.359648,-0.14982 -0.65931,-0.26971 -3.096786,-1.21872 -5.584183,-1.82807 -7.462203,-1.8281 -1.758177,3e-5 -3.496359,0.38961 -5.214551,1.16879 -1.718214,0.75922 -3.556292,1.96795 -5.514238,3.6262 v -7.31236 c 2.137758,-1.59831 4.09571,-2.73711 5.873863,-3.41642 1.778128,-0.69925 3.626195,-1.04889 5.544206,-1.0489 2.137747,10e-6 4.635133,0.57941 7.492172,1.73818 0.29966,0.11988 0.519431,0.20981 0.65931,0.26971 0.139828,0.06 0.359597,0.14986 0.659311,0.26972 3.096734,1.21875 5.584133,1.82811 7.462203,1.82809 1.718168,2e-5 3.416392,-0.36959 5.094681,-1.10884 1.698174,-0.75918 3.576221,-1.9879 5.634113,-3.68615" />
      <rect
         ry="0"
         rx="0"
         y="817.36218"
         x="10"
         height="5.0000024"
         width="230"
         id="rect3940"
         style="opacity:0.65966384;fill:#ffffff;fill-opacity:0.67942583;stroke:none" />
      <g
         style="fill:#999999;fill-opacity:1"
         id="g3908">
        <path
           style="fill:#999999;fill-opacity:1;stroke:none"
           d="M 10,817.36218 H 240 V 1032.3622 H 10 Z"
           id="rect4971-1"
           inkscape:connector-curvature="0"
           sodipodi:nodetypes="ccccc" />
        <rect
           style="fill:#999999;fill-opacity:1;stroke:none"
           id="rect4971"
           width="220"
           height="200"
           x="15"
           y="827.36218"
           ry="0"
           rx="0.35188293" />
      </g>
      <path
         d="m 98.043854,912.50619 v 7.31236 c -2.117835,1.59835 -4.075794,2.74714 -5.873861,3.4464 -1.778186,0.67931 -3.626253,1.01895 -5.544213,1.01894 -2.137798,10e-6 -4.635186,-0.57939 -7.492171,-1.7382 -0.279733,-0.11988 -0.499504,-0.20975 -0.659312,-0.26971 -0.139878,-0.0599 -0.359648,-0.14982 -0.65931,-0.26971 -3.096786,-1.21872 -5.584183,-1.82807 -7.462203,-1.8281 -1.758177,3e-5 -3.496359,0.38961 -5.214551,1.16879 -1.718214,0.75922 -3.556292,1.96795 -5.514238,3.6262 v -7.31236 c 2.137758,-1.59831 4.09571,-2.73711 5.873863,-3.41642 1.778128,-0.69925 3.626195,-1.04889 5.544206,-1.0489 2.137747,10e-6 4.635133,0.57941 7.492172,1.73818 0.29966,0.11988 0.519431,0.20981 0.65931,0.26971 0.139828,0.06 0.359597,0.14986 0.659311,0.26972 3.096734,1.21875 5.584133,1.82811 7.462203,1.82809 1.718168,2e-5 3.416392,-0.36959 5.094681,-1.10884 1.698174,-0.75918 3.576221,-1.9879 5.634113,-3.68615"
         style="font-style:normal;font-weight:bold;font-size:45px;line-height:125%;font-family:Sans;-inkscape-font-specification:'Sans Bold';text-align:center;letter-spacing:0px;word-spacing:0px;text-anchor:middle;fill:#000000;fill-opacity:1;stroke:none"
         id="path3955"
         inkscape:connector-curvature="0" />
      <path
         d="m 128.37215,947.00014 h -4.85493 l -0.03,-9.02057 c -2.49741,-0.0998 -4.91487,-0.3796 -7.25242,-0.83912 -2.33757,-0.45951 -4.61519,-1.09884 -6.83286,-1.91799 v -7.8518 c 2.29759,1.17878 4.61516,2.08783 6.95273,2.72714 2.35752,0.61937 4.74503,0.96901 7.16251,1.04892 v -9.32027 l -0.98895,-0.17982 c -4.77503,-0.8391 -8.17148,-2.15771 -10.18936,-3.95586 -1.99792,-1.7981 -2.99688,-4.38539 -2.99686,-7.76188 -2e-5,-3.57623 1.21872,-6.36333 3.65617,-8.36126 2.45742,-2.01786 5.95377,-3.11671 10.48904,-3.29657 l 0.03,-6.92276 h 4.85493 v 6.80289 c 1.99789,0.15988 3.9958,0.40961 5.99375,0.74922 1.99788,0.33968 4.00577,0.77923 6.0237,1.31863 v 7.61204 c -1.99795,-0.83909 -3.99586,-1.48841 -5.99374,-1.94796 -1.99794,-0.47947 -4.00583,-0.76917 -6.02371,-0.8691 v 8.60101 l 0.95901,0.17982 c 5.07466,0.79918 8.63094,2.13779 10.66884,4.01579 2.05782,1.85808 3.08674,4.61521 3.08678,8.27137 -4e-5,3.67617 -1.21876,6.50321 -3.65618,8.48113 -2.43749,1.95796 -6.12362,3.07679 -11.05845,3.3565 v 9.0805 m -4.85493,-34.07439 v -7.82182 c -1.41853,0.0799 -2.55734,0.46954 -3.41642,1.16877 -0.83913,0.67932 -1.2587,1.54842 -1.25868,2.60728 -2e-5,1.1788 0.38957,2.10782 1.16877,2.78709 0.77917,0.65934 1.94795,1.07889 3.50633,1.25868 m 4.85493,9.7698 v 8.33129 c 1.73817,-0.02 3.03681,-0.35962 3.89594,-1.01893 0.87905,-0.65931 1.31858,-1.64827 1.31862,-2.96691 -4e-5,-1.35856 -0.39961,-2.36751 -1.19875,-3.02684 -0.7992,-0.67927 -2.13779,-1.11881 -4.01581,-1.31861"
         style="font-style:normal;font-weight:bold;font-size:45px;line-height:125%;font-family:Sans;-inkscape-font-specification:'Sans Bold';text-align:center;letter-spacing:0px;word-spacing:0px;text-anchor:middle;fill:#000000;fill-opacity:1;stroke:none"
         id="path3957"
         inkscape:connector-curvature="0" />
      <path
         d="m 199.2481,946.7604 v 5.69405 h -30.68793 v -5.69405 h 30.68793"
         style="font-style:normal;font-weight:bold;font-size:45px;line-height:125%;font-family:Sans;-inkscape-font-specification:'Sans Bold';text-align:center;letter-spacing:0px;word-spacing:0px;text-anchor:middle;fill:#000000;fill-opacity:1;stroke:none"
         id="path3959"
         inkscape:connector-curvature="0" />
      <path
         sodipodi:nodetypes="cccccc"
         inkscape:connector-curvature="0"
         id="path4156"
         d="m 119,910.10189 0.17994,0.53396 c 0.686,1.27407 1.46264,1.93096 4.33712,2.45281 l -0.0168,-0.15545 c -3.39853,-0.53739 -3.94362,-1.50469 -4.50032,-2.83132 z"
         style="color:#000000;font-style:normal;font-variant:normal;font-weight:normal;font-stretch:normal;font-size:medium;line-height:normal;font-family:Sans;-inkscape-font-specification:Sans;text-indent:0;text-align:start;text-decoration:none;text-decoration-line:none;letter-spacing:normal;word-spacing:normal;text-transform:none;writing-mode:lr-tb;direction:ltr;baseline-shift:baseline;text-anchor:start;display:inline;overflow:visible;visibility:visible;fill:#000000;fill-opacity:1;fill-rule:nonzero;stroke:none;stroke-width:0.2;marker:none;enable-background:accumulate" />
      <path
         sodipodi:nodetypes="cccccc"
         inkscape:connector-curvature="0"
         id="path4164"
         d="m 131.81641,930.29577 c -1.19515,0.64063 -2.32354,0.68154 -3.44141,0.72266 l -0.006,0.12121 c 1.11703,-0.0411 2.08488,-0.0675 3.32193,-0.73058 l 0.0469,-0.0312 z"
         style="color:#000000;font-style:normal;font-variant:normal;font-weight:normal;font-stretch:normal;font-size:medium;line-height:normal;font-family:Sans;-inkscape-font-specification:Sans;text-indent:0;text-align:start;text-decoration:none;text-decoration-line:none;letter-spacing:normal;word-spacing:normal;text-transform:none;writing-mode:lr-tb;direction:ltr;baseline-shift:baseline;text-anchor:start;display:inline;overflow:visible;visibility:visible;fill:#000000;fill-opacity:1;stroke:none;stroke-width:0.2;marker:none;enable-background:accumulate" />
      <rect
         ry="0"
         rx="0"
         transform="translate(0,796.36218)"
         y="21"
         x="10"
         height="3"
         width="230"
         id="rect3941"
         style="opacity:1;fill:#b3b3b3;fill-opacity:1;stroke:none" />
    </g>
  </g>
</svg>
