<?xml version="1.0" encoding="UTF-8" standalone="no"?>
<!-- Created with Inkscape (http://www.inkscape.org/) -->

<svg
   xmlns:dc="http://purl.org/dc/elements/1.1/"
   xmlns:cc="http://creativecommons.org/ns#"
   xmlns:rdf="http://www.w3.org/1999/02/22-rdf-syntax-ns#"
   xmlns:svg="http://www.w3.org/2000/svg"
   xmlns="http://www.w3.org/2000/svg"
   xmlns:xlink="http://www.w3.org/1999/xlink"
   xmlns:sodipodi="http://sodipodi.sourceforge.net/DTD/sodipodi-0.dtd"
   xmlns:inkscape="http://www.inkscape.org/namespaces/inkscape"
   width="48px"
   height="48px"
   id="svg2985"
   version="1.1"
   inkscape:version="0.48.5 r10040"
   sodipodi:docname="viber.svg">
  <defs
     id="defs2987">
    <linearGradient
       id="linearGradient3832">
      <stop
         id="stop3834"
         offset="0"
         style="stop-color:#956fc7;stop-opacity:1;" />
      <stop
         id="stop3836"
         offset="1"
         style="stop-color:#5642aa;stop-opacity:1;" />
    </linearGradient>
    <linearGradient
       inkscape:collect="always"
       xlink:href="#linearGradient3839"
       id="linearGradient3141"
       gradientUnits="userSpaceOnUse"
       gradientTransform="matrix(1.1056167,0,0,1.1056167,-2.5415181,-2.5415184)"
       x1="-9.008502"
       y1="24.174231"
       x2="39.234192"
       y2="24.174231" />
    <linearGradient
       id="linearGradient3839">
      <stop
         style="stop-color:#85b5c3;stop-opacity:1;"
         offset="0"
         id="stop3841" />
      <stop
         style="stop-color:#155ae6;stop-opacity:1;"
         offset="1"
         id="stop3843" />
    </linearGradient>
    <linearGradient
       inkscape:collect="always"
       id="linearGradient3970">
      <stop
         style="stop-color:#ffffff;stop-opacity:1;"
         offset="0"
         id="stop3972" />
      <stop
         style="stop-color:#ffffff;stop-opacity:0;"
         offset="1"
         id="stop3974" />
    </linearGradient>
    <linearGradient
       inkscape:collect="always"
       xlink:href="#linearGradient3986"
       id="linearGradient3992"
       x1="18.625"
       y1="46.589149"
       x2="20.8125"
       y2="36.964149"
       gradientUnits="userSpaceOnUse" />
    <linearGradient
       inkscape:collect="always"
       id="linearGradient3986">
      <stop
         style="stop-color:#ffffff;stop-opacity:1;"
         offset="0"
         id="stop3988" />
      <stop
         style="stop-color:#ffffff;stop-opacity:0;"
         offset="1"
         id="stop3990" />
    </linearGradient>
    <linearGradient
       inkscape:collect="always"
       xlink:href="#linearGradient3970"
       id="linearGradient3857"
       gradientUnits="userSpaceOnUse"
       x1="25"
       y1="12"
       x2="25"
       y2="-1" />
  </defs>
  <sodipodi:namedview
     id="base"
     pagecolor="#ffffff"
     bordercolor="#666666"
     borderopacity="1.0"
     inkscape:pageopacity="0.0"
     inkscape:pageshadow="2"
     inkscape:zoom="4.9497475"
     inkscape:cx="-9.7784266"
     inkscape:cy="41.425028"
     inkscape:current-layer="layer1"
     showgrid="true"
     inkscape:grid-bbox="true"
     inkscape:document-units="px"
     showguides="true"
     inkscape:guide-bbox="true"
     inkscape:window-width="1366"
     inkscape:window-height="698"
     inkscape:window-x="-4"
     inkscape:window-y="-5"
     inkscape:window-maximized="1">
    <inkscape:grid
       type="xygrid"
       id="grid2993" />
    <sodipodi:guide
       orientation="1,0"
       position="3,38"
       id="guide2995" />
    <sodipodi:guide
       orientation="0,1"
       position="22,45"
       id="guide2997" />
    <sodipodi:guide
       orientation="1,0"
       position="45,31"
       id="guide2999" />
    <sodipodi:guide
       orientation="0,1"
       position="46,3"
       id="guide3001" />
  </sodipodi:namedview>
  <metadata
     id="metadata2990">
    <rdf:RDF>
      <cc:Work
         rdf:about="">
        <dc:format>image/svg+xml</dc:format>
        <dc:type
           rdf:resource="http://purl.org/dc/dcmitype/StillImage" />
        <dc:title />
      </cc:Work>
    </rdf:RDF>
  </metadata>
  <g
     id="layer1"
     inkscape:label="Layer 1"
     inkscape:groupmode="layer">
    <path
       style="fill:#6d26da;fill-opacity:1;stroke:none"
       d="M 5,4 C 3,4 3,4 3,6 l 0,25 c 0,2 0,2 2,2 l 5,0 0,12 8,-12 25,0 c 2,0 2,0 2,-2 L 45,6 C 45,4 45,4 43,4 z"
       id="rect3003"
       inkscape:connector-curvature="0"
       sodipodi:nodetypes="sssscccsssss" />
    <path
       inkscape:connector-curvature="0"
       id="path4341"
       style="text-indent:0;text-transform:none;block-progression:tb;color:#000000;fill:#b3b3b3;fill-opacity:1"
       d="m 24.96698,7.08007 c -0.48314,0 -0.88408,0.38589 -0.88867,0.85352 -0.0028,0.46975 0.39819,0.86478 0.88477,0.86719 2.0999,0.01577 3.8265,0.67944 5.2188,1.9883 1.3759,1.2967 2.0931,3.0932 2.1113,5.4375 v 0.002 c 0.005,0.46636 0.40622,0.85152 0.89062,0.85152 5.1e-5,0 0.0092,-0.0018 0.0098,-0.002 0.4855,-0.0045 0.88869,-0.3959 0.88477,-0.86524 v -0.002 c -0.0113,-1.3664 -0.23344,-2.6227 -0.668,-3.7284 -0.4398,-1.1171 -1.1083,-2.1056 -1.9805,-2.9277 -1.7225,-1.6199 -3.9228,-2.4567 -6.4551,-2.4746 h -0.0078 z m -9.0195,2.0215 c -0.3388,-0.05759 -0.7058,0.0054 -1.0723,0.18164 h -0.0293 l -0.04102,0.02344 c -0.67914,0.38604 -1.3158,0.90359 -1.9121,1.5527 l -0.04687,0.05078 V 10.957 c -0.41259,0.51439 -0.6853,1.0321 -0.74805,1.5508 -0.02002,0.0879 -0.01953,0.16714 -0.01953,0.25196 0,0.23596 0.03468,0.47576 0.10742,0.71094 l 0.01953,0.06641 0.04102,0.02344 c 0.23553,0.80809 0.77,2.0657 1.9395,4.1953 0.77892,1.4115 1.5748,2.5906 2.3652,3.584 0.41639,0.5221 0.88808,1.0657 1.4355,1.6133 0.0065,0.0065 0.02959,0.03008 0.05469,0.05273 0.0087,0.0087 0.02087,0.02673 0.05078,0.05664 l 0.05469,0.05469 h 0.0039 c 0.01927,0.01927 0.03227,0.03326 0.03516,0.03711 l 0.0098,0.01172 0.0098,0.0098 c 0.54744,0.54148 1.0874,1.016 1.6152,1.4297 0.99189,0.79051 2.1707,1.5927 3.582,2.373 2.132,1.1762 3.4013,1.7078 4.2051,1.9395 l 0.0293,0.03516 0.04883,0.01758 c 0.2277,0.07591 0.46464,0.11096 0.69922,0.10742 0.09514,0.0052 0.17939,-0.0015 0.25976,-0.01953 0.55048,-0.06436 1.0955,-0.325 1.6348,-0.77734 l 0.0059,-0.0078 0.0059,-0.0039 c 0.0083,-0.0083 0.0034,-0.0043 0.0078,-0.0098 0.0048,-0.0043 0.0069,-0.0093 0.01172,-0.01367 0.63825,-0.58251 1.1534,-1.2161 1.541,-1.8945 l 0.02539,-0.04297 v -0.04102 c 0.35599,-0.74129 0.21499,-1.4981 -0.36328,-1.9805 -0.01417,-0.01215 -0.29201,-0.2444 -0.63672,-0.52539 -0.35253,-0.28727 -0.77061,-0.62493 -1.0529,-0.83206 -0.53408,-0.39509 -1.3596,-0.90615 -1.8301,-1.168 h -0.002 c -0.90375,-0.50613 -1.8481,-0.21199 -2.2637,0.32617 L 25,23 c -0.29381,0.3702 -0.8809,0.33489 -0.89648,0.33398 -4.9414,-1.2713 -6.2699,-6.24 -6.2793,-6.2754 -8.81e-4,-0.01555 -0.0364,-0.60368 0.33398,-0.90234 l 0.9082,-0.72656 c 0.53945,-0.41319 0.84274,-1.3574 0.33398,-2.2637 -0.2654,-0.46852 -0.77867,-1.3002 -1.168,-1.8301 h -0.002 C 18.02168,11.05461 17.68505,10.63405 17.39835,10.28118 17.255,10.10475 17.12449,9.94326 17.02921,9.82806 16.98157,9.77045 16.94326,9.72392 16.91593,9.69134 16.90226,9.67505 16.89075,9.66359 16.88273,9.65423 16.87873,9.64953 16.87643,9.64643 16.87293,9.64251 16.62124,9.34364 16.30045,9.16155 15.94715,9.10149 z m 9.0723,1.9805 c -0.47653,-0.0336 -0.90471,0.32346 -0.93945,0.7832 -0.03478,0.46025 0.3365,0.87074 0.8125,0.9043 1.1771,0.08319 1.9714,0.42925 2.5684,1.0605 v 0.002 c 0.60928,0.643 0.88651,1.3773 0.86328,2.3809 v 0.0039 c -0.0104,0.46178 0.37701,0.85312 0.85547,0.86324 h 0.02147 c 0.47147,0 0.86451,-0.37219 0.875,-0.82812 0.03225,-1.3793 -0.41702,-2.6101 -1.3223,-3.5645 -0.90942,-0.95914 -2.1978,-1.4963 -3.7344,-1.6055 z" />
  </g>
</svg>
