<?xml version="1.0" encoding="UTF-8" standalone="no"?>
<!-- Created with Inkscape (http://www.inkscape.org/) -->

<svg
   xmlns:dc="http://purl.org/dc/elements/1.1/"
   xmlns:cc="http://creativecommons.org/ns#"
   xmlns:rdf="http://www.w3.org/1999/02/22-rdf-syntax-ns#"
   xmlns:svg="http://www.w3.org/2000/svg"
   xmlns="http://www.w3.org/2000/svg"
   xmlns:xlink="http://www.w3.org/1999/xlink"
   xmlns:sodipodi="http://sodipodi.sourceforge.net/DTD/sodipodi-0.dtd"
   xmlns:inkscape="http://www.inkscape.org/namespaces/inkscape"
   width="48px"
   height="48px"
   id="svg3039"
   version="1.1"
   inkscape:version="0.48.5 r10040"
   sodipodi:docname="vivaldi.svg">
  <defs
     id="defs3041">
    <linearGradient
       id="linearGradient3859">
      <stop
         style="stop-color:#ab534c;stop-opacity:1;"
         offset="0"
         id="stop3861" />
      <stop
         style="stop-color:#eb4747;stop-opacity:1;"
         offset="1"
         id="stop3863" />
    </linearGradient>
    <linearGradient
       id="linearGradient3838">
      <stop
         style="stop-color:#892ca0;stop-opacity:1;"
         offset="0"
         id="stop3840" />
      <stop
         style="stop-color:#c370d8;stop-opacity:1;"
         offset="1"
         id="stop3842" />
    </linearGradient>
    <linearGradient
       id="linearGradient3824">
      <stop
         style="stop-color:#ebebeb;stop-opacity:1;"
         offset="0"
         id="stop3826" />
      <stop
         style="stop-color:#dbdbdb;stop-opacity:1"
         offset="1"
         id="stop3830" />
    </linearGradient>
    <linearGradient
       id="linearGradient4279">
      <stop
         style="stop-color:#f9f9f9;stop-opacity:1;"
         offset="0"
         id="stop4281" />
      <stop
         id="stop4283"
         offset="0.81130701"
         style="stop-color:#c4c4c4;stop-opacity:1;" />
      <stop
         style="stop-color:#565656;stop-opacity:1;"
         offset="1"
         id="stop4285" />
    </linearGradient>
    <linearGradient
       id="linearGradient4239">
      <stop
         style="stop-color:#505050;stop-opacity:1;"
         offset="0"
         id="stop4241" />
      <stop
         style="stop-color:#ffffff;stop-opacity:0.15422885;"
         offset="1"
         id="stop4243" />
    </linearGradient>
    <linearGradient
       id="linearGradient4223">
      <stop
         id="stop4227"
         offset="0"
         style="stop-color:#e9e9e9;stop-opacity:0;" />
      <stop
         style="stop-color:#929292;stop-opacity:1"
         offset="1"
         id="stop4229" />
    </linearGradient>
    <linearGradient
       id="linearGradient4169">
      <stop
         id="stop4171"
         offset="0"
         style="stop-color:#f9f9f9;stop-opacity:1;" />
      <stop
         style="stop-color:#c4c4c4;stop-opacity:1;"
         offset="0.71567649"
         id="stop4175" />
      <stop
         id="stop4173"
         offset="1"
         style="stop-color:#565656;stop-opacity:1;" />
    </linearGradient>
    <linearGradient
       id="linearGradient4153">
      <stop
         style="stop-color:#ffffff;stop-opacity:1;"
         offset="0"
         id="stop4155" />
      <stop
         style="stop-color:#000000;stop-opacity:1;"
         offset="1"
         id="stop4157" />
    </linearGradient>
    <linearGradient
       id="linearGradient4145">
      <stop
         id="stop4147"
         offset="0"
         style="stop-color:#a0a0a0;stop-opacity:1;" />
      <stop
         id="stop4149"
         offset="1"
         style="stop-color:#202020;stop-opacity:1;" />
    </linearGradient>
    <linearGradient
       id="linearGradient4048">
      <stop
         id="stop4309"
         offset="0"
         style="stop-color:#555555;stop-opacity:1" />
      <stop
         id="stop4054"
         offset="1"
         style="stop-color:#898989;stop-opacity:1" />
    </linearGradient>
    <linearGradient
       id="linearGradient3886">
      <stop
         style="stop-color:#f9f9f9;stop-opacity:1;"
         offset="0"
         id="stop3888" />
      <stop
         style="stop-color:#afafaf;stop-opacity:1;"
         offset="1"
         id="stop3890" />
    </linearGradient>
    <linearGradient
       id="linearGradient3839">
      <stop
         style="stop-color:#85bcc3;stop-opacity:1;"
         offset="0"
         id="stop3841" />
      <stop
         style="stop-color:#3b67c0;stop-opacity:1;"
         offset="1"
         id="stop3843" />
    </linearGradient>
    <linearGradient
       y2="17"
       x2="40"
       y1="31"
       x1="54"
       gradientTransform="matrix(0,-1,-1,0,71,73)"
       gradientUnits="userSpaceOnUse"
       id="linearGradient3029"
       xlink:href="#linearGradient4410"
       inkscape:collect="always" />
    <linearGradient
       inkscape:collect="always"
       id="linearGradient4410">
      <stop
         style="stop-color:#383e51;stop-opacity:1"
         offset="0"
         id="stop4412" />
      <stop
         style="stop-color:#655c6f;stop-opacity:0"
         offset="1"
         id="stop4414" />
    </linearGradient>
    <linearGradient
       y2="12.770295"
       x2="40.426834"
       y1="22.719494"
       x1="59.420761"
       gradientTransform="matrix(0,-1.1056167,1.1056167,0,1.8809486,83.696584)"
       gradientUnits="userSpaceOnUse"
       id="linearGradient3028"
       xlink:href="#linearGradient4410"
       inkscape:collect="always" />
    <linearGradient
       y2="17"
       x2="40"
       y1="31"
       x1="54"
       gradientTransform="matrix(0,-1,1,0,4,78)"
       gradientUnits="userSpaceOnUse"
       id="linearGradient3028-7"
       xlink:href="#linearGradient4410-0"
       inkscape:collect="always" />
    <linearGradient
       inkscape:collect="always"
       id="linearGradient4410-0">
      <stop
         style="stop-color:#383e51;stop-opacity:1"
         offset="0"
         id="stop4412-9" />
      <stop
         style="stop-color:#655c6f;stop-opacity:0"
         offset="1"
         id="stop4414-1" />
    </linearGradient>
    <linearGradient
       y2="17"
       x2="40"
       y1="31"
       x1="54"
       gradientTransform="matrix(0.92361896,-0.60771399,-0.60771399,-0.92361896,-13.529375,73.514474)"
       gradientUnits="userSpaceOnUse"
       id="linearGradient3943"
       xlink:href="#linearGradient4410-0"
       inkscape:collect="always" />
    <radialGradient
       inkscape:collect="always"
       xlink:href="#linearGradient3886-5"
       id="radialGradient3892-5"
       cx="24.061937"
       cy="23.872463"
       fx="24.061937"
       fy="23.872463"
       r="17.025761"
       gradientTransform="matrix(1,0,0,0.99900396,0,0.02377793)"
       gradientUnits="userSpaceOnUse" />
    <linearGradient
       id="linearGradient3886-5">
      <stop
         style="stop-color:#f9f9f9;stop-opacity:1;"
         offset="0"
         id="stop3888-9" />
      <stop
         style="stop-color:#afafaf;stop-opacity:1;"
         offset="1"
         id="stop3890-3" />
    </linearGradient>
    <radialGradient
       inkscape:collect="always"
       xlink:href="#linearGradient4169-1"
       id="radialGradient4099-4"
       cx="26.5"
       cy="23.5"
       fx="26.5"
       fy="23.5"
       r="19.5"
       gradientTransform="matrix(0.9473684,0,0,0.79892039,1.3947374,4.725371)"
       gradientUnits="userSpaceOnUse" />
    <linearGradient
       id="linearGradient4169-1">
      <stop
         id="stop4171-2"
         offset="0"
         style="stop-color:#f9f9f9;stop-opacity:1;" />
      <stop
         style="stop-color:#c4c4c4;stop-opacity:1;"
         offset="0.76923078"
         id="stop4175-4" />
      <stop
         id="stop4173-4"
         offset="1"
         style="stop-color:#565656;stop-opacity:1;" />
    </linearGradient>
    <linearGradient
       inkscape:collect="always"
       xlink:href="#linearGradient4239"
       id="linearGradient4245"
       x1="44"
       y1="28.00672"
       x2="57.993282"
       y2="13"
       gradientUnits="userSpaceOnUse" />
    <linearGradient
       inkscape:collect="always"
       xlink:href="#linearGradient4223"
       id="linearGradient4249"
       x1="24.643452"
       y1="23.494081"
       x2="39.495842"
       y2="9.4033527"
       gradientUnits="userSpaceOnUse" />
    <linearGradient
       inkscape:collect="always"
       xlink:href="#linearGradient3838"
       id="linearGradient3844"
       x1="29.981358"
       y1="44.8125"
       x2="59.990952"
       y2="7.3004994"
       gradientUnits="userSpaceOnUse" />
    <linearGradient
       inkscape:collect="always"
       xlink:href="#linearGradient3886-5"
       id="linearGradient3860"
       x1="27"
       y1="21"
       x2="18"
       y2="33"
       gradientUnits="userSpaceOnUse" />
    <linearGradient
       inkscape:collect="always"
       xlink:href="#linearGradient3886-5"
       id="linearGradient3898"
       x1="40"
       y1="14"
       x2="14"
       y2="40"
       gradientUnits="userSpaceOnUse" />
  </defs>
  <sodipodi:namedview
     id="base"
     pagecolor="#ffffff"
     bordercolor="#666666"
     borderopacity="1.0"
     inkscape:pageopacity="0.0"
     inkscape:pageshadow="2"
     inkscape:zoom="5.6568545"
     inkscape:cx="0.37592217"
     inkscape:cy="23.33792"
     inkscape:current-layer="layer1"
     showgrid="true"
     inkscape:grid-bbox="true"
     inkscape:document-units="px"
     showguides="false"
     inkscape:guide-bbox="true"
     inkscape:window-width="1366"
     inkscape:window-height="698"
     inkscape:window-x="-4"
     inkscape:window-y="-5"
     inkscape:window-maximized="1"
     inkscape:snap-global="true">
    <inkscape:grid
       type="xygrid"
       id="grid3047" />
    <sodipodi:guide
       orientation="1,0"
       position="3,4"
       id="guide3051" />
    <sodipodi:guide
       orientation="1,0"
       position="45,4"
       id="guide3053" />
    <sodipodi:guide
       orientation="0,1"
       position="-2,45"
       id="guide3055" />
    <sodipodi:guide
       orientation="0,1"
       position="2,3"
       id="guide3057" />
    <sodipodi:guide
       orientation="1,0"
       position="24,31"
       id="guide3059" />
    <sodipodi:guide
       orientation="0,1"
       position="10,24"
       id="guide3061" />
  </sodipodi:namedview>
  <metadata
     id="metadata3044">
    <rdf:RDF>
      <cc:Work
         rdf:about="">
        <dc:format>image/svg+xml</dc:format>
        <dc:type
           rdf:resource="http://purl.org/dc/dcmitype/StillImage" />
        <dc:title />
      </cc:Work>
    </rdf:RDF>
  </metadata>
  <g
     id="layer1"
     inkscape:label="Layer 1"
     inkscape:groupmode="layer">
    <path
       style="opacity:1;fill:#808080;fill-opacity:1;stroke:none;stroke-width:0.20000000000000001;stroke-miterlimit:4;stroke-dasharray:none"
       d="m 23.993283,2.9865651 c -11.60169,0 -21.0067177,9.4050259 -21.0067177,21.0067179 C 2.9865653,35.594973 12.391593,45 23.993283,45 35.594972,45 45,35.594973 45,23.993283 45,12.391591 35.594972,2.9865651 23.993283,2.9865651 z m 0,3.3168501 c 9.769844,0 17.689867,7.9200228 17.689867,17.6898678 0,9.769843 -7.920023,17.689866 -17.689867,17.689866 -9.769845,0 -17.6898675,-7.920023 -17.6898675,-17.689866 0,-9.769845 7.9200225,-17.6898678 17.6898675,-17.6898678 z"
       id="path4080-7"
       inkscape:connector-curvature="0" />
    <g
       transform="matrix(0.99968029,0,0,0.9990201,-19.471772,0.2036836)"
       id="g4231"
       style="fill:#da2626;fill-opacity:1">
      <path
         sodipodi:type="arc"
         style="fill:#da2626;fill-opacity:1;stroke:none"
         id="path4233"
         sodipodi:cx="26.5"
         sodipodi:cy="23.5"
         sodipodi:rx="19.5"
         sodipodi:ry="18.5"
         d="M 46,23.5 C 46,33.717268 37.269553,42 26.5,42 15.730447,42 7,33.717268 7,23.5 7,13.282732 15.730447,5 26.5,5 37.269553,5 46,13.282732 46,23.5 z"
         transform="matrix(1.0772675,0,0,1.1354984,14.938086,-2.8784328)" />
    </g>
    <g
       id="g4214"
       transform="translate(-92.993284,0)"
       style="fill:url(#linearGradient4245);fill-opacity:1" />
    <path
       style="fill:url(#linearGradient3898);fill-opacity:1"
       inkscape:connector-curvature="0"
       id="rect4269"
       d="m 33.44279,13.31834 c -0.52135,3.89e-4 -1.0492,0.10961 -1.4718,0.32231 -0.61746,0.31082 -1.2389,0.96921 -1.5146,1.6045 -0.29299,0.67524 -0.33507,1.8657 -0.08822,2.4983 0.10441,0.26758 0.28457,0.72732 0.4003,1.0217 0.26136,0.66474 0.35544,2.1268 0.18973,2.9481 -0.18658,0.92468 -0.76624,1.9929 -1.4457,2.6642 -2.0391,2.0146 -5.122,2.0499 -7.1472,0.08179 -0.69885,-0.67916 -0.79797,-0.84132 -3.9528,-6.4711 -1.071,-1.9113 -2.0316,-3.5116 -2.2317,-3.7184 -0.627,-0.66338 -1.4983,-0.90063 -2.2964,-0.90459 -1.716,-0.02785 -2.9054,1.3149 -3.1876,2.7562 -0.20848,1.1534 -0.30438,0.95488 5.2388,10.833 3.4988,6.2348 5.1619,9.1088 5.4346,9.3913 0.96592,1.0008 2.3421,1.2489 3.6298,0.65435 0.33858,-0.15633 0.72186,-0.4373 0.96669,-0.70862 0.47957,-0.53146 10.397,-18.137 10.558,-18.742 0.16866,-0.63474 0.12677,-1.5366 -0.10018,-2.1607 -0.28232,-0.77633 -1.0612,-1.5729 -1.8294,-1.8709 -0.3448,-0.13376 -0.74636,-0.19933 -1.1518,-0.19901 z" />
    <path
       d="m 33.44279,13.31834 c -0.52135,3.89e-4 -1.0492,0.10961 -1.4718,0.32231 -0.61746,0.31082 -1.2389,0.96921 -1.5146,1.6045 -0.29299,0.67524 -0.33507,1.8657 -0.08822,2.4983 0.10441,0.26758 0.28457,0.72732 0.4003,1.0217 0.26136,0.66474 0.35544,2.1268 0.18973,2.9481 -0.18658,0.92468 -0.76624,1.9929 -1.4457,2.6642 -2.0391,2.0146 -5.122,2.0499 -7.1472,0.08179 -0.69885,-0.67916 -0.79797,-0.84132 -3.9528,-6.4711 -1.071,-1.9113 -2.0316,-3.5116 -2.2317,-3.7184 -0.627,-0.66338 -1.4983,-0.90063 -2.2964,-0.90459 -1.716,-0.02785 -2.9054,1.3149 -3.1876,2.7562 -0.20848,1.1534 -0.30438,0.95488 5.2388,10.833 3.4988,6.2348 5.1619,9.1088 5.4346,9.3913 0.96592,1.0008 2.3421,1.2489 3.6298,0.65435 0.33858,-0.15633 0.72186,-0.4373 0.96669,-0.70862 0.47957,-0.53146 10.397,-18.137 10.558,-18.742 0.16866,-0.63474 0.12677,-1.5366 -0.10018,-2.1607 -0.28232,-0.77633 -1.0612,-1.5729 -1.8294,-1.8709 -0.3448,-0.13376 -0.74636,-0.19933 -1.1518,-0.19901 z"
       id="path3900"
       inkscape:connector-curvature="0"
       style="fill:#b3b3b3;fill-opacity:1" />
  </g>
</svg>
