<?xml version="1.0" encoding="UTF-8" standalone="no"?>
<!-- Created with Inkscape (http://www.inkscape.org/) -->

<svg
   xmlns:dc="http://purl.org/dc/elements/1.1/"
   xmlns:cc="http://creativecommons.org/ns#"
   xmlns:rdf="http://www.w3.org/1999/02/22-rdf-syntax-ns#"
   xmlns:svg="http://www.w3.org/2000/svg"
   xmlns="http://www.w3.org/2000/svg"
   xmlns:xlink="http://www.w3.org/1999/xlink"
   xmlns:sodipodi="http://sodipodi.sourceforge.net/DTD/sodipodi-0.dtd"
   xmlns:inkscape="http://www.inkscape.org/namespaces/inkscape"
   width="64px"
   height="64px"
   id="svg3328"
   version="1.1"
   inkscape:version="0.48.5 r10040"
   sodipodi:docname="text-x-python.svg">
  <defs
     id="defs3330">
    <linearGradient
       id="linearGradient4287">
      <stop
         id="stop4289"
         offset="0"
         style="stop-color:#f4f4f4;stop-opacity:1;" />
      <stop
         id="stop4291"
         offset="1"
         style="stop-color:#c5c5c5;stop-opacity:1;" />
    </linearGradient>
    <linearGradient
       inkscape:collect="always"
       xlink:href="#linearGradient3932"
       id="linearGradient3938"
       x1="125"
       y1="862.36218"
       x2="125"
       y2="1012.3622"
       gradientUnits="userSpaceOnUse" />
    <linearGradient
       id="linearGradient3932">
      <stop
         style="stop-color:#e6e6e6;stop-opacity:1;"
         offset="0"
         id="stop3934" />
      <stop
         style="stop-color:#b3a492;stop-opacity:1;"
         offset="1"
         id="stop3936" />
    </linearGradient>
    <linearGradient
       gradientTransform="matrix(1,0,0,-1,-14,78)"
       inkscape:collect="always"
       xlink:href="#linearGradient4410"
       id="linearGradient4427"
       x1="54"
       y1="31"
       x2="40"
       y2="17"
       gradientUnits="userSpaceOnUse" />
    <linearGradient
       inkscape:collect="always"
       id="linearGradient4410">
      <stop
         style="stop-color:#383e51;stop-opacity:1"
         offset="0"
         id="stop4412" />
      <stop
         style="stop-color:#655c6f;stop-opacity:0"
         offset="1"
         id="stop4414" />
    </linearGradient>
    <linearGradient
       inkscape:collect="always"
       xlink:href="#linearGradient3791-7-4-3"
       id="linearGradient3046"
       gradientUnits="userSpaceOnUse"
       x1="35"
       y1="59"
       x2="35"
       y2="14" />
    <linearGradient
       id="linearGradient3791-7-4-3">
      <stop
         style="stop-color:#9c9c9c;stop-opacity:0.48258707;"
         offset="0"
         id="stop3793-1-6-1" />
      <stop
         style="stop-color:#9f9f9f;stop-opacity:0.09452736;"
         offset="1"
         id="stop3795-9-8-2" />
    </linearGradient>
    <linearGradient
       y2="14"
       x2="35"
       y1="59"
       x1="35"
       gradientUnits="userSpaceOnUse"
       id="linearGradient3063"
       xlink:href="#linearGradient3791-7-4-3"
       inkscape:collect="always"
       gradientTransform="translate(-69,-2)" />
    <linearGradient
       inkscape:collect="always"
       xlink:href="#linearGradient3791-7-4-3"
       id="linearGradient3856"
       x1="33"
       y1="59"
       x2="33"
       y2="19"
       gradientUnits="userSpaceOnUse" />
    <linearGradient
       inkscape:collect="always"
       xlink:href="#linearGradient3791-7-4-3"
       id="linearGradient3866"
       x1="30"
       y1="59"
       x2="30"
       y2="14"
       gradientUnits="userSpaceOnUse" />
  </defs>
  <sodipodi:namedview
     id="base"
     pagecolor="#ffffff"
     bordercolor="#666666"
     borderopacity="1.0"
     inkscape:pageopacity="0.0"
     inkscape:pageshadow="2"
     inkscape:zoom="7.7781744"
     inkscape:cx="32.195813"
     inkscape:cy="35.276862"
     inkscape:current-layer="layer1"
     showgrid="true"
     inkscape:document-units="px"
     inkscape:grid-bbox="true"
     inkscape:window-width="1366"
     inkscape:window-height="698"
     inkscape:window-x="-4"
     inkscape:window-y="-5"
     inkscape:window-maximized="1"
     showguides="true"
     inkscape:guide-bbox="true">
    <inkscape:grid
       type="xygrid"
       id="grid3336" />
    <sodipodi:guide
       orientation="0,1"
       position="50,44"
       id="guide4416" />
    <sodipodi:guide
       orientation="0,1"
       position="50,18"
       id="guide4418" />
    <sodipodi:guide
       orientation="1,0"
       position="33,42"
       id="guide4494" />
  </sodipodi:namedview>
  <metadata
     id="metadata3333">
    <rdf:RDF>
      <cc:Work
         rdf:about="">
        <dc:format>image/svg+xml</dc:format>
        <dc:type
           rdf:resource="http://purl.org/dc/dcmitype/StillImage" />
        <dc:title></dc:title>
      </cc:Work>
    </rdf:RDF>
  </metadata>
  <g
     id="layer1"
     inkscape:label="Layer 1"
     inkscape:groupmode="layer">
    <path
       style="fill:#c8beb7;fill-opacity:1;stroke:none"
       d="m 10,4 29,0 16,16 0,39 -45,0 z"
       id="rect4869-5"
       inkscape:connector-curvature="0"
       sodipodi:nodetypes="cccccc" />
    <path
       style="fill:#6c5d53;fill-opacity:1;stroke:none"
       d="M 55,4 55,18 41,4 z"
       id="rect4177"
       inkscape:connector-curvature="0"
       sodipodi:nodetypes="cccc" />
    <text
       xml:space="preserve"
       style="font-size:9px;font-style:normal;font-weight:normal;text-align:center;line-height:125%;letter-spacing:0px;word-spacing:0px;text-anchor:middle;fill:#4d4d4d;fill-opacity:1;stroke:none;font-family:Sans"
       x="25"
       y="16"
       id="text3778"
       sodipodi:linespacing="125%"><tspan
         sodipodi:role="line"
         id="tspan3780"
         x="25"
         y="16" /></text>
    <path
       style="opacity:0.65966384;fill:#ffffff;fill-opacity:0.67942583;stroke:none"
       d="M 10,4 39,4 40,5 10,5 z"
       id="rect3940-7-7"
       inkscape:connector-curvature="0"
       sodipodi:nodetypes="ccccc" />
    <path
       style="opacity:0.65966384;fill:#ffffff;fill-opacity:0.67942583;stroke:none"
       d="M 42,5 55,5 55,4 41,4 z"
       id="rect3940-7-7-8"
       inkscape:connector-curvature="0"
       sodipodi:nodetypes="ccccc" />
    <path
       inkscape:connector-curvature="0"
       style="fill:#6c5d53;fill-opacity:1;stroke:none"
       d="m 30.606724,20.705044 c -1.825405,0 -3.294956,1.46955 -3.294956,3.294956 l 0,2.196635 5.491595,0 0,1.09832 -5.491595,0 -2.196637,0 c -2.433874,0 -4.393274,1.959399 -4.393274,4.393275 l 0,2.196636 c 0,2.433875 1.9594,4.393277 4.393274,4.393277 l 0,-2.196639 c 0,-2.022178 1.359927,-3.699779 3.213439,-4.215227 0.161275,-0.04484 0.326619,-0.07941 0.493387,-0.109402 0.224979,-0.03527 0.451269,-0.06864 0.686448,-0.06864 l 4.393276,0 3.541647,0 c 0.524097,-0.583072 0.851628,-1.34731 0.851628,-2.196637 l 0,-5.491593 c 0,-1.825407 -1.469551,-3.294956 -3.294956,-3.294956 l -4.393276,0 z m -1.098319,2.196637 c 0.608469,0 1.098319,0.48985 1.098319,1.098319 0,0.608468 -0.48985,1.098318 -1.098319,1.098318 -0.608468,0 -1.098318,-0.48985 -1.098318,-1.098318 0,-0.608469 0.48985,-1.098319 1.098318,-1.098319 z m 10.983188,4.393274 0,2.196637 c 0,2.022177 -1.359927,3.69978 -3.213441,4.215228 -0.161274,0.04484 -0.326616,0.07941 -0.493385,0.109403 -0.224979,0.03527 -0.451269,0.06866 -0.686448,0.06866 l -4.393275,0 -3.541648,0 c -0.524097,0.583071 -0.851628,1.34731 -0.851628,2.196638 l 0,5.491592 c 0,1.825405 1.469551,3.294956 3.294956,3.294956 l 4.393276,0 c 1.825405,0 3.294956,-1.469551 3.294956,-3.294956 l 0,-2.196637 -5.491593,0 0,-1.09832 5.491593,0 2.196637,0 c 2.433874,0 4.393274,-1.959401 4.393274,-4.393273 l 0,-2.196639 c 0,-2.433874 -1.9594,-4.393274 -4.393274,-4.393274 z M 36.098319,40.47478 c 0.608468,0 1.098318,0.48985 1.098318,1.098317 0,0.608468 -0.48985,1.09832 -1.098318,1.09832 C 35.48985,42.671417 35,42.181565 35,41.573097 35,40.96463 35.48985,40.47478 36.098319,40.47478 z"
       id="rect4270" />
  </g>
</svg>
