/* XPM */
static char * close_prelight_xpm[] = {
"40 40 13 1",
" 	c None",
".	c #E95420",
"+	c #A83D17",
"@	c #E9E9E9",
"#	c #E0E0E0",
"$	c #E1E1E1",
"%	c #FFFFFF",
"&	c #DDDDDD",
"*	c #DEDEDE",
"=	c #DFDFDF",
"-	c #DCDCDC",
";	c #F7F7F7",
">	c #F8F8F8",
"........................................",
"........................................",
"........................................",
"........................................",
"........................................",
"........................................",
"........................................",
"........................................",
"........................................",
"........................................",
"........................................",
"........................................",
"..............++.........++.............",
".............+@#.........#@+............",
".............+$%&.......*%$+............",
"...............&%&.....&%&..............",
"................*%&+.+&%=...............",
".................&%&+&%&................",
"..................-%;%-.................",
"..................+>%>+.................",
"..................-%;%-.................",
".................&%&+&%&................",
"................=%&+.+&%*...............",
"...............&%&.....&%&..............",
".............+$%*.......*%$+............",
".............+@#.........#@+............",
"..............++.........++.............",
"........................................",
"........................................",
"........................................",
"........................................",
"........................................",
"........................................",
"........................................",
"........................................",
"........................................",
"........................................",
"........................................",
"........................................",
"........................................"};
