/* XPM */
static char * close_inactive_xpm[] = {
"40 40 7 1",
" 	c None",
".	c #444444",
"+	c #57595E",
"@	c #63656A",
"#	c #8F8F8F",
"$	c #40434E",
"%	c #939393",
".......................................+",
"........................................",
"........................................",
"........................................",
"........................................",
"........................................",
"........................................",
"........................................",
"........................................",
"........................................",
"........................................",
"........................................",
"..............@@.........@@.............",
".............@##.........##@............",
".............@###.......###@............",
"...............###.....###..............",
"................###$.$###...............",
".................#######................",
"..................#####.................",
"..................%###%.................",
"..................#####.................",
".................#######................",
"................###$.$###...............",
"...............###.....###..............",
".............@###.......###@............",
".............@##.........##@............",
"..............@@.........@@.............",
"........................................",
"........................................",
"........................................",
"........................................",
"........................................",
"........................................",
"........................................",
"........................................",
"........................................",
"........................................",
"........................................",
"........................................",
"........................................"};
