/* XPM */
static char * maximize_inactive_xpm[] = {
"40 40 4 1",
" 	c None",
".	c #444444",
"+	c #63656A",
"@	c #8F8F8F",
"........................................",
"........................................",
"........................................",
"........................................",
"........................................",
"........................................",
"........................................",
"........................................",
"........................................",
"........................................",
"........................................",
"........................................",
".............+++++++++++++++............",
".............+@@@@@@@@@@@@@+............",
".............+@+++++++++++@+............",
".............+@+.........+@+............",
".............+@+.........+@+............",
".............+@+.........+@+............",
".............+@+.........+@+............",
".............+@+.........+@+............",
".............+@+.........+@+............",
".............+@+.........+@+............",
".............+@+.........+@+............",
".............+@+.........+@+............",
".............+@+++++++++++@+............",
".............+@@@@@@@@@@@@@+............",
".............+++++++++++++++............",
"........................................",
"........................................",
"........................................",
"........................................",
"........................................",
"........................................",
"........................................",
"........................................",
"........................................",
"........................................",
"........................................",
"........................................",
"........................................"};
